<svg id="Warstwa_1" data-name="Warstwa 1" xmlns="http://www.w3.org/2000/svg" viewBox="0 0 158.74 158.74"><defs><style>.cls-1{fill:#e4e4e3;}</style></defs><circle class="cls-1" cx="8.5" cy="8.5" r="8.5"/><circle class="cls-1" cx="36.85" cy="8.5" r="8.5"/><circle class="cls-1" cx="8.5" cy="36.85" r="8.5"/><circle class="cls-1" cx="36.85" cy="36.85" r="8.5"/><circle class="cls-1" cx="65.2" cy="8.5" r="8.5"/><circle class="cls-1" cx="93.54" cy="8.5" r="8.5"/><circle class="cls-1" cx="65.2" cy="36.85" r="8.5"/><circle class="cls-1" cx="93.54" cy="36.85" r="8.5"/><circle class="cls-1" cx="121.89" cy="8.5" r="8.5"/><circle class="cls-1" cx="150.24" cy="8.5" r="8.5"/><circle class="cls-1" cx="121.89" cy="36.85" r="8.5"/><circle class="cls-1" cx="150.24" cy="36.85" r="8.5"/><circle class="cls-1" cx="8.5" cy="65.2" r="8.5"/><circle class="cls-1" cx="36.85" cy="65.2" r="8.5"/><circle class="cls-1" cx="8.5" cy="93.54" r="8.5"/><circle class="cls-1" cx="36.85" cy="93.54" r="8.5"/><circle class="cls-1" cx="65.2" cy="65.2" r="8.5"/><circle class="cls-1" cx="93.54" cy="65.2" r="8.5"/><circle class="cls-1" cx="65.2" cy="93.54" r="8.5"/><circle class="cls-1" cx="93.54" cy="93.54" r="8.5"/><circle class="cls-1" cx="121.89" cy="65.2" r="8.5"/><circle class="cls-1" cx="150.24" cy="65.2" r="8.5"/><circle class="cls-1" cx="121.89" cy="93.54" r="8.5"/><circle class="cls-1" cx="150.24" cy="93.54" r="8.5"/><circle class="cls-1" cx="8.5" cy="121.89" r="8.5"/><circle class="cls-1" cx="36.85" cy="121.89" r="8.5"/><circle class="cls-1" cx="8.5" cy="150.24" r="8.5"/><circle class="cls-1" cx="36.85" cy="150.24" r="8.5"/><circle class="cls-1" cx="65.2" cy="121.89" r="8.5"/><circle class="cls-1" cx="93.54" cy="121.89" r="8.5"/><circle class="cls-1" cx="65.2" cy="150.24" r="8.5"/><circle class="cls-1" cx="93.54" cy="150.24" r="8.5"/><circle class="cls-1" cx="121.89" cy="121.89" r="8.5"/><circle class="cls-1" cx="150.24" cy="121.89" r="8.5"/><circle class="cls-1" cx="121.89" cy="150.24" r="8.5"/><circle class="cls-1" cx="150.24" cy="150.24" r="8.5"/></svg>