<?xml version="1.0" encoding="utf-8"?>
<!-- Generator: Adobe Illustrator 24.1.1, SVG Export Plug-In . SVG Version: 6.00 Build 0)  -->
<svg version="1.1" id="Warstwa_2_1_" xmlns="http://www.w3.org/2000/svg" xmlns:xlink="http://www.w3.org/1999/xlink" x="0px"
	 y="0px" viewBox="0 0 46 50.3" style="enable-background:new 0 0 46 50.3;" xml:space="preserve">
<style type="text/css">
	.st0{fill:#CBD5E1;}
</style>
<path class="st0" d="M1.8,50L1.8,50c-0.8,0-1.4-0.6-1.4-1.4l0,0c0-0.8,0.6-1.4,1.4-1.4l0,0c0.8,0,1.4,0.6,1.4,1.4l0,0
	C3.2,49.3,2.6,50,1.8,50z"/>
<path class="st0" d="M10.3,50L10.3,50c-0.8,0-1.4-0.6-1.4-1.4l0,0c0-0.8,0.6-1.4,1.4-1.4l0,0c0.8,0,1.4,0.6,1.4,1.4l0,0
	C11.7,49.3,11.1,50,10.3,50z"/>
<path class="st0" d="M18.8,50L18.8,50c-0.8,0-1.4-0.6-1.4-1.4l0,0c0-0.8,0.6-1.4,1.4-1.4l0,0c0.8,0,1.4,0.6,1.4,1.4l0,0
	C20.2,49.3,19.6,50,18.8,50z"/>
<path class="st0" d="M27.3,50L27.3,50c-0.8,0-1.4-0.6-1.4-1.4l0,0c0-0.8,0.6-1.4,1.4-1.4l0,0c0.8,0,1.4,0.6,1.4,1.4l0,0
	C28.7,49.3,28.1,50,27.3,50z"/>
<path class="st0" d="M35.8,50L35.8,50c-0.8,0-1.4-0.6-1.4-1.4l0,0c0-0.8,0.6-1.4,1.4-1.4l0,0c0.8,0,1.4,0.6,1.4,1.4l0,0
	C37.3,49.3,36.6,50,35.8,50z"/>
<path class="st0" d="M44.3,50L44.3,50c-0.8,0-1.4-0.6-1.4-1.4l0,0c0-0.8,0.6-1.4,1.4-1.4l0,0c0.8,0,1.4,0.6,1.4,1.4l0,0
	C45.8,49.3,45.1,50,44.3,50z"/>
<path class="st0" d="M1.8,41.5L1.8,41.5c-0.8,0-1.4-0.6-1.4-1.4l0,0c0-0.8,0.6-1.4,1.4-1.4l0,0c0.8,0,1.4,0.6,1.4,1.4l0,0
	C3.2,40.8,2.6,41.5,1.8,41.5z"/>
<path class="st0" d="M10.3,41.5L10.3,41.5c-0.8,0-1.4-0.6-1.4-1.4l0,0c0-0.8,0.6-1.4,1.4-1.4l0,0c0.8,0,1.4,0.6,1.4,1.4l0,0
	C11.7,40.8,11.1,41.5,10.3,41.5z"/>
<path class="st0" d="M18.8,41.5L18.8,41.5c-0.8,0-1.4-0.6-1.4-1.4l0,0c0-0.8,0.6-1.4,1.4-1.4l0,0c0.8,0,1.4,0.6,1.4,1.4l0,0
	C20.2,40.8,19.6,41.5,18.8,41.5z"/>
<path class="st0" d="M27.3,41.5L27.3,41.5c-0.8,0-1.4-0.6-1.4-1.4l0,0c0-0.8,0.6-1.4,1.4-1.4l0,0c0.8,0,1.4,0.6,1.4,1.4l0,0
	C28.7,40.8,28.1,41.5,27.3,41.5z"/>
<path class="st0" d="M35.8,41.5L35.8,41.5c-0.8,0-1.4-0.6-1.4-1.4l0,0c0-0.8,0.6-1.4,1.4-1.4l0,0c0.8,0,1.4,0.6,1.4,1.4l0,0
	C37.3,40.8,36.6,41.5,35.8,41.5z"/>
<path class="st0" d="M44.3,41.5L44.3,41.5c-0.8,0-1.4-0.6-1.4-1.4l0,0c0-0.8,0.6-1.4,1.4-1.4l0,0c0.8,0,1.4,0.6,1.4,1.4l0,0
	C45.8,40.8,45.1,41.5,44.3,41.5z"/>
<path class="st0" d="M1.8,33L1.8,33c-0.8,0-1.4-0.6-1.4-1.4l0,0c0-0.8,0.6-1.4,1.4-1.4l0,0c0.8,0,1.4,0.6,1.4,1.4l0,0
	C3.2,32.3,2.6,33,1.8,33z"/>
<path class="st0" d="M10.3,33L10.3,33c-0.8,0-1.4-0.6-1.4-1.4l0,0c0-0.8,0.6-1.4,1.4-1.4l0,0c0.8,0,1.4,0.6,1.4,1.4l0,0
	C11.7,32.3,11.1,33,10.3,33z"/>
<path class="st0" d="M18.8,33L18.8,33c-0.8,0-1.4-0.6-1.4-1.4l0,0c0-0.8,0.6-1.4,1.4-1.4l0,0c0.8,0,1.4,0.6,1.4,1.4l0,0
	C20.2,32.3,19.6,33,18.8,33z"/>
<path class="st0" d="M27.3,33L27.3,33c-0.8,0-1.4-0.6-1.4-1.4l0,0c0-0.8,0.6-1.4,1.4-1.4l0,0c0.8,0,1.4,0.6,1.4,1.4l0,0
	C28.7,32.3,28.1,33,27.3,33z"/>
<path class="st0" d="M35.8,33L35.8,33c-0.8,0-1.4-0.6-1.4-1.4l0,0c0-0.8,0.6-1.4,1.4-1.4l0,0c0.8,0,1.4,0.6,1.4,1.4l0,0
	C37.3,32.3,36.6,33,35.8,33z"/>
<path class="st0" d="M44.3,33L44.3,33c-0.8,0-1.4-0.6-1.4-1.4l0,0c0-0.8,0.6-1.4,1.4-1.4l0,0c0.8,0,1.4,0.6,1.4,1.4l0,0
	C45.8,32.3,45.1,33,44.3,33z"/>
<path class="st0" d="M1.8,24.5L1.8,24.5c-0.8,0-1.4-0.6-1.4-1.4l0,0c0-0.8,0.6-1.4,1.4-1.4l0,0c0.8,0,1.4,0.6,1.4,1.4l0,0
	C3.2,23.8,2.6,24.5,1.8,24.5z"/>
<path class="st0" d="M10.3,24.5L10.3,24.5c-0.8,0-1.4-0.6-1.4-1.4l0,0c0-0.8,0.6-1.4,1.4-1.4l0,0c0.8,0,1.4,0.6,1.4,1.4l0,0
	C11.7,23.8,11.1,24.5,10.3,24.5z"/>
<path class="st0" d="M18.8,24.5L18.8,24.5c-0.8,0-1.4-0.6-1.4-1.4l0,0c0-0.8,0.6-1.4,1.4-1.4l0,0c0.8,0,1.4,0.6,1.4,1.4l0,0
	C20.2,23.8,19.6,24.5,18.8,24.5z"/>
<path class="st0" d="M27.3,24.5L27.3,24.5c-0.8,0-1.4-0.6-1.4-1.4l0,0c0-0.8,0.6-1.4,1.4-1.4l0,0c0.8,0,1.4,0.6,1.4,1.4l0,0
	C28.7,23.8,28.1,24.5,27.3,24.5z"/>
<path class="st0" d="M35.8,24.5L35.8,24.5c-0.8,0-1.4-0.6-1.4-1.4l0,0c0-0.8,0.6-1.4,1.4-1.4l0,0c0.8,0,1.4,0.6,1.4,1.4l0,0
	C37.3,23.8,36.6,24.5,35.8,24.5z"/>
<path class="st0" d="M44.3,24.5L44.3,24.5c-0.8,0-1.4-0.6-1.4-1.4l0,0c0-0.8,0.6-1.4,1.4-1.4l0,0c0.8,0,1.4,0.6,1.4,1.4l0,0
	C45.8,23.8,45.1,24.5,44.3,24.5z"/>
<path class="st0" d="M1.8,16L1.8,16c-0.8,0-1.4-0.6-1.4-1.4l0,0c0-0.8,0.6-1.4,1.4-1.4l0,0c0.8,0,1.4,0.6,1.4,1.4l0,0
	C3.2,15.3,2.6,16,1.8,16z"/>
<path class="st0" d="M10.3,16L10.3,16c-0.8,0-1.4-0.6-1.4-1.4l0,0c0-0.8,0.6-1.4,1.4-1.4l0,0c0.8,0,1.4,0.6,1.4,1.4l0,0
	C11.7,15.3,11.1,16,10.3,16z"/>
<path class="st0" d="M18.8,16L18.8,16c-0.8,0-1.4-0.6-1.4-1.4l0,0c0-0.8,0.6-1.4,1.4-1.4l0,0c0.8,0,1.4,0.6,1.4,1.4l0,0
	C20.2,15.3,19.6,16,18.8,16z"/>
<path class="st0" d="M27.3,16L27.3,16c-0.8,0-1.4-0.6-1.4-1.4l0,0c0-0.8,0.6-1.4,1.4-1.4l0,0c0.8,0,1.4,0.6,1.4,1.4l0,0
	C28.7,15.3,28.1,16,27.3,16z"/>
<path class="st0" d="M35.8,16L35.8,16c-0.8,0-1.4-0.6-1.4-1.4l0,0c0-0.8,0.6-1.4,1.4-1.4l0,0c0.8,0,1.4,0.6,1.4,1.4l0,0
	C37.3,15.3,36.6,16,35.8,16z"/>
<path class="st0" d="M44.3,16L44.3,16c-0.8,0-1.4-0.6-1.4-1.4l0,0c0-0.8,0.6-1.4,1.4-1.4l0,0c0.8,0,1.4,0.6,1.4,1.4l0,0
	C45.8,15.3,45.1,16,44.3,16z"/>
<path class="st0" d="M1.8,7.5L1.8,7.5C1,7.5,0.4,6.8,0.4,6l0,0c0-0.8,0.6-1.4,1.4-1.4l0,0c0.8,0,1.4,0.6,1.4,1.4l0,0
	C3.2,6.8,2.6,7.5,1.8,7.5z"/>
<path class="st0" d="M10.3,7.5L10.3,7.5c-0.8,0-1.4-0.6-1.4-1.4l0,0c0-0.8,0.6-1.4,1.4-1.4l0,0c0.8,0,1.4,0.6,1.4,1.4l0,0
	C11.7,6.8,11.1,7.5,10.3,7.5z"/>
<path class="st0" d="M18.8,7.5L18.8,7.5c-0.8,0-1.4-0.6-1.4-1.4l0,0c0-0.8,0.6-1.4,1.4-1.4l0,0c0.8,0,1.4,0.6,1.4,1.4l0,0
	C20.2,6.8,19.6,7.5,18.8,7.5z"/>
<path class="st0" d="M27.3,7.5L27.3,7.5c-0.8,0-1.4-0.6-1.4-1.4l0,0c0-0.8,0.6-1.4,1.4-1.4l0,0c0.8,0,1.4,0.6,1.4,1.4l0,0
	C28.7,6.8,28.1,7.5,27.3,7.5z"/>
<path class="st0" d="M35.8,7.5L35.8,7.5c-0.8,0-1.4-0.6-1.4-1.4l0,0c0-0.8,0.6-1.4,1.4-1.4l0,0c0.8,0,1.4,0.6,1.4,1.4l0,0
	C37.3,6.8,36.6,7.5,35.8,7.5z"/>
<path class="st0" d="M44.3,7.5L44.3,7.5c-0.8,0-1.4-0.6-1.4-1.4l0,0c0-0.8,0.6-1.4,1.4-1.4l0,0c0.8,0,1.4,0.6,1.4,1.4l0,0
	C45.8,6.8,45.1,7.5,44.3,7.5z"/>
</svg>
