<?xml version="1.0" encoding="utf-8"?>
<!-- Generator: Adobe Illustrator 24.1.1, SVG Export Plug-In . SVG Version: 6.00 Build 0)  -->
<svg version="1.1" id="Warstwa_2_1_" xmlns="http://www.w3.org/2000/svg" xmlns:xlink="http://www.w3.org/1999/xlink" x="0px"
	 y="0px" viewBox="0 0 46 50.3" style="enable-background:new 0 0 46 50.3;" xml:space="preserve">
<style type="text/css">
	.st0{opacity:0.55;fill:#0284C7;}
</style>
<path class="st0" d="M1.4,50.3L1.4,50.3c-0.8,0-1.4-0.6-1.4-1.4l0,0c0-0.8,0.6-1.4,1.4-1.4l0,0c0.8,0,1.4,0.6,1.4,1.4l0,0
	C2.8,49.6,2.2,50.3,1.4,50.3z"/>
<path class="st0" d="M9.9,50.3L9.9,50.3c-0.8,0-1.4-0.6-1.4-1.4l0,0c0-0.8,0.6-1.4,1.4-1.4l0,0c0.8,0,1.4,0.6,1.4,1.4l0,0
	C11.3,49.6,10.7,50.3,9.9,50.3z"/>
<path class="st0" d="M18.4,50.3L18.4,50.3c-0.8,0-1.4-0.6-1.4-1.4l0,0c0-0.8,0.6-1.4,1.4-1.4l0,0c0.8,0,1.4,0.6,1.4,1.4l0,0
	C19.8,49.6,19.2,50.3,18.4,50.3z"/>
<path class="st0" d="M26.9,50.3L26.9,50.3c-0.8,0-1.4-0.6-1.4-1.4l0,0c0-0.8,0.6-1.4,1.4-1.4l0,0c0.8,0,1.4,0.6,1.4,1.4l0,0
	C28.3,49.6,27.7,50.3,26.9,50.3z"/>
<path class="st0" d="M35.4,50.3L35.4,50.3c-0.8,0-1.4-0.6-1.4-1.4l0,0c0-0.8,0.6-1.4,1.4-1.4l0,0c0.8,0,1.4,0.6,1.4,1.4l0,0
	C36.9,49.6,36.2,50.3,35.4,50.3z"/>
<path class="st0" d="M43.9,50.3L43.9,50.3c-0.8,0-1.4-0.6-1.4-1.4l0,0c0-0.8,0.6-1.4,1.4-1.4l0,0c0.8,0,1.4,0.6,1.4,1.4l0,0
	C45.4,49.6,44.7,50.3,43.9,50.3z"/>
<path class="st0" d="M1.4,41.8L1.4,41.8c-0.8,0-1.4-0.6-1.4-1.4l0,0C0,39.6,0.6,39,1.4,39l0,0c0.8,0,1.4,0.6,1.4,1.4l0,0
	C2.8,41.1,2.2,41.8,1.4,41.8z"/>
<path class="st0" d="M9.9,41.8L9.9,41.8c-0.8,0-1.4-0.6-1.4-1.4l0,0c0-0.8,0.6-1.4,1.4-1.4l0,0c0.8,0,1.4,0.6,1.4,1.4l0,0
	C11.3,41.1,10.7,41.8,9.9,41.8z"/>
<path class="st0" d="M18.4,41.8L18.4,41.8c-0.8,0-1.4-0.6-1.4-1.4l0,0c0-0.8,0.6-1.4,1.4-1.4l0,0c0.8,0,1.4,0.6,1.4,1.4l0,0
	C19.8,41.1,19.2,41.8,18.4,41.8z"/>
<path class="st0" d="M26.9,41.8L26.9,41.8c-0.8,0-1.4-0.6-1.4-1.4l0,0c0-0.8,0.6-1.4,1.4-1.4l0,0c0.8,0,1.4,0.6,1.4,1.4l0,0
	C28.3,41.1,27.7,41.8,26.9,41.8z"/>
<path class="st0" d="M35.4,41.8L35.4,41.8c-0.8,0-1.4-0.6-1.4-1.4l0,0c0-0.8,0.6-1.4,1.4-1.4l0,0c0.8,0,1.4,0.6,1.4,1.4l0,0
	C36.9,41.1,36.2,41.8,35.4,41.8z"/>
<path class="st0" d="M43.9,41.8L43.9,41.8c-0.8,0-1.4-0.6-1.4-1.4l0,0c0-0.8,0.6-1.4,1.4-1.4l0,0c0.8,0,1.4,0.6,1.4,1.4l0,0
	C45.4,41.1,44.7,41.8,43.9,41.8z"/>
<path class="st0" d="M1.4,33.3L1.4,33.3c-0.8,0-1.4-0.6-1.4-1.4l0,0c0-0.8,0.6-1.4,1.4-1.4l0,0c0.8,0,1.4,0.6,1.4,1.4l0,0
	C2.8,32.6,2.2,33.3,1.4,33.3z"/>
<path class="st0" d="M9.9,33.3L9.9,33.3c-0.8,0-1.4-0.6-1.4-1.4l0,0c0-0.8,0.6-1.4,1.4-1.4l0,0c0.8,0,1.4,0.6,1.4,1.4l0,0
	C11.3,32.6,10.7,33.3,9.9,33.3z"/>
<path class="st0" d="M18.4,33.3L18.4,33.3c-0.8,0-1.4-0.6-1.4-1.4l0,0c0-0.8,0.6-1.4,1.4-1.4l0,0c0.8,0,1.4,0.6,1.4,1.4l0,0
	C19.8,32.6,19.2,33.3,18.4,33.3z"/>
<path class="st0" d="M26.9,33.3L26.9,33.3c-0.8,0-1.4-0.6-1.4-1.4l0,0c0-0.8,0.6-1.4,1.4-1.4l0,0c0.8,0,1.4,0.6,1.4,1.4l0,0
	C28.3,32.6,27.7,33.3,26.9,33.3z"/>
<path class="st0" d="M35.4,33.3L35.4,33.3c-0.8,0-1.4-0.6-1.4-1.4l0,0c0-0.8,0.6-1.4,1.4-1.4l0,0c0.8,0,1.4,0.6,1.4,1.4l0,0
	C36.9,32.6,36.2,33.3,35.4,33.3z"/>
<path class="st0" d="M43.9,33.3L43.9,33.3c-0.8,0-1.4-0.6-1.4-1.4l0,0c0-0.8,0.6-1.4,1.4-1.4l0,0c0.8,0,1.4,0.6,1.4,1.4l0,0
	C45.4,32.6,44.7,33.3,43.9,33.3z"/>
<path class="st0" d="M1.4,24.8L1.4,24.8c-0.8,0-1.4-0.6-1.4-1.4l0,0C0,22.6,0.6,22,1.4,22l0,0c0.8,0,1.4,0.6,1.4,1.4l0,0
	C2.8,24.1,2.2,24.8,1.4,24.8z"/>
<path class="st0" d="M9.9,24.8L9.9,24.8c-0.8,0-1.4-0.6-1.4-1.4l0,0c0-0.8,0.6-1.4,1.4-1.4l0,0c0.8,0,1.4,0.6,1.4,1.4l0,0
	C11.3,24.1,10.7,24.8,9.9,24.8z"/>
<path class="st0" d="M18.4,24.8L18.4,24.8c-0.8,0-1.4-0.6-1.4-1.4l0,0c0-0.8,0.6-1.4,1.4-1.4l0,0c0.8,0,1.4,0.6,1.4,1.4l0,0
	C19.8,24.1,19.2,24.8,18.4,24.8z"/>
<path class="st0" d="M26.9,24.8L26.9,24.8c-0.8,0-1.4-0.6-1.4-1.4l0,0c0-0.8,0.6-1.4,1.4-1.4l0,0c0.8,0,1.4,0.6,1.4,1.4l0,0
	C28.3,24.1,27.7,24.8,26.9,24.8z"/>
<path class="st0" d="M35.4,24.8L35.4,24.8c-0.8,0-1.4-0.6-1.4-1.4l0,0c0-0.8,0.6-1.4,1.4-1.4l0,0c0.8,0,1.4,0.6,1.4,1.4l0,0
	C36.9,24.1,36.2,24.8,35.4,24.8z"/>
<path class="st0" d="M43.9,24.8L43.9,24.8c-0.8,0-1.4-0.6-1.4-1.4l0,0c0-0.8,0.6-1.4,1.4-1.4l0,0c0.8,0,1.4,0.6,1.4,1.4l0,0
	C45.4,24.1,44.7,24.8,43.9,24.8z"/>
<path class="st0" d="M1.4,16.3L1.4,16.3c-0.8,0-1.4-0.6-1.4-1.4l0,0c0-0.8,0.6-1.4,1.4-1.4l0,0c0.8,0,1.4,0.6,1.4,1.4l0,0
	C2.8,15.6,2.2,16.3,1.4,16.3z"/>
<path class="st0" d="M9.9,16.3L9.9,16.3c-0.8,0-1.4-0.6-1.4-1.4l0,0c0-0.8,0.6-1.4,1.4-1.4l0,0c0.8,0,1.4,0.6,1.4,1.4l0,0
	C11.3,15.6,10.7,16.3,9.9,16.3z"/>
<path class="st0" d="M18.4,16.3L18.4,16.3c-0.8,0-1.4-0.6-1.4-1.4l0,0c0-0.8,0.6-1.4,1.4-1.4l0,0c0.8,0,1.4,0.6,1.4,1.4l0,0
	C19.8,15.6,19.2,16.3,18.4,16.3z"/>
<path class="st0" d="M26.9,16.3L26.9,16.3c-0.8,0-1.4-0.6-1.4-1.4l0,0c0-0.8,0.6-1.4,1.4-1.4l0,0c0.8,0,1.4,0.6,1.4,1.4l0,0
	C28.3,15.6,27.7,16.3,26.9,16.3z"/>
<path class="st0" d="M35.4,16.3L35.4,16.3c-0.8,0-1.4-0.6-1.4-1.4l0,0c0-0.8,0.6-1.4,1.4-1.4l0,0c0.8,0,1.4,0.6,1.4,1.4l0,0
	C36.9,15.6,36.2,16.3,35.4,16.3z"/>
<path class="st0" d="M43.9,16.3L43.9,16.3c-0.8,0-1.4-0.6-1.4-1.4l0,0c0-0.8,0.6-1.4,1.4-1.4l0,0c0.8,0,1.4,0.6,1.4,1.4l0,0
	C45.4,15.6,44.7,16.3,43.9,16.3z"/>
<path class="st0" d="M1.4,7.8L1.4,7.8C0.6,7.8,0,7.1,0,6.3l0,0c0-0.8,0.6-1.4,1.4-1.4l0,0c0.8,0,1.4,0.6,1.4,1.4l0,0
	C2.8,7.1,2.2,7.8,1.4,7.8z"/>
<path class="st0" d="M9.9,7.8L9.9,7.8c-0.8,0-1.4-0.6-1.4-1.4l0,0C8.5,5.6,9.1,5,9.9,5l0,0c0.8,0,1.4,0.6,1.4,1.4l0,0
	C11.3,7.1,10.7,7.8,9.9,7.8z"/>
<path class="st0" d="M18.4,7.8L18.4,7.8c-0.8,0-1.4-0.6-1.4-1.4l0,0C17,5.6,17.6,5,18.4,5l0,0c0.8,0,1.4,0.6,1.4,1.4l0,0
	C19.8,7.1,19.2,7.8,18.4,7.8z"/>
<path class="st0" d="M26.9,7.8L26.9,7.8c-0.8,0-1.4-0.6-1.4-1.4l0,0c0-0.8,0.6-1.4,1.4-1.4l0,0c0.8,0,1.4,0.6,1.4,1.4l0,0
	C28.3,7.1,27.7,7.8,26.9,7.8z"/>
<path class="st0" d="M35.4,7.8L35.4,7.8c-0.8,0-1.4-0.6-1.4-1.4l0,0C34,5.6,34.6,5,35.4,5l0,0c0.8,0,1.4,0.6,1.4,1.4l0,0
	C36.9,7.1,36.2,7.8,35.4,7.8z"/>
<path class="st0" d="M43.9,7.8L43.9,7.8c-0.8,0-1.4-0.6-1.4-1.4l0,0c0-0.8,0.6-1.4,1.4-1.4l0,0c0.8,0,1.4,0.6,1.4,1.4l0,0
	C45.4,7.1,44.7,7.8,43.9,7.8z"/>
</svg>
