<?xml version="1.0" encoding="utf-8"?>
<!-- Generator: Adobe Illustrator 24.1.1, SVG Export Plug-In . SVG Version: 6.00 Build 0)  -->
<svg version="1.1" id="bb7c18d0-f456-47c2-8887-908615fa7d6e"
	 xmlns="http://www.w3.org/2000/svg" xmlns:xlink="http://www.w3.org/1999/xlink" x="0px" y="0px" viewBox="0 0 1005.6 548.7"
	 style="enable-background:new 0 0 1005.6 548.7;" xml:space="preserve">
<style type="text/css">
	.st0{fill:#E4E4E4;}
	.st1{fill:#FDC2CC;}
	.st2{fill:#E6E6E6;}
	.st3{fill:#CCCCCC;}
	.st4{fill:#FFFFFF;}
	.st5{fill:#BAE6FD;}
	.st6{fill:#0284C7;}
	.st7{fill:#0D9488;}
	.st8{fill:#C9C9C9;}
	.st9{fill:#FFB7B7;}
	.st10{fill:#D97706;}
	.st11{fill:#2F2E41;}
	.st12{fill:#64748B;}
	.st13{fill:#F59E0B;}
	.st14{fill:#FFB6B6;}
	.st15{fill:#0EA5E9;}
	.st16{fill:#535461;}
	.st17{opacity:0.1;}
	.st18{fill:#865A61;}
	.st19{opacity:0.1;enable-background:new    ;}
	.st20{opacity:5.000000e-02;enable-background:new    ;}
	.st21{fill:#FFB9B9;}
	.st22{fill:#FBBF24;}
	.st23{fill:#3F3D56;}
	.st24{fill:none;stroke:#FFFFFF;stroke-width:3.5225;stroke-linecap:round;stroke-linejoin:round;stroke-miterlimit:10;}
</style>
<path class="st0" d="M73.9,546.2c0-0.4-4.8-34.2-33.8-52.5l-1.2,1.9c28.1,17.8,32.7,50.6,32.7,50.8L73.9,546.2z"/>
<path class="st0" d="M30.1,503.1c5,6.5,14,7.8,20.4,2.9c6.4-4.9,7.5-14.1,2.6-20.6l0,0c-5-6.5-26.2-18.4-32.6-13.5
	C14.2,476.8,25.2,496.6,30.1,503.1z"/>
<path class="st0" d="M48.6,535.7c9.6,3.9,20.8-1.7,20.8-1.7s-4.4-12-14.1-15.9c-9.7-3.9-20.8,1.7-20.8,1.7S39,531.8,48.6,535.7z"/>
<path class="st1" d="M238.8,292l-5.2-2.4l-29.4-19.9l-18.9-27.9c-2.7-7.1-9.2-9.8-14.4-6.2c-0.6,0.4-1.1,0.8-1.7,1.4
	c-4.6,5-5.5,14-1.9,20.4l29.1,25.2l29.5,11.5l7.3,3.5c0.1,0.3,0.1,0.6,0.1,0.9c0.6,2.9,3.4,4.6,6.2,4c2.4-0.5,4.2-2.6,4.2-5.1
	C244,294.5,241.7,292.1,238.8,292z"/>
<path class="st0" d="M105.3,486.7c0-0.7,5.6-67-39.8-114.3l-3,3.1c44.1,45.8,38.7,110.1,38.6,110.8L105.3,486.7z"/>
<path class="st0" d="M43.1,386c6.3,14.5,22.5,20.9,36.3,14.3c13.8-6.6,19.7-23.7,13.4-38.3l0,0c-6.3-14.5-40.3-46.2-54-39.6
	C25.1,329,36.8,371.5,43.1,386z"/>
<path class="st0" d="M63.4,456c16,11.6,38.9,5.8,38.9,5.8s-3.1-24.7-19.1-36.3c-16-11.6-38.9-5.8-38.9-5.8S47.4,444.4,63.4,456z"/>
<path class="st2" d="M754.1,542l-14.6-6.1l-10-73.2H596.2l-10.9,72.9l-13.1,6.5c-1.5,0.8-2.2,2.6-1.4,4.2c0.5,1.1,1.6,1.7,2.8,1.7
	h179.2c1.7,0,3.1-1.4,3.1-3.1C756,543.6,755.2,542.5,754.1,542z"/>
<path class="st3" d="M991,472.4H336.2c-7.2,0-12.9-5.8-12.9-13v-92.3H1004v92.3C1003.9,466.6,998.1,472.4,991,472.4z"/>
<path class="st0" d="M1004.6,410.7h-682V15.6c0-8.6,7-15.6,15.6-15.6H989c8.6,0,15.6,7,15.6,15.6V410.7z"/>
<path class="st4" d="M963.9,28.7H363.3c-6.7,0-12,5.4-12,12.1V370c0,6.7,5.4,12.1,12,12.1h600.5c6.7,0,12-5.4,12.1-12.1V40.7
	C975.9,34.1,970.5,28.7,963.9,28.7z"/>
<path class="st5" d="M469.8,28.7v353.4H363.3c-6.7,0-12-5.4-12-12.1V40.7c0-6.7,5.4-12.1,12-12.1L469.8,28.7z"/>
<path class="st4" d="M677.3,70c-2,0-3.6,1.6-3.6,3.6v61c0,2,1.6,3.6,3.6,3.6h245.9c2,0,3.6-1.6,3.6-3.6v-61c0-2-1.6-3.6-3.6-3.6
	L677.3,70z"/>
<path class="st6" d="M677.3,66.6c-2,0-3.6,1.7-3.6,3.9v66.6c0,2.2,1.6,3.9,3.6,3.9h245.9c2,0,3.6-1.7,3.6-3.9V70.5
	c0-2.2-1.6-3.9-3.6-3.9L677.3,66.6z"/>
<path class="st4" d="M683.8,132.7h232.7V75.6H683.8V132.7z"/>
<path class="st7" d="M705.6,91.4c-1.8,0-3.2,1.4-3.2,3.2c0,1.8,1.4,3.2,3.2,3.2h189.3c1.8,0,3.2-1.4,3.2-3.2c0-1.8-1.4-3.2-3.2-3.2
	l0,0H705.6z"/>
<path class="st7" d="M705.6,110.5c-1.8,0-3.2,1.4-3.2,3.2c0,1.8,1.4,3.2,3.2,3.2h189.3c1.8,0,3.2-1.4,3.2-3.2c0-1.8-1.4-3.2-3.2-3.2
	l0,0H705.6z"/>
<path class="st4" d="M506.3,173.5c-2,0-3.6,1.6-3.6,3.6v61c0,2,1.6,3.6,3.6,3.6h245.9c2,0,3.6-1.6,3.6-3.6v-61c0-2-1.6-3.6-3.6-3.6
	H506.3z"/>
<path class="st6" d="M506.3,157.7c-2,0-3.6,2.5-3.6,5.5v94.6c0,3,1.6,5.5,3.6,5.5h245.9c2,0,3.6-2.5,3.6-5.5v-94.6
	c0-3-1.6-5.5-3.6-5.5H506.3z"/>
<path class="st4" d="M512.8,254.8h232.7v-86.7H512.8V254.8z"/>
<path class="st7" d="M534.6,194.9c-1.8,0-3.2,1.4-3.2,3.2s1.4,3.2,3.2,3.2h189.3c1.8,0,3.2-1.4,3.2-3.2s-1.4-3.2-3.2-3.2l0,0H534.6z
	"/>
<path class="st8" d="M534.6,214c-1.8,0-3.2,1.4-3.2,3.2s1.4,3.2,3.2,3.2h189.3c1.8,0,3.2-1.4,3.2-3.2s-1.4-3.2-3.2-3.2H534.6z"/>
<path class="st9" d="M806,337.2c4.1-0.5,7.1-4.2,6.7-8.3c0-0.4-0.1-0.9-0.3-1.3l21.8-15.6l-13-5l-18.7,15.5
	c-3.9,1.4-5.9,5.8-4.5,9.7C799.2,335.6,802.5,337.6,806,337.2z"/>
<path class="st10" d="M818.1,327l-7.2-12.3l0.2-0.2l29.2-33.2l22.6-38.6l19.7,2.5l0.3,5.9l-0.1,0.1l-31.2,47l0,0L818.1,327z"/>
<polygon class="st9" points="914.5,535.9 903.3,535.9 898.1,493 914.5,493 "/>
<path class="st11" d="M917.3,546.7h-35.9v-0.5c0-7.7,6.2-14,14-14l0,0h21.9V546.7z"/>
<polygon class="st9" points="818.7,535.5 807.9,533 812.7,490 828.7,493.8 "/>
<path class="st11" d="M819,546.7l-34.9-8.3l0.1-0.4c1.8-7.5,9.3-12.1,16.8-10.3l0,0l21.3,5.1L819,546.7z"/>
<path class="st10" d="M891.6,304.8l-46.8-1.8l-2.6-30.6c-2-5.6-2.1-10.4-0.1-14.3c1.7-3.2,4.5-5.6,7.9-6.8l10.2-12.4
	c2.7-3.2,6.6-5.1,10.8-5l26.6,0.2c0.6-0.4,4.5-2.4,12.2,1c8.3,3.6,6.4,16.1,6.4,16.3v0.1l-0.1,0.1l-17.7,14.9L891.6,304.8z"/>
<polygon class="st12" points="845.1,299.7 823,340.1 806.2,523.8 825.2,529.6 858.8,385.9 897.7,525.5 920.5,526.1 905,364.9 
	891.5,302.5 "/>
<path class="st4" d="M701.8,269.8c-1.9-0.6-4,0.4-4.6,2.3l-18.8,58c-0.6,1.9,0.4,4,2.3,4.6l233.9,75.8c1.9,0.6,4-0.4,4.6-2.3
	l18.8-58c0.6-1.9-0.4-4-2.3-4.6L701.8,269.8z"/>
<path class="st13" d="M698.6,267.7c-2-0.6-4.1,0.4-4.7,2.4l-19.4,59.7c-0.6,2,0.4,4.1,2.4,4.7l240.9,78.1c2,0.6,4.1-0.4,4.7-2.4
	l19.4-59.7c0.6-2-0.4-4.1-2.4-4.7L698.6,267.7z"/>
<path class="st4" d="M682.4,331l233.1,75.5l18.5-57.2l-233.1-75.5L682.4,331z"/>
<path class="st10" d="M722.1,298.8c-1.7-0.5-3.5,0.4-4,2s0.4,3.5,2,4l180,58.4c1.7,0.5,3.5-0.4,4-2c0.5-1.7-0.4-3.5-2-4l0,0
	L722.1,298.8z"/>
<path class="st10" d="M716.2,317c-1.7-0.5-3.5,0.4-4,2.1s0.4,3.5,2,4l180,58.4c1.7,0.5,3.5-0.4,4-2c0.5-1.7-0.4-3.5-2-4l0,0
	L716.2,317z"/>
<path class="st9" d="M904.3,365.1c3.1-2.8,3.4-7.5,0.6-10.6c-0.3-0.3-0.6-0.6-1-0.9l8.6-25.3l-13.5,3.5l-6.1,23.5
	c-2.4,3.5-1.5,8.2,2,10.5C897.9,367.7,901.7,367.4,904.3,365.1z"/>
<path class="st10" d="M908.2,349.7l-13.1-5.8l4.4-44.2l-4.1-44.6l17.4-9.4l3.7,4.7v0.1l2,56.4l0,0L908.2,349.7z"/>
<path class="st3" d="M1003.2,548.7l-508.6,0c-0.7,0-1.3-0.5-1.5-1.1c-0.2-0.8,0.3-1.7,1.1-1.9c0.1,0,0.3-0.1,0.4-0.1l508.6,0
	c0.8,0,1.4,0.5,1.6,1.2c0.2,0.8-0.3,1.6-1.2,1.8C1003.5,548.7,1003.3,548.7,1003.2,548.7z"/>
<path class="st3" d="M357.1,548.7H2.9c-1.1,0-2-0.5-2.3-1.1c-0.3-0.8,0.5-1.7,1.7-1.9c0.2,0,0.5-0.1,0.6-0.1h354.1
	c1.2,0,2.2,0.5,2.5,1.2c0.3,0.8-0.5,1.6-1.9,1.8C357.6,548.7,357.3,548.7,357.1,548.7z"/>
<path class="st8" d="M534.5,231.8c-1.8,0-3.2,1.4-3.2,3.2s1.4,3.2,3.2,3.2h189.3c1.8,0,3.2-1.4,3.2-3.2s-1.4-3.2-3.2-3.2H534.5z"/>
<path class="st7" d="M534.4,176.3c-1.8,0-3.2,1.4-3.2,3.2s1.4,3.2,3.2,3.2h189.3c1.8,0,3.2-1.4,3.2-3.2s-1.4-3.2-3.2-3.2l0,0H534.4z
	"/>
<ellipse class="st14" cx="882.4" cy="210" rx="21.5" ry="19.8"/>
<path class="st11" d="M867.3,247.2l-2-8.2c-1.3-5.5-0.2-11.3,3.2-16c3.1-4.5,3.3-10.2,0.5-14.9c-2.1-3.8-6.2-6.2-10.8-6.2h-0.5v-0.5
	c0-7.1,6-12.1,11.5-12.4c0.2-1.5,1.3-2.8,3.3-3.9c4.7-2.5,13.9-3.1,20.8,0.3c0.2-2.2,1.8-4.1,4-4.9c1.2-0.4,2.4-0.5,3.5-0.2
	c0.1-1.8,0.9-3.5,2.2-4.8c1.9-1.7,4.9-2.4,8.4-1.8c4.7,0.8,9.3,3.5,13,7.8c3.3,3.8,5.5,8.2,7.8,12.5c2.2,4.2,4.4,8.5,7.7,12.2
	c3.5,4,8,6.6,12.5,7.4c5.2,0.8,10.5-1.2,13-4.8l0.5-0.7l0.5,0.8c2.8,4.6,1.6,11.1-2.7,15.2c-3.8,3.7-9.9,5.6-16.2,5.1
	c-5.3-0.5-10.6-2.5-15.9-6.2c-5.2-3.6-8.5-7.6-9.5-11.9c-0.3-1.3-0.5-2.6-0.7-4c-0.4-2.8-0.7-5.5-2.5-7.5c-1.7-1.8-4.3-2.5-6.6-3.1
	l-0.5-0.1c-0.2,1.6-1.1,3.1-2.5,4c-0.5,0.2-0.9,0.4-1.4,0.5c2.7,10,1.6,17.6-3.3,22.7c-8.2,8.6-24,6.9-24.6,6.8l-0.5-0.1v-0.4
	c-0.1-1.1-0.2-2.2-0.5-3.3c-2.2,5-9.9,18.3-10.9,19.7L867.3,247.2z"/>
<path class="st4" d="M125.6,463.6c-0.7,0.2-1.1-1-0.3-1.1c6-1.4,9.8-7.5,8.9-14.4c-0.2-0.7,0.9-0.7,1,0
	C136.1,455.4,132.1,461.9,125.6,463.6L125.6,463.6z"/>
<path class="st4" d="M304.7,430.4c0-3.6-2.3-6.6-5.2-7.3l-90.2-17.4c-0.9-0.2-1.8-0.2-2.6,0.2l-21.1,6.4l-12.1,3.7l-22.4,6.8
	c-2.8,0.8-4.7,3.8-4.7,7.2v111.5c0,3.5,2,6.5,5,7.3l91.8-1.2c0.4,0.1,0.9,0.2,1.3,0.2c0.7,0,1.2-0.1,1.9-0.3l54.5,1.6
	c2.7-0.9,4.4-3.9,4.4-7.1L304.7,430.4z"/>
<path class="st3" d="M304.7,430.4c0-3.6-2.3-6.6-5.2-7.3l-90.2-17.4c-0.9-0.2-1.8-0.2-2.6,0.2l-21.1,6.4l-12.1,3.7l-22.4,6.8
	c-2.8,0.8-4.7,3.8-4.7,7.2v111.5c0,3.5,2,6.5,5,7.3l91.8-1.2c0.4,0.1,0.9,0.2,1.3,0.2c0.7,0,1.2-0.1,1.9-0.3l54.5,1.6
	c2.7-0.9,4.4-3.9,4.4-7.1L304.7,430.4z M300.4,547.2l-54.5,1.6c-0.8,0.3-1.6,0.3-2.4,0.2l-91.8-1.9c-2.2-0.6-3.7-2.8-3.7-5.5V430
	c0-2.3,1.2-4.5,3.1-5.2c0.2-0.1,0.3-0.2,0.4-0.2l23.7-7.2l14-4.3l17.9-5.5c0.4-0.2,0.8-0.2,1.2-0.2c0.3,0,0.5,0,0.8,0.1l90.1,17.4
	c1.5,0.3,2.7,1.3,3.4,2.9c0.4,0.7,0.5,1.7,0.5,2.5l0.6,111.4C303.9,544.4,302.4,546.5,300.4,547.2z"/>
<path class="st3" d="M302.6,427.9c-0.1,0.1-0.2,0.1-0.2,0.1l-26.5,8.5l-8.2,2.7l-23.5,7.6c-0.1,0-0.2,0-0.2,0c-0.1,0-0.1,0-0.2,0
	l-94.6-20.4l-0.4-0.1c-0.4-0.1-0.7-0.6-0.6-1.1c0.1-0.5,0.4-0.8,1-0.7l1.9,0.4l92.9,20l20.2-6.4l11.3-3.6l26.1-8.3l0.4-0.2
	c0.4-0.1,0.7,0.1,1,0.5c0,0.1,0.1,0.1,0.1,0.2C303.1,427.2,303,427.7,302.6,427.9z"/>
<path class="st3" d="M244.8,548c-0.4,0-0.8-0.4-0.8,2.2L243.3,449c0-3.7,0.4-4.1,0.8-4.1l0,0c0.4,0,0.8,0.4,0.8,4.1l0.8,101.3
	C245.6,547.5,245.2,548,244.8,548L244.8,548z"/>
<path class="st6" d="M276.2,549.1l-8.5,0.1l-3.4-111l-88.8-20.8c-0.1,0-0.2-0.1-0.3-0.1c-0.7-0.3-1.2-0.7-1.7-1.4l12.1-3.7l3.6,0.8
	l84.2,19.8c1,0.3,1.7,0.8,2.1,1.8C275.7,435.3,276.2,548.5,276.2,549.1z"/>
<path class="st2" d="M195.9,449.6c-0.1,0-0.2,0-0.3,0l-28.1-0.5c-0.7,0-1.3-0.7-1.3-1.4s0.6-1.4,1.3-1.4l28.1,0.5
	c0.7,0,1.3,0.7,1.3,1.4S196.5,449.5,195.9,449.6L195.9,449.6z"/>
<path class="st2" d="M205.6,465.5c-0.1,0-0.2,0-0.3,0l-28.1-0.5c-0.7,0-1.3-0.7-1.3-1.4c0-0.7,0.6-1.4,1.3-1.4l28.1,0.5
	c0.7,0,1.3,0.7,1.3,1.4S206.3,465.4,205.6,465.5L205.6,465.5z"/>
<g>
	<polygon class="st14" points="136.6,495.1 150.3,495.1 145.8,529.5 136.6,529.5 	"/>
	<path class="st11" d="M133.4,525.1l14.7-0.9v6.1l14,9.3c1,0.7,1.7,2,1.7,3.1c0,2-1.8,3.8-4,3.8h-17.5l-3.1-6l-1.1,6h-6.5
		L133.4,525.1z"/>
	<polygon class="st14" points="96.4,490.2 108.5,496.5 87.5,524.7 79.3,520.5 	"/>
	<path class="st11" d="M78.7,515.2l13.3,6l-3.1,5.3l7.6,14.6c0.7,1.1,0.6,2.4,0,3.4c-1,1.9-3.4,2.5-5.3,1.6l-15.4-8l0.3-6.6
		l-4.1,4.7l-5.8-3L78.7,515.2z"/>
	<path class="st6" d="M120.1,445.3V368c-0.7-2.5-12.8-47.4,0.1-59.8c19.3-18.4,49.7,5.7,50,6l0.1,0.1v0.1c4.2,31.5,2,63.5-6.6,94.1
		l-11.9,42.9v65.8h-19.2L120.1,445.3z"/>
	<polygon class="st6" points="122.5,429.7 89.5,494.8 104.6,505.2 144.1,451.8 	"/>
</g>
<path class="st2" d="M219.8,481.2c-0.1,0-0.2,0-0.3,0l-28.1-0.5c-0.7,0-1.3-0.7-1.3-1.4s0.6-1.4,1.3-1.4l28.1,0.5
	c0.7,0,1.3,0.7,1.3,1.4S220.4,481.1,219.8,481.2L219.8,481.2z"/>
<path class="st2" d="M229.5,497.1c-0.1,0-0.2,0-0.3,0l-28.1-0.5c-0.7,0-1.3-0.7-1.3-1.4s0.6-1.4,1.3-1.4l28.1,0.5
	c0.7,0,1.3,0.7,1.3,1.4S230.1,497,229.5,497.1L229.5,497.1z"/>
<ellipse class="st15" cx="228.3" cy="470" rx="30.1" ry="31.4"/>
<path class="st4" d="M244.5,470H230v-15.1c0-1-0.8-1.9-1.8-1.9h-0.1c-1,0-1.8,0.8-1.8,1.9V470h-14.5c-1,0-1.8,0.8-1.8,1.9l0,0
	c0,1,0.8,1.9,1.8,1.9h14.5v15.1c0,1,0.8,1.9,1.8,1.9h0.1c1,0,1.8-0.8,1.8-1.9v-15.1h14.5c1,0,1.8-0.8,1.8-1.9l0,0
	C246.3,470.9,245.5,470,244.5,470z"/>
<path class="st16" d="M173,193.4h-0.6c-0.9,0-1.6-0.8-1.6-1.8v-14.1c0-1,0.7-1.8,1.6-1.8h0.6c0.9,0,1.6,0.8,1.6,1.8v14.1
	C174.6,192.6,173.8,193.4,173,193.4z"/>
<g class="st17">
	<path d="M173,193.4h-0.6c-0.9,0-1.6-0.8-1.6-1.8v-14.1c0-1,0.7-1.8,1.6-1.8h0.6c0.9,0,1.6,0.8,1.6,1.8v14.1
		C174.6,192.6,173.8,193.4,173,193.4z"/>
</g>
<rect x="136.8" y="185" class="st18" width="39.2" height="46.3"/>
<rect x="136.8" y="178.6" class="st19" width="39.2" height="46.3"/>
<path class="st1" d="M174.6,223.5l-2.4,19.6l-1.1,9.2l-0.4,3.4l-3.4,7.6l-6.3,14l-12.2,1.7l-21.4-34.4c0,0-11.2-24.4,5.8-22.2
	c9.6,1.3,11.8-8.5,12-17.3c0.1-4.4-0.3-8.9-1.1-13.2l17,9.4c-0.4,2.1-0.7,4-0.9,5.8c-0.8,7.2-0.1,11.7,1.3,14.4
	C165.5,228.8,174.6,223.5,174.6,223.5z"/>
<path class="st19" d="M161.2,201.3c-0.4,2.1-0.7,4-0.9,5.8c-1.8,0.6-3.6,0.9-5.4,0.9c-3.4,0-6.7-1-9.7-2.9c0.1-4.4-0.3-8.9-1.1-13.2
	L161.2,201.3z"/>
<ellipse class="st1" cx="154.9" cy="184.9" rx="19.7" ry="22.5"/>
<path class="st15" d="M175.6,342.2l-69.7-4.7c-1.7-0.1-2.7-1.9-1.9-3.3l13-23.3c0.6-12,5.7-28.4,3.7-38c-0.6-3.1-1.6-6-2.8-8.7
	l30.4,0.2h0.3l2.5,6.8l0.1,0.3l1.9,5l6.3-13.5l2.2-4.2l1.2-2.4c0,0,18.2-5,18.5,7.8c0,1.5,0,3-0.1,4.4c-0.9,10.4-5.7,17.3-9.6,22
	C166.9,296,175.6,342.2,175.6,342.2z"/>
<path class="st19" d="M195.6,257.6c-0.2,0.3-0.5,0.4-1,0.4c-4.9-0.8-10.5,7.2-10.5,7.2s-0.1,0.1-0.3,0.3c-0.6-1.4-1.1-2.9-1.4-4.5
	l10.2-8.6L195.6,257.6z"/>
<path class="st19" d="M181.1,267.7c-2.3,1.4-5.4,2.5-7.9-0.3c-4.2-4.8-11.7-4.2-12.1-4.2c0.8-0.1,1.4-1.9,2-4.3l1.1-2.1
	c0,0,16.8-4.4,17,7C181.2,265,181.2,266.4,181.1,267.7z"/>
<path class="st19" d="M172.2,243.1l-1.5,12.6l-3.4,7.6c-2.1-0.6-4.3-0.9-6.5-0.7c2.4-0.4,4-17.6,4-17.6l0.1,0L172.2,243.1z"/>
<path class="st15" d="M194.6,257.4c-4.9-0.8-10.5,7.2-10.5,7.2s-6.6,7.2-11,2.2c-4.2-4.8-11.7-4.2-12.1-4.2c2.4-0.4,4-17.6,4-17.6
	l0.1,0l23.4-5.9c0,0,1.4,2.4,3,5.5C194.3,250.2,197.7,257.9,194.6,257.4z"/>
<path class="st19" d="M188.7,246.3c0.2,0.6-3.9,3.3-5.8,2.5c-1.9-0.8-6.8,3.6-7.3,4.2c-0.5,0.6-11.4-0.8-11.4-0.8
	c0.4-2.3,0.8-4.7,1-7.1l23.4-5.9c0,0,1.4,2.4,3,5.5C190,245.3,188.6,246,188.7,246.3z"/>
<path class="st19" d="M174.6,223.5l-2.4,19.6l-1.1,9.2c-3.3-0.3-7.2-0.8-7.2-0.8s4.1-19.7-2.7-30c0,0,0.1,0,0.4,0
	C165.5,228.8,174.6,223.5,174.6,223.5z"/>
<path class="st15" d="M161.5,221.5c0,0,12.4-1.1,17.3,2.8c4.9,3.9,11.9,15.6,11.9,15.6l3.9,2.8c0,0-6.1,2.5-5.8,3.1
	c0.2,0.6-3.9,3.3-5.8,2.5c-1.9-0.8-6.8,3.6-7.3,4.2c-0.5,0.6-11.4-0.8-11.4-0.8S168.3,231.8,161.5,221.5z"/>
<path class="st19" d="M153.4,270.1L153.4,270.1c-0.2,0-2.4,0.5-6.6-0.6c-4.4-1.1-6.1,1.1-8.5,2.2c-2.4,1.1-8.8,1.7-11.2,0.6
	c-0.6-0.3-1.2-0.6-1.8-0.9c-0.6-2.7-1.4-5.3-2.6-7.7l28,0.1l2.6,6L153.4,270.1z"/>
<path class="st20" d="M153.1,263.6c0,0,1.9,3.6,1.9,6.1c0,0,1.5-6.1,2.7-6.1"/>
<path class="st14" d="M335.8,232.8c-3.5,1.7-5.2,5.7-4.3,9.4c1.1,4.6,5.7,7.3,10.2,6.2l27,2.8l8.9-12.7l-29.9-0.8
	c-0.1-0.5-0.4-0.9-0.6-1.4C345,232.2,339.9,230.7,335.8,232.8L335.8,232.8z"/>
<path class="st10" d="M461.5,265l-63.9,3.2L352.1,253l0.4-20.3l48,4.3l61.2,4.1c5,0.3,9.4,3.9,10.7,8.8c1.7,6.4-2,13-8.4,14.6
	C463.3,264.8,462.4,265,461.5,265z"/>
<polygon class="st14" points="428.4,508.3 416.3,508.3 420.2,539.8 428.4,539.8 "/>
<path class="st11" d="M430.4,547.6h-26.3v-0.3c0-5.6,4.5-10.2,10.2-10.2l0,0h16.1V547.6z"/>
<polygon class="st14" points="490.9,508.3 478.8,508.3 482.7,539.8 490.9,539.8 "/>
<path class="st11" d="M492.9,547.6h-26.3v-0.3c0-5.6,4.5-10.2,10.2-10.2l0,0h16.1V547.6z"/>
<path class="st11" d="M417,360.5l-10.6,69.2l9.3,97.1l17.3,1v-91.5l18-43.9l16.6,56.5l10,85.8h17.9l-2.3-156
	c2.2-9.1,1.4-18.8-2.3-27.5L417,360.5z"/>
<path class="st13" d="M414.6,371.3l78.7-11.2c0,0-2.6-56.5-3.3-91.8c-0.7-35.3-20.6-42.6-20.6-42.6l-5-8.6h-19.7l-4,8l-15.3,4.7
	L414.6,371.3z"/>
<circle class="st21" cx="450.8" cy="187.2" r="19.6"/>
<path class="st11" d="M448.4,177.5c-0.8-1.4-2.6-1.6-4-1.9c-2.8-0.5-5.6-1-8.4-0.5c-1.3,0.2-2.6,0.7-3.9,0.8c-2.7,0.2-5.3-1-7.7-2.1
	c1.4-0.3,2.6-1.2,3.3-2.5c-1.7,0-3.3-0.6-4.6-1.6c1.6-0.5,3.1-1.3,4.3-2.4l-3.2-1.4c2.7,0.3,5.4-0.5,7.6-2c1.9-1.3,3.4-3.3,5.5-4.4
	c3-1.6,6.6-1.3,9.9-0.4c3.3,0.9,6.4,2.2,9.8,2.6c3.2,0.4,6.4-0.2,9.5,0.6c2.9,0.8,5.5,2.5,7.5,4.8c4.9,5.2,7.8,12.9,5.4,19.7
	c-1.9,5.2-6.6,9.3-7.7,14.8c-0.3,1.7-0.3,3.5-0.8,5.1s-1.6,3.3-3.3,3.6c-2,0.5-3.9-1.2-4.8-3s-1-3.9-1.5-5.9
	c-0.4-1.2-0.6-2.5-0.6-3.8c0.2-1.8,1.6-3.5,1-5.1c-0.5-1.1-1.7-1.8-3-1.7c-1.2,0.2-2.3,0.8-3.1,1.8c-2.3-0.2-4.1-2.1-4.1-4.4
	c0.1-1.1,0.5-2.2,0.4-3.3c-0.2-1.5-1.5-2.5-2.4-3.7C448.6,180,449,178.7,448.4,177.5z"/>
<path class="st14" d="M345.2,230.6c0.2,0.4,0.4,0.7,0.5,1.2l34.6,9.6l6-6.1l10.5,8.3l-9.6,11.9c-1.6,2-4.3,2.6-6.7,1.6L343,240.5
	c-3.4,2.4-8.1,1.5-10.5-1.9c-2.4-3.5-1.8-8.3,1.6-10.6c3.4-2.4,8.1-1.5,10.5,1.9C344.9,230,345,230.3,345.2,230.6L345.2,230.6z"/>
<path class="st4" d="M396.5,221.3c-0.6-2.2-2.6-3.5-4.9-3.4l-64.8,6c-0.7,0.1-1.2,0.3-1.8,0.5l-13.4,7.6l-7.7,4.5l-14.2,8.1
	c-1.8,1-2.6,3.2-2.1,5.2l14.6,52c0.6,2.1,2.5,3.5,4.7,3.5l67-3c0.3,0,0.7-0.1,0.9-0.2c0.5-0.1,0.8-0.3,1.2-0.5l34.1-22
	c1.7-1.1,2.3-3.1,1.8-5.1L396.5,221.3z"/>
<path class="st22" d="M327.1,227.9c-0.1,0-0.1,0-0.2,0l-35.4,20.3c-0.2,0.1-0.4,0.5-0.3,0.6l14.6,52c0.1,0.3,0.3,0.5,0.6,0.4l67-3
	c0.1,0,0.2-0.1,0.3-0.1l34.1-22c0.2-0.1,0.3-0.4,0.2-0.6l-15.5-53.1c-0.1-0.3-0.4-0.5-0.6-0.4L327.1,227.9
	C327.2,227.9,327.2,227.9,327.1,227.9z"/>
<path class="st23" d="M396.5,221.3c-0.6-2.2-2.6-3.5-4.9-3.4l-64.8,6c-0.7,0.1-1.2,0.3-1.8,0.5l-13.4,7.6l-7.7,4.5l-14.2,8.1
	c-1.8,1-2.6,3.2-2.1,5.2l14.6,52c0.6,2.1,2.5,3.5,4.7,3.5l67-3c0.3,0,0.7-0.1,0.9-0.2c0.5-0.1,0.8-0.3,1.2-0.5l34.1-22
	c1.7-1.1,2.3-3.1,1.8-5.1L396.5,221.3z M409.5,278.6l-34.1,22c-0.5,0.3-1,0.5-1.6,0.5l-66.9,2.9c-1.6,0-3.1-1-3.5-2.5l-14.6-52
	c-0.4-1.4,0.1-2.9,1.2-3.6c0.1-0.1,0.2-0.1,0.3-0.2l15.1-8.5l8.9-5.1l11.4-6.5c0.3-0.2,0.5-0.2,0.7-0.3c0.2,0,0.4-0.1,0.6-0.1
	l64.7-6.2c1-0.1,2.2,0.3,2.8,1.2c0.4,0.4,0.7,0.8,0.7,1.4l15.5,53.1C411.3,276.3,410.7,277.8,409.5,278.6L409.5,278.6z"/>
<path class="st23" d="M394.6,220.2C394.5,220.2,394.5,220.3,394.6,220.2l-16.9,9.9l-5.2,3.1l-14.9,8.7c-0.1,0-0.1,0-0.2,0h-0.1
	l-68.4,5.1h-0.3c-0.3,0-0.7-0.3-0.7-0.5s0.2-0.6,0.6-0.6l1.4-0.1l67.2-5l12.8-7.5l7.2-4.2l16.6-9.7l0.3-0.2c0.2-0.1,0.6-0.1,0.7,0.1
	v0.1C394.9,219.7,394.8,220,394.6,220.2z"/>
<path class="st23" d="M374.5,302c-0.4,0.1-0.8-0.1-0.9-0.5l-17.3-59.9c-0.1-0.4,0.2,0,0.6-0.1l0,0.1c0.4-0.1,0.6-0.4,0.7-0.1
	l17.3,59.6C375.1,301.5,374.8,301.8,374.5,302L374.5,302z"/>
<path class="st23" d="M394.3,289.2l-5.2,3.1l-19.2-58.9l-64.4,3.7c-0.1,0-0.2,0-0.2,0c-0.5,0-1-0.2-1.4-0.5l7.7-4.5l2.5-0.1
	l61.2-3.5c0.7,0,1.3,0.2,1.8,0.7C377.4,229.4,394.2,288.8,394.3,289.2z"/>
<path class="st14" d="M330.7,284.7c-2.6,2.9-2.9,7.2-0.8,10.6c2.7,3.8,7.9,4.9,11.8,2.2l26.3-7.1l3.8-15.1l-28.2,9.8
	c-0.2-0.5-0.7-0.8-1-1.1C339.1,281,333.8,281.3,330.7,284.7L330.7,284.7z"/>
<path class="st13" d="M346.5,278.8l53.2-7.2l51.8-23.6c5.9-1.8,12,1,14.5,6.7c2.6,5.9-0.1,13.1-6.2,15.7L401.1,296l-47.9,1.8
	L346.5,278.8z"/>
<ellipse class="st13" cx="386.2" cy="182.7" rx="26.4" ry="25.9"/>
<path class="st1" d="M173.2,315.3l-8.3-3.3l-29.4-19.9l-11.9-40.9c-2.7-7.1-9.2-9.8-14.4-6.2c-0.6,0.4-1.1,0.8-1.7,1.4
	c-4.6,5-5.5,14-1.9,20.4l22.1,38.2l29.5,11.5l8.6,3.1c0,0.3-0.1,0.6-0.1,1c-0.1,3.3,2.4,6,5.6,6.2c2.7,0.2,5.2-1.5,5.8-4.1
	C178.1,319.6,176.3,316.3,173.2,315.3z"/>
<path class="st15" d="M153.4,269.6c0,0-2.2,0.5-6.6-0.5c-4.4-1.1-6.1,1.1-8.5,2.2c-2.4,1.1-8.8,1.7-11.2,0.5
	c-2.4-1.1-4.9-3.3-10-0.8c-5.1,2.5-9,1.9-9,1.9s0.5-4.4-4.6-3.9c-5.1,0.5-8.5-2.2-8.5-2.2l5.4-14.3l1.6-4.3l40.7-3.2h0.2
	L153.4,269.6z"/>
<path class="st15" d="M135.2,223.5c0,0-13.4-3.1-19.7,0.8c-6.3,3.9-11.2,12.5-11.2,12.5l-9.3,9.7c0,0,3.7,1.9,5.4,5.3
	c1.7,3.3,9.5,0,9.5,0s10.5-2.8,11.9,1.4c1.5,4.2,8.3,1.9,8.3,1.9s14.1-4.4,16.8,0.6L135.2,223.5z"/>
<path class="st19" d="M150.6,152.4c-1.8-0.4-3.7-0.7-5.5-0.2c-3,0.7-5.2,3.5-6.9,6.4c-1.7,2.9-2.9,6.1-5,8.6
	c-1.4,1.7-3.1,3.1-4.3,4.9c-1.8,2.7-2.4,6.2-3,9.5c-0.8,4.9-1.7,9.9-1.3,14.9c0.2,2.5,0.7,5,0.8,7.5c0.2,5.1-1.1,10-2.4,14.9
	c-0.9,3.4-1.8,6.8-3.6,9.6c-1.2,1.9-2.7,3.5-4.1,5.1c-0.3,0.3-0.6,0.8-0.8,1.3c-0.3,1.4,1.2,2.4,2.4,3.1c3.5,2,5.9,6,8.6,9.2
	c2.8,3.2,6.7,6,10.5,4.7c1.1-0.4,2.2-1.1,3.4-1.1c0.8,0,1.6,0.4,2.3,0.7c1.9,0.7,3.8,1.1,5.8,1.1c0.4,0,0.9-0.1,1.3-0.3
	c0.6-0.4,0.7-1.3,0.8-2.2c0.4-5,0.7-10.1,0.5-15.1c-0.6-11.5-9.8-24.7-6.3-35.4c1.5-4.7,4.3-8.7,5.9-13.4c1.6-4.9,7.4-8.9,8.5-14
	c0.1-0.6,0.3-1.2,0.7-1.5c0.6-0.4,1.4-0.1,2,0.4c3.3,2.6,4.4,7.5,5.6,11.9c1,3.5,2.2,7,3.6,10.3c0.8,1.8,2.5,3.9,4,2.8
	c-0.7,7.6-5,14.2-6,21.7c-0.9,7.3,1.3,14.9,0.5,22.2c-0.6,4.7-2.5,9.1-5.4,12.6c3.3,0.7,6.7,0.8,9.9,0.1c3.3-0.7,6.9-2.5,8.1-6.1
	c1.3-4-0.7-8.2-1.8-12.3c-2.5-9.8-2.3-21.5-1.5-31.7c0.8-10.5,2-19.7,0-29.9c-0.5-2.5-1-5.1-2-7.4c-2-4.9-6.2-8.4-10.8-9.7
	c-2.4-0.6-4.8,0.4-7-0.1c-1.1-0.2-2.1-1.4-3.2-1.9C153.6,152.9,152.1,152.7,150.6,152.4z"/>
<path class="st18" d="M181.2,246c-1.2,3.6-4.8,5.4-8.1,6.1c-3.3,0.7-6.7,0.6-9.9-0.1c2.9-3.4,4.8-7.9,5.4-12.6
	c0.9-7.3-1.4-14.9-0.5-22.2c1-7.6,5.3-14.2,6-21.7c-1.5,1.1-3.2-1-4-2.8c-1.4-3.3-2.6-6.8-3.6-10.3c-1.2-4.4-2.3-9.3-5.6-11.9
	c-0.6-0.4-1.4-0.8-2-0.4c-0.4,0.3-0.6,0.9-0.7,1.5c-1.1,5.1-6.9,9.1-8.5,14c-1.6,4.7-4.4,8.7-5.9,13.4c-3.5,10.7,5.8,24,6.3,35.4
	c0.2,5.1-0.1,10.1-0.5,15.1c-0.1,0.8-0.2,1.7-0.8,2.2c-0.4,0.2-0.8,0.3-1.3,0.3c-2,0-3.9-0.4-5.8-1.1c-0.7-0.3-1.5-0.7-2.3-0.7
	c-1.2,0-2.2,0.7-3.4,1.1c-3.8,1.3-7.8-1.5-10.5-4.7c-2.7-3.2-5.1-7.2-8.6-9.2c-1.2-0.7-2.7-1.6-2.4-3.1c0.2-0.5,0.4-0.9,0.8-1.3
	c1.4-1.6,2.9-3.2,4.1-5.1c1.8-2.8,2.7-6.3,3.6-9.6c1.3-4.9,2.6-9.8,2.4-14.9c-0.1-2.5-0.6-5-0.8-7.5c-0.4-5,0.5-10,1.3-14.9
	c0.6-3.4,1.2-6.8,3-9.5c1.2-1.9,2.9-3.2,4.3-4.9c2.1-2.5,3.3-5.8,5-8.6c1.7-2.9,3.9-5.6,6.9-6.4c1.8-0.4,3.7-0.1,5.5,0.2
	c1.4,0.3,2.9,0.6,4.3,1.2c1.1,0.5,2.1,1.7,3.2,1.9c2.2,0.5,4.6-0.5,7,0.1c4.6,1.2,8.8,4.7,10.8,9.7c0.4,1,0.7,2,1,3
	c0.4,1.4,0.7,2.9,1,4.4c0.1,0.3,0.1,0.6,0.2,0.9l0,0c1.8,9.8,0.6,16.9-0.2,27s-1,23.8,1.5,33.6C180.4,237.7,182.5,242,181.2,246z"/>
<path class="st24" d="M370.8,180.4c5.4,4,9.5,9,11.8,14.7l0,0v0c3.8-11.6,8.2-17.3,17.2-26.2"/>
<ellipse class="st15" cx="221.8" cy="206.4" rx="26.4" ry="25.9"/>
<path class="st24" d="M206.5,204.2c5.4,4,9.5,9,11.8,14.7v0v0c3.8-11.6,8.2-17.3,17.2-26.2"/>
</svg>
