<?xml version="1.0" encoding="utf-8"?>
<!-- Generator: Adobe Illustrator 24.1.1, SVG Export Plug-In . SVG Version: 6.00 Build 0)  -->
<svg version="1.1" id="f9c5e9d6-e0c2-49fb-9e36-725fc7f10ee6"
	 xmlns="http://www.w3.org/2000/svg" xmlns:xlink="http://www.w3.org/1999/xlink" x="0px" y="0px" viewBox="0 0 809.7 462.6"
	 style="enable-background:new 0 0 809.7 462.6;" xml:space="preserve">
<style type="text/css">
	.st0{fill:#14B8A6;}
	.st1{fill:#0D9488;}
	.st2{fill:#F59E0B;}
	.st3{fill:#F2F2F2;}
	.st4{fill:#CACACA;}
	.st5{fill:#E4E4E4;}
	.st6{fill:#FFFFFF;}
	.st7{fill:#E6E6E6;}
	.st8{fill:#CCCCCC;}
	.st9{fill:#3F3D56;}
	.st10{fill:#0EA5E9;}
	.st11{fill:#FDC2CC;}
	.st12{fill:#D97706;}
	.st13{fill:#9E616A;}
	.st14{fill:#2F2E41;}
	.st15{fill:#64748B;}
	.st16{fill:#FFB6B6;}
	.st17{fill:#428DFC;}
	.st18{fill:#FFB8B8;}
	.st19{fill:#0369A1;}
	.st20{fill:#F0F9FF;}
</style>
<path class="st0" d="M133.1,210.3v-130c0-3.9,3.1-7,7-7s7,3.1,7,7v130c0,3.9-3.1,7-7,7S133.1,214.2,133.1,210.3z"/>
<path class="st1" d="M116.3,210.3v-130c0-3.9,3.1-7,7-7s7,3.1,7,7v130c0,3.9-3.1,7-7,7S116.3,214.2,116.3,210.3z"/>
<path class="st1" d="M99.6,210.3v-130c0-3.9,3.1-7,7-7s7,3.1,7,7v130c0,3.9-3.1,7-7,7S99.6,214.2,99.6,210.3z"/>
<path class="st2" d="M732,418c-2.8,0-5.6-0.5-8.3-1.4l-0.4-0.1l0.2-0.9c-4.8-9.6-3.1-22.8,4.3-33.6c6.7-9.8,16.8-17,25.8-23.3
	c3.1-2.2,7.5-1.5,9.7,1.7c1.1,1.6,1.5,3.5,1.1,5.3l-3.2,16.4c-2.3,11.9-5.1,23.1-13.2,30.1C743.5,415.9,737.8,418,732,418z"/>
<path class="st2" d="M753,446.4c-6.3,0-12.2-3.3-15.6-8.6l-0.2-0.4l0.6-0.5c1.4-7.8,8.2-14.8,17.2-17.8c8.2-2.7,17.3-2.3,25.3-1.9
	l0,0c3,0.1,5.2,2.7,5.1,5.6c-0.1,1.4-0.7,2.8-1.8,3.7l-9,8.1c-6.5,5.9-13.1,11.2-20.9,11.6C753.4,446.4,753.2,446.4,753,446.4z"/>
<path class="st3" d="M725,455.1c-1.3-9.9-2.7-19.9-1.8-29.9c0.8-8.9,3.5-17.6,8.9-24.7c2.9-3.8,6.3-7,10.3-9.6c1-0.7,2,1,1,1.7
	c-6.9,4.5-12.2,11-15.1,18.6c-3.3,8.6-3.8,17.9-3.3,27c0.3,5.5,1.1,11,1.8,16.4c0.1,0.5-0.2,1-0.7,1.2
	C725.7,455.9,725.1,455.6,725,455.1L725,455.1L725,455.1z"/>
<path class="st3" d="M721.3,460.7c6.4-11.6,13.8-24.5,27.1-28.6c3.7-1.1,7.6-1.5,11.4-1.2c1.2,0.1,0.9,2-0.3,1.9
	c-6.5-0.5-12.9,1.2-18.2,4.9c-5.1,3.6-9.1,8.5-12.5,13.8c-2.1,3.2-3.9,6.6-5.8,9.9C722.4,462.6,720.7,461.8,721.3,460.7L721.3,460.7
	z"/>
<path class="st4" d="M718.4,460.6l6.5,0.1l-39-208.2l-6.5,1.2l10.2,54h-32.8l10.2-54l-6.5-1.2l-38.7,208.2l6.1-0.1l20.3-107.9H698
	L718.4,460.6z M649.8,344.7l5.5-29h35.8l5.5,29H649.8z"/>
<path class="st1" d="M436.1,213.6v-68.4c0-2,3.1-3.7,7-3.7s7,1.7,7,3.7v68.4c0,2-3.1,3.7-7,3.7S436.1,215.7,436.1,213.6z"/>
<path class="st0" d="M419.3,213.6v-68.4c0-2,3.1-3.7,7-3.7s7,1.7,7,3.7v68.4c0,2-3.1,3.7-7,3.7S419.3,215.7,419.3,213.6z"/>
<path class="st0" d="M402.6,213.6v-68.4c0-2,3.1-3.7,7-3.7s7,1.7,7,3.7v68.4c0,2-3.1,3.7-7,3.7S402.6,215.7,402.6,213.6z"/>
<path class="st5" d="M544.9,461.1H421.7c-5.2,0-9.4-4.2-9.4-9.4V249.5c0-4.6-3.8-8.4-8.4-8.4H115.7c-4.6,0-8.4,3.8-8.4,8.4v202.2
	c0,5.2-4.2,9.4-9.4,9.4h-4.2c-5.2,0-9.4-4.2-9.4-9.4V238.6c0-12.4,10.1-22.5,22.5-22.5h425c12.4,0,22.5,10.1,22.5,22.5v213.1
	C554.3,456.9,550.1,461.1,544.9,461.1z"/>
<rect x="412.8" y="268.6" class="st6" width="141" height="6"/>
<rect x="412.8" y="349.6" class="st6" width="141" height="6"/>
<path class="st7" d="M296.1,215.1l-4.1-1.7l-2.8-20.3h-37l-3,20.2l-3.6,1.8c-0.4,0.2-0.6,0.7-0.4,1.2c0.1,0.3,0.4,0.5,0.8,0.5h49.8
	c0.5,0,0.9-0.4,0.9-0.9C296.6,215.5,296.4,215.2,296.1,215.1z"/>
<path class="st8" d="M361.9,195.8H180.1c-2,0-3.6-1.6-3.6-3.6v-25.6h189v25.6C365.5,194.2,363.9,195.8,361.9,195.8z"/>
<path class="st9" d="M365.7,178.6H176.3V68.9c0-2.4,1.9-4.3,4.3-4.3h180.7c2.4,0,4.3,1.9,4.3,4.3v109.7H365.7z"/>
<path class="st10" d="M354.4,170.7H187.6c-1.8,0-3.3-1.5-3.3-3.3V75.9c0-1.8,1.5-3.3,3.3-3.3h166.8c1.8,0,3.3,1.5,3.3,3.3v91.4
	C357.7,169.2,356.2,170.7,354.4,170.7z"/>
<path class="st11" d="M541.3,83c6-0.9,11.6,3.3,12.5,9.3c0.1,0.6,0.1,1.3,0.1,1.9l36.6,14.1l-16.6,11.8l-32.2-15.2
	c-6.1-0.6-10.5-6-9.9-12.1C532.3,87.8,536.3,83.7,541.3,83L541.3,83z"/>
<path class="st12" d="M680.2,76.1l6.2,11.2c-1.5,7.1-5.4,13.6-11,18.2c-9.5,8-59,37.7-59,37.7l-62.5-31.4l10.9-14.5l49.1,16.4l0,0
	c18.2-17.2,40.2-29.9,64.2-37.1L680.2,76.1z"/>
<ellipse class="st4" cx="668.7" cy="246.3" rx="48.8" ry="15.9"/>
<polygon class="st13" points="559.2,447.1 546.3,443.5 553.9,391.8 573,397.1 "/>
<path class="st14" d="M559,460.6L517.3,449l0.1-0.5c2.5-9,11.8-14.2,20.8-11.8l0,0l25.5,7.1L559,460.6z"/>
<polygon class="st13" points="521.7,447.3 509.4,441.8 524.4,391.8 542.6,399.8 "/>
<path class="st14" d="M519.5,460.6l-39.6-17.5l0.2-0.5c3.8-8.5,13.7-12.4,22.2-8.6l0,0l24.2,10.7L519.5,460.6z"/>
<path class="st15" d="M706.6,207.5c0,0,6.5,20.2-33.5,45.7l-51.5,51.3l-53.5,128l-31.8-14.2l6.2-16.6l4.2-11.2l2.1-5.7l2.3-6.1
	l34-90.8l28.6-50l0.8-27.1l7-19.1l51-18.1L706.6,207.5z"/>
<path class="st15" d="M680.6,208.5c0,0,6.5,20.2-33.5,45.7l-51.5,51.3l-53.5,128l-31.8-14.2l6.2-16.6l4.2-11.2l2.1-5.7l2.3-6.1
	l34-90.8l9.6-16.7c12.6-22.1,28-42.5,45.6-60.8l9.4-9.7l1-15l21.8-12.1L680.6,208.5z"/>
<path class="st12" d="M649.8,109.6l16-34l27.9-3.8c0,0,21.8,27.8,16.1,66.8c-2.1,14.6-3.9,29.2-4,42c0,3.4,2.9,4.9,3,8
	c0,3-5.6,7.9-4,10c2.3,2.8,3.7,6.3,4,10c-2,4.7-62-20.8-87.2-17L649.8,109.6z"/>
<path class="st16" d="M353.2,138.8c-0.1,0.8-0.1,1.5-0.1,2.3l-56,40.9l-15.4-6.8L268.3,197l26.1,14.7c4.3,2.4,9.8,1.7,13.3-1.7
	l56.4-55.1c7.9,2,15.8-2.8,17.8-10.6c2-7.9-2.8-15.8-10.6-17.8c-7.9-2-15.8,2.8-17.8,10.6C353.4,137.6,353.3,138.2,353.2,138.8
	L353.2,138.8z"/>
<path class="st17" d="M295.2,183.4l-16.4,27.2c-1.8,3-5.7,3.9-8.6,2.2c-0.3-0.2-0.5-0.3-0.8-0.5L245,192.2c-8.2-5-10.9-15.8-5.8-24
	c5-8.2,15.7-10.8,23.9-5.9l29.2,12.1c3.2,1.3,4.7,5,3.4,8.2C295.5,182.9,295.4,183.2,295.2,183.4L295.2,183.4z"/>
<rect x="225.2" y="367.2" class="st4" width="32.1" height="53.1"/>
<rect x="288.4" y="377.9" transform="matrix(0.5615 -0.8275 0.8275 0.5615 -223.1166 427.8056)" class="st4" width="7.3" height="93"/>
<rect x="143.9" y="420.7" transform="matrix(0.8275 -0.5615 0.5615 0.8275 -205.4197 180.1229)" class="st4" width="93" height="7.3"/>
<circle class="st4" cx="330.5" cy="450.5" r="10.1"/>
<circle class="st4" cx="240.7" cy="450.5" r="10.1"/>
<circle class="st4" cx="151.9" cy="450.5" r="10.1"/>
<rect x="237.1" y="398.3" class="st4" width="7.3" height="52.2"/>
<rect x="234.3" y="320.5" class="st4" width="13.7" height="70.5"/>
<path class="st9" d="M201.8,331.5V315c0-6.3,5.1-11.4,11.4-11.4h61.4c6.3,0,11.4,5.1,11.4,11.4v16.5c0,6.3-5.1,11.4-11.4,11.4h-61.4
	C206.9,342.9,201.8,337.8,201.8,331.5z"/>
<polygon class="st18" points="312.6,444.1 329.6,444.1 337.7,400.1 312.6,400.1 "/>
<path class="st14" d="M308.3,460.6H363v-0.7c0-11.8-9.5-21.3-21.3-21.3l0,0l0,0h-33.4L308.3,460.6z"/>
<path class="st14" d="M338,416.8l33.8-75.9c5.9-13.3,0.5-28.8-12.2-35.7l-73.4-39.3l-33.5-2.8l-30.9-2.8l-0.2,0.4
	c-0.3,0.5-6.9,12-2.4,24.5c3.4,9.5,12.3,17,26.3,22.1c32.8,12,70.7,22.3,85.5,26.2c1.3,0.3,2.4,1.2,3.1,2.4c0.6,1.2,0.7,2.6,0.3,3.9
	L303,410.4c-1.2,3.2,0.5,6.8,3.7,8c0.5,0.2,1,0.3,1.6,0.4l23.5,1.7c0.2,0,0.4,0,0.6,0C334.8,420.5,337,419.1,338,416.8z"/>
<polygon class="st18" points="301.6,444.1 318.5,444.1 326.6,400.1 301.6,400.1 "/>
<path class="st14" d="M297.2,460.6h54.7v-0.7c0-11.8-9.5-21.3-21.3-21.3l0,0l0,0h-33.4L297.2,460.6z"/>
<path class="st14" d="M325.6,421l33.8-75.9c5.9-13.3,0.5-28.8-12.2-35.7l-73.4-39.3l-33.5-2.8l-24.2-2.1v-0.3
	c-0.3,0.5-6.9,12-2.4,24.5c3.4,9.5,5.3,17,19.4,22.1c32.8,12,70.7,22.3,85.5,26.2c1.3,0.3,2.4,1.2,3.1,2.4c0.6,1.2,0.7,2.6,0.3,3.9
	l-31.4,70.6c-1.2,3.2,0.5,6.8,3.7,8c0.5,0.2,1,0.3,1.6,0.4l23.5,1.7c0.2,0,0.4,0,0.6,0C322.3,424.7,324.6,423.2,325.6,421z"/>
<circle class="st18" cx="271.3" cy="86.4" r="34"/>
<path class="st19" d="M388.5,217c14.2-18.9,25.5-39.9,33.3-62.2c0.9-2.8-0.2-5.8-2.8-7.2l-48.6-26.1c-1.6-0.9-3.5-0.9-5.2-0.2
	c-1.7,0.7-2.9,2.2-3.4,4c-5.7,21.5-16.3,41.4-31.1,58c-1.2,1.4-1.8,3.2-1.4,5c0.3,1.8,1.4,3.3,3,4.2l48.6,26.1
	C383.5,220,386.7,219.3,388.5,217z"/>
<path class="st20" d="M385.1,214.5c-0.5,0.7-1.5,0.9-2.2,0.5l-48.6-26.1c-0.5-0.2-0.8-0.7-0.9-1.2c-0.1-0.6,0.1-1.1,0.4-1.6
	c15.2-17.1,26.2-37.6,32-59.7c0.1-0.6,0.5-1,1-1.2s1.1-0.2,1.5,0.1l48.6,26.1c0.8,0.4,1.1,1.3,0.9,2.1
	C410.1,175.3,399.1,195.9,385.1,214.5z"/>
<path class="st19" d="M369.7,141.7l36.1,22.8c3.5,2.3,6.9-3.7,3.2-6l-36.1-22.8C369.4,133.4,366.2,139.4,369.7,141.7L369.7,141.7z"
	/>
<path class="st10" d="M363.3,154.4l36.1,22.8c3.5,2.3,6.9-3.7,3.2-6l-36.1-22.8C362.9,146.1,359.7,152.1,363.3,154.4L363.3,154.4z"
	/>
<path class="st10" d="M358.2,167l32.8,20.9c3.2,2.1,6.8-2.2,3.5-4.3l-32.8-20.9C358.4,160.7,355,164.9,358.2,167z"/>
<path class="st10" d="M348.2,179.9l36.1,22.8c3.5,2.3,6.9-3.7,3.2-6l-36.1-22.8C347.9,171.5,344.7,177.5,348.2,179.9L348.2,179.9z"
	/>
<path class="st2" d="M290.9,268.7l-67.3-0.4v-0.5c-1.3-33.8,2.8-64.3,12.6-93.5c0.1-1.1,0.3-2.3,0.4-3.4c1.7-13,3-23.4,15.4-27.2
	c-1-1.4-1.6-3-1.8-4.7c-0.2-2.3,0.6-4.6,2.1-6.3s3.5-2.7,5.8-2.8l23.9-0.8c1.3,0,2.5,0.4,3.5,1.2c3.8,2.8,4.9,7.9,2.8,12.1
	c-0.3,0.6-0.4,0.8-0.4,0.9c0.9,4.5,3.4,9.8,6,15.4c3.8,8,8.2,17.1,9.3,26.9c0.6,5.3,0.4,10.6-0.7,15.7c-0.5,2.8-0.6,5.6-0.3,8.5
	c0.2,4.2,0.4,8.1-1.9,11.9c-0.6,1-1.3,2.1-2.1,3.4l-3.3,7.9L290.9,268.7z"/>
<path class="st9" d="M189.9,315.9V178.5c0-9.3,7.6-16.9,16.9-16.9h4.7c9.3,0,16.9,7.6,16.9,16.9V316c0,9.3-7.6,16.9-16.9,16.9h-4.7
	C197.5,332.8,189.9,325.3,189.9,315.9z"/>
<path class="st16" d="M370.3,192.2c-0.5,0.6-0.9,1.2-1.3,1.9l-69.2,5l-9.5-13.9l-22.9,11.6l14.4,26.3c2.4,4.4,7.4,6.6,12.2,5.5
	l77-17c5.6,5.8,14.9,6,20.8,0.4c5.8-5.6,6-14.9,0.4-20.8c-5.6-5.8-14.9-6-20.8-0.4C371.1,191.3,370.7,191.7,370.3,192.2z"/>
<path class="st2" d="M297.5,199.5L269.3,214c-3.1,1.6-6.9,0.4-8.5-2.7c-0.1-0.3-0.3-0.6-0.4-0.9l-10.2-30c-4.3-8.6-0.9-19,7.6-23.4
	c-12.5,6.4,13.6-11.8,23.5,7.6l18.4,25.7c2,2.8,1.4,6.8-1.5,8.8C298.1,199.2,297.8,199.3,297.5,199.5L297.5,199.5z"/>
<path class="st14" d="M255.9,119.4c-2,0-4.3-1-6.8-3c-15.4-12.1-20.8-33-13.3-51c1.9-4.4,5.3-10.4,11.3-14c4.3-2.5,9.3-3.4,13.7-4.1
	c3.8-0.6,7.7-1,11.5-1.3c4.5-0.4,9.8-0.6,14.5,1.2c3.5,1.3,6.5,3.7,9.4,6c1,0.8,2,1.6,3.1,2.4c2.5,2,5.4,3.4,8.5,4.1
	c1.3,0.3,2.5,1.1,3.1,2.3c0.7,1.2,0.8,2.6,0.3,3.9c-0.4,1.3-0.9,2.4,0,3.6c0.6,0.9,1.6,1.4,2.7,1.4c0.6,0,1.1,0.3,1.4,0.7
	c0.3,0.5,0.4,1.1,0.2,1.6l-0.1,0.3c0.7,0.1,1.4,0.5,1.7,1.1c0.5,0.9,0.4,2.1-0.4,2.8c-3,2.9-6.8,4.9-10.9,5.7
	c-2.8,0.6-5.7,0.5-8.5,0l-0.5-0.1l0.1-0.5c-11.3-4-21.6,2.8-27.4,10.7l-0.8-0.5c0.3-0.6,0.3-1.3,0.1-1.9c-0.2-0.7-0.8-1.4-1.5-1.7
	c-1.4-0.6-3.1-0.3-4.1,0.8c-1.1,1.1-1.7,2.7-1.5,4.3c0.2,1.7,0.6,3.3,1.3,4.8c0.3,0.7,0.6,1.5,0.8,2.2c1.3,4.3,0.9,9-1,13
	c-0.9,1.9-2.5,4.2-5.1,5C257,119.4,256.5,119.4,255.9,119.4z"/>
<path class="st4" d="M808.5,462.6H1.2c-0.7,0-1.2-0.5-1.2-1.2s0.5-1.2,1.2-1.2h807.3c0.7,0,1.2,0.5,1.2,1.2
	C809.7,462,809.1,462.6,808.5,462.6z"/>
<path class="st19" d="M545.3,163.4l48.6-26.1c1.6-0.9,2.7-2.4,3-4.2c0.4-1.8-0.2-3.6-1.4-5c-14.8-16.6-25.4-36.5-31.1-58
	c-0.5-1.8-1.7-3.3-3.4-4s-3.6-0.7-5.2,0.2l-48.6,26.1c-2.6,1.4-3.7,4.4-2.8,7.2c7.8,22.3,19.1,43.3,33.3,62.2
	C539.5,164.1,542.7,164.8,545.3,163.4z"/>
<path class="st20" d="M508.4,98.3c-0.2-0.8,0.1-1.7,0.9-2.1l48.6-26.1c0.4-0.3,1-0.3,1.5-0.1s0.9,0.6,1,1.2
	c5.8,22.1,16.8,42.6,32,59.7c0.3,0.5,0.5,1,0.4,1.6c-0.1,0.5-0.4,1-0.9,1.2l-48.6,26.1c-0.7,0.4-1.7,0.2-2.2-0.5
	C527.1,140.7,516.1,120.1,508.4,98.3z"/>
<path class="st19" d="M557,88.8c3.5-2.2,0.3-8-3.2-5.8l-35.3,21.9c-3.6,2.2-0.3,8,3.2,5.8L557,88.8L557,88.8z"/>
<path class="st10" d="M563.3,101c3.5-2.2,0.3-8-3.2-5.8l-35.3,21.9c-3.6,2.2-0.3,8,3.2,5.8L563.3,101L563.3,101z"/>
<path class="st10" d="M564.8,109.1l-32.1,20.1c-3.2,2,0.3,6.1,3.5,4.1l32.1-20.1C571.4,111.2,568.1,107.1,564.8,109.1z"/>
<path class="st10" d="M578.1,125.5c3.5-2.2,0.3-8-3.2-5.8l-35.3,21.9c-3.6,2.2-0.3,8,3.2,5.8L578.1,125.5L578.1,125.5z"/>
<path class="st11" d="M559.3,141c5.7-2.2,12.1,0.7,14.2,6.4c0.2,0.6,0.4,1.2,0.5,1.9l38.8,5.7l-13.6,15.2l-34.7-7.8
	c-6.1,0.7-11.6-3.6-12.3-9.7C551.6,147.7,554.5,142.8,559.3,141L559.3,141z"/>
<path class="st12" d="M577.1,166.9l7.9-17.5l51.6,5.3l21.2-31.4l35.6-20l8.9,10.1v0.2c0.1,7.4-2.3,14.7-6.8,20.5
	c-5.4,7.1-28.2,29.4-41.3,42c-5.2,5-12.5,7-19.5,5.2L577.1,166.9z"/>
<ellipse class="st16" cx="665.2" cy="43.3" rx="27.9" ry="25.7"/>
<path class="st14" d="M645.6,91.6L643,81c-1.7-7.2-0.3-14.7,4.1-20.8c4-5.8,4.3-13.2,0.6-19.3c-2.7-4.9-8.1-8-14-8.1H633v-0.6
	c0-9.2,7.8-15.7,15-16.1c0.3-1.9,1.7-3.6,4.3-5c6.1-3.3,18-4,27,0.4c0.3-2.9,2.4-5.3,5.2-6.4c1.5-0.5,3.1-0.6,4.6-0.2
	c0.1-2.3,1.2-4.5,2.9-6.2c2.5-2.2,6.4-3.1,10.9-2.3C709-2.6,715,1,719.8,6.5c4.3,4.9,7.2,10.6,10.1,16.2c2.8,5.5,5.7,11.1,10,15.9
	c4.6,5.2,10.4,8.6,16.2,9.6c6.8,1.1,13.7-1.5,16.9-6.2l0.6-0.9l0.6,1c3.6,6,2.1,14.4-3.5,19.8c-5,4.8-12.8,7.3-21,6.6
	c-6.9-0.6-13.8-3.3-20.7-8c-6.8-4.7-11-9.9-12.4-15.4c-0.4-1.7-0.7-3.4-0.9-5.2c-0.5-3.7-0.9-7.1-3.3-9.7c-2.2-2.3-5.6-3.3-8.6-4
	l-0.6-0.1c-0.2,2.1-1.4,4-3.3,5.2c-0.6,0.3-1.2,0.5-1.8,0.6c3.5,13,2.1,22.9-4.3,29.5c-10.7,11.2-31.2,8.9-32,8.8l-0.6-0.1v-0.5
	c-0.1-1.4-0.3-2.9-0.6-4.3c-2.9,6.5-12.8,23.8-14.1,25.6L645.6,91.6z"/>
</svg>
