<?xml version="1.0" encoding="utf-8"?>
<!-- Generator: Adobe Illustrator 24.1.1, SVG Export Plug-In . SVG Version: 6.00 Build 0)  -->
<svg version="1.1" id="bb7c18d0-f456-47c2-8887-908615fa7d6e"
	 xmlns="http://www.w3.org/2000/svg" xmlns:xlink="http://www.w3.org/1999/xlink" x="0px" y="0px" viewBox="0 0 1005.6 548.7"
	 style="enable-background:new 0 0 1005.6 548.7;" xml:space="preserve">
<style type="text/css">
	.st0{fill:#E4E4E4;}
	.st1{fill:#E6E6E6;}
	.st2{fill:#CCCCCC;}
	.st3{fill:#3F3D56;}
	.st4{fill:#FFFFFF;}
	.st5{fill:#BAE6FD;}
	.st6{fill:#FFB6B6;}
	.st7{fill:#F59E0B;}
	.st8{fill:#2F2E41;}
	.st9{fill:#FFB9B9;}
	.st10{fill:#D97706;}
	.st11{fill:#0284C7;}
	.st12{fill:#0D9488;}
	.st13{fill:#C9C9C9;}
	.st14{fill:#FFB7B7;}
	.st15{fill:#64748B;}
</style>
<path class="st0" d="M872.9,545.1c0.1-0.3,9.4-29.1-7.1-54.8l-1.7,1.1c16,24.9,7,52.9,6.9,53.1L872.9,545.1z"/>
<path class="st0" d="M854,494c1.5,7.1,8.4,11.6,15.5,10.1s11.6-8.4,10.1-15.5l0,0c-1.5-7.1-14.2-24.7-21.3-23.2S852.5,486.9,854,494
	z"/>
<path class="st0" d="M856.4,527.1c6.3,6.8,17.6,6.6,17.6,6.6s1.1-11.3-5.3-18.1s-17.6-6.6-17.6-6.6S850.1,520.3,856.4,527.1z"/>
<path class="st0" d="M952.3,547.1c0.2-0.7,22.2-68.7-16.7-129.4l-4,2.5c37.7,58.8,16.4,124.7,16.2,125.4L952.3,547.1z"/>
<path class="st0" d="M907.7,426.4c3.5,16.7,19.9,27.4,36.7,23.9s27.4-19.9,23.9-36.7l0,0c-3.5-16.7-33.4-58.3-50.1-54.8
	S904.2,409.7,907.7,426.4z"/>
<path class="st0" d="M913.4,504.6c14.9,16.1,41.6,15.7,41.6,15.7s2.5-26.6-12.4-42.7S901,461.9,901,461.9S898.5,488.5,913.4,504.6z"
	/>
<path class="st1" d="M580.1,542l-14.6-6.1l-10-73.2H422.2l-10.9,72.9l-13.1,6.5c-1.5,0.8-2.2,2.6-1.4,4.2c0.5,1.1,1.6,1.7,2.8,1.7
	h179.2c1.7,0,3.1-1.4,3.1-3.1C582,543.6,581.2,542.5,580.1,542z"/>
<path class="st2" d="M817,472.4H162.2c-7.2,0-12.9-5.8-12.9-13v-92.3H830v92.3C829.9,466.6,824.1,472.4,817,472.4z"/>
<path class="st3" d="M830.6,410.7h-682V15.6c0-8.6,7-15.6,15.6-15.6H815c8.6,0,15.6,7,15.6,15.6V410.7z"/>
<path class="st4" d="M789.9,28.7H189.3c-6.7,0-12,5.4-12,12.1V370c0,6.7,5.4,12.1,12,12.1h600.5c6.7,0,12-5.4,12.1-12.1V40.7
	C801.9,34.1,796.5,28.7,789.9,28.7z"/>
<path class="st5" d="M295.8,28.7v353.4H189.3c-6.7,0-12-5.4-12-12.1V40.7c0-6.7,5.4-12.1,12-12.1L295.8,28.7z"/>
<path class="st6" d="M208,207.2c-4.5-1-9,1.8-10.1,6.3c-0.1,0.5-0.2,1-0.2,1.5l-28.7,8.4l11.9,10l25.4-9.6c4.7-0.1,8.4-3.9,8.3-8.6
	C214.5,211.4,211.8,208,208,207.2L208,207.2z"/>
<path class="st7" d="M92.2,270.8c-6.6,0-11.9-5.4-11.9-12c0-5.1,3.3-9.7,8.1-11.3l58.1-19.6l45.3-16.5l5.6,19.5l-40,26.3l-62.6,13.3
	C93.9,270.7,93,270.8,92.2,270.8z"/>
<polygon class="st6" points="128.5,538.8 136.7,538.8 140.6,507.3 128.5,507.3 "/>
<path class="st8" d="M126.5,536.1h16.1l0,0c5.7,0,10.2,4.6,10.2,10.2v0.3h-26.3V536.1z"/>
<polygon class="st6" points="66,538.8 74.2,538.8 78.1,507.3 66,507.3 "/>
<path class="st8" d="M64,536.1h16.1l0,0c5.7,0,10.2,4.6,10.2,10.2v0.3H64L64,536.1z"/>
<path class="st8" d="M66,350.2c-3.7,8.7-4.5,18.4-2.3,27.5l-2.3,156h17.9l10-85.8l16.6-56.5l18,43.9v91.5l17.3-1l9.3-97.1
	l-10.6-69.2L66,350.2z"/>
<path class="st7" d="M131.5,228.8l-15.3-4.7l-4-8H92.5l-5,8.6c0,0-19.9,7.3-20.6,42.6s-3.3,91.8-3.3,91.8l78.7,11.2L131.5,228.8z"/>
<path class="st6" d="M199.1,335.2c-1.1-4.5-5.6-7.3-10.1-6.3c-0.4,0.1-1,0.2-1.4,0.5l-20.2-22l-3.8,15.1l19.8,18.7
	c2.1,4.2,7.2,5.8,11.4,3.7C198.2,342.9,200,339,199.1,335.2L199.1,335.2z"/>
<path class="st7" d="M173.1,336l-41.3-24.3l-39.5-50.4c-4.1-5.2-3.1-12.8,2-16.8c4.8-3.8,11.6-3.4,15.9,1l34.4,45.4l43.4,31.6
	L173.1,336z"/>
<circle class="st9" cx="106.1" cy="186.2" r="19.6"/>
<path class="st8" d="M107.4,180.2c-0.9,1.2-2.2,2.2-2.4,3.7c-0.1,1.1,0.3,2.2,0.4,3.3c0,2.3-1.8,4.2-4.1,4.4c-0.8-1-1.9-1.6-3.1-1.8
	c-1.3-0.1-2.5,0.6-3,1.7c-0.6,1.6,0.8,3.3,1,5.1c0,1.3-0.2,2.6-0.6,3.8c-0.5,2-0.6,4.1-1.5,5.9s-2.8,3.5-4.8,3
	c-1.7-0.3-2.8-2-3.3-3.6s-0.5-3.4-0.8-5.1c-1.1-5.5-5.8-9.6-7.7-14.8c-2.4-6.8,0.5-14.5,5.4-19.7c2-2.3,4.6-4,7.5-4.8
	c3.1-0.8,6.3-0.2,9.5-0.6c3.4-0.4,6.5-1.7,9.8-2.6s6.9-1.2,9.9,0.4c2.1,1.1,3.6,3.1,5.5,4.4c2.2,1.5,4.9,2.3,7.6,2l-3.2,1.4
	c1.2,1.1,2.7,1.9,4.3,2.4c-1.3,1-2.9,1.6-4.6,1.6c0.7,1.3,1.9,2.2,3.3,2.5c-2.4,1.1-5,2.3-7.7,2.1c-1.3-0.1-2.6-0.6-3.9-0.8
	c-2.8-0.5-5.6,0-8.4,0.5c-1.4,0.3-3.2,0.5-4,1.9C107.9,177.7,108.3,179,107.4,180.2z"/>
<ellipse transform="matrix(0.1602 -0.9871 0.9871 0.1602 -4.1309 405.9447)" class="st10" cx="236.5" cy="205.4" rx="31.3" ry="31.3"/>
<polygon class="st4" points="255.3,205.4 238.4,205.4 238.4,188.5 234.7,188.5 234.7,205.4 217.8,205.4 217.8,209.1 234.7,209.1 
	234.7,226 238.4,226 238.4,209.1 255.3,209.1 "/>
<path class="st4" d="M503.3,70c-2,0-3.6,1.6-3.6,3.6v61c0,2,1.6,3.6,3.6,3.6h245.9c2,0,3.6-1.6,3.6-3.6v-61c0-2-1.6-3.6-3.6-3.6
	L503.3,70z"/>
<path class="st11" d="M503.3,70c-2,0-3.6,1.6-3.6,3.6v61c0,2,1.6,3.6,3.6,3.6h245.9c2,0,3.6-1.6,3.6-3.6v-61c0-2-1.6-3.6-3.6-3.6
	L503.3,70z"/>
<path class="st4" d="M509.8,132.7h232.7V75.6H509.8V132.7z"/>
<path class="st12" d="M531.6,91.4c-1.8,0-3.2,1.4-3.2,3.2c0,1.8,1.4,3.2,3.2,3.2h189.3c1.8,0,3.2-1.4,3.2-3.2c0-1.8-1.4-3.2-3.2-3.2
	l0,0H531.6z"/>
<path class="st12" d="M531.6,110.5c-1.8,0-3.2,1.4-3.2,3.2c0,1.8,1.4,3.2,3.2,3.2h189.3c1.8,0,3.2-1.4,3.2-3.2
	c0-1.8-1.4-3.2-3.2-3.2l0,0H531.6z"/>
<path class="st4" d="M332.3,173.5c-2,0-3.6,1.6-3.6,3.6v61c0,2,1.6,3.6,3.6,3.6h245.9c2,0,3.6-1.6,3.6-3.6v-61c0-2-1.6-3.6-3.6-3.6
	H332.3z"/>
<path class="st11" d="M332.3,161.8c-2,0-3.6,2.4-3.6,5.3v89.1c0,2.9,1.6,5.3,3.6,5.3h245.9c2,0,3.6-2.4,3.6-5.3v-89.1
	c0-2.9-1.6-5.3-3.6-5.3H332.3z"/>
<path class="st4" d="M338.8,254.8h232.7v-86.7H338.8V254.8z"/>
<path class="st12" d="M360.6,194.9c-1.8,0-3.2,1.4-3.2,3.2s1.4,3.2,3.2,3.2h189.3c1.8,0,3.2-1.4,3.2-3.2s-1.4-3.2-3.2-3.2l0,0H360.6
	z"/>
<path class="st13" d="M360.6,214c-1.8,0-3.2,1.4-3.2,3.2s1.4,3.2,3.2,3.2h189.3c1.8,0,3.2-1.4,3.2-3.2s-1.4-3.2-3.2-3.2H360.6z"/>
<path class="st14" d="M632,337.2c4.1-0.5,7.1-4.2,6.7-8.3c0-0.4-0.1-0.9-0.3-1.3l21.8-15.6l-13-5l-18.7,15.5
	c-3.9,1.4-5.9,5.8-4.5,9.7C625.2,335.6,628.5,337.6,632,337.2z"/>
<path class="st10" d="M644.1,327l-7.2-12.3l0.2-0.2l29.2-33.2l22.6-38.6l19.7,2.5l0.3,5.9l-0.1,0.1l-31.2,47l0,0L644.1,327z"/>
<polygon class="st14" points="740.5,535.9 729.3,535.9 724.1,493 740.5,493 "/>
<path class="st8" d="M743.3,546.7h-35.9v-0.5c0-7.7,6.2-14,14-14l0,0h21.9V546.7z"/>
<polygon class="st14" points="644.7,535.5 633.9,533 638.7,490 654.7,493.8 "/>
<path class="st8" d="M645,546.7l-34.9-8.3l0.1-0.4c1.8-7.5,9.3-12.1,16.8-10.3l0,0l21.3,5.1L645,546.7z"/>
<path class="st10" d="M717.6,304.8l-46.8-1.8l-2.6-30.6c-2-5.6-2.1-10.4-0.1-14.3c1.7-3.2,4.5-5.6,7.9-6.8l10.2-12.4
	c2.7-3.2,6.6-5.1,10.8-5l26.6,0.2c0.6-0.4,4.5-2.4,12.2,1c8.3,3.6,6.4,16.1,6.4,16.3v0.1l-0.1,0.1l-17.7,14.9L717.6,304.8z"/>
<polygon class="st15" points="671.1,299.7 649,340.1 632.2,523.8 651.2,529.6 684.8,385.9 723.7,525.5 746.5,526.1 731,364.9 
	717.5,302.5 "/>
<path class="st4" d="M527.8,269.8c-1.9-0.6-4,0.4-4.6,2.3l-18.8,58c-0.6,1.9,0.4,4,2.3,4.6l233.9,75.8c1.9,0.6,4-0.4,4.6-2.3
	l18.8-58c0.6-1.9-0.4-4-2.3-4.6L527.8,269.8z"/>
<path class="st7" d="M527.8,269.8c-1.9-0.6-4,0.4-4.6,2.3l-18.8,58c-0.6,1.9,0.4,4,2.3,4.6l233.9,75.8c1.9,0.6,4-0.4,4.6-2.3
	l18.8-58c0.6-1.9-0.4-4-2.3-4.6L527.8,269.8z"/>
<path class="st4" d="M508.4,331l233.1,75.5l18.5-57.2l-233.1-75.5L508.4,331z"/>
<path class="st10" d="M548.1,298.8c-1.7-0.5-3.5,0.4-4,2s0.4,3.5,2,4l180,58.4c1.7,0.5,3.5-0.4,4-2c0.5-1.7-0.4-3.5-2-4l0,0
	L548.1,298.8z"/>
<path class="st10" d="M542.2,317c-1.7-0.5-3.5,0.4-4,2.1s0.4,3.5,2,4l180,58.4c1.7,0.5,3.5-0.4,4-2c0.5-1.7-0.4-3.5-2-4l0,0
	L542.2,317z"/>
<path class="st14" d="M730.3,365.1c3.1-2.8,3.4-7.5,0.6-10.6c-0.3-0.3-0.6-0.6-1-0.9l8.6-25.3l-13.5,3.5l-6.1,23.5
	c-2.4,3.5-1.5,8.2,2,10.5C723.9,367.7,727.7,367.4,730.3,365.1z"/>
<path class="st10" d="M734.2,349.7l-13.1-5.8l4.4-44.2l-4.1-44.6l17.4-9.4l3.7,4.7v0.1l2,56.4l0,0L734.2,349.7z"/>
<path class="st2" d="M1004,548.7H320.6c-0.7,0-1.3-0.5-1.5-1.1c-0.2-0.8,0.3-1.7,1.1-1.9c0.1,0,0.3-0.1,0.4-0.1H1004
	c0.8,0,1.4,0.5,1.6,1.2c0.2,0.8-0.3,1.6-1.2,1.8C1004.3,548.7,1004.1,548.7,1004,548.7z"/>
<path class="st2" d="M230,548.7H1.6c-0.7,0-1.3-0.5-1.5-1.1c-0.2-0.8,0.3-1.7,1.1-1.9c0.1,0,0.3-0.1,0.4-0.1H230
	c0.8,0,1.4,0.5,1.6,1.2c0.2,0.8-0.3,1.6-1.2,1.8C230.3,548.7,230.1,548.7,230,548.7z"/>
<path class="st13" d="M360.5,231.8c-1.8,0-3.2,1.4-3.2,3.2s1.4,3.2,3.2,3.2h189.3c1.8,0,3.2-1.4,3.2-3.2s-1.4-3.2-3.2-3.2H360.5z"/>
<path class="st12" d="M360.4,176.3c-1.8,0-3.2,1.4-3.2,3.2s1.4,3.2,3.2,3.2h189.3c1.8,0,3.2-1.4,3.2-3.2s-1.4-3.2-3.2-3.2l0,0H360.4
	z"/>
<ellipse class="st6" cx="708.4" cy="210" rx="21.5" ry="19.8"/>
<path class="st8" d="M693.3,247.2l-2-8.2c-1.3-5.5-0.2-11.3,3.2-16c3.1-4.5,3.3-10.2,0.5-14.9c-2.1-3.8-6.2-6.2-10.8-6.2h-0.5v-0.5
	c0-7.1,6-12.1,11.5-12.4c0.2-1.5,1.3-2.8,3.3-3.9c4.7-2.5,13.9-3.1,20.8,0.3c0.2-2.2,1.8-4.1,4-4.9c1.2-0.4,2.4-0.5,3.5-0.2
	c0.1-1.8,0.9-3.5,2.2-4.8c1.9-1.7,4.9-2.4,8.4-1.8c4.7,0.8,9.3,3.5,13,7.8c3.3,3.8,5.5,8.2,7.8,12.5c2.2,4.2,4.4,8.5,7.7,12.2
	c3.5,4,8,6.6,12.5,7.4c5.2,0.8,10.5-1.2,13-4.8l0.5-0.7l0.5,0.8c2.8,4.6,1.6,11.1-2.7,15.2c-3.8,3.7-9.9,5.6-16.2,5.1
	c-5.3-0.5-10.6-2.5-15.9-6.2c-5.2-3.6-8.5-7.6-9.5-11.9c-0.3-1.3-0.5-2.6-0.7-4c-0.4-2.8-0.7-5.5-2.5-7.5c-1.7-1.8-4.3-2.5-6.6-3.1
	l-0.5-0.1c-0.2,1.6-1.1,3.1-2.5,4c-0.5,0.2-0.9,0.4-1.4,0.5c2.7,10,1.6,17.6-3.3,22.7c-8.2,8.6-24,6.9-24.6,6.8l-0.5-0.1v-0.4
	c-0.1-1.1-0.2-2.2-0.5-3.3c-2.2,5-9.9,18.3-10.9,19.7L693.3,247.2z"/>
</svg>
