<?xml version="1.0" encoding="utf-8"?>
<!-- Generator: Adobe Illustrator 24.1.1, SVG Export Plug-In . SVG Version: 6.00 Build 0)  -->
<svg version="1.1" id="Warstwa_1" xmlns="http://www.w3.org/2000/svg" xmlns:xlink="http://www.w3.org/1999/xlink" x="0px" y="0px"
	 viewBox="0 0 841.9 595.3" style="enable-background:new 0 0 841.9 595.3;" xml:space="preserve">
<style type="text/css">
	.st0{fill:#F1F1F1;}
	.st1{fill:#403E57;}
	.st2{fill:#CBD5E1;}
	.st3{fill:#3A384E;}
	.st4{fill:#302F42;}
	.st5{fill:#0369A1;}
	.st6{fill:#0F766E;}
	.st7{fill:#94A3B8;}
	.st8{fill:#9F616A;}
	.st9{fill:#3F4362;}
	.st10{fill:#39374E;}
	.st11{fill:#FBFBFC;}
	.st12{fill:#E65D79;}
</style>
<g>
	<g>
		<path class="st0" d="M-502.5,120.3c-36.5-1.3-70.1-11.6-98.6-34.9C-617.5,71.9-630,54.9-638.4,35c-7.6-17.9-12.3-36.5-14.5-55.6
			c-4.4-38.6,1-75.9,16.1-112c17.6-42.2,41.8-80.3,69-116.7c15.4-20.6,31.9-40.3,49.1-59.4c10.5-11.6,21.2-22.9,32.1-34.1
			c3.1-3.2,5-3,8,0.1c19.3,19.7,37.7,40.1,55.4,61.3c19.6,23.5,37.8,47.9,54.5,73.5c18.2,28.1,34.1,57.5,45.3,89.1
			c5.7,16.1,9.7,32.6,11.4,49.8c2.4,25.2,0.1,50-5.4,74.5c-5.4,24-15.4,46-31.5,64.7c-14.8,17.4-33.3,29.9-54.7,38
			c-17.8,6.8-36.2,10.4-55.1,12.2c-10.2,1-20.3,0.3-30.4,0.8c-0.9-6.2,0.6-11.4,4.2-16.8c12.1-18.1,23.8-36.5,35.6-54.8
			c0.9-1.4,2.7-2.6,1.6-5.6c-13.7,19.1-27.1,37.8-41.3,57.6c0-3.2,0-4.9,0-6.7c0.6-32.3,1.2-64.6,1.7-96.8c0-3.3,0.8-6.1,2.4-9
			c18.8-34.2,37.4-68.5,56.1-102.8c2.4-4.2,4.9-8.5,7.3-12.7c-0.4-0.2-0.8-0.4-1.2-0.7c-2.4,4.1-4.8,8.1-7.2,12.2
			c-18.7,29.9-37.4,59.8-56.3,90c0-14.9,0-29.1,0-43.3c0-2.7,0.6-5.1,1.9-7.6c11.1-21.2,22-42.5,33-63.7c2.9-5.3,5.7-10.6,8.6-15.9
			c-0.3-0.2-0.6-0.3-0.9-0.5c-3.1,5.4-6.2,10.8-9.3,16.2c-10.8,17.8-21.5,35.5-31.6,52.2c0-26.3,0-53.2-0.1-80.2
			c0-3.5,1.1-6.3,3.1-9.1c13.3-18.9,26.5-37.9,39.7-56.8c2.1-2,3.6-4.3,4.9-6.9c0.8-0.5,1.2-1.2,0.9-2.1c0.2-0.1,0.5-0.1,0.7-0.2
			c-0.1-0.2-0.2-0.3-0.3-0.5c-0.1,0.2-0.3,0.5-0.4,0.7c-0.5,0.5-1,1.1-1.5,1.6c-2.1,1.8-3.9,3.9-5.4,6.3
			c-13.5,15.8-27,31.6-41.3,48.4c0-34.5,0-67.5,0-100.6c-0.2,0-0.5,0-0.7,0c-1.3,47.2-2.5,94.5-3.8,141.7c-5.1-6-9.2-12.2-13.3-18.4
			c-10.6-16.1-21.2-32.1-31.9-48.2c-0.3-0.3-0.8-1-0.8-0.9c-0.9,0.5-0.3,1,0,1.6c14.4,27,28.8,54,43.2,81c1.1,2,2.2,3.9,2.1,6.5
			c-1.4,24.4-2.6,48.9-3.8,73.3c-0.3,6-0.8,12.1-1.2,19.4c-2.6-3.5-4.4-6-6.2-8.6c-12.4-17.1-24.7-34.2-37.1-51.4
			c0-0.3-0.1-0.6-0.4-0.9c-2.1-3.7-4.5-7.1-7.4-10.3c-0.5-0.6-0.9-1.2-1.4-1.7c-0.1-0.4-0.2-1.1-0.7-0.7c-0.5,0.3,0,0.8,0.4,1
			c0.1,0.8,0.3,1.5,1.1,1.9c1.9,3.9,4.2,7.5,7,10.8c0.1,0.3,0.2,0.5,0.4,0.6c13.8,21.4,27.5,42.8,41.3,64.1c1.8,2.8,2.6,5.5,2.4,8.8
			c-1.5,27.6-2.9,55.1-4.3,82.7C-500.4,83.8-501.4,102-502.5,120.3z M-437,30.4c0.3-0.5,0.6-0.9,0.8-1.4c0,0-0.2-0.2-0.3-0.3
			c-0.3,0.4-0.6,0.9-0.9,1.3c-0.3,0.4-0.6,0.8-0.9,1.1c-3.4,3.7-6.1,7.8-8.7,12c0,0.4-0.1,0.8,0,1.2c0.3,0.7,0.7,0,1-0.1
			c3.1-4,6-8.1,8.1-12.7C-437.5,31.2-437.3,30.8-437,30.4z M-483.6-290.3c0.2-16.3,0.7-32.7-0.1-49.1
			C-482.6-323-486.6-306.6-483.6-290.3z M-536.7-214c0.3,0.2,0.5,0.4,0.8,0.5c0.8,0.3,0.7-0.3,0.6-0.7c0-0.2-0.5-0.4-0.7-0.4
			C-536.3-214.5-536.5-214.2-536.7-214z"/>
		<path class="st1" d="M-441.8-233.6c-13.2,19-26.4,37.9-39.7,56.8c-2,2.8-3.1,5.6-3.1,9.1c0.1,26.9,0.1,53.9,0.1,80.2
			c10.1-16.7,20.9-34.4,31.6-52.2c0.6,0.1,1.1,0.2,1.7,0.3c-11,21.2-21.9,42.5-33,63.7c-1.3,2.4-1.9,4.8-1.9,7.6
			c0.1,14.2,0,28.5,0,43.3c18.8-30.2,37.6-60.1,56.3-90c0.4,0.4,0.7,0.8,1.1,1.1c-18.7,34.3-37.4,68.6-56.1,102.8
			c-1.6,2.9-2.3,5.7-2.4,9c-0.5,32.3-1.1,64.6-1.7,96.8c0,1.8,0,3.5,0,6.7c14.2-19.8,27.6-38.5,41.3-57.6c1.1,3-0.7,4.2-1.6,5.6
			c-11.8,18.3-23.4,36.7-35.6,54.8c-3.6,5.3-5,10.6-4.2,16.8c-0.4,16.3-0.7,32.6-1.1,48.9c-0.3,15.6-0.5,31.3-0.9,46.9
			c-0.1,3.3,0.6,4,4.1,3.6c36.8-4.7,73.5-10.1,110.5-13c15.4-1.2,30.9-2.5,46.3,0.5c0.7,0.1,1.3,0.2,2,0.4
			c10.6,2.9,12.9,8.9,7.1,18.1c-3.4,5.3-7.6,10-12.8,13.7c-2-0.4-3.5,0.9-5,1.9c-12.7,8.5-26.2,15.6-40,22.2
			c-27.7,13.1-56.4,23.4-85.5,32.9c-31.9,10.4-64.2,18.8-96.9,26.3c-46.8,10.8-94,18.7-141.6,24.6c-20.8,2.6-41.8,4.4-62.7,6
			c-18.5,1.4-37.1,3-55.6,2.9c-41.4-0.1-82.9,1.4-124.3-0.8c-12.9-0.7-25.9-0.1-38.9-0.8c-17.5-0.9-35.1-1.2-52.7-2.1
			c-18-0.9-36.1-1.8-54.1-3c-14-1-28.1-1.9-42.1-3c-18.8-1.5-37.6-2.9-56.3-5.1c-15.6-1.8-31.3-3.1-46.8-5.2
			c-20.5-2.8-40.9-5.8-61.1-9.9c-26.8-5.4-53.7-10.6-78.5-23c-1-0.5-2.1-1.4-3,0.2c-4-2.6-7.2-5.9-9.8-9.8c-3.7-5.6-3-10.5,2-15.1
			c5.7-5.2,12.9-7.4,20-9.7c11,9.8,23.7,15.8,38.2,18.1c6.5,1,7,0.7,7.6-5.9c1.1-12.1,2-24.2,3.5-36.2c1.4-10.7,3-21.1-5.4-29.9
			c-0.1-0.1-0.1-0.3-0.1-0.5c0.3-0.4,0.6-0.7,0.9-1.1c1.9,2.4,3.8,4.9,6.4,8.3c0.6-11.1,0.9-21,1.8-30.9c0.7-7.3-0.9-13.6-4.6-19.8
			c-3.3-5.5-6.7-11.1-8.9-17.2c0.2-0.2,0.5-0.4,0.7-0.7c4.3,6.2,8.5,12.4,12.8,18.6c0.4-0.1,0.8-0.2,1.3-0.2c0-5.7,0-11.4,0-17.1
			c0.5-0.3,1.1-0.5,1.6-0.8c4.5-3.4,7.1-8.5,11.2-12.2c0.3,0.3,0.6,0.6,0.9,1c-2.4,3.6-4.9,7.1-7.2,10.7c-1.7,2.8-4.7,5-5,8.4
			c-1.1,11.7-0.6,23.3-0.8,35.5c2.9-1.9,3-5.1,5.4-6.4c0.3,0.3,0.5,0.5,0.8,0.8c-1.6,3.3-3.3,6.5-4.8,9.9c-3,7-1.1,14.3-0.5,21.6
			c4.3-6.7,8.5-13.4,13.1-20.6c1.1,2.4,0.2,3.3-0.4,4.2c-4.2,7.7-8.4,15.5-12.7,23.2c-0.9,1.6-1.8,3.1-1.8,5.1
			c0,14.1-0.1,28.3-0.2,42.4c0,0.2,0.5,0.3,0.8,0.6c1.4-1.8,2.9-3.6,4.3-5.4c0.3,0.4,0.6,0.7,0.9,1.1c-2.1,3.6-4.4,7-6.4,10.7
			c-1.4,2.6-1,4.3,2.7,4.3c6.2,0,12.3-0.6,18.3-1.5c21.1-3.3,37.5-13.7,48.1-32.6c8-0.4,16.1-0.7,24.1-1.1
			c0.5,8.2-0.7,16.4,0.9,24.5c-1.7,4.5-0.4,9.1-0.7,13.6c-4.4-0.7-5.3,2.3-6,5.5c-1.8,7.9-0.5,15.9-1.2,23.8
			c-0.4,5.1,2.2,6.4,6.2,6.6c11.7,0.7,23.4,2.4,35.2,2.1c14.4-0.3,28.9,0.6,43.3-1c5.9-0.7,11.8-2,17.3-4.2c4.4-1.7,4.7-4.2,1.1-7.2
			c-1.8-1.5-4-2.7-7-4.6c2.2,0,3.5-0.1,4.7,0c16.4,2.1,32.8,1.1,49.2-0.1c6.4-0.5,12.8-1.7,18.9-3.7c3-1,5.6-2.3,5.2-6.1
			c11.5,1.3,22.9,2.9,34.4,3.9c15.5,1.3,31,2.3,46.6,3c21.4,0.9,42.8,2,64.2,2c41.6,0,83.1,0.8,124.7-0.7
			c14.6-0.5,29.2-1.1,43.8-1.4c6.7-0.1,13.6-0.2,20.3-0.9c18.1-1.8,36.3-2.4,54.3-4.9c9.8-1.3,19.7-2.5,29.2-5.5
			c1.9-0.6,4.9-1.1,4.9-3.6c0-2.7-2.9-3.3-5.1-4c-6-2-12.2-2.9-18.4-4c-6.6-1.2-13.5-1.1-20-3c6.4-11.4,5.3-20.2-3.9-29.4
			c-3.7-3.7-7.3-7.6-11-11.3c13.1-1.2,26.3-2.4,39.4-3.6c28.9-3.2,57.8-6.3,86.8-9.6c16.8-1.9,33.6-4.3,50.5-6.2
			c4.2-0.5,4.9-2.5,5-6.1c1.3-28.1,2.8-56.2,4.2-84.2c0.2-4.5,0.4-9,0.6-13.4c1-18.3,2.1-36.5,3.1-54.8c1.5-27.6,2.8-55.1,4.3-82.7
			c0.2-3.3-0.6-6-2.4-8.8c-13.9-21.3-27.6-42.7-41.3-64.1c0.3-0.2,0.6-0.5,0.9-0.7c12.4,17.1,24.7,34.2,37.1,51.4
			c1.8,2.5,3.7,5,6.2,8.6c0.5-7.3,0.9-13.3,1.2-19.4c1.3-24.4,2.5-48.9,3.8-73.3c0.1-2.6-1-4.5-2.1-6.5c-14.4-27-28.8-54-43.2-81
			c0.3-0.2,0.6-0.5,0.9-0.7c10.6,16.1,21.2,32.1,31.9,48.2c4.1,6.2,8.1,12.4,13.3,18.4c1.3-47.2,2.5-94.5,3.8-141.7
			c0.2,0,0.5,0,0.7,0c0,33.1,0,66.1,0,100.6c14.3-16.7,27.8-32.6,41.3-48.4C-442.6-234.4-442.2-234-441.8-233.6z"/>
		<path class="st2" d="M-678.9-7.3c-7.9,8.1-15.7,16.2-23.6,24.3c-2.7,1.9-4.9,4.4-7,6.8c-0.2,0.2-0.5,0.5-0.7,0.7
			c-19.3,19.1-38.8,38.1-57.6,57.8c-0.4,0.3-0.8,0.7-1.2,1c0,0,0.1-0.1,0.1-0.1c-0.8,0.5-1.4,1-1.1,2l0-0.1c-0.5,0.1-1.1,0-1.4,0.3
			c-12.2,12.1-24.3,24.2-36.4,36.2c-1.3,1.3-0.9,2.3-0.1,3.5c-2,1.8-3.8,3.7-5.9,5.3c-3.8,2.8-3.8,4.8-0.2,8.3
			c41.6,41.3,82.9,83,124.6,124.2c7.6,7.5,11.9,15.4,10.4,26c-10.4,13-24.4,15.3-36.6,2.2c-3.6-3.9-7.6-7.4-11.4-11.1
			c-10.4-11-21.1-21.7-32.1-32.1c-7.9-9.4-17.5-17.1-26-26c-18.8-19.8-38.5-38.7-57.6-58.1c-3-3-4.5-2.8-7.4,0.1
			c-25.8,26-51.7,51.8-77.6,77.7c-3,3.1-6,6.2-9,9.3c-9.7,9.1-19.1,18.4-28.1,28.2c-4.6,4.5-9.3,9-13.9,13.5
			c-9.6,9.4-21.6,9.5-31.5,0.3c-3.4-3.2-6.5-6.6-9.8-9.9c-3.3-8.3-4.7-16.5,1.7-24.1c2,0.4,3-1.1,4.2-2.2
			c39.8-39.8,79.6-79.6,119.4-119.4c1.1-1.1,3-2,1.7-4.1c2-2.2,3.9-4.6,6.2-6.5c3.1-2.5,2.7-4.3,0-7c-31-30.9-62-61.8-92.9-92.8
			C-991.9,15-1004,2.9-1016.1-9.3c-7.5-7.6-8.8-16.3-3.9-25.4c0.3-0.4,0.6-0.8,1-1.2c0,0-0.2-0.1-0.2-0.1c0.8-0.3,1.6-0.4,2.3-0.8
			c13.8-7.8,20.5-6.9,31.8,4.4c41.9,41.9,83.9,83.8,125.7,125.9c3.5,3.5,5.3,3.7,8.9,0.1c42.8-43.1,85.9-86.1,128.9-129
			c7.4-7.4,19.2-8.8,26.8-2.4C-685.5-30-676.5-21.5-678.9-7.3z"/>
		<path class="st3" d="M-1379,304.4c0.9-1.5,2-0.7,3-0.2c24.8,12.4,51.7,17.6,78.5,23c20.3,4.1,40.7,7.1,61.1,9.9
			c15.5,2.1,31.2,3.4,46.8,5.2c18.7,2.2,37.5,3.6,56.3,5.1c14,1.1,28.1,2,42.1,3c18,1.2,36,2.1,54.1,3c17.6,0.9,35.2,1.2,52.7,2.1
			c13,0.7,25.9,0.1,38.9,0.8c41.4,2.1,82.9,0.7,124.3,0.8c18.5,0,37.1-1.5,55.6-2.9c20.9-1.6,41.9-3.5,62.7-6
			c47.6-5.8,94.8-13.8,141.6-24.6c32.6-7.5,65-16,96.9-26.3c29.1-9.5,57.8-19.8,85.5-32.9c13.9-6.6,27.3-13.7,40-22.2
			c1.5-1,2.9-2.3,5-1.9c-7.5,7.7-16.2,14-24.9,20c-58,39.9-122.3,66.5-188.6,88.8c-57.2,19.2-115.7,33-175.3,41.9
			c-59.6,8.9-119.6,11.7-179.8,9.8c-39-1.2-77.9-3.2-116.7-6.7c-43.4-4-86.7-9.5-129.6-17.1c-50.5-8.9-100.5-19.8-149.2-35.7
			c-26.3-8.6-52.3-18-75.8-33C-1375.7,307.1-1377.9,306.4-1379,304.4z"/>
		<path class="st4" d="M-1219.1,278.6c-1.7-8.1-0.4-16.3-0.9-24.5c-0.3-25.3,0.6-50.6,1.4-76c0.4-11.4,4.9-22,7.3-33
			c3.6-16.9,7.9-33.7,9.7-50.9c0.7-7.2-2-13.8-2.3-20.8c-0.7-13.8-0.7-27.6,0-41.5c0.2-3.2-0.4-6.2-1.6-9.2
			c-4.8-13.2-9-26.5-7.9-40.8c7.5,1.6,15.1,2.5,22.5,4.2c8.7,1.9,17.3,5,19.8,15.4c0.9,3.5,2.7,6.8,6.3,8.6c1,4.3,1.9,8.5,3,13.5
			c4.2-4.2,7.6-8.1,11.5-11.2c4.9-3.9,5.4-8.2,2.4-13.3c2.4-2.6,5.9-4.5,5.9-8.8c0-1.7,1.4-1.4,2.6-1.3c10.5,0.2,20.9,0.3,31.4,0.5
			c9.9,33.5,15,68.1,22.8,102c5.2,22.8,4,44.3-3.8,66.5c-10.7,30.4-17,62.1-21.8,94c-0.1,1.1,0.2,2.4-0.2,3.4
			c-1.7,3.5,1,7.7-1.9,10.9c-12.5,3.6-25.2,3.3-38,3c-2.7-5.6,1.1-11.2,0-16.8c0.3-1.8,0.7-3.6,0.9-5.4c2.1-20.2,2.9-40.5,6.2-60.6
			c3.1-19.3,5.2-38.9,11.5-57.7c0.5-1.5,0.5-2.9-0.2-4.3c-4.2-8.8-11.6-14.4-19.3-21c-0.4,3.5-0.8,5.8-1,8.1
			c-1.6,16.6-3.7,33.1-7.2,49.4c-1.3,6.2-2.2,12.6-6.3,17.7c-2.3,2.9-3.7,5.9-4.3,9.3c-0.9,5.1-1.8,10.2-2.2,15.3
			c-1.1,13.6-2.1,27.2-2.9,40.9c-0.2,3.1-2.9,6.2-0.2,9.3c-1.6,4.6-0.1,9.6-1.2,14.1c-1.2,5,1.7,11.5-4.8,14.8
			c-9.5,1.1-19,2.8-28.7,2C-1214.2,283.8-1218.6,283.9-1219.1,278.6z"/>
		<path class="st5" d="M-1164.8,10.1c-3.6-1.8-5.4-5.1-6.3-8.6c-2.6-10.5-11.1-13.5-19.8-15.4c-7.4-1.6-15-2.6-22.5-4.2
			c-4.6-2.2-6.1-5.7-4.6-10.6c0.7-2.5,0.5-5.4,1.5-7.8c2.7-6.4,1.3-11.4-2.9-16.9c-5.1-6.7-9-14.4-13.5-21.5
			c-2.4-3.8-2.7-7.6-1.4-11.9c4.7-15.6,9.1-31.3,14.1-46.8c2-6.4,2.8-12.6,2-19.1c-1.7-15,0-29.4,6.7-43.2
			c5.3-10.9,10-22.1,16.5-32.4c1.3-2.1,2.7-4.2,4.2-6.2c6.7-9.1,7.4-9.4,17.9-6.9c7.9,3.7,15.8,7.6,22.3,13.7
			c2.3,2.2,4.6,4.3,7.4,5.8c3.8,2,7.3,2.2,10-1.7c1.7,2.2,3.4,4.5,5.2,6.7c6.3,7.7,9,16.5,10.3,26.5c2.9,23,4.6,46,4,69.2
			c-0.2,9,4.8,17.2,7.3,25.8c0.2,0.8,1.4,1.4,2.2,2c15,9.7,30,19.1,46,27.2c5.3,2.7,10.7,4.4,16.8,3.9c3.8-0.4,7.6,0.4,11.3,1.8
			c3.5,1.3,6,3.5,6.6,7.4c-0.9,4.9-1.9,9.9-2.8,14.8c-0.2,1.1-0.4,2.3-0.7,3.4c-1.9,6.9-5.3,8.4-11.9,5.3c-3.1-1.5-6.2-3.2-9.3-4.7
			c-2.3-1-4.9-1.8-7.2-0.4c-4.6,2.8-9.4,2.3-14.4,1.7c-11.2-1.5-22-4.7-32.9-7.6c-2.4-0.6-5.8-3.3-7.2-1.2c-1.6,2.4,0.4,6,1.7,8.9
			c0.8,1.9,2.7,2.9,4.2,4.2c3.9,3.2,7.8,6.3,10.5,10.5c2.3,3.7,1.4,5.7-2.7,7.1c-3.7,1.2-7.6,0.5-11.4,0.9
			c-10.5-0.2-20.9-0.3-31.4-0.5c-1.2,0-2.6-0.4-2.6,1.3c0,4.3-3.5,6.1-5.9,8.8c-1.7,1.3-3.4,2.6-5,4
			C-1156.4,6.2-1159.6,9.8-1164.8,10.1z M-1180.6-84.6c0.8-1.5,1.2-2.2,1.5-3c7-19,14.3-37.8,20.9-56.9c3.8-11,9.1-21.8,7-34.3
			c-1.7,2.7-1.5,5.8-2.3,8.6c-7.5,25.5-17,50.2-26.5,75C-1181.3-92.1-1183.1-89-1180.6-84.6z"/>
		<path class="st6" d="M-1244.1,255.2c-10.6,18.9-26.9,29.3-48.1,32.6c-6.1,1-12.2,1.5-18.3,1.5c-3.7,0-4-1.7-2.7-4.3
			c1.9-3.7,4.2-7.1,6.4-10.7c3.1-4.1,6.5-8,7.9-13.1c0.6,0,1,0,0.5-0.7c-0.2,0.3-0.3,0.5-0.4,0.8c-3.7,3.5-6.2,7.8-8.9,12
			c-1.4,1.8-2.9,3.6-4.3,5.4c-0.3-0.2-0.8-0.4-0.8-0.6c0-14.1,0.1-28.3,0.2-42.4c0-1.9,0.9-3.5,1.8-5.1c4.3-7.7,8.5-15.4,12.7-23.2
			c0.5-0.9,1.5-1.9,0.4-4.2c-4.6,7.2-8.9,13.9-13.1,20.6c-0.6-7.3-2.5-14.5,0.5-21.6c1.4-3.4,3.2-6.6,4.8-9.9
			c2.9-3.8,4.6-8.2,6.3-12.7c-2.9,3.7-5.9,7.3-7.1,11.9c-2.4,1.3-2.5,4.5-5.4,6.4c0.3-12.2-0.3-23.9,0.8-35.5c0.3-3.5,3.3-5.7,5-8.4
			c2.3-3.6,4.8-7.2,7.2-10.7c1.3-0.8,2-2.1,2.3-3.6c1-0.5,1.7-1.2,1.7-2.4c0.3-0.2,1.1-0.1,0.3-0.7c-0.1,0.3-0.2,0.5-0.3,0.8
			c-1.3-0.1-1.8,0.8-2.1,1.9c-1.3,0.8-2.2,1.8-2.8,3.2c-4.1,3.7-6.8,8.8-11.2,12.2c0-14,0-28.1,0-42.1c0,14.3-2.3,28.6-1.6,42.9
			c0,5.7,0,11.4,0,17.1c-0.4,0.1-0.8,0.2-1.3,0.2c-4.3-6.2-8.5-12.4-12.8-18.6c-0.3-0.4-0.6-0.8-0.8-1.2c-0.4-0.6-0.8-1.2-1.2-1.8
			c-0.1-0.8-0.3-1.6-1.2-1.8c-0.1-0.2-0.2-0.5-0.3-0.7c-0.1,0.2-0.2,0.3-0.3,0.5c0.2,0.1,0.5,0.1,0.7,0.2c-0.3,0.9-0.1,1.7,0.8,2.2
			c0.3,0.7,0.7,1.4,1,2c0.2,0.4,0.5,0.8,0.7,1.2c2.2,6.1,5.5,11.7,8.9,17.2c3.8,6.2,5.3,12.6,4.6,19.8c-0.9,9.9-1.2,19.8-1.8,30.9
			c-2.6-3.4-4.5-5.9-6.4-8.3c-2-3.2-3.8-6.6-6.7-9.1c-0.2-1.3-0.8-2.3-2.1-2.9c-0.2-0.2,0-1.2-0.7-0.4c0.3,0.1,0.5,0.2,0.8,0.3
			c-0.2,1.5,0.2,2.7,1.8,3.2c0.9,4,3.7,6.9,6,10c0,0.2,0,0.4,0.1,0.5c8.4,8.8,6.9,19.2,5.4,29.9c-1.6,12-2.5,24.1-3.5,36.2
			c-0.6,6.6-1.1,6.9-7.6,5.9c-14.5-2.3-27.2-8.3-38.2-18.1c-15.2-17.6-19.4-38.6-18.2-61c0.9-16.1,6.9-30.8,14.3-44.8
			c15.1-28.3,35.3-52.8,57.5-75.8c1.7-1.7,2.8-2.2,4.8-0.2c24.2,24.8,45.8,51.5,61.2,82.8C-1233.5,198.4-1232.1,226.6-1244.1,255.2z
			 M-1292.9,134.2c0.1,0,0.3-0.1,0.4-0.1c0.1,0,0.1-0.2,0.1-0.3C-1292.6,134-1292.7,134.1-1292.9,134.2c-0.1,0.1-0.2,0.2-0.3,0.3
			c-0.1,0.1,0,0.2-0.1,0.3C-1293.2,134.6-1293.1,134.4-1292.9,134.2z M-1296.9,175.2c0.5-0.3,1.3-0.6,0.4-1.3
			C-1296.7,174.4-1296.8,174.8-1296.9,175.2c-0.2,0.2-0.9,0.1-0.3,0.8C-1297.2,175.7-1297,175.5-1296.9,175.2z M-1290.9,193.3
			c0.9-0.3,1.3-1,1.3-1.9c0-0.1-0.6-0.4-0.7-0.3C-1291.1,191.6-1291.1,192.4-1290.9,193.3c-0.8-0.1-1,0.3-1.1,0.9
			c-2.3,2.6-4.5,5.2-5.1,9.9c3-3.4,4.6-6.2,5.3-9.6C-1291.5,194.1-1291.2,193.7-1290.9,193.3z M-1298.1,177.8
			c-0.1-0.1-0.2-0.2-0.2-0.4c-0.1,0.1-0.2,0.2-0.3,0.3c0,0.1,0.1,0.2,0.2,0.3C-1298.3,178-1298.2,177.9-1298.1,177.8z"/>
		<path class="st6" d="M-709.6,23.8c2.2-2.4,4.3-4.9,7-6.8c23.2,24.4,44.6,50.3,61.4,79.6c10.4,18.1,19.6,37,21.4,58
			c2.6,29.4-1.6,57.2-23.7,79.4c-2,2-4.1,3.8-6.2,5.7c-13.1,1.2-26.3,2.4-39.4,3.6c-4-3.4-7.7-7.1-11.1-11.1
			c2.2-3.1,4.5-6.1,6.2-10.8c-3.8,3.2-5.3,6.8-7.8,9.5c-3.3-3.3-6.5-6.6-9.8-9.9c0.1-9.4,0.3-18.9,0.4-28.3c0-2.2,0.3-4.2,1.4-6.2
			c7.8-14,15.6-28.1,23.2-42.2c1.4-2.6,3.5-4.9,3.6-8.5c0.1-0.1-0.1,0.1-0.2,0.4c0.1,0,0.4,0.1,0.4,0c0.1-0.2,0.2-0.4,0.2-0.6
			c0,0-0.2-0.1-0.4,0.3c-6.9,9-11.9,18.8-17.9,27.9c-3.2,4.9-6.3,9.9-9.5,15c0-6.8,0.1-13,0-19.1c-0.1-3.6,0.8-6.8,2.4-10
			c4.4-8.7,9.8-17,13.2-26.2c0.1-0.3,0.3-0.7,0.4-1c-0.3,0.2-0.5,0.4-0.8,0.6c-4.7,7.5-9.5,15-14.6,23.1c0-13.1,0.1-25.3,0-37.5
			c0-5.3,1.9-9.5,5.1-13.6c4.2-5.5,8.1-11.4,12.1-17.1c0.6-0.9,2.1-1.8,0.8-3.7c-5.5,6.4-11,12.6-17.3,19.9
			C-709.4,69.7-708.7,46.7-709.6,23.8z M-680.8,133.5c-0.2-0.2-0.4-0.3-0.6-0.5c0,0-0.3,0.2-0.3,0.3c0,0.3,0.2,0.5,0.3,0.8
			C-681.2,133.9-681,133.7-680.8,133.5z M-692.7,220.7c-0.1-0.3-0.2-0.6-0.2-0.9c-0.3,0.1-0.7,0.2-0.8,0.4c-0.1,0.2,0.1,0.6,0.2,0.9
			C-693.2,221-693,220.9-692.7,220.7z M-693.2,120.8c-0.1-0.1-0.2-0.2-0.2-0.4c-0.1,0.1-0.3,0.2-0.3,0.3c0,0.1,0.1,0.2,0.2,0.3
			C-693.4,121-693.3,120.9-693.2,120.8z"/>
		<path class="st4" d="M-1164.1-253.8c-3.8-11-7.2-22.1-9.3-33.6c-1.1-6-1.6-11.9,3.1-16.9c1.5-1.5,1.6-3.6,1.5-5.6
			c-0.4-7.6,3.7-12.1,10.3-14.8c2-0.8,4.1-1.5,6.2-2c8.2-1.6,15.4-5.2,21.7-10.7c2.5-2.2,5.4-3.9,8.5-5.1c5.3-2,10.3-1.6,14.3,2.5
			c4.9,4.9,10.7,7.5,17.5,8.8c8.4,1.6,15.9,5.5,22.9,10.6c5.9,4.2,7.6,9.8,6.1,16.6c-1.2,5.8-3.2,11.6-1.6,18.4
			c-4.1-3-7.6-5.7-11.1-8.3c-10.2-7.7-17-5.7-21,6.1c-1.5,4.5-2.4,9.8-8,11.2c-6,1.4-8.4-3.8-11.4-7.3c-5.4-6.2-12.8-6.2-17.8,0.4
			c-1.4,1.8-2.7,3.9-3.3,6.1c-3.5,12-14.5,17.3-22.3,25.4C-1160.4-249.4-1162.8-250.3-1164.1-253.8z"/>
		<path class="st7" d="M-678.9-7.3c2.4-14.2-6.6-22.7-16-30.6c-7.6-6.4-19.4-5.1-26.8,2.4c-43,43-86,85.9-128.9,129
			c-3.6,3.7-5.4,3.5-8.9-0.1c-41.8-42.1-83.8-83.9-125.7-125.9c-11.2-11.2-18-12.2-31.8-4.4c-0.7,0.4-1.6,0.5-2.3,0.8
			c0-0.5,0.1-1,0.1-1.6c5.7-4.3,9.7-10.6,16.1-14.1c10.5-3.1,18.8-0.1,26.5,7.7c42,42.3,84.3,84.3,126.3,126.6
			c3.2,3.2,4.6,2.9,7.6-0.1c42-42.3,84.2-84.4,126.4-126.5c12.4-12.4,23.5-12.4,35.8-0.1c0.9,0.9,1.9,1.9,2.8,2.8
			C-666.9-30.3-667.4-17.6-678.9-7.3z"/>
		<path class="st8" d="M-1164.1-253.8c1.3,3.6,3.7,4.4,6.4,1.7c7.8-8.1,18.8-13.4,22.3-25.4c0.6-2.2,1.9-4.3,3.3-6.1
			c5-6.6,12.4-6.5,17.8-0.4c3,3.5,5.4,8.8,11.4,7.3c5.6-1.4,6.4-6.7,8-11.2c4-11.8,10.8-13.8,21-6.1c1.1,7.1,1.6,14.1-0.5,21.2
			c-5.3,18.4-21.5,30.1-41.2,29.1c-4.5-0.2-7,1-9.1,4.8c-2.8,5.1-6.3,9.7-8.5,15.2c-2.8,3.9-6.3,3.7-10,1.7
			c-2.8-1.5-5.1-3.6-7.4-5.8c-6.5-6.1-14.3-9.9-22.3-13.7C-1170.1-245.6-1167.1-249.7-1164.1-253.8z"/>
		<path class="st8" d="M-1003-51.6c-6.5,3.4-10.4,9.7-16.1,14.1c-2.5-0.4-5-0.8-7.5-1.1c0.9-4.9,1.9-9.9,2.8-14.8
			C-1016.9-52.8-1009.9-52.9-1003-51.6z"/>
		<path class="st8" d="M-483.6-290.3c-3-16.4,1-32.7-0.1-49.1C-482.9-323-483.4-306.6-483.6-290.3z"/>
		<path class="st9" d="M-451.3-139.4c-0.6-0.1-1.1-0.2-1.7-0.3c3.1-5.4,6.2-10.8,9.3-16.2c0.3,0.2,0.6,0.3,0.9,0.5
			C-445.6-150-448.4-144.7-451.3-139.4z"/>
		<path class="st8" d="M-428.8-113.6c-0.4-0.4-0.7-0.8-1.1-1.1c2.4-4.1,4.8-8.1,7.2-12.2c0.4,0.2,0.8,0.4,1.2,0.7
			C-423.9-122.1-426.3-117.9-428.8-113.6z"/>
		<path class="st8" d="M-446.9,43.2c2.6-4.3,5.3-8.4,8.7-12c0.2,0.1,0.3,0.3,0.4,0.5c-2.1,4.6-5,8.7-8.1,12.7
			C-446.2,43.9-446.6,43.6-446.9,43.2z"/>
		<path class="st8" d="M-545.6-102c2.9,3.1,5.3,6.6,7.4,10.3c-0.3,0.3-0.7,0.7-1,1c-2.8-3.3-5.1-6.9-7-10.8
			C-546-101.7-545.8-101.9-545.6-102z"/>
		<path class="st8" d="M-441.8-233.6c-0.4-0.4-0.8-0.7-1.1-1.1c1.5-2.4,3.2-4.5,5.4-6.3c0.2,0.2,0.4,0.3,0.6,0.5
			C-438.2-238-439.8-235.6-441.8-233.6z"/>
		<path class="st8" d="M-437.6-241.1c0.5-0.5,1-1.1,1.5-1.6c0,0,0,0,0,0c0.3,0.9,0,1.6-0.9,2.1
			C-437.2-240.7-437.4-240.9-437.6-241.1z"/>
		<path class="st8" d="M-437.3,30c0.3-0.4,0.6-0.9,0.9-1.3c0.1,0.1,0.3,0.3,0.3,0.3c-0.3,0.5-0.6,0.9-0.8,1.4L-437.3,30z"/>
		<path class="st1" d="M-536.7-214c0.2-0.2,0.4-0.5,0.7-0.5c0.2,0,0.7,0.2,0.7,0.4c0.1,0.4,0.1,1-0.6,0.7
			C-536.2-213.6-536.5-213.8-536.7-214z"/>
		<path class="st8" d="M-547-103.8c0.5,0.6,0.9,1.2,1.4,1.7c-0.2,0.1-0.4,0.3-0.6,0.5c-0.8-0.4-1-1.1-1.1-1.9
			C-547.3-103.5-547-103.8-547-103.8z"/>
		<path class="st1" d="M-446.9,43.2c0.4,0.4,0.7,0.7,1.1,1.1c-0.4,0-0.7,0.8-1,0.1C-447.1,44-447,43.6-446.9,43.2z"/>
		<path class="st8" d="M-437,30.4c-0.3,0.4-0.5,0.8-0.8,1.2c-0.1-0.2-0.3-0.3-0.4-0.5c0.3-0.4,0.6-0.8,0.9-1.1
			C-437.3,30-437,30.4-437,30.4z"/>
		<path class="st8" d="M-436.1-242.7c0.1-0.2,0.3-0.5,0.4-0.7c0.1,0.2,0.2,0.3,0.3,0.5C-435.6-242.8-435.8-242.7-436.1-242.7
			C-436.1-242.7-436.1-242.7-436.1-242.7z"/>
		<path class="st1" d="M-539.2-90.7c0.3-0.3,0.7-0.7,1-1c0.2,0.2,0.4,0.5,0.4,0.9c-0.3,0.2-0.6,0.5-0.9,0.7
			C-539-90.3-539.2-90.5-539.2-90.7z"/>
		<path class="st8" d="M-547.3-103.5c-0.5-0.2-0.9-0.7-0.4-1c0.5-0.4,0.6,0.3,0.7,0.7C-547-103.8-547.3-103.5-547.3-103.5z"/>
		<path class="st1" d="M-534.7-211.2c-0.3-0.5-0.8-1.1,0-1.6c0.1,0,0.6,0.6,0.8,0.9C-534.2-211.6-534.5-211.4-534.7-211.2z"/>
		<path class="st10" d="M-1020,283.2c3.3,3.3,6.4,6.7,9.8,9.9c9.8,9.2,21.8,9,31.5-0.3c4.6-4.5,9.3-9,13.9-13.5
			c11.1-0.5,22.2-0.1,33.3-0.8c17.7-1.1,35.5-0.4,53.2-1c22-0.8,44.2-0.5,66.2,0.7c13.4,0.8,26.8,0.1,40.3,0.7
			c14.9,0.6,29.8,1.8,44.8,1.3c3.8,3.7,7.8,7.2,11.4,11.1c12.2,13.2,26.2,10.9,36.6-2.2c2.3-1,3.2-3.4,5-4.9c6.5,1.9,13.4,1.7,20,3
			c6.2,1.2,12.4,2.1,18.4,4c2.2,0.7,5.1,1.4,5.1,4c0,2.5-3,3-4.9,3.6c-9.5,3-19.4,4.1-29.2,5.5c-18,2.4-36.2,3.1-54.3,4.9
			c-6.7,0.7-13.6,0.7-20.3,0.9c-14.6,0.3-29.2,0.9-43.8,1.4c-41.6,1.5-83.2,0.7-124.7,0.7c-21.4,0-42.8-1-64.2-2
			c-15.5-0.7-31.1-1.7-46.6-3c-11.5-1-23-2.6-34.4-3.9c-1-2.1-3-2.9-4.8-4c-5.3-3.3-11.8-4-17.2-7c0.4-0.9,1.1-1.7,2.2-1.9
			C-1055.4,286.6-1037.7,284.7-1020,283.2z"/>
		<path class="st4" d="M-1075,292.2c5.4,3.1,11.8,3.7,17.2,7c1.8,1.1,3.9,1.9,4.8,4c0.5,3.9-2.2,5.2-5.2,6.1
			c-6.2,2-12.5,3.3-18.9,3.7c-16.4,1.2-32.8,2.2-49.2,0.1c-1.2-0.2-2.5,0-4.7,0c3,1.9,5.2,3,7,4.6c3.6,3,3.3,5.5-1.1,7.2
			c-5.6,2.2-11.4,3.5-17.3,4.2c-14.4,1.6-28.9,0.7-43.3,1c-11.8,0.3-23.5-1.4-35.2-2.1c-4-0.2-6.7-1.5-6.2-6.6
			c0.7-7.9-0.6-15.9,1.2-23.8c0.7-3.3,1.7-6.2,6-5.5c5.3,0.9,9,4.6,13.3,7.3c7.1,4.6,12.5,3.8,18.1-2.5c3.3-3.8,6.1-7.9,7.4-12.8
			c2-1.1,3.4,0,4.8,1.2c4.5,3.8,9,7.7,13.5,11.5c1.1,0.9,2.4,2.3,3.9,1.6c1.5-0.6,0.8-2.4,0.8-3.6c0.1-4.6-0.1-9.2,1-13.8
			c0.8-3.2,1.8-6.1,5.9-6c5.2,1.8,9.5,4.9,14,8.1c4,2.9,8.7,4.3,13,1.1c5.5-4.1,10.2-9,11.6-16.2c2.5-1.7,4.4,0,6.1,1.4
			c5.4,4.5,10.6,9.3,16.1,13.7C-1085.6,287-1082,292.7-1075,292.2z"/>
		<path class="st7" d="M-674.1,284.2c-1.8,1.5-2.7,3.9-5,4.9c1.6-10.7-2.8-18.6-10.4-26c-41.7-41.2-83-82.9-124.6-124.2
			c-3.6-3.5-3.5-5.5,0.2-8.3c2.1-1.6,4-3.5,5.9-5.3c4.5,4.3,9,8.6,13.5,12.8c17.4,17.5,34.7,34.9,52.1,52.4c8,8,16.1,15.9,24.1,23.8
			c2.3,2.3,4.5,4.6,6.8,6.9c3.3,3.3,6.5,6.6,9.8,9.9c0.5,0.4,1,0.9,1.5,1.3c3.4,4,7.1,7.7,11.1,11.1c3.7,3.8,7.3,7.6,11,11.3
			C-668.8,264.1-667.6,272.8-674.1,284.2z"/>
		<path class="st8" d="M-1181,284.3c-1.3,4.9-4.1,9-7.4,12.8c-5.6,6.3-10.9,7-18.1,2.5c-4.3-2.7-8-6.5-13.3-7.3
			c0.3-4.5-1-9.1,0.7-13.6c0.5,5.4,4.9,5.3,8.5,5.6c9.6,0.8,19.1-0.9,28.7-2C-1181.6,282.9-1181.3,283.6-1181,284.3z"/>
		<path class="st9" d="M-1312.6,155.3c-0.7-14.3,1.6-28.6,1.6-42.9c0,14,0,28.1,0,42.1C-1311.6,154.8-1312.1,155-1312.6,155.3z"/>
		<path class="st9" d="M-1298.9,261.2c-1.4,5.1-4.8,9-7.9,13.1c-0.3-0.4-0.6-0.7-0.9-1.1C-1305.1,269-1302.6,264.7-1298.9,261.2
			L-1298.9,261.2z"/>
		<path class="st9" d="M-1323,215.4c-2.4-3.1-5.1-6-6-10l0.2-0.2c2.9,2.5,4.7,5.9,6.7,9.1C-1322.4,214.7-1322.7,215-1323,215.4z"/>
		<path class="st9" d="M-1299.8,142.3c0.6-1.4,1.5-2.4,2.8-3.2c0.2,0.2,0.3,0.3,0.4,0.5c-0.3,1.5-1,2.8-2.3,3.6
			C-1299.2,143-1299.5,142.6-1299.8,142.3z"/>
		<path class="st6" d="M-718.2,214.2c-8.1-7.9-16.2-15.8-24.1-23.8c-17.4-17.4-34.7-34.9-52.1-52.4c3.8-13.8,9.8-26.6,16.8-39.1
			c2.5-4.6,5.1-9.2,7.7-13.8l0,0.1c1-0.3,1.2-1.1,1.1-2c0,0-0.1,0.1-0.1,0.1c0.4-0.3,0.8-0.7,1.2-1c18.8-19.7,38.2-38.7,57.6-57.8
			c0.2,1.3,0.6,2.6,0.6,3.9c-0.5,22.9-0.9,45.9-1.5,68.8c-0.2,6-0.6,12.1-1,19.3c-7.7-11.7-14.7-22.5-21.7-33.2
			c0.3,3,1.5,5.4,2.8,7.8c5.8,10.8,11.6,21.7,17.4,32.5c0.9,1.6,1.6,3.2,1.5,5.2c-0.7,11.6-1.2,23.2-1.9,34.8
			c-0.2,3.6-0.7,7.3-1.1,11.8c-1.8-2.5-3-4.1-4.2-5.7c-5-6.4-8.9-13.6-14.6-19.5c0-0.6-0.3-1-1-1c0.1-0.9-0.1-1.6-1-2
			c-0.2-0.2,0.1-1.2-0.7-0.4c0.3,0.1,0.5,0.2,0.8,0.3c-0.2,0.9,0,1.7,1,2c0,0.6,0.3,1,1,1c-0.3,1.9,1,3.1,1.9,4.4
			c4.9,7.7,9.8,15.4,14.9,22.9c1.8,2.7,2.3,5.3,2,8.4C-716.3,195.4-717.2,204.8-718.2,214.2z M-735.7,81.8l0.3,0.2l0-0.3
			L-735.7,81.8z"/>
		<path class="st1" d="M-936.7,251.1c48.2,0.3,96.5,0.7,144.7-1.4c11-0.5,21.9-1.1,32.9-1.6c11,10.4,21.7,21.1,32.1,32.1
			c-14.9,0.5-29.9-0.7-44.8-1.3c-13.4-0.6-26.9,0-40.3-0.7c-22.1-1.2-44.2-1.6-66.2-0.7c-17.8,0.7-35.5-0.1-53.2,1
			c-11.1,0.7-22.2,0.3-33.3,0.8C-955.8,269.5-946.4,260.2-936.7,251.1z"/>
		<path class="st1" d="M-1110.8,251.9c33-0.2,65.9-0.3,98.9-0.5c-1.6,3-5.1,4.4-6.3,7.7c-6.5,7.6-5,15.8-1.7,24.1
			c-17.7,1.4-35.4,3.4-52.8,7.1c-1,0.2-1.7,0.9-2.2,1.9c-7.1,0.5-10.6-5.2-15.3-8.9c-5.5-4.4-10.7-9.2-16.1-13.7
			c-1.7-1.4-3.6-3.1-6.1-1.4c-0.2-0.7-0.3-1.4-0.5-2c2.9-3.2,0.3-7.4,1.9-10.9C-1110.6,254.3-1110.8,253-1110.8,251.9z"/>
		<path class="st9" d="M-718.2,214.2c1-9.4,1.9-18.8,3-28.2c0.3-3.1-0.2-5.7-2-8.4c-5.1-7.5-10-15.3-14.9-22.9
			c-0.9-1.4-2.2-2.5-1.9-4.4l0,0c5.7,5.9,9.6,13.1,14.6,19.5c1.2,1.6,2.4,3.2,4.2,5.7c0.4-4.5,0.9-8.1,1.1-11.8
			c0.7-11.6,1.2-23.2,1.9-34.8c0.1-2-0.6-3.5-1.5-5.2c-5.8-10.8-11.6-21.7-17.4-32.5c-1.3-2.4-2.5-4.8-2.8-7.8
			c7,10.8,14.1,21.5,21.7,33.2c0.4-7.2,0.9-13.2,1-19.3c0.6-22.9,1.1-45.9,1.5-68.8c0-1.3-0.4-2.6-0.6-3.9c0.2-0.2,0.5-0.5,0.7-0.7
			c0.9,22.9,0.2,45.8,0.4,70.3c6.3-7.3,11.7-13.5,17.3-19.9c1.3,1.9-0.1,2.8-0.8,3.7c-3.9,5.8-7.8,11.6-12.1,17.1
			c-3.1,4.1-5.1,8.4-5.1,13.6c0.1,12.2,0,24.4,0,37.5c5.1-8.1,9.9-15.6,14.6-23.1c0.1,0.1,0.3,0.3,0.4,0.4
			c-3.4,9.2-8.7,17.5-13.2,26.2c-1.6,3.2-2.5,6.4-2.4,10c0.2,6.1,0,12.3,0,19.1c3.3-5.2,6.3-10.1,9.5-15c6-9.1,11-18.9,17.7-27.6
			c0.1,3.2-2,5.5-3.4,8.1c-7.6,14.1-15.4,28.2-23.2,42.2c-1.1,2-1.3,4-1.4,6.2c-0.1,9.4-0.2,18.9-0.4,28.3
			C-713.7,218.8-715.9,216.5-718.2,214.2z"/>
		<path class="st7" d="M-1018.3,259.1c1.3-3.3,4.7-4.7,6.3-7.7c1.5-1.3,3-2.6,4.4-4c36.8-36.8,73.6-73.6,110.5-110.4
			c1.3-1.3,2.7-2.4,4.1-3.6c1.3,2.1-0.6,3-1.7,4.1c-39.8,39.8-79.6,79.6-119.4,119.4C-1015.2,258-1016.3,259.5-1018.3,259.1z"/>
		<path class="st11" d="M-767.8,82.3c-0.4,0.3-0.8,0.7-1.2,1C-768.6,83-768.2,82.7-767.8,82.3z"/>
		<path class="st12" d="M-1020-34.7c0.3-0.4,0.6-0.8,1-1.2C-1019.4-35.5-1019.7-35.1-1020-34.7z"/>
		<path class="st1" d="M-1176,253.3c8.3-0.3,16.7-0.6,25-0.9c1.1,5.6-2.7,11.2,0,16.8c0,2,0,4-0.1,6.1c-4.1-0.1-5.1,2.8-5.9,6
			c-1.2,4.5-1,9.1-1,13.8c0,1.2,0.7,3-0.8,3.6c-1.5,0.6-2.7-0.7-3.9-1.6c-4.5-3.8-9-7.7-13.5-11.5c-1.4-1.2-2.8-2.4-4.8-1.2
			c-0.3-0.7-0.6-1.4-0.9-2.1c6.5-3.3,3.6-9.8,4.8-14.8C-1176.1,262.9-1177.6,257.9-1176,253.3z"/>
		<path class="st8" d="M-1151,275.3c0-2,0-4,0.1-6.1c12.8,0.4,25.5,0.6,38-3c0.2,0.7,0.3,1.4,0.5,2c-1.4,7.2-6.2,12.1-11.6,16.2
			c-4.2,3.2-9,1.8-13-1.1C-1141.5,280.2-1145.8,277-1151,275.3z"/>
		<path class="st8" d="M-1164.8,10.1c5.2-0.3,8.4-3.9,11.9-7.1c1.6-1.4,3.3-2.7,5-4c3.1,5.1,2.5,9.3-2.4,13.3
			c-3.9,3.2-7.3,7.1-11.5,11.2C-1162.9,18.6-1163.9,14.4-1164.8,10.1z"/>
		<path class="st5" d="M-1180.6-84.6c-2.5-4.3-0.7-7.5,0.5-10.7c9.5-24.7,19.1-49.5,26.5-75c0.8-2.8,0.6-5.9,2.3-8.6
			c2.1,12.5-3.2,23.3-7,34.3c-6.5,19.1-13.9,38-20.9,56.9C-1179.4-86.8-1179.8-86.1-1180.6-84.6z"/>
		<path class="st9" d="M-1306.5,191.6c1.2-4.6,4.2-8.2,7.1-11.9c-1.7,4.4-3.4,8.8-6.3,12.7C-1306,192.1-1306.3,191.8-1306.5,191.6z"
			/>
		<path class="st9" d="M-1291.7,194.5c-0.7,3.4-2.3,6.3-5.3,9.6c0.5-4.7,2.8-7.3,5.1-9.9C-1292,194.2-1291.7,194.5-1291.7,194.5z"/>
		<path class="st9" d="M-1291,193.2c-0.1-0.8-0.1-1.6,0.7-2.2c0.1-0.1,0.7,0.2,0.7,0.3C-1289.6,192.3-1290,192.9-1291,193.2
			L-1291,193.2z"/>
		<path class="st9" d="M-1329,205.4c-1.6-0.5-2-1.6-1.8-3.2l-0.1,0.1c1.2,0.6,1.9,1.6,2.1,2.9C-1328.9,205.2-1329,205.4-1329,205.4z
			"/>
		<path class="st9" d="M-1297,139.2c0.3-1,0.8-2,2.1-1.9l0,0c0,1.2-0.7,1.9-1.7,2.4C-1296.7,139.5-1296.9,139.3-1297,139.2z"/>
		<path class="st9" d="M-1296.9,175.3c0.1-0.5,0.2-0.9,0.3-1.4C-1295.7,174.6-1296.5,174.9-1296.9,175.3L-1296.9,175.3z"/>
		<path class="st1" d="M-1329.9,149.3c0.9,0.3,1.1,1,1.2,1.8c-0.1,0.1-0.3,0.2-0.4,0.3C-1330,150.9-1330.1,150.1-1329.9,149.3
			L-1329.9,149.3z"/>
		<path class="st1" d="M-1328.1,153.5c-0.3-0.7-0.7-1.4-1-2c0.1-0.1,0.3-0.2,0.4-0.3c0.4,0.6,0.8,1.2,1.2,1.8
			C-1327.7,153.1-1327.9,153.3-1328.1,153.5z"/>
		<path class="st1" d="M-1329.9,149.2c-0.2-0.1-0.5-0.1-0.7-0.2c0.1-0.2,0.2-0.3,0.3-0.5C-1330.2,148.8-1330,149-1329.9,149.2
			C-1329.9,149.3-1329.9,149.2-1329.9,149.2z"/>
		<path class="st1" d="M-1327.4,154.7c-0.2-0.4-0.5-0.8-0.7-1.2c0.2-0.2,0.4-0.4,0.6-0.6c0.3,0.4,0.6,0.8,0.8,1.2
			C-1326.9,154.3-1327.1,154.5-1327.4,154.7z"/>
		<path class="st9" d="M-1290.9,193.3c-0.3,0.4-0.6,0.8-0.8,1.2c0,0-0.3-0.3-0.3-0.3C-1291.9,193.6-1291.7,193.1-1290.9,193.3
			C-1291,193.2-1290.9,193.3-1290.9,193.3z"/>
		<path class="st9" d="M-1296.9,175.2c-0.1,0.3-0.2,0.5-0.3,0.8C-1297.9,175.3-1297.2,175.4-1296.9,175.2
			C-1296.9,175.3-1296.9,175.2-1296.9,175.2z"/>
		<path class="st9" d="M-1330.9,202.2c-0.3-0.1-0.5-0.2-0.8-0.3C-1330.9,201.1-1331.1,202-1330.9,202.2
			C-1330.9,202.3-1330.9,202.2-1330.9,202.2z"/>
		<path class="st9" d="M-1292.9,134.3c0.1-0.2,0.3-0.3,0.4-0.5c0,0.1,0,0.2-0.1,0.3C-1292.7,134.2-1292.8,134.2-1292.9,134.3
			L-1292.9,134.3z"/>
		<path class="st9" d="M-1292.9,134.2c-0.1,0.2-0.3,0.4-0.4,0.6c0-0.1,0-0.2,0.1-0.3C-1293.2,134.4-1293,134.3-1292.9,134.2
			C-1292.9,134.3-1292.9,134.2-1292.9,134.2z"/>
		<path class="st9" d="M-1294.9,137.3c0.1-0.3,0.2-0.5,0.3-0.8C-1293.9,137.1-1294.6,137.1-1294.9,137.3
			C-1294.9,137.3-1294.9,137.3-1294.9,137.3z"/>
		<path class="st9" d="M-1298.9,261.3c0.1-0.3,0.3-0.5,0.4-0.8C-1297.9,261.2-1298.4,261.2-1298.9,261.3
			C-1298.9,261.2-1298.9,261.3-1298.9,261.3z"/>
		<path class="st9" d="M-1298.1,177.8c-0.1,0.1-0.2,0.2-0.3,0.3c-0.1-0.1-0.2-0.2-0.2-0.3c0-0.1,0.2-0.2,0.3-0.3
			C-1298.3,177.6-1298.2,177.7-1298.1,177.8z"/>
		<path class="st9" d="M-700.1,232.3c-0.5-0.4-1-0.9-1.5-1.3c2.5-2.8,4-6.3,7.8-9.5C-695.6,226.1-697.9,229.2-700.1,232.3z"/>
		<path class="st9" d="M-680.8,133.5c-0.2,0.2-0.4,0.4-0.6,0.6c-0.1-0.3-0.2-0.5-0.3-0.8c0-0.1,0.3-0.3,0.3-0.3
			C-681.2,133.1-681,133.3-680.8,133.5z"/>
		<path class="st9" d="M-692.7,220.7c-0.3,0.1-0.6,0.3-0.8,0.4c-0.1-0.3-0.3-0.7-0.2-0.9c0.1-0.2,0.5-0.3,0.8-0.4
			C-692.8,220.2-692.8,220.4-692.7,220.7z"/>
		<path class="st9" d="M-693.2,120.8c-0.1,0.1-0.2,0.2-0.3,0.3c-0.1-0.1-0.2-0.2-0.2-0.3c0-0.1,0.2-0.2,0.3-0.3
			C-693.4,120.6-693.3,120.7-693.2,120.8z"/>
		<path class="st9" d="M-682.7,135.5c0.1,0,0.3,0.1,0.3,0.1c0,0.2-0.1,0.4-0.2,0.6c0,0.1-0.3,0-0.4,0
			C-682.9,136-682.8,135.8-682.7,135.5z"/>
		<path class="st9" d="M-695.1,123.1c0.3-0.2,0.5-0.4,0.8-0.6c-0.1,0.3-0.3,0.7-0.4,1C-694.9,123.4-695,123.3-695.1,123.1z"/>
		<path class="st9" d="M-735,149.3c-1-0.4-1.1-1.1-1-2l-0.1,0.1C-735.1,147.6-734.9,148.4-735,149.3C-735,149.3-735,149.3-735,149.3
			z"/>
		<polygon class="st9" points="-735.7,81.8 -735.4,81.6 -735.5,82 		"/>
		<path class="st9" d="M-734,150.3c-0.7,0-1-0.4-1-1c0,0,0,0,0,0C-734.3,149.2-734,149.6-734,150.3C-734,150.2-734,150.3-734,150.3z
			"/>
		<path class="st9" d="M-736,147.2c-0.3-0.1-0.5-0.2-0.8-0.3C-736,146.1-736.2,147.1-736,147.2C-736,147.3-736,147.2-736,147.2z"/>
	</g>
</g>
</svg>
