<?xml version="1.0" encoding="utf-8"?>
<!-- Generator: Adobe Illustrator 24.1.1, SVG Export Plug-In . SVG Version: 6.00 Build 0)  -->
<svg version="1.1" id="f9c5e9d6-e0c2-49fb-9e36-725fc7f10ee6"
	 xmlns="http://www.w3.org/2000/svg" xmlns:xlink="http://www.w3.org/1999/xlink" x="0px" y="0px" viewBox="0 0 809.7 500"
	 style="enable-background:new 0 0 809.7 500;" xml:space="preserve">
<style type="text/css">
	.st0{fill:#14B8A6;}
	.st1{fill:#0D9488;}
	.st2{fill:#F59E0B;}
	.st3{fill:#F2F2F2;}
	.st4{fill:#CACACA;}
	.st5{fill:#E4E4E4;}
	.st6{fill:#FFFFFF;}
	.st7{fill:#E6E6E6;}
	.st8{fill:#CCCCCC;}
	.st9{fill:#3F3D56;}
	.st10{fill:#0EA5E9;}
	.st11{fill:#FDC2CC;}
	.st12{fill:#D97706;}
	.st13{fill:#9E616A;}
	.st14{fill:#2F2E41;}
	.st15{fill:#64748B;}
	.st16{fill:#FFB6B6;}
	.st17{fill:#428DFC;}
	.st18{fill:#FFB8B8;}
	.st19{fill:#0369A1;}
</style>
<path class="st0" d="M133.1,243V113c0-3.9,3.1-7,7-7s7,3.1,7,7v130c0,3.9-3.1,7-7,7S133.1,246.9,133.1,243z"/>
<path class="st1" d="M116.3,243V113c0-3.9,3.1-7,7-7s7,3.1,7,7v130c0,3.9-3.1,7-7,7S116.3,246.9,116.3,243z"/>
<path class="st1" d="M99.6,243V113c0-3.9,3.1-7,7-7s7,3.1,7,7v130c0,3.9-3.1,7-7,7S99.6,246.9,99.6,243z"/>
<path class="st2" d="M732,450.7c-2.8,0-5.6-0.5-8.3-1.4l-0.4-0.1l0.2-0.9c-4.8-9.6-3.1-22.8,4.3-33.6c6.7-9.8,16.8-17,25.8-23.3
	c3.1-2.2,7.5-1.5,9.7,1.7c1.1,1.6,1.5,3.5,1.1,5.3l-3.2,16.4c-2.3,11.9-5.1,23.1-13.2,30.1C743.5,448.6,737.8,450.7,732,450.7z"/>
<path class="st2" d="M753,479.1c-6.3,0-12.2-3.3-15.6-8.6l-0.2-0.4l0.6-0.5c1.4-7.8,8.2-14.8,17.2-17.8c8.2-2.7,17.3-2.3,25.3-1.9
	l0,0c3,0.1,5.2,2.7,5.1,5.6c-0.1,1.4-0.7,2.8-1.8,3.7l-9,8.1c-6.5,5.9-13.1,11.2-20.9,11.6C753.4,479.1,753.2,479.1,753,479.1z"/>
<path class="st3" d="M725,487.8c-1.3-9.9-2.7-19.9-1.8-29.9c0.8-8.9,3.5-17.6,8.9-24.7c2.9-3.8,6.3-7,10.3-9.6c1-0.7,2,1,1,1.7
	c-6.9,4.5-12.2,11-15.1,18.6c-3.3,8.6-3.8,17.9-3.3,27c0.3,5.5,1.1,11,1.8,16.4c0.1,0.5-0.2,1-0.7,1.2
	C725.7,488.6,725.1,488.3,725,487.8L725,487.8L725,487.8z"/>
<path class="st3" d="M721.3,493.4c6.4-11.6,13.8-24.5,27.1-28.6c3.7-1.1,7.6-1.5,11.4-1.2c1.2,0.1,0.9,2-0.3,1.9
	c-6.5-0.5-12.9,1.2-18.2,4.9c-5.1,3.6-9.1,8.5-12.5,13.8c-2.1,3.2-3.9,6.6-5.8,9.9C722.4,495.3,720.7,494.5,721.3,493.4L721.3,493.4
	z"/>
<path class="st4" d="M718.4,493.3l6.5,0.1l-39-208.2l-6.5,1.2l10.2,54h-32.8l10.2-54l-6.5-1.2l-38.7,208.2l6.1-0.1l20.3-107.9H698
	L718.4,493.3z M649.8,377.4l5.5-29h35.8l5.5,29H649.8z"/>
<path class="st1" d="M436.1,246.3v-68.4c0-2,3.1-3.7,7-3.7s7,1.7,7,3.7v68.4c0,2-3.1,3.7-7,3.7S436.1,248.4,436.1,246.3z"/>
<path class="st0" d="M419.3,246.3v-68.4c0-2,3.1-3.7,7-3.7s7,1.7,7,3.7v68.4c0,2-3.1,3.7-7,3.7S419.3,248.4,419.3,246.3z"/>
<path class="st0" d="M402.6,246.3v-68.4c0-2,3.1-3.7,7-3.7s7,1.7,7,3.7v68.4c0,2-3.1,3.7-7,3.7S402.6,248.4,402.6,246.3z"/>
<path class="st5" d="M544.9,493.8H421.7c-5.2,0-9.4-4.2-9.4-9.4V282.2c0-4.6-3.8-8.4-8.4-8.4H115.7c-4.6,0-8.4,3.8-8.4,8.4v202.2
	c0,5.2-4.2,9.4-9.4,9.4h-4.2c-5.2,0-9.4-4.2-9.4-9.4V271.3c0-12.4,10.1-22.5,22.5-22.5h425c12.4,0,22.5,10.1,22.5,22.5v213.1
	C554.3,489.6,550.1,493.8,544.9,493.8z"/>
<rect x="412.8" y="301.3" class="st6" width="141" height="6"/>
<rect x="412.8" y="382.3" class="st6" width="141" height="6"/>
<path class="st7" d="M296.1,247.8l-4.1-1.7l-2.8-20.3h-37l-3,20.2l-3.6,1.8c-0.4,0.2-0.6,0.7-0.4,1.2c0.1,0.3,0.4,0.5,0.8,0.5h49.8
	c0.5,0,0.9-0.4,0.9-0.9C296.6,248.2,296.4,247.9,296.1,247.8z"/>
<path class="st8" d="M361.9,228.5H180.1c-2,0-3.6-1.6-3.6-3.6v-25.6h189v25.6C365.5,226.9,363.9,228.5,361.9,228.5z"/>
<path class="st9" d="M365.7,211.3H176.3V101.6c0-2.4,1.9-4.3,4.3-4.3h180.7c2.4,0,4.3,1.9,4.3,4.3v109.7H365.7z"/>
<path class="st10" d="M354.4,203.4H187.6c-1.8,0-3.3-1.5-3.3-3.3v-91.5c0-1.8,1.5-3.3,3.3-3.3h166.8c1.8,0,3.3,1.5,3.3,3.3V200
	C357.7,201.9,356.2,203.4,354.4,203.4z"/>
<path class="st11" d="M541.3,115.7c6-0.9,11.6,3.3,12.5,9.3c0.1,0.6,0.1,1.3,0.1,1.9l36.6,14.1l-16.6,11.8l-32.2-15.2
	c-6.1-0.6-10.5-6-9.9-12.1C532.3,120.5,536.3,116.4,541.3,115.7L541.3,115.7z"/>
<path class="st12" d="M680.2,108.8l6.2,11.2c-1.5,7.1-5.4,13.6-11,18.2c-9.5,8-59,37.7-59,37.7l-62.5-31.4l10.9-14.5l49.1,16.4l0,0
	c18.2-17.2,40.2-29.9,64.2-37.1L680.2,108.8z"/>
<ellipse class="st4" cx="668.7" cy="279" rx="48.8" ry="15.9"/>
<polygon class="st13" points="559.2,479.8 546.3,476.2 553.9,424.5 573,429.8 "/>
<path class="st14" d="M559,493.3l-41.7-11.6l0.1-0.5c2.5-9,11.8-14.2,20.8-11.8l0,0l25.5,7.1L559,493.3z"/>
<polygon class="st13" points="521.7,480 509.4,474.5 524.4,424.5 542.6,432.5 "/>
<path class="st14" d="M519.5,493.3l-39.6-17.5l0.2-0.5c3.8-8.5,13.7-12.4,22.2-8.6l0,0l24.2,10.7L519.5,493.3z"/>
<path class="st15" d="M706.6,240.2c0,0,6.5,20.2-33.5,45.7l-51.5,51.3l-53.5,128L536.3,451l6.2-16.6l4.2-11.2l2.1-5.7l2.3-6.1
	l34-90.8l28.6-50l0.8-27.1l7-19.1l51-18.1L706.6,240.2z"/>
<path class="st15" d="M680.6,241.2c0,0,6.5,20.2-33.5,45.7l-51.5,51.3l-53.5,128L510.3,452l6.2-16.6l4.2-11.2l2.1-5.7l2.3-6.1
	l34-90.8l9.6-16.7c12.6-22.1,28-42.5,45.6-60.8l9.4-9.7l1-15l21.8-12.1L680.6,241.2z"/>
<path class="st12" d="M649.8,142.3l16-34l27.9-3.8c0,0,21.8,27.8,16.1,66.8c-2.1,14.6-3.9,29.2-4,42c0,3.4,2.9,4.9,3,8
	c0,3-5.6,7.9-4,10c2.3,2.8,3.7,6.3,4,10c-2,4.7-62-20.8-87.2-17L649.8,142.3z"/>
<path class="st16" d="M353.2,171.5c-0.1,0.8-0.1,1.5-0.1,2.3l-56,40.9l-15.4-6.8l-13.4,21.8l26.1,14.7c4.3,2.4,9.8,1.7,13.3-1.7
	l56.4-55.1c7.9,2,15.8-2.8,17.8-10.6c2-7.9-2.8-15.8-10.6-17.8c-7.9-2-15.8,2.8-17.8,10.6C353.4,170.3,353.3,170.9,353.2,171.5
	L353.2,171.5z"/>
<path class="st17" d="M295.2,216.1l-16.4,27.2c-1.8,3-5.7,3.9-8.6,2.2c-0.3-0.2-0.5-0.3-0.8-0.5L245,224.9c-8.2-5-10.9-15.8-5.8-24
	c5-8.2,15.7-10.8,23.9-5.9l29.2,12.1c3.2,1.3,4.7,5,3.4,8.2C295.5,215.6,295.4,215.9,295.2,216.1L295.2,216.1z"/>
<rect x="225.2" y="399.9" class="st4" width="32.1" height="53.1"/>
<rect x="288.4" y="410.6" transform="matrix(0.5615 -0.8275 0.8275 0.5615 -250.1525 442.127)" class="st4" width="7.3" height="93"/>
<rect x="143.9" y="453.4" transform="matrix(0.8275 -0.5615 0.5615 0.8275 -223.7752 185.7535)" class="st4" width="93" height="7.3"/>
<circle class="st4" cx="330.5" cy="483.2" r="10.1"/>
<circle class="st4" cx="240.7" cy="483.2" r="10.1"/>
<circle class="st4" cx="151.9" cy="483.2" r="10.1"/>
<rect x="237.1" y="431" class="st4" width="7.3" height="52.2"/>
<rect x="234.3" y="353.2" class="st4" width="13.7" height="70.5"/>
<path class="st9" d="M201.8,364.2v-16.5c0-6.3,5.1-11.4,11.4-11.4h61.4c6.3,0,11.4,5.1,11.4,11.4v16.5c0,6.3-5.1,11.4-11.4,11.4
	h-61.4C206.9,375.6,201.8,370.5,201.8,364.2z"/>
<polygon class="st18" points="312.6,476.8 329.6,476.8 337.7,432.8 312.6,432.8 "/>
<path class="st14" d="M308.3,493.3H363v-0.7c0-11.8-9.5-21.3-21.3-21.3l0,0l0,0h-33.4L308.3,493.3z"/>
<path class="st14" d="M338,449.5l33.8-75.9c5.9-13.3,0.5-28.8-12.2-35.7l-73.4-39.3l-33.5-2.8l-30.9-2.8l-0.2,0.4
	c-0.3,0.5-6.9,12-2.4,24.5c3.4,9.5,12.3,17,26.3,22.1c32.8,12,70.7,22.3,85.5,26.2c1.3,0.3,2.4,1.2,3.1,2.4c0.6,1.2,0.7,2.6,0.3,3.9
	L303,443.1c-1.2,3.2,0.5,6.8,3.7,8c0.5,0.2,1,0.3,1.6,0.4l23.5,1.7c0.2,0,0.4,0,0.6,0C334.8,453.2,337,451.8,338,449.5z"/>
<polygon class="st18" points="301.6,476.8 318.5,476.8 326.6,432.8 301.6,432.8 "/>
<path class="st14" d="M297.2,493.3h54.7v-0.7c0-11.8-9.5-21.3-21.3-21.3l0,0l0,0h-33.4L297.2,493.3z"/>
<path class="st14" d="M325.6,453.7l33.8-75.9c5.9-13.3,0.5-28.8-12.2-35.7l-73.4-39.3l-33.5-2.8l-24.2-2.1v-0.3
	c-0.3,0.5-6.9,12-2.4,24.5c3.4,9.5,5.3,17,19.4,22.1c32.8,12,70.7,22.3,85.5,26.2c1.3,0.3,2.4,1.2,3.1,2.4c0.6,1.2,0.7,2.6,0.3,3.9
	l-31.4,70.6c-1.2,3.2,0.5,6.8,3.7,8c0.5,0.2,1,0.3,1.6,0.4l23.5,1.7c0.2,0,0.4,0,0.6,0C322.3,457.4,324.6,455.9,325.6,453.7z"/>
<circle class="st18" cx="271.3" cy="119.1" r="34"/>
<path class="st19" d="M388.5,249.7c14.2-18.9,25.5-39.9,33.3-62.2c0.9-2.8-0.2-5.8-2.8-7.2l-48.6-26.1c-1.6-0.9-3.5-0.9-5.2-0.2
	c-1.7,0.7-2.9,2.2-3.4,4c-5.7,21.5-16.3,41.4-31.1,58c-1.2,1.4-1.8,3.2-1.4,5c0.3,1.8,1.4,3.3,3,4.2l48.6,26.1
	C383.5,252.7,386.7,252,388.5,249.7z"/>
<path class="st6" d="M385.1,247.2c-0.5,0.7-1.5,0.9-2.2,0.5l-48.6-26.1c-0.5-0.2-0.8-0.7-0.9-1.2c-0.1-0.6,0.1-1.1,0.4-1.6
	c15.2-17.1,26.2-37.6,32-59.7c0.1-0.6,0.5-1,1-1.2s1.1-0.2,1.5,0.1l48.6,26.1c0.8,0.4,1.1,1.3,0.9,2.1
	C410.1,208,399.1,228.6,385.1,247.2z"/>
<path class="st19" d="M369.7,174.4l36.1,22.8c3.5,2.3,6.9-3.7,3.2-6l-36.1-22.8C369.4,166.1,366.2,172.1,369.7,174.4L369.7,174.4z"
	/>
<path class="st10" d="M363.3,187.1l36.1,22.8c3.5,2.3,6.9-3.7,3.2-6l-36.1-22.8C362.9,178.8,359.7,184.8,363.3,187.1L363.3,187.1z"
	/>
<path class="st10" d="M358.2,199.7l32.8,20.9c3.2,2.1,6.8-2.2,3.5-4.3l-32.8-20.9C358.4,193.4,355,197.6,358.2,199.7z"/>
<path class="st10" d="M348.2,212.6l36.1,22.8c3.5,2.3,6.9-3.7,3.2-6l-36.1-22.8C347.9,204.2,344.7,210.2,348.2,212.6L348.2,212.6z"
	/>
<path class="st2" d="M290.9,301.4l-67.3-0.4v-0.5c-1.3-33.8,2.8-64.3,12.6-93.5c0.1-1.1,0.3-2.3,0.4-3.4c1.7-13,3-23.4,15.4-27.2
	c-1-1.4-1.6-3-1.8-4.7c-0.2-2.3,0.6-4.6,2.1-6.3s3.5-2.7,5.8-2.8l23.9-0.8c1.3,0,2.5,0.4,3.5,1.2c3.8,2.8,4.9,7.9,2.8,12.1
	c-0.3,0.6-0.4,0.8-0.4,0.9c0.9,4.5,3.4,9.8,6,15.4c3.8,8,8.2,17.1,9.3,26.9c0.6,5.3,0.4,10.6-0.7,15.7c-0.5,2.8-0.6,5.6-0.3,8.5
	c0.2,4.2,0.4,8.1-1.9,11.9c-0.6,1-1.3,2.1-2.1,3.4l-3.3,7.9L290.9,301.4z"/>
<path class="st9" d="M189.9,348.6V211.2c0-9.3,7.6-16.9,16.9-16.9h4.7c9.3,0,16.9,7.6,16.9,16.9v137.5c0,9.3-7.6,16.9-16.9,16.9
	h-4.7C197.5,365.5,189.9,358,189.9,348.6z"/>
<path class="st16" d="M370.3,224.9c-0.5,0.6-0.9,1.2-1.3,1.9l-69.2,5l-9.5-13.9l-22.9,11.6l14.4,26.3c2.4,4.4,7.4,6.6,12.2,5.5
	l77-17c5.6,5.8,14.9,6,20.8,0.4c5.8-5.6,6-14.9,0.4-20.8c-5.6-5.8-14.9-6-20.8-0.4C371.1,224,370.7,224.4,370.3,224.9z"/>
<path class="st2" d="M297.5,232.2l-28.2,14.5c-3.1,1.6-6.9,0.4-8.5-2.7c-0.1-0.3-0.3-0.6-0.4-0.9l-10.2-30c-4.3-8.6-0.9-19,7.6-23.4
	c-12.5,6.4,13.6-11.8,23.5,7.6l18.4,25.7c2,2.8,1.4,6.8-1.5,8.8C298.1,231.9,297.8,232,297.5,232.2L297.5,232.2z"/>
<path class="st14" d="M255.9,152.1c-2,0-4.3-1-6.8-3c-15.4-12.1-20.8-33-13.3-51c1.9-4.4,5.3-10.4,11.3-14c4.3-2.5,9.3-3.4,13.7-4.1
	c3.8-0.6,7.7-1,11.5-1.3c4.5-0.4,9.8-0.6,14.5,1.2c3.5,1.3,6.5,3.7,9.4,6c1,0.8,2,1.6,3.1,2.4c2.5,2,5.4,3.4,8.5,4.1
	c1.3,0.3,2.5,1.1,3.1,2.3c0.7,1.2,0.8,2.6,0.3,3.9c-0.4,1.3-0.9,2.4,0,3.6c0.6,0.9,1.6,1.4,2.7,1.4c0.6,0,1.1,0.3,1.4,0.7
	c0.3,0.5,0.4,1.1,0.2,1.6l-0.1,0.3c0.7,0.1,1.4,0.5,1.7,1.1c0.5,0.9,0.4,2.1-0.4,2.8c-3,2.9-6.8,4.9-10.9,5.7
	c-2.8,0.6-5.7,0.5-8.5,0l-0.5-0.1l0.1-0.5c-11.3-4-21.6,2.8-27.4,10.7l-0.8-0.5c0.3-0.6,0.3-1.3,0.1-1.9c-0.2-0.7-0.8-1.4-1.5-1.7
	c-1.4-0.6-3.1-0.3-4.1,0.8c-1.1,1.1-1.7,2.7-1.5,4.3c0.2,1.7,0.6,3.3,1.3,4.8c0.3,0.7,0.6,1.5,0.8,2.2c1.3,4.3,0.9,9-1,13
	c-0.9,1.9-2.5,4.2-5.1,5C257,152.1,256.5,152.1,255.9,152.1z"/>
<path class="st4" d="M808.5,495.3H1.2c-0.7,0-1.2-0.5-1.2-1.2s0.5-1.2,1.2-1.2h807.3c0.7,0,1.2,0.5,1.2,1.2
	C809.7,494.7,809.1,495.3,808.5,495.3z"/>
<path class="st19" d="M545.3,196.1l48.6-26.1c1.6-0.9,2.7-2.4,3-4.2c0.4-1.8-0.2-3.6-1.4-5c-14.8-16.6-25.4-36.5-31.1-58
	c-0.5-1.8-1.7-3.3-3.4-4s-3.6-0.7-5.2,0.2l-48.6,26.1c-2.6,1.4-3.7,4.4-2.8,7.2c7.8,22.3,19.1,43.3,33.3,62.2
	C539.5,196.8,542.7,197.5,545.3,196.1z"/>
<path class="st6" d="M508.4,131c-0.2-0.8,0.1-1.7,0.9-2.1l48.6-26.1c0.4-0.3,1-0.3,1.5-0.1s0.9,0.6,1,1.2
	c5.8,22.1,16.8,42.6,32,59.7c0.3,0.5,0.5,1,0.4,1.6c-0.1,0.5-0.4,1-0.9,1.2l-48.6,26.1c-0.7,0.4-1.7,0.2-2.2-0.5
	C527.1,173.4,516.1,152.8,508.4,131z"/>
<path class="st19" d="M557,121.5c3.5-2.2,0.3-8-3.2-5.8l-35.3,21.9c-3.6,2.2-0.3,8,3.2,5.8L557,121.5L557,121.5z"/>
<path class="st10" d="M563.3,133.7c3.5-2.2,0.3-8-3.2-5.8l-35.3,21.9c-3.6,2.2-0.3,8,3.2,5.8L563.3,133.7L563.3,133.7z"/>
<path class="st10" d="M564.8,141.8l-32.1,20.1c-3.2,2,0.3,6.1,3.5,4.1l32.1-20.1C571.4,143.9,568.1,139.8,564.8,141.8z"/>
<path class="st10" d="M578.1,158.2c3.5-2.2,0.3-8-3.2-5.8l-35.3,21.9c-3.6,2.2-0.3,8,3.2,5.8L578.1,158.2L578.1,158.2z"/>
<path class="st11" d="M559.3,173.7c5.7-2.2,12.1,0.7,14.2,6.4c0.2,0.6,0.4,1.2,0.5,1.9l38.8,5.7l-13.6,15.2l-34.7-7.8
	c-6.1,0.7-11.6-3.6-12.3-9.7C551.6,180.4,554.5,175.5,559.3,173.7L559.3,173.7z"/>
<path class="st12" d="M577.1,199.6l7.9-17.5l51.6,5.3l21.2-31.4l35.6-20l8.9,10.1v0.2c0.1,7.4-2.3,14.7-6.8,20.5
	c-5.4,7.1-28.2,29.4-41.3,42c-5.2,5-12.5,7-19.5,5.2L577.1,199.6z"/>
<ellipse class="st16" cx="665.2" cy="76" rx="27.9" ry="25.7"/>
<path class="st14" d="M645.6,124.3l-2.6-10.6c-1.7-7.2-0.3-14.7,4.1-20.8c4-5.8,4.3-13.2,0.6-19.3c-2.7-4.9-8.1-8-14-8.1H633v-0.6
	c0-9.2,7.8-15.7,15-16.1c0.3-1.9,1.7-3.6,4.3-5c6.1-3.3,18-4,27,0.4c0.3-2.9,2.4-5.3,5.2-6.4c1.5-0.5,3.1-0.6,4.6-0.2
	c0.1-2.3,1.2-4.5,2.9-6.2c2.5-2.2,6.4-3.1,10.9-2.3c6.1,1,12.1,4.6,16.9,10.1c4.3,4.9,7.2,10.6,10.1,16.2c2.8,5.5,5.7,11.1,10,15.9
	c4.6,5.2,10.4,8.6,16.2,9.6c6.8,1.1,13.7-1.5,16.9-6.2l0.6-0.9l0.6,1c3.6,6,2.1,14.4-3.5,19.8c-5,4.8-12.8,7.3-21,6.6
	c-6.9-0.6-13.8-3.3-20.7-8c-6.8-4.7-11-9.9-12.4-15.4c-0.4-1.7-0.7-3.4-0.9-5.2c-0.5-3.7-0.9-7.1-3.3-9.7c-2.2-2.3-5.6-3.3-8.6-4
	l-0.6-0.1c-0.2,2.1-1.4,4-3.3,5.2c-0.6,0.3-1.2,0.5-1.8,0.6c3.5,13,2.1,22.9-4.3,29.5c-10.7,11.2-31.2,8.9-32,8.8l-0.6-0.1v-0.5
	c-0.1-1.4-0.3-2.9-0.6-4.3c-2.9,6.5-12.8,23.8-14.1,25.6L645.6,124.3z"/>
<ellipse class="st10" cx="338.3" cy="43.4" rx="30.1" ry="31.4"/>
<path class="st6" d="M354.5,43.4H340V28.3c0-1-0.8-1.9-1.8-1.9h-0.1c-1,0-1.8,0.8-1.8,1.9v15.1h-14.5c-1,0-1.8,0.8-1.8,1.9l0,0
	c0,1,0.8,1.9,1.8,1.9h14.5v15.1c0,1,0.8,1.9,1.8,1.9h0.1c1,0,1.8-0.8,1.8-1.9V47.2h14.5c1,0,1.8-0.8,1.8-1.9l0,0
	C356.3,44.3,355.5,43.4,354.5,43.4z"/>
</svg>
