<?xml version="1.0" encoding="utf-8"?>
<!-- Generator: Adobe Illustrator 24.1.1, SVG Export Plug-In . SVG Version: 6.00 Build 0)  -->
<svg version="1.1" xmlns="http://www.w3.org/2000/svg" xmlns:xlink="http://www.w3.org/1999/xlink" x="0px" y="0px"
	 viewBox="0 0 841.9 595.3" style="enable-background:new 0 0 841.9 595.3;" xml:space="preserve">
<style type="text/css">
	.st0{display:none;}
	.st1{display:inline;opacity:0.33;}
	.st2{opacity:0.9;}
	.st3{fill:#DBEEE9;}
	.st4{fill:#D9EDEA;}
	.st5{fill:#F59E0B;}
	.st6{fill:#2B8F90;}
	.st7{fill:#FBBF24;}
	.st8{fill:#9BD1D0;}
	.st9{fill:#706F6F;}
	.st10{fill:#FEFEFE;}
	.st11{fill:#3C3C3B;}
	.st12{fill:#575756;}
	.st13{fill:none;}
	.st14{fill:#D97706;}
	.st15{fill:#208A8C;}
	.st16{fill:#65C0C4;}
	.st17{fill:#13676A;}
	.st18{fill:#0D9488;}
	.st19{fill:#BAE6FD;}
	.st20{opacity:0.44;fill:#0369A1;enable-background:new    ;}
	.st21{fill:#172F5D;}
	.st22{fill:#223647;}
	.st23{fill:#E68D8E;}
	.st24{fill:#0F273F;}
	.st25{fill:#0369A1;}
	.st26{fill:#38BDF8;}
	.st27{fill:#248D8E;}
	.st28{fill:#0284C7;}
	.st29{fill:#F1F3F4;}
	.st30{fill:#FFFFFF;}
	.st31{fill:#CCFBF1;}
	.st32{fill:#F8FAFC;}
	.st33{fill:#0EA5E9;}
	.st34{fill:#475569;}
	.st35{fill:#CBD5E1;}
	.st36{fill:#94A3B8;}
	.st37{fill:#64748B;}
</style>
<g id="Warstwa_2" class="st0">
	<g id="Warstwa_1_1_" class="st1">
		<g class="st2">
			<g>
				<path class="st3" d="M248.3,166.2c3.2-0.4,2.7-4,4.1-6c9.9-13.9,21.3-25.8,35.7-33.7c11.4-6.3,23.4-10.8,35.7-14.4
					c10.3-3,20.5-6,30.9-8.6c13.1-3.3,26.3-6.2,39.6-8.2c10.1-1.4,20.2-2.8,30.4-2.9c0.3,1.8,0.5,3.6,0.9,5.4
					c3.3,16,17.9,23.8,31,16.2c6.7-3.8,10.1-10.5,11.5-18.5c3.2-0.3,6.2,1,9.2,2c12.5,4.2,25.2,7.7,36.3,15.7
					c7.6,5.5,12.8,13.2,17.2,21.7c1,2,1.8,4.1,2.7,6.2c-8.5,0.2-11.2,5.6-6.9,13.6c0.5,1,1.1,1.9,1.7,2.9c4.5,7,4.5,8.3-0.2,15.6
					c-0.6,0-1.2,0-1.7-0.1c0-1.3-0.1-2.6-0.1-3.9c0.1-3.5-1-6.2-4-7.5c-2.7-1.1-5.4-0.5-7.5,1.8c-2.2,2.4-2.8,5.4-1.4,8.6
					c0.7,1.6,1.3,3.3,2,4.9c0,1,0.2,1.8,1.2,2.1c0.2,0,0.4,0,0.5,0.2c-0.7,3.7,1.2,5.7,4,7c-0.3,0.6-0.7,1.2-1,1.8
					c-3,1-4.6-1.7-6.7-3c-3.3-6.5-9.2-8.8-14.2-5.5c-5.4,3.5-6.6,10.4-2.7,16.8c3.1,5.1,6.9,9.6,10.9,13.9c1.2,1.3,2,2.1,1.1,4.1
					c-2.7,5.8-5.3,11.8-7.9,17.6c0-5.7,0.6-11.2,0.3-16.7c-0.3-5.9-4.8-11-10-11.4c-4.7-0.4-8.9,0.9-11.2,5.6
					c-2.5,5-2.1,10.2,0.9,15c4.3,6.9,10,12.3,15.2,18.1c-3,7.4-5.7,15-9.4,22.1c-0.1-1-0.1-2-0.2-3c0.3-1.1,0.3-2.2-0.5-3.1
					c0-5.7-1-11.2-2-16.7c-1.7-8.6-8.7-14.3-16.1-12.9c-7.8,1.5-12.9,9.3-11.8,18.2c0.2,1.4,1.1,2.8-0.1,4.2c-1.8,0-3.6,0.1-5.4,0.1
					c-0.1-2.2-0.3-4.5-0.4-6.7c0.1-0.3,0.2-0.8,0.4-0.8c2.6-0.8,2.9-3,2.4-5.4c-0.5-2.8-2.7-1.6-4.1-1.6c-9.2-0.1-18.4-0.1-27.6-0.1
					c-3.8,0-5.2,2.2-3.5,5.7c0.5,1,1.3,1.8,1.5,2.9c-0.3,2-0.5,4-0.8,5.9c-14.4,0-28.8,0-43.2-0.1c-6.8-17.7-13.6-35.4-20.2-53.1
					c-5.2-13.9-10.3-27.9-15.4-41.9c3.5,0,6.6,2.9,9.8,2.7c9.3-0.4,18.6-1.4,27.5-4.2c6.3-2,9.1-6.9,8.1-12.8
					c-0.6-4-5.3-6.9-11.1-6.9c-7.5,0-15.2,0.8-22.6-0.3c-6.7-1-12.8-0.4-18.9,2.4c-0.9-2.2-2.1-4.4-2.8-6.7c-1.1-4.1-2.7-4.9-6.5-3
					c-15.9,7.5-31.9,14.7-48,21.8c-2.9,1.3-3.6,2.5-2.3,5.8c4.8,12.3,9.4,24.8,14,37.2c7.8,21,15.6,42,23.4,63
					c-0.3,0.3-0.6,0.6-0.9,0.9c-3-4.3-6-8.6-9-13C283,217.6,265.7,191.9,248.3,166.2z M414.4,209c0,1.8-0.2,3.6-0.1,5.4
					c0.5,6.6,5.2,12.3,10.9,13.3c6.8,1.2,12.6-2,15.2-8.4c3.9-9.6-0.2-18.5-10.1-21.5c-2.9-5.8-7-7.9-13-6.5
					c-3.7,0.9-7.4,0.5-11.1,0.1c-5.7-0.5-12.1-2.5-17,1.9c-2.9,2.7-5.5,4-9.1,3.7c-2.7-0.2-5.6,0.8-5.7,4.1c-0.1,3.8,3,3.9,5.6,3.9
					c5,0,10.1,0.1,14.5,2.6c3.1,1.8,6.1,2.3,9.4,2.4C407.6,210,410.9,209.4,414.4,209z M432.1,171.5c-0.1,11.2,7,19,16.9,19.6
					c9.4,0.6,18-9.6,17.8-19.2c-0.3-11.2-8.1-18.7-15.4-19.2C439.9,151.9,432.1,159.9,432.1,171.5z M414.3,127
					c-4.4-0.2-9,4.7-9.3,10c-0.3,6.7,3.5,11.5,9.4,11.8c5.5,0.3,10.1-4.5,10.3-10.7C425.1,131.3,421.3,127.3,414.3,127z M488.3,130
					c0,0.1,0,0.2,0,0.3c-1.1,0-2.1,0-3.2,0c-3,0-5.6,1-7.2,4.1c-0.6,1.2-0.5,2.2,0.3,3.2c2.2,2.7,5.2,2.2,7.6,1.3
					c4-1.6,7.1-0.7,10.6,1.6c3.7,2.5,8.5-0.1,9.7-4.6c0.5-1.8,0.5-3.3-1.8-3.5C499,131.5,493.6,130.7,488.3,130z"/>
				<path class="st4" d="M550.7,172.1c8.3,16.5,16.8,32.9,31.7,43.2c5.4,3.7,11.8,5.6,17.7,8.3c4.9,2.3,8.5,6.4,11,11.2
					c4.8,9.2,8.7,18.9,11.6,29.1c3.2,11.3,6.3,22.6,8.8,34.1c4.9,22.5,6.5,45.2,5.9,68.1c-0.7,27-4.8,53.4-13.5,78.8
					c-2.3,6.9-5.4,13.5-11.1,18.1c-0.4,0.3-0.5,1.2-0.7,1.8c-6.7-0.9-13.4-1.8-20.1-2.7c-5.3-0.8-10.8-0.1-15.9-2.3
					c7.8-4.8,15.2-10.1,22-16.3c10.1-9.2,20-18.5,27.9-30.2v-0.1c1.2-0.9,0.9-1.5-0.3-1.9c-1.3-0.5-2.6-0.9-3.8-1.4
					c-10.6-3.6-21.6-5.7-32.5-7.9c9.2-20.8,15-42.8,18.7-65.5c1.8-11.4,3.3-22.8,4-34.4c0.1-2.2,0.2-4.2-2.7-3.5
					c-1.6,0.4-3.2,0.7-4.7,1.4c-24.4,10.1-47.6,22.6-67.9,40.8c-1.1,1-2,2-3.6,1.4c-0.2-2.1,2-2.8,2.2-4.6l0.1-0.1
					c0.3-0.2,0.6-0.2,0.8-0.5c22.2-29.3,44.3-58.6,66.5-87.8c1.9-2.5,1.4-3.6-0.6-5.4c-13.8-12.5-27.6-25.2-41.2-37.9
					c-2.3-2.1-3.4-1.9-5.3,0.6c-7.3,9.9-14.9,19.5-22.3,29.3c-5.4-9.6-9.4-11.3-18.1-7.4c-2.8,1.2-5.3,3-8,4.6
					c-2,1.2-3.9,2.4-5.9,3.6c-0.3-0.3-0.5-0.6-0.8-0.9c3.1-7.1,6.3-14.1,9.4-21.2c1-2.3,2.2-1.2,3.6-0.2c4.5,3.3,9.3,6,14.6,7.5
					c5.4,1.6,8.9,0.3,11.4-4c2.6-4.4,2.4-8.8-0.4-12.9c-2.6-3.7-7.2-5-11.8-3.2c-3,1.1-5.9,2.3-9,3.3c-0.9,0.3-2,1.5-2.9,0.2
					c-0.7-1-0.3-2.2,0.2-3.3c2.1-4.3,4.3-8.7,6.3-13c0.9-1.9,2-2.3,3.6-1c2.7,2.2,5.9,3.4,9,4.6c5.5,2.1,10.3-2.2,9.6-8.3
					c-0.6-4.9-4.8-7.2-10.1-5.9c-2.5,0.6-4.7,2.8-8.2,2.6c2.6-5.2,5.9-9.1,7.7-14.1c0.7-1.9,1.8-1.3,3.2-0.5
					C541.3,168.9,545.5,172,550.7,172.1z M612.1,284.5c1.3,0,1.7,0,2.2,0c3-0.3,4.5-2.9,5-5.5c0.6-3.6-2.5-2.1-4.1-2.6
					c-2-0.6-4-1.3-6.1-1.5c-5-0.4-10.1-2.4-14.8,0.7c-1.6,1-4,2.1-3,4.7c0.9,2.4,3.1,4.2,5.5,3c4.6-2.3,8.9-1.9,13.2,0.8
					C610.7,284.6,611.9,284.5,612.1,284.5z"/>
				<path class="st3" d="M180.7,467.8c-0.1-1-0.5-1.8-1.5-2.2c-12.4-4.2-18.3-15.9-25-26.5c-5.4-8.6-8.7-18.4-11.5-28.3
					c-1.8-6.5-3.6-13.2-3.7-20.3c-0.1-13.1-0.8-26.2,2.9-38.8c3.2-10.8,6.7-21.4,12.5-31c7.9-12.8,17.4-23.5,28.9-32.5
					c11.2-8.8,21.6-19.1,26.6-34.1c13.1,19.2,26.1,38.4,39.2,57.5c2.8,4.1,4.9,8.7,8.7,11.9c-2.2,5.3-6.5,8.4-10.1,12.1
					c-0.2-1-0.9-1.6-1.7-2.2c-14.7-11.3-30.3-20.6-46.9-28c-6-2.7-11.7-6.7-18.6-6.8h-0.1c-0.1-0.4-0.2-0.9-0.3-1.3
					c-0.1,0.4-0.3,0.9-0.4,1.3c-1.1,0.5-0.9,1.3-0.5,2.1c0.2,11.4,1.8,22.7,3.5,34c3.5,23.5,9.7,46,19,67.5
					c-1.3,0.3-2.6,0.6-3.9,0.8c-10.5,1.8-20.9,4.4-31,7.9c-0.9,0.3-2.7,0-1.8,2.2c14.2,19.2,30.9,35.1,50.7,46.9
					c0,1.2-0.6,1.7-1.7,1.8c-2.8,0.3-5.6,0.6-8.4,0.9C197.2,463.8,188.8,464.7,180.7,467.8z M202.8,288.5c-1.7,1.5-4.6,0.2-6.6,2.6
					c-1.2,1.4-2.5,2.5-1.7,4.6c0.7,1.8,2,2.8,3.9,2.7c0.7,0,1.6,0.1,2.2-0.2c4.1-2.2,7.9-1.9,11.8,1c3.3,2.5,6.3,0.6,8.8-2.2
					c2.2-2.4,1.3-6.4-1.4-6.4C214.1,290.5,208.7,289.6,202.8,288.5z"/>
				<path class="st5" d="M180.7,467.8c8.1-3.1,16.5-4,24.9-5.1c2.8-0.4,5.6-0.7,8.4-0.9c1.1-0.1,1.7-0.6,1.7-1.8
					c4.7,2.7,9.4,5.3,14.6,6.8c-0.6,4.3,1.4,5.5,4.9,5c2.9-0.4,5.8-0.8,8.8-1.2c0.3,0,0.6-0.1,0.9-0.1c0.9-0.2,1.8-0.4,2.7-0.6
					c6-0.5,12-1,18-1.7c1.3-0.1,2.4-1.1,3.6-1.7c11.3,0.1,22.5,0.2,33.8,0.3c0.4,0.2,0.8,0.7,1.2,0.7c17.1,0.1,34.1,0.5,51.2-0.2
					c0.3-0.2,0.6-0.4,0.9-0.5c15.1,0,30.2-0.1,45.3-0.1c10.2,0,20.4,0.1,30.7,0.1c0.7,0.6,1.4,1.3,2.2,1.9c-2.1,7.2-1.7,7.8,5,8
					c1.6,0,3.3,0.1,4.9,0.1c0.9,0,1.9,0.2,2.3-1c0.3-1.1-0.5-1.9-1.2-2.4c-2.5-1.6-5.2-3.1-7.7-4.6c0.5-0.8,1-1.5,1.6-2.3
					c4.5,0.7,8.9,0.6,13.4,0.1c0.6,0.3,1.2,0.5,1.8,0.8c1.7,0.1,1.5,1.6,1.9,2.8c-0.6,6.4-0.6,6.4,5.3,6.5c0.4,0,0.9,0,1.3,0
					c2.6,1,5.3,0,7.8-0.3c2.9-0.3,4.6-2.1,4.1-5.6c0.3-1.3,0.7-2.6,1-3.9c6,0,12,0,18,0c0.4,1.8-0.8,3-1.2,4.6
					c-1.6,1-2.7,2.5-2.6,4.7c6.6-0.2,10-3,10.3-8.5c0.2-0.2,0.5-0.4,0.7-0.6c5.1-0.1,10.2-0.3,15.4-0.2c2.1,0,3-0.7,2.8-3.1
					c-0.1-1.3,0.1-2.6,0.1-4c0.7,0.3,1.5,0.5,2,1c7.8,6.6,16.9,9.3,26.5,8.8c10.2-0.5,19.5-4.6,28.5-9.6c5.1,2.2,10.6,1.5,15.9,2.3
					c6.7,1,13.4,1.8,20.1,2.7c3,0.9,6.1,1.8,9.1,2.8c1,0.3,2.2,0.7,2.2,2.1s-1.2,1.8-2.1,2.2c-4.3,2-9,2.7-13.6,3.4
					c-19.9,2.8-39.8,4.3-59.8,5.4c-31.7,1.8-63.5,2.4-95.3,3.2c-31.2,0.8-62.4,0.8-93.6,0.3c-15.4-0.3-30.7-0.2-46.1-0.8
					c-30.7-1.2-61.4-2.3-92-5c-11.2-1-22.5-2-33.5-4.7c-2-0.5-4.1-1.2-6-2C179.5,470.8,179.4,469.4,180.7,467.8z"/>
				<path class="st6" d="M257.9,323.5c-3.8-3.2-5.9-7.8-8.7-11.9c-13.1-19.1-26.1-38.3-39.2-57.5c-9.3-13.8-18.4-27.8-27.9-41.5
					c-2.3-3.3-2.1-4.9,0.9-7.3c18.8-15.2,37.5-30.5,56.1-46c2.3-1.9,3.7-2,5.3,0.8c1.1,2.1,2.6,4,3.9,6c17.4,25.7,34.8,51.4,52.2,77
					c3,4.4,6,8.7,9,13c0.4,0.7,0.7,1.4,1.1,2.1c1-1.1,0.4-2-0.2-3c-7.8-21-15.6-42-23.4-63c-4.6-12.4-9.2-24.9-14-37.2
					c-1.3-3.3-0.6-4.5,2.3-5.8c16.1-7.1,32.1-14.3,48-21.8c3.8-1.8,5.4-1.1,6.5,3c0.6,2.3,1.8,4.5,2.8,6.7c1.4,6.3,4.3,12,6.5,17.9
					c0.2,0.4,0.4,0.8,0.6,1.2v0.1c5.1,14,10.2,27.9,15.4,41.9c6.7,17.7,13.5,35.4,20.2,53.1c-1.9,0-3.8,0-5.7,0
					c0.4-2.6-0.9-4.8-1.8-7.1c-6.3-16.8-12.7-33.6-19-50.5c-7.2-19.3-14.4-38.5-21.7-57.8c-0.9-2.3-1.5-4.6-4.8-3
					c-14.2,6.7-28.6,13.2-42.9,19.7c-2.2,1-2.1,2.1-1.3,4.2c7.2,18.9,14.3,37.9,21.4,56.9c5.7,15.1,11.3,30.3,16.9,45.5
					c-1.9,2.9-3.8,5.8-6.8,7.5c-15.1-22.3-30.2-44.6-45.3-66.9c-7.2-10.6-14.4-21.2-21.6-31.8c-0.9-1.3-1.4-3.1-3.7-1.2
					c-16.4,13.7-33,27.1-49.5,40.6c-2,1.6-2.2,3.2-0.5,5.3c2,2.5,3.6,5.3,5.4,7.9c18.6,27.4,37.2,54.8,55.7,82.4
					c3.8,5.7,8.4,10.8,11.1,17.4C260.5,322.1,259.7,323.5,257.9,323.5z"/>
				<path class="st7" d="M468.1,95.5c-1.4,8-4.8,14.7-11.5,18.5c-13.2,7.5-27.7-0.2-31-16.2c-0.4-1.8-0.6-3.6-0.9-5.4
					c0.4-9,3.9-16.4,11-21c14.3-9.1,31,1.4,32.4,20.1C468.1,92.8,468.1,94.1,468.1,95.5z"/>
				<path class="st4" d="M539.1,157.1c0.8-1,1.7-2,2.5-3c0.7,1.4,1.1,2.8,1,4.4c-1.3,1.4-2.8,2.4-4.8,2.4
					C537.1,159.1,539.2,158.5,539.1,157.1z"/>
				<path class="st8" d="M549.8,145.2c0.4-0.2,0.8-0.4,1.2-0.6C550.6,144.8,550.2,145,549.8,145.2z"/>
				<path class="st8" d="M551.7,144.3c0.2-0.6,0.6-0.9,1.2-0.7C552.5,143.8,552.1,144.1,551.7,144.3z"/>
				<path class="st8" d="M546.2,141.2c-0.1,0.3-0.2,0.7-0.3,1C546,141.9,546.1,141.5,546.2,141.2z"/>
				<path class="st8" d="M548.9,145.6c0.3-0.1,0.6-0.3,0.9-0.4C549.5,145.3,549.2,145.5,548.9,145.6z"/>
				<path class="st9" d="M369.6,251.4c1.9,0,3.8,0,5.7,0c14.4,0,28.8,0,43.2,0.1c0.5,2.7-1,6.1,0.9,8.2c7.6,8.1,14.2,18.2,27.2,15.2
					c2.8-0.7,3.8-1.4,3.7-4.5c-0.1-6.3,0-12.6,0.1-18.8c1.8,0,3.6-0.1,5.4-0.1c2.4-0.1,4.1,1,5.8,2.9c4.3,4.9,8.8,9.6,13.2,14.4
					c0.4,0.7,0.8,1.6,1.8,1.1l-0.1-0.1c0.6,3.5,3.4,4.9,5.5,6.9c0.3,0.3,0.7,0.7,1,1c3.1,4.4,6.6,8.4,10.7,11.8
					c0.5,1.4,1.5,2.4,2.7,3.3c12.2,13.9,24.3,27.8,37.1,41.1c0.8,1.3,1.5,2.6,2.3,3.9l-0.1,0.1c-2,0-3.9-0.1-5.8-0.1
					c-3.6,0.1-7.3,0.1-10.9,0.2c-2.5-0.1-5.1-0.3-7.6-0.4c0.8-1.2,1.4-2.5,2.3-3.7c1.2-1.6,1.6-3.2,0.4-4.9
					c-0.6-0.9-2.2-2.3-2.4-1.8c-1,2.3-4.1,1.4-4.5,4c-0.3,1.9-0.5,3.9-0.7,5.9c-0.6,0.3-1.1,0.6-1.7,1c-5-0.6-9.9-0.5-14.9,0
					c-0.3-0.1-0.4-0.3-0.5-0.6c0.3-0.4,0.5-1,0.8-1.2c1.4-0.7,2.3-0.4,1.3-3.3c-1.7-4.8-1.6-10.2-4.6-15c-2.1-3.4-8.6-11-12.5-11.3
					c-6.4-0.4-10.4,5.3-15.9,7.2c-0.3,0.1-0.8,1.3-0.6,1.7c2.3,5.8-1.2,8.6-4.7,11.5c-2.1,0.1-4.2,0.2-6.3,0.4
					c-0.1-1.4-1.1-3.4,0.1-4.2c4.4-2.8,2.9-7.4,3.4-11.5c-0.3-1.4-1.1-3.1-0.8-4.3c1.6-5.5-2-5.9-5.2-6.7c-1.3-0.3-2.7,0.1-4-0.2
					c-5.5-0.9-7,3.4-8.3,7.7c-1.3,4,1.5,5.9,3.8,7.9c-1.1,0.6-2,1.8-0.6,2.5c4.4,2.1,4.6,6,4.3,10.3c-6,1.5-11.4,4.3-15.8,9
					c-7.4-0.1-14.8-0.2-22.2-0.3c-10.1-11.2-20.2-22.3-30.2-33.5c-12.9-14.4-25.7-28.8-38.5-43.3c-1.5-3.9-6.2-4.7-7.2-9
					c3.5-0.1,7.1-0.2,10.6-0.3c3.8,0.4,7.6,0.5,11.4-0.1c5.3,0.1,10.7,0.1,16,0.2c0.3,0,0.6,0,0.9,0
					C366.1,251.4,367.8,251.4,369.6,251.4z"/>
				<path class="st10" d="M339.1,155.1c-2.3-5.9-5.1-11.6-6.5-17.9c6.1-2.7,12.2-3.4,18.9-2.4c7.4,1.1,15,0.3,22.6,0.3
					c5.8,0,10.5,2.9,11.1,6.9c0.9,5.9-1.8,10.7-8.1,12.8c-8.9,2.9-18.3,3.8-27.5,4.2c-3.2,0.1-6.3-2.7-9.8-2.7v-0.1
					C339.5,155.9,339.3,155.5,339.1,155.1z"/>
				<path class="st7" d="M432.1,171.5c0.1-11.6,7.9-19.6,19.3-18.9c7.3,0.5,15.2,8,15.4,19.2c0.2,9.6-8.4,19.8-17.8,19.2
					C439.1,190.5,432,182.8,432.1,171.5z"/>
				<path class="st11" d="M450.4,251.4c0,6.3-0.2,12.6-0.1,18.8c0.1,3.1-0.9,3.8-3.7,4.5c-13,3.1-19.7-7-27.2-15.2
					c-1.9-2-0.4-5.4-0.9-8.2c0.3-2,0.5-4,0.8-5.9c0.3-2.7,1.9-2.8,3.9-2.8c6.9,0.1,13.8,0.1,20.7,0c2.4-0.1,4.3,0.5,6.2,2.1
					C450.1,247,450.2,249.2,450.4,251.4z"/>
				<path class="st10" d="M414.4,209c-3.4,0.4-6.8,1.1-10.3,1c-3.3-0.1-6.3-0.7-9.4-2.4c-4.4-2.5-9.5-2.6-14.5-2.6
					c-2.7,0-5.8-0.1-5.6-3.9c0.1-3.3,2.9-4.3,5.7-4.1c3.6,0.3,6.1-1,9.1-3.7c4.9-4.4,11.3-2.5,17-1.9c3.8,0.4,7.4,0.8,11.1-0.1
					c6-1.4,10.2,0.7,13,6.5C422.5,197.1,417.2,200.9,414.4,209z"/>
				<path class="st7" d="M414.4,209c2.8-8.1,8.2-11.8,16-11.2c9.9,3,14,11.9,10.1,21.5c-2.6,6.4-8.4,9.6-15.2,8.4
					c-5.7-1-10.5-6.7-10.9-13.3C414.2,212.6,414.3,210.8,414.4,209z"/>
				<path class="st7" d="M414.3,127c7,0.3,10.7,4.3,10.5,11.1c-0.2,6.2-4.8,10.9-10.3,10.7c-5.9-0.3-9.7-5.1-9.4-11.8
					C405.3,131.7,409.9,126.8,414.3,127z"/>
				<path class="st10" d="M488.3,130c5.3,0.8,10.7,1.6,16,2.2c2.2,0.3,2.2,1.7,1.8,3.5c-1.2,4.5-6,7.1-9.7,4.6
					c-3.4-2.3-6.6-3.2-10.6-1.6c-2.4,1-5.4,1.4-7.6-1.3c-0.8-1-0.9-2-0.3-3.2c1.6-3.1,4.1-4.1,7.2-4.1
					C486.2,130.1,487.2,130.1,488.3,130C488.3,130.2,488.3,130.1,488.3,130z"/>
				<path class="st12" d="M450,244.7c-1.8-1.5-3.8-2.1-6.2-2.1c-6.9,0.2-13.8,0.1-20.7,0c-2,0-3.6,0.1-3.9,2.8
					c-0.2-1.2-1.1-2-1.5-2.9c-1.7-3.5-0.4-5.7,3.5-5.7c9.2,0,18.4-0.1,27.6,0.1c1.4,0,3.6-1.2,4.1,1.6c0.4,2.4,0.2,4.5-2.4,5.4
					C450.2,243.9,450.1,244.4,450,244.7z"/>
				<g>
					<path class="st13" d="M512.9,203.8c0,0.1,0.2,0.2,0.3,0.3c0.1-0.7,0.2-1.4,0.4-2.1C512.8,202.3,512.7,203,512.9,203.8z"/>
					<path class="st5" d="M562,132.8c-0.8-3.3-2.8-5.5-6-5.9s-5.5,1.3-6.9,4.4c-1.4,3.1-2.4,6.4-2.9,9.9c-0.1,0.3-0.2,0.7-0.3,1
						c-0.2,1-0.3,2-0.5,3c-2.8,1.6-3.3,5.6-6.2,7.6c-0.5-2.9,0.8-6-1.9-7.9c-0.5-2.1-2.2-3-3.8-3.8c-8.5,0.2-11.2,5.6-6.9,13.6
						c0.5,1,1.1,1.9,1.7,2.9c4.5,7,4.5,8.3-0.2,15.6c-0.2,1.3-0.5,2.4-1.6,3.1c-0.6-1.1-0.3-2.1-0.1-3.2c0-1.3-0.1-2.6-0.1-3.9
						c0.1-3.5-1-6.2-4-7.5c-2.7-1.1-5.4-0.5-7.5,1.8c-2.2,2.4-2.8,5.4-1.4,8.6c0.7,1.6,1.3,3.3,2,4.9c0.4,0.7,0.8,1.4,1.2,2.1
						c0.2,0,0.4,0,0.5,0.2c0.9,2.6,4.5,3.5,4,7c-0.3,0.6-0.7,1.2-1,1.8c-2.2,4.6-4.4,9.2-6.6,13.8c0-5.6-0.1-11.2-0.1-16.8
						c-3.3-6.5-9.2-8.8-14.2-5.5c-5.4,3.5-6.6,10.4-2.7,16.8c3.1,5.1,6.9,9.6,10.9,13.9c1.2,1.3,2,2.1,1.1,4.1
						c-2.7,5.8-5.3,11.8-7.9,17.6c0-5.7,0.6-11.2,0.3-16.7c-0.3-5.9-4.8-11-10-11.4c-4.7-0.4-8.9,0.9-11.2,5.6
						c-2.5,5-2.1,10.2,0.9,15c4.3,6.9,10,12.3,15.2,18.1c0.3,0.1,0.5,0.1,0.8,0.2c-0.3-0.1-0.5-0.1-0.8-0.2c-3,7.4-5.7,15-9.4,22.1
						c-0.1-1-0.1-2-0.2-3c-0.8-0.9-0.7-2-0.5-3.1c0-5.7-1-11.2-2-16.7c-1.7-8.6-8.7-14.3-16.1-12.9c-7.8,1.5-12.9,9.3-11.8,18.2
						c0.2,1.4,1.1,2.8-0.1,4.2c2.4-0.1,4.1,1,5.8,2.9c4.3,4.9,8.8,9.6,13.2,14.4c0.7,0.2,1.4,0.2,1.8,1c1.6,0.7,3.1,1.5,4.7,2.2
						c2.3,1.1,1.9,2.8,0.8,4.7c0.3,0.3,0.7,0.7,1,1c1.4-3.5,3.2-3.3,5.8-1.2c2.8,2.3,5.7,4.8,9.4,5.2c6.5-7.1,12.8-14.3,17.2-23.2
						c-5.2-1.1-9.5,1.9-14.1,3.5c-4.8,1.7-8.9,5.4-13.9,6.6c-1.2-0.1-1.8-0.5-1.8-1.4c-0.1,1,0.5,1.3,1.8,1.4
						c3.3-8.5,7.4-16.6,10.1-25.4l0,0c7.8,3.3,15.6,6.5,23.5,9.8c4.2-5.6,8.4-11.3,12.5-16.9c-5.4-9.6-9.4-11.3-18.1-7.4
						c-2.8,1.2-5.3,3-8,4.6c-2,1.2-3.9,2.4-5.9,3.6c-0.3-0.3-0.5-0.6-0.8-0.9c3.1-7.1,6.3-14.1,9.4-21.2c1-2.3,2.2-1.2,3.6-0.2
						c4.5,3.3,9.3,6,14.6,7.5c5.4,1.6,8.9,0.3,11.4-4c2.6-4.4,2.4-8.8-0.4-12.9c-2.6-3.7-7.2-5-11.8-3.2c-3,1.1-5.9,2.3-9,3.3
						c-0.9,0.3-2,1.5-2.9,0.2c-0.7-1-0.3-2.2,0.2-3.3c2.1-4.3,4.3-8.7,6.3-13c0.9-1.9,2-2.3,3.6-1c2.7,2.2,5.9,3.4,9,4.6
						c5.5,2.1,10.3-2.2,9.6-8.3c-0.6-4.9-4.8-7.2-10.1-5.9c-2.5,0.6-4.7,2.8-8.2,2.6c2.6-5.2,5.9-9.1,7.7-14.1
						c0.7-1.9,1.8-1.3,3.2-0.5c4.3,2.6,8.5,5.7,13.7,5.9c4.7-2.3,6.6-5.5,5.5-9.7s-4.4-6.1-9.4-5.2c-1.5,0.3-2.9,0.9-4.3,1.3
						c-1.3,1.4-2.8,2.4-4.8,2.4c-0.6-1.8,1.4-2.4,1.4-3.9c0.8-1,1.7-2,2.5-3c1.9-2.8,3.7-5.8,6.2-8.1c0.4-0.1,0.7-0.3,1.1-0.4
						c0.3-0.1,0.6-0.3,0.9-0.4l0,0c0.4-0.2,0.8-0.4,1.2-0.6c0.2,0,0.5-0.1,0.7-0.3c0.2-0.6,0.6-0.9,1.2-0.7c2.4-0.2,4.3-1.6,6.1-3.1
						C561.1,138.7,562.8,136.2,562,132.8z M512.9,203.8c-0.2-0.8-0.1-1.5,0.7-1.8c-0.1,0.7-0.2,1.4-0.4,2.1
						C513.1,203.9,512.9,203.9,512.9,203.8z"/>
					<path class="st14" d="M476.5,269.7L476.5,269.7C476.5,269.6,476.5,269.6,476.5,269.7C476.4,269.6,476.5,269.7,476.5,269.7z"/>
				</g>
				<path class="st4" d="M520.2,188c-2.2,4.6-4.4,9.3-6.6,13.9l0,0c0-5.6-0.1-11.3-0.1-16.9C515.6,186.3,517.2,189,520.2,188z"/>
				<path class="st4" d="M517.2,179.1c0.9,2.6,4.5,3.5,4,7C518.5,184.8,516.6,182.8,517.2,179.1z"/>
				<path class="st4" d="M528.2,173.1c-0.2,1.3-0.5,2.4-1.6,3.1c-0.6-1.1-0.3-2.1-0.1-3.2C527.1,173.1,527.6,173.1,528.2,173.1z"/>
				<path class="st8" d="M486.2,261.7c-0.8-0.9-0.7-2-0.5-3.1C486.6,259.5,486.5,260.5,486.2,261.7z"/>
				<path class="st4" d="M515.5,176.9c0.4,0.7,0.8,1.4,1.2,2.1C515.6,178.7,515.5,177.9,515.5,176.9z"/>
				<path class="st15" d="M609.6,298.6c2.9-0.7,2.8,1.3,2.7,3.5c-0.7,11.6-2.2,23-4,34.4c-3.7,22.7-9.5,44.7-18.7,65.5
					c-10.2-0.2-20.3-2-30.5-0.1c-11.3,2.1-21.9,5.7-31.2,13.4c-3,2.5-4.9,6.4-8.7,7.7c0-3.3,0-6.6,0-9.9c3-0.7,4.9-3.2,6.3-5.8
					c2.1-4,6.8-6,7.2-11.3l0,0c3.7-1.8,6.7-4.2,7.3-9l0,0c0.3-0.4,0.6-0.9,0.9-1.3c0.4-0.2,0.8-0.4,1.2-0.6c1.6-0.3,1.7-1.6,1.6-3
					l0,0c2.1,0.2,2.9-0.8,2.7-3l0,0c2.2-0.2,3.4-1.6,3.6-4l0,0c2.1-1.4,4.6-2.6,4.5-6l0,0c0.3-0.3,0.7-0.7,1-1
					c1.2-0.6,0.4-2.9,2.2-3c11.7-1.4,23.3-2.8,35.4-4.2c-0.9-1.7-1.8-1.5-2.9-1.4c-8.9,1.2-17.8,2.3-26.7,3.5
					c-1.4,0.2-2.4-0.2-2.6-1.9l0,0c0.3-0.3,0.7-0.7,1-1c1.1-1.3,2.1-2.7,3.2-4c0.4-0.3,0.9-0.7,1.3-1l0,0c0.8-0.4,1-1.2,0.9-2l0,0
					c0.3-0.3,0.6-0.7,0.9-1l0,0c3.2-1,5.4-3,5.5-7l0,0c0.3-0.3,0.6-0.7,0.9-1l0,0c1.2,0.1,2-0.6,2.7-1.4c4.8-5.8,9.8-11.5,14.4-17.5
					c1.4-1.8,3.7-3.1,3.7-6l0,0c3.3-2.1,6-4.8,7.3-9l0,0c1.9-0.1,1.9-1.5,1.8-3l0,0c1.2,0.1,1.7-0.6,1.9-1.7c0.3-0.4,0.6-0.8,1-1.2
					c0.3-0.3,0.5-0.6,0.8-0.9C608.3,301.9,609,300.2,609.6,298.6z"/>
				<path class="st16" d="M557.5,365.1c-1.7,0.1-1,2.4-2.2,3c-0.6,0-1,0.3-1,1l0,0c-2,1.6-4,3.1-4.5,6l0,0c-2,0.4-3,2-3.6,4l0,0
					c-1.2,0.7-2.1,1.7-2.7,3l0,0c-1.1,0.6-1.5,1.8-1.6,3c-0.4,0.2-0.8,0.4-1.2,0.6c-0.3,0.4-0.6,0.9-0.9,1.3l0,0
					c-2.4,1.4-1.8-0.7-1.8-2c2.6-9.9,4.3-20.1,5.7-30.3c-2.5,10-5.3,19.9-6.6,30.3c-0.7,4.1-2.4,7.7-4.6,11l0,0
					c-5.3,4.3-8.5,10.8-13.4,15.4c0-17.4,0-34.8,0-52.2c1.6-0.8,1.8-3.3,3.5-3.9c2.4,1.1,1.5-1.1,1.8-2.1l0,0c3-1.3,5.7-3,6.4-6.9
					c0-0.4,0.1-0.8,0.1-1.2c1.1,0,2.1-0.3,1.7-1.9l0,0c0.7,0.1,1-0.3,0.9-1h-0.1c1.5,0.6,2.5-0.5,3.6-1.4
					c20.3-18.3,43.5-30.7,67.9-40.8c1.5-0.6,3.1-0.9,4.7-1.4c-0.6,1.7-1.3,3.3-1.9,5c-0.3,0.3-0.5,0.6-0.8,0.9
					c-0.3,0.4-0.6,0.8-1,1.2c-1,0.1-1.9,0.4-1.9,1.7l0,0c-1.2,0.6-2.1,1.3-1.8,3l0,0c-3.6,1.9-6.3,4.6-7.3,9l0,0
					c-8.4,6.9-14.3,16.2-20.8,24.9l0,0c-0.3,0.3-0.6,0.7-0.9,1l0,0c-2.2,2-4.4,4-5.5,7l0,0c-0.3,0.3-0.6,0.7-0.9,1l0,0
					c-0.8,0.4-1.2,1.1-0.9,2l0,0c-0.7-0.1-1,0.4-1.3,1c-1.1,1.3-2.1,2.7-3.2,4c-0.6,0-0.9,0.3-1,1l0,0
					C559,361.9,558.1,363.4,557.5,365.1z"/>
				<path class="st15" d="M576.2,459.8c-9,5-18.3,9.2-28.5,9.6c-9.6,0.5-18.7-2.2-26.5-8.8c-0.6-0.5-1.3-0.6-2-1
					c0-5.3,0-10.6,0-15.9c4.8,0.6,8.8-2.6,13.2-3.9c16.7-5.2,33.6-9.1,50.1-14.8c10.7-3.7,21.8-6,32.6-9.4c3.5-1.1,7-3.8,11.1-2.3
					c-7.8,11.7-17.8,21-27.9,30.2C591.4,449.7,583.9,455,576.2,459.8z"/>
				<path class="st17" d="M626.1,413.3c-4-1.4-7.5,1.2-11.1,2.3c-10.8,3.4-21.9,5.6-32.6,9.4c-16.5,5.8-33.5,9.7-50.1,14.8
					c-4.4,1.4-8.3,4.5-13.2,3.9c0-6.9,0-13.9,0-20.8c3.8-1.3,5.7-5.2,8.7-7.7c9.3-7.7,19.9-11.3,31.2-13.4
					c10.2-1.9,20.3-0.1,30.5,0.1c10.9,2.2,21.9,4.3,32.5,7.9c1.3,0.4,2.6,0.9,3.8,1.4c0.1,0.6,0.2,1.2,0.3,1.9L626.1,413.3z"/>
				<path class="st6" d="M498.2,281.5c6.5-7.1,12.8-14.3,17.2-23.2c3-0.5,3.7-3.7,5.6-5.5c4.2-5.6,8.4-11.3,12.5-16.9
					c7.5-9.7,15-19.4,22.3-29.3c1.9-2.5,3.1-2.7,5.3-0.6c13.7,12.7,27.4,25.4,41.2,37.9c2,1.9,2.5,2.9,0.6,5.4
					c-22.2,29.2-44.4,58.5-66.5,87.8c-0.2,0.2-0.5,0.3-0.8,0.5c-0.8-1.3-1.5-2.6-2.3-3.9c10.5-13.8,21.1-27.6,31.6-41.4
					c10.2-13.5,20.2-27.1,30.6-40.4c3.1-4,2.6-6.1-0.9-9.2c-11.1-9.8-22-20-32.9-30.2c-2.1-1.9-3.4-2-5.2,0.4
					c-20.1,26.6-40.2,53.2-60.3,79.7c-1.2-0.8-2.1-1.8-2.7-3.3C494.9,286.5,497.7,284.8,498.2,281.5z"/>
				<path class="st10" d="M612.1,284.5c-0.2,0-1.4,0.1-2.2-0.4c-4.3-2.7-8.6-3.1-13.2-0.8c-2.4,1.2-4.6-0.6-5.5-3
					c-1-2.6,1.5-3.7,3-4.7c4.8-3.1,9.9-1.1,14.8-0.7c2.1,0.2,4.1,0.9,6.1,1.5c1.6,0.5,4.7-1,4.1,2.6c-0.4,2.6-1.9,5.2-5,5.5
					C613.8,284.6,613.4,284.5,612.1,284.5z"/>
				<path class="st6" d="M522.7,355.2c-1.8,0.6-1.9,3.1-3.5,3.9c0-2.3,0-4.5,0-6.8c4-4.6,7.9-9.1,10.6-14.8c1.9,0,3.9,0.1,5.8,0.1
					c-0.3,1.8-2.4,2.5-2.2,4.6h0.1c-0.7-0.1-1,0.2-0.9,1l0,0c-1.4-0.3-1.8,0.5-1.7,1.9c0,0.4-0.1,0.8-0.1,1.2
					c-3.1,1.3-5.1,3.7-6.4,6.9l0,0C523.9,353.8,523.3,354.5,522.7,355.2z"/>
				<path class="st15" d="M626.1,413.2c-0.1-0.6-0.2-1.2-0.3-1.9C627.1,411.7,627.3,412.3,626.1,413.2z"/>
				<path class="st18" d="M201.9,402c-9.3-21.5-15.5-44.1-19-67.5c-1.7-11.3-3.3-22.5-3.5-34c1.1,0.3,2.1,0.5,3.1,0.8l0,0
					c0,2.1,1.2,3.2,2.7,4l0,0c0,1.3,0.6,2,1.8,2l0,0c0.2,2.4,1.4,3.8,3.6,4l0,0c0.9,4.5,3.4,7.4,7.3,9l0,0c-0.1,0.9,0.1,1.6,0.9,2
					l0,0c0.3,0.3,0.6,0.7,0.9,1l0,0c0.8,3.2,2.5,5.3,5.5,6l0,0c-0.1,0.9,0.1,1.6,0.9,2l0,0c0,1.3,0.6,2,1.8,2l0,0
					c1.5,3.9,3.8,7,7.3,9l0,0c0.7,3.4,3.1,5.1,5.4,7l0,0c0,1.3,0.6,2,1.8,2l0,0c1.2,4.8,6,6.8,7.5,11.9c-13.2-1.6-26.3-3.2-39.5-4.7
					c0.2,1.3,0.5,1.7,0.9,1.8c14.9,2.2,30.2,2,44.7,7.1l0,0c-0.1,0.9,0,1.7,0.9,2l0,0c0,1.3,0.6,2.1,1.8,2l0,0
					c-0.2,2.3,0.7,3.3,2.7,3l0,0c0,0.9,0,1.7,0.9,2l0,0c3,7.5,9.1,12.3,13.8,18.3c1.9,2.4,2.8,4.6,2.5,8.2c1-1.6,0.7-4,2.8-2.5
					c0,4.3,0,8.6,0,12.8c-4.8-1.7-8.5-6.1-13.7-6.9c-1.3-1-2.4-2.6-4.3-1.9c-0.4-0.4-0.7-0.8-1.1-1.2c0.9-2,4.3-3.8,1.4-6.1
					c-2.5-2-3.9,1.2-4.8,3.3c-0.6,1.4-1.1,1.7-2.3,1.1s-2.3-0.6-3.3,0.7C222.7,400.2,212.3,400.9,201.9,402z M236.2,396.6
					c1.4,0.1,1.4-1,1.3-1.9c-0.1-1.9-0.1-4.2-2.5-4.4c-1.4-0.1-2,1.3-1.9,2.7C233.2,395.2,234.8,395.9,236.2,396.6z"/>
				<path class="st16" d="M180.6,298.6c6.8,0.1,12.6,4.1,18.6,6.8c16.5,7.5,32.2,16.8,46.9,28c0.8,0.6,1.4,1.2,1.7,2.2
					c0.4,3.6,3.1,0.8,4.5,1.9c2.2,4.3,6.4,6.5,9.2,10.2c0,13.6,0.1,27.1,0.1,40.7l0,0c0,2.1,0,4.2,0,6.3c-0.2,0.7-0.4,1.5-0.6,2.2
					c-6-3.5-5.7-10.7-8.3-16.4c0.2,2,0.4,4.1,0.7,6.1c-0.2,0.2-0.3,0.3-0.5,0.5c-1.2-1.2-2.3-2.5-3.5-3.7c-2.4-2.5-3.7-6.3-7.2-7.5
					l0,0c0.3-1-0.2-1.6-0.9-2l0,0c-0.6-1.3-1.4-2.5-2.7-3l0,0c-0.1-1.2-0.6-2-1.8-2l0,0c0.2-1-0.2-1.6-0.9-2l0,0
					c-2-2.6-4-5.4-6.1-7.9c-2.3-2.9-4-6.6-7.5-8l0,0c0.1-1.4-0.5-2.2-1.8-2l0,0c-0.5-3.6-2.5-5.7-5.4-7l0,0c-1.2-4.2-3.8-7-7.3-9
					l0,0c0.1-1.5-0.4-2.2-1.8-2l0,0c0.4-1.1-0.1-1.6-0.9-2l0,0c-1.2-2.6-2.6-5.1-5.5-6l0,0c0.1-0.8-0.2-1.1-0.9-1l0,0
					c0.4-1.1-0.1-1.6-0.9-2l0,0c-1.7-3.7-4.3-6.5-7.3-9l0,0c-0.6-2-1.4-3.8-3.6-4l0,0c0.1-1.4-0.5-2.2-1.8-2l0,0
					c0.2-2.3-0.8-3.5-2.7-4l0,0C181.8,300.4,181.2,299.5,180.6,298.6z M250.7,372.4c0.4-0.1,0.8-0.2,1.3-0.3
					c-1.8-8.7-3.6-17.3-5.4-26c-0.4,0.1-0.7,0.2-1.1,0.3C247.2,355.1,248.9,363.7,250.7,372.4z"/>
				<path class="st17" d="M201.9,402c10.4-1.1,20.8-1.8,31.2-0.1c-0.1,6.8,4.6,2,6.8,3.3c2.8,1.7,0.4-2.7,2.2-2.4
					c0.4,0.4,0.7,0.8,1.1,1.2c-0.5,1.8-1.1,3.6-1.6,5.5c-1.8-1.3-3.4-2.6-5.1-0.7c-0.7,0.8-0.8,1.9-0.1,2.7c0.9,1.2,2.2,2.4,3.5,1.7
					c3.1-1.7,6.9-2.8,7.7-7.4c5.2,0.8,8.9,5.2,13.7,6.9c0.1,1.9,0.1,3.7,0.2,5.6c0,1.5,0,3-0.1,4.5c0.1,2.3,0.4,4.6-0.2,6.9
					c-6.9-0.2-6.9-0.2-9.2,7.1c-0.2,0.6-0.5,1.2-0.7,1.8c-2.1-2.3-5.7-1.7-7.3-4.8c3.1-1.1,6.4-1.6,9.1-4.1c2-1.8,4.3-3.4,3.6-6.7
					c-0.8-3.7-3.6-3.4-6.2-3.3c0.2-0.6,0.2-1.4,0.5-1.8c1.3-1.8,1.9-3.8,0.8-5.9c-0.7-1.3-2-1.3-3.2-1.2c-2.5,0.2-2.5,2.4-2.8,4.3
					c-0.5,3.2-2.1,3.6-4.3,2c-1.6-1.2-3.1-2.1-4.7,0c-1.1,1.5-1.8,2.9-0.6,4.8c1.4,2.3,3.2,1.8,5.2,1.4c3.2-0.7,5.8-3.3,9.2-3.6
					c-1,1.7-1.9,3.2-1.9,5.4c0.1,3.4-1.4,3.9-4,2.4c-5.9-3.5-7.7-2.2-7.7,5.1c-1.3,0-2.5,0-3.8,0.1c-0.9,0-1.7,0-2.6,0
					c3-3.9-1.8-4.5-2.4-6.8c-0.3-0.9-1.4-1.4-2.3-0.7c-1.1,0.9-0.6,2,0.1,2.9c0.7,0.8,1.4,1.4,2.2,2.2c-1.1,0.6-2,1-2.9,1.5
					c-0.4-2.7-2.6-2.4-4.1-3c-7.4-2.4-14.9-4.8-22.4-6.9c-11.1-3.1-22.1-6.9-33.4-9c-0.9-2.2,0.9-1.9,1.8-2.2
					c10.2-3.5,20.5-6.1,31-7.9C199.2,402.7,200.5,402.3,201.9,402z"/>
				<path class="st15" d="M165.1,413c11.4,2.1,22.3,5.9,33.4,9c7.5,2.1,14.9,4.5,22.4,6.9c1.6,0.5,3.8,0.3,4.1,3
					c0.6,3.3,2.9,1.4,4.5,1.7c0,0.4,0,0.9,0.1,1.3c-0.6,1.3-3,0.5-2.7,2.9c0,1.1,0.1,2.2,0.1,3.3c-1,1.6-0.8,2.9,0.9,3.7
					c0,0.5,0.1,0.9,0.1,1.4c-1.6,6,2.3,4.5,5,4.5c0.8,0.2,1.5,0.1,1.9-0.8c0.5-0.7,1-1.1,1.9-1c0.2,1.2-0.4,2.1-0.8,3.1
					c-1,0.2-1.6,0.9-1.8,2h-0.1c-0.3-0.1-0.6-0.1-0.9-0.2c-1.8-0.9-3.6-3-5.5-0.9c-1.5,1.7-0.9,3.6,0.9,5c0.1,0.7,0.2,1.5,0.3,2.2
					c-0.3,2.2-0.5,5,2.3,4.6c4.9-0.7,9.9-1.6,13-6.6c6.4,0.2,11.7-3.5,17.3-5.9c0.2,2.3,0.3,4.6,0.5,6.9c-5.5,7-5.5,7-12.1,2.3
					c-3.8-2.7-5.3-2-7.8,3.2c-1.9,3.8-4.1,5.7-7.5,1.9c-1.3-1.4-2.8-0.5-4.1,0.2c-5.2-1.5-9.9-4.1-14.6-6.8
					C196,448.1,179.2,432.2,165.1,413z"/>
				<path class="st11" d="M252.2,337.6c-1.3-1.1-4,1.7-4.5-1.9c3.7-3.7,8-6.9,10.1-12.1c1.9,0,2.7-1.4,3.4-3.1
					c6.7-6,12.5-13.1,18.3-20c6.8-7.5,13.7-15,20.5-22.5c3.1-3.8,7-6.9,9.5-11.3c3-1.7,4.9-4.6,6.8-7.5c3.6-1.7,4.8-6.9,9-7.6
					c1,4.4,5.7,5.1,7.2,9c-2.3-0.8-3.2,1.4-4.4,2.7c-6.5,7.1-12.9,14.3-19.3,21.5c-15.7,17.6-31.4,35.2-47.1,52.7
					c-0.8,0-1.7,0-2.5,0c-0.3-0.2-0.5-0.2-0.8,0C256.4,337.5,254.3,337.6,252.2,337.6z"/>
				<path class="st10" d="M202.8,288.5c5.9,1.1,11.3,2,16.9,2.1c2.8,0.1,3.6,4,1.4,6.4c-2.4,2.7-5.4,4.7-8.8,2.2
					c-3.9-2.9-7.6-3.3-11.8-1c-0.6,0.3-1.5,0.2-2.2,0.2c-1.9,0.1-3.2-0.9-3.9-2.7c-0.7-2,0.5-3.1,1.7-4.6
					C198.2,288.7,201.1,290,202.8,288.5z"/>
				<path class="st17" d="M180.6,298.6c0.6,0.9,1.3,1.9,1.9,2.8c-1-0.3-2.1-0.5-3.1-0.8c-0.4-0.9-0.6-1.7,0.5-2.1l0.3,0.2
					L180.6,298.6L180.6,298.6z"/>
				<path class="st16" d="M180.5,298.5l-0.3,0.1l-0.3-0.2c0.1-0.4,0.3-0.9,0.4-1.3C180.3,297.6,180.4,298.1,180.5,298.5z"/>
				<path class="st19" d="M290.1,356.2c-4.9-2.1-9.9-2.1-14.8,0.1c-4.8,6.1-0.3-0.8-6.7,7.7c-0.4,2-1.5,3.9-1.2,6.1
					c-0.5,13.9-0.3,27.8-0.1,41.7c-0.5,0.7-0.5,1.4,0,2.1c0,0.6,0,1.2,0,1.7c-0.6,1.1-0.1,2.8-1.7,3.3c-1.4-0.2-2.9-0.3-4.3-0.5
					c-0.1-1.9-0.1-3.7-0.2-5.6c0-4.3,0-8.6,0-12.8c0.1-0.8,0.1-1.7,0.2-2.5c0.4-0.9,0.5-1.8,0.1-2.8c0-2.1,0-4.2,0-6.3l0,0
					c0-13.6-0.1-27.1-0.1-40.7c0.1-3.4,0.2-6.8,0.3-10.2c15.7-17.6,31.4-35.2,47.1-52.7c6.4-7.2,12.9-14.4,19.3-21.5
					c1.2-1.3,2.1-3.5,4.4-2.7c12.8,14.4,25.6,28.9,38.5,43.3c10,11.2,20.1,22.4,30.2,33.5c0,43.1,0.1,86.1,0.1,129.2
					c-15.1,0-30.2,0.1-45.3,0.1c0-9.8-0.1-19.6-0.1-29.3c0-25.4,0-50.7,0-76.1c0-2.5,0.6-5.5-3.3-4.1c-14.6-0.1-29.2-0.2-43.8-0.2
					c-6.5,0-5.7-0.9-5.8,6.4c-0.1,34.5-0.1,68.9-0.2,103.4c-11.3-0.1-22.5-0.2-33.8-0.3c1.2-2.7,1.5-5.2-0.7-7.5
					c-2.1-2.1-4.3-1.3-6.5,0c-0.2-2.3-0.3-4.6-0.5-6.9c4.7-4,4.8-6.7,0.4-10.3c-0.3-1.5,0.4-3.3-0.6-4.7c1.5-2.4,0.8-4.7-0.1-7.1
					c0.6-2.3,0.3-4.6,0.2-6.9c1.5-1.2,3.2-0.8,4.8-0.8c9.4,0,18.9-0.1,28.3,0c3,0.1,4.6-0.7,3.8-4.4c0-1.3,0-2.6,0-4
					c0-6.3,0-12.6,0-18.9c-0.2-10.4,1.5-20.9-1.3-31.1 M365.4,363.4c-1.5,4-2,8.3-1.9,12.6c0.1,12.9,0,25.9,0,38.8
					c0,2.3,0.2,4.5-2.9,4c-1.2-0.2-2.6-0.2-2.5,1.9c0.1,2,1.6,1.6,2.7,1.7c0.9,0,1.8-0.3,2.6-0.4c9.6,0,19.3,0,28.9,0
					c1,0.6,1.8,0.6,2.1-0.8c1.2-1.4,0.6-3.1,0.6-4.7c0.1-13.5,0-27,0.1-40.5c0-4.3-0.4-8.5-1.9-12.6 M386.7,356.3
					c-4.9-2.2-9.9-2.2-14.8-0.1 M319.1,330.1c5.1,0.1,10.2,0.2,15.3,0.3c2,0,3-1,3-3.3c0-11.1-0.1-22.1,0-33.2c0-2.4-0.4-3.9-3-3.2
					c-4.3-0.1-8.7,0-13-0.2c-2.6-0.1-3.3,0.8-3.3,3.6c0.1,11,0,22.1,0.1,33.1C318.2,328.1,317.7,329.5,319.1,330.1z"/>
				<path class="st20" d="M401.4,466.6c0-43.1-0.1-86.1-0.1-129.2c7.4,0.1,14.8,0.2,22.2,0.3c-0.1,0.6-0.2,1.4-0.4,1.9
					c-7.4,14.3-6.9,29.8-5.9,45.4c1.8,2.2-0.2,4.2-0.3,6.3c-0.1,1.8-0.1,3.7,1.8,4.7c1.4,0.7,2.6,1,3.4-0.8c0.7-1.6,3.8-1.9,1.9-4.9
					c-0.7-1.1-0.8-2.8-1.1-4.2c1.9-1.8,1.7-4.4,2-6.8c0.8-6.3,1.2-12.7,3.8-18.7c0.6,2.8,0.5,5.5,0.7,8.2c0.4,5.7-0.8,11.5,0.9,17.1
					c0.6,26.9,1.2,53.9,1.9,80.8C421.8,466.7,411.6,466.6,401.4,466.6z"/>
				<path class="st20" d="M519.2,352.3c0,2.3,0,4.5,0,6.8c0,17.4,0,34.8,0,52.2c0,0.6,0,1.1,0,1.7c0,3.3,0,6.6,0,9.9
					c0,6.9,0,13.9,0,20.8c0,5.3,0,10.6,0,15.9c-0.1,1.3-0.3,2.7-0.1,4c0.2,2.4-0.7,3.1-2.8,3.1c-5.1-0.1-10.2,0.1-15.4,0.2
					c-2.7-5.5-1.8-11.9-3.5-17.7c2.9-0.5,2.9-2.8,2.5-5.2c-0.9-7.2-1.7-14.5-2.7-21.7c-1.6-11.3-2.2-22.7-4.4-33.9
					c2-1.9,0.9-4.4,0.6-6.5c-1.2-7.5-2.5-14.9-3.9-22.4c-0.6-3.4-0.8-5.7,3.5-3.7c2.4,1.1,5.6,2.6,7.7,0c4.2-5.1,8-10.7,9.5-17.7
					c0.4-0.3,0.8-0.6,1.2-1c2.5,0.1,5.1,0.3,7.6,0.4C518.9,342.5,519,347.4,519.2,352.3z"/>
				<path class="st21" d="M432.1,466.7c-0.6-26.9-1.2-53.9-1.9-80.8c9.4-0.1,18.8,1.8,28-1.3c0.2,4.8,0.5,9.6,0.6,14.4
					c0.9,22.5,1.8,45,2.8,67.5c-0.5,0.2-1,0.4-1.5,0.5c-2,0.1-4,0.2-6,0.2c-0.6-0.3-1.2-0.5-1.8-0.8c-1.5-19.5-3.5-39-5.7-58.4
					c-0.5,0-1,0-1.5-0.1c-2.1,19.4-4.1,38.9-6.2,58.3c-0.5,0.8-1,1.5-1.6,2.3c-1.1,0-2.2,0-3.2,0C433.5,468,432.8,467.3,432.1,466.7
					z"/>
				<path class="st20" d="M439,466.4c2.1-19.4,4.1-38.9,6.2-58.3c0.5,0,1,0,1.5,0.1c2.3,19.4,4.2,38.9,5.7,58.4
					C447.9,467,443.5,467,439,466.4z"/>
				<path class="st20" d="M493.7,466.8c-6,0-12,0-18,0c-0.6-5,1.3-9.8,1-14.8c4.7-0.4,9.5-0.8,14.2-1.2
					C491.4,456.2,494.8,461,493.7,466.8z"/>
				<path class="st22" d="M355.2,467.2c-0.9-3.7-0.9-7.5-0.9-11.3c0-29,0-58,0-87c0-3.1,0-6.2,0.3-9.3c0.2-1.9-0.7-2.3-2-2.5
					c3.9-1.4,3.3,1.7,3.3,4.1c0,25.4,0,50.7,0,76.1c0,9.8,0.1,19.6,0.1,29.3C355.8,466.8,355.5,467,355.2,467.2z"/>
				<path class="st14" d="M261.9,459c2.2-1.3,4.3-2.1,6.5,0c2.2,2.2,1.9,4.8,0.7,7.5c-1.2,0.6-2.4,1.5-3.6,1.7c-6,0.7-12,1.1-18,1.7
					c0.3-4.6-2.2-5.4-5.6-5.2c2.5-5.3,4-5.9,7.8-3.2C256.4,465.9,256.4,465.9,261.9,459z"/>
				<path class="st23" d="M493.7,466.8c1.1-5.7-2.3-10.5-2.8-16c2.1-0.4,1.9-2,1.9-3.7c0-4.2,0-8.3,0-13.8c2.9,5.8,1.7,11.6,4.6,16
					c1.7,5.8,0.8,12.2,3.5,17.7c-0.2,0.2-0.5,0.4-0.7,0.6c-2.7,0.8-4.1,4.9-7.7,3.8C492.9,469.8,494.1,468.6,493.7,466.8z"/>
				<path class="st23" d="M476.7,452c0.3,5-1.6,9.8-1,14.8c-0.3,1.3-0.7,2.6-1,3.9c-2.9,1.3-5.6,3.6-9,2.5c0.1-0.4,0.1-0.9,0.2-1.3
					c2-0.5,3.3-1.7,3.3-4.1c2.1-5.2,0.5-10.6,1.1-15.9C472.4,451.9,474.5,452,476.7,452z"/>
				<path class="st22" d="M434.2,468.6c1.1,0,2.2,0,3.2,0c2.6,1.5,5.2,3,7.7,4.6c0.8,0.5,1.5,1.3,1.2,2.4c-0.3,1.2-1.4,1-2.3,1
					c-1.6,0-3.3,0-4.9-0.1C432.5,476.5,432.1,475.9,434.2,468.6z"/>
				<path class="st24" d="M242,464.5c3.4-0.2,5.9,0.7,5.6,5.2c-0.9,0.2-1.8,0.4-2.7,0.6c-0.4-0.4-0.6-0.3-0.9,0.1
					c-2.9,0.4-5.8,0.7-8.8,1.2c-3.5,0.5-5.5-0.6-4.9-5c1.3-0.7,2.8-1.6,4.1-0.2C237.9,470.2,240.1,468.3,242,464.5z"/>
				<path class="st22" d="M465.8,471.9c-0.1,0.4-0.1,0.9-0.2,1.3c-1.3,0.8-2.2,2-2.9,3.4c-0.4,0-0.9,0-1.3,0
					c-5.9-0.1-5.9-0.1-5.3-6.5c1.4,0.1,2.9,0.1,4.2-0.7C462.1,470.2,464,471.1,465.8,471.9z"/>
				<path class="st25" d="M492.5,471.4c3.5,1.1,4.9-3,7.7-3.8c-0.3,5.5-3.6,8.3-10.3,8.5C489.8,473.8,490.8,472.4,492.5,471.4z"/>
				<path class="st25" d="M462.7,476.6c0.7-1.4,1.6-2.6,2.9-3.4c3.5,1.1,6.1-1.1,9-2.5c0.5,3.5-1.3,5.3-4.1,5.6
					C467.9,476.6,465.3,477.5,462.7,476.6z"/>
				<path class="st23" d="M460.2,469.3c-1.3,0.8-2.8,0.8-4.2,0.7c-0.3-1.2-0.2-2.8-1.9-2.8c2-0.1,4-0.2,6-0.2
					C460.2,467.8,460.2,468.6,460.2,469.3z"/>
				<path class="st21" d="M244,470.5c0.2-0.5,0.5-0.6,0.9-0.1C244.5,470.4,244.3,470.4,244,470.5z"/>
				<path class="st8" d="M279.6,300.4c-5.9,6.9-11.6,14-18.3,20c-2.7-6.6-7.3-11.7-11.1-17.4c-18.4-27.6-37.1-55-55.7-82.4
					c-1.8-2.7-3.5-5.4-5.4-7.9c-1.7-2.1-1.5-3.7,0.5-5.3c16.5-13.5,33.1-27,49.5-40.6c2.3-1.9,2.8,0,3.7,1.2
					c7.2,10.6,14.4,21.2,21.6,31.8c15.1,22.3,30.2,44.6,45.3,66.9c-2.5,4.4-6.4,7.5-9.5,11.3c-2-2.5-0.5-5.4-0.5-8
					c0.1-6.6-1-12.8-4.4-18.3c-0.8-1.3-1.5-2.5-3.2-1.2c-1.4,1.1-1.5,2.1-0.8,3.8c0.8,1.8,1.4,3.6,2.1,5.5c0.8,2.1-0.2,3.1-1.9,3.6
					c-1.6,0.5-2.6,0-3-1.9c-0.7-3.1-2.2-5.9-4-8.3c-3.4-4.5-9.8-3.9-11.1,0.9c-0.8,2.8-0.6,5.9,0.3,8.8c1,3.3,1.4,6.8,1.3,10.3
					c-0.1,9.1-7.5,16.2-15.2,12.9c-5.3-2.2-9.4-3.1-14,0.6c-0.2,0.2-0.2,0.5-0.4,1c1.8,2.9,4.1,5.5,6.7,7.7
					C260.4,302.3,269.8,302.6,279.6,300.4z M286.6,241.8c-14-10.8-33.7-6.2-42.5,9.9c-5.5,10.1-5.6,24.6-0.1,32.8 M244,284.5
					c5.3-4.5,5.1-9.7,2-15.6c-1-1.9,0.4-3.4,2.3-3.9c2.1-0.6,2.6,0.7,2.9,2.6c0.8,4.6,2.7,8.4,6.1,11.2c2.3,1.9,4.6,2.1,7.2,0.7
					c2.5-1.4,4-3.4,3.9-6.6c-0.1-2.3,0-4.6-0.6-6.9c-0.8-3-1.3-6.1-1.4-9.3c-0.1-5.2,1.8-9.1,5.8-11.5s8.2-2.2,12,0.7
					c1.8,1.3,3.6,2.8,5,0.4 M248.2,228.4c0.1-3.9-2.8-7.4-6.3-7.6c-4.2-0.2-7.5,2.9-7.6,7.2c-0.1,4,3.1,7.6,6.8,7.7
					C245,235.8,248.1,232.6,248.2,228.4z"/>
				<path class="st8" d="M325.4,251.6c-4.3,0.7-5.5,5.9-9,7.6c-5.6-15.2-11.2-30.3-16.9-45.5c-7.1-19-14.2-37.9-21.4-56.9
					c-0.8-2-0.8-3.2,1.3-4.2c14.3-6.5,28.7-13,42.9-19.7c3.3-1.6,3.9,0.7,4.8,3c7.2,19.3,14.4,38.5,21.7,57.8
					c6.3,16.8,12.7,33.6,19,50.5c0.8,2.3,2.2,4.4,1.8,7.1c-1.8,0-3.5,0-5.3,0c-0.3,0-0.6,0-0.9,0c-5.3-0.1-10.7-0.1-16-0.2
					c-0.4-3.6-2.2-6-5.4-6.1c-3.4-0.1-5.2,2.6-6,6.2C332.5,251.4,328.9,251.5,325.4,251.6z M314.9,185.1c3.2-0.4,5.1-2.2,5.1-6.1
					c0-3.8-2.3-5.5-5.1-5.7c-3.2-0.2-5.5,2-5.5,5.7C309.3,182.7,311.5,184.6,314.9,185.1z"/>
				<path class="st3" d="M310.4,255.3c0.5,1,1.1,1.9,0.2,3c-0.4-0.7-0.7-1.4-1.1-2.1C309.7,255.9,310.1,255.6,310.4,255.3z"/>
				<path class="st3" d="M339.1,155.1c0.2,0.4,0.4,0.8,0.6,1.2C339.5,155.9,339.3,155.5,339.1,155.1z"/>
				<path class="st4" d="M521,252.8c-1.9,1.9-2.6,5.1-5.6,5.5c-5.2-1.1-9.5,1.9-14.1,3.5c-4.8,1.7-8.9,5.4-13.9,6.6
					c3.3-8.5,7.4-16.6,10.1-25.4C505.3,246.2,513.2,249.5,521,252.8z"/>
				<path class="st4" d="M513.6,201.9c-0.1,0.7-0.2,1.4-0.4,2.2c-0.1-0.1-0.3-0.2-0.3-0.3C512.7,203,512.8,202.3,513.6,201.9
					L513.6,201.9z"/>
				<path class="st8" d="M496.3,292.5c20.1-26.6,40.2-53.1,60.3-79.7c1.8-2.4,3.1-2.3,5.2-0.4c10.9,10.2,21.8,20.4,32.9,30.2
					c3.5,3.1,4,5.2,0.9,9.2c-10.4,13.3-20.4,26.9-30.6,40.4c-10.5,13.8-21.1,27.6-31.6,41.4C520.6,320.4,508.5,306.5,496.3,292.5z
					 M561.6,259c-0.1-4.2-2.4-6-5.5-6.1c-3.1,0-5.1,2.3-5.1,5.7c0,3.5,1.7,6,5.3,6C559.6,264.6,561.3,262.4,561.6,259z"/>
				<path class="st26" d="M458.2,384.6c-9.2,3.1-18.7,1.2-28,1.3c-1.6-5.6-0.5-11.4-0.9-17.1c-0.2-2.7,0-5.4-0.7-8.2
					c-2.6,6-3,12.4-3.8,18.7c-0.3,2.4,0,5-2,6.8c-1.8-1.2-3.8-0.7-5.7-1c-1-15.6-1.5-31.1,5.9-45.4c0.3-0.6,0.3-1.3,0.4-1.9
					c4.5-4.7,9.9-7.4,15.8-8.9c2.7,0.8,5.3,1,7.4-1.6c2.1-0.1,4.2-0.2,6.3-0.4c1.7,0.4,4.2,0.3,4.5,2.6c0.5,4.5,3.8,5.3,6.5,7.1
					c-3.2,2.4-4.7,5.8-4.6,10.1c0.2,4.1,0.1,8.2,0.1,12.3c-0.1,5.4-0.1,10.8-0.3,16.2C459.1,378.2,460.1,381.6,458.2,384.6z"/>
				<path class="st10" d="M459.6,358.9c0-4.1,0-8.2-0.1-12.3c-0.2-4.4,1.3-7.7,4.6-10.1c2.6,0.4,4.5-1.8,6.9-2.2
					c2.2,2.2,4.4,1.2,6.6-0.1c4.1,0.1,8.2,0.1,11.7,3c0.1,0.3,0.2,0.5,0.5,0.6c5.5,9.3,6.9,9.6,13.7,2.1c0.5-0.6,0.8-1.4,1.2-2.1
					c0.6-0.3,1.1-0.6,1.7-1c1.3,0.5,2.5,1,3.8,1.4c-1.5,7-5.3,12.5-9.5,17.7c-2.1,2.6-5.2,1.1-7.7,0c-4.3-2-4.1,0.3-3.5,3.7
					c1.4,7.4,2.8,14.9,3.9,22.4c0.3,2.1,1.4,4.5-0.6,6.5c-8.7,3.2-17.5,5.6-26.8,3.6c-1.4-1.8-1.1-4-1.1-6.1
					c-0.1-8-0.1-16.1-0.3-24.1c0-1.7,0.6-4.1-0.8-5.1C462.1,355.7,461,358.2,459.6,358.9z"/>
				<path class="st24" d="M489.2,337.1c-3.5-2.9-7.6-2.9-11.7-3c-0.6-4.1-1.4-8.2,1.9-11.4c0.7-0.7,1-2.2-0.2-2.2
					c-4.2-0.3-5.6-4.9-8.9-6.6c-0.9-0.5-1.3-1.8-2.6-0.6c-5.5,5.6-3.9,12.7,0.8,16.5c1.6,1.3,2.1,2.5,2.3,4.4
					c-2.4,0.4-4.3,2.6-6.9,2.2c-2.6-1.8-6-2.6-6.5-7.1c-0.3-2.2-2.8-2.2-4.5-2.6c3.5-2.9,7-5.7,4.7-11.5c-0.2-0.4,0.3-1.5,0.6-1.7
					c5.5-1.9,9.5-7.7,15.9-7.2c3.9,0.3,10.4,7.8,12.5,11.3c3,4.8,2.9,10.2,4.6,15c1,2.9,0.1,2.6-1.3,3.3
					C489.7,336.2,489.5,336.8,489.2,337.1z M487.8,333.4c-0.2,0.1-0.5,0.3-0.7,0.4c0.2,0.1,0.5,0.4,0.7,0.4s0.5-0.2,0.7-0.4
					C488.3,333.6,488.1,333.5,487.8,333.4z"/>
				<path class="st23" d="M446.8,327.1c-2.1,2.7-4.7,2.4-7.4,1.6c0.3-4.3,0.1-8.2-4.3-10.3c-1.4-0.7-0.5-1.9,0.6-2.5
					c3.3-7.4,3.3-7.1,8.1-7.8c3.1-0.4,4.2,2.4,6.4,3.3c-0.5,4,1,8.7-3.4,11.5C445.6,323.8,446.7,325.7,446.8,327.1z"/>
				<path class="st24" d="M450.2,311.5c-2.2-0.9-3.3-3.7-6.4-3.3c-4.8,0.7-4.9,0.4-8.1,7.8c-2.3-2.1-5.1-3.9-3.8-7.9
					c1.4-4.3,2.9-8.6,8.3-7.7c1.3,0.2,2.8-0.2,4,0.2c3.1,0.8,6.8,1.1,5.2,6.7C449.1,308.4,449.9,310.1,450.2,311.5z"/>
				<path class="st4" d="M498.2,281.5c-0.5,3.3-3.3,5-4.5,7.8c-4-3.4-7.5-7.4-10.7-11.8c1.4-3.5,3.2-3.3,5.8-1.2
					C491.6,278.6,494.5,281.1,498.2,281.5z"/>
				<path class="st8" d="M519.2,352.3c-0.1-4.9-0.2-9.7-0.3-14.6c3.6-0.1,7.3-0.1,10.9-0.2C527,343.1,523.1,347.7,519.2,352.3z"/>
				<path class="st20" d="M504.6,337.8c-0.4,0.7-0.7,1.5-1.2,2.1c-6.8,7.5-8.2,7.3-13.7-2.1C494.7,337.2,499.6,337.2,504.6,337.8z"
					/>
				<path class="st23" d="M510,338.2c-1.3-0.5-2.5-1-3.8-1.4c0.2-2,0.4-3.9,0.7-5.9c0.4-2.7,3.6-1.8,4.5-4c0.2-0.5,1.7,0.9,2.4,1.8
					c1.2,1.7,0.8,3.3-0.4,4.9c-0.8,1.2-1.5,2.5-2.3,3.7C510.8,337.6,510.4,337.9,510,338.2z"/>
				<path class="st6" d="M336,251.3c0.7-3.5,2.5-6.3,6-6.2c3.2,0.1,5,2.5,5.4,6.1C343.6,251.8,339.8,251.7,336,251.3z"/>
				<path class="st4" d="M476.4,269.6c1.6,0.7,3.2,1.5,4.7,2.2c2.3,1.1,1.9,2.8,0.8,4.7C479.9,274.5,477,273.1,476.4,269.6z"/>
				<path class="st4" d="M474.7,268.6c0.7,0.2,1.4,0.2,1.8,1.1C475.5,270.2,475.2,269.3,474.7,268.6z"/>
				<path class="st6" d="M363.4,251.4c0.3,0,0.6,0,0.9,0C364,251.4,363.7,251.4,363.4,251.4z"/>
				<path class="st17" d="M574.2,344.2c6.6-8.7,12.5-18.1,20.8-24.9c0,2.9-2.3,4.2-3.7,6c-4.6,6-9.6,11.7-14.4,17.5
					C576.2,343.6,575.4,344.3,574.2,344.2z"/>
				<path class="st17" d="M557.5,365.1c0.7-1.7,1.6-3.2,3.2-4c0.2,1.7,1.2,2.1,2.6,1.9c8.9-1.2,17.8-2.3,26.7-3.5
					c1.1-0.1,2-0.3,2.9,1.4C580.8,362.3,569.1,363.7,557.5,365.1z"/>
				<path class="st17" d="M519.2,413c0-0.6,0-1.1,0-1.7c4.9-4.7,8.1-11.1,13.4-15.4c-0.3,5.3-5.1,7.3-7.2,11.3
					C524.1,409.8,522.2,412.3,519.2,413z"/>
				<path class="st17" d="M532.6,395.9c2.2-3.3,3.8-6.9,4.6-11c0.3,0,0.6,0,0.9,0.1c0,1.3-0.6,3.3,1.8,2
					C539.3,391.8,536.2,394.2,532.6,395.9z"/>
				<path class="st17" d="M595,319.3c1-4.4,3.7-7.1,7.3-9C601,314.5,598.3,317.2,595,319.3z"/>
				<path class="st17" d="M567.9,352.1c1.1-3,3.3-5,5.5-7C573.2,349.1,571,351.1,567.9,352.1z"/>
				<path class="st17" d="M549.8,375c0.5-2.9,2.6-4.4,4.5-6C554.3,372.5,551.9,373.6,549.8,375z"/>
				<path class="st17" d="M546.1,379c0.6-2,1.6-3.6,3.6-4C549.6,377.5,548.4,378.8,546.1,379z"/>
				<path class="st17" d="M543.5,382c0.6-1.3,1.5-2.4,2.7-3C546.4,381.2,545.5,382.3,543.5,382z"/>
				<path class="st17" d="M602.2,310.3c-0.3-1.7,0.7-2.4,1.8-3C604.2,308.9,604.1,310.3,602.2,310.3z"/>
				<path class="st17" d="M541.9,385c0.1-1.3,0.5-2.4,1.6-3C543.6,383.4,543.5,384.7,541.9,385z"/>
				<path class="st17" d="M604.1,307.4c0-1.4,0.9-1.6,1.9-1.7C605.7,306.8,605.2,307.5,604.1,307.4z"/>
				<path class="st17" d="M566.1,355.2c-0.2-1,0.1-1.6,0.9-2C567,354,566.9,354.8,566.1,355.2z"/>
				<path class="st17" d="M539.8,387c0.3-0.4,0.6-0.9,0.9-1.3C540.4,386.1,540.1,386.6,539.8,387z"/>
				<path class="st17" d="M564.8,356.1c0.2-0.6,0.6-1.1,1.3-1C565.7,355.5,565.2,355.8,564.8,356.1z"/>
				<path class="st17" d="M554.3,369.1c0-0.7,0.4-1,1-1C555,368.4,554.6,368.7,554.3,369.1z"/>
				<path class="st17" d="M606.9,304.4c0.3-0.3,0.5-0.6,0.8-0.9C607.4,303.8,607.2,304.1,606.9,304.4z"/>
				<path class="st17" d="M560.6,361.1c0.1-0.6,0.4-1,1-1C561.3,360.5,561,360.8,560.6,361.1z"/>
				<path class="st17" d="M573.3,345.2c0.3-0.3,0.6-0.7,0.9-1C573.9,344.5,573.6,344.9,573.3,345.2z"/>
				<path class="st17" d="M567,353.2c0.3-0.3,0.6-0.7,0.9-1C567.6,352.5,567.3,352.8,567,353.2z"/>
				<path class="st15" d="M538,385c-0.3,0-0.6,0-0.9-0.1c1.2-10.3,4-20.3,6.6-30.3C542.3,364.9,540.7,375.1,538,385z"/>
				<path class="st8" d="M524.4,353.2c1.3-3.2,3.3-5.6,6.4-6.9C530.1,350.1,527.4,351.9,524.4,353.2z"/>
				<path class="st8" d="M522.7,355.2c0.6-0.7,1.2-1.4,1.8-2.1C524.2,354.1,525.1,356.3,522.7,355.2z"/>
				<path class="st4" d="M530.9,345.1c-0.1-1.4,0.3-2.2,1.7-1.9C533,344.8,532.1,345.1,530.9,345.1z"/>
				<path class="st4" d="M532.6,343.2c-0.1-0.8,0.2-1.1,0.9-1C533.6,342.9,533.3,343.3,532.6,343.2z"/>
				<path class="st17" d="M222.3,351.1c3.6,1.5,5.2,5.2,7.5,8c2.1,2.6,4.1,5.3,6.1,7.9c-14.6-5-29.8-4.9-44.7-7.1
					c-0.4-0.1-0.7-0.4-0.9-1.8c13.1,1.6,26.2,3.1,39.5,4.7C228.3,357.9,223.5,355.9,222.3,351.1z"/>
				<path class="st17" d="M261.4,397.6c-0.1,0.8-0.1,1.7-0.2,2.5c-2.1-1.5-1.8,0.9-2.8,2.5c0.3-3.6-0.7-5.8-2.5-8.2
					c-4.6-6-10.7-10.8-13.8-18.3c3.5,1.2,4.8,5,7.2,7.5c1.2,1.2,2.3,2.5,3.5,3.7c0.2,0.2,0.5,0.6,0.5,0.5c0.4-0.3,0.2-0.7-0.1-1
					c-0.2-2-0.4-4.1-0.7-6.1c2.6,5.7,2.2,12.9,8.3,16.4C261.1,397.2,261.2,397.4,261.4,397.6z"/>
				<path class="st14" d="M242.1,402.9c-1.8-0.4,0.6,4-2.2,2.4c-2.2-1.3-6.9,3.5-6.8-3.3c0.9-1.2,2.1-1.3,3.3-0.7
					c1.2,0.6,1.7,0.3,2.3-1.1c0.9-2.1,2.3-5.3,4.8-3.3C246.4,399.1,243,401,242.1,402.9z"/>
				<path class="st14" d="M247.5,406c-0.8,4.6-4.6,5.7-7.7,7.4c-1.2,0.7-2.6-0.5-3.5-1.7c-0.6-0.9-0.5-1.9,0.1-2.7
					c1.7-2,3.2-0.6,5.1,0.7c0.6-2,1.1-3.8,1.6-5.5C245.1,403.4,246.2,405,247.5,406z"/>
				<path class="st14" d="M236.2,396.6c-1.5-0.7-3.1-1.4-3.1-3.6c0-1.5,0.5-2.8,1.9-2.7c2.4,0.2,2.4,2.4,2.5,4.4
					C237.6,395.6,237.7,396.7,236.2,396.6z"/>
				<path class="st17" d="M207.8,333.2c3.5,1.9,6.1,4.8,7.3,9C211.6,340.3,209.3,337.1,207.8,333.2z"/>
				<path class="st17" d="M190.6,311.3c3,2.5,5.6,5.3,7.3,9C194,318.7,191.5,315.8,190.6,311.3z"/>
				<path class="st17" d="M215,342.2c2.9,1.3,5,3.4,5.4,7C218.2,347.3,215.7,345.6,215,342.2z"/>
				<path class="st17" d="M199.7,323.3c2.9,0.9,4.2,3.4,5.5,6C202.1,328.5,200.4,326.4,199.7,323.3z"/>
				<path class="st17" d="M187,307.3c2.2,0.2,3.1,2,3.6,4C188.4,311.1,187.2,309.8,187,307.3z"/>
				<path class="st17" d="M182.5,301.4c1.9,0.5,3,1.7,2.7,4C183.7,304.6,182.4,303.5,182.5,301.4z"/>
				<path class="st17" d="M238.6,371c1.4,0.5,2.1,1.7,2.7,3C239.2,374.3,238.3,373.3,238.6,371z"/>
				<path class="st17" d="M206,331.2c1.4-0.2,1.9,0.6,1.8,2C206.6,333.3,206,332.6,206,331.2z"/>
				<path class="st17" d="M236.8,369.1c1.2,0,1.7,0.8,1.8,2C237.3,371.1,236.8,370.4,236.8,369.1z"/>
				<path class="st17" d="M185.2,305.3c1.4-0.2,1.9,0.6,1.8,2C185.8,307.4,185.2,306.7,185.2,305.3z"/>
				<path class="st17" d="M220.5,349.1c1.4-0.2,1.9,0.6,1.8,2C221,351.2,220.5,350.5,220.5,349.1z"/>
				<path class="st17" d="M205.1,329.2c0.8,0.4,1.3,1,0.9,2C205.2,330.9,205,330.1,205.1,329.2z"/>
				<path class="st17" d="M197.8,320.3c0.8,0.4,1.3,1,0.9,2C198,321.9,197.8,321.2,197.8,320.3z"/>
				<path class="st17" d="M241.3,374c0.8,0.4,1.3,1,0.9,2C241.3,375.7,241.2,374.9,241.3,374z"/>
				<path class="st17" d="M235.8,367.1c0.7,0.5,1.2,1,0.9,2C235.8,368.7,235.8,367.9,235.8,367.1z"/>
				<path class="st17" d="M198.7,322.3c0.7-0.1,1,0.3,0.9,1C199.4,323,199,322.6,198.7,322.3z"/>
				<path class="st4" d="M261.8,337.6c-0.1,3.4-0.2,6.8-0.3,10.2c-2.9-3.6-7-5.8-9.2-10.2c2.1,0,4.2,0,6.3,0c0.3,0.5,0.5,0.5,0.8,0
					C260.1,337.5,260.9,337.5,261.8,337.6z"/>
				<path class="st17" d="M250.7,372.4c-1.7-8.7-3.5-17.3-5.2-26c0.4-0.1,0.7-0.2,1.1-0.3c1.8,8.7,3.6,17.3,5.4,26
					C251.5,372.2,251.1,372.3,250.7,372.4z"/>
				<path class="st4" d="M261.4,397.6c-0.2-0.2-0.3-0.4-0.5-0.6c0.2-0.7,0.4-1.5,0.6-2.2C261.9,395.7,261.8,396.7,261.4,397.6z"/>
				<path class="st4" d="M261.5,388.5L261.5,388.5L261.5,388.5z"/>
				<path class="st14" d="M261.1,429.9c0.9,2.3,1.7,4.7,0.1,7.1c-1.4,4.3-5.6,3.8-8.4,5.5c-4.4,2.7-9.1,5-14.4,3.9
					c0.1-1.9-0.4-3.4-1.7-4.7c-0.3-0.4-0.6-0.7-1-1.1c0-1,0-1.9,0.1-2.9c4.3-1.2,8.5-1.9,12.1,2.2c1.2,1.3,2.8,1.2,3.3-1.2
					c0.2-0.6,0.5-1.1,0.7-1.8C254.2,429.7,254.2,429.7,261.1,429.9z"/>
				<path class="st14" d="M236.8,432.8c0-7.4,1.8-8.6,7.7-5.1c2.6,1.5,4.1,1,4-2.4c-0.1-2.2,0.9-3.7,1.9-5.4l0,0
					c2.6,0,5.4-0.4,6.2,3.3c0.7,3.4-1.5,4.9-3.6,6.7c-2.7,2.4-6,2.9-9.1,4.1C241.5,433.8,238.9,434.4,236.8,432.8z"/>
				<path class="st14" d="M250.3,419.9c-3.3,0.3-6,2.8-9.2,3.6c-2,0.4-3.8,0.9-5.2-1.4c-1.2-1.9-0.5-3.3,0.6-4.8
					c1.6-2.2,3-1.2,4.7,0c2.2,1.6,3.8,1.2,4.3-2c0.3-1.9,0.3-4.1,2.8-4.3c1.2-0.1,2.5-0.1,3.2,1.2c1.1,2.1,0.5,4.1-0.8,5.9
					C250.4,418.5,250.4,419.2,250.3,419.9L250.3,419.9z"/>
				<path class="st24" d="M261.4,418.5c1.4,0.2,2.9,0.3,4.3,0.5c2,2.4,2.7-1.4,4.3-1.1c2,1.9,4.4,0.4,6.5,1.1c1.2,1.3,2.4,1.2,3.6,0
					c0.4-0.2,0.8-0.3,1.2-0.5c0.8-0.2,1.7-0.4,2.5-0.6c2.2,2.1,4.8,0.4,7.1,1.2c2.8,2.3,4.9-0.1,7.3-1.1c0.8,3.7-0.8,4.4-3.8,4.4
					c-9.4-0.2-18.9-0.1-28.3,0c-1.6,0-3.3-0.4-4.8,0.8C261.4,421.5,261.4,420,261.4,418.5z"/>
				<path class="st15" d="M236.8,432.8c2.2,1.6,4.7,1,7.1,1.2c1.7,3.1,5.3,2.5,7.3,4.8c-0.5,2.5-2.1,2.6-3.3,1.2
					c-3.6-4.1-7.8-3.4-12.1-2.2c-0.6-1.3-1.8-0.9-2.8-1c0-1.3-0.1-2.7-0.1-4C234.2,432.8,235.5,432.8,236.8,432.8z"/>
				<path class="st22" d="M229.5,433.5c-1.6-0.2-3.8,1.7-4.5-1.7c0.9-0.5,1.8-1,2.9-1.5c-0.8-0.8-1.5-1.4-2.2-2.2
					c-0.8-0.9-1.3-2-0.1-2.9c0.8-0.7,2-0.2,2.3,0.7c0.7,2.4,5.5,2.9,2.4,6.8l0,0C230.1,433.1,229.8,433.3,229.5,433.5z"/>
				<path class="st21" d="M233,432.8c0,1.3,0.1,2.7,0.1,4l0,0c-2.1,0.3-4.1,1.5-6.3,0.9c-0.3-2.4,2.1-1.6,2.7-2.9
					c0.7-0.5,0.9-1.2,0.8-2l0,0C231.2,432.8,232.1,432.8,233,432.8z"/>
				<path class="st14" d="M261.9,441.7c4.4,3.7,4.3,6.3-0.4,10.3c-5.6,2.4-10.9,6-17.3,5.9c-2.4-2.8-2.3-5.9-1.2-9.2
					c0.9,0,1.9,0,2.8,0c0.9,0.5,1.9,1,2.8,1.6c4.8,3.4,4.7,3.4,6.2-2.6C255.8,443.8,257.8,441.2,261.9,441.7z"/>
				<path class="st24" d="M242.9,448.7c-1,3.3-1.2,6.5,1.2,9.2c-3.1,5-8.1,5.9-13,6.6c-2.9,0.4-2.7-2.4-2.3-4.6
					c1.9-1.3,3.6-0.9,5.3,0.5c0.9,0.8,2.1,2,3,0.6c0.8-1.2,1.9-3,1-4.5c-0.9-1.7-2.5-0.3-3.6,0.2c-2,0.8-4,1.2-6.1,1.1
					c-1.8-1.3-2.4-3.3-0.9-5c1.9-2.1,3.8,0,5.5,0.9c0.2,0.6,0.5,0.7,0.9,0.2h0.1c1.2,0,1.8-0.7,1.8-2c0.5-1,1.1-1.9,0.8-3.1l0,0
					c2.1-0.3,4.1-0.5,6.2-0.8C242.9,448.2,242.9,448.5,242.9,448.7z"/>
				<path class="st24" d="M236.7,441.8c1.3,1.2,1.8,2.8,1.7,4.7c-0.6,0.8-1.2,1.5-1.8,2.3l0,0c-0.8-0.1-1.4,0.3-1.9,1
					c-0.6,0.3-1.3,0.5-1.9,0.8c-2.8,0-6.7,1.5-5-4.5c0.7,0,1.6-0.2,2.2,0.2c4.2,2.8,4.3,0,3.9-3.4l0,0
					C235.1,442.9,236,442.9,236.7,441.8z"/>
				<path class="st24" d="M233.1,436.8c1,0.1,2.1-0.3,2.8,1c0,1,0,1.9-0.1,2.9c-0.8,0.4-1.5,1-1.8,2.1l0,0c-2.1,0.6-4.1,1.2-6.2,1.8
					c-1.7-0.8-1.9-2.1-0.9-3.7C229.8,441.1,233.2,442.1,233.1,436.8L233.1,436.8z"/>
				<path class="st17" d="M228.5,457.7c2.1,0.1,4.1-0.3,6.1-1.1c1.1-0.4,2.7-1.9,3.6-0.2c0.8,1.5-0.2,3.3-1,4.5
					c-1,1.5-2.1,0.2-3-0.6c-1.7-1.4-3.4-1.7-5.3-0.5C228.7,459.2,228.6,458.5,228.5,457.7z"/>
				<path class="st17" d="M233.1,436.8c0.1,5.3-3.3,4.3-6.2,4.1c0-1.1-0.1-2.2-0.1-3.3C229,438.3,231,437.1,233.1,436.8z"/>
				<path class="st17" d="M227.8,444.6c2.1-0.6,4.1-1.2,6.2-1.8c0.3,3.4,0.3,6.2-3.9,3.4c-0.6-0.4-1.4-0.1-2.2-0.2
					C227.9,445.5,227.8,445.1,227.8,444.6z"/>
				<path class="st17" d="M235.9,451.8c-0.1,1.3-0.6,2-1.8,2C234.3,452.7,234.9,452,235.9,451.8z"/>
				<path class="st17" d="M233,450.5c0.6-0.3,1.3-0.5,1.9-0.8C234.5,450.6,233.8,450.7,233,450.5z"/>
				<path class="st17" d="M230.4,432.8c0.1,0.8-0.1,1.6-0.8,2c0-0.4,0-0.9-0.1-1.3C229.8,433.3,230.1,433.1,230.4,432.8z"/>
				<path class="st17" d="M234,453.8c-0.4,0.5-0.7,0.4-0.9-0.2C233.5,453.7,233.7,453.7,234,453.8z"/>
				<path class="st27" d="M279.6,300.4c-9.8,2.2-19.2,1.8-27.6-5.1c-2.7-2.2-5-4.8-6.7-7.7c0.2-0.5,0.3-0.9,0.4-1
					c4.6-3.7,8.7-2.8,14-0.6c7.7,3.3,15-3.7,15.2-12.9c0-3.5-0.3-6.9-1.3-10.3c-0.9-2.9-1.1-6-0.3-8.8c1.4-4.9,7.7-5.4,11.1-0.9
					c1.8,2.4,3.3,5.2,4,8.3c0.4,1.9,1.4,2.4,3,1.9c1.7-0.6,2.7-1.5,1.9-3.6c-0.7-1.8-1.3-3.7-2.1-5.5c-0.8-1.6-0.6-2.7,0.8-3.8
					c1.7-1.3,2.4-0.1,3.2,1.2c3.4,5.5,4.6,11.7,4.4,18.3c-0.1,2.7-1.5,5.5,0.5,8C293.2,285.5,286.4,292.9,279.6,300.4z"/>
				<path class="st16" d="M259.3,337.5c-0.3,0.5-0.5,0.5-0.8,0C258.7,337.3,259,337.3,259.3,337.5z"/>
				<path class="st11" d="M363.4,422c-0.9,0.1-1.8,0.4-2.6,0.4c-1.1,0-2.6,0.4-2.7-1.7c-0.1-2,1.4-2,2.5-1.9c3.1,0.5,2.9-1.7,2.9-4
					c0-12.9,0.1-25.9,0-38.8c0-4.4,0.4-8.6,1.9-12.6c1.9-2.7,4.1-5.1,6.6-7.1c4.9-2.2,9.9-2.1,14.8,0.1c2.3,2.1,4.7,4.3,6.5,7
					c1.5,4,1.9,8.2,1.9,12.6c-0.1,13.5,0,27-0.1,40.5c0,1.6,0.6,3.3-0.6,4.7c-0.1-0.1-0.2-0.2-0.3-0.3c0-14.8,0.1-29.6,0-44.5
					c0-1.6,0.7-3.9-1.9-4.2c-2-9.7-5.6-13.8-11.6-13.4c-0.5,8.1,0.9,16.3-0.8,24.4c-0.5,2.4,0.1,4.1,2.9,3.8
					c3.1-0.3,6.3-0.2,9.4-0.3c0,1.2,0,2.4,0,3.6c-1.9-0.1-3.9,0-5.8-0.3c-4.3-0.7-7.3,0-5.9,6c-0.8,0-1.6,0-2.4,0
					c0.8-5.4-1.7-6.9-6.1-6c-0.9,0.2-1.8,0.1-2.7,0c-2-0.2-2.6,0.8-2.6,2.9c0.1,7.6,0,15.2,0,22.8c0,1.3-0.3,2.9,1.5,2.9
					c3,0,6.2,0.7,8.9-0.4c1.7-0.7,0.3-4.2,0.9-6.4c0.8-0.3,1.6-0.7,2.4-1c0.5,8,0.5,8,7.8,7.9c1.3,0,2.6-0.2,4-0.3
					c0.1,0.8,0.1,1.5,0.2,2.3l0,0c-8.3,0-16.5,0-24.8,0C366.1,420.9,364.5,420.3,363.4,422z M378,361.2c-0.1-2-0.2-3.6-2.8-2.4
					c-4.5,2.1-7.6,5.4-8.2,10.8c-0.4,3.1-0.2,6.3-0.3,9.4c0,8,0,7.9,7.4,8c2.9,0,3.9-0.7,3.8-4.1c-0.2-6.9,0.1-13.9,0.1-20.8
					c0.4-0.2,0.7-0.3,1.1-0.5C378.7,361.5,378.4,361.3,378,361.2z"/>
				<path class="st11" d="M298.3,417.9c-2.3,1-4.5,3.5-7.3,1.1c3.5,0.3,5-1,4.6-5.3c-0.4-5.1-0.1-10.2-0.1-15.3c0-8.6,0-8.4-7.8-8.5
					c-3.1-0.1-3.7,1.1-3.6,4.2c0.1,7.9-0.1,15.8-0.2,23.7c-0.8,0.2-1.7,0.4-2.5,0.6c-0.1-6.8-0.1-13.5-0.1-20.3c0-8.5,0-8.3-7.9-8.3
					c-2.7,0-3.2,1.1-3.2,3.7c0.1,6.8-0.1,13.5-0.2,20.3c-0.2-0.8-0.6-1.5-0.6-2.3c0-12.9,0-25.8,0-38.8c0-1,0.1-2,0.8-2.7
					c0,2.8,0.1,5.6,0.1,8.4c0,8.7,0,8.6,7.9,8.5c2.6,0,3.3-1,3.3-3.7c-0.2-5.8,0-11.6-0.1-17.4c-0.1-2.5,1.3-6.4-0.8-7.2
					c-2.7-1.1-5.1,1.8-7.1,4.2c-0.7,0.8-1.3,1.8-2,2.7c-0.2-1.2-0.4-2.3-1.8-2.4c1.1-3.1,3.9-4.6,5.8-6.8c4.9-2.1,9.9-2.2,14.8-0.1
					c2.6,2.2,5,4.5,6.8,7.6c2.8,10.2,1.1,20.7,1.3,31.1c-0.5,0-1.6,0-1.6,0c-0.3,6-0.5,12,0.1,18c0,0.4,0.9,0.6,1.4,0.9
					C298.2,415.2,298.3,416.5,298.3,417.9z M295.5,377.6L295.5,377.6c0-2.1,0.1-4.3-0.1-6.4c-0.5-5.7-3.1-9.8-8-12.2
					c-2.4-1.2-3.5-1-3.4,2.4c0.2,6.9,0.3,13.9-0.1,20.8c-0.2,4,1.1,4.9,4.5,4.8c7-0.3,7-0.1,7-7.9
					C295.5,378.6,295.5,378.1,295.5,377.6z"/>
				<path class="st24" d="M334.4,290.6c2.6-0.7,3,0.8,3,3.2c-0.1,11.1,0,22.1,0,33.2c0,2.3-1,3.4-3,3.3c-5.1-0.1-10.2-0.2-15.3-0.3
					c0-11,0.2-22-0.1-33c-0.1-4.8,1.4-5.8,5.4-5.7C327.7,291.5,331.2,292.5,334.4,290.6z M329.1,327.3c0.6,0.1,1.2,0.1,1.8,0.2
					c0.9,1.1,1.8,1.1,2.7,0c0.3-0.1,0.6-0.2,0.9-0.3c0.1,0.1,0.2,0.2,0.4,0.2c0.1,0,0.3-0.1,0.3-0.1c0.1-5,1-9.9-0.5-14.8
					c-0.1-0.3-0.2-0.6-0.2-0.9c0-0.7,0-1.4,0-2.1c0.1-0.3,0.1-0.6,0.2-1c1.1-4.6,1.2-9.3-0.1-13.9c-1.6-1.7-3.6-0.4-5.4-0.9
					c-0.7-0.2-1.5-1.1-2.1,0.2c-5.9-0.4-5.9-0.4-6,5.9c0,3.1-0.1,6.2-0.1,9.4c0.3,0.7,0.5,1.5,0.8,2.2c-1.4,3.8-0.5,7.7-0.6,11.5
					c-0.1,6,0.5,6.4,5.8,4.5C327.7,327.2,328.4,327.2,329.1,327.3z"/>
				<path class="st15" d="M236.7,448.7c0.6-0.8,1.2-1.5,1.8-2.3c5.3,1.1,10-1.3,14.4-3.9c2.9-1.7,7-1.2,8.4-5.5
					c1,1.5,0.2,3.2,0.6,4.7c-4.1-0.5-6.1,2.1-7.1,6c-1.5,6-1.4,6-6.2,2.6c-0.9-0.6-1.9-1.1-2.8-1.6c-0.8-1.2-1.9-1-2.9-0.7
					C240.8,448.2,238.7,448.5,236.7,448.7z"/>
				<path class="st24" d="M270.1,370.1c-0.7,0.8-0.8,1.7-0.8,2.7c0,12.9,0,25.8,0,38.8c0,0.8,0.4,1.5,0.6,2.3c0,0.7,0,1.3,0,2
					c-0.9-0.2-1.8,1.2-2.6-0.2c0-0.6,0-1.2,0-1.7c1-0.7,1.1-1.4,0-2.1c-0.3-13.9-0.4-27.8,0.1-41.7c1.4-1.8,1.9-3.9,1.8-6.2
					c0-0.3,0.1-0.6,0.3-0.8c1.4,0.1,1.6,1.2,1.8,2.4C270.9,367.1,270.5,368.6,270.1,370.1z"/>
				<path class="st22" d="M334.4,290.6c-3.3,1.8-6.8,0.9-10.1,0.7c-4-0.2-5.5,0.9-5.4,5.7c0.3,11,0.1,22,0.1,33
					c-1.4-0.6-0.9-1.9-0.9-3c0-11,0.1-22.1-0.1-33.1c0-2.8,0.7-3.8,3.3-3.6C325.7,290.6,330.1,290.6,334.4,290.6z"/>
				<path class="st24" d="M298.2,413.9c-0.5-0.3-1.4-0.5-1.4-0.9c-0.7-6-0.4-12-0.1-18c0,0,1,0,1.6,0
					C298.2,401.3,298.2,407.6,298.2,413.9z"/>
				<path class="st11" d="M363.4,422c1.1-1.7,2.7-1.1,4.2-1.1c8.3,0,16.5,0,24.8,0c0,0.4,0,0.7,0,1.1C382.7,422,373.1,422,363.4,422
					z"/>
				<path class="st22" d="M267.4,415.7c0.8,1.4,1.7,0,2.6,0.2c0,0.7,0,1.3,0,2c-1.6-0.3-2.3,3.5-4.3,1.1
					C267.2,418.5,266.8,416.8,267.4,415.7z"/>
				<path class="st22" d="M268.6,364c0.2,0,0.4,0,0.6-0.1c0.1,2.3-0.4,4.4-1.8,6.2C267.1,367.9,268.2,366,268.6,364z"/>
				<path class="st22" d="M392.3,422c0-0.4,0-0.7,0-1.1l0,0c0.6,0,1.2,0,1.7-0.1c0.1,0.1,0.2,0.2,0.3,0.3
					C394.1,422.5,393.3,422.5,392.3,422z"/>
				<path class="st22" d="M267.4,411.9c1,0.7,1,1.4,0,2.1C266.8,413.2,266.9,412.5,267.4,411.9z"/>
				<path class="st23" d="M417.2,385c1.9,0.3,3.9-0.2,5.7,1c0.3,1.4,0.4,3.1,1.1,4.2c2,3-1.1,3.4-1.9,4.9c-0.8,1.8-2.1,1.5-3.4,0.8
					c-1.9-1-1.9-2.8-1.8-4.7C417,389.2,419,387.2,417.2,385z"/>
				<path class="st28" d="M466,392.1c9.3,2,18.1-0.4,26.8-3.6c2.2,11.2,2.9,22.6,4.4,33.9c1,7.2,1.8,14.4,2.7,21.7
					c0.3,2.5,0.4,4.7-2.5,5.2c-2.9-4.4-1.7-10.1-4.6-16c0,5.5,0,9.6,0,13.8c0,1.7,0.2,3.4-1.9,3.7c-4.7,0.4-9.5,0.8-14.2,1.2
					c-2.1-0.1-4.3-0.1-6.4-0.2c-4.7-0.5-5.9-3.4-5.7-8.4C465.2,426.4,465.5,409.2,466,392.1z"/>
				<path class="st20" d="M466,392.1c-0.4,17.1-0.7,34.2-1.4,51.3c-0.2,5,0.9,7.9,5.7,8.4c-0.6,5.3,1,10.7-1.1,15.9
					c-2.3-1.9-5-0.5-7.4-1.3c-0.9-22.5-1.8-45-2.8-67.5c-0.2-4.8-0.4-9.6-0.6-14.4c1.9-3,0.9-6.4,1-9.5c0.2-5.4,0.2-10.8,0.3-16.2
					c1.4-0.6,2.5-3.2,4.1-2.1c1.5,1,0.8,3.3,0.8,5.1c0.1,8,0.2,16.1,0.3,24.1C464.9,388.1,464.6,390.3,466,392.1z"/>
				<path class="st5" d="M461.7,466.5c2.4,0.8,5.2-0.6,7.4,1.3c0,2.4-1.2,3.7-3.3,4.1c-1.9-0.8-3.7-1.7-5.6-2.6c0-0.8,0-1.6,0-2.3
					C460.7,466.8,461.2,466.6,461.7,466.5z"/>
				<path class="st11" d="M352.4,434.4c0,8.1,0,16.2,0.2,24.4c0.1,3.1-1.1,4-3.7,3.9c-13.3-0.1-26.5-0.1-39.8,0c-2.8,0-3.7-1-3.6-4
					c0.1-13.3,0.1-26.5,0-39.8c0-2.5,0.3-4.1,3.1-4.1c11.5,0.1,22.9,0,34.4,0.1c1.3,0,2.6,0.8,3.9,1.2c-1.6,4.1-0.6,8.4-0.7,12.6
					C345.9,435.4,346,435.5,352.4,434.4z"/>
				<path class="st11" d="M352.3,410.8c-0.6-3-2.6-2.9-4.8-2.9c-12.6,0.1-25.3,0-37.9,0.1c-2.6,0-4.1-0.3-4.2-3.9
					c-0.2-13.9,0.8-27.8-0.5-41.6c-0.2-2.1,1.1-3.2,3.1-3.2c14,0,28,0,42,0c1.3,0,2.3,0.3,2.3,2.2
					C352.3,377.8,352.3,394.3,352.3,410.8z M327.5,394.2c0-1.2-0.2-2.4,0-3.5c0.8-4.8-1.2-5.8-5.2-5.6c-8.5,0.3-8.5,0.1-8.5,10
					c0,7.7,0,7.7,5.9,7.7C327.5,402.9,327.5,402.9,327.5,394.2z M343.7,394c0-1.2-0.1-2.3,0-3.5c0.6-4.2-0.7-5.7-4.8-5.5
					c-8.9,0.4-8.9,0.1-8.9,9.9c0,7.8,0,7.8,5.7,7.8C343.7,402.8,343.7,402.8,343.7,394z M343.8,373.6c0-1.2-0.1-2.3,0-3.5
					c0.6-4.2-0.8-5.6-4.8-5.4c-8.9,0.3-8.9,0.1-8.9,10.3c0,7.2,0,7.2,5.7,7.3C343.7,382.3,343.7,382.3,343.8,373.6z M313.8,373.4
					c0,1.5,0.2,3,0,4.5c-0.6,3.9,1.1,4.6,4.3,4.6c9.4-0.2,9.4,0,9.4-10.9c0-0.2,0-0.3,0-0.5c0.9-5.3-1.2-6.6-5.8-6.3
					C313.8,365.2,313.8,364.9,313.8,373.4z"/>
				<path class="st14" d="M352.4,434.4c-6.4,1-6.5,1-6.3-5.7c0.1-4.2-0.9-8.5,0.7-12.6c1.8,0.7,4.8-1.6,5.4,2.4
					c-1.1,0.1-2.2,0.3-3.3,0.4c-1,0.2-0.9,1-0.7,1.8c0,2.7,0,5.4,0,8c-0.1,1.1-0.5,2.2,0.5,3.1v0.1
					C349.7,433.3,352.1,431.9,352.4,434.4z"/>
				<path class="st27" d="M245.3,287.7l-1.3-3.2c-5.5-8.2-5.5-22.7,0.1-32.8c8.8-16.1,28.6-20.7,42.5-9.9l7.5,8.4l1.1,1.4l-2.7,30.1
					l-20.7,9.1h-11.3"/>
				<path class="st27" d="M246,268.9c-1-1.9,0.4-3.4,2.3-3.9c2.1-0.6,2.6,0.7,2.9,2.6c0.8,4.6,2.7,8.4,6.1,11.2
					c2.3,1.9,4.6,2.1,7.2,0.7c2.5-1.4,4-3.4,3.9-6.6c-0.1-2.3,0-4.6-0.6-6.9c-0.8-3-1.3-6.1-1.4-9.3c-0.1-5.2,1.8-9.1,5.8-11.5
					s8.2-2.2,12,0.7"/>
				<path class="st27" d="M250.6,225.9c-0.2,6.7-5.3,11.6-11.8,11.5c-6.2-0.1-11.5-5.8-11.3-12.1c0.2-6.8,5.7-11.7,12.6-11.3
					C245.9,214.2,250.8,219.8,250.6,225.9z"/>
				<path class="st6" d="M314.9,185.1c-3.4-0.5-5.6-2.3-5.5-6.1c0-3.7,2.3-6,5.5-5.7c2.8,0.2,5.1,1.9,5.1,5.7
					C320,182.9,318.1,184.6,314.9,185.1z"/>
				<path class="st6" d="M561.6,259c-0.3,3.4-2,5.6-5.4,5.6c-3.5,0-5.3-2.5-5.3-6c0-3.4,2.1-5.7,5.1-5.7
					C559.2,252.9,561.5,254.8,561.6,259z"/>
				<path class="st23" d="M470.9,334.2c-0.2-1.8-0.7-3.1-2.3-4.4c-4.7-3.8-6.3-10.9-0.8-16.5c1.2-1.3,1.7,0.1,2.6,0.6
					c3.3,1.7,4.7,6.3,8.9,6.6c1.2,0.1,0.9,1.6,0.2,2.2c-3.4,3.3-2.5,7.4-1.9,11.4C475.3,335.4,473.1,336.4,470.9,334.2z"/>
				<path class="st21" d="M487.8,333.4c0.2,0.1,0.5,0.3,0.7,0.4c-0.2,0.1-0.5,0.4-0.7,0.4s-0.4-0.2-0.7-0.4
					C487.4,333.6,487.6,333.5,487.8,333.4z"/>
				<path class="st16" d="M253.3,386.7c0.3,0.3,0.5,0.7,0.1,1c0,0-0.3-0.3-0.5-0.5C253,387,253.2,386.8,253.3,386.7z"/>
				<path class="st17" d="M234,442.8c0.3-1,0.9-1.6,1.8-2.1c0.3,0.4,0.6,0.7,1,1.1C236,442.9,235.1,442.9,234,442.8z"/>
				<path class="st29" d="M283.9,417.9c0.1-7.9,0.3-15.8,0.2-23.7c0-3.1,0.5-4.3,3.6-4.2c7.8,0.1,7.8-0.1,7.8,8.5
					c0,5.1-0.3,10.3,0.1,15.3c0.4,4.3-1.1,5.6-4.6,5.3C288.7,418.3,286,419.9,283.9,417.9z"/>
				<path class="st10" d="M270,417.9c0-0.7,0-1.3,0-2s0-1.3,0-2c0.1-6.8,0.2-13.5,0.2-20.3c0-2.6,0.4-3.7,3.2-3.7
					c7.9,0,7.9-0.2,7.9,8.3c0,6.8,0.1,13.5,0.1,20.3c-0.4,0.2-0.8,0.3-1.2,0.5c-1.2,0-2.4,0-3.6,0C274.4,418.3,272,419.8,270,417.9z
					"/>
				<path class="st22" d="M276.5,419c1.2,0,2.4,0,3.6,0C278.9,420.2,277.7,420.2,276.5,419z"/>
				<path class="st17" d="M242.9,448c1.1-0.3,2.1-0.5,2.9,0.7c-0.9,0-1.9,0-2.8,0C242.9,448.5,242.9,448.2,242.9,448z"/>
				<path class="st29" d="M380.5,396c-1.4-6.1,1.6-6.7,5.9-6c1.9,0.3,3.9,0.2,5.8,0.3c0,9.4,0,18.9,0,28.3c-1.3,0.1-2.6,0.2-4,0.3
					c-7.3,0.1-7.3,0-7.8-7.9C380.5,405.9,380.5,401,380.5,396z"/>
				<path class="st10" d="M378,411.9c-0.6,2.2,0.9,5.7-0.9,6.4c-2.7,1-5.9,0.4-8.9,0.4c-1.8,0-1.5-1.7-1.5-2.9c0-7.6,0-15.2,0-22.8
					c0-2.1,0.6-3.1,2.6-2.9c0.9,0.1,1.8,0.2,2.7,0c4.4-0.9,6.8,0.6,6.1,6C378,401.3,378,406.6,378,411.9z"/>
				<path class="st29" d="M392.2,386.7c-3.1,0.1-6.3,0-9.4,0.3c-2.9,0.3-3.4-1.4-2.9-3.8c1.7-8.1,0.3-16.2,0.8-24.4
					c6-0.4,9.6,3.6,11.6,13.4C392.3,377,392.2,381.8,392.2,386.7z"/>
				<path class="st10" d="M378,362.1c-0.1,6.9-0.3,13.9-0.1,20.8c0.1,3.3-0.9,4.1-3.8,4.1c-7.4-0.1-7.4,0-7.4-8
					c0-3.1-0.1-6.3,0.3-9.4c0.6-5.4,3.7-8.8,8.2-10.8c2.6-1.2,2.8,0.3,2.8,2.4C378,361.5,378,361.8,378,362.1z"/>
				<path class="st24" d="M392.2,386.7c0-4.9,0.1-9.7,0.1-14.6c2.6,0.4,1.8,2.6,1.9,4.2c0,14.8,0,29.6,0,44.5c-0.6,0-1.2,0-1.7,0.1
					c-0.1-0.8-0.1-1.5-0.2-2.3c0-9.4,0-18.9,0-28.3C392.2,389.1,392.2,387.9,392.2,386.7z"/>
				<path class="st11" d="M378,411.9c0-5.3,0-10.6,0-15.9c0.8,0,1.6,0,2.4,0c0,5,0,9.9,0,14.9C379.6,411.2,378.8,411.6,378,411.9z"
					/>
				<path class="st24" d="M378,362.1c0-0.3,0-0.7,0-1c0.4,0.2,0.7,0.3,1.1,0.5C378.7,361.8,378.4,362,378,362.1z"/>
				<path class="st29" d="M295.5,377.6c0,0.5,0,1,0,1.5c0,7.9,0,7.7-7,7.9c-3.4,0.1-4.7-0.8-4.5-4.8c0.3-6.9,0.2-13.9,0.1-20.8
					c-0.1-3.4,1-3.6,3.4-2.4c4.9,2.3,7.5,6.4,8,12.2C295.6,373.3,295.5,375.5,295.5,377.6L295.5,377.6z"/>
				<path class="st10" d="M270.1,370.1c0.4-1.5,0.8-3,1.2-4.5c0.6-0.9,1.2-1.8,2-2.7c2-2.3,4.4-5.3,7.1-4.2c2.1,0.9,0.7,4.7,0.8,7.2
					c0.1,5.8-0.1,11.6,0.1,17.4c0.1,2.7-0.7,3.7-3.3,3.7c-7.9,0.1-7.8,0.2-7.9-8.5C270.2,375.7,270.1,372.9,270.1,370.1z"/>
				<path class="st30" d="M327,327.2c-5.4,1.9-6,1.6-5.8-4.5c0.1-3.8-0.8-7.7,0.6-11.5c4.5-0.8,6.1,1.1,5.5,6.1
					C326.8,320.6,327.1,323.9,327,327.2z"/>
				<path class="st30" d="M321,309c0-3.1,0.1-6.2,0.1-9.4c0-6.3,0-6.3,6-5.9c0,3.3,0.1,6.5,0.1,9.8C327.2,310.2,327.2,310.2,321,309
					z"/>
				<path class="st29" d="M334.6,308.4c-0.1,0.3-0.1,0.6-0.2,1c-1.9-0.5-5.2,2.1-5.5-2.1c-0.3-4.5-0.6-9.1,0.2-13.6
					c1.8,0.5,3.8-0.8,5.4,0.9C334.6,299.1,334.6,303.7,334.6,308.4z"/>
				<path class="st29" d="M330.8,327.4c-0.6-0.1-1.2-0.1-1.8-0.2c-0.1-3.3,0.1-6.6-0.3-9.8c-0.7-5.1,0.9-7.2,5.6-6
					c0,0.3,0.1,0.6,0.2,0.9c-0.1,4.9-0.2,9.8-0.3,14.7c-0.3,0.1-0.6,0.2-0.9,0.3C332.6,327.4,331.7,327.4,330.8,327.4z"/>
				<path class="st22" d="M334.4,311.5c-4.7-1.2-6.3,0.9-5.6,6c0.4,3.2,0.2,6.5,0.3,9.8c-0.7,0-1.4,0-2-0.1c0.1-3.3-0.2-6.6,0.2-9.9
					c0.6-5-1-6.9-5.5-6.1c-0.3-0.7-0.5-1.5-0.8-2.2c6.2,1.2,6.2,1.2,6.2-5.5c0-3.3,0-6.5-0.1-9.8c0.6-1.3,1.4-0.4,2.1-0.2
					c-0.9,4.5-0.5,9.1-0.2,13.6c0.3,4.2,3.6,1.6,5.5,2.1C334.4,310.1,334.4,310.8,334.4,311.5z"/>
				<path class="st22" d="M334.4,327.1c0.1-4.9,0.2-9.8,0.3-14.7c1.4,4.9,0.6,9.9,0.5,14.8c0,0.1-0.2,0.2-0.3,0.1
					C334.6,327.3,334.5,327.2,334.4,327.1z"/>
				<path class="st22" d="M334.6,308.4c0-4.6-0.1-9.3-0.1-13.9C335.9,299.1,335.7,303.7,334.6,308.4z"/>
				<path class="st22" d="M330.8,327.4c0.9,0,1.8,0,2.7,0C332.6,328.6,331.7,328.5,330.8,327.4z"/>
				<path class="st29" d="M327.5,394.2c0,8.6,0,8.6-7.7,8.6c-5.9,0-5.9,0-5.9-7.7c0-9.9,0-9.7,8.5-10c4-0.1,6,0.9,5.2,5.6
					C327.3,391.9,327.5,393.1,327.5,394.2z"/>
				<path class="st29" d="M343.7,394c0,8.8,0,8.8-7.9,8.8c-5.7,0-5.7,0-5.7-7.8c0-9.8,0-9.5,8.9-9.9c4.1-0.2,5.4,1.2,4.8,5.5
					C343.6,391.7,343.7,392.9,343.7,394z"/>
				<path class="st29" d="M343.8,373.6c-0.1,8.7-0.1,8.7-8,8.7c-5.7,0-5.7,0-5.7-7.3c0-10.3,0-10,8.9-10.3c4-0.2,5.4,1.2,4.8,5.4
					C343.6,371.3,343.8,372.4,343.8,373.6z"/>
				<path class="st29" d="M313.8,373.4c0-8.5,0-8.2,7.8-8.6c4.6-0.2,6.7,1,5.8,6.3c0,0.2,0,0.3,0,0.5c0,10.8,0,10.7-9.4,10.9
					c-3.2,0.1-4.9-0.6-4.3-4.6C314,376.4,313.8,374.9,313.8,373.4z"/>
				<g>
					<path class="st13" d="M348.7,432.1L348.7,432.1V432c-1-0.9-0.6-2-0.5-3.1c0-2.7,0-5.4,0-8c0.2-0.6,0.5-1.2,0.7-1.8
						c1.1-0.1,2.2-0.3,3.3-0.4l0,0c-0.7-4-3.6-1.6-5.4-2.4c-1.3-0.4-2.6-1.2-3.9-1.2c-11.5-0.1-22.9,0-34.4-0.1
						c-2.8,0-3.1,1.6-3.1,4.1c0.1,13.3,0.1,26.5,0,39.8c0,3,0.9,4.1,3.6,4c13.3-0.1,26.5-0.1,39.8,0c2.7,0,3.8-0.8,3.7-3.9
						c-0.2-8.1-0.1-16.2-0.2-24.4C352.1,431.9,349.7,433.3,348.7,432.1z"/>
					<path class="st13" d="M309.6,408c12.6-0.1,25.3,0,37.9-0.1c2.2,0,4.2-0.1,4.8,2.9c0-16.5,0-33,0-49.5c0-1.9-0.9-2.2-2.3-2.2
						c-14,0-28,0-42,0c-2.1,0-3.3,1.1-3.1,3.2c1.2,13.9,0.3,27.8,0.5,41.6C305.5,407.7,307,408,309.6,408z"/>
					<path class="st13" d="M352,431.3c-0.1,0.1-0.1,0.1-0.2,0.2C351.8,431.4,351.9,431.3,352,431.3z"/>
					<path class="st12" d="M354.4,455.9c0-29,0-58,0-87c0-3.1,0-6.2,0.3-9.3c0.2-1.9-0.7-2.3-2-2.5c-14.6-0.1-29.2-0.2-43.8-0.2
						c-6.5,0-5.7-0.9-5.8,6.4c-0.1,34.5-0.1,68.9-0.2,103.4c0.4,0.2,0.8,0.7,1.2,0.7c17.1,0.1,34.1,0.5,51.2-0.2
						C354.4,463.5,354.3,459.7,354.4,455.9z M304.9,362.4c-0.2-2.1,1.1-3.2,3.1-3.2c14,0,28,0,42,0c1.3,0,2.3,0.3,2.3,2.2
						c0,16.5,0,33,0,49.5c-0.6-3-2.6-2.9-4.8-2.9c-12.6,0.1-25.3,0-37.9,0.1c-2.6,0-4.1-0.3-4.2-3.9
						C305.2,390.2,306.2,376.3,304.9,362.4z M348.9,462.7c-13.3-0.1-26.5-0.1-39.8,0c-2.8,0-3.7-1-3.6-4c0.1-13.3,0.1-26.5,0-39.8
						c0-2.5,0.3-4.1,3.1-4.1c11.5,0.1,22.9,0,34.4,0.1c1.3,0,2.6,0.8,3.9,1.2c1.8,0.7,4.8-1.6,5.4,2.4l0,0c-1.1,0.1-2.2,0.3-3.3,0.4
						c-0.2,0.6-0.5,1.2-0.7,1.8c0,2.7,0,5.4,0,8c-0.1,1.1-0.5,2.2,0.5,3.1v0.1l0,0c1,1.2,3.4-0.2,3.7,2.3c0,8.1,0,16.2,0.2,24.4
						C352.7,461.9,351.5,462.7,348.9,462.7z M352,431.3c-0.1,0.1-0.1,0.1-0.2,0.2C351.8,431.4,351.9,431.3,352,431.3z"/>
				</g>
				<path class="st21" d="M348.9,419c-0.2,0.6-0.5,1.2-0.7,1.8C348,420,347.9,419.2,348.9,419z"/>
			</g>
		</g>
		<path class="st6" d="M555.7,278.8c5.6,11.2,4,21.6-7.7,29c-12,7.6-22.9,3.5-29.7-7.4c-6.6-10.6-4-22.1,6.7-28.6
			C535.7,265.1,547,266.1,555.7,278.8z"/>
		<path class="st6" d="M344.5,227.5c-0.6,5.5-3.9,9.2-10.5,9.2c-6.8,0-10.2-4.1-10.2-9.8c0-5.6,4-9.3,9.9-9.3
			C339.8,217.6,344.2,220.6,344.5,227.5z"/>
		<path class="st6" d="M331,195.6c3.2,4.3,3.2,9-1.3,13.2c-4.7,4.3-9.8,3.6-13.5-0.5c-3.6-4-3.3-9.2,0.9-12.9
			C321.3,191.5,326.3,190.9,331,195.6z"/>
	</g>
</g>
<g id="tlo">
	<path class="st31" d="M184.3,467.7c-13.4-7.7-22.1-18.3-25.5-22.7c-10.9-14.2-14.7-27.9-17-36.9c-3.6-13.6-10.4-39.6,0-65.2
		c8.4-20.6,19.3-19.7,39.7-48.2c4.4-6.1,10.1-14.8,25.5-48.2c31-67.1,25.8-70.9,36.9-87.9c25.7-39.5,72.6-50.6,121.9-62.4
		c45.9-10.9,104.9-24.9,138.9,5.7c19.6,17.6,13.5,34.3,36.9,68c23.9,34.6,47.6,29.3,68,59.5c13.2,19.6,15.6,37.5,19.8,68
		c5.6,40.7,13,94.5-19.8,136.1c-7.5,9.6-22.8,25.6-51,36.9"/>
</g>
<g id="clouds">
	<path class="st32" d="M325.2,168.8c-16.1-0.6-48.1,1.3-50.1,9.8c-2.1,9,28.7,27.8,45.2,21.4c9.4-3.6,6.8-12.5,16.8-16.8
		c16-6.9,34.8,10.1,44,3.2c4.7-3.5,5-11.9,1.2-15.7c-5-4.9-15.1-0.1-39-0.6C333.5,169.9,333.8,169.1,325.2,168.8z"/>
	<path class="st32" d="M519.2,210.1c12.5-0.7,37.4,0.5,39.3,8.1c2,8-21.4,25.1-34.4,19.7c-7.4-3.1-5.7-11-13.7-14.7
		c-12.6-5.9-26.7,9.4-34.1,3.5c-3.8-3-4.3-10.5-1.4-14c3.7-4.4,11.7-0.3,30.3-1.1C512.8,211.3,512.5,210.5,519.2,210.1z"/>
	<path class="st32" d="M277.4,249.4c-17.5-0.7-52.4,2.4-55,15.1c-2.8,13.4,29.7,40.8,48,31.2c10.4-5.5,8.1-18.5,19.2-25.1
		c17.7-10.3,37.3,14.6,47.6,4.4c5.3-5.2,6.2-17.7,2.1-23.3c-5.2-7.2-16.4,0-42.3-0.5C286.4,251,286.7,249.8,277.4,249.4z"/>
	<path class="st32" d="M479,128.3c6.9-0.2,20.7,1.5,21.8,7.2c1.2,6.1-11.6,18.3-18.8,13.8c-4.1-2.5-3.2-8.5-7.7-11.5
		c-7-4.8-14.7,6.3-18.8,1.6c-2.1-2.4-2.5-8.1-0.9-10.6c2-3.2,6.5,0.1,16.7,0.1C475.4,128.9,475.2,128.4,479,128.3z"/>
	<path class="st32" d="M533.7,289.5c-15.9-0.7-47.7,1.6-50,12.1c-2.5,11.1,27.3,34.1,43.9,26.3c9.4-4.4,7.2-15.3,17.3-20.6
		c16.1-8.4,34.1,12.4,43.4,4c4.8-4.3,5.5-14.6,1.8-19.3c-4.8-6-14.9-0.1-38.5-0.8C541.9,290.9,542.2,289.9,533.7,289.5z"/>
</g>
<g id="podst">
	<g id="Warstwa_2_1_">
	</g>
	<ellipse class="st5" cx="402.5" cy="470" rx="223.9" ry="17.6"/>
</g>
<g id="house">
	<polygon class="st33" points="402.5,467.7 260.8,467.7 260.8,337.3 331.7,260.8 402.5,337.3 	"/>
	<rect x="402.5" y="337.3" class="st25" width="116.2" height="130.4"/>
	<path class="st34" d="M260.8,337.3H253c-2.4,0-3.7-2.9-2-4.7l75-80.4l5.7,8.5L260.8,337.3z"/>
	<path class="st35" d="M326,252.3l5.7,8.5l70.9,76.5h124.4c3.4,0,5.2-4.1,2.9-6.6l-68.3-75.9c-1.5-1.6-3.5-2.5-5.7-2.5H326z"/>
</g>
<g id="house_elements">
	<path class="st35" d="M423.3,262.7l3.9,4.9c2.4,3,5.6,5.1,9.3,6l0.8,0.2c3.2,0.8,6.5,0.7,9.7-0.4l1.9-0.6c1.1-0.4,1.8-1.4,1.8-2.5
		v-26.5h-31.2v8.1C419.5,255.8,420.9,259.6,423.3,262.7z"/>
	<path class="st36" d="M416.7,239.7v2.5c0,0.9,0.7,1.6,1.6,1.6H452c0.9,0,1.6-0.7,1.6-1.6v-2.5c0-0.9-0.7-1.6-1.6-1.6h-33.7
		C417.4,238.1,416.7,238.8,416.7,239.7z"/>
	<path class="st34" d="M369,419.6h21.7c1.8,0,3.3-1.5,3.3-3.3v-40.9c0-4.3-2-8.4-5.3-11.1l0,0c-5.2-4.1-12.5-4.1-17.7,0l0,0
		c-3.4,2.7-5.3,6.8-5.3,11.1v40.9C365.7,418.1,367.2,419.6,369,419.6z"/>
	<path class="st34" d="M272.6,419.6h21.7c1.8,0,3.3-1.5,3.3-3.3v-40.9c0-4.3-2-8.4-5.3-11.1v0c-5.2-4.1-12.5-4.1-17.7,0v0
		c-3.4,2.7-5.3,6.8-5.3,11.1v40.9C269.3,418.1,270.8,419.6,272.6,419.6z"/>
	<path class="st34" d="M318.3,334.5h23.8c2,0,3.7-1.5,3.7-3.3V313c0-4.3-2.2-8.4-5.9-11.1l0,0c-5.7-4.1-13.8-4.1-19.5,0l0,0
		c-3.7,2.7-5.9,6.8-5.9,11.1v18.2C314.6,333,316.3,334.5,318.3,334.5z"/>
	<path class="st34" d="M306.1,369v98.8h48.2V369c0-4.9-4-9-9-9h-30.3C310.2,360,306.1,364,306.1,369z"/>
</g>
<g id="house_elements2">
	<path class="st37" d="M314.6,414.7v43.8c0,2,1.6,3.6,3.6,3.6h23.9c2,0,3.6-1.6,3.6-3.6v-43.8c0-2-1.6-3.6-3.6-3.6h-23.9
		C316.3,411,314.6,412.7,314.6,414.7z"/>
	<path class="st32" d="M273.8,416.7h5.1c0.9,0,1.7-0.8,1.7-1.7v-22.1c0-0.9-0.8-1.7-1.7-1.7h-5.1c-0.9,0-1.7,0.8-1.7,1.7V415
		C272.1,416,272.9,416.7,273.8,416.7z"/>
	<path class="st32" d="M288,416.7h5.1c0.9,0,1.7-0.8,1.7-1.7v-22.1c0-0.9-0.8-1.7-1.7-1.7H288c-0.9,0-1.7,0.8-1.7,1.7V415
		C286.3,416,287.1,416.7,288,416.7z"/>
	<path class="st32" d="M288,385.5h5.1c0.9,0,1.7-0.8,1.7-1.7v-5.3c0-4.6-1.8-8.9-5-12.2l-0.2-0.2c-1.2-1.2-3.3-0.4-3.3,1.4v16.4
		C286.3,384.8,287.1,385.5,288,385.5z"/>
	<path class="st32" d="M278.9,385.5h-5.1c-0.9,0-1.7-0.8-1.7-1.7v-5.3c0-4.6,1.8-8.9,5-12.2l0.2-0.2c1.2-1.2,3.3-0.4,3.3,1.4v16.4
		C280.6,384.8,279.9,385.5,278.9,385.5z"/>
	<path class="st32" d="M314.6,374.5v8c0,1.7,1.4,3.1,3.1,3.1h8c1.7,0,3.1-1.4,3.1-3.1v-8c0-1.7-1.4-3.1-3.1-3.1h-8
		C316,371.4,314.6,372.7,314.6,374.5z"/>
	<path class="st32" d="M331.7,374.5v8c0,1.7,1.4,3.1,3.1,3.1h8c1.7,0,3.1-1.4,3.1-3.1v-8c0-1.7-1.4-3.1-3.1-3.1h-8
		C333,371.4,331.7,372.7,331.7,374.5z"/>
	<path class="st32" d="M314.6,394.3v8c0,1.7,1.4,3.1,3.1,3.1h8c1.7,0,3.1-1.4,3.1-3.1v-8c0-1.7-1.4-3.1-3.1-3.1h-8
		C316,391.2,314.6,392.6,314.6,394.3z"/>
	<path class="st32" d="M331.7,394.3v8c0,1.7,1.4,3.1,3.1,3.1h8c1.7,0,3.1-1.4,3.1-3.1v-8c0-1.7-1.4-3.1-3.1-3.1h-8
		C333,391.2,331.7,392.6,331.7,394.3z"/>
	<path class="st32" d="M370.2,416.7h5.1c0.9,0,1.7-0.8,1.7-1.7v-22.1c0-0.9-0.8-1.7-1.7-1.7h-5.1c-0.9,0-1.7,0.8-1.7,1.7V415
		C368.5,416,369.3,416.7,370.2,416.7z"/>
	<path class="st32" d="M384.4,416.7h5.1c0.9,0,1.7-0.8,1.7-1.7v-22.1c0-0.9-0.8-1.7-1.7-1.7h-5.1c-0.9,0-1.7,0.8-1.7,1.7V415
		C382.7,416,383.4,416.7,384.4,416.7z"/>
	<path class="st32" d="M384.4,385.5h5.1c0.9,0,1.7-0.8,1.7-1.7v-5.3c0-4.6-1.8-8.9-5-12.2l-0.2-0.2c-1.2-1.2-3.3-0.4-3.3,1.4v16.4
		C382.7,384.8,383.4,385.5,384.4,385.5z"/>
	<path class="st32" d="M375.3,385.5h-5.1c-0.9,0-1.7-0.8-1.7-1.7v-5.3c0-4.6,1.8-8.9,5-12.2l0.2-0.2c1.2-1.2,3.3-0.4,3.3,1.4v16.4
		C377,384.8,376.2,385.5,375.3,385.5z"/>
	<path class="st32" d="M326.3,331.7H320c-1.4,0-2.5-1.1-2.5-2.5V319c0-5.3,2.5-10.3,6.7-13.5l2.5-1.9c0.8-0.6,2.1,0,2.1,1v24.6
		C328.8,330.6,327.7,331.7,326.3,331.7z"/>
	<path class="st32" d="M334.2,331.7h6.3c1.4,0,2.5-1.1,2.5-2.5V319c0-5.3-2.5-10.3-6.7-13.5l-2.5-1.9c-0.8-0.6-2.1,0-2.1,1v24.6
		C331.7,330.6,332.8,331.7,334.2,331.7z"/>
	<path class="st5" d="M343,419.6v1.4c0,0.8,0.6,1.4,1.4,1.4l0,0c0.8,0,1.4-0.6,1.4-1.4v-2.8c0-0.8-0.6-1.4-1.4-1.4h-8.5
		c-0.8,0-1.4,0.6-1.4,1.4l0,0c0,0.8,0.6,1.4,1.4,1.4H343z"/>
	<path class="st5" d="M378.4,388.4L378.4,388.4c0,0.8,0.6,1.4,1.4,1.4l0,0c0.8,0,1.4-0.6,1.4-1.4l0,0c0-0.8-0.6-1.4-1.4-1.4l0,0
		C379.1,387,378.4,387.6,378.4,388.4z"/>
	<path class="st5" d="M282,387L282,387c-0.8,0.8-0.8,2.1,0,2.8l0,0c0.8,0.8,2.1,0.8,2.8,0l0,0c0.8-0.8,0.8-2.1,0-2.8l0,0
		C284.1,386.2,282.8,386.2,282,387z"/>
</g>
<g id="coins">
	<circle class="st5" cx="428" cy="212.6" r="14.2"/>
	<circle class="st5" cx="449.3" cy="171.5" r="18.4"/>
	<circle class="st5" cx="413.9" cy="136.1" r="11.3"/>
	<circle class="st5" cx="447.9" cy="93.6" r="22.7"/>
</g>
</svg>
