<?xml version="1.0" encoding="utf-8"?>
<!-- Generator: Adobe Illustrator 24.1.1, SVG Export Plug-In . SVG Version: 6.00 Build 0)  -->
<svg version="1.1" id="Warstwa_1" xmlns="http://www.w3.org/2000/svg" xmlns:xlink="http://www.w3.org/1999/xlink" x="0px" y="0px"
	 viewBox="0 0 841.9 595.3" style="enable-background:new 0 0 841.9 595.3;" xml:space="preserve">
<style type="text/css">
	.st0{opacity:0.9;}
	.st1{fill:#DBEEE9;}
	.st2{fill:#D9EDEA;}
	.st3{fill:#F59E0B;}
	.st4{fill:#2B8F90;}
	.st5{fill:#FBBF24;}
	.st6{fill:#9BD1D0;}
	.st7{fill:#706F6F;}
	.st8{fill:#FEFEFE;}
	.st9{fill:#3C3C3B;}
	.st10{fill:#575756;}
	.st11{fill:none;}
	.st12{fill:#D97706;}
	.st13{fill:#208A8C;}
	.st14{fill:#65C0C4;}
	.st15{fill:#13676A;}
	.st16{fill:#0D9488;}
	.st17{fill:#BAE6FD;}
	.st18{opacity:0.44;fill:#0369A1;enable-background:new    ;}
	.st19{fill:#172F5D;}
	.st20{fill:#223647;}
	.st21{fill:#E68D8E;}
	.st22{fill:#0369A1;}
	.st23{fill:#38BDF8;}
	.st24{fill:#0F273F;}
	.st25{fill:#248D8E;}
	.st26{fill:#0284C7;}
	.st27{fill:#F1F3F4;}
	.st28{fill:#FFFFFF;}
</style>
<g id="Warstwa_2_1_">
</g>
<g id="Warstwa_1_1_">
	<g class="st0">
		<g>
			<path class="st1" d="M246.8,177.6c3.2-0.4,2.7-4,4.1-6c9.9-13.9,21.3-25.8,35.7-33.7c11.4-6.3,23.4-10.8,35.7-14.4
				c10.3-3,20.5-6,30.9-8.6c13.1-3.3,26.3-6.2,39.6-8.2c10.1-1.4,20.2-2.8,30.4-2.9c0.3,1.8,0.5,3.6,0.9,5.4
				c3.3,16,17.9,23.8,31,16.2c6.7-3.8,10.1-10.5,11.5-18.5c3.2-0.3,6.2,1,9.2,2c12.5,4.2,25.2,7.7,36.3,15.7
				c7.6,5.5,12.8,13.2,17.2,21.7c1,2,1.8,4.1,2.7,6.2c-8.5,0.2-11.2,5.6-6.9,13.6c0.5,1,1.1,1.9,1.7,2.9c4.5,7,4.5,8.3-0.2,15.6
				c-0.6,0-1.2,0-1.7-0.1c0-1.3-0.1-2.6-0.1-3.9c0.1-3.5-1-6.2-4-7.5c-2.7-1.1-5.4-0.5-7.5,1.8c-2.2,2.4-2.8,5.4-1.4,8.6
				c0.7,1.6,1.3,3.3,2,4.9c0,1,0.2,1.8,1.2,2.1c0.2,0,0.4,0,0.5,0.2c-0.7,3.7,1.2,5.7,4,7c-0.3,0.6-0.7,1.2-1,1.8
				c-3,1-4.6-1.7-6.7-3c-3.3-6.5-9.2-8.8-14.2-5.5c-5.4,3.5-6.6,10.4-2.7,16.8c3.1,5.1,6.9,9.6,10.9,13.9c1.2,1.3,2,2.1,1.1,4.1
				c-2.7,5.8-5.3,11.8-7.9,17.6c0-5.7,0.6-11.2,0.3-16.7c-0.3-5.9-4.8-11-10-11.4c-4.7-0.4-8.9,0.9-11.2,5.6c-2.5,5-2.1,10.2,0.9,15
				c4.3,6.9,10,12.3,15.2,18.1c-3,7.4-5.7,15-9.4,22.1c-0.1-1-0.1-2-0.2-3c0.3-1.1,0.3-2.2-0.5-3.1c0-5.7-1-11.2-2-16.7
				c-1.7-8.6-8.7-14.3-16.1-12.9c-7.8,1.5-12.9,9.3-11.8,18.2c0.2,1.4,1.1,2.8-0.1,4.2c-1.8,0-3.6,0.1-5.4,0.1
				c-0.1-2.2-0.3-4.5-0.4-6.7c0.1-0.3,0.2-0.8,0.4-0.8c2.6-0.8,2.9-3,2.4-5.4c-0.5-2.8-2.7-1.6-4.1-1.6c-9.2-0.1-18.4-0.1-27.6-0.1
				c-3.8,0-5.2,2.2-3.5,5.7c0.5,1,1.3,1.8,1.5,2.9c-0.3,2-0.5,4-0.8,5.9c-14.4,0-28.8,0-43.2-0.1c-6.8-17.7-13.6-35.4-20.2-53.1
				c-5.2-13.9-10.3-27.9-15.4-41.9c3.5,0,6.6,2.9,9.8,2.7c9.3-0.4,18.6-1.4,27.5-4.2c6.3-2,9.1-6.9,8.1-12.8
				c-0.6-4-5.3-6.9-11.1-6.9c-7.5,0-15.2,0.8-22.6-0.3c-6.7-1-12.8-0.4-18.9,2.4c-0.9-2.2-2.1-4.4-2.8-6.7c-1.1-4.1-2.7-4.9-6.5-3
				c-15.9,7.5-31.9,14.7-48,21.8c-2.9,1.3-3.6,2.5-2.3,5.8c4.8,12.3,9.4,24.8,14,37.2c7.8,21,15.6,42,23.4,63
				c-0.3,0.3-0.6,0.6-0.9,0.9c-3-4.3-6-8.6-9-13C281.5,229,264.2,203.3,246.8,177.6z M412.9,220.4c0,1.8-0.2,3.6-0.1,5.4
				c0.5,6.6,5.2,12.3,10.9,13.3c6.8,1.2,12.6-2,15.2-8.4c3.9-9.6-0.2-18.5-10.1-21.5c-2.9-5.8-7-7.9-13-6.5
				c-3.7,0.9-7.4,0.5-11.1,0.1c-5.7-0.5-12.1-2.5-17,1.9c-2.9,2.7-5.5,4-9.1,3.7c-2.7-0.2-5.6,0.8-5.7,4.1c-0.1,3.8,3,3.9,5.6,3.9
				c5,0,10.1,0.1,14.5,2.6c3.1,1.8,6.1,2.3,9.4,2.4C406.1,221.4,409.4,220.8,412.9,220.4z M430.6,182.9c-0.1,11.2,7,19,16.9,19.6
				c9.4,0.6,18-9.6,17.8-19.2c-0.3-11.2-8.1-18.7-15.4-19.2C438.4,163.3,430.6,171.3,430.6,182.9z M412.8,138.4
				c-4.4-0.2-9,4.7-9.3,10c-0.3,6.7,3.5,11.5,9.4,11.8c5.5,0.3,10.1-4.5,10.3-10.7C423.6,142.7,419.8,138.7,412.8,138.4z
				 M486.8,141.4c0,0.1,0,0.2,0,0.3c-1.1,0-2.1,0-3.2,0c-3,0-5.6,1-7.2,4.1c-0.6,1.2-0.5,2.2,0.3,3.2c2.2,2.7,5.2,2.2,7.6,1.3
				c4-1.6,7.1-0.7,10.6,1.6c3.7,2.5,8.5-0.1,9.7-4.6c0.5-1.8,0.5-3.3-1.8-3.5C497.5,142.9,492.1,142.1,486.8,141.4z"/>
			<path class="st2" d="M549.2,183.5c8.3,16.5,16.8,32.9,31.7,43.2c5.4,3.7,11.8,5.6,17.7,8.3c4.9,2.3,8.5,6.4,11,11.2
				c4.8,9.2,8.7,18.9,11.6,29.1c3.2,11.3,6.3,22.6,8.8,34.1c4.9,22.5,6.5,45.2,5.9,68.1c-0.7,27-4.8,53.4-13.5,78.8
				c-2.3,6.9-5.4,13.5-11.1,18.1c-0.4,0.3-0.5,1.2-0.7,1.8c-6.7-0.9-13.4-1.8-20.1-2.7c-5.3-0.8-10.8-0.1-15.9-2.3
				c7.8-4.8,15.2-10.1,22-16.3c10.1-9.2,20-18.5,27.9-30.2v-0.1c1.2-0.9,0.9-1.5-0.3-1.9c-1.3-0.5-2.6-0.9-3.8-1.4
				c-10.6-3.6-21.6-5.7-32.5-7.9c9.2-20.8,15-42.8,18.7-65.5c1.8-11.4,3.3-22.8,4-34.4c0.1-2.2,0.2-4.2-2.7-3.5
				c-1.6,0.4-3.2,0.7-4.7,1.4c-24.4,10.1-47.6,22.6-67.9,40.8c-1.1,1-2,2-3.6,1.4c-0.2-2.1,2-2.8,2.2-4.6l0.1-0.1
				c0.3-0.2,0.6-0.2,0.8-0.5c22.2-29.3,44.3-58.6,66.5-87.8c1.9-2.5,1.4-3.6-0.6-5.4c-13.8-12.5-27.6-25.2-41.2-37.9
				c-2.3-2.1-3.4-1.9-5.3,0.6c-7.3,9.9-14.9,19.5-22.3,29.3c-5.4-9.6-9.4-11.3-18.1-7.4c-2.8,1.2-5.3,3-8,4.6
				c-2,1.2-3.9,2.4-5.9,3.6c-0.3-0.3-0.5-0.6-0.8-0.9c3.1-7.1,6.3-14.1,9.4-21.2c1-2.3,2.2-1.2,3.6-0.2c4.5,3.3,9.3,6,14.6,7.5
				c5.4,1.6,8.9,0.3,11.4-4c2.6-4.4,2.4-8.8-0.4-12.9c-2.6-3.7-7.2-5-11.8-3.2c-3,1.1-5.9,2.3-9,3.3c-0.9,0.3-2,1.5-2.9,0.2
				c-0.7-1-0.3-2.2,0.2-3.3c2.1-4.3,4.3-8.7,6.3-13c0.9-1.9,2-2.3,3.6-1c2.7,2.2,5.9,3.4,9,4.6c5.5,2.1,10.3-2.2,9.6-8.3
				c-0.6-4.9-4.8-7.2-10.1-5.9c-2.5,0.6-4.7,2.8-8.2,2.6c2.6-5.2,5.9-9.1,7.7-14.1c0.7-1.9,1.8-1.3,3.2-0.5
				C539.8,180.3,544,183.4,549.2,183.5z M610.6,295.9c1.3,0,1.7,0,2.2,0c3-0.3,4.5-2.9,5-5.5c0.6-3.6-2.5-2.1-4.1-2.6
				c-2-0.6-4-1.3-6.1-1.5c-5-0.4-10.1-2.4-14.8,0.7c-1.6,1-4,2.1-3,4.7c0.9,2.4,3.1,4.2,5.5,3c4.6-2.3,8.9-1.9,13.2,0.8
				C609.2,296,610.4,295.9,610.6,295.9z"/>
			<path class="st1" d="M179.2,479.2c-0.1-1-0.5-1.8-1.5-2.2c-12.4-4.2-18.3-15.9-25-26.5c-5.4-8.6-8.7-18.4-11.5-28.3
				c-1.8-6.5-3.6-13.2-3.7-20.3c-0.1-13.1-0.8-26.2,2.9-38.8c3.2-10.8,6.7-21.4,12.5-31c7.9-12.8,17.4-23.5,28.9-32.5
				c11.2-8.8,21.6-19.1,26.6-34.1c13.1,19.2,26.1,38.4,39.2,57.5c2.8,4.1,4.9,8.7,8.7,11.9c-2.2,5.3-6.5,8.4-10.1,12.1
				c-0.2-1-0.9-1.6-1.7-2.2c-14.7-11.3-30.3-20.6-46.9-28c-6-2.7-11.7-6.7-18.6-6.8h-0.1c-0.1-0.4-0.2-0.9-0.3-1.3
				c-0.1,0.4-0.3,0.9-0.4,1.3c-1.1,0.5-0.9,1.3-0.5,2.1c0.2,11.4,1.8,22.7,3.5,34c3.5,23.5,9.7,46,19,67.5c-1.3,0.3-2.6,0.6-3.9,0.8
				c-10.5,1.8-20.9,4.4-31,7.9c-0.9,0.3-2.7,0-1.8,2.2c14.2,19.2,30.9,35.1,50.7,46.9c0,1.2-0.6,1.7-1.7,1.8
				c-2.8,0.3-5.6,0.6-8.4,0.9C195.7,475.2,187.3,476.1,179.2,479.2z M201.3,299.9c-1.7,1.5-4.6,0.2-6.6,2.6
				c-1.2,1.4-2.5,2.5-1.7,4.6c0.7,1.8,2,2.8,3.9,2.7c0.7,0,1.6,0.1,2.2-0.2c4.1-2.2,7.9-1.9,11.8,1c3.3,2.5,6.3,0.6,8.8-2.2
				c2.2-2.4,1.3-6.4-1.4-6.4C212.6,301.9,207.2,301,201.3,299.9z"/>
			<path class="st3" d="M179.2,479.2c8.1-3.1,16.5-4,24.9-5.1c2.8-0.4,5.6-0.7,8.4-0.9c1.1-0.1,1.7-0.6,1.7-1.8
				c4.7,2.7,9.4,5.3,14.6,6.8c-0.6,4.3,1.4,5.5,4.9,5c2.9-0.4,5.8-0.8,8.8-1.2c0.3,0,0.6-0.1,0.9-0.1c0.9-0.2,1.8-0.4,2.7-0.6
				c6-0.5,12-1,18-1.7c1.3-0.1,2.4-1.1,3.6-1.7c11.3,0.1,22.5,0.2,33.8,0.3c0.4,0.2,0.8,0.7,1.2,0.7c17.1,0.1,34.1,0.5,51.2-0.2
				c0.3-0.2,0.6-0.4,0.9-0.5c15.1,0,30.2-0.1,45.3-0.1c10.2,0,20.4,0.1,30.7,0.1c0.7,0.6,1.4,1.3,2.2,1.9c-2.1,7.2-1.7,7.8,5,8
				c1.6,0,3.3,0.1,4.9,0.1c0.9,0,1.9,0.2,2.3-1c0.3-1.1-0.5-1.9-1.2-2.4c-2.5-1.6-5.2-3.1-7.7-4.6c0.5-0.8,1-1.5,1.6-2.3
				c4.5,0.7,8.9,0.6,13.4,0.1c0.6,0.3,1.2,0.5,1.8,0.8c1.7,0.1,1.5,1.6,1.9,2.8c-0.6,6.4-0.6,6.4,5.3,6.5c0.4,0,0.9,0,1.3,0
				c2.6,1,5.3,0,7.8-0.3c2.9-0.3,4.6-2.1,4.1-5.6c0.3-1.3,0.7-2.6,1-3.9c6,0,12,0,18,0c0.4,1.8-0.8,3-1.2,4.6
				c-1.6,1-2.7,2.5-2.6,4.7c6.6-0.2,10-3,10.3-8.5c0.2-0.2,0.5-0.4,0.7-0.6c5.1-0.1,10.2-0.3,15.4-0.2c2.1,0,3-0.7,2.8-3.1
				c-0.1-1.3,0.1-2.6,0.1-4c0.7,0.3,1.5,0.5,2,1c7.8,6.6,16.9,9.3,26.5,8.8c10.2-0.5,19.5-4.6,28.5-9.6c5.1,2.2,10.6,1.5,15.9,2.3
				c6.7,1,13.4,1.8,20.1,2.7c3,0.9,6.1,1.8,9.1,2.8c1,0.3,2.2,0.7,2.2,2.1s-1.2,1.8-2.1,2.2c-4.3,2-9,2.7-13.6,3.4
				c-19.9,2.8-39.8,4.3-59.8,5.4c-31.7,1.8-63.5,2.4-95.3,3.2c-31.2,0.8-62.4,0.8-93.6,0.3c-15.4-0.3-30.7-0.2-46.1-0.8
				c-30.7-1.2-61.4-2.3-92-5c-11.2-1-22.5-2-33.5-4.7c-2-0.5-4.1-1.2-6-2C178,482.2,177.9,480.8,179.2,479.2z"/>
			<path class="st4" d="M256.4,334.9c-3.8-3.2-5.9-7.8-8.7-11.9c-13.1-19.1-26.1-38.3-39.2-57.5c-9.3-13.8-18.4-27.8-27.9-41.5
				c-2.3-3.3-2.1-4.9,0.9-7.3c18.8-15.2,37.5-30.5,56.1-46c2.3-1.9,3.7-2,5.3,0.8c1.1,2.1,2.6,4,3.9,6c17.4,25.7,34.8,51.4,52.2,77
				c3,4.4,6,8.7,9,13c0.4,0.7,0.7,1.4,1.1,2.1c1-1.1,0.4-2-0.2-3c-7.8-21-15.6-42-23.4-63c-4.6-12.4-9.2-24.9-14-37.2
				c-1.3-3.3-0.6-4.5,2.3-5.8c16.1-7.1,32.1-14.3,48-21.8c3.8-1.8,5.4-1.1,6.5,3c0.6,2.3,1.8,4.5,2.8,6.7c1.4,6.3,4.3,12,6.5,17.9
				c0.2,0.4,0.4,0.8,0.6,1.2v0.1c5.1,14,10.2,27.9,15.4,41.9c6.7,17.7,13.5,35.4,20.2,53.1c-1.9,0-3.8,0-5.7,0
				c0.4-2.6-0.9-4.8-1.8-7.1c-6.3-16.8-12.7-33.6-19-50.5c-7.2-19.3-14.4-38.5-21.7-57.8c-0.9-2.3-1.5-4.6-4.8-3
				c-14.2,6.7-28.6,13.2-42.9,19.7c-2.2,1-2.1,2.1-1.3,4.2c7.2,18.9,14.3,37.9,21.4,56.9c5.7,15.1,11.3,30.3,16.9,45.5
				c-1.9,2.9-3.8,5.8-6.8,7.5c-15.1-22.3-30.2-44.6-45.3-66.9c-7.2-10.6-14.4-21.2-21.6-31.8c-0.9-1.3-1.4-3.1-3.7-1.2
				c-16.4,13.7-33,27.1-49.5,40.6c-2,1.6-2.2,3.2-0.5,5.3c2,2.5,3.6,5.3,5.4,7.9c18.6,27.4,37.2,54.8,55.7,82.4
				c3.8,5.7,8.4,10.8,11.1,17.4C259,333.5,258.2,334.9,256.4,334.9z"/>
			<path class="st5" d="M466.6,106.9c-1.4,8-4.8,14.7-11.5,18.5c-13.2,7.5-27.7-0.2-31-16.2c-0.4-1.8-0.6-3.6-0.9-5.4
				c0.4-9,3.9-16.4,11-21c14.3-9.1,31,1.4,32.4,20.1C466.6,104.2,466.6,105.5,466.6,106.9z"/>
			<path class="st2" d="M537.6,168.5c0.8-1,1.7-2,2.5-3c0.7,1.4,1.1,2.8,1,4.4c-1.3,1.4-2.8,2.4-4.8,2.4
				C535.6,170.5,537.7,169.9,537.6,168.5z"/>
			<path class="st6" d="M548.3,156.6c0.4-0.2,0.8-0.4,1.2-0.6C549.1,156.2,548.7,156.4,548.3,156.6z"/>
			<path class="st6" d="M550.2,155.7c0.2-0.6,0.6-0.9,1.2-0.7C551,155.2,550.6,155.5,550.2,155.7z"/>
			<path class="st6" d="M544.7,152.6c-0.1,0.3-0.2,0.7-0.3,1C544.5,153.3,544.6,152.9,544.7,152.6z"/>
			<path class="st6" d="M547.4,157c0.3-0.1,0.6-0.3,0.9-0.4C548,156.7,547.7,156.9,547.4,157z"/>
			<path class="st7" d="M368.1,262.8c1.9,0,3.8,0,5.7,0c14.4,0,28.8,0,43.2,0.1c0.5,2.7-1,6.1,0.9,8.2c7.6,8.1,14.2,18.2,27.2,15.2
				c2.8-0.7,3.8-1.4,3.7-4.5c-0.1-6.3,0-12.6,0.1-18.8c1.8,0,3.6-0.1,5.4-0.1c2.4-0.1,4.1,1,5.8,2.9c4.3,4.9,8.8,9.6,13.2,14.4
				c0.4,0.7,0.8,1.6,1.8,1.1l-0.1-0.1c0.6,3.5,3.4,4.9,5.5,6.9c0.3,0.3,0.7,0.7,1,1c3.1,4.4,6.6,8.4,10.7,11.8
				c0.5,1.4,1.5,2.4,2.7,3.3c12.2,13.9,24.3,27.8,37.1,41.1c0.8,1.3,1.5,2.6,2.3,3.9l-0.1,0.1c-2,0-3.9-0.1-5.8-0.1
				c-3.6,0.1-7.3,0.1-10.9,0.2c-2.5-0.1-5.1-0.3-7.6-0.4c0.8-1.2,1.4-2.5,2.3-3.7c1.2-1.6,1.6-3.2,0.4-4.9c-0.6-0.9-2.2-2.3-2.4-1.8
				c-1,2.3-4.1,1.4-4.5,4c-0.3,1.9-0.5,3.9-0.7,5.9c-0.6,0.3-1.1,0.6-1.7,1c-5-0.6-9.9-0.5-14.9,0c-0.3-0.1-0.4-0.3-0.5-0.6
				c0.3-0.4,0.5-1,0.8-1.2c1.4-0.7,2.3-0.4,1.3-3.3c-1.7-4.8-1.6-10.2-4.6-15c-2.1-3.4-8.6-11-12.5-11.3c-6.4-0.4-10.4,5.3-15.9,7.2
				c-0.3,0.1-0.8,1.3-0.6,1.7c2.3,5.8-1.2,8.6-4.7,11.5c-2.1,0.1-4.2,0.2-6.3,0.4c-0.1-1.4-1.1-3.4,0.1-4.2
				c4.4-2.8,2.9-7.4,3.4-11.5c-0.3-1.4-1.1-3.1-0.8-4.3c1.6-5.5-2-5.9-5.2-6.7c-1.3-0.3-2.7,0.1-4-0.2c-5.5-0.9-7,3.4-8.3,7.7
				c-1.3,4,1.5,5.9,3.8,7.9c-1.1,0.6-2,1.8-0.6,2.5c4.4,2.1,4.6,6,4.3,10.3c-6,1.5-11.4,4.3-15.8,9c-7.4-0.1-14.8-0.2-22.2-0.3
				c-10.1-11.2-20.2-22.3-30.2-33.5c-12.9-14.4-25.7-28.8-38.5-43.3c-1.5-3.9-6.2-4.7-7.2-9c3.5-0.1,7.1-0.2,10.6-0.3
				c3.8,0.4,7.6,0.5,11.4-0.1c5.3,0.1,10.7,0.1,16,0.2c0.3,0,0.6,0,0.9,0C364.6,262.8,366.3,262.8,368.1,262.8z"/>
			<path class="st8" d="M337.6,166.5c-2.3-5.9-5.1-11.6-6.5-17.9c6.1-2.7,12.2-3.4,18.9-2.4c7.4,1.1,15,0.3,22.6,0.3
				c5.8,0,10.5,2.9,11.1,6.9c0.9,5.9-1.8,10.7-8.1,12.8c-8.9,2.9-18.3,3.8-27.5,4.2c-3.2,0.1-6.3-2.7-9.8-2.7v-0.1
				C338,167.3,337.8,166.9,337.6,166.5z"/>
			<path class="st5" d="M430.6,182.9c0.1-11.6,7.9-19.6,19.3-18.9c7.3,0.5,15.2,8,15.4,19.2c0.2,9.6-8.4,19.8-17.8,19.2
				C437.6,201.9,430.5,194.2,430.6,182.9z"/>
			<path class="st9" d="M448.9,262.8c0,6.3-0.2,12.6-0.1,18.8c0.1,3.1-0.9,3.8-3.7,4.5c-13,3.1-19.7-7-27.2-15.2
				c-1.9-2-0.4-5.4-0.9-8.2c0.3-2,0.5-4,0.8-5.9c0.3-2.7,1.9-2.8,3.9-2.8c6.9,0.1,13.8,0.1,20.7,0c2.4-0.1,4.3,0.5,6.2,2.1
				C448.6,258.4,448.7,260.6,448.9,262.8z"/>
			<path class="st8" d="M412.9,220.4c-3.4,0.4-6.8,1.1-10.3,1c-3.3-0.1-6.3-0.7-9.4-2.4c-4.4-2.5-9.5-2.6-14.5-2.6
				c-2.7,0-5.8-0.1-5.6-3.9c0.1-3.3,2.9-4.3,5.7-4.1c3.6,0.3,6.1-1,9.1-3.7c4.9-4.4,11.3-2.5,17-1.9c3.8,0.4,7.4,0.8,11.1-0.1
				c6-1.4,10.2,0.7,13,6.5C421,208.5,415.7,212.3,412.9,220.4z"/>
			<path class="st5" d="M412.9,220.4c2.8-8.1,8.2-11.8,16-11.2c9.9,3,14,11.9,10.1,21.5c-2.6,6.4-8.4,9.6-15.2,8.4
				c-5.7-1-10.5-6.7-10.9-13.3C412.7,224,412.8,222.2,412.9,220.4z"/>
			<path class="st5" d="M412.8,138.4c7,0.3,10.7,4.3,10.5,11.1c-0.2,6.2-4.8,10.9-10.3,10.7c-5.9-0.3-9.7-5.1-9.4-11.8
				C403.8,143.1,408.4,138.2,412.8,138.4z"/>
			<path class="st8" d="M486.8,141.4c5.3,0.8,10.7,1.6,16,2.2c2.2,0.3,2.2,1.7,1.8,3.5c-1.2,4.5-6,7.1-9.7,4.6
				c-3.4-2.3-6.6-3.2-10.6-1.6c-2.4,1-5.4,1.4-7.6-1.3c-0.8-1-0.9-2-0.3-3.2c1.6-3.1,4.1-4.1,7.2-4.1
				C484.7,141.5,485.7,141.5,486.8,141.4C486.8,141.6,486.8,141.5,486.8,141.4z"/>
			<path class="st10" d="M448.5,256.1c-1.8-1.5-3.8-2.1-6.2-2.1c-6.9,0.2-13.8,0.1-20.7,0c-2,0-3.6,0.1-3.9,2.8
				c-0.2-1.2-1.1-2-1.5-2.9c-1.7-3.5-0.4-5.7,3.5-5.7c9.2,0,18.4-0.1,27.6,0.1c1.4,0,3.6-1.2,4.1,1.6c0.4,2.4,0.2,4.5-2.4,5.4
				C448.7,255.3,448.6,255.8,448.5,256.1z"/>
			<g>
				<path class="st11" d="M511.4,215.2c0,0.1,0.2,0.2,0.3,0.3c0.1-0.7,0.2-1.4,0.4-2.1C511.3,213.7,511.2,214.4,511.4,215.2z"/>
				<path class="st3" d="M560.5,144.2c-0.8-3.3-2.8-5.5-6-5.9s-5.5,1.3-6.9,4.4c-1.4,3.1-2.4,6.4-2.9,9.9c-0.1,0.3-0.2,0.7-0.3,1
					c-0.2,1-0.3,2-0.5,3c-2.8,1.6-3.3,5.6-6.2,7.6c-0.5-2.9,0.8-6-1.9-7.9c-0.5-2.1-2.2-3-3.8-3.8c-8.5,0.2-11.2,5.6-6.9,13.6
					c0.5,1,1.1,1.9,1.7,2.9c4.5,7,4.5,8.3-0.2,15.6c-0.2,1.3-0.5,2.4-1.6,3.1c-0.6-1.1-0.3-2.1-0.1-3.2c0-1.3-0.1-2.6-0.1-3.9
					c0.1-3.5-1-6.2-4-7.5c-2.7-1.1-5.4-0.5-7.5,1.8c-2.2,2.4-2.8,5.4-1.4,8.6c0.7,1.6,1.3,3.3,2,4.9c0.4,0.7,0.8,1.4,1.2,2.1
					c0.2,0,0.4,0,0.5,0.2c0.9,2.6,4.5,3.5,4,7c-0.3,0.6-0.7,1.2-1,1.8c-2.2,4.6-4.4,9.2-6.6,13.8c0-5.6-0.1-11.2-0.1-16.8
					c-3.3-6.5-9.2-8.8-14.2-5.5c-5.4,3.5-6.6,10.4-2.7,16.8c3.1,5.1,6.9,9.6,10.9,13.9c1.2,1.3,2,2.1,1.1,4.1
					c-2.7,5.8-5.3,11.8-7.9,17.6c0-5.7,0.6-11.2,0.3-16.7c-0.3-5.9-4.8-11-10-11.4c-4.7-0.4-8.9,0.9-11.2,5.6
					c-2.5,5-2.1,10.2,0.9,15c4.3,6.9,10,12.3,15.2,18.1c0.3,0.1,0.5,0.1,0.8,0.2c-0.3-0.1-0.5-0.1-0.8-0.2c-3,7.4-5.7,15-9.4,22.1
					c-0.1-1-0.1-2-0.2-3c-0.8-0.9-0.7-2-0.5-3.1c0-5.7-1-11.2-2-16.7c-1.7-8.6-8.7-14.3-16.1-12.9c-7.8,1.5-12.9,9.3-11.8,18.2
					c0.2,1.4,1.1,2.8-0.1,4.2c2.4-0.1,4.1,1,5.8,2.9c4.3,4.9,8.8,9.6,13.2,14.4c0.7,0.2,1.4,0.2,1.8,1c1.6,0.7,3.1,1.5,4.7,2.2
					c2.3,1.1,1.9,2.8,0.8,4.7c0.3,0.3,0.7,0.7,1,1c1.4-3.5,3.2-3.3,5.8-1.2c2.8,2.3,5.7,4.8,9.4,5.2c6.5-7.1,12.8-14.3,17.2-23.2
					c-5.2-1.1-9.5,1.9-14.1,3.5c-4.8,1.7-8.9,5.4-13.9,6.6c-1.2-0.1-1.8-0.5-1.8-1.4c-0.1,1,0.5,1.3,1.8,1.4
					c3.3-8.5,7.4-16.6,10.1-25.4l0,0c7.8,3.3,15.6,6.5,23.5,9.8c4.2-5.6,8.4-11.3,12.5-16.9c-5.4-9.6-9.4-11.3-18.1-7.4
					c-2.8,1.2-5.3,3-8,4.6c-2,1.2-3.9,2.4-5.9,3.6c-0.3-0.3-0.5-0.6-0.8-0.9c3.1-7.1,6.3-14.1,9.4-21.2c1-2.3,2.2-1.2,3.6-0.2
					c4.5,3.3,9.3,6,14.6,7.5c5.4,1.6,8.9,0.3,11.4-4c2.6-4.4,2.4-8.8-0.4-12.9c-2.6-3.7-7.2-5-11.8-3.2c-3,1.1-5.9,2.3-9,3.3
					c-0.9,0.3-2,1.5-2.9,0.2c-0.7-1-0.3-2.2,0.2-3.3c2.1-4.3,4.3-8.7,6.3-13c0.9-1.9,2-2.3,3.6-1c2.7,2.2,5.9,3.4,9,4.6
					c5.5,2.1,10.3-2.2,9.6-8.3c-0.6-4.9-4.8-7.2-10.1-5.9c-2.5,0.6-4.7,2.8-8.2,2.6c2.6-5.2,5.9-9.1,7.7-14.1
					c0.7-1.9,1.8-1.3,3.2-0.5c4.3,2.6,8.5,5.7,13.7,5.9c4.7-2.3,6.6-5.5,5.5-9.7s-4.4-6.1-9.4-5.2c-1.5,0.3-2.9,0.9-4.3,1.3
					c-1.3,1.4-2.8,2.4-4.8,2.4c-0.6-1.8,1.4-2.4,1.4-3.9c0.8-1,1.7-2,2.5-3c1.9-2.8,3.7-5.8,6.2-8.1c0.4-0.1,0.7-0.3,1.1-0.4
					c0.3-0.1,0.6-0.3,0.9-0.4l0,0c0.4-0.2,0.8-0.4,1.2-0.6c0.2,0,0.5-0.1,0.7-0.3c0.2-0.6,0.6-0.9,1.2-0.7c2.4-0.2,4.3-1.6,6.1-3.1
					C559.6,150.1,561.3,147.6,560.5,144.2z M511.4,215.2c-0.2-0.8-0.1-1.5,0.7-1.8c-0.1,0.7-0.2,1.4-0.4,2.1
					C511.6,215.3,511.4,215.3,511.4,215.2z"/>
				<path class="st12" d="M475,281.1L475,281.1C475,281,475,281,475,281.1C474.9,281,475,281.1,475,281.1z"/>
			</g>
			<path class="st2" d="M518.7,199.4c-2.2,4.6-4.4,9.3-6.6,13.9l0,0c0-5.6-0.1-11.3-0.1-16.9C514.1,197.7,515.7,200.4,518.7,199.4z"
				/>
			<path class="st2" d="M515.7,190.5c0.9,2.6,4.5,3.5,4,7C517,196.2,515.1,194.2,515.7,190.5z"/>
			<path class="st2" d="M526.7,184.5c-0.2,1.3-0.5,2.4-1.6,3.1c-0.6-1.1-0.3-2.1-0.1-3.2C525.6,184.5,526.1,184.5,526.7,184.5z"/>
			<path class="st6" d="M484.7,273.1c-0.8-0.9-0.7-2-0.5-3.1C485.1,270.9,485,271.9,484.7,273.1z"/>
			<path class="st2" d="M514,188.3c0.4,0.7,0.8,1.4,1.2,2.1C514.1,190.1,514,189.3,514,188.3z"/>
			<path class="st13" d="M608.1,310c2.9-0.7,2.8,1.3,2.7,3.5c-0.7,11.6-2.2,23-4,34.4c-3.7,22.7-9.5,44.7-18.7,65.5
				c-10.2-0.2-20.3-2-30.5-0.1c-11.3,2.1-21.9,5.7-31.2,13.4c-3,2.5-4.9,6.4-8.7,7.7c0-3.3,0-6.6,0-9.9c3-0.7,4.9-3.2,6.3-5.8
				c2.1-4,6.8-6,7.2-11.3l0,0c3.7-1.8,6.7-4.2,7.3-9l0,0c0.3-0.4,0.6-0.9,0.9-1.3c0.4-0.2,0.8-0.4,1.2-0.6c1.6-0.3,1.7-1.6,1.6-3
				l0,0c2.1,0.2,2.9-0.8,2.7-3l0,0c2.2-0.2,3.4-1.6,3.6-4l0,0c2.1-1.4,4.6-2.6,4.5-6l0,0c0.3-0.3,0.7-0.7,1-1c1.2-0.6,0.4-2.9,2.2-3
				c11.7-1.4,23.3-2.8,35.4-4.2c-0.9-1.7-1.8-1.5-2.9-1.4c-8.9,1.2-17.8,2.3-26.7,3.5c-1.4,0.2-2.4-0.2-2.6-1.9l0,0
				c0.3-0.3,0.7-0.7,1-1c1.1-1.3,2.1-2.7,3.2-4c0.4-0.3,0.9-0.7,1.3-1l0,0c0.8-0.4,1-1.2,0.9-2l0,0c0.3-0.3,0.6-0.7,0.9-1l0,0
				c3.2-1,5.4-3,5.5-7l0,0c0.3-0.3,0.6-0.7,0.9-1l0,0c1.2,0.1,2-0.6,2.7-1.4c4.8-5.8,9.8-11.5,14.4-17.5c1.4-1.8,3.7-3.1,3.7-6l0,0
				c3.3-2.1,6-4.8,7.3-9l0,0c1.9-0.1,1.9-1.5,1.8-3l0,0c1.2,0.1,1.7-0.6,1.9-1.7c0.3-0.4,0.6-0.8,1-1.2c0.3-0.3,0.5-0.6,0.8-0.9
				C606.8,313.3,607.5,311.6,608.1,310z"/>
			<path class="st14" d="M556,376.5c-1.7,0.1-1,2.4-2.2,3c-0.6,0-1,0.3-1,1l0,0c-2,1.6-4,3.1-4.5,6l0,0c-2,0.4-3,2-3.6,4l0,0
				c-1.2,0.7-2.1,1.7-2.7,3l0,0c-1.1,0.6-1.5,1.8-1.6,3c-0.4,0.2-0.8,0.4-1.2,0.6c-0.3,0.4-0.6,0.9-0.9,1.3l0,0
				c-2.4,1.4-1.8-0.7-1.8-2c2.6-9.9,4.3-20.1,5.7-30.3c-2.5,10-5.3,19.9-6.6,30.3c-0.7,4.1-2.4,7.7-4.6,11l0,0
				c-5.3,4.3-8.5,10.8-13.4,15.4c0-17.4,0-34.8,0-52.2c1.6-0.8,1.8-3.3,3.5-3.9c2.4,1.1,1.5-1.1,1.8-2.1l0,0c3-1.3,5.7-3,6.4-6.9
				c0-0.4,0.1-0.8,0.1-1.2c1.1,0,2.1-0.3,1.7-1.9l0,0c0.7,0.1,1-0.3,0.9-1h-0.1c1.5,0.6,2.5-0.5,3.6-1.4
				c20.3-18.3,43.5-30.7,67.9-40.8c1.5-0.6,3.1-0.9,4.7-1.4c-0.6,1.7-1.3,3.3-1.9,5c-0.3,0.3-0.5,0.6-0.8,0.9
				c-0.3,0.4-0.6,0.8-1,1.2c-1,0.1-1.9,0.4-1.9,1.7l0,0c-1.2,0.6-2.1,1.3-1.8,3l0,0c-3.6,1.9-6.3,4.6-7.3,9l0,0
				c-8.4,6.9-14.3,16.2-20.8,24.9l0,0c-0.3,0.3-0.6,0.7-0.9,1l0,0c-2.2,2-4.4,4-5.5,7l0,0c-0.3,0.3-0.6,0.7-0.9,1l0,0
				c-0.8,0.4-1.2,1.1-0.9,2l0,0c-0.7-0.1-1,0.4-1.3,1c-1.1,1.3-2.1,2.7-3.2,4c-0.6,0-0.9,0.3-1,1l0,0
				C557.5,373.3,556.6,374.8,556,376.5z"/>
			<path class="st13" d="M574.7,471.2c-9,5-18.3,9.2-28.5,9.6c-9.6,0.5-18.7-2.2-26.5-8.8c-0.6-0.5-1.3-0.6-2-1c0-5.3,0-10.6,0-15.9
				c4.8,0.6,8.8-2.6,13.2-3.9c16.7-5.2,33.6-9.1,50.1-14.8c10.7-3.7,21.8-6,32.6-9.4c3.5-1.1,7-3.8,11.1-2.3
				c-7.8,11.7-17.8,21-27.9,30.2C589.9,461.1,582.4,466.4,574.7,471.2z"/>
			<path class="st15" d="M624.6,424.7c-4-1.4-7.5,1.2-11.1,2.3c-10.8,3.4-21.9,5.6-32.6,9.4c-16.5,5.8-33.5,9.7-50.1,14.8
				c-4.4,1.4-8.3,4.5-13.2,3.9c0-6.9,0-13.9,0-20.8c3.8-1.3,5.7-5.2,8.7-7.7c9.3-7.7,19.9-11.3,31.2-13.4
				c10.2-1.9,20.3-0.1,30.5,0.1c10.9,2.2,21.9,4.3,32.5,7.9c1.3,0.4,2.6,0.9,3.8,1.4c0.1,0.6,0.2,1.2,0.3,1.9L624.6,424.7z"/>
			<path class="st4" d="M496.7,292.9c6.5-7.1,12.8-14.3,17.2-23.2c3-0.5,3.7-3.7,5.6-5.5c4.2-5.6,8.4-11.3,12.5-16.9
				c7.5-9.7,15-19.4,22.3-29.3c1.9-2.5,3.1-2.7,5.3-0.6c13.7,12.7,27.4,25.4,41.2,37.9c2,1.9,2.5,2.9,0.6,5.4
				c-22.2,29.2-44.4,58.5-66.5,87.8c-0.2,0.2-0.5,0.3-0.8,0.5c-0.8-1.3-1.5-2.6-2.3-3.9c10.5-13.8,21.1-27.6,31.6-41.4
				c10.2-13.5,20.2-27.1,30.6-40.4c3.1-4,2.6-6.1-0.9-9.2c-11.1-9.8-22-20-32.9-30.2c-2.1-1.9-3.4-2-5.2,0.4
				c-20.1,26.6-40.2,53.2-60.3,79.7c-1.2-0.8-2.1-1.8-2.7-3.3C493.4,297.9,496.2,296.2,496.7,292.9z"/>
			<path class="st8" d="M610.6,295.9c-0.2,0-1.4,0.1-2.2-0.4c-4.3-2.7-8.6-3.1-13.2-0.8c-2.4,1.2-4.6-0.6-5.5-3
				c-1-2.6,1.5-3.7,3-4.7c4.8-3.1,9.9-1.1,14.8-0.7c2.1,0.2,4.1,0.9,6.1,1.5c1.6,0.5,4.7-1,4.1,2.6c-0.4,2.6-1.9,5.2-5,5.5
				C612.3,296,611.9,295.9,610.6,295.9z"/>
			<path class="st4" d="M521.2,366.6c-1.8,0.6-1.9,3.1-3.5,3.9c0-2.3,0-4.5,0-6.8c4-4.6,7.9-9.1,10.6-14.8c1.9,0,3.9,0.1,5.8,0.1
				c-0.3,1.8-2.4,2.5-2.2,4.6h0.1c-0.7-0.1-1,0.2-0.9,1l0,0c-1.4-0.3-1.8,0.5-1.7,1.9c0,0.4-0.1,0.8-0.1,1.2
				c-3.1,1.3-5.1,3.7-6.4,6.9l0,0C522.4,365.2,521.8,365.9,521.2,366.6z"/>
			<path class="st13" d="M624.6,424.6c-0.1-0.6-0.2-1.2-0.3-1.9C625.6,423.1,625.8,423.7,624.6,424.6z"/>
			<path class="st16" d="M200.4,413.4c-9.3-21.5-15.5-44.1-19-67.5c-1.7-11.3-3.3-22.5-3.5-34c1.1,0.3,2.1,0.5,3.1,0.8l0,0
				c0,2.1,1.2,3.2,2.7,4l0,0c0,1.3,0.6,2,1.8,2l0,0c0.2,2.4,1.4,3.8,3.6,4l0,0c0.9,4.5,3.4,7.4,7.3,9l0,0c-0.1,0.9,0.1,1.6,0.9,2
				l0,0c0.3,0.3,0.6,0.7,0.9,1l0,0c0.8,3.2,2.5,5.3,5.5,6l0,0c-0.1,0.9,0.1,1.6,0.9,2l0,0c0,1.3,0.6,2,1.8,2l0,0
				c1.5,3.9,3.8,7,7.3,9l0,0c0.7,3.4,3.1,5.1,5.4,7l0,0c0,1.3,0.6,2,1.8,2l0,0c1.2,4.8,6,6.8,7.5,11.9c-13.2-1.6-26.3-3.2-39.5-4.7
				c0.2,1.3,0.5,1.7,0.9,1.8c14.9,2.2,30.2,2,44.7,7.1l0,0c-0.1,0.9,0,1.7,0.9,2l0,0c0,1.3,0.6,2.1,1.8,2l0,0
				c-0.2,2.3,0.7,3.3,2.7,3l0,0c0,0.9,0,1.7,0.9,2l0,0c3,7.5,9.1,12.3,13.8,18.3c1.9,2.4,2.8,4.6,2.5,8.2c1-1.6,0.7-4,2.8-2.5
				c0,4.3,0,8.6,0,12.8c-4.8-1.7-8.5-6.1-13.7-6.9c-1.3-1-2.4-2.6-4.3-1.9c-0.4-0.4-0.7-0.8-1.1-1.2c0.9-2,4.3-3.8,1.4-6.1
				c-2.5-2-3.9,1.2-4.8,3.3c-0.6,1.4-1.1,1.7-2.3,1.1s-2.3-0.6-3.3,0.7C221.2,411.6,210.8,412.3,200.4,413.4z M234.7,408
				c1.4,0.1,1.4-1,1.3-1.9c-0.1-1.9-0.1-4.2-2.5-4.4c-1.4-0.1-2,1.3-1.9,2.7C231.7,406.6,233.3,407.3,234.7,408z"/>
			<path class="st14" d="M179.1,310c6.8,0.1,12.6,4.1,18.6,6.8c16.5,7.5,32.2,16.8,46.9,28c0.8,0.6,1.4,1.2,1.7,2.2
				c0.4,3.6,3.1,0.8,4.5,1.9c2.2,4.3,6.4,6.5,9.2,10.2c0,13.6,0.1,27.1,0.1,40.7l0,0c0,2.1,0,4.2,0,6.3c-0.2,0.7-0.4,1.5-0.6,2.2
				c-6-3.5-5.7-10.7-8.3-16.4c0.2,2,0.4,4.1,0.7,6.1c-0.2,0.2-0.3,0.3-0.5,0.5c-1.2-1.2-2.3-2.5-3.5-3.7c-2.4-2.5-3.7-6.3-7.2-7.5
				l0,0c0.3-1-0.2-1.6-0.9-2l0,0c-0.6-1.3-1.4-2.5-2.7-3l0,0c-0.1-1.2-0.6-2-1.8-2l0,0c0.2-1-0.2-1.6-0.9-2l0,0
				c-2-2.6-4-5.4-6.1-7.9c-2.3-2.9-4-6.6-7.5-8l0,0c0.1-1.4-0.5-2.2-1.8-2l0,0c-0.5-3.6-2.5-5.7-5.4-7l0,0c-1.2-4.2-3.8-7-7.3-9l0,0
				c0.1-1.5-0.4-2.2-1.8-2l0,0c0.4-1.1-0.1-1.6-0.9-2l0,0c-1.2-2.6-2.6-5.1-5.5-6l0,0c0.1-0.8-0.2-1.1-0.9-1l0,0
				c0.4-1.1-0.1-1.6-0.9-2l0,0c-1.7-3.7-4.3-6.5-7.3-9l0,0c-0.6-2-1.4-3.8-3.6-4l0,0c0.1-1.4-0.5-2.2-1.8-2l0,0
				c0.2-2.3-0.8-3.5-2.7-4l0,0C180.3,311.8,179.7,310.9,179.1,310z M249.2,383.8c0.4-0.1,0.8-0.2,1.3-0.3c-1.8-8.7-3.6-17.3-5.4-26
				c-0.4,0.1-0.7,0.2-1.1,0.3C245.7,366.5,247.4,375.1,249.2,383.8z"/>
			<path class="st15" d="M200.4,413.4c10.4-1.1,20.8-1.8,31.2-0.1c-0.1,6.8,4.6,2,6.8,3.3c2.8,1.7,0.4-2.7,2.2-2.4
				c0.4,0.4,0.7,0.8,1.1,1.2c-0.5,1.8-1.1,3.6-1.6,5.5c-1.8-1.3-3.4-2.6-5.1-0.7c-0.7,0.8-0.8,1.9-0.1,2.7c0.9,1.2,2.2,2.4,3.5,1.7
				c3.1-1.7,6.9-2.8,7.7-7.4c5.2,0.8,8.9,5.2,13.7,6.9c0.1,1.9,0.1,3.7,0.2,5.6c0,1.5,0,3-0.1,4.5c0.1,2.3,0.4,4.6-0.2,6.9
				c-6.9-0.2-6.9-0.2-9.2,7.1c-0.2,0.6-0.5,1.2-0.7,1.8c-2.1-2.3-5.7-1.7-7.3-4.8c3.1-1.1,6.4-1.6,9.1-4.1c2-1.8,4.3-3.4,3.6-6.7
				c-0.8-3.7-3.6-3.4-6.2-3.3c0.2-0.6,0.2-1.4,0.5-1.8c1.3-1.8,1.9-3.8,0.8-5.9c-0.7-1.3-2-1.3-3.2-1.2c-2.5,0.2-2.5,2.4-2.8,4.3
				c-0.5,3.2-2.1,3.6-4.3,2c-1.6-1.2-3.1-2.1-4.7,0c-1.1,1.5-1.8,2.9-0.6,4.8c1.4,2.3,3.2,1.8,5.2,1.4c3.2-0.7,5.8-3.3,9.2-3.6
				c-1,1.7-1.9,3.2-1.9,5.4c0.1,3.4-1.4,3.9-4,2.4c-5.9-3.5-7.7-2.2-7.7,5.1c-1.3,0-2.5,0-3.8,0.1c-0.9,0-1.7,0-2.6,0
				c3-3.9-1.8-4.5-2.4-6.8c-0.3-0.9-1.4-1.4-2.3-0.7c-1.1,0.9-0.6,2,0.1,2.9c0.7,0.8,1.4,1.4,2.2,2.2c-1.1,0.6-2,1-2.9,1.5
				c-0.4-2.7-2.6-2.4-4.1-3c-7.4-2.4-14.9-4.8-22.4-6.9c-11.1-3.1-22.1-6.9-33.4-9c-0.9-2.2,0.9-1.9,1.8-2.2
				c10.2-3.5,20.5-6.1,31-7.9C197.7,414.1,199,413.7,200.4,413.4z"/>
			<path class="st13" d="M163.6,424.4c11.4,2.1,22.3,5.9,33.4,9c7.5,2.1,14.9,4.5,22.4,6.9c1.6,0.5,3.8,0.3,4.1,3
				c0.6,3.3,2.9,1.4,4.5,1.7c0,0.4,0,0.9,0.1,1.3c-0.6,1.3-3,0.5-2.7,2.9c0,1.1,0.1,2.2,0.1,3.3c-1,1.6-0.8,2.9,0.9,3.7
				c0,0.5,0.1,0.9,0.1,1.4c-1.6,6,2.3,4.5,5,4.5c0.8,0.2,1.5,0.1,1.9-0.8c0.5-0.7,1-1.1,1.9-1c0.2,1.2-0.4,2.1-0.8,3.1
				c-1,0.2-1.6,0.9-1.8,2h-0.1c-0.3-0.1-0.6-0.1-0.9-0.2c-1.8-0.9-3.6-3-5.5-0.9c-1.5,1.7-0.9,3.6,0.9,5c0.1,0.7,0.2,1.5,0.3,2.2
				c-0.3,2.2-0.5,5,2.3,4.6c4.9-0.7,9.9-1.6,13-6.6c6.4,0.2,11.7-3.5,17.3-5.9c0.2,2.3,0.3,4.6,0.5,6.9c-5.5,7-5.5,7-12.1,2.3
				c-3.8-2.7-5.3-2-7.8,3.2c-1.9,3.8-4.1,5.7-7.5,1.9c-1.3-1.4-2.8-0.5-4.1,0.2c-5.2-1.5-9.9-4.1-14.6-6.8
				C194.5,459.5,177.7,443.6,163.6,424.4z"/>
			<path class="st9" d="M250.7,349c-1.3-1.1-4,1.7-4.5-1.9c3.7-3.7,8-6.9,10.1-12.1c1.9,0,2.7-1.4,3.4-3.1c6.7-6,12.5-13.1,18.3-20
				c6.8-7.5,13.7-15,20.5-22.5c3.1-3.8,7-6.9,9.5-11.3c3-1.7,4.9-4.6,6.8-7.5c3.6-1.7,4.8-6.9,9-7.6c1,4.4,5.7,5.1,7.2,9
				c-2.3-0.8-3.2,1.4-4.4,2.7c-6.5,7.1-12.9,14.3-19.3,21.5c-15.7,17.6-31.4,35.2-47.1,52.7c-0.8,0-1.7,0-2.5,0
				c-0.3-0.2-0.5-0.2-0.8,0C254.9,348.9,252.8,349,250.7,349z"/>
			<path class="st8" d="M201.3,299.9c5.9,1.1,11.3,2,16.9,2.1c2.8,0.1,3.6,4,1.4,6.4c-2.4,2.7-5.4,4.7-8.8,2.2
				c-3.9-2.9-7.6-3.3-11.8-1c-0.6,0.3-1.5,0.2-2.2,0.2c-1.9,0.1-3.2-0.9-3.9-2.7c-0.7-2,0.5-3.1,1.7-4.6
				C196.7,300.1,199.6,301.4,201.3,299.9z"/>
			<path class="st15" d="M179.1,310c0.6,0.9,1.3,1.9,1.9,2.8c-1-0.3-2.1-0.5-3.1-0.8c-0.4-0.9-0.6-1.7,0.5-2.1l0.3,0.2L179.1,310
				L179.1,310z"/>
			<path class="st14" d="M179,309.9l-0.3,0.1l-0.3-0.2c0.1-0.4,0.3-0.9,0.4-1.3C178.8,309,178.9,309.5,179,309.9z"/>
			<path class="st17" d="M288.6,367.6c-4.9-2.1-9.9-2.1-14.8,0.1c-4.8,6.1-0.3-0.8-6.7,7.7c-0.4,2-1.5,3.9-1.2,6.1
				c-0.5,13.9-0.3,27.8-0.1,41.7c-0.5,0.7-0.5,1.4,0,2.1c0,0.6,0,1.2,0,1.7c-0.6,1.1-0.1,2.8-1.7,3.3c-1.4-0.2-2.9-0.3-4.3-0.5
				c-0.1-1.9-0.1-3.7-0.2-5.6c0-4.3,0-8.6,0-12.8c0.1-0.8,0.1-1.7,0.2-2.5c0.4-0.9,0.5-1.8,0.1-2.8c0-2.1,0-4.2,0-6.3l0,0
				c0-13.6-0.1-27.1-0.1-40.7c0.1-3.4,0.2-6.8,0.3-10.2c15.7-17.6,31.4-35.2,47.1-52.7c6.4-7.2,12.9-14.4,19.3-21.5
				c1.2-1.3,2.1-3.5,4.4-2.7c12.8,14.4,25.6,28.9,38.5,43.3c10,11.2,20.1,22.4,30.2,33.5c0,43.1,0.1,86.1,0.1,129.2
				c-15.1,0-30.2,0.1-45.3,0.1c0-9.8-0.1-19.6-0.1-29.3c0-25.4,0-50.7,0-76.1c0-2.5,0.6-5.5-3.3-4.1c-14.6-0.1-29.2-0.2-43.8-0.2
				c-6.5,0-5.7-0.9-5.8,6.4c-0.1,34.5-0.1,68.9-0.2,103.4c-11.3-0.1-22.5-0.2-33.8-0.3c1.2-2.7,1.5-5.2-0.7-7.5
				c-2.1-2.1-4.3-1.3-6.5,0c-0.2-2.3-0.3-4.6-0.5-6.9c4.7-4,4.8-6.7,0.4-10.3c-0.3-1.5,0.4-3.3-0.6-4.7c1.5-2.4,0.8-4.7-0.1-7.1
				c0.6-2.3,0.3-4.6,0.2-6.9c1.5-1.2,3.2-0.8,4.8-0.8c9.4,0,18.9-0.1,28.3,0c3,0.1,4.6-0.7,3.8-4.4c0-1.3,0-2.6,0-4
				c0-6.3,0-12.6,0-18.9c-0.2-10.4,1.5-20.9-1.3-31.1 M363.9,374.8c-1.5,4-2,8.3-1.9,12.6c0.1,12.9,0,25.9,0,38.8
				c0,2.3,0.2,4.5-2.9,4c-1.2-0.2-2.6-0.2-2.5,1.9c0.1,2,1.6,1.6,2.7,1.7c0.9,0,1.8-0.3,2.6-0.4c9.6,0,19.3,0,28.9,0
				c1,0.6,1.8,0.6,2.1-0.8c1.2-1.4,0.6-3.1,0.6-4.7c0.1-13.5,0-27,0.1-40.5c0-4.3-0.4-8.5-1.9-12.6 M385.2,367.7
				c-4.9-2.2-9.9-2.2-14.8-0.1 M317.6,341.5c5.1,0.1,10.2,0.2,15.3,0.3c2,0,3-1,3-3.3c0-11.1-0.1-22.1,0-33.2c0-2.4-0.4-3.9-3-3.2
				c-4.3-0.1-8.7,0-13-0.2c-2.6-0.1-3.3,0.8-3.3,3.6c0.1,11,0,22.1,0.1,33.1C316.7,339.5,316.2,340.9,317.6,341.5z"/>
			<path class="st18" d="M399.9,478c0-43.1-0.1-86.1-0.1-129.2c7.4,0.1,14.8,0.2,22.2,0.3c-0.1,0.6-0.2,1.4-0.4,1.9
				c-7.4,14.3-6.9,29.8-5.9,45.4c1.8,2.2-0.2,4.2-0.3,6.3c-0.1,1.8-0.1,3.7,1.8,4.7c1.4,0.7,2.6,1,3.4-0.8c0.7-1.6,3.8-1.9,1.9-4.9
				c-0.7-1.1-0.8-2.8-1.1-4.2c1.9-1.8,1.7-4.4,2-6.8c0.8-6.3,1.2-12.7,3.8-18.7c0.6,2.8,0.5,5.5,0.7,8.2c0.4,5.7-0.8,11.5,0.9,17.1
				c0.6,26.9,1.2,53.9,1.9,80.8C420.3,478.1,410.1,478,399.9,478z"/>
			<path class="st18" d="M517.7,363.7c0,2.3,0,4.5,0,6.8c0,17.4,0,34.8,0,52.2c0,0.6,0,1.1,0,1.7c0,3.3,0,6.6,0,9.9
				c0,6.9,0,13.9,0,20.8c0,5.3,0,10.6,0,15.9c-0.1,1.3-0.3,2.7-0.1,4c0.2,2.4-0.7,3.1-2.8,3.1c-5.1-0.1-10.2,0.1-15.4,0.2
				c-2.7-5.5-1.8-11.9-3.5-17.7c2.9-0.5,2.9-2.8,2.5-5.2c-0.9-7.2-1.7-14.5-2.7-21.7c-1.6-11.3-2.2-22.7-4.4-33.9
				c2-1.9,0.9-4.4,0.6-6.5c-1.2-7.5-2.5-14.9-3.9-22.4c-0.6-3.4-0.8-5.7,3.5-3.7c2.4,1.1,5.6,2.6,7.7,0c4.2-5.1,8-10.7,9.5-17.7
				c0.4-0.3,0.8-0.6,1.2-1c2.5,0.1,5.1,0.3,7.6,0.4C517.4,353.9,517.5,358.8,517.7,363.7z"/>
			<path class="st19" d="M430.6,478.1c-0.6-26.9-1.2-53.9-1.9-80.8c9.4-0.1,18.8,1.8,28-1.3c0.2,4.8,0.5,9.6,0.6,14.4
				c0.9,22.5,1.8,45,2.8,67.5c-0.5,0.2-1,0.4-1.5,0.5c-2,0.1-4,0.2-6,0.2c-0.6-0.3-1.2-0.5-1.8-0.8c-1.5-19.5-3.5-39-5.7-58.4
				c-0.5,0-1,0-1.5-0.1c-2.1,19.4-4.1,38.9-6.2,58.3c-0.5,0.8-1,1.5-1.6,2.3c-1.1,0-2.2,0-3.2,0C432,479.4,431.3,478.7,430.6,478.1z
				"/>
			<path class="st18" d="M437.5,477.8c2.1-19.4,4.1-38.9,6.2-58.3c0.5,0,1,0,1.5,0.1c2.3,19.4,4.2,38.9,5.7,58.4
				C446.4,478.4,442,478.4,437.5,477.8z"/>
			<path class="st18" d="M492.2,478.2c-6,0-12,0-18,0c-0.6-5,1.3-9.8,1-14.8c4.7-0.4,9.5-0.8,14.2-1.2
				C489.9,467.6,493.3,472.4,492.2,478.2z"/>
			<path class="st20" d="M353.7,478.6c-0.9-3.7-0.9-7.5-0.9-11.3c0-29,0-58,0-87c0-3.1,0-6.2,0.3-9.3c0.2-1.9-0.7-2.3-2-2.5
				c3.9-1.4,3.3,1.7,3.3,4.1c0,25.4,0,50.7,0,76.1c0,9.8,0.1,19.6,0.1,29.3C354.3,478.2,354,478.4,353.7,478.6z"/>
			<path class="st5" d="M260.4,470.4c2.2-1.3,4.3-2.1,6.5,0c2.2,2.2,1.9,4.8,0.7,7.5c-1.2,0.6-2.4,1.5-3.6,1.7c-6,0.7-12,1.1-18,1.7
				c0.3-4.6-2.2-5.4-5.6-5.2c2.5-5.3,4-5.9,7.8-3.2C254.9,477.3,254.9,477.3,260.4,470.4z"/>
			<path class="st21" d="M492.2,478.2c1.1-5.7-2.3-10.5-2.8-16c2.1-0.4,1.9-2,1.9-3.7c0-4.2,0-8.3,0-13.8c2.9,5.8,1.7,11.6,4.6,16
				c1.7,5.8,0.8,12.2,3.5,17.7c-0.2,0.2-0.5,0.4-0.7,0.6c-2.7,0.8-4.1,4.9-7.7,3.8C491.4,481.2,492.6,480,492.2,478.2z"/>
			<path class="st21" d="M475.2,463.4c0.3,5-1.6,9.8-1,14.8c-0.3,1.3-0.7,2.6-1,3.9c-2.9,1.3-5.6,3.6-9,2.5c0.1-0.4,0.1-0.9,0.2-1.3
				c2-0.5,3.3-1.7,3.3-4.1c2.1-5.2,0.5-10.6,1.1-15.9C470.9,463.3,473,463.4,475.2,463.4z"/>
			<path class="st20" d="M432.7,480c1.1,0,2.2,0,3.2,0c2.6,1.5,5.2,3,7.7,4.6c0.8,0.5,1.5,1.3,1.2,2.4c-0.3,1.2-1.4,1-2.3,1
				c-1.6,0-3.3,0-4.9-0.1C431,487.9,430.6,487.3,432.7,480z"/>
			<path class="st12" d="M240.5,475.9c3.4-0.2,5.9,0.7,5.6,5.2c-0.9,0.2-1.8,0.4-2.7,0.6c-0.4-0.4-0.6-0.3-0.9,0.1
				c-2.9,0.4-5.8,0.7-8.8,1.2c-3.5,0.5-5.5-0.6-4.9-5c1.3-0.7,2.8-1.6,4.1-0.2C236.4,481.6,238.6,479.7,240.5,475.9z"/>
			<path class="st20" d="M464.3,483.3c-0.1,0.4-0.1,0.9-0.2,1.3c-1.3,0.8-2.2,2-2.9,3.4c-0.4,0-0.9,0-1.3,0
				c-5.9-0.1-5.9-0.1-5.3-6.5c1.4,0.1,2.9,0.1,4.2-0.7C460.6,481.6,462.5,482.5,464.3,483.3z"/>
			<path class="st22" d="M491,482.8c3.5,1.1,4.9-3,7.7-3.8c-0.3,5.5-3.6,8.3-10.3,8.5C488.3,485.2,489.3,483.8,491,482.8z"/>
			<path class="st22" d="M461.2,488c0.7-1.4,1.6-2.6,2.9-3.4c3.5,1.1,6.1-1.1,9-2.5c0.5,3.5-1.3,5.3-4.1,5.6
				C466.4,488,463.8,488.9,461.2,488z"/>
			<path class="st21" d="M458.7,480.7c-1.3,0.8-2.8,0.8-4.2,0.7c-0.3-1.2-0.2-2.8-1.9-2.8c2-0.1,4-0.2,6-0.2
				C458.7,479.2,458.7,480,458.7,480.7z"/>
			<path class="st19" d="M242.5,481.9c0.2-0.5,0.5-0.6,0.9-0.1C243,481.8,242.8,481.8,242.5,481.9z"/>
			<path class="st6" d="M278.1,311.8c-5.9,6.9-11.6,14-18.3,20c-2.7-6.6-7.3-11.7-11.1-17.4c-18.4-27.6-37.1-55-55.7-82.4
				c-1.8-2.7-3.5-5.4-5.4-7.9c-1.7-2.1-1.5-3.7,0.5-5.3c16.5-13.5,33.1-27,49.5-40.6c2.3-1.9,2.8,0,3.7,1.2
				c7.2,10.6,14.4,21.2,21.6,31.8c15.1,22.3,30.2,44.6,45.3,66.9c-2.5,4.4-6.4,7.5-9.5,11.3c-2-2.5-0.5-5.4-0.5-8
				c0.1-6.6-1-12.8-4.4-18.3c-0.8-1.3-1.5-2.5-3.2-1.2c-1.4,1.1-1.5,2.1-0.8,3.8c0.8,1.8,1.4,3.6,2.1,5.5c0.8,2.1-0.2,3.1-1.9,3.6
				c-1.6,0.5-2.6,0-3-1.9c-0.7-3.1-2.2-5.9-4-8.3c-3.4-4.5-9.8-3.9-11.1,0.9c-0.8,2.8-0.6,5.9,0.3,8.8c1,3.3,1.4,6.8,1.3,10.3
				c-0.1,9.1-7.5,16.2-15.2,12.9c-5.3-2.2-9.4-3.1-14,0.6c-0.2,0.2-0.2,0.5-0.4,1c1.8,2.9,4.1,5.5,6.7,7.7
				C258.9,313.7,268.3,314,278.1,311.8z M285.1,253.2c-14-10.8-33.7-6.2-42.5,9.9c-5.5,10.1-5.6,24.6-0.1,32.8 M242.5,295.9
				c5.3-4.5,5.1-9.7,2-15.6c-1-1.9,0.4-3.4,2.3-3.9c2.1-0.6,2.6,0.7,2.9,2.6c0.8,4.6,2.7,8.4,6.1,11.2c2.3,1.9,4.6,2.1,7.2,0.7
				c2.5-1.4,4-3.4,3.9-6.6c-0.1-2.3,0-4.6-0.6-6.9c-0.8-3-1.3-6.1-1.4-9.3c-0.1-5.2,1.8-9.1,5.8-11.5s8.2-2.2,12,0.7
				c1.8,1.3,3.6,2.8,5,0.4 M246.7,239.8c0.1-3.9-2.8-7.4-6.3-7.6c-4.2-0.2-7.5,2.9-7.6,7.2c-0.1,4,3.1,7.6,6.8,7.7
				C243.5,247.2,246.6,244,246.7,239.8z"/>
			<path class="st6" d="M323.9,263c-4.3,0.7-5.5,5.9-9,7.6c-5.6-15.2-11.2-30.3-16.9-45.5c-7.1-19-14.2-37.9-21.4-56.9
				c-0.8-2-0.8-3.2,1.3-4.2c14.3-6.5,28.7-13,42.9-19.7c3.3-1.6,3.9,0.7,4.8,3c7.2,19.3,14.4,38.5,21.7,57.8
				c6.3,16.8,12.7,33.6,19,50.5c0.8,2.3,2.2,4.4,1.8,7.1c-1.8,0-3.5,0-5.3,0c-0.3,0-0.6,0-0.9,0c-5.3-0.1-10.7-0.1-16-0.2
				c-0.4-3.6-2.2-6-5.4-6.1c-3.4-0.1-5.2,2.6-6,6.2C331,262.8,327.4,262.9,323.9,263z M313.4,196.5c3.2-0.4,5.1-2.2,5.1-6.1
				c0-3.8-2.3-5.5-5.1-5.7c-3.2-0.2-5.5,2-5.5,5.7C307.8,194.1,310,196,313.4,196.5z"/>
			<path class="st1" d="M308.9,266.7c0.5,1,1.1,1.9,0.2,3c-0.4-0.7-0.7-1.4-1.1-2.1C308.2,267.3,308.6,267,308.9,266.7z"/>
			<path class="st1" d="M337.6,166.5c0.2,0.4,0.4,0.8,0.6,1.2C338,167.3,337.8,166.9,337.6,166.5z"/>
			<path class="st2" d="M519.5,264.2c-1.9,1.9-2.6,5.1-5.6,5.5c-5.2-1.1-9.5,1.9-14.1,3.5c-4.8,1.7-8.9,5.4-13.9,6.6
				c3.3-8.5,7.4-16.6,10.1-25.4C503.8,257.6,511.7,260.9,519.5,264.2z"/>
			<path class="st2" d="M512.1,213.3c-0.1,0.7-0.2,1.4-0.4,2.2c-0.1-0.1-0.3-0.2-0.3-0.3C511.2,214.4,511.3,213.7,512.1,213.3
				L512.1,213.3z"/>
			<path class="st6" d="M494.8,303.9c20.1-26.6,40.2-53.1,60.3-79.7c1.8-2.4,3.1-2.3,5.2-0.4c10.9,10.2,21.8,20.4,32.9,30.2
				c3.5,3.1,4,5.2,0.9,9.2c-10.4,13.3-20.4,26.9-30.6,40.4c-10.5,13.8-21.1,27.6-31.6,41.4C519.1,331.8,507,317.9,494.8,303.9z
				 M560.1,270.4c-0.1-4.2-2.4-6-5.5-6.1c-3.1,0-5.1,2.3-5.1,5.7c0,3.5,1.7,6,5.3,6C558.1,276,559.8,273.8,560.1,270.4z"/>
			<path class="st23" d="M456.7,396c-9.2,3.1-18.7,1.2-28,1.3c-1.6-5.6-0.5-11.4-0.9-17.1c-0.2-2.7,0-5.4-0.7-8.2
				c-2.6,6-3,12.4-3.8,18.7c-0.3,2.4,0,5-2,6.8c-1.8-1.2-3.8-0.7-5.7-1c-1-15.6-1.5-31.1,5.9-45.4c0.3-0.6,0.3-1.3,0.4-1.9
				c4.5-4.7,9.9-7.4,15.8-8.9c2.7,0.8,5.3,1,7.4-1.6c2.1-0.1,4.2-0.2,6.3-0.4c1.7,0.4,4.2,0.3,4.5,2.6c0.5,4.5,3.8,5.3,6.5,7.1
				c-3.2,2.4-4.7,5.8-4.6,10.1c0.2,4.1,0.1,8.2,0.1,12.3c-0.1,5.4-0.1,10.8-0.3,16.2C457.6,389.6,458.6,393,456.7,396z"/>
			<path class="st8" d="M458.1,370.3c0-4.1,0-8.2-0.1-12.3c-0.2-4.4,1.3-7.7,4.6-10.1c2.6,0.4,4.5-1.8,6.9-2.2
				c2.2,2.2,4.4,1.2,6.6-0.1c4.1,0.1,8.2,0.1,11.7,3c0.1,0.3,0.2,0.5,0.5,0.6c5.5,9.3,6.9,9.6,13.7,2.1c0.5-0.6,0.8-1.4,1.2-2.1
				c0.6-0.3,1.1-0.6,1.7-1c1.3,0.5,2.5,1,3.8,1.4c-1.5,7-5.3,12.5-9.5,17.7c-2.1,2.6-5.2,1.1-7.7,0c-4.3-2-4.1,0.3-3.5,3.7
				c1.4,7.4,2.8,14.9,3.9,22.4c0.3,2.1,1.4,4.5-0.6,6.5c-8.7,3.2-17.5,5.6-26.8,3.6c-1.4-1.8-1.1-4-1.1-6.1
				c-0.1-8-0.1-16.1-0.3-24.1c0-1.7,0.6-4.1-0.8-5.1C460.6,367.1,459.5,369.6,458.1,370.3z"/>
			<path class="st24" d="M487.7,348.5c-3.5-2.9-7.6-2.9-11.7-3c-0.6-4.1-1.4-8.2,1.9-11.4c0.7-0.7,1-2.2-0.2-2.2
				c-4.2-0.3-5.6-4.9-8.9-6.6c-0.9-0.5-1.3-1.8-2.6-0.6c-5.5,5.6-3.9,12.7,0.8,16.5c1.6,1.3,2.1,2.5,2.3,4.4
				c-2.4,0.4-4.3,2.6-6.9,2.2c-2.6-1.8-6-2.6-6.5-7.1c-0.3-2.2-2.8-2.2-4.5-2.6c3.5-2.9,7-5.7,4.7-11.5c-0.2-0.4,0.3-1.5,0.6-1.7
				c5.5-1.9,9.5-7.7,15.9-7.2c3.9,0.3,10.4,7.8,12.5,11.3c3,4.8,2.9,10.2,4.6,15c1,2.9,0.1,2.6-1.3,3.3
				C488.2,347.6,488,348.2,487.7,348.5z M486.3,344.8c-0.2,0.1-0.5,0.3-0.7,0.4c0.2,0.1,0.5,0.4,0.7,0.4s0.5-0.2,0.7-0.4
				C486.8,345,486.6,344.9,486.3,344.8z"/>
			<path class="st21" d="M445.3,338.5c-2.1,2.7-4.7,2.4-7.4,1.6c0.3-4.3,0.1-8.2-4.3-10.3c-1.4-0.7-0.5-1.9,0.6-2.5
				c3.3-7.4,3.3-7.1,8.1-7.8c3.1-0.4,4.2,2.4,6.4,3.3c-0.5,4,1,8.7-3.4,11.5C444.1,335.2,445.2,337.1,445.3,338.5z"/>
			<path class="st24" d="M448.7,322.9c-2.2-0.9-3.3-3.7-6.4-3.3c-4.8,0.7-4.9,0.4-8.1,7.8c-2.3-2.1-5.1-3.9-3.8-7.9
				c1.4-4.3,2.9-8.6,8.3-7.7c1.3,0.2,2.8-0.2,4,0.2c3.1,0.8,6.8,1.1,5.2,6.7C447.6,319.8,448.4,321.5,448.7,322.9z"/>
			<path class="st2" d="M496.7,292.9c-0.5,3.3-3.3,5-4.5,7.8c-4-3.4-7.5-7.4-10.7-11.8c1.4-3.5,3.2-3.3,5.8-1.2
				C490.1,290,493,292.5,496.7,292.9z"/>
			<path class="st6" d="M517.7,363.7c-0.1-4.9-0.2-9.7-0.3-14.6c3.6-0.1,7.3-0.1,10.9-0.2C525.5,354.5,521.6,359.1,517.7,363.7z"/>
			<path class="st18" d="M503.1,349.2c-0.4,0.7-0.7,1.5-1.2,2.1c-6.8,7.5-8.2,7.3-13.7-2.1C493.2,348.6,498.1,348.6,503.1,349.2z"/>
			<path class="st21" d="M508.5,349.6c-1.3-0.5-2.5-1-3.8-1.4c0.2-2,0.4-3.9,0.7-5.9c0.4-2.7,3.6-1.8,4.5-4c0.2-0.5,1.7,0.9,2.4,1.8
				c1.2,1.7,0.8,3.3-0.4,4.9c-0.8,1.2-1.5,2.5-2.3,3.7C509.3,349,508.9,349.3,508.5,349.6z"/>
			<path class="st4" d="M334.5,262.7c0.7-3.5,2.5-6.3,6-6.2c3.2,0.1,5,2.5,5.4,6.1C342.1,263.2,338.3,263.1,334.5,262.7z"/>
			<path class="st2" d="M474.9,281c1.6,0.7,3.2,1.5,4.7,2.2c2.3,1.1,1.9,2.8,0.8,4.7C478.4,285.9,475.5,284.5,474.9,281z"/>
			<path class="st2" d="M473.2,280c0.7,0.2,1.4,0.2,1.8,1.1C474,281.6,473.7,280.7,473.2,280z"/>
			<path class="st4" d="M361.9,262.8c0.3,0,0.6,0,0.9,0C362.5,262.8,362.2,262.8,361.9,262.8z"/>
			<path class="st15" d="M572.7,355.6c6.6-8.7,12.5-18.1,20.8-24.9c0,2.9-2.3,4.2-3.7,6c-4.6,6-9.6,11.7-14.4,17.5
				C574.7,355,573.9,355.7,572.7,355.6z"/>
			<path class="st15" d="M556,376.5c0.7-1.7,1.6-3.2,3.2-4c0.2,1.7,1.2,2.1,2.6,1.9c8.9-1.2,17.8-2.3,26.7-3.5
				c1.1-0.1,2-0.3,2.9,1.4C579.3,373.7,567.6,375.1,556,376.5z"/>
			<path class="st15" d="M517.7,424.4c0-0.6,0-1.1,0-1.7c4.9-4.7,8.1-11.1,13.4-15.4c-0.3,5.3-5.1,7.3-7.2,11.3
				C522.6,421.2,520.7,423.7,517.7,424.4z"/>
			<path class="st15" d="M531.1,407.3c2.2-3.3,3.8-6.9,4.6-11c0.3,0,0.6,0,0.9,0.1c0,1.3-0.6,3.3,1.8,2
				C537.8,403.2,534.7,405.6,531.1,407.3z"/>
			<path class="st15" d="M593.5,330.7c1-4.4,3.7-7.1,7.3-9C599.5,325.9,596.8,328.6,593.5,330.7z"/>
			<path class="st15" d="M566.4,363.5c1.1-3,3.3-5,5.5-7C571.7,360.5,569.5,362.5,566.4,363.5z"/>
			<path class="st15" d="M548.3,386.4c0.5-2.9,2.6-4.4,4.5-6C552.8,383.9,550.4,385,548.3,386.4z"/>
			<path class="st15" d="M544.6,390.4c0.6-2,1.6-3.6,3.6-4C548.1,388.9,546.9,390.2,544.6,390.4z"/>
			<path class="st15" d="M542,393.4c0.6-1.3,1.5-2.4,2.7-3C544.9,392.6,544,393.7,542,393.4z"/>
			<path class="st15" d="M600.7,321.7c-0.3-1.7,0.7-2.4,1.8-3C602.7,320.3,602.6,321.7,600.7,321.7z"/>
			<path class="st15" d="M540.4,396.4c0.1-1.3,0.5-2.4,1.6-3C542.1,394.8,542,396.1,540.4,396.4z"/>
			<path class="st15" d="M602.6,318.8c0-1.4,0.9-1.6,1.9-1.7C604.2,318.2,603.7,318.9,602.6,318.8z"/>
			<path class="st15" d="M564.6,366.6c-0.2-1,0.1-1.6,0.9-2C565.5,365.4,565.4,366.2,564.6,366.6z"/>
			<path class="st15" d="M538.3,398.4c0.3-0.4,0.6-0.9,0.9-1.3C538.9,397.5,538.6,398,538.3,398.4z"/>
			<path class="st15" d="M563.3,367.5c0.2-0.6,0.6-1.1,1.3-1C564.2,366.9,563.7,367.2,563.3,367.5z"/>
			<path class="st15" d="M552.8,380.5c0-0.7,0.4-1,1-1C553.5,379.8,553.1,380.1,552.8,380.5z"/>
			<path class="st15" d="M605.4,315.8c0.3-0.3,0.5-0.6,0.8-0.9C605.9,315.2,605.7,315.5,605.4,315.8z"/>
			<path class="st15" d="M559.1,372.5c0.1-0.6,0.4-1,1-1C559.8,371.9,559.5,372.2,559.1,372.5z"/>
			<path class="st15" d="M571.8,356.6c0.3-0.3,0.6-0.7,0.9-1C572.4,355.9,572.1,356.3,571.8,356.6z"/>
			<path class="st15" d="M565.5,364.6c0.3-0.3,0.6-0.7,0.9-1C566.1,363.9,565.8,364.2,565.5,364.6z"/>
			<path class="st13" d="M536.5,396.4c-0.3,0-0.6,0-0.9-0.1c1.2-10.3,4-20.3,6.6-30.3C540.8,376.3,539.2,386.5,536.5,396.4z"/>
			<path class="st6" d="M522.9,364.6c1.3-3.2,3.3-5.6,6.4-6.9C528.6,361.5,525.9,363.3,522.9,364.6z"/>
			<path class="st6" d="M521.2,366.6c0.6-0.7,1.2-1.4,1.8-2.1C522.7,365.5,523.6,367.7,521.2,366.6z"/>
			<path class="st2" d="M529.4,356.5c-0.1-1.4,0.3-2.2,1.7-1.9C531.5,356.2,530.6,356.5,529.4,356.5z"/>
			<path class="st2" d="M531.1,354.6c-0.1-0.8,0.2-1.1,0.9-1C532.1,354.3,531.8,354.7,531.1,354.6z"/>
			<path class="st15" d="M220.8,362.5c3.6,1.5,5.2,5.2,7.5,8c2.1,2.6,4.1,5.3,6.1,7.9c-14.6-5-29.8-4.9-44.7-7.1
				c-0.4-0.1-0.7-0.4-0.9-1.8c13.1,1.6,26.2,3.1,39.5,4.7C226.8,369.3,222,367.3,220.8,362.5z"/>
			<path class="st15" d="M259.9,409c-0.1,0.8-0.1,1.7-0.2,2.5c-2.1-1.5-1.8,0.9-2.8,2.5c0.3-3.6-0.7-5.8-2.5-8.2
				c-4.6-6-10.7-10.8-13.8-18.3c3.5,1.2,4.8,5,7.2,7.5c1.2,1.2,2.3,2.5,3.5,3.7c0.2,0.2,0.5,0.6,0.5,0.5c0.4-0.3,0.2-0.7-0.1-1
				c-0.2-2-0.4-4.1-0.7-6.1c2.6,5.7,2.2,12.9,8.3,16.4C259.6,408.6,259.7,408.8,259.9,409z"/>
			<path class="st5" d="M240.6,414.3c-1.8-0.4,0.6,4-2.2,2.4c-2.2-1.3-6.9,3.5-6.8-3.3c0.9-1.2,2.1-1.3,3.3-0.7
				c1.2,0.6,1.7,0.3,2.3-1.1c0.9-2.1,2.3-5.3,4.8-3.3C244.9,410.5,241.5,412.4,240.6,414.3z"/>
			<path class="st5" d="M246,417.4c-0.8,4.6-4.6,5.7-7.7,7.4c-1.2,0.7-2.6-0.5-3.5-1.7c-0.6-0.9-0.5-1.9,0.1-2.7
				c1.7-2,3.2-0.6,5.1,0.7c0.6-2,1.1-3.8,1.6-5.5C243.6,414.8,244.7,416.4,246,417.4z"/>
			<path class="st5" d="M234.7,408c-1.5-0.7-3.1-1.4-3.1-3.6c0-1.5,0.5-2.8,1.9-2.7c2.4,0.2,2.4,2.4,2.5,4.4
				C236.1,407,236.2,408.1,234.7,408z"/>
			<path class="st15" d="M206.3,344.6c3.5,1.9,6.1,4.8,7.3,9C210.1,351.7,207.8,348.5,206.3,344.6z"/>
			<path class="st15" d="M189.1,322.7c3,2.5,5.6,5.3,7.3,9C192.5,330.1,190,327.2,189.1,322.7z"/>
			<path class="st15" d="M213.5,353.6c2.9,1.3,5,3.4,5.4,7C216.7,358.7,214.2,357,213.5,353.6z"/>
			<path class="st15" d="M198.2,334.7c2.9,0.9,4.2,3.4,5.5,6C200.6,339.9,198.9,337.8,198.2,334.7z"/>
			<path class="st15" d="M185.5,318.7c2.2,0.2,3.1,2,3.6,4C186.9,322.5,185.7,321.2,185.5,318.7z"/>
			<path class="st15" d="M181,312.8c1.9,0.5,3,1.7,2.7,4C182.2,316,180.9,314.9,181,312.8z"/>
			<path class="st15" d="M237.1,382.4c1.4,0.5,2.1,1.7,2.7,3C237.7,385.7,236.8,384.7,237.1,382.4z"/>
			<path class="st15" d="M204.5,342.6c1.4-0.2,1.9,0.6,1.8,2C205.1,344.7,204.5,344,204.5,342.6z"/>
			<path class="st15" d="M235.3,380.5c1.2,0,1.7,0.8,1.8,2C235.8,382.5,235.3,381.8,235.3,380.5z"/>
			<path class="st15" d="M183.7,316.7c1.4-0.2,1.9,0.6,1.8,2C184.3,318.8,183.7,318.1,183.7,316.7z"/>
			<path class="st15" d="M219,360.5c1.4-0.2,1.9,0.6,1.8,2C219.5,362.6,219,361.9,219,360.5z"/>
			<path class="st15" d="M203.6,340.6c0.8,0.4,1.3,1,0.9,2C203.7,342.3,203.5,341.5,203.6,340.6z"/>
			<path class="st15" d="M196.3,331.7c0.8,0.4,1.3,1,0.9,2C196.5,333.3,196.3,332.6,196.3,331.7z"/>
			<path class="st15" d="M239.8,385.4c0.8,0.4,1.3,1,0.9,2C239.8,387.1,239.7,386.3,239.8,385.4z"/>
			<path class="st15" d="M234.3,378.5c0.7,0.5,1.2,1,0.9,2C234.3,380.1,234.3,379.3,234.3,378.5z"/>
			<path class="st15" d="M197.2,333.7c0.7-0.1,1,0.3,0.9,1C197.9,334.4,197.5,334,197.2,333.7z"/>
			<path class="st2" d="M260.3,349c-0.1,3.4-0.2,6.8-0.3,10.2c-2.9-3.6-7-5.8-9.2-10.2c2.1,0,4.2,0,6.3,0c0.3,0.5,0.5,0.5,0.8,0
				C258.6,348.9,259.4,348.9,260.3,349z"/>
			<path class="st15" d="M249.2,383.8c-1.7-8.7-3.5-17.3-5.2-26c0.4-0.1,0.7-0.2,1.1-0.3c1.8,8.7,3.6,17.3,5.4,26
				C250,383.6,249.6,383.7,249.2,383.8z"/>
			<path class="st2" d="M259.9,409c-0.2-0.2-0.3-0.4-0.5-0.6c0.2-0.7,0.4-1.5,0.6-2.2C260.4,407.1,260.3,408.1,259.9,409z"/>
			<path class="st2" d="M260,399.9L260,399.9L260,399.9z"/>
			<path class="st5" d="M259.6,441.3c0.9,2.3,1.7,4.7,0.1,7.1c-1.4,4.3-5.6,3.8-8.4,5.5c-4.4,2.7-9.1,5-14.4,3.9
				c0.1-1.9-0.4-3.4-1.7-4.7c-0.3-0.4-0.6-0.7-1-1.1c0-1,0-1.9,0.1-2.9c4.3-1.2,8.5-1.9,12.1,2.2c1.2,1.3,2.8,1.2,3.3-1.2
				c0.2-0.6,0.5-1.1,0.7-1.8C252.7,441.1,252.7,441.1,259.6,441.3z"/>
			<path class="st5" d="M235.3,444.2c0-7.4,1.8-8.6,7.7-5.1c2.6,1.5,4.1,1,4-2.4c-0.1-2.2,0.9-3.7,1.9-5.4l0,0
				c2.6,0,5.4-0.4,6.2,3.3c0.7,3.4-1.5,4.9-3.6,6.7c-2.7,2.4-6,2.9-9.1,4.1C240,445.2,237.4,445.8,235.3,444.2z"/>
			<path class="st5" d="M248.8,431.3c-3.3,0.3-6,2.8-9.2,3.6c-2,0.4-3.8,0.9-5.2-1.4c-1.2-1.9-0.5-3.3,0.6-4.8c1.6-2.2,3-1.2,4.7,0
				c2.2,1.6,3.8,1.2,4.3-2c0.3-1.9,0.3-4.1,2.8-4.3c1.2-0.1,2.5-0.1,3.2,1.2c1.1,2.1,0.5,4.1-0.8,5.9
				C248.9,429.9,248.9,430.6,248.8,431.3L248.8,431.3z"/>
			<path class="st24" d="M259.9,429.9c1.4,0.2,2.9,0.3,4.3,0.5c2,2.4,2.7-1.4,4.3-1.1c2,1.9,4.4,0.4,6.5,1.1c1.2,1.3,2.4,1.2,3.6,0
				c0.4-0.2,0.8-0.3,1.2-0.5c0.8-0.2,1.7-0.4,2.5-0.6c2.2,2.1,4.8,0.4,7.1,1.2c2.8,2.3,4.9-0.1,7.3-1.1c0.8,3.7-0.8,4.4-3.8,4.4
				c-9.4-0.2-18.9-0.1-28.3,0c-1.6,0-3.3-0.4-4.8,0.8C259.9,432.9,259.9,431.4,259.9,429.9z"/>
			<path class="st13" d="M235.3,444.2c2.2,1.6,4.7,1,7.1,1.2c1.7,3.1,5.3,2.5,7.3,4.8c-0.5,2.5-2.1,2.6-3.3,1.2
				c-3.6-4.1-7.8-3.4-12.1-2.2c-0.6-1.3-1.8-0.9-2.8-1c0-1.3-0.1-2.7-0.1-4C232.7,444.2,234,444.2,235.3,444.2z"/>
			<path class="st12" d="M228,444.9c-1.6-0.2-3.8,1.7-4.5-1.7c0.9-0.5,1.8-1,2.9-1.5c-0.8-0.8-1.5-1.4-2.2-2.2
				c-0.8-0.9-1.3-2-0.1-2.9c0.8-0.7,2-0.2,2.3,0.7c0.7,2.4,5.5,2.9,2.4,6.8l0,0C228.6,444.5,228.3,444.7,228,444.9z"/>
			<path class="st12" d="M231.5,444.2c0,1.3,0.1,2.7,0.1,4l0,0c-2.1,0.3-4.1,1.5-6.3,0.9c-0.3-2.4,2.1-1.6,2.7-2.9
				c0.7-0.5,0.9-1.2,0.8-2l0,0C229.7,444.2,230.6,444.2,231.5,444.2z"/>
			<path class="st5" d="M260.4,453.1c4.4,3.7,4.3,6.3-0.4,10.3c-5.6,2.4-10.9,6-17.3,5.9c-2.4-2.8-2.3-5.9-1.2-9.2
				c0.9,0,1.9,0,2.8,0c0.9,0.5,1.9,1,2.8,1.6c4.8,3.4,4.7,3.4,6.2-2.6C254.3,455.2,256.3,452.6,260.4,453.1z"/>
			<path class="st12" d="M241.4,460.1c-1,3.3-1.2,6.5,1.2,9.2c-3.1,5-8.1,5.9-13,6.6c-2.9,0.4-2.7-2.4-2.3-4.6
				c1.9-1.3,3.6-0.9,5.3,0.5c0.9,0.8,2.1,2,3,0.6c0.8-1.2,1.9-3,1-4.5c-0.9-1.7-2.5-0.3-3.6,0.2c-2,0.8-4,1.2-6.1,1.1
				c-1.8-1.3-2.4-3.3-0.9-5c1.9-2.1,3.8,0,5.5,0.9c0.2,0.6,0.5,0.7,0.9,0.2h0.1c1.2,0,1.8-0.7,1.8-2c0.5-1,1.1-1.9,0.8-3.1l0,0
				c2.1-0.3,4.1-0.5,6.2-0.8C241.4,459.6,241.4,459.9,241.4,460.1z"/>
			<path class="st12" d="M235.2,453.2c1.3,1.2,1.8,2.8,1.7,4.7c-0.6,0.8-1.2,1.5-1.8,2.3l0,0c-0.8-0.1-1.4,0.3-1.9,1
				c-0.6,0.3-1.3,0.5-1.9,0.8c-2.8,0-6.7,1.5-5-4.5c0.7,0,1.6-0.2,2.2,0.2c4.2,2.8,4.3,0,3.9-3.4l0,0
				C233.6,454.3,234.5,454.3,235.2,453.2z"/>
			<path class="st12" d="M231.6,448.2c1,0.1,2.1-0.3,2.8,1c0,1,0,1.9-0.1,2.9c-0.8,0.4-1.5,1-1.8,2.1l0,0c-2.1,0.6-4.1,1.2-6.2,1.8
				c-1.7-0.8-1.9-2.1-0.9-3.7C228.3,452.5,231.7,453.5,231.6,448.2L231.6,448.2z"/>
			<path class="st15" d="M227,469.1c2.1,0.1,4.1-0.3,6.1-1.1c1.1-0.4,2.7-1.9,3.6-0.2c0.8,1.5-0.2,3.3-1,4.5c-1,1.5-2.1,0.2-3-0.6
				c-1.7-1.4-3.4-1.7-5.3-0.5C227.2,470.6,227.1,469.9,227,469.1z"/>
			<path class="st15" d="M231.6,448.2c0.1,5.3-3.3,4.3-6.2,4.1c0-1.1-0.1-2.2-0.1-3.3C227.5,449.7,229.5,448.5,231.6,448.2z"/>
			<path class="st15" d="M226.3,456c2.1-0.6,4.1-1.2,6.2-1.8c0.3,3.4,0.3,6.2-3.9,3.4c-0.6-0.4-1.4-0.1-2.2-0.2
				C226.4,456.9,226.3,456.5,226.3,456z"/>
			<path class="st15" d="M234.4,463.2c-0.1,1.3-0.6,2-1.8,2C232.8,464.1,233.4,463.4,234.4,463.2z"/>
			<path class="st15" d="M231.5,461.9c0.6-0.3,1.3-0.5,1.9-0.8C233,462,232.3,462.1,231.5,461.9z"/>
			<path class="st15" d="M228.9,444.2c0.1,0.8-0.1,1.6-0.8,2c0-0.4,0-0.9-0.1-1.3C228.3,444.7,228.6,444.5,228.9,444.2z"/>
			<path class="st15" d="M232.5,465.2c-0.4,0.5-0.7,0.4-0.9-0.2C232,465.1,232.2,465.1,232.5,465.2z"/>
			<path class="st25" d="M278.1,311.8c-9.8,2.2-19.2,1.8-27.6-5.1c-2.7-2.2-5-4.8-6.7-7.7c0.2-0.5,0.3-0.9,0.4-1
				c4.6-3.7,8.7-2.8,14-0.6c7.7,3.3,15-3.7,15.2-12.9c0-3.5-0.3-6.9-1.3-10.3c-0.9-2.9-1.1-6-0.3-8.8c1.4-4.9,7.7-5.4,11.1-0.9
				c1.8,2.4,3.3,5.2,4,8.3c0.4,1.9,1.4,2.4,3,1.9c1.7-0.6,2.7-1.5,1.9-3.6c-0.7-1.8-1.3-3.7-2.1-5.5c-0.8-1.6-0.6-2.7,0.8-3.8
				c1.7-1.3,2.4-0.1,3.2,1.2c3.4,5.5,4.6,11.7,4.4,18.3c-0.1,2.7-1.5,5.5,0.5,8C291.7,296.9,284.9,304.3,278.1,311.8z"/>
			<path class="st14" d="M257.8,348.9c-0.3,0.5-0.5,0.5-0.8,0C257.2,348.7,257.5,348.7,257.8,348.9z"/>
			<path class="st9" d="M361.9,433.5c-0.9,0.1-1.8,0.4-2.6,0.4c-1.1,0-2.6,0.4-2.7-1.7c-0.1-2,1.4-2,2.5-1.9c3.1,0.5,2.9-1.7,2.9-4
				c0-12.9,0.1-25.9,0-38.8c0-4.4,0.4-8.6,1.9-12.6c1.9-2.7,4.1-5.1,6.6-7.1c4.9-2.2,9.9-2.1,14.8,0.1c2.3,2.1,4.7,4.3,6.5,7
				c1.5,4,1.9,8.2,1.9,12.6c-0.1,13.5,0,27-0.1,40.5c0,1.6,0.6,3.3-0.6,4.7c-0.1-0.1-0.2-0.2-0.3-0.3c0-14.8,0.1-29.6,0-44.5
				c0-1.6,0.7-3.9-1.9-4.2c-2-9.7-5.6-13.8-11.6-13.4c-0.5,8.1,0.9,16.3-0.8,24.4c-0.5,2.4,0.1,4.1,2.9,3.8c3.1-0.3,6.3-0.2,9.4-0.3
				c0,1.2,0,2.4,0,3.6c-1.9-0.1-3.9,0-5.8-0.3c-4.3-0.7-7.3,0-5.9,6c-0.8,0-1.6,0-2.4,0c0.8-5.4-1.7-6.9-6.1-6
				c-0.9,0.2-1.8,0.1-2.7,0c-2-0.2-2.6,0.8-2.6,2.9c0.1,7.6,0,15.2,0,22.8c0,1.3-0.3,2.9,1.5,2.9c3,0,6.2,0.7,8.9-0.4
				c1.7-0.7,0.3-4.2,0.9-6.4c0.8-0.3,1.6-0.7,2.4-1c0.5,8,0.5,8,7.8,7.9c1.3,0,2.6-0.2,4-0.3c0.1,0.8,0.1,1.5,0.2,2.3l0,0
				c-8.3,0-16.5,0-24.8,0C364.6,432.4,363,431.8,361.9,433.5z M376.5,372.7c-0.1-2-0.2-3.6-2.8-2.4c-4.5,2.1-7.6,5.4-8.2,10.8
				c-0.4,3.1-0.2,6.3-0.3,9.4c0,8,0,7.9,7.4,8c2.9,0,3.9-0.7,3.8-4.1c-0.2-6.9,0.1-13.9,0.1-20.8c0.4-0.2,0.7-0.3,1.1-0.5
				C377.2,373,376.9,372.8,376.5,372.7z"/>
			<path class="st9" d="M296.8,429.3c-2.3,1-4.5,3.5-7.3,1.1c3.5,0.3,5-1,4.6-5.3c-0.4-5.1-0.1-10.2-0.1-15.3c0-8.6,0-8.4-7.8-8.5
				c-3.1-0.1-3.7,1.1-3.6,4.2c0.1,7.9-0.1,15.8-0.2,23.7c-0.8,0.2-1.7,0.4-2.5,0.6c-0.1-6.8-0.1-13.5-0.1-20.3c0-8.5,0-8.3-7.9-8.3
				c-2.7,0-3.2,1.1-3.2,3.7c0.1,6.8-0.1,13.5-0.2,20.3c-0.2-0.8-0.6-1.5-0.6-2.3c0-12.9,0-25.8,0-38.8c0-1,0.1-2,0.8-2.7
				c0,2.8,0.1,5.6,0.1,8.4c0,8.7,0,8.6,7.9,8.5c2.6,0,3.3-1,3.3-3.7c-0.2-5.8,0-11.6-0.1-17.4c-0.1-2.5,1.3-6.4-0.8-7.2
				c-2.7-1.1-5.1,1.8-7.1,4.2c-0.7,0.8-1.3,1.8-2,2.7c-0.2-1.2-0.4-2.3-1.8-2.4c1.1-3.1,3.9-4.6,5.8-6.8c4.9-2.1,9.9-2.2,14.8-0.1
				c2.6,2.2,5,4.5,6.8,7.6c2.8,10.2,1.1,20.7,1.3,31.1c-0.5,0-1.6,0-1.6,0c-0.3,6-0.5,12,0.1,18c0,0.4,0.9,0.6,1.4,0.9
				C296.7,426.6,296.8,427.9,296.8,429.3z M294,389L294,389c0-2.1,0.1-4.3-0.1-6.4c-0.5-5.7-3.1-9.8-8-12.2c-2.4-1.2-3.5-1-3.4,2.4
				c0.2,6.9,0.3,13.9-0.1,20.8c-0.2,4,1.1,4.9,4.5,4.8c7-0.3,7-0.1,7-7.9C294,390,294,389.5,294,389z"/>
			<path class="st24" d="M332.9,302c2.6-0.7,3,0.8,3,3.2c-0.1,11.1,0,22.1,0,33.2c0,2.3-1,3.4-3,3.3c-5.1-0.1-10.2-0.2-15.3-0.3
				c0-11,0.2-22-0.1-33c-0.1-4.8,1.4-5.8,5.4-5.7C326.2,302.9,329.7,303.9,332.9,302z M327.6,338.7c0.6,0.1,1.2,0.1,1.8,0.2
				c0.9,1.1,1.8,1.1,2.7,0c0.3-0.1,0.6-0.2,0.9-0.3c0.1,0.1,0.2,0.2,0.4,0.2c0.1,0,0.3-0.1,0.3-0.1c0.1-5,1-9.9-0.5-14.8
				c-0.1-0.3-0.2-0.6-0.2-0.9c0-0.7,0-1.4,0-2.1c0.1-0.3,0.1-0.6,0.2-1c1.1-4.6,1.2-9.3-0.1-13.9c-1.6-1.7-3.6-0.4-5.4-0.9
				c-0.7-0.2-1.5-1.1-2.1,0.2c-5.9-0.4-5.9-0.4-6,5.9c0,3.1-0.1,6.2-0.1,9.4c0.3,0.7,0.5,1.5,0.8,2.2c-1.4,3.8-0.5,7.7-0.6,11.5
				c-0.1,6,0.5,6.4,5.8,4.5C326.2,338.6,326.9,338.6,327.6,338.7z"/>
			<path class="st13" d="M235.2,460.1c0.6-0.8,1.2-1.5,1.8-2.3c5.3,1.1,10-1.3,14.4-3.9c2.9-1.7,7-1.2,8.4-5.5
				c1,1.5,0.2,3.2,0.6,4.7c-4.1-0.5-6.1,2.1-7.1,6c-1.5,6-1.4,6-6.2,2.6c-0.9-0.6-1.9-1.1-2.8-1.6c-0.8-1.2-1.9-1-2.9-0.7
				C239.3,459.6,237.2,459.9,235.2,460.1z"/>
			<path class="st24" d="M268.6,381.5c-0.7,0.8-0.8,1.7-0.8,2.7c0,12.9,0,25.8,0,38.8c0,0.8,0.4,1.5,0.6,2.3c0,0.7,0,1.3,0,2
				c-0.9-0.2-1.8,1.2-2.6-0.2c0-0.6,0-1.2,0-1.7c1-0.7,1.1-1.4,0-2.1c-0.3-13.9-0.4-27.8,0.1-41.7c1.4-1.8,1.9-3.9,1.8-6.2
				c0-0.3,0.1-0.6,0.3-0.8c1.4,0.1,1.6,1.2,1.8,2.4C269.4,378.5,269,380,268.6,381.5z"/>
			<path class="st20" d="M332.9,302c-3.3,1.8-6.8,0.9-10.1,0.7c-4-0.2-5.5,0.9-5.4,5.7c0.3,11,0.1,22,0.1,33c-1.4-0.6-0.9-1.9-0.9-3
				c0-11,0.1-22.1-0.1-33.1c0-2.8,0.7-3.8,3.3-3.6C324.2,302,328.6,302,332.9,302z"/>
			<path class="st24" d="M296.7,425.3c-0.5-0.3-1.4-0.5-1.4-0.9c-0.7-6-0.4-12-0.1-18c0,0,1,0,1.6,0
				C296.7,412.7,296.7,419,296.7,425.3z"/>
			<path class="st9" d="M361.9,433.4c1.1-1.7,2.7-1.1,4.2-1.1c8.3,0,16.5,0,24.8,0c0,0.4,0,0.7,0,1.1
				C381.2,433.4,371.6,433.4,361.9,433.4z"/>
			<path class="st20" d="M265.9,427.1c0.8,1.4,1.7,0,2.6,0.2c0,0.7,0,1.3,0,2c-1.6-0.3-2.3,3.5-4.3,1.1
				C265.7,429.9,265.3,428.2,265.9,427.1z"/>
			<path class="st20" d="M267.1,375.4c0.2,0,0.4,0,0.6-0.1c0.1,2.3-0.4,4.4-1.8,6.2C265.6,379.3,266.7,377.4,267.1,375.4z"/>
			<path class="st20" d="M390.8,433.4c0-0.4,0-0.7,0-1.1l0,0c0.6,0,1.2,0,1.7-0.1c0.1,0.1,0.2,0.2,0.3,0.3
				C392.6,433.9,391.8,433.9,390.8,433.4z"/>
			<path class="st20" d="M265.9,423.3c1,0.7,1,1.4,0,2.1C265.3,424.6,265.4,423.9,265.9,423.3z"/>
			<path class="st21" d="M415.7,396.4c1.9,0.3,3.9-0.2,5.7,1c0.3,1.4,0.4,3.1,1.1,4.2c2,3-1.1,3.4-1.9,4.9c-0.8,1.8-2.1,1.5-3.4,0.8
				c-1.9-1-1.9-2.8-1.8-4.7C415.5,400.6,417.5,398.6,415.7,396.4z"/>
			<path class="st26" d="M464.5,403.5c9.3,2,18.1-0.4,26.8-3.6c2.2,11.2,2.9,22.6,4.4,33.9c1,7.2,1.8,14.4,2.7,21.7
				c0.3,2.5,0.4,4.7-2.5,5.2c-2.9-4.4-1.7-10.1-4.6-16c0,5.5,0,9.6,0,13.8c0,1.7,0.2,3.4-1.9,3.7c-4.7,0.4-9.5,0.8-14.2,1.2
				c-2.1-0.1-4.3-0.1-6.4-0.2c-4.7-0.5-5.9-3.4-5.7-8.4C463.7,437.8,464,420.6,464.5,403.5z"/>
			<path class="st18" d="M464.5,403.5c-0.4,17.1-0.7,34.2-1.4,51.3c-0.2,5,0.9,7.9,5.7,8.4c-0.6,5.3,1,10.7-1.1,15.9
				c-2.3-1.9-5-0.5-7.4-1.3c-0.9-22.5-1.8-45-2.8-67.5c-0.2-4.8-0.4-9.6-0.6-14.4c1.9-3,0.9-6.4,1-9.5c0.2-5.4,0.2-10.8,0.3-16.2
				c1.4-0.6,2.5-3.2,4.1-2.1c1.5,1,0.8,3.3,0.8,5.1c0.1,8,0.2,16.1,0.3,24.1C463.4,399.5,463.1,401.7,464.5,403.5z"/>
			<path class="st3" d="M460.2,477.9c2.4,0.8,5.2-0.6,7.4,1.3c0,2.4-1.2,3.7-3.3,4.1c-1.9-0.8-3.7-1.7-5.6-2.6c0-0.8,0-1.6,0-2.3
				C459.2,478.2,459.7,478,460.2,477.9z"/>
			<path class="st9" d="M350.9,445.8c0,8.1,0,16.2,0.2,24.4c0.1,3.1-1.1,4-3.7,3.9c-13.3-0.1-26.5-0.1-39.8,0c-2.8,0-3.7-1-3.6-4
				c0.1-13.3,0.1-26.5,0-39.8c0-2.5,0.3-4.1,3.1-4.1c11.5,0.1,22.9,0,34.4,0.1c1.3,0,2.6,0.8,3.9,1.2c-1.6,4.1-0.6,8.4-0.7,12.6
				C344.4,446.8,344.5,446.9,350.9,445.8z"/>
			<path class="st9" d="M350.8,422.2c-0.6-3-2.6-2.9-4.8-2.9c-12.6,0.1-25.3,0-37.9,0.1c-2.6,0-4.1-0.3-4.2-3.9
				c-0.2-13.9,0.8-27.8-0.5-41.6c-0.2-2.1,1.1-3.2,3.1-3.2c14,0,28,0,42,0c1.3,0,2.3,0.3,2.3,2.2
				C350.8,389.2,350.8,405.7,350.8,422.2z M326,405.6c0-1.2-0.2-2.4,0-3.5c0.8-4.8-1.2-5.8-5.2-5.6c-8.5,0.3-8.5,0.1-8.5,10
				c0,7.7,0,7.7,5.9,7.7C326,414.3,326,414.3,326,405.6z M342.2,405.4c0-1.2-0.1-2.3,0-3.5c0.6-4.2-0.7-5.7-4.8-5.5
				c-8.9,0.4-8.9,0.1-8.9,9.9c0,7.8,0,7.8,5.7,7.8C342.2,414.2,342.2,414.2,342.2,405.4z M342.3,385c0-1.2-0.1-2.3,0-3.5
				c0.6-4.2-0.8-5.6-4.8-5.4c-8.9,0.3-8.9,0.1-8.9,10.3c0,7.2,0,7.2,5.7,7.3C342.2,393.7,342.2,393.7,342.3,385z M312.3,384.8
				c0,1.5,0.2,3,0,4.5c-0.6,3.9,1.1,4.6,4.3,4.6c9.4-0.2,9.4,0,9.4-10.9c0-0.2,0-0.3,0-0.5c0.9-5.3-1.2-6.6-5.8-6.3
				C312.3,376.6,312.3,376.3,312.3,384.8z"/>
			<path class="st5" d="M350.9,445.8c-6.4,1-6.5,1-6.3-5.7c0.1-4.2-0.9-8.5,0.7-12.6c1.8,0.7,4.8-1.6,5.4,2.4
				c-1.1,0.1-2.2,0.3-3.3,0.4c-1,0.2-0.9,1-0.7,1.8c0,2.7,0,5.4,0,8c-0.1,1.1-0.5,2.2,0.5,3.1v0.1
				C348.2,444.7,350.6,443.3,350.9,445.8z"/>
			<path class="st25" d="M243.8,299.1l-1.3-3.2c-5.5-8.2-5.5-22.7,0.1-32.8c8.8-16.1,28.6-20.7,42.5-9.9l7.5,8.4l1.1,1.4l-2.7,30.1
				l-20.7,9.1H259"/>
			<path class="st25" d="M244.5,280.3c-1-1.9,0.4-3.4,2.3-3.9c2.1-0.6,2.6,0.7,2.9,2.6c0.8,4.6,2.7,8.4,6.1,11.2
				c2.3,1.9,4.6,2.1,7.2,0.7c2.5-1.4,4-3.4,3.9-6.6c-0.1-2.3,0-4.6-0.6-6.9c-0.8-3-1.3-6.1-1.4-9.3c-0.1-5.2,1.8-9.1,5.8-11.5
				s8.2-2.2,12,0.7"/>
			<path class="st25" d="M249.1,237.3c-0.2,6.7-5.3,11.6-11.8,11.5c-6.2-0.1-11.5-5.8-11.3-12.1c0.2-6.8,5.7-11.7,12.6-11.3
				C244.4,225.6,249.3,231.2,249.1,237.3z"/>
			<path class="st4" d="M313.4,196.5c-3.4-0.5-5.6-2.3-5.5-6.1c0-3.7,2.3-6,5.5-5.7c2.8,0.2,5.1,1.9,5.1,5.7
				C318.5,194.3,316.6,196,313.4,196.5z"/>
			<path class="st4" d="M560.1,270.4c-0.3,3.4-2,5.6-5.4,5.6c-3.5,0-5.3-2.5-5.3-6c0-3.4,2.1-5.7,5.1-5.7
				C557.7,264.3,560,266.2,560.1,270.4z"/>
			<path class="st21" d="M469.4,345.6c-0.2-1.8-0.7-3.1-2.3-4.4c-4.7-3.8-6.3-10.9-0.8-16.5c1.2-1.3,1.7,0.1,2.6,0.6
				c3.3,1.7,4.7,6.3,8.9,6.6c1.2,0.1,0.9,1.6,0.2,2.2c-3.4,3.3-2.5,7.4-1.9,11.4C473.8,346.8,471.6,347.8,469.4,345.6z"/>
			<path class="st19" d="M486.3,344.8c0.2,0.1,0.5,0.3,0.7,0.4c-0.2,0.1-0.5,0.4-0.7,0.4s-0.4-0.2-0.7-0.4
				C485.9,345,486.1,344.9,486.3,344.8z"/>
			<path class="st14" d="M251.8,398.1c0.3,0.3,0.5,0.7,0.1,1c0,0-0.3-0.3-0.5-0.5C251.5,398.4,251.7,398.2,251.8,398.1z"/>
			<path class="st15" d="M232.5,454.2c0.3-1,0.9-1.6,1.8-2.1c0.3,0.4,0.6,0.7,1,1.1C234.5,454.3,233.6,454.3,232.5,454.2z"/>
			<path class="st27" d="M282.4,429.3c0.1-7.9,0.3-15.8,0.2-23.7c0-3.1,0.5-4.3,3.6-4.2c7.8,0.1,7.8-0.1,7.8,8.5
				c0,5.1-0.3,10.3,0.1,15.3c0.4,4.3-1.1,5.6-4.6,5.3C287.2,429.7,284.5,431.3,282.4,429.3z"/>
			<path class="st8" d="M268.5,429.3c0-0.7,0-1.3,0-2s0-1.3,0-2c0.1-6.8,0.2-13.5,0.2-20.3c0-2.6,0.4-3.7,3.2-3.7
				c7.9,0,7.9-0.2,7.9,8.3c0,6.8,0.1,13.5,0.1,20.3c-0.4,0.2-0.8,0.3-1.2,0.5c-1.2,0-2.4,0-3.6,0
				C272.9,429.7,270.5,431.2,268.5,429.3z"/>
			<path class="st20" d="M275,430.4c1.2,0,2.4,0,3.6,0C277.4,431.6,276.2,431.6,275,430.4z"/>
			<path class="st15" d="M241.4,459.4c1.1-0.3,2.1-0.5,2.9,0.7c-0.9,0-1.9,0-2.8,0C241.4,459.9,241.4,459.6,241.4,459.4z"/>
			<path class="st27" d="M379,407.4c-1.4-6.1,1.6-6.7,5.9-6c1.9,0.3,3.9,0.2,5.8,0.3c0,9.4,0,18.9,0,28.3c-1.3,0.1-2.6,0.2-4,0.3
				c-7.3,0.1-7.3,0-7.8-7.9C379,417.3,379,412.4,379,407.4z"/>
			<path class="st8" d="M376.5,423.3c-0.6,2.2,0.9,5.7-0.9,6.4c-2.7,1-5.9,0.4-8.9,0.4c-1.8,0-1.5-1.7-1.5-2.9c0-7.6,0-15.2,0-22.8
				c0-2.1,0.6-3.1,2.6-2.9c0.9,0.1,1.8,0.2,2.7,0c4.4-0.9,6.8,0.6,6.1,6C376.5,412.7,376.5,418,376.5,423.3z"/>
			<path class="st27" d="M390.7,398.1c-3.1,0.1-6.3,0-9.4,0.3c-2.9,0.3-3.4-1.4-2.9-3.8c1.7-8.1,0.3-16.2,0.8-24.4
				c6-0.4,9.6,3.6,11.6,13.4C390.8,388.4,390.7,393.2,390.7,398.1z"/>
			<path class="st8" d="M376.5,373.5c-0.1,6.9-0.3,13.9-0.1,20.8c0.1,3.3-0.9,4.1-3.8,4.1c-7.4-0.1-7.4,0-7.4-8
				c0-3.1-0.1-6.3,0.3-9.4c0.6-5.4,3.7-8.8,8.2-10.8c2.6-1.2,2.8,0.3,2.8,2.4C376.5,372.9,376.5,373.2,376.5,373.5z"/>
			<path class="st24" d="M390.7,398.1c0-4.9,0.1-9.7,0.1-14.6c2.6,0.4,1.8,2.6,1.9,4.2c0,14.8,0,29.6,0,44.5c-0.6,0-1.2,0-1.7,0.1
				c-0.1-0.8-0.1-1.5-0.2-2.3c0-9.4,0-18.9,0-28.3C390.7,400.5,390.7,399.3,390.7,398.1z"/>
			<path class="st9" d="M376.5,423.3c0-5.3,0-10.6,0-15.9c0.8,0,1.6,0,2.4,0c0,5,0,9.9,0,14.9C378.1,422.6,377.3,423,376.5,423.3z"
				/>
			<path class="st24" d="M376.5,373.5c0-0.3,0-0.7,0-1c0.4,0.2,0.7,0.3,1.1,0.5C377.2,373.2,376.9,373.4,376.5,373.5z"/>
			<path class="st27" d="M294,389c0,0.5,0,1,0,1.5c0,7.9,0,7.7-7,7.9c-3.4,0.1-4.7-0.8-4.5-4.8c0.3-6.9,0.2-13.9,0.1-20.8
				c-0.1-3.4,1-3.6,3.4-2.4c4.9,2.3,7.5,6.4,8,12.2C294.1,384.7,294,386.9,294,389L294,389z"/>
			<path class="st8" d="M268.6,381.5c0.4-1.5,0.8-3,1.2-4.5c0.6-0.9,1.2-1.8,2-2.7c2-2.3,4.4-5.3,7.1-4.2c2.1,0.9,0.7,4.7,0.8,7.2
				c0.1,5.8-0.1,11.6,0.1,17.4c0.1,2.7-0.7,3.7-3.3,3.7c-7.9,0.1-7.8,0.2-7.9-8.5C268.7,387.1,268.6,384.3,268.6,381.5z"/>
			<path class="st28" d="M325.5,338.6c-5.4,1.9-6,1.6-5.8-4.5c0.1-3.8-0.8-7.7,0.6-11.5c4.5-0.8,6.1,1.1,5.5,6.1
				C325.3,332,325.6,335.3,325.5,338.6z"/>
			<path class="st28" d="M319.5,320.4c0-3.1,0.1-6.2,0.1-9.4c0-6.3,0-6.3,6-5.9c0,3.3,0.1,6.5,0.1,9.8
				C325.7,321.6,325.7,321.6,319.5,320.4z"/>
			<path class="st27" d="M333.1,319.8c-0.1,0.3-0.1,0.6-0.2,1c-1.9-0.5-5.2,2.1-5.5-2.1c-0.3-4.5-0.6-9.1,0.2-13.6
				c1.8,0.5,3.8-0.8,5.4,0.9C333.1,310.5,333.1,315.1,333.1,319.8z"/>
			<path class="st27" d="M329.3,338.8c-0.6-0.1-1.2-0.1-1.8-0.2c-0.1-3.3,0.1-6.6-0.3-9.8c-0.7-5.1,0.9-7.2,5.6-6
				c0,0.3,0.1,0.6,0.2,0.9c-0.1,4.9-0.2,9.8-0.3,14.7c-0.3,0.1-0.6,0.2-0.9,0.3C331.1,338.8,330.2,338.8,329.3,338.8z"/>
			<path class="st20" d="M332.9,322.9c-4.7-1.2-6.3,0.9-5.6,6c0.4,3.2,0.2,6.5,0.3,9.8c-0.7,0-1.4,0-2-0.1c0.1-3.3-0.2-6.6,0.2-9.9
				c0.6-5-1-6.9-5.5-6.1c-0.3-0.7-0.5-1.5-0.8-2.2c6.2,1.2,6.2,1.2,6.2-5.5c0-3.3,0-6.5-0.1-9.8c0.6-1.3,1.4-0.4,2.1-0.2
				c-0.9,4.5-0.5,9.1-0.2,13.6c0.3,4.2,3.6,1.6,5.5,2.1C332.9,321.5,332.9,322.2,332.9,322.9z"/>
			<path class="st20" d="M332.9,338.5c0.1-4.9,0.2-9.8,0.3-14.7c1.4,4.9,0.6,9.9,0.5,14.8c0,0.1-0.2,0.2-0.3,0.1
				C333.1,338.7,333,338.6,332.9,338.5z"/>
			<path class="st20" d="M333.1,319.8c0-4.6-0.1-9.3-0.1-13.9C334.4,310.5,334.2,315.1,333.1,319.8z"/>
			<path class="st20" d="M329.3,338.8c0.9,0,1.8,0,2.7,0C331.1,340,330.2,339.9,329.3,338.8z"/>
			<path class="st27" d="M326,405.6c0,8.6,0,8.6-7.7,8.6c-5.9,0-5.9,0-5.9-7.7c0-9.9,0-9.7,8.5-10c4-0.1,6,0.9,5.2,5.6
				C325.8,403.3,326,404.5,326,405.6z"/>
			<path class="st27" d="M342.2,405.4c0,8.8,0,8.8-7.9,8.8c-5.7,0-5.7,0-5.7-7.8c0-9.8,0-9.5,8.9-9.9c4.1-0.2,5.4,1.2,4.8,5.5
				C342.1,403.1,342.2,404.3,342.2,405.4z"/>
			<path class="st27" d="M342.3,385c-0.1,8.7-0.1,8.7-8,8.7c-5.7,0-5.7,0-5.7-7.3c0-10.3,0-10,8.9-10.3c4-0.2,5.4,1.2,4.8,5.4
				C342.1,382.7,342.3,383.8,342.3,385z"/>
			<path class="st27" d="M312.3,384.8c0-8.5,0-8.2,7.8-8.6c4.6-0.2,6.7,1,5.8,6.3c0,0.2,0,0.3,0,0.5c0,10.8,0,10.7-9.4,10.9
				c-3.2,0.1-4.9-0.6-4.3-4.6C312.5,387.8,312.3,386.3,312.3,384.8z"/>
			<g>
				<path class="st11" d="M347.2,443.5L347.2,443.5v-0.1c-1-0.9-0.6-2-0.5-3.1c0-2.7,0-5.4,0-8c0.2-0.6,0.5-1.2,0.7-1.8
					c1.1-0.1,2.2-0.3,3.3-0.4l0,0c-0.7-4-3.6-1.6-5.4-2.4c-1.3-0.4-2.6-1.2-3.9-1.2c-11.5-0.1-22.9,0-34.4-0.1
					c-2.8,0-3.1,1.6-3.1,4.1c0.1,13.3,0.1,26.5,0,39.8c0,3,0.9,4.1,3.6,4c13.3-0.1,26.5-0.1,39.8,0c2.7,0,3.8-0.8,3.7-3.9
					c-0.2-8.1-0.1-16.2-0.2-24.4C350.6,443.3,348.2,444.7,347.2,443.5z"/>
				<path class="st11" d="M308.1,419.4c12.6-0.1,25.3,0,37.9-0.1c2.2,0,4.2-0.1,4.8,2.9c0-16.5,0-33,0-49.5c0-1.9-0.9-2.2-2.3-2.2
					c-14,0-28,0-42,0c-2.1,0-3.3,1.1-3.1,3.2c1.2,13.9,0.3,27.8,0.5,41.6C304,419.1,305.5,419.4,308.1,419.4z"/>
				<path class="st11" d="M350.5,442.7c-0.1,0.1-0.1,0.1-0.2,0.2C350.3,442.8,350.4,442.7,350.5,442.7z"/>
				<path class="st10" d="M352.9,467.3c0-29,0-58,0-87c0-3.1,0-6.2,0.3-9.3c0.2-1.9-0.7-2.3-2-2.5c-14.6-0.1-29.2-0.2-43.8-0.2
					c-6.5,0-5.7-0.9-5.8,6.4c-0.1,34.5-0.1,68.9-0.2,103.4c0.4,0.2,0.8,0.7,1.2,0.7c17.1,0.1,34.1,0.5,51.2-0.2
					C352.9,474.9,352.8,471.1,352.9,467.3z M303.4,373.8c-0.2-2.1,1.1-3.2,3.1-3.2c14,0,28,0,42,0c1.3,0,2.3,0.3,2.3,2.2
					c0,16.5,0,33,0,49.5c-0.6-3-2.6-2.9-4.8-2.9c-12.6,0.1-25.3,0-37.9,0.1c-2.6,0-4.1-0.3-4.2-3.9
					C303.7,401.6,304.7,387.7,303.4,373.8z M347.4,474.1c-13.3-0.1-26.5-0.1-39.8,0c-2.8,0-3.7-1-3.6-4c0.1-13.3,0.1-26.5,0-39.8
					c0-2.5,0.3-4.1,3.1-4.1c11.5,0.1,22.9,0,34.4,0.1c1.3,0,2.6,0.8,3.9,1.2c1.8,0.7,4.8-1.6,5.4,2.4l0,0c-1.1,0.1-2.2,0.3-3.3,0.4
					c-0.2,0.6-0.5,1.2-0.7,1.8c0,2.7,0,5.4,0,8c-0.1,1.1-0.5,2.2,0.5,3.1v0.1l0,0c1,1.2,3.4-0.2,3.7,2.3c0,8.1,0,16.2,0.2,24.4
					C351.2,473.3,350,474.1,347.4,474.1z M350.5,442.7c-0.1,0.1-0.1,0.1-0.2,0.2C350.3,442.8,350.4,442.7,350.5,442.7z"/>
			</g>
			<path class="st19" d="M347.4,430.4c-0.2,0.6-0.5,1.2-0.7,1.8C346.5,431.4,346.4,430.6,347.4,430.4z"/>
		</g>
	</g>
	<path class="st4" d="M554.2,290.2c5.6,11.2,4,21.6-7.7,29c-12,7.6-22.9,3.5-29.7-7.4c-6.6-10.6-4-22.1,6.7-28.6
		C534.2,276.5,545.5,277.5,554.2,290.2z"/>
	<path class="st4" d="M343,238.9c-0.6,5.5-3.9,9.2-10.5,9.2c-6.8,0-10.2-4.1-10.2-9.8c0-5.6,4-9.3,9.9-9.3
		C338.3,229,342.7,232,343,238.9z"/>
	<path class="st4" d="M329.5,207c3.2,4.3,3.2,9-1.3,13.2c-4.7,4.3-9.8,3.6-13.5-0.5c-3.6-4-3.3-9.2,0.9-12.9
		C319.8,202.9,324.8,202.3,329.5,207z"/>
</g>
</svg>
