<?xml version="1.0" encoding="utf-8"?>
<!-- Generator: Adobe Illustrator 24.1.1, SVG Export Plug-In . SVG Version: 6.00 Build 0)  -->
<svg version="1.1" id="f9c5e9d6-e0c2-49fb-9e36-725fc7f10ee6"
	 xmlns="http://www.w3.org/2000/svg" xmlns:xlink="http://www.w3.org/1999/xlink" x="0px" y="0px" viewBox="0 0 1600 900"
	 style="enable-background:new 0 0 1600 900;" xml:space="preserve">
<style type="text/css">
	.st0{fill:#14B8A6;}
	.st1{fill:#0D9488;}
	.st2{fill:#F59E0B;}
	.st3{fill:#F2F2F2;}
	.st4{fill:#CACACA;}
	.st5{fill:#E4E4E4;}
	.st6{fill:#FFFFFF;}
	.st7{fill:#E6E6E6;}
	.st8{fill:#CCCCCC;}
	.st9{fill:#3F3D56;}
	.st10{fill:#0EA5E9;}
	.st11{fill:#FDC2CC;}
	.st12{fill:#D97706;}
	.st13{fill:#9E616A;}
	.st14{fill:#2F2E41;}
	.st15{fill:#64748B;}
	.st16{fill:#FFB6B6;}
	.st17{fill:#428DFC;}
	.st18{fill:#FFB8B8;}
	.st19{fill:#0369A1;}
</style>
<path class="st0" d="M343.5,435.8V217.4c0-6.6,5.2-11.8,11.8-11.8s11.8,5.2,11.8,11.8v218.4c0,6.6-5.2,11.8-11.8,11.8
	S343.5,442.3,343.5,435.8z"/>
<path class="st1" d="M315.2,435.8V217.4c0-6.6,5.2-11.8,11.8-11.8s11.8,5.2,11.8,11.8v218.4c0,6.6-5.2,11.8-11.8,11.8
	S315.2,442.3,315.2,435.8z"/>
<path class="st1" d="M287.2,435.8V217.4c0-6.6,5.2-11.8,11.8-11.8c6.6,0,11.8,5.2,11.8,11.8v218.4c0,6.6-5.2,11.8-11.8,11.8
	C292.4,447.5,287.2,442.3,287.2,435.8z"/>
<path class="st2" d="M1349.6,784.7c-4.7,0-9.4-0.8-13.9-2.4l-0.7-0.2l0.3-1.5c-8.1-16.1-5.2-38.3,7.2-56.4
	c11.3-16.5,28.2-28.6,43.3-39.1c5.2-3.7,12.6-2.5,16.3,2.9c1.8,2.7,2.5,5.9,1.8,8.9l-5.4,27.6c-3.9,20-8.6,38.8-22.2,50.6
	C1368.9,781.2,1359.4,784.7,1349.6,784.7z"/>
<path class="st2" d="M1384.9,832.4c-10.6,0-20.5-5.5-26.2-14.4l-0.3-0.7l1-0.8c2.4-13.1,13.8-24.9,28.9-29.9
	c13.8-4.5,29.1-3.9,42.5-3.2l0,0c5,0.2,8.7,4.5,8.6,9.4c-0.2,2.4-1.2,4.7-3,6.2l-15.1,13.6c-10.9,9.9-22,18.8-35.1,19.5
	C1385.6,832.4,1385.2,832.4,1384.9,832.4z"/>
<path class="st3" d="M1337.9,847c-2.2-16.6-4.5-33.4-3-50.2c1.3-15,5.9-29.6,15-41.5c4.9-6.4,10.6-11.8,17.3-16.1
	c1.7-1.2,3.4,1.7,1.7,2.9c-11.6,7.6-20.5,18.5-25.4,31.2c-5.5,14.4-6.4,30.1-5.5,45.4c0.5,9.2,1.8,18.5,3,27.6
	c0.2,0.8-0.3,1.7-1.2,2C1339,848.4,1338,847.9,1337.9,847L1337.9,847L1337.9,847z"/>
<path class="st3" d="M1331.6,856.4c10.8-19.5,23.2-41.2,45.5-48c6.2-1.8,12.8-2.5,19.2-2c2,0.2,1.5,3.4-0.5,3.2
	c-10.9-0.8-21.7,2-30.6,8.2c-8.6,6-15.3,14.3-21,23.2c-3.5,5.4-6.6,11.1-9.7,16.6C1333.5,859.6,1330.6,858.3,1331.6,856.4
	L1331.6,856.4z"/>
<path class="st4" d="M1326.8,856.3l10.9,0.2l-65.5-349.8l-10.9,2l17.1,90.7h-55.1l17.1-90.7l-10.9-2l-65,349.8l10.2-0.2l34.1-181.3
	h83.7L1326.8,856.3z M1211.5,661.5l9.2-48.7h60.1l9.2,48.7H1211.5z"/>
<path class="st1" d="M852.5,441.3V326.4c0-3.4,5.2-6.2,11.8-6.2s11.8,2.9,11.8,6.2v114.9c0,3.4-5.2,6.2-11.8,6.2
	S852.5,444.8,852.5,441.3z"/>
<path class="st0" d="M824.3,441.3V326.4c0-3.4,5.2-6.2,11.8-6.2c6.6,0,11.8,2.9,11.8,6.2v114.9c0,3.4-5.2,6.2-11.8,6.2
	C829.5,447.5,824.3,444.8,824.3,441.3z"/>
<path class="st0" d="M796.2,441.3V326.4c0-3.4,5.2-6.2,11.8-6.2c6.6,0,11.8,2.9,11.8,6.2v114.9c0,3.4-5.2,6.2-11.8,6.2
	C801.4,447.5,796.2,444.8,796.2,441.3z"/>
<path class="st5" d="M1035.3,857.1h-207c-8.7,0-15.8-7.1-15.8-15.8V501.6c0-7.7-6.4-14.1-14.1-14.1H314.2c-7.7,0-14.1,6.4-14.1,14.1
	v339.7c0,8.7-7.1,15.8-15.8,15.8h-7.1c-8.7,0-15.8-7.1-15.8-15.8v-358c0-20.8,17-37.8,37.8-37.8h714c20.8,0,37.8,17,37.8,37.8v358
	C1051.1,850,1044,857.1,1035.3,857.1z"/>
<rect x="813.4" y="533.7" class="st6" width="236.9" height="10.1"/>
<rect x="813.4" y="669.8" class="st6" width="236.9" height="10.1"/>
<path class="st7" d="M617.3,443.8l-6.9-2.9l-4.7-34.1h-62.2l-5,33.9l-6,3c-0.7,0.3-1,1.2-0.7,2c0.2,0.5,0.7,0.8,1.3,0.8h83.7
	c0.8,0,1.5-0.7,1.5-1.5C618.1,444.5,617.8,444,617.3,443.8z"/>
<path class="st8" d="M727.8,411.4H422.4c-3.4,0-6-2.7-6-6v-43h317.5v43C733.9,408.7,731.2,411.4,727.8,411.4z"/>
<path class="st9" d="M734.2,382.5H416V198.2c0-4,3.2-7.2,7.2-7.2h303.6c4,0,7.2,3.2,7.2,7.2v184.3H734.2z"/>
<path class="st10" d="M715.2,369.2H435c-3,0-5.5-2.5-5.5-5.5V210c0-3,2.5-5.5,5.5-5.5h280.2c3,0,5.5,2.5,5.5,5.5v153.6
	C720.8,366.7,718.3,369.2,715.2,369.2z"/>
<path class="st11" d="M1029.2,221.9c10.1-1.5,19.5,5.5,21,15.6c0.2,1,0.2,2.2,0.2,3.2l61.5,23.7l-27.9,19.8l-54.1-25.5
	c-10.2-1-17.6-10.1-16.6-20.3C1014.1,230,1020.8,223.1,1029.2,221.9L1029.2,221.9z"/>
<path class="st12" d="M1262.6,210.3l10.4,18.8c-2.5,11.9-9.1,22.8-18.5,30.6c-16,13.4-99.1,63.3-99.1,63.3l-105-52.8l18.3-24.4
	l82.5,27.6l0,0c30.6-28.9,67.5-50.2,107.9-62.3L1262.6,210.3z"/>
<ellipse class="st4" cx="1243.3" cy="496.2" rx="82" ry="26.7"/>
<polygon class="st13" points="1059.3,833.6 1037.6,827.5 1050.4,740.7 1082.5,749.6 "/>
<path class="st14" d="M1059,856.3l-70.1-19.5l0.2-0.8c4.2-15.1,19.8-23.9,34.9-19.8l0,0l42.8,11.9L1059,856.3z"/>
<polygon class="st13" points="996.3,833.9 975.6,824.7 1000.8,740.7 1031.4,754.1 "/>
<path class="st14" d="M992.6,856.3l-66.5-29.4l0.3-0.8c6.4-14.3,23-20.8,37.3-14.4l0,0l40.7,18L992.6,856.3z"/>
<path class="st15" d="M1306.9,431c0,0,10.9,33.9-56.3,76.8l-86.5,86.2l-89.9,215l-53.4-23.9l10.4-27.9l7.1-18.8l3.5-9.6l3.9-10.2
	l57.1-152.5l48-84l1.3-45.5l11.8-32.1l85.7-30.4L1306.9,431z"/>
<path class="st15" d="M1263.3,432.7c0,0,10.9,33.9-56.3,76.8l-86.5,86.2l-89.9,215l-53.4-23.9l10.4-27.9l7.1-18.8l3.5-9.6l3.9-10.2
	l57.1-152.5l16.1-28.1c21.2-37.1,47-71.4,76.6-102.1l15.8-16.3l1.7-25.2l36.6-20.3L1263.3,432.7z"/>
<path class="st12" d="M1211.5,266.6l26.9-57.1l46.9-6.4c0,0,36.6,46.7,27,112.2c-3.5,24.5-6.6,49.1-6.7,70.6c0,5.7,4.9,8.2,5,13.4
	c0,5-9.4,13.3-6.7,16.8c3.9,4.7,6.2,10.6,6.7,16.8c-3.4,7.9-104.2-34.9-146.5-28.6L1211.5,266.6z"/>
<path class="st16" d="M713.2,315.6c-0.2,1.3-0.2,2.5-0.2,3.9L619,388.2l-25.9-11.4l-22.5,36.6l43.8,24.7c7.2,4,16.5,2.9,22.3-2.9
	l94.8-92.6c13.3,3.4,26.5-4.7,29.9-17.8c3.4-13.3-4.7-26.5-17.8-29.9c-13.3-3.4-26.5,4.7-29.9,17.8
	C713.6,313.6,713.4,314.6,713.2,315.6L713.2,315.6z"/>
<path class="st17" d="M615.8,390.6l-27.6,45.7c-3,5-9.6,6.6-14.4,3.7c-0.5-0.3-0.8-0.5-1.3-0.8l-41-33.8
	c-13.8-8.4-18.3-26.5-9.7-40.3c8.4-13.8,26.4-18.1,40.2-9.9l49.1,20.3c5.4,2.2,7.9,8.4,5.7,13.8
	C616.3,389.7,616.1,390.2,615.8,390.6L615.8,390.6z"/>
<rect x="498.2" y="699.3" class="st4" width="53.9" height="89.2"/>
<rect x="604.4" y="717.3" transform="matrix(0.5615 -0.8275 0.8275 0.5615 -390.4639 854.0125)" class="st4" width="12.3" height="156.2"/>
<rect x="361.6" y="789.2" transform="matrix(0.8275 -0.5615 0.5615 0.8275 -370.7125 384.1074)" class="st4" width="156.2" height="12.3"/>
<circle class="st4" cx="675.1" cy="839.3" r="17"/>
<circle class="st4" cx="524.2" cy="839.3" r="17"/>
<circle class="st4" cx="375" cy="839.3" r="17"/>
<rect x="518.2" y="751.6" class="st4" width="12.3" height="87.7"/>
<rect x="513.5" y="620.9" class="st4" width="23" height="118.4"/>
<path class="st9" d="M458.9,639.4v-27.7c0-10.6,8.6-19.2,19.2-19.2h103.2c10.6,0,19.2,8.6,19.2,19.2v27.7c0,10.6-8.6,19.2-19.2,19.2
	H478C467.4,658.5,458.9,650,458.9,639.4z"/>
<polygon class="st18" points="645,828.5 673.6,828.5 687.2,754.6 645,754.6 "/>
<path class="st14" d="M637.8,856.3h91.9v-1.2c0-19.8-16-35.8-35.8-35.8l0,0l0,0h-56.1L637.8,856.3z"/>
<path class="st14" d="M687.7,782.7l56.8-127.5c9.9-22.3,0.8-48.4-20.5-60l-123.3-66l-56.3-4.7l-51.9-4.7l-0.3,0.7
	c-0.5,0.8-11.6,20.2-4,41.2c5.7,16,20.7,28.6,44.2,37.1c55.1,20.2,118.8,37.5,143.6,44c2.2,0.5,4,2,5.2,4c1,2,1.2,4.4,0.5,6.6
	l-52.8,118.6c-2,5.4,0.8,11.4,6.2,13.4c0.8,0.3,1.7,0.5,2.7,0.7l39.5,2.9c0.3,0,0.7,0,1,0C682.3,788.9,686,786.5,687.7,782.7z"/>
<polygon class="st18" points="626.5,828.5 654.9,828.5 668.5,754.6 626.5,754.6 "/>
<path class="st14" d="M619.1,856.3H711v-1.2c0-19.8-16-35.8-35.8-35.8l0,0l0,0h-56.1L619.1,856.3z"/>
<path class="st14" d="M666.9,789.7l56.8-127.5c9.9-22.3,0.8-48.4-20.5-60l-123.3-66l-56.3-4.7l-40.7-3.5v-0.5
	c-0.5,0.8-11.6,20.2-4,41.2c5.7,16,8.9,28.6,32.6,37.1c55.1,20.2,118.8,37.5,143.6,44c2.2,0.5,4,2,5.2,4c1,2,1.2,4.4,0.5,6.6
	L608.1,779c-2,5.4,0.8,11.4,6.2,13.4c0.8,0.3,1.7,0.5,2.7,0.7l39.5,2.9c0.3,0,0.7,0,1,0C661.3,795.9,665.2,793.4,666.9,789.7z"/>
<circle class="st18" cx="575.6" cy="227.6" r="57.1"/>
<path class="st19" d="M772.5,447c23.9-31.8,42.8-67,55.9-104.5c1.5-4.7-0.3-9.7-4.7-12.1l-81.6-43.8c-2.7-1.5-5.9-1.5-8.7-0.3
	c-2.9,1.2-4.9,3.7-5.7,6.7c-9.6,36.1-27.4,69.6-52.2,97.4c-2,2.4-3,5.4-2.4,8.4c0.5,3,2.4,5.5,5,7.1l81.6,43.8
	C764.1,452,769.5,450.9,772.5,447z"/>
<path class="st6" d="M766.8,442.8c-0.8,1.2-2.5,1.5-3.7,0.8l-81.6-43.8c-0.8-0.3-1.3-1.2-1.5-2c-0.2-1,0.2-1.8,0.7-2.7
	c25.5-28.7,44-63.2,53.8-100.3c0.2-1,0.8-1.7,1.7-2c0.8-0.3,1.8-0.3,2.5,0.2l81.6,43.8c1.3,0.7,1.8,2.2,1.5,3.5
	C808.8,377,790.3,411.6,766.8,442.8z"/>
<path class="st19" d="M740.9,320.5l60.6,38.3c5.9,3.9,11.6-6.2,5.4-10.1l-60.6-38.3C740.4,306.6,735.1,316.6,740.9,320.5
	L740.9,320.5z"/>
<path class="st10" d="M730.2,341.8l60.6,38.3c5.9,3.9,11.6-6.2,5.4-10.1l-60.6-38.3C729.5,327.9,724.1,338,730.2,341.8L730.2,341.8z
	"/>
<path class="st10" d="M721.6,363l55.1,35.1c5.4,3.5,11.4-3.7,5.9-7.2l-55.1-35.1C722,352.4,716.3,359.5,721.6,363z"/>
<path class="st10" d="M704.8,384.7l60.6,38.3c5.9,3.9,11.6-6.2,5.4-10.1l-60.6-38.3C704.3,370.6,698.9,380.6,704.8,384.7
	L704.8,384.7z"/>
<path class="st2" d="M608.6,533.9l-113.1-0.7v-0.8c-2.2-56.8,4.7-108,21.2-157.1c0.2-1.8,0.5-3.9,0.7-5.7c2.9-21.8,5-39.3,25.9-45.7
	c-1.7-2.4-2.7-5-3-7.9c-0.3-3.9,1-7.7,3.5-10.6c2.5-2.9,5.9-4.5,9.7-4.7l40.2-1.3c2.2,0,4.2,0.7,5.9,2c6.4,4.7,8.2,13.3,4.7,20.3
	c-0.5,1-0.7,1.3-0.7,1.5c1.5,7.6,5.7,16.5,10.1,25.9c6.4,13.4,13.8,28.7,15.6,45.2c1,8.9,0.7,17.8-1.2,26.4c-0.8,4.7-1,9.4-0.5,14.3
	c0.3,7.1,0.7,13.6-3.2,20c-1,1.7-2.2,3.5-3.5,5.7l-5.5,13.3L608.6,533.9z"/>
<path class="st9" d="M438.9,613.2V382.3c0-15.6,12.8-28.4,28.4-28.4h7.9c15.6,0,28.4,12.8,28.4,28.4v231c0,15.6-12.8,28.4-28.4,28.4
	h-7.9C451.7,641.6,438.9,629,438.9,613.2z"/>
<path class="st16" d="M742,405.3c-0.8,1-1.5,2-2.2,3.2l-116.3,8.4l-16-23.4l-38.5,19.5l24.2,44.2c4,7.4,12.4,11.1,20.5,9.2
	l129.4-28.6c9.4,9.7,25,10.1,34.9,0.7c9.7-9.4,10.1-25,0.7-34.9c-9.4-9.7-25-10.1-34.9-0.7C743.3,403.8,742.6,404.5,742,405.3z"/>
<path class="st2" d="M619.7,417.6L572.3,442c-5.2,2.7-11.6,0.7-14.3-4.5c-0.2-0.5-0.5-1-0.7-1.5l-17.1-50.4
	c-7.2-14.4-1.5-31.9,12.8-39.3c-21,10.8,22.8-19.8,39.5,12.8l30.9,43.2c3.4,4.7,2.4,11.4-2.5,14.8
	C620.7,417.1,620.2,417.3,619.7,417.6L619.7,417.6z"/>
<path class="st14" d="M549.8,283c-3.4,0-7.2-1.7-11.4-5c-25.9-20.3-34.9-55.4-22.3-85.7c3.2-7.4,8.9-17.5,19-23.5
	c7.2-4.2,15.6-5.7,23-6.9c6.4-1,12.9-1.7,19.3-2.2c7.6-0.7,16.5-1,24.4,2c5.9,2.2,10.9,6.2,15.8,10.1c1.7,1.3,3.4,2.7,5.2,4
	c4.2,3.4,9.1,5.7,14.3,6.9c2.2,0.5,4.2,1.8,5.2,3.9c1.2,2,1.3,4.4,0.5,6.6c-0.7,2.2-1.5,4,0,6c1,1.5,2.7,2.4,4.5,2.4
	c1,0,1.8,0.5,2.4,1.2c0.5,0.8,0.7,1.8,0.3,2.7l-0.2,0.5c1.2,0.2,2.4,0.8,2.9,1.8c0.8,1.5,0.7,3.5-0.7,4.7c-5,4.9-11.4,8.2-18.3,9.6
	c-4.7,1-9.6,0.8-14.3,0l-0.8-0.2l0.2-0.8c-19-6.7-36.3,4.7-46,18l-1.3-0.8c0.5-1,0.5-2.2,0.2-3.2c-0.3-1.2-1.3-2.4-2.5-2.9
	c-2.4-1-5.2-0.5-6.9,1.3c-1.8,1.8-2.9,4.5-2.5,7.2c0.3,2.9,1,5.5,2.2,8.1c0.5,1.2,1,2.5,1.3,3.7c2.2,7.2,1.5,15.1-1.7,21.8
	c-1.5,3.2-4.2,7.1-8.6,8.4C551.6,283,550.8,283,549.8,283z"/>
<path class="st4" d="M1478.1,859.6H121.9c-1.2,0-2-0.8-2-2s0.8-2,2-2h1356.3c1.2,0,2,0.8,2,2
	C1480.1,858.6,1479.1,859.6,1478.1,859.6z"/>
<path class="st19" d="M1036,357l81.6-43.8c2.7-1.5,4.5-4,5-7.1c0.7-3-0.3-6-2.4-8.4c-24.9-27.9-42.7-61.3-52.2-97.4
	c-0.8-3-2.9-5.5-5.7-6.7c-2.9-1.2-6-1.2-8.7,0.3l-81.6,43.8c-4.4,2.4-6.2,7.4-4.7,12.1c13.1,37.5,32.1,72.7,55.9,104.5
	C1026.2,358.1,1031.6,359.3,1036,357z"/>
<path class="st6" d="M974,247.6c-0.3-1.3,0.2-2.9,1.5-3.5l81.6-43.8c0.7-0.5,1.7-0.5,2.5-0.2c0.8,0.3,1.5,1,1.7,2
	c9.7,37.1,28.2,71.6,53.8,100.3c0.5,0.8,0.8,1.7,0.7,2.7c-0.2,0.8-0.7,1.7-1.5,2l-81.6,43.8c-1.2,0.7-2.9,0.3-3.7-0.8
	C1005.4,318.8,986.9,284.2,974,247.6z"/>
<path class="st19" d="M1055.6,231.6c5.9-3.7,0.5-13.4-5.4-9.7l-59.3,36.8c-6,3.7-0.5,13.4,5.4,9.7L1055.6,231.6L1055.6,231.6z"/>
<path class="st10" d="M1066.2,252.1c5.9-3.7,0.5-13.4-5.4-9.7l-59.3,36.8c-6,3.7-0.5,13.4,5.4,9.7L1066.2,252.1L1066.2,252.1z"/>
<path class="st10" d="M1068.7,265.7l-53.9,33.8c-5.4,3.4,0.5,10.2,5.9,6.9l53.9-33.8C1079.8,269.3,1074.3,262.4,1068.7,265.7z"/>
<path class="st10" d="M1091.1,293.3c5.9-3.7,0.5-13.4-5.4-9.7l-59.3,36.8c-6,3.7-0.5,13.4,5.4,9.7L1091.1,293.3L1091.1,293.3z"/>
<path class="st11" d="M1059.5,319.3c9.6-3.7,20.3,1.2,23.9,10.8c0.3,1,0.7,2,0.8,3.2l65.2,9.6l-22.8,25.5l-58.3-13.1
	c-10.2,1.2-19.5-6-20.7-16.3C1046.5,330.6,1051.4,322.4,1059.5,319.3L1059.5,319.3z"/>
<path class="st12" d="M1089.4,362.8l13.3-29.4l86.7,8.9l35.6-52.8l59.8-33.6l15,17v0.3c0.2,12.4-3.9,24.7-11.4,34.4
	c-9.1,11.9-47.4,49.4-69.4,70.6c-8.7,8.4-21,11.8-32.8,8.7L1089.4,362.8z"/>
<ellipse class="st16" cx="1237.4" cy="155.2" rx="46.9" ry="43.2"/>
<path class="st14" d="M1204.5,236.3l-4.4-17.8c-2.9-12.1-0.5-24.7,6.9-34.9c6.7-9.7,7.2-22.2,1-32.4c-4.5-8.2-13.6-13.4-23.5-13.6
	h-1.2v-1c0-15.5,13.1-26.4,25.2-27c0.5-3.2,2.9-6,7.2-8.4c10.2-5.5,30.2-6.7,45.4,0.7c0.5-4.9,4-8.9,8.7-10.8c2.5-0.8,5.2-1,7.7-0.3
	c0.2-3.9,2-7.6,4.9-10.4c4.2-3.7,10.8-5.2,18.3-3.9c10.2,1.7,20.3,7.7,28.4,17c7.2,8.2,12.1,17.8,17,27.2
	c4.7,9.2,9.6,18.6,16.8,26.7c7.7,8.7,17.5,14.4,27.2,16.1c11.4,1.8,23-2.5,28.4-10.4l1-1.5l1,1.7c6,10.1,3.5,24.2-5.9,33.3
	c-8.4,8.1-21.5,12.3-35.3,11.1c-11.6-1-23.2-5.5-34.8-13.4c-11.4-7.9-18.5-16.6-20.8-25.9c-0.7-2.9-1.2-5.7-1.5-8.7
	c-0.8-6.2-1.5-11.9-5.5-16.3c-3.7-3.9-9.4-5.5-14.4-6.7l-1-0.2c-0.3,3.5-2.4,6.7-5.5,8.7c-1,0.5-2,0.8-3,1
	c5.9,21.8,3.5,38.5-7.2,49.6c-18,18.8-52.4,15-53.8,14.8l-1-0.2v-0.8c-0.2-2.4-0.5-4.9-1-7.2c-4.9,10.9-21.5,40-23.7,43
	L1204.5,236.3z"/>
<ellipse class="st10" cx="688.2" cy="100.5" rx="50.6" ry="52.8"/>
<path class="st6" d="M715.4,100.5H691V75.1c0-1.7-1.3-3.2-3-3.2h-0.2c-1.7,0-3,1.3-3,3.2v25.4h-24.4c-1.7,0-3,1.3-3,3.2l0,0
	c0,1.7,1.3,3.2,3,3.2h24.4v25.4c0,1.7,1.3,3.2,3,3.2h0.2c1.7,0,3-1.3,3-3.2v-25.4h24.4c1.7,0,3-1.3,3-3.2l0,0
	C718.4,102,717.1,100.5,715.4,100.5z"/>
</svg>
