<?xml version="1.0" encoding="utf-8"?>
<!-- Generator: Adobe Illustrator 24.1.1, SVG Export Plug-In . SVG Version: 6.00 Build 0)  -->
<svg version="1.1" id="b89bf718-7a91-4c53-bd44-87446f6864fe"
	 xmlns="http://www.w3.org/2000/svg" xmlns:xlink="http://www.w3.org/1999/xlink" x="0px" y="0px" viewBox="0 0 748.7 487.3"
	 style="enable-background:new 0 0 748.7 487.3;" xml:space="preserve">
<style type="text/css">
	.st0{fill:#F0F0F0;}
	.st1{fill:#FFFFFF;}
	.st2{fill:#FFB6B6;}
	.st3{fill:#3F3D56;}
	.st4{fill:#854D0E;}
	.st5{fill:#FFB7B7;}
	.st6{fill:#2F2E41;}
	.st7{fill:#CCCCCC;}
	.st8{fill:#0D9488;}
	.st9{fill:#14B8A6;}
	.st10{fill:#CACACA;}
	.st11{fill:#0284C7;}
	.st12{fill:#E6E6E6;}
	.st13{fill:#D97706;}
	.st14{fill:#64748B;}
	.st15{opacity:0.1;fill:#2F2E41;enable-background:new    ;}
	.st16{fill:#E4E4E4;}
	.st17{opacity:0.1;enable-background:new    ;}
	.st18{fill:#0EA5E9;}
</style>
<path class="st0" d="M206.8,308.6c4-26.5,21.2-52.4,46.9-60.5c-10.7,27.2-11.6,57.3-2.2,85c3.6,10.7,8.8,22.2,4.8,32.7
	c-2.5,6.5-8.2,11.4-14.6,14.5c-6.3,3-13.4,4.3-20.2,5.7l-1.2,1.2C209.9,362.3,202.8,335.2,206.8,308.6z"/>
<path class="st1" d="M254,248.7c-15.3,16.2-25,36.8-27.9,58.9c-0.7,4.7-0.7,9.5,0.1,14.2c1,4.6,3.1,8.8,6.2,12.3
	c2.9,3.3,6.1,6.4,8.2,10.3c2,4.1,2.2,8.9,0.4,13.1c-2,5.2-5.8,9.5-9.6,13.5c-4.2,4.5-8.8,9-10.6,15c-0.3,0.8-1.4,0.3-1.1-0.4
	c3.3-10.5,13.7-16.2,18.8-25.5c2.4-4.4,3.5-9.5,1.4-14.2c-1.7-4.1-5.2-7.3-8.1-10.5c-3.1-3.3-5.4-7.4-6.5-11.8
	c-1-4.7-1.3-9.4-0.7-14.2c1.2-10.7,4-21.2,8.3-31c5-11.3,11.7-21.5,20.2-30.6C253.7,247.3,254.5,248.2,254,248.7L254,248.7z"/>
<path class="st1" d="M226.5,300.5c-7.5-2.1-12.5-9.2-11.7-17c0-0.7,1.3-0.6,1.1,0.1c-0.7,7.3,3.8,13.9,10.8,15.7
	C227.7,299.5,227.3,300.6,226.5,300.5L226.5,300.5z"/>
<path class="st1" d="M230.7,332.7c6.7-3.8,11.7-10,14.2-17.3c0.3-0.8,1.4-0.3,1.1,0.4c-2.4,7.6-7.7,14-14.7,18
	C230.5,334.1,230,333,230.7,332.7L230.7,332.7z"/>
<path class="st1" d="M239,268.3c2.7,1.4,5.9,1.3,8.5-0.2c0.7-0.4,1.1,0.7,0.5,1c-2.9,1.6-6.4,1.8-9.4,0.2c-0.3-0.1-0.5-0.5-0.4-0.8
	C238.4,268.3,238.6,268.2,239,268.3L239,268.3z"/>
<path class="st0" d="M329.9,297.9c-0.4,0.3-0.8,0.5-1.2,0.7c-5.4,3.4-10.7,7.2-15.4,11.5c-0.4,0.3-0.8,0.7-1.1,1
	c-11.5,10.3-21,22.7-28.1,36.4c-2.8,5.5-5.1,11.1-7.1,17c-2.7,8.1-4.9,17-9.9,23.6c-0.5,0.7-1.1,1.3-1.6,2l-43.9-1.3
	c-0.1,0-0.2-0.1-0.3-0.1h-1.7c0.1-0.3,0.2-0.6,0.2-1c0.1-0.2,0.1-0.4,0.2-0.6c0-0.1,0.1-0.2,0.1-0.4v-0.1c0-0.1,0.1-0.2,0.1-0.3
	c0.5-1.7,1-3.6,1.5-5.3l0,0c4-13.5,9-26.8,16-39c0.2-0.3,0.5-0.7,0.7-1.1c3.2-5.5,6.8-10.7,10.8-15.5c2.2-2.6,4.6-5.2,7-7.6
	c6.4-6.2,13.7-11.4,21.6-15.3c16-7.9,34.2-10.6,50.9-5.1C329.1,297.6,329.5,297.8,329.9,297.9z"/>
<path class="st1" d="M329.8,298.5c-22,3.8-42.2,14.4-57.7,30.2c-3.4,3.4-6.3,7.2-8.4,11.5c-2,4.2-2.9,8.8-2.5,13.5
	c0.3,4.3,1.1,8.7,0.3,13.1c-0.8,4.5-3.6,8.4-7.5,10.7c-4.8,3-10.3,4.1-15.8,5c-6.1,1-12.4,1.9-17.5,5.6c-0.6,0.4-1.3-0.6-0.6-1
	c9-6.3,20.7-4.7,30.4-9c4.5-2,8.5-5.4,9.7-10.5c1.1-4.4,0.2-8.9-0.1-13.3c-0.4-4.5,0.2-9.1,1.9-13.3c2-4.4,4.7-8.3,8-11.8
	c7.4-7.8,15.8-14.5,25.3-19.8c10.7-6,22.4-10.1,34.5-12.2C330.5,297.1,330.6,298.3,329.8,298.5L329.8,298.5z"/>
<path class="st1" d="M276.8,323.3c-4.8-6.1-4.4-14.9,0.9-20.5c0.5-0.6,1.4,0.2,0.9,0.7c-4.9,5.3-5.3,13.4-0.8,19.1
	C278.3,323.3,277.4,323.9,276.8,323.3L276.8,323.3z"/>
<path class="st1" d="M260.8,351.6c7.6,1,15.4-0.9,21.6-5.3c0.6-0.4,1.3,0.6,0.6,1c-6.6,4.6-14.7,6.5-22.6,5.5
	C259.8,352.6,260,351.4,260.8,351.6L260.8,351.6z"/>
<path class="st1" d="M306.1,305.1c1.3,2.7,3.9,4.5,7,5c0.7,0,0.5,1.2-0.2,1.2c-3.3-0.4-6.2-2.5-7.7-5.5c-0.1-0.3-0.1-0.7,0.2-0.8
	C305.6,304.7,306,304.8,306.1,305.1L306.1,305.1z"/>
<path class="st0" d="M119,483.3l-1.3-1.4c-7.1-1.8-14.4-3.7-21.1-7.5s-12.9-9.7-15.7-17.3c-4.6-12.2,0.3-25.3,3.5-37.3
	c8.4-31.4,6.1-66-6.2-97.7c26.9,10.4,45.8,40.9,51.2,71.6C134.6,424.4,128.5,455.2,119,483.3z"/>
<path class="st1" d="M77.8,322.7c-0.6-0.7,0.2-1.7,0.7-1c9.1,10.8,16.6,22.9,22.2,36.1c5,11.5,8.3,23.6,10,36
	c0.8,5.5,0.8,10.9,0,16.3c-0.9,5-3.1,9.6-6.2,13.2c-2.8,3.6-6.3,7.1-7.9,11.7c-1.9,5.4-0.5,11.3,2.1,16.4c5.7,11,16.7,18,20.6,30.2
	c0.3,0.8-0.8,1.3-1.2,0.4c-2.2-7-7.1-12.4-11.7-17.8c-4.1-4.7-8.2-9.9-10.5-16c-2-4.9-2-10.4-0.2-15c1.9-4.4,5.2-7.7,8-11.4
	c3.1-3.9,5.1-8.7,5.8-13.9c0.6-5.4,0.4-10.9-0.5-16.3C105.3,366.1,94.3,342,77.8,322.7L77.8,322.7z"/>
<path class="st1" d="M108.5,383.4c-0.8,0.2-1.3-1.2-0.4-1.4c7.1-1.7,11.6-9.2,10.5-17.6c-0.2-0.8,1.1-0.9,1.2,0
	C120.9,373.4,116.2,381.3,108.5,383.4L108.5,383.4z"/>
<path class="st1" d="M105.7,420.3c0.7,0.4,0.2,1.6-0.6,1.2c-7.4-4.8-13.2-12.4-16-21.3c-0.3-0.8,0.8-1.3,1.2-0.4
	C93.1,408.2,98.6,415.6,105.7,420.3L105.7,420.3z"/>
<path class="st1" d="M94.1,345.8c0.4-0.1,0.7,0,0.8,0.3c0.1,0.3-0.1,0.8-0.3,0.9c-3,1.7-6.6,1.3-9.7-0.7c-0.7-0.4-0.2-1.6,0.5-1.1
	C88.1,347.1,91.4,347.3,94.1,345.8L94.1,345.8z"/>
<path class="st0" d="M2.7,375.2c17-5.5,35.9-1.6,52.8,8.2c8.4,4.9,16.2,11.2,23.1,18.6c2.6,2.9,5.2,6,7.6,9.1
	c4.4,5.8,8.3,11.9,11.9,18.3c0.3,0.5,0.5,0.9,0.8,1.3c7.8,14.3,13.6,29.8,18.3,45.6l0,0c0.6,2,1.2,4.1,1.8,6.2
	c0,0.1,0.1,0.2,0.1,0.3v0.1c0.1,0.2,0.1,0.3,0.2,0.4c0.1,0.2,0.2,0.4,0.2,0.7c0.1,0.5,0.2,0.8,0.3,1.1L118,485
	c-0.1,0-0.2,0.1-0.3,0.1l-45.3-0.5c-0.6-0.8-1.2-1.6-1.8-2.3c-5.5-7.7-8.1-18.1-11.3-27.5c-2.3-6.9-5-13.4-8.1-19.9
	c-8-16.1-18.3-30.7-30.7-43.1c-0.3-0.4-0.7-0.9-1.2-1.2c-5.1-5.1-10.7-9.7-16.5-13.9c-0.4-0.3-0.8-0.6-1.3-0.9
	C1.9,375.5,2.4,375.4,2.7,375.2z"/>
<path class="st1" d="M1.7,376.4c-0.8-0.2-0.8-1.6,0-1.5c12.7,3,24.9,8.2,36.2,15.6c10,6.5,19.1,14.6,27,23.9
	c3.6,4.2,6.6,8.8,8.8,13.9c1.9,4.9,2.8,10.2,2.6,15.4c-0.1,5-0.8,10.1,0.6,15.2c1.5,5.9,5.7,10,10.5,12.5
	c10.2,5.5,22.2,4.1,31.8,11.8c0.7,0.5,0,1.6-0.6,1.1c-5.4-4.4-12-5.8-18.3-7.2c-5.7-1.2-11.5-2.8-16.6-6.4
	c-4.1-2.9-7.2-7.5-8.3-12.7c-1-5.1-0.4-10.1-0.3-15.1c0.2-5.4-0.9-10.8-3.2-15.7c-2.4-5-5.6-9.5-9.2-13.6
	C45.9,394.8,24.6,381.7,1.7,376.4L1.7,376.4z"/>
<path class="st1" d="M57.6,407.3c-0.5,0.7-1.5-0.1-1.1-0.9c4.4-6.3,3.6-15.7-1.7-22c-0.6-0.7,0.3-1.5,0.9-0.8
	C61.4,390.4,62.2,400.5,57.6,407.3L57.6,407.3z"/>
<path class="st1" d="M75.5,440.5c0.8-0.2,1.1,1.2,0.4,1.4c-8.1,0.8-16.6-1.8-23.6-7.3c-0.7-0.5,0-1.6,0.6-1.1
	C59.6,438.8,67.7,441.4,75.5,440.5L75.5,440.5z"/>
<path class="st1" d="M26.4,385c0.1-0.3,0.5-0.4,0.8-0.2c0.3,0.2,0.3,0.6,0.2,0.9c-1.4,3.4-4.3,5.7-7.7,6c-0.7,0-1-1.4-0.3-1.4
	C22.6,390.1,25.2,388,26.4,385L26.4,385z"/>
<path class="st2" d="M340.1,102c0.2,0.4,0.4,0.8,0.5,1.3l36.9,10.6l6.4-6.7l11.2,9.1l-10.3,13.1c-1.7,2.2-4.6,2.9-7.1,1.8l-40-18.3
	c-3.6,2.6-8.6,1.7-11.2-2.1c-2.6-3.8-1.9-9.1,1.7-11.7s8.6-1.7,11.2,2.1C339.8,101.4,339.9,101.7,340.1,102L340.1,102z"/>
<path class="st3" d="M386.8,96.1c0.3-1.5,1.2-2.7,2.6-3.4L412,80.3c6.3-4.7,15.2-3.5,20,2.8c4.7,6.3,3.5,15.2-2.7,19.9l-18.1,18.4
	c-2,2-5.2,2-7.3,0.1c-0.2-0.2-0.3-0.4-0.5-0.6l-15.6-20.7C386.9,99.1,386.5,97.5,386.8,96.1z"/>
<path class="st4" d="M427.2,24.5c3.3-10.4,10.6-19.9,20.9-23.4c10.2-3.5,25.2,1.8,32.9,9.5c14.1,14,17.5,62.2,7.8,77.4
	c-1.9-0.1-8.6-0.2-10.5-0.2l-2.8-9.2v9.1c-15.2-0.5-31-0.2-46.8,0.1C427.4,77,424,34.8,427.2,24.5z"/>
<polygon class="st2" points="422.9,459.6 409,459.6 402.4,406.1 422.9,406.1 "/>
<polygon class="st2" points="544.1,451 530.7,454.5 510.9,404.4 530.7,399.3 "/>
<polygon class="st2" points="467.8,131.4 470.9,139.6 470.3,147.8 408.9,169 411.9,133.3 418.8,125.2 "/>
<circle class="st5" cx="448.4" cy="36.1" r="21.9"/>
<path class="st4" d="M433.3,7.5c13-7.9,29.9-3.8,37.9,9.2c2.7,4.5,4.1,9.6,4,14.9c-12,3.1-24.7,4.3-38.2,0.7l-3.1-7.6l-1.8,7.6
	c-4.1,2.9-8.1,2.9-12,0C419.8,22.3,424.8,12.8,433.3,7.5z"/>
<path class="st6" d="M429.1,485.9h-9.8l-1.8-9.3l-4.5,9.3h-26.1c-3.2,0-5.9-2.6-5.9-5.9c0-1.9,0.9-3.7,2.5-4.8l20.8-14.4v-9.4
	l21.9,1.3L429.1,485.9z"/>
<path class="st6" d="M558,474.5l-9.5,2.5l-4-8.5l-2,10.1l-25.2,6.6c-3.1,0.8-6.3-1.1-7.1-4.2c-0.5-1.9,0-3.8,1.2-5.3l16.5-19.2
	l-2.4-9.1l21.5-4.3L558,474.5z"/>
<path class="st3" d="M542.4,417.4L501.8,334l-12.7-101.6c8.8-16.3-7.5-49.5-7.5-49.5V169l-63.2,11.9l0,0
	c-12.9,35.3-19.2,72.6-18.5,110.2l2.5,135h-0.8c-2.8,0-5,2.2-5,5s2.2,5,5,5h25c2.8,0,5-2.2,5-5s-2.2-5-5-5H426l17.9-171.8l20.9,84.8
	l50.4,78c-2.7,0.2-4.8,2.6-4.6,5.4c0.2,2.6,2.4,4.6,5,4.6h25c2.8,0,5-2.2,5-5C545.6,420,544.3,418.1,542.4,417.4z"/>
<path class="st6" d="M487.3,191.4L487.3,191.4c-0.4-1.7-1.9-2.9-3.6-3c-0.8-9.5-6.3-70.6-6.5-72.4v-0.1l-1.6-34.1
	c-0.1-2.6-2.1-4.6-4.7-4.8l-8.4-0.6c-0.2,0-0.4-0.2-0.4-0.4c0-3.9-3.2-7.1-7.1-7.1l0,0h-25c-3.3,0-6.2,2.5-6.6,5.8
	c0,0.2-0.2,0.4-0.4,0.4l0,0c-5.9-0.1-11,4.1-12,9.9c-3.4,19.8-10.2,64.8-6.9,89.9c1.2,8.7,0.6,21.8,0.2,29.1
	c-0.1,1.4,0.4,2.8,1.3,3.9c-2.1,0.6-3.3,2.7-2.8,4.8l0,0c0.5,2.1,2.7,3.4,4.9,2.9l76.6-19.3C486.5,195.7,487.8,193.5,487.3,191.4z"
	/>
<path class="st1" d="M307.2,358.9c0-3.9-2.6-7.1-5.9-7.8l-102-18.7c-1-0.2-2-0.2-2.9,0.2l-23.9,6.9l-13.7,4l-25.3,7.3
	c-3.2,0.9-5.3,4.1-5.3,7.7v119.6c0,3.8,2.3,7,5.6,7.8l103.8-1.3c0.5,0.1,1,0.2,1.5,0.2c0.8,0,1.4-0.1,2.2-0.3l61.7,1.7
	c3-1,5-4.2,5-7.6L307.2,358.9z"/>
<path class="st7" d="M307.2,358.9c0-3.9-2.6-7.1-5.9-7.8l-102-18.7c-1-0.2-2-0.2-2.9,0.2l-23.9,6.9l-13.7,4l-25.3,7.3
	c-3.2,0.9-5.3,4.1-5.3,7.7v119.6c0,3.8,2.3,7,5.6,7.8l103.8-1.3c0.5,0.1,1,0.2,1.5,0.2c0.8,0,1.4-0.1,2.2-0.3l61.7,1.7
	c3-1,5-4.2,5-7.6L307.2,358.9z M302.3,484.2l-61.7,1.7c-0.9,0.3-1.8,0.3-2.7,0.2l-103.8-2c-2.5-0.6-4.2-3-4.2-5.9V358.4
	c0-2.5,1.4-4.8,3.5-5.6c0.2-0.1,0.3-0.2,0.5-0.2l26.8-7.7l15.8-4.6l20.3-5.9c0.5-0.2,0.9-0.2,1.4-0.2c0.3,0,0.6,0,0.9,0.1L301,353
	c1.7,0.3,3.1,1.4,3.9,3.1c0.4,0.8,0.6,1.8,0.6,2.7l0.7,119.5C306.2,481.1,304.6,483.4,302.3,484.2z"/>
<path class="st7" d="M304.8,356.2c-0.1,0.1-0.2,0.1-0.2,0.1l-30,9.1l-9.3,2.9l-26.6,8.1c-0.1,0-0.2,0-0.2,0c-0.1,0-0.1,0-0.2,0
	l-107-21.9l-0.4-0.1c-0.5-0.1-0.8-0.6-0.7-1.2c0.1-0.5,0.5-0.9,1.1-0.8l2.2,0.4l105.1,21.4l22.9-6.9l12.8-3.9l29.5-8.9l0.5-0.2
	c0.5-0.1,0.8,0.1,1.1,0.5c0,0.1,0.1,0.1,0.1,0.2C305.3,355.5,305.2,356,304.8,356.2z"/>
<path class="st7" d="M239.4,485c-0.5,0-0.9-0.4-0.9,2.4l-0.8-108.6c0-4,0.4-4.4,0.9-4.4l0,0c0.5,0,0.9,0.4,0.9,4.4l0.9,108.7
	C240.3,484.5,239.9,485,239.4,485L239.4,485z"/>
<path class="st8" d="M274.9,486.2l-9.6,0.1l-3.9-119L160.9,345c-0.1,0-0.2-0.1-0.3-0.1c-0.8-0.3-1.4-0.8-1.9-1.5l13.7-4l4.1,0.9
	l95.3,21.2c1.1,0.3,1.9,0.9,2.4,1.9C274.4,364.1,274.9,485.6,274.9,486.2z"/>
<path class="st1" d="M394.8,91.8c-0.6-2.4-2.8-3.9-5.2-3.7l-69.2,6.6c-0.7,0.1-1.3,0.3-1.9,0.6l-14.3,8.4l-8.2,4.9l-15.2,8.9
	c-1.9,1.1-2.8,3.5-2.2,5.7l15.6,57.2c0.6,2.3,2.7,3.9,5,3.8l71.5-3.3c0.3,0,0.7-0.1,1-0.2c0.5-0.1,0.9-0.3,1.3-0.6l36.4-24.2
	c1.8-1.2,2.5-3.4,1.9-5.6L394.8,91.8z"/>
<path class="st9" d="M320.8,99c-0.1,0-0.1,0-0.2,0l-37.8,22.3c-0.2,0.1-0.4,0.5-0.3,0.7l15.6,57.2c0.1,0.3,0.3,0.5,0.6,0.4l71.5-3.3
	c0.1,0,0.2-0.1,0.3-0.1l36.4-24.2c0.2-0.1,0.3-0.4,0.2-0.7l-16.5-58.5c-0.1-0.3-0.4-0.5-0.6-0.4L320.8,99
	C320.9,99,320.9,99,320.8,99z"/>
<path class="st3" d="M394.8,91.8c-0.6-2.4-2.8-3.9-5.2-3.7l-69.2,6.6c-0.7,0.1-1.3,0.3-1.9,0.6l-14.3,8.4l-8.2,4.9l-15.2,8.9
	c-1.9,1.1-2.8,3.5-2.2,5.7l15.6,57.2c0.6,2.3,2.7,3.9,5,3.8l71.5-3.3c0.3,0,0.7-0.1,1-0.2c0.5-0.1,0.9-0.3,1.3-0.6l36.4-24.2
	c1.8-1.2,2.5-3.4,1.9-5.6L394.8,91.8z M408.7,154.9l-36.4,24.2c-0.5,0.3-1.1,0.6-1.7,0.6l-71.4,3.2c-1.7,0-3.3-1.1-3.7-2.8
	l-15.6-57.2c-0.4-1.5,0.1-3.2,1.3-4c0.1-0.1,0.2-0.1,0.3-0.2l16.1-9.4l9.5-5.6l12.2-7.2c0.3-0.2,0.5-0.2,0.8-0.3
	c0.2,0,0.4-0.1,0.6-0.1l69.1-6.8c1.1-0.1,2.3,0.3,3,1.3c0.4,0.4,0.7,0.9,0.8,1.5l16.5,58.5C410.6,152.3,410,154,408.7,154.9
	L408.7,154.9z"/>
<path class="st3" d="M392.8,90.6c-0.1,0-0.1,0.1-0.1,0.1l-17.9,10.8l-5.6,3.4l-15.9,9.6c-0.1,0-0.1,0-0.2,0H353l-73,5.6h-0.3
	c-0.3,0-0.7-0.3-0.7-0.6c0-0.3,0.2-0.7,0.6-0.7l1.5-0.1l71.7-5.5l13.7-8.3l7.7-4.6l17.7-10.7l0.3-0.2c0.2-0.1,0.6-0.1,0.8,0.1v0.1
	C393.1,90,393,90.3,392.8,90.6z"/>
<path class="st3" d="M367.7,180.9c-0.4,0.1-0.8-0.1-0.9-0.5l-21.6-76.1c-0.1-0.4,0.1-0.8,0.5-0.9l0,0c0.4-0.1,0.8,0.1,0.9,0.5
	l21.6,76.1C368.3,180.3,368,180.7,367.7,180.9L367.7,180.9z"/>
<path class="st3" d="M392.5,166.5l-5.6,3.4l-20.5-64.8l-68.8,4.1c-0.1,0-0.2,0-0.2,0c-0.5,0-1.1-0.2-1.5-0.6l8.2-4.9l2.7-0.1
	l65.3-3.8c0.7,0,1.4,0.2,1.9,0.8C374.5,100.7,392.4,166.1,392.5,166.5z"/>
<path class="st2" d="M383,121.8c0.5,0.4,0.9,0.9,1.3,1.3l56.1-6.6l5.5-12.6l20.1,5.8l-7.5,23.2c-1.2,3.9-4.9,6.4-8.9,6.3l-64.3-1.8
	c-3.6,5.5-11,7.1-16.6,3.5c-5.5-3.6-7.1-11-3.5-16.6c3.6-5.5,11-7.1,16.6-3.5C382.2,121.2,382.6,121.5,383,121.8L383,121.8z"/>
<path class="st6" d="M439.1,113.7c-0.6-1.4-0.6-2.9,0-4.3L449.9,86c2.2-7.6,10.1-11.9,17.7-9.7c7.5,2.2,11.8,10.1,9.7,17.6
	l-3.6,25.6c-0.4,2.8-3,4.8-5.8,4.4c-0.2,0-0.5-0.1-0.7-0.2l-24.9-7.3C440.9,116.1,439.8,115.1,439.1,113.7z"/>
<path class="st10" d="M747.5,487H1.2c-0.7,0-1.2-0.5-1.2-1.2s0.5-1.2,1.2-1.2h746.3c0.7,0,1.2,0.5,1.2,1.2S748.1,487,747.5,487z"/>
<path class="st11" d="M317.1,156.2c-0.1,0-0.2,0-0.2,0.1l-21.3,0.7c-0.6,0-1-0.4-1-1c-0.1-0.6,0.4-1.1,1-1.1l21.3-0.7
	c0.6,0,1,0.4,1,1C317.8,155.6,317.5,156,317.1,156.2z"/>
<path class="st12" d="M184.1,379.5c-0.1,0-0.2,0-0.3,0L152,379c-0.8,0-1.5-0.7-1.5-1.5s0.7-1.5,1.5-1.5l31.8,0.5
	c0.8,0,1.5,0.7,1.5,1.5S184.8,379.4,184.1,379.5L184.1,379.5z"/>
<path class="st12" d="M195.1,396.5c-0.1,0-0.2,0-0.3,0L163,396c-0.8,0-1.5-0.7-1.5-1.5s0.7-1.5,1.5-1.5l31.8,0.5
	c0.8,0,1.5,0.7,1.5,1.5S195.8,396.4,195.1,396.5L195.1,396.5z"/>
<path class="st2" d="M555.6,231.2c4.6-1,7.4-5.3,6.2-9.5c-0.1-0.5-0.3-0.9-0.5-1.3l22.1-19.1l-15.3-3.4l-18.7,18.7
	c-4.2,2-5.8,6.8-3.6,10.7C547.7,230.5,551.8,232.1,555.6,231.2L555.6,231.2z"/>
<path class="st13" d="M567,215.8l-10.3-13.4l38.8-37l9-58.4c1.7-10.9,12.6-18.4,24.3-16.9c1.3,0.2,2.6,0.5,3.8,0.8l0,0
	c11.2,3.5,17.3,14.8,13.5,25.2l-23,62.9L567,215.8z"/>
<polygon class="st2" points="639.8,464.5 628.4,464.5 622.9,423.7 639.8,423.7 "/>
<path class="st6" d="M646,484.6h-8.1l-1.5-7.1l-3.7,7.1h-21.6c-2.7,0-4.8-2-4.8-4.5c0-1.5,0.8-2.8,2.1-3.7l17.2-11v-7.2l18.1,1
	L646,484.6z"/>
<polygon class="st2" points="710.6,453.8 700.5,458.8 674.6,425.4 689.4,417.9 "/>
<path class="st6" d="M726.4,468.7l-7.1,3.6l-4.9-5.6l0.4,7.9l-18.9,9.5c-2.4,1.2-5.3,0.4-6.6-1.8c-0.8-1.3-0.8-2.8-0.1-4.2l9.4-17.2
	l-3.7-6.3l16.4-7.1L726.4,468.7z"/>
<path class="st14" d="M644.7,450H621v-77.9l-14.7-50.8c-10.5-36.3-13.3-74.1-8.2-111.4v-0.2l0.1-0.1c0.4-0.3,37.9-28.9,61.6-7
	c16,14.8,1,67.9,0.1,70.8V365L644.7,450z"/>
<path class="st13" d="M644.6,82.8L644.6,82.8l-30.3,0.3L598.2,118c-14.9,21.4-0.7,33.6,0.3,35.5l-2.9,26.3l-1.8,16.9l-3,27.3
	l69.2-20.9l-7.7-28.5l8.9-41.1C665.3,115.2,659,96.1,644.6,82.8z"/>
<polygon class="st14" points="629.2,373.8 677.9,437 696.6,424.8 655.9,347.7 "/>
<ellipse class="st2" cx="626.6" cy="50.3" rx="27.9" ry="25.7"/>
<polygon class="st15" points="653.5,149.9 623,182.3 593.8,196.8 595.7,179.9 612.9,170.9 "/>
<path class="st6" d="M607,98.6L604.4,88c-1.7-7.2-0.3-14.7,4.1-20.8c4-5.8,4.3-13.2,0.6-19.3c-2.7-4.9-8.1-8-14-8.1h-0.7v-0.6
	c0-9.2,7.8-15.7,15-16.1c0.3-1.9,1.7-3.6,4.3-5c6.1-3.3,18-4,27,0.4c0.3-2.9,2.4-5.3,5.2-6.4c1.5-0.5,3.1-0.6,4.6-0.2
	c0.1-2.3,1.2-4.5,2.9-6.2c2.5-2.2,6.4-3.1,10.9-2.3c6.1,1,12.1,4.6,16.9,10.1c4.3,4.9,7.2,10.6,10.1,16.2c2.8,5.5,5.7,11.1,10,15.9
	c4.6,5.2,10.4,8.6,16.2,9.6c6.8,1.1,13.7-1.5,16.9-6.2l0.6-0.9l0.6,1c3.6,6,2.1,14.4-3.5,19.8c-5,4.8-12.8,7.3-21,6.6
	c-6.9-0.6-13.8-3.3-20.7-8c-6.8-4.7-11-9.9-12.4-15.4c-0.4-1.7-0.7-3.4-0.9-5.2c-0.5-3.7-0.9-7.1-3.3-9.7c-2.2-2.3-5.6-3.3-8.6-4
	l-0.6-0.1c-0.2,2.1-1.4,4-3.3,5.2c-0.6,0.3-1.2,0.5-1.8,0.6c3.5,13,2.1,22.9-4.3,29.5c-10.7,11.2-31.2,8.9-32,8.8l-0.6-0.1v-0.5
	c-0.1-1.4-0.3-2.9-0.6-4.3c-2.9,6.5-12.8,23.8-14.1,25.6L607,98.6z"/>
<path class="st2" d="M518.1,212.8c4.7,0.4,8.9-2.8,9.3-7.1c0-0.5,0.1-0.9,0-1.4l27.7-11.3l-13.2-7.9L517.6,197
	c-4.7,0.6-7.9,4.7-7.2,9C511,209.7,514.2,212.5,518.1,212.8z"/>
<path class="st13" d="M534.5,201.8l-4.9-15.8l49.9-23.1l29.4-52.3c5.5-9.7,18.5-13.5,29-8.5c1.2,0.6,2.3,1.2,3.3,2l0,0
	c9.4,6.7,11,19.2,3.7,27.9l-44.2,52.4L534.5,201.8z"/>
<g>
	<path class="st2" d="M201.8,223.2c3.7,0.9,7.6-0.7,9.3-4.1c2.1-4,0.5-8.9-3.5-11l-17.9-19.2l-14.6,3.4l21.1,19.8
		c-0.1,0.4-0.3,0.8-0.4,1.3C194.7,217.8,197.4,222.1,201.8,223.2L201.8,223.2z"/>
	<path class="st16" d="M137.1,169.6l-21.9-65c-3.6-10.7,2.1-22.4,12.9-26l0,0c1.2-0.4,2.5-0.8,3.7-0.9C143,76.2,153.4,84,155,95.1
		l8.6,60.2l37.1,38.2l-9.8,13.9L137.1,169.6z"/>
	<polygon class="st2" points="121.4,421.8 137.6,421.8 132.3,463.8 121.4,463.8 	"/>
	<path class="st6" d="M117.7,458.5l17.3-1.1v7.4l16.5,11.3c1.2,0.9,2,2.4,2,3.8c0,2.5-2.1,4.6-4.7,4.6h-20.6l-3.6-7.3l-1.3,7.3h-7.7
		L117.7,458.5z"/>
	<polygon class="st2" points="74.1,415.8 88.3,423.5 63.6,458 53.9,452.8 	"/>
	<path class="st6" d="M53.2,446.4l15.7,7.3l-3.6,6.5l9,17.8c0.8,1.3,0.7,2.9,0,4.2c-1.2,2.3-4,3-6.2,1.9L50,474.3l0.4-8.1l-4.8,5.7
		l-6.8-3.7L53.2,446.4z"/>
	<path class="st8" d="M102,361.1v-94.4c-0.8-3-15.1-57.8,0.1-73c22.7-22.5,58.5,7,58.9,7.3l0.1,0.1v0.1c4.9,38.4,2.3,77.5-7.8,114.9
		l-14,52.4v80.3h-22.6L102,361.1z"/>
	<path class="st16" d="M100.7,122.6l8.5,42.4l-7.3,29.3l66,21.5l-2.8-28.1l-1.7-17.5l-2.7-27c1.1-2,14.6-14.6,0.4-36.6l-15.3-36.1
		l-29-0.3l0,0C103,83.9,97.1,103.6,100.7,122.6z"/>
	<polygon class="st8" points="104.8,342 66,421.5 83.8,434.1 130.3,369 	"/>
	<polygon class="st17" points="147.2,161 163.5,170.3 165.4,187.8 137.5,172.8 108.4,139.4 	"/>
	<path class="st2" d="M245,197.4c0.7-4.5-2.4-8.6-6.9-9.3l-23.3-12.3l-12.6,8.1l26.4,11.7c0,0.5,0,0.9,0,1.5
		c0.4,4.5,4.4,7.7,8.9,7.3C241.4,203.8,244.3,201.1,245,197.4z"/>
	<path class="st16" d="M158.9,174.7l-42.3-54c-6.9-9-5.3-21.7,3.6-28.8l0,0c1.1-0.8,2.1-1.5,3.2-2c10-5.2,22.5-1.3,27.6,8.7l28,54
		l47.6,23.9l-4.7,16.3L158.9,174.7z"/>
	<path class="st6" d="M152.9,62.8H95.2c-2.5,0-4.5-2-4.5-4.5V33.5c0-18.4,15-33.3,33.4-33.3c18.5,0,33.4,14.8,33.4,33.3v24.8
		C157.4,60.8,155.4,62.8,152.9,62.8z"/>
	<ellipse class="st5" cx="132.3" cy="38" rx="24.4" ry="24.4"/>
	<path class="st6" d="M165.4,36h-35.1l-0.4-5l-1.9,5h-5.4l-0.7-10l-3.6,10h-10.5v-0.5c0-14.4,11.7-26.2,26.3-26.2h4.9
		c14.5,0,26.3,11.7,26.3,26.2L165.4,36L165.4,36z"/>
</g>
<path class="st12" d="M211.1,413.4c-0.1,0-0.2,0-0.3,0l-31.8-0.5c-0.8,0-1.5-0.7-1.5-1.5s0.7-1.5,1.5-1.5l31.8,0.5
	c0.8,0,1.5,0.7,1.5,1.5S211.8,413.3,211.1,413.4L211.1,413.4z"/>
<path class="st12" d="M222.1,430.4c-0.1,0-0.2,0-0.3,0l-31.8-0.5c-0.8,0-1.5-0.7-1.5-1.5s0.7-1.5,1.5-1.5l31.8,0.5
	c0.8,0,1.5,0.7,1.5,1.5S222.8,430.3,222.1,430.4L222.1,430.4z"/>
<ellipse class="st9" cx="220.7" cy="401.4" rx="34.1" ry="33.7"/>
<path class="st1" d="M239.1,401.4h-16.4v-16.2c0-1.1-0.9-2-2-2h-0.1c-1.1,0-2,0.9-2,2v16.2h-16.4c-1.1,0-2,0.9-2,2l0,0
	c0,1.1,0.9,2,2,2h16.4v16.2c0,1.1,0.9,2,2,2h0.1c1.1,0,2-0.9,2-2v-16.2h16.4c1.1,0,2-0.9,2-2l0,0
	C241.1,402.3,240.2,401.4,239.1,401.4z"/>
<ellipse class="st18" cx="321" cy="28.3" rx="17.7" ry="17.5"/>
<ellipse class="st9" cx="320.5" cy="68.2" rx="17.7" ry="17.5"/>
<path class="st11" d="M323,162.6c-0.1,0-0.2,0-0.2,0.1l-21.3,0.7c-0.6,0-1-0.4-1-1c-0.1-0.6,0.4-1.1,1-1.1l21.3-0.7c0.6,0,1,0.4,1,1
	C323.7,162,323.4,162.5,323,162.6z"/>
</svg>
