<?xml version="1.0" encoding="utf-8"?>
<!-- Generator: Adobe Illustrator 24.1.1, SVG Export Plug-In . SVG Version: 6.00 Build 0)  -->
<svg version="1.1" id="fea1fc4e-769a-4b20-9f11-50e93fd8b410"
	 xmlns="http://www.w3.org/2000/svg" xmlns:xlink="http://www.w3.org/1999/xlink" x="0px" y="0px" viewBox="0 0 962.7 543.6"
	 style="enable-background:new 0 0 962.7 543.6;" xml:space="preserve">
<style type="text/css">
	.st0{fill:#FFB6B6;}
	.st1{fill:#E4E4E4;}
	.st2{fill:#2F2E41;}
	.st3{fill:#0D9488;}
	.st4{opacity:0.1;enable-background:new    ;}
	.st5{fill:#A0616A;}
	.st6{fill:#F0F0F0;}
	.st7{fill:#FFFFFF;}
	.st8{fill:#CACACA;}
	.st9{fill:#3F3D56;}
	.st10{fill:#0EA5E9;}
	.st11{fill:#14B8A6;}
	.st12{fill:#CCCCCC;}
	.st13{fill:#FFB7B7;}
</style>
<path class="st0" d="M821.4,345.1c3.3-0.8,5.3-4.1,4.5-7.4c-0.1-0.4-0.2-0.7-0.3-1l15.9-14.9l-11-2.6L817,333.7
	c-3,1.6-4.2,5.3-2.6,8.3C815.7,344.6,818.6,345.8,821.4,345.1L821.4,345.1z"/>
<path class="st1" d="M829.6,333.2l-7.4-10.5l27.9-28.8l6.5-45.4c1.2-8.4,9-14.3,17.5-13.1c0.9,0.1,1.9,0.4,2.8,0.7l0,0
	c8.1,2.7,12.4,11.5,9.7,19.6l-16.5,49L829.6,333.2z"/>
<polygon class="st0" points="881.9,526.6 873.7,526.6 869.7,494.9 881.9,494.9 "/>
<path class="st2" d="M886.3,542.3h-5.8l-1-5.5l-2.7,5.5h-15.5c-1.9,0-3.5-1.6-3.5-3.5c0-1.1,0.6-2.2,1.5-2.9l12.4-8.5v-5.6l13,0.8
	L886.3,542.3z"/>
<polygon class="st0" points="932.7,518.3 925.4,522.2 906.8,496.2 917.5,490.4 "/>
<path class="st2" d="M944,529.9l-5.1,2.8l-3.6-4.3l0.3,6.1l-13.6,7.4c-1.7,0.9-3.8,0.3-4.7-1.4c-0.5-1-0.6-2.2,0-3.2l6.8-13.4
	l-2.7-4.9l11.8-5.5L944,529.9z"/>
<path class="st3" d="M885.4,515.3h-17v-60.6l-10.5-39.5c-7.6-28.2-9.6-57.7-5.9-86.7v-0.1l0.1-0.1c0.3-0.2,27.2-22.5,44.3-5.5
	c11.5,11.5,0.7,52.8,0.1,55.1v71.2L885.4,515.3z"/>
<path class="st1" d="M885.3,229.7L885.3,229.7l-21.8,0.2L852,257.1c-10.7,16.6-0.5,26.1,0.3,27.6l-2,20.4l-1.3,13.2l-2.1,21.2
	l49.7-16.2l-5.5-22.1l6.4-32C900.2,254.9,895.7,240,885.3,229.7z"/>
<polygon class="st3" points="875.2,455.1 910.2,504.2 923.6,494.7 894.4,434.7 "/>
<polygon class="st4" points="891.7,281.9 869.8,307.1 848.8,318.4 850.2,305.2 862.5,298.2 "/>
<path class="st5" d="M151.2,274.3c-2.2,2.9-6.4,3.5-9.3,1.3c-0.3-0.2-0.6-0.5-0.9-0.8l-21.6,9.4l2.1-12l20.2-7.1
	c2.9-2.3,7.1-1.9,9.4,1C153,268.4,153.1,271.8,151.2,274.3L151.2,274.3z"/>
<path class="st3" d="M136.8,278l-50.1,22.3h-0.1L29.5,280c-8.8-4.6-12.5-15.3-8.4-24.4l0,0c4.3-9.5,15.4-13.6,24.9-9.4
	c0.7,0.3,1.3,0.6,2,1l42.5,25.6l41.2-5.3L136.8,278z"/>
<path class="st6" d="M157.8,131.1c-18.9-41.9-18.2-95,11.1-130.3c9.8,49,36.7,93,75.8,124.1c15.1,11.9,33.2,23.7,37.3,42.5
	c2.6,11.7-1.1,24.1-7.4,34.3s-15.1,18.6-23.8,26.9l-1,2.8C212.1,205.2,176.7,173,157.8,131.1z"/>
<path class="st7" d="M169.7,1.3c-6.8,37-1.7,76.5,14.7,110.4c3.6,7.3,7.8,14.5,13.5,20.4c5.6,5.7,12.6,9.8,20.3,11.9
	c7.1,2.1,14.7,3.4,21.2,7.2c6.9,4,11.1,10.7,12.8,18.4c2,9.4,0.6,19-1.2,28.3c-2,10.3-4.1,21-1.3,31.4c0.3,1.3-1.6,1.7-2,0.5
	c-4.9-18.1,4.7-35.9,3.3-54.1c-0.6-8.5-3.8-16.8-11.1-21.7c-6.4-4.3-14.1-5.7-21.4-7.7c-7.6-2.2-14.5-5.4-20.3-10.9
	c-6-5.6-10.5-12.6-14.2-19.8c-8.3-16.4-14-34-16.9-52.2c-3.4-20.7-3.2-41.9,0.6-62.6C168-0.6,170,0,169.7,1.3L169.7,1.3z"/>
<path class="st7" d="M178.5,101c-12.7,4.1-26.4-1.7-32.5-13.5c-0.6-1.2,1.2-2.1,1.8-1c5.6,11,18.5,16.4,30.2,12.5
	C179.3,98.6,179.8,100.6,178.5,101L178.5,101z"/>
<path class="st7" d="M214.5,143.4c6.1-11.7,7.6-25.2,4.2-37.9c-0.3-1.3,1.6-1.7,2-0.5c3.5,13.2,1.9,27.3-4.5,39.4
	C215.6,145.6,213.9,144.5,214.5,143.4L214.5,143.4z"/>
<path class="st7" d="M166.4,43.2c5.1-0.5,9.7-3.6,12-8.2c0.6-1.2,2.3-0.1,1.7,1.1c-2.6,5.1-7.6,8.5-13.3,9.1
	c-0.5,0.1-1.1-0.2-1.2-0.8C165.6,43.9,165.9,43.3,166.4,43.2z"/>
<path class="st6" d="M324.6,1.2c-0.4,0.7-0.7,1.5-1,2.2c-4.7,9.9-8.5,20.2-11.6,30.7c-0.2,0.8-0.5,1.6-0.7,2.5
	c-7,25.5-9.2,52-6.5,78.3c1.1,10.5,3,20.8,5.6,31c3.7,14,8.8,29,7.6,43c-0.1,1.5-0.3,2.9-0.6,4.4l-64,39.1c-0.2,0-0.4,0-0.6,0.1
	l-2.5,1.7c-0.2-0.5-0.3-1.1-0.5-1.6c-0.1-0.3-0.2-0.6-0.3-0.9c-0.1-0.2-0.1-0.4-0.2-0.6c0-0.1,0-0.1-0.1-0.2
	c-0.1-0.2-0.1-0.4-0.2-0.5c-1-3-1.9-6-2.8-9l0,0c-6.9-23.1-12-47-13.2-70.8c0-0.7-0.1-1.5-0.1-2.2c-0.5-10.8-0.1-21.6,1.1-32.3
	c0.7-5.9,1.7-11.7,3-17.4c3.4-14.9,9.1-29.1,16.8-42.2c15.5-26.1,39.3-47,68.3-54.6C323.1,1.6,323.8,1.4,324.6,1.2z"/>
<path class="st7" d="M324.9,2.1c-27.7,25.5-47.4,60-54.7,97c-1.6,8-2.5,16.2-1.5,24.4c1,7.9,4.1,15.4,9,21.7
	c4.5,6,9.7,11.6,12.6,18.5c3.1,7.3,2.4,15.2-0.9,22.4c-4,8.7-11,15.5-18,21.9c-7.8,7.1-16,14.3-20,24.3c-0.5,1.2-2.3,0.4-1.9-0.8
	c6.9-17.4,25.3-25.9,35.2-41.2c4.6-7.1,7.1-15.7,4.2-24c-2.5-7.3-7.9-13-12.5-19c-4.8-6.3-8.3-13.1-9.6-20.9
	c-1.4-8-0.8-16.3,0.6-24.3c3.2-18.1,9.3-35.6,18-51.9c9.8-18.6,22.7-35.4,38.2-49.6C324.7-0.4,325.9,1.2,324.9,2.1z"/>
<path class="st7" d="M271.9,87c-12.6-4.4-20.1-17.2-17.8-30.3c0.2-1.3,2.2-1,2,0.3c-2.2,12.2,4.9,24.2,16.6,28.2
	C274,85.5,273.1,87.4,271.9,87L271.9,87z"/>
<path class="st7" d="M275.1,142.5c11.9-5.6,21.3-15.5,26.2-27.7c0.5-1.2,2.3-0.4,1.9,0.8c-5.2,12.7-14.9,23-27.3,28.8
	C274.6,144.9,273.9,143,275.1,142.5L275.1,142.5z"/>
<path class="st7" d="M297.1,33.6c4.4,2.7,9.9,2.9,14.6,0.7c1.2-0.6,1.9,1.3,0.7,1.9c-5.2,2.4-11.2,2.2-16.1-0.7
	c-0.5-0.2-0.7-0.8-0.5-1.3C295.9,33.6,296.5,33.3,297.1,33.6L297.1,33.6z"/>
<path class="st6" d="M569.8,153.1c-18.9-41.9-18.2-95,11.2-130.3c9.8,49,36.7,93,75.8,124.1c15.1,11.9,33.2,23.7,37.3,42.5
	c2.6,11.7-1.1,24.1-7.4,34.3c-6.3,10.2-15.1,18.6-23.8,26.9l-1,2.8C624.1,227.2,588.7,195,569.8,153.1z"/>
<path class="st7" d="M581.7,23.3c-6.8,37-1.7,76.5,14.7,110.4c3.6,7.3,7.8,14.5,13.5,20.4c5.6,5.7,12.6,9.8,20.3,11.9
	c7.1,2.1,14.7,3.4,21.2,7.2c6.9,4,11.1,10.7,12.8,18.4c2,9.4,0.6,19-1.2,28.3c-2,10.3-4.1,21-1.3,31.4c0.3,1.3-1.6,1.7-2,0.5
	c-4.9-18.1,4.7-35.9,3.3-54.1c-0.6-8.5-3.8-16.8-11.1-21.7c-6.4-4.3-14.1-5.7-21.4-7.7c-7.6-2.2-14.5-5.4-20.3-10.9
	c-6-5.6-10.5-12.6-14.2-19.8c-8.3-16.4-14-34-16.9-52.2c-3.4-20.7-3.2-41.9,0.6-62.6C580,21.4,582,22,581.7,23.3L581.7,23.3z"/>
<path class="st7" d="M590.5,123c-12.7,4.1-26.4-1.7-32.5-13.5c-0.6-1.2,1.2-2.1,1.8-1c5.6,11,18.5,16.4,30.2,12.5
	C591.3,120.6,591.8,122.6,590.5,123L590.5,123z"/>
<path class="st7" d="M626.5,165.4c6.1-11.7,7.6-25.2,4.2-37.9c-0.3-1.3,1.6-1.7,2-0.5c3.5,13.2,1.9,27.3-4.5,39.4
	C627.6,167.6,625.9,166.5,626.5,165.4L626.5,165.4z"/>
<path class="st7" d="M578.4,65.2c5.1-0.5,9.7-3.6,12-8.2c0.6-1.2,2.3-0.1,1.7,1.1c-2.6,5.1-7.6,8.5-13.3,9.1
	c-0.5,0.1-1.1-0.2-1.2-0.8C577.6,65.9,577.9,65.3,578.4,65.2z"/>
<path class="st6" d="M736.6,23.2c-0.4,0.7-0.7,1.5-1,2.2c-4.7,9.9-8.5,20.2-11.6,30.7c-0.2,0.8-0.5,1.6-0.7,2.5
	c-7,25.5-9.2,52-6.5,78.3c1.1,10.5,3,20.8,5.6,31c3.7,14,8.8,29,7.6,43c-0.1,1.5-0.3,2.9-0.6,4.4l-64,39.1c-0.2,0-0.4,0-0.6,0.1
	l-2.5,1.7c-0.2-0.5-0.3-1.1-0.5-1.6c-0.1-0.3-0.2-0.6-0.3-0.9c-0.1-0.2-0.1-0.4-0.2-0.6c0-0.1,0-0.1-0.1-0.2
	c-0.1-0.2-0.1-0.4-0.2-0.5c-1-3-1.9-6-2.8-9l0,0c-6.9-23.1-12-47-13.2-70.8c0-0.7-0.1-1.5-0.1-2.2c-0.5-10.8-0.1-21.6,1.1-32.3
	c0.7-5.9,1.7-11.7,3-17.4c3.4-14.9,9.1-29.1,16.8-42.2c15.5-26.1,39.3-47,68.3-54.6C735.1,23.6,735.8,23.4,736.6,23.2z"/>
<path class="st7" d="M736.9,24.1c-27.7,25.5-47.4,60-54.7,97c-1.6,8-2.5,16.2-1.5,24.4c1,7.9,4.1,15.4,9,21.7
	c4.5,6,9.7,11.6,12.6,18.5c3.1,7.3,2.4,15.2-0.9,22.4c-4,8.7-11,15.5-18,21.9c-7.8,7.1-16,14.3-20,24.3c-0.5,1.2-2.3,0.4-1.9-0.8
	c6.9-17.4,25.3-25.9,35.2-41.2c4.6-7.1,7.1-15.7,4.2-24c-2.5-7.3-7.9-13-12.5-19c-4.8-6.3-8.3-13.1-9.6-20.9
	c-1.4-8-0.8-16.3,0.6-24.3c3.2-18.1,9.3-35.6,18-51.9c9.8-18.6,22.7-35.4,38.2-49.6C736.7,21.6,737.9,23.2,736.9,24.1z"/>
<path class="st7" d="M683.9,109c-12.6-4.4-20.1-17.2-17.8-30.3c0.2-1.3,2.2-1,2,0.3c-2.2,12.2,4.9,24.2,16.6,28.2
	C686,107.5,685.1,109.4,683.9,109L683.9,109z"/>
<path class="st7" d="M687.1,164.5c11.9-5.6,21.3-15.5,26.2-27.7c0.5-1.2,2.3-0.4,1.9,0.8c-5.2,12.7-14.9,23-27.3,28.8
	C686.6,166.9,685.9,165,687.1,164.5L687.1,164.5z"/>
<path class="st7" d="M709.1,55.6c4.4,2.7,9.9,2.9,14.6,0.7c1.2-0.6,1.9,1.3,0.7,1.9c-5.2,2.4-11.2,2.2-16.1-0.7
	c-0.5-0.2-0.7-0.8-0.5-1.3C707.9,55.6,708.5,55.3,709.1,55.6z"/>
<path class="st8" d="M186.8,428.3H674v-282c0-4.4-3.6-8-8-8H194.8c-4.4,0-8,3.6-8,8V428.3z"/>
<rect x="201.9" y="149.3" class="st7" width="457.1" height="259.5"/>
<path class="st9" d="M186.4,420.7v34.8c0,6.1,4.9,11,11,11l0,0h179.8v68.7h-2.4c-0.8,0-1.4,0.6-1.4,1.4l0,0v4.8
	c0,0.8,0.6,1.4,1.4,1.4l0,0h111.6c0.8,0,1.4-0.6,1.4-1.4l0,0v-4.8c0-0.8-0.6-1.4-1.4-1.4l0,0H484v-68.7h179.8c6.1,0,11-4.9,11-11
	l0,0v-34.8H186.4z"/>
<path class="st10" d="M344,277.7H232.6c-1.6,0-2.9-1.3-2.9-2.9v-45.2c0-1.6,1.3-2.9,2.9-2.9H344c1.6,0,2.9,1.3,2.9,2.9v45.2
	C346.9,276.4,345.6,277.7,344,277.7z"/>
<path class="st1" d="M333.4,299.4h-90.2c-1.9,0-3.5-1.6-3.5-3.5s1.6-3.5,3.5-3.5h90.2C337.9,292.3,338,299.4,333.4,299.4z"/>
<path class="st1" d="M333.4,315.5h-90.2c-1.9,0-3.5-1.6-3.5-3.5s1.6-3.5,3.5-3.5h90.2C337.9,308.4,338,315.5,333.4,315.5z"/>
<path class="st1" d="M333.4,331.6h-90.2c-1.9,0-3.5-1.6-3.5-3.5s1.6-3.5,3.5-3.5h90.2C337.9,324.5,338,331.6,333.4,331.6z"/>
<path class="st10" d="M486.1,277.7H374.7c-1.6,0-2.9-1.3-2.9-2.9v-45.2c0-1.6,1.3-2.9,2.9-2.9h111.4c1.6,0,2.9,1.3,2.9,2.9v45.2
	C489,276.4,487.7,277.7,486.1,277.7z"/>
<path class="st1" d="M475.5,299.4h-90.2c-1.9,0-3.5-1.6-3.5-3.5s1.6-3.5,3.5-3.5h90.2C480,292.3,480.1,299.4,475.5,299.4z"/>
<path class="st1" d="M475.5,315.5h-90.2c-1.9,0-3.5-1.6-3.5-3.5s1.6-3.5,3.5-3.5h90.2C480,308.4,480.1,315.5,475.5,315.5z"/>
<path class="st1" d="M475.5,331.6h-90.2c-1.9,0-3.5-1.6-3.5-3.5s1.6-3.5,3.5-3.5h90.2C480,324.5,480.1,331.6,475.5,331.6z"/>
<path class="st10" d="M628.2,277.7H516.8c-1.6,0-2.9-1.3-2.9-2.9v-45.2c0-1.6,1.3-2.9,2.9-2.9h111.4c1.6,0,2.9,1.3,2.9,2.9v45.2
	C631.1,276.4,629.8,277.7,628.2,277.7z"/>
<path class="st1" d="M617.6,299.4h-90.2c-1.9,0-3.5-1.6-3.5-3.5s1.6-3.5,3.5-3.5h90.2C622.1,292.3,622.2,299.4,617.6,299.4z"/>
<path class="st1" d="M617.6,315.5h-90.2c-1.9,0-3.5-1.6-3.5-3.5s1.6-3.5,3.5-3.5h90.2C622.1,308.4,622.2,315.5,617.6,315.5z"/>
<path class="st1" d="M617.6,331.6h-90.2c-1.9,0-3.5-1.6-3.5-3.5s1.6-3.5,3.5-3.5h90.2C622.1,324.5,622.2,331.6,617.6,331.6z"/>
<path class="st9" d="M818.5,227.2l0.3,56.6l1.2-0.1l1.2,21l-2.3,0.1l0.1,12.6h1.8l0.4,21h-2.1l1,184.9c0,10.1-8.1,18.3-18.2,18.4
	l-204.2,1.1c-10.1,0-18.3-8.1-18.4-18.2l-1.6-296.1c0-10.1,8.1-18.3,18.2-18.4l204.2-1.1C810.2,209,818.5,217.2,818.5,227.2z"/>
<path class="st7" d="M802.3,530.1l-204.9,1.1c-3.1,0-5.6-2.5-5.7-5.6l-1.6-298.1c0-3.1,2.5-5.6,5.6-5.7l204.9-1.1
	c3.1,0,5.6,2.5,5.7,5.6l1.6,298.1C807.9,527.5,805.4,530,802.3,530.1z"/>
<circle class="st7" cx="697.3" cy="215.2" r="1.6"/>
<path class="st11" d="M758.3,304.6H639.7c-1.7,0-3.1-1.4-3.1-3.1v-48.1c0-1.7,1.4-3.1,3.1-3.1h118.6c1.7,0,3.1,1.4,3.1,3.1v48.1
	C761.4,303.2,760,304.6,758.3,304.6z"/>
<path class="st1" d="M747,327.7h-96c-2.1,0-3.7-1.7-3.7-3.7s1.7-3.7,3.7-3.7h96C751.8,320.2,751.9,327.8,747,327.7z"/>
<path class="st1" d="M747,344.9h-96c-2.1,0-3.7-1.7-3.7-3.7c0-2.1,1.7-3.7,3.7-3.7h96C751.8,337.3,751.9,344.9,747,344.9z"/>
<path class="st1" d="M747,362h-96c-2.1,0-3.7-1.7-3.7-3.7c0-2.1,1.7-3.7,3.7-3.7h96C751.8,354.4,751.9,362.1,747,362z"/>
<path class="st11" d="M758.3,444.3H639.7c-1.7,0-3.1-1.4-3.1-3.1V393c0-1.7,1.4-3.1,3.1-3.1h118.6c1.7,0,3.1,1.4,3.1,3.1v48.1
	C761.4,442.9,760,444.3,758.3,444.3z"/>
<path class="st1" d="M747,467.3h-96c-2.1,0-3.7-1.7-3.7-3.7c0-2.1,1.7-3.7,3.7-3.7h96C751.8,459.8,751.9,467.4,747,467.3z"/>
<path class="st1" d="M747,484.5h-96c-2.1,0-3.7-1.7-3.7-3.7c0-2.1,1.7-3.7,3.7-3.7h96C751.8,476.9,751.9,484.6,747,484.5z"/>
<path class="st1" d="M747,501.6h-96c-2.1,0-3.7-1.7-3.7-3.7c0-2.1,1.7-3.7,3.7-3.7h96C751.8,494.1,751.9,501.7,747,501.6z"/>
<path class="st9" d="M231.3,528.3L230.9,365h1.5l-0.1-30h-1.5l-0.1-50.1c0-7.9-6.4-14.2-14.3-14.2l0,0L110.3,271
	c-7.9,0-14.2,6.4-14.2,14.3l0,0l0.1,34.9l-2.4,0.1l0.5,21h1.9v4.6l-2,0.1l0.5,21h1.5l0.4,161.8c0,7.9,6.4,14.2,14.2,14.2
	c0,0,0,0,0.1,0l106.1-0.3C225,542.5,231.3,536.1,231.3,528.3z"/>
<path class="st7" d="M107.8,536.3c-2.7-1-4.5-3.5-4.5-6.4l-0.6-246c0-3.8,3-6.8,6.8-6.8L132,277l-0.3,0.7c-1.6,4,0.3,8.6,4.3,10.3
	c0.9,0.4,2,0.6,3,0.6l50.1-0.1c2.5-0.2,4.8-1.6,6.1-3.8c1.3-2.1,1.5-4.8,0.5-7.1l-0.3-0.7l23.3-0.1c3.8,0,6.8,3,6.8,6.8l0.6,234.7
	c0,10-8.1,18.1-18.1,18.2l-98.1,0.2C109.3,536.7,108.5,536.6,107.8,536.3z"/>
<circle class="st7" cx="146.4" cy="281.3" r="1.6"/>
<path class="st11" d="M206.4,358.4h-80.6c-1.2,0-2.1-0.9-2.1-2.1v-32.7c0-1.2,0.9-2.1,2.1-2.1h80.6c1.2,0,2.1,0.9,2.1,2.1v32.7
	C208.6,357.5,207.6,358.4,206.4,358.4z"/>
<path class="st1" d="M198.8,374.1h-65.2c-1.4,0-2.5-1.1-2.5-2.5s1.1-2.5,2.5-2.5h65.2C202,369,202.1,374.2,198.8,374.1z"/>
<path class="st1" d="M198.8,385.8h-65.2c-1.4,0-2.5-1.1-2.6-2.5s1.1-2.5,2.5-2.6l0,0h65.2C202,380.6,202.1,385.8,198.8,385.8z"/>
<path class="st1" d="M198.8,397.4h-65.2c-1.4,0-2.5-1.1-2.5-2.5s1.1-2.5,2.5-2.5h65.2C202,392.3,202.1,397.5,198.8,397.4z"/>
<path class="st11" d="M206.4,456.4h-80.6c-1.2,0-2.1-0.9-2.1-2.1v-32.7c0-1.2,0.9-2.1,2.1-2.1h80.6c1.2,0,2.1,0.9,2.1,2.1v32.7
	C208.6,455.5,207.6,456.4,206.4,456.4z"/>
<path class="st1" d="M198.8,472.1h-65.2c-1.4,0-2.5-1.1-2.5-2.5s1.1-2.5,2.5-2.5h65.2C202,467,202.1,472.2,198.8,472.1z"/>
<path class="st1" d="M198.8,483.8h-65.2c-1.4,0-2.5-1.1-2.6-2.5s1.1-2.5,2.5-2.6l0,0h65.2C202,478.6,202.1,483.8,198.8,483.8z"/>
<path class="st1" d="M198.8,495.4h-65.2c-1.4,0-2.5-1.1-2.5-2.5s1.1-2.5,2.5-2.5h65.2C202,490.3,202.1,495.5,198.8,495.4z"/>
<polygon class="st5" points="26.3,533.9 35,533.9 39.2,500.1 26.3,500.1 "/>
<path class="st2" d="M24,531h2.5l9.6-3.9l5.2,3.9l0,0c6.1,0,11,4.9,11,11v0.4H24.1L24,531z"/>
<polygon class="st5" points="60.2,528.4 68.8,530.3 80.3,498.3 67.7,495.4 "/>
<path class="st2" d="M58.7,525.1l2.4,0.5l10.2-1.7l4.2,5l0,0c5.9,1.3,9.6,7.2,8.3,13.1l-0.1,0.3l-27.5-6.2L58.7,525.1z"/>
<path class="st2" d="M15.2,327.4c-4.1,12.4-3.7,25.8,1,40.3l2,81.2c0,0-3,53.3,6.6,72h13.9l6.9-76.9l0.9-51.6l29.8,43.5l-19,83.7
	l17.1,1.5l30.8-90.8l-38-88.1L15.2,327.4z"/>
<path class="st3" d="M69.6,344.8l-50.5-8.1c-5.1-1.6-7.9-7-6.2-12.1c0.2-0.5,0.3-0.9,0.6-1.4l2.3-4.6l-0.9-48.1
	c-0.2-12.7,6.4-24.6,17.3-31.2l4.9-2.9l2.5-6.3l22.9,0.6l0.1,8.3l8.2,13.1v0.1l-0.5,71.3l-2.3,7.4l3.4,8.6L69.6,344.8z"/>
<circle class="st5" cx="53.1" cy="201.4" r="20.8"/>
<path class="st2" d="M31.4,205.9c-0.6-2.6-0.3-6.3,0-8.9c0.9-7,4.8-13.4,10.6-17.4c1.1-0.8,2.4-1.4,3.8-1.5c1.4-0.1,2.7,0.7,3.3,2
	c0.7-1.8,2.1-3.1,3.9-3.8c1.7-0.7,3.6-0.9,5.5-0.7c7.4,0.6,13.8,5.2,16.8,12c0.6,1.3,2.1-3.6,2.8-2.3c0.6,1.3,1.8,2.3,3.2,2.8
	c1.4,0.4,1.9,6.1,2.5,4.8c1.4,3.2-0.1,6.9-3.3,8.3c-0.9,0.4-1.8,0.5-2.7,0.5c-1.4-0.2-2.8-0.4-4.1-0.8c-5.2-0.7-10,2.7-11.3,7.7
	c-0.4-1.4-1-2.8-1.8-4s-2.2-2-3.7-2c-1.4,0.2-2.7,0.9-3.6,2.1c-0.9,1.1-1.6,2.3-2.5,3.4c-2.7,3.1-6.4,10.5-10.2,9.9
	C37.2,217.4,32.2,209.5,31.4,205.9z"/>
<path class="st5" d="M130.8,329.6c-3.4,1.5-7.3-0.1-8.7-3.4c-0.2-0.4-0.3-0.7-0.4-1.1l-23.4-2.4l7.7-9.5l21,3.7
	c3.6-0.6,7.1,1.8,7.7,5.5C135.3,325.4,133.6,328.4,130.8,329.6L130.8,329.6z"/>
<path class="st3" d="M116.4,325.8l-54.6-5l-0.1-0.1L21.8,275c-5.4-8.3-3.4-19.5,4.6-25.4l0,0c8.4-6.2,20.1-4.4,26.3,4
	c0.4,0.6,0.8,1.2,1.2,1.8l24.5,43.1l38.5,15.5L116.4,325.8z"/>
<path class="st12" d="M961.5,543.6H1.2c-0.7,0-1.2-0.5-1.2-1.2s0.5-1.2,1.2-1.2h960.3c0.7,0,1.2,0.5,1.2,1.2
	S962.1,543.6,961.5,543.6z"/>
<path class="st0" d="M794.5,330.8c3.4,0.3,6.4-2.1,6.7-5.5c0-0.4,0-0.7,0-1.1l19.9-8.8l-9.5-6.1l-17.5,9.3c-3.4,0.5-5.7,3.6-5.2,7
	C789.4,328.4,791.6,330.5,794.5,330.8z"/>
<path class="st1" d="M806.2,322.2l-3.5-12.3l35.8-18l21.1-40.7c3.9-7.6,13.3-10.5,20.8-6.6c0.8,0.4,1.6,0.9,2.4,1.5l0,0
	c6.7,5.3,7.9,14.9,2.7,21.7l-31.8,40.7L806.2,322.2z"/>
<path class="st2" d="M854.8,220.7V202c0-13.9,11.2-25.1,25.1-25.1c13.8,0,25.1,11.2,25.1,25.1v18.7c0,1.9-1.5,3.4-3.4,3.4h-43.4
	C856.3,224.1,854.8,222.6,854.8,220.7z"/>
<circle class="st13" cx="873.7" cy="205.4" r="18.4"/>
<path class="st2" d="M848.8,203.5c0-11,8.9-19.8,19.8-19.8h3.7c11,0,19.8,8.9,19.8,19.8v0.4h-7.9l-2.7-7.6l-0.5,7.6h-4.1l-1.4-3.8
	l-0.3,3.8h-26.4V203.5z"/>
<ellipse class="st10" cx="434.3" cy="54" rx="22.2" ry="21.9"/>
<ellipse class="st11" cx="433.8" cy="103.8" rx="22.2" ry="21.9"/>
</svg>
