<svg id="Warstwa_1" data-name="Warstwa 1" xmlns="http://www.w3.org/2000/svg" viewBox="0 0 1086.5 613.51"><defs><style>.cls-1{fill:#282524;}.cls-2{fill:#a0616a;}.cls-3{fill:#a5a19d;}.cls-4{fill:#f4f3f2;}.cls-5{fill:#fff;}.cls-6{fill:#d4d2d1;}.cls-7{fill:#e5e3e2;}.cls-8{fill:#565350;}.cls-9{fill:#1b1917;}.cls-10{fill:#f5b4b6;}.cls-11{fill:#f5b3b6;}</style></defs><path class="cls-1" d="M1001.77,610.13h-7.2l-1.24-6.83L990,610.13H970.73a4.39,4.39,0,0,1-4.34-4.34,4.7,4.7,0,0,1,1.86-3.6l15.4-10.56v-7l16.13,1Z" transform="translate(0.75 0.64)"/><path class="cls-2" d="M180.07,307.79a8.29,8.29,0,0,1-11.6-1.19,8,8,0,0,1-.85-1.23l-28.83,4.92,6.1-13.84,26.45-2.57a8.29,8.29,0,0,1,11,4,8.2,8.2,0,0,1-2.31,9.91Z" transform="translate(0.75 0.64)"/><path class="cls-3" d="M161.61,308l-67,12-.12,0L31.67,278.55a23.36,23.36,0,0,1-2.89-31.91h0a23.43,23.43,0,0,1,32.81-3.94,21.89,21.89,0,0,1,2.11,1.8L107.34,288l51.24,5.84Z" transform="translate(0.75 0.64)"/><path class="cls-4" d="M177.34,147.32C156,100,156.8,40.1,189.87.26a238.93,238.93,0,0,0,85.55,140.06c17,13.43,37.47,26.75,42.09,48,2.94,13.2-1.24,27.2-8.35,38.71s-17,21-26.86,30.36l-1.13,3.16C238.62,231,198.67,194.61,177.34,147.32Z" transform="translate(0.75 0.64)"/><path class="cls-5" d="M190.77.83c-7.67,41.76-1.92,86.34,16.59,124.6,4.07,8.23,8.81,16.36,15.24,23a50.89,50.89,0,0,0,22.91,13.43c8,2.37,16.59,3.84,23.93,8.13,7.78,4.51,12.52,12.07,14.44,20.76,2.26,10.61.68,21.45-1.35,31.94-2.26,11.63-4.63,23.7-1.47,35.44a1.17,1.17,0,0,1-2.26.56c-5.53-20.42,5.31-40.51,3.73-61-.68-9.6-4.29-19-12.53-24.49-7.22-4.86-15.91-6.44-24.15-8.69-8.58-2.49-16.37-6.1-22.91-12.31-6.77-6.32-11.85-14.22-16-22.34a200.07,200.07,0,0,1-19.07-58.92A206.45,206.45,0,0,1,188.51.26c.34-1.58,2.6-.9,2.26.57Z" transform="translate(0.75 0.64)"/><path class="cls-5" d="M200.7,113.35A30.71,30.71,0,0,1,164,98.11a1.17,1.17,0,0,1,2-1.12,28.36,28.36,0,0,0,34.08,14.1c1.47-.45,2,1.81.56,2.26Z" transform="translate(0.75 0.64)"/><path class="cls-5" d="M241.33,161.2a59.23,59.23,0,0,0,4.74-42.77,1.17,1.17,0,0,1,2.26-.57,61.53,61.53,0,0,1-5.08,44.47c-.68,1.36-2.59.11-1.92-1.13Z" transform="translate(0.75 0.64)"/><path class="cls-5" d="M187.05,48.12a17.09,17.09,0,0,0,13.54-9.26c.68-1.35,2.6-.11,1.92,1.24a19,19,0,0,1-15,10.27,1.14,1.14,0,0,1-1.36-.9A1.36,1.36,0,0,1,187.05,48.12Z" transform="translate(0.75 0.64)"/><path class="cls-4" d="M365.59.72a24.75,24.75,0,0,0-1.13,2.48,238,238,0,0,0-13.09,34.65c-.22.9-.56,1.8-.79,2.82A240.62,240.62,0,0,0,343.25,129a243.31,243.31,0,0,0,6.32,35c4.17,15.8,9.93,32.73,8.57,48.53a38.26,38.26,0,0,1-.67,5l-72.23,44.13a1.46,1.46,0,0,0-.68.11l-2.82,1.92c-.23-.57-.34-1.24-.57-1.81l-.34-1c-.11-.23-.11-.45-.22-.68s0-.11-.11-.23-.12-.45-.23-.56c-1.13-3.39-2.14-6.77-3.16-10.16h0c-7.79-26.07-13.54-53-14.9-79.9,0-.79-.11-1.69-.11-2.48a231.1,231.1,0,0,1,1.24-36.46,187.27,187.27,0,0,1,3.39-19.64,167.28,167.28,0,0,1,19-47.62c17.49-29.46,44.35-53,77.08-61.62C363.9,1.17,364.69.94,365.59.72Z" transform="translate(0.75 0.64)"/><path class="cls-5" d="M365.93,1.73c-31.26,28.78-53.5,67.72-61.73,109.48-1.81,9-2.83,18.28-1.7,27.53a50.14,50.14,0,0,0,10.16,24.49c5.08,6.78,10.95,13.1,14.22,20.88,3.5,8.24,2.71,17.16-1,25.28-4.52,9.82-12.42,17.5-20.32,24.72-8.8,8-18.06,16.14-22.57,27.42-.57,1.36-2.6.46-2.15-.9,7.79-19.64,28.56-29.23,39.73-46.5,5.19-8,8-17.72,4.74-27.08-2.82-8.24-8.91-14.67-14.11-21.45-5.41-7.11-9.36-14.78-10.83-23.58-1.58-9-.9-18.4.68-27.43A197.23,197.23,0,0,1,321.35,56,206.13,206.13,0,0,1,364.46,0,1.12,1.12,0,1,1,365.93,1.73Z" transform="translate(0.75 0.64)"/><path class="cls-5" d="M306.11,97.55A30.57,30.57,0,0,1,286,63.35a1.14,1.14,0,0,1,2.25.34A28.38,28.38,0,0,0,307,95.52c1.46.34.45,2.48-.91,2Z" transform="translate(0.75 0.64)"/><path class="cls-5" d="M309.73,160.19a58.89,58.89,0,0,0,29.57-31.27c.56-1.35,2.59-.45,2.14.91a61.52,61.52,0,0,1-30.81,32.5,1.16,1.16,0,0,1-.9-2.14Z" transform="translate(0.75 0.64)"/><path class="cls-5" d="M334.56,37.28a17.37,17.37,0,0,0,16.47.79c1.36-.68,2.15,1.47.79,2.15a19.53,19.53,0,0,1-18.17-.79,1.12,1.12,0,0,1-.56-1.47,1,1,0,0,1,1.47-.68Z" transform="translate(0.75 0.64)"/><path class="cls-4" d="M642.32,172.15C621,124.86,621.78,64.93,655,25.09a239,239,0,0,0,85.55,140.06c17,13.43,37.47,26.75,42.1,48,2.93,13.2-1.24,27.2-8.35,38.71s-17,21-26.86,30.36l-1.13,3.16C703.61,255.78,663.66,219.44,642.32,172.15Z" transform="translate(0.75 0.64)"/><path class="cls-5" d="M655.76,25.66c-7.68,41.76-1.92,86.34,16.59,124.59,4.06,8.24,8.8,16.37,15.23,23a50.89,50.89,0,0,0,22.91,13.43c8,2.37,16.59,3.84,23.93,8.12,7.79,4.52,12.53,12.08,14.44,20.77,2.26,10.61.68,21.44-1.35,31.94-2.26,11.62-4.63,23.7-1.47,35.44a1.16,1.16,0,0,1-2.25.56c-5.53-20.43,5.3-40.51,3.72-61.05-.68-9.6-4.29-19-12.53-24.5-7.22-4.85-15.91-6.43-24.15-8.69-8.58-2.48-16.36-6.09-22.91-12.3-6.77-6.32-11.85-14.22-16-22.34a200.36,200.36,0,0,1-19.07-58.92,206.21,206.21,0,0,1,.68-70.65c.34-1.58,2.59-.9,2.26.57Z" transform="translate(0.75 0.64)"/><path class="cls-5" d="M665.69,138.18A30.7,30.7,0,0,1,629,122.94a1.16,1.16,0,0,1,2-1.13,28.36,28.36,0,0,0,34.08,14.11c1.47-.45,2,1.81.57,2.26Z" transform="translate(0.75 0.64)"/><path class="cls-5" d="M706.32,186a59.33,59.33,0,0,0,4.74-42.77,1.16,1.16,0,0,1,2.25-.57,61.48,61.48,0,0,1-5.08,44.47c-.67,1.35-2.59.11-1.91-1.13Z" transform="translate(0.75 0.64)"/><path class="cls-5" d="M652,73a17.06,17.06,0,0,0,13.54-9.26c.68-1.35,2.6-.11,1.92,1.24a19,19,0,0,1-15,10.27,1.13,1.13,0,0,1-1.35-.9A1.36,1.36,0,0,1,652,73Z" transform="translate(0.75 0.64)"/><path class="cls-4" d="M830.58,25.54A22.82,22.82,0,0,0,829.45,28a236.93,236.93,0,0,0-13.1,34.65c-.22.9-.56,1.8-.79,2.82a240.6,240.6,0,0,0-7.33,88.37,243.31,243.31,0,0,0,6.32,35c4.17,15.8,9.93,32.73,8.58,48.53a38.28,38.28,0,0,1-.68,5l-72.23,44.13a1.48,1.48,0,0,0-.68.11l-2.82,1.92c-.23-.57-.34-1.24-.56-1.81-.12-.34-.23-.67-.34-1s-.12-.45-.23-.68,0-.11-.11-.23-.11-.45-.23-.56c-1.13-3.39-2.14-6.77-3.16-10.16h0c-7.78-26.07-13.54-53-14.89-79.9,0-.79-.12-1.7-.12-2.49a232.22,232.22,0,0,1,1.24-36.45,187.27,187.27,0,0,1,3.39-19.64,167.57,167.57,0,0,1,19-47.62c17.49-29.46,44.35-53,77.08-61.63C828.88,26,829.67,25.77,830.58,25.54Z" transform="translate(0.75 0.64)"/><path class="cls-5" d="M830.91,26.56C799.65,55.34,777.42,94.28,769.18,136c-1.81,9-2.82,18.29-1.69,27.54a50.13,50.13,0,0,0,10.15,24.49c5.08,6.77,11,13.09,14.22,20.88,3.5,8.24,2.71,17.16-1,25.28-4.52,9.82-12.42,17.5-20.32,24.72-8.8,8-18,16.14-22.57,27.42-.56,1.36-2.59.46-2.14-.9,7.78-19.64,28.55-29.23,39.72-46.5,5.2-8,8-17.72,4.74-27.08-2.82-8.24-8.91-14.68-14.1-21.45-5.42-7.11-9.37-14.78-10.84-23.58-1.58-9-.9-18.4.68-27.43a197.51,197.51,0,0,1,20.31-58.57,206,206,0,0,1,43.12-56C830.69,23.74,832,25.54,830.91,26.56Z" transform="translate(0.75 0.64)"/><path class="cls-5" d="M771.1,122.38A30.58,30.58,0,0,1,751,88.18a1.14,1.14,0,0,1,2.26.34A28.38,28.38,0,0,0,772,120.35c1.47.34.45,2.48-.9,2Z" transform="translate(0.75 0.64)"/><path class="cls-5" d="M774.71,185a58.89,58.89,0,0,0,29.57-31.27c.56-1.35,2.59-.45,2.14.91a61.52,61.52,0,0,1-30.81,32.5,1.16,1.16,0,0,1-.9-2.14Z" transform="translate(0.75 0.64)"/><path class="cls-5" d="M799.54,62.11A17.42,17.42,0,0,0,816,62.9c1.35-.68,2.14,1.47.79,2.15a19.56,19.56,0,0,1-18.17-.79,1.13,1.13,0,0,1-.57-1.47A1,1,0,0,1,799.54,62.11Z" transform="translate(0.75 0.64)"/><path class="cls-6" d="M210.07,482.74H759.92V164.48a9,9,0,0,0-9-9H219.1a9.05,9.05,0,0,0-9,9Z" transform="translate(0.75 0.64)"/><rect class="cls-5" x="227.86" y="168.5" width="515.88" height="292.87"/><path class="cls-7" d="M209.62,474.16v39.28A12.38,12.38,0,0,0,222,525.85H425v77.54h-2.71a1.53,1.53,0,0,0-1.58,1.58h0v5.42a1.54,1.54,0,0,0,1.58,1.58h126a1.55,1.55,0,0,0,1.58-1.58h0V605a1.55,1.55,0,0,0-1.58-1.58h-2.71V525.85H748.41a12.38,12.38,0,0,0,12.42-12.41h0V474.16Z" transform="translate(0.75 0.64)"/><path class="cls-6" d="M387.49,312.77H261.76c-1.81,0-3.27-3.07-3.27-6.86V199c0-3.78,1.47-6.86,3.27-6.86H387.49c1.8,0,3.27,3.08,3.27,6.86V305.91C390.76,309.7,389.29,312.77,387.49,312.77Z" transform="translate(0.75 0.64)"/><path class="cls-6" d="M375.52,337.26H273.72a3.95,3.95,0,0,1,0-7.9h101.8C380.6,329.25,380.72,337.26,375.52,337.26Z" transform="translate(0.75 0.64)"/><path class="cls-6" d="M375.52,355.43H273.72a3.95,3.95,0,0,1,0-7.9h101.8C380.6,347.42,380.72,355.43,375.52,355.43Z" transform="translate(0.75 0.64)"/><path class="cls-6" d="M375.52,373.6H273.72a4,4,0,0,1,0-7.9h101.8C380.6,365.59,380.72,373.6,375.52,373.6Z" transform="translate(0.75 0.64)"/><path class="cls-6" d="M535.9,337.26H434.1a3.95,3.95,0,0,1,0-7.9H535.9C541,329.25,541.09,337.26,535.9,337.26Z" transform="translate(0.75 0.64)"/><path class="cls-6" d="M535.9,355.43H434.1a3.95,3.95,0,0,1,0-7.9H535.9C541,347.42,541.09,355.43,535.9,355.43Z" transform="translate(0.75 0.64)"/><path class="cls-6" d="M535.9,373.6H434.1a4,4,0,0,1,0-7.9H535.9C541,365.59,541.09,373.6,535.9,373.6Z" transform="translate(0.75 0.64)"/><path class="cls-6" d="M696.27,337.26H594.47a3.95,3.95,0,0,1,0-7.9h101.8C701.35,329.25,701.46,337.26,696.27,337.26Z" transform="translate(0.75 0.64)"/><path class="cls-6" d="M696.27,355.43H594.47a3.95,3.95,0,0,1,0-7.9h101.8C701.35,347.42,701.46,355.43,696.27,355.43Z" transform="translate(0.75 0.64)"/><path class="cls-6" d="M696.27,373.6H594.47a3.95,3.95,0,1,1,0-7.9h101.8C701.35,365.59,701.46,373.6,696.27,373.6Z" transform="translate(0.75 0.64)"/><path class="cls-6" d="M260.29,595.6l-.45-184.3h1.7l-.12-33.86h-1.69l-.11-56.54a16,16,0,0,0-16.14-16h0l-119.75.34a16,16,0,0,0-16,16.14h0l.11,39.39-2.71.11.57,23.7h2.14v5.19l-2.26.12.57,23.7h1.69l.45,182.6a16,16,0,0,0,16,16h.11l119.74-.34A16.38,16.38,0,0,0,260.29,595.6Z" transform="translate(0.75 0.64)"/><path class="cls-5" d="M120.91,604.63a7.67,7.67,0,0,1-5.08-7.22l-.67-277.64a7.6,7.6,0,0,1,7.67-7.67l25.39-.12-.34.79a9,9,0,0,0,4.86,11.63,8.65,8.65,0,0,0,3.38.68l56.55-.12a8.89,8.89,0,0,0,7.45-12.3l-.34-.79,26.29-.11a7.61,7.61,0,0,1,7.68,7.67l.67,264.88A20.6,20.6,0,0,1,234,604.86l-110.72.22A6.23,6.23,0,0,1,120.91,604.63Z" transform="translate(0.75 0.64)"/><circle class="cls-5" cx="165.23" cy="317.48" r="1.81"/><path class="cls-6" d="M221.92,353.69H148.34a3,3,0,0,1-2.94-2.82,2.91,2.91,0,0,1,2.83-2.94h73.58C225.53,347.82,225.65,353.69,221.92,353.69Z" transform="translate(0.75 0.64)"/><path class="cls-6" d="M232.19,514.45h-91a2.31,2.31,0,0,1-2.37-2.37V378.74a2.31,2.31,0,0,1,2.37-2.37h91a2.31,2.31,0,0,1,2.37,2.37V512.08A2.25,2.25,0,0,1,232.19,514.45Z" transform="translate(0.75 0.64)"/><path class="cls-6" d="M223.61,532.17H150a2.82,2.82,0,0,1,0-5.64h73.58C227.23,526.42,227.34,532.29,223.61,532.17Z" transform="translate(0.75 0.64)"/><path class="cls-6" d="M223.61,545.38H150a3,3,0,0,1-2.94-2.82,2.9,2.9,0,0,1,2.83-2.94H223.5C227.23,539.51,227.34,545.38,223.61,545.38Z" transform="translate(0.75 0.64)"/><path class="cls-6" d="M223.61,558.47H150a2.82,2.82,0,1,1,0-5.64h73.58C227.23,552.71,227.34,558.58,223.61,558.47Z" transform="translate(0.75 0.64)"/><polygon class="cls-2" points="23.34 599.74 34.14 599.74 39.36 557.77 23.34 557.77 23.34 599.74"/><path class="cls-1" d="M19.74,595.49h3.1l11.92-4.84,6.45,4.84h0a13.61,13.61,0,0,1,13.66,13.66v.49h-35Z" transform="translate(0.75 0.64)"/><polygon class="cls-2" points="65.43 592.91 76.1 595.26 90.38 555.54 74.74 551.94 65.43 592.91"/><path class="cls-1" d="M62.81,588.17l3,.62,12.67-2.11,5.21,6.2h0A13.64,13.64,0,0,1,94,609.15l-.12.37-34.14-7.7Z" transform="translate(0.75 0.64)"/><path class="cls-8" d="M8.81,342.73c-5.09,15.39-4.59,32,1.24,50l2.48,100.81S8.81,559.74,20.73,583H38l8.57-95.47,1.12-64.05,37,54L61.08,581.34,82.3,583.2l38.24-112.72L73.37,361.1Z" transform="translate(0.75 0.64)"/><path class="cls-3" d="M76.35,364.33l-62.7-10.05a11.79,11.79,0,0,1-7.7-15,10.78,10.78,0,0,1,.75-1.73l2.86-5.71L8.44,272.09a44.51,44.51,0,0,1,21.47-38.73l6.09-3.6,3.1-7.82,28.43.74L67.66,233l10.18,16.26v.12l-.63,88.52-2.85,9.19,4.22,10.67Z" transform="translate(0.75 0.64)"/><circle class="cls-2" cx="55.86" cy="186.31" r="25.82" transform="translate(-133.18 229.46) rotate(-85.93)"/><path class="cls-9" d="M28.92,191.89c-.74-3.22-.37-7.82,0-11a31.25,31.25,0,0,1,13.16-21.6,9.26,9.26,0,0,1,4.72-1.86,4.21,4.21,0,0,1,4.1,2.48,8.18,8.18,0,0,1,4.84-4.71,14,14,0,0,1,6.83-.87,25,25,0,0,1,20.85,14.89c.75,1.62,2.61-4.46,3.48-2.85a6.91,6.91,0,0,0,4,3.48c1.74.49,2.36,7.57,3.1,5.95a7.84,7.84,0,0,1-4.09,10.31,8.15,8.15,0,0,1-3.35.62,34.46,34.46,0,0,1-5.09-1,12.8,12.8,0,0,0-14,9.56,17.84,17.84,0,0,0-2.24-5,5.58,5.58,0,0,0-4.59-2.48,6.66,6.66,0,0,0-4.47,2.6c-1.12,1.37-2,2.86-3.1,4.22-3.36,3.85-7.95,13-12.67,12.29C36.12,206.17,29.91,196.36,28.92,191.89Z" transform="translate(0.75 0.64)"/><path class="cls-2" d="M132,373.25a8.14,8.14,0,0,1-9.25-7,5.52,5.52,0,0,1-.11-1.45L95.51,354.07l12.4-8.76,23.85,11.49a8.28,8.28,0,0,1,7.35,9.16,8.1,8.1,0,0,1-7.08,7.29Z" transform="translate(0.75 0.64)"/><path class="cls-3" d="M116.1,363.87,52.54,339.52l-.09-.15-32.3-68a23.41,23.41,0,0,1,14-28.8h0a23.26,23.26,0,0,1,30.08,13.63l.83,2.55,14.78,59.75,40.79,31.47Z" transform="translate(0.75 0.64)"/><path class="cls-6" d="M1084.4,612.87H.6a1.31,1.31,0,0,1-1.35-1.36A1.3,1.3,0,0,1,.6,610.16H1084.4a1.3,1.3,0,0,1,1.35,1.35A1.38,1.38,0,0,1,1084.4,612.87Z" transform="translate(0.75 0.64)"/><path class="cls-9" d="M962.66,210.88V187.66a31.17,31.17,0,0,1,62.33,0v23.22a4.19,4.19,0,0,1-4.23,4.22H966.89A4.19,4.19,0,0,1,962.66,210.88Z" transform="translate(0.75 0.64)"/><circle class="cls-10" cx="986.88" cy="192.53" r="22.84"/><path class="cls-9" d="M955.22,189.52a24.55,24.55,0,0,1,24.58-24.58h4.59A24.55,24.55,0,0,1,1009,189.52v.5h-9.81l-3.35-9.43-.62,9.43H990.1l-1.74-4.72L988,190H955.22v-.5Z" transform="translate(0.75 0.64)"/><path class="cls-5" d="M322.57,202.89c58.72-3.61,72.92,83.71,13.91,98.5C265.58,315.54,251.55,207.57,322.57,202.89ZM341.29,247c9.85-22-26.3-35.36-33.26-12.18C300.78,255.77,333.6,267.57,341.29,247Zm-37.36,23.81c-24.14,17,7.41,26.69,23.7,26.52,18.3-2.63,41.31-11.72,15.81-28.34C331.69,260.75,314.76,261.78,303.93,270.77Z" transform="translate(0.75 0.64)"/><path class="cls-6" d="M544.64,312.77H418.92c-1.81,0-3.27-3.07-3.27-6.86V199c0-3.78,1.46-6.86,3.27-6.86H544.64c1.81,0,3.28,3.08,3.28,6.86V305.91C547.92,309.7,546.45,312.77,544.64,312.77Z" transform="translate(0.75 0.64)"/><path class="cls-5" d="M479.73,202.89c58.72-3.61,72.91,83.71,13.91,98.5C422.74,315.54,408.71,207.57,479.73,202.89ZM498.45,247c9.85-22-26.3-35.36-33.26-12.18C457.94,255.77,490.76,267.57,498.45,247Zm-37.36,23.81c-24.14,17,7.4,26.69,23.7,26.52,18.3-2.63,41.31-11.72,15.81-28.34C488.85,260.75,471.92,261.78,461.09,270.77Z" transform="translate(0.75 0.64)"/><path class="cls-6" d="M713.77,314H588c-1.81,0-3.27-3.07-3.27-6.86V200.2c0-3.78,1.46-6.86,3.27-6.86H713.77c1.8,0,3.27,3.08,3.27,6.86V307.14C717,310.93,715.57,314,713.77,314Z" transform="translate(0.75 0.64)"/><path class="cls-5" d="M648.85,204.12c58.72-3.61,72.92,83.71,13.91,98.5C591.86,316.77,577.83,208.8,648.85,204.12Zm18.72,44.07c9.85-22-26.3-35.36-33.26-12.18C627.06,257,659.88,268.8,667.57,248.19ZM630.21,272c-24.14,17,7.41,26.69,23.7,26.52,18.3-2.63,41.31-11.72,15.81-28.34C658,262,641,263,630.21,272Z" transform="translate(0.75 0.64)"/><path class="cls-11" d="M916.47,366.57a7.58,7.58,0,0,0,5.59-9.19c-.13-.49-.25-.87-.38-1.24l19.74-18.5-13.65-3.22-16.76,18a7.62,7.62,0,0,0-3.23,10.3,7.53,7.53,0,0,0,8.69,3.85Z" transform="translate(0.75 0.64)"/><path class="cls-4" d="M931.38,350.54l-9.19-13,34.64-35.76,8.07-56.36a19.2,19.2,0,0,1,21.72-16.26,17,17,0,0,1,3.48.87h0a19.18,19.18,0,0,1,12,24.33l-20.48,60.83Z" transform="translate(0.75 0.64)"/><polygon class="cls-11" points="997.06 591.28 986.88 591.28 981.91 551.93 997.06 551.93 997.06 591.28"/><polygon class="cls-11" points="1060.13 580.98 1051.06 585.82 1027.97 553.54 1041.26 546.34 1060.13 580.98"/><path class="cls-1" d="M1073.4,594.74l-6.33,3.47-4.47-5.33.37,7.57-16.88,9.18a4.28,4.28,0,0,1-5.83-1.73,4.11,4.11,0,0,1,0-4l8.44-16.63-3.35-6.08,14.65-6.83Z" transform="translate(0.75 0.64)"/><path class="cls-3" d="M1000.65,576.61h-21.1V501.38l-13-49a278.64,278.64,0,0,1-7.32-107.63v-.13l.12-.12c.38-.25,33.77-27.93,55-6.83,14.28,14.28.87,65.55.12,68.41v88.39Z" transform="translate(0.75 0.64)"/><path class="cls-4" d="M1000.53,222.05h0l-27.06.25-14.28,33.77c-13.29,20.61-.62,32.4.37,34.26l-2.48,25.33L955.46,332l-2.6,26.32,61.7-20.11-6.83-27.43,7.95-39.73A54.84,54.84,0,0,0,1000.53,222.05Z" transform="translate(0.75 0.64)"/><polygon class="cls-3" points="988.74 502.52 1032.19 563.47 1048.83 551.68 1012.58 477.19 988.74 502.52"/><polygon class="cls-6" points="999.1 274.48 983.86 303.05 957.26 323.16 958.97 307.08 953.16 306.4 974.8 292 999.1 274.48"/><path class="cls-6" d="M924.19,381.22,924.81,590a20.73,20.73,0,0,1-20.54,20.76L673.81,612a20.74,20.74,0,0,1-20.76-20.55l-1.81-334.17a20.74,20.74,0,0,1,20.54-20.77l230.46-1.24A20.74,20.74,0,0,1,923,255.78l.34,63.88,1.35-.12-.34,24.75Z" transform="translate(0.75 0.64)"/><path class="cls-5" d="M904.72,597.63l-231.25,1.24a6.48,6.48,0,0,1-6.43-6.32l-1.8-336.43a6.49,6.49,0,0,1,6.32-6.44l231.25-1.24a6.48,6.48,0,0,1,6.43,6.32L911,591.2A6.47,6.47,0,0,1,904.72,597.63Z" transform="translate(0.75 0.64)"/><circle class="cls-5" cx="786.97" cy="242.88" r="1.81"/><path class="cls-6" d="M855.07,500.8H721.49a3.51,3.51,0,0,1-3.49-3.5V442.9a3.51,3.51,0,0,1,3.49-3.5H855.07a3.51,3.51,0,0,1,3.49,3.5v54.29A3.53,3.53,0,0,1,855.07,500.8Z" transform="translate(0.75 0.64)"/><path class="cls-6" d="M842.31,526.76H734a4.18,4.18,0,0,1,0-8.36H842.31C847.73,518.29,847.84,526.87,842.31,526.76Z" transform="translate(0.75 0.64)"/><path class="cls-6" d="M842.31,546.17H734a4.18,4.18,0,1,1,0-8.35H842.31C847.73,537.59,847.84,546.28,842.31,546.17Z" transform="translate(0.75 0.64)"/><path class="cls-6" d="M842.31,565.47H734a4.18,4.18,0,1,1,0-8.35H842.31C847.73,557,847.84,565.58,842.31,565.47Z" transform="translate(0.75 0.64)"/><path class="cls-11" d="M866.63,316.77a7.57,7.57,0,0,0,9.91-4.19l.38-1.31,26.79-3.49-9.17-10.6-24.1,4.92a7.61,7.61,0,0,0-8.65,6.51A7.77,7.77,0,0,0,866.63,316.77Z" transform="translate(0.75 0.64)"/><path class="cls-4" d="M883.58,310.64l.16-15.87,49-8.85,39.42-41.05a19.17,19.17,0,0,1,27.09-.54,19.37,19.37,0,0,1,2.33,2.62h0a19.29,19.29,0,0,1-4.41,26.79L945,311Z" transform="translate(0.75 0.64)"/><ellipse class="cls-5" cx="185.57" cy="489.53" rx="9.39" ry="9.15"/><path class="cls-5" d="M183.81,393.39c-14.67.1-26.69,11.72-26.9,26v2.26a6.8,6.8,0,0,0,6.88,6.71h0a6.82,6.82,0,0,0,6.9-6.73h0v-1.43a13.07,13.07,0,0,1,26.13,0,12.64,12.64,0,0,1-6,10.72h0S181,437.1,178,445.54h0a18.17,18.17,0,0,0-.8,5.33c0,.74,0,7.22.12,12.49a7,7,0,0,0,7.11,6.81h0a7,7,0,0,0,7.1-6.93v0c0-4.81,0-10.42,0-10.84,0-5.17,5.12-10.34,9.35-13.71a27.32,27.32,0,0,0,9.73-15.12,16.35,16.35,0,0,0,.51-3.74c0-14.58-12.12-26.42-27.08-26.42A.58.58,0,0,1,183.81,393.39Z" transform="translate(0.75 0.64)"/><path class="cls-6" d="M855.07,484.08H721.49a3.25,3.25,0,0,1-3.49-2.91V288.31a3.26,3.26,0,0,1,3.49-2.91H855.07a3.26,3.26,0,0,1,3.49,2.91V481.17A3.25,3.25,0,0,1,855.07,484.08Z" transform="translate(0.75 0.64)"/><ellipse class="cls-5" cx="790.1" cy="461.8" rx="15.02" ry="14.64"/><path class="cls-5" d="M787.75,308.37c-23.48.15-42.72,18.74-43,41.63v3.63a10.87,10.87,0,0,0,11,10.73h0a10.91,10.91,0,0,0,11-10.76h0v-2.29a20.91,20.91,0,0,1,41.8,0,20.23,20.23,0,0,1-9.63,17.15h0s-15.68,9.84-20.48,23.34h0a29,29,0,0,0-1.27,8.53c0,1.17.06,11.55.19,20a11.21,11.21,0,0,0,11.37,10.88h0a11.22,11.22,0,0,0,11.36-11.07v-.07c0-7.7-.06-16.68-.06-17.35,0-8.27,8.2-16.55,15-21.93a43.86,43.86,0,0,0,15.58-24.19,26.48,26.48,0,0,0,.81-6c0-23.34-19.4-42.28-43.34-42.28A.7.7,0,0,1,787.75,308.37Z" transform="translate(0.75 0.64)"/></svg>