<svg id="Warstwa_1" data-name="Warstwa 1" xmlns="http://www.w3.org/2000/svg" viewBox="0 0 1086.5 525.43"><defs><style>.cls-1{fill:#e5e3e2;}.cls-2{fill:#cccbcb;}.cls-3{fill:#fff;}.cls-4{fill:#e6e5e5;}.cls-5{fill:#d4d2d1;}.cls-6{fill:#5481c1;}.cls-7{fill:#cac9c9;}.cls-8{fill:#a0616a;}.cls-9{fill:#282524;}.cls-10{fill:#565350;}.cls-11{fill:#f49d12;}.cls-12{fill:#f6bfc9;}.cls-13{fill:#f4f3f2;}.cls-14{fill:#f5b4b6;}.cls-15{fill:#a5a19d;}.cls-16{fill:#1b1917;}</style></defs><path class="cls-1" d="M109.74,609.06c0-.37,1.1-32.9-23.63-54.63l-1.45,1.62c24,21,22.92,52.7,22.92,52.92Z" transform="translate(0.75 -86.06)"/><path class="cls-1" d="M68.31,557.14c4.5,8.62,14.59,12,22.76,7.54s11.19-14.88,6.69-23.5h0c-4.49-8.62-26.58-26.8-34.68-22.35S63.9,548.49,68.31,557.14Z" transform="translate(0.75 -86.06)"/><path class="cls-1" d="M83.09,595.83c10.15,5.45,24.38,1.14,24.38,1.14s-2.32-13.24-12.56-18.67-24.38-1.14-24.38-1.14S72.93,590.38,83.09,595.83Z" transform="translate(0.75 -86.06)"/><path class="cls-1" d="M164.09,611.24c.2-.75,23.94-74-18-139.4l-4.31,2.67c40.63,63.34,17.65,134.34,17.44,135.09Z" transform="translate(0.75 -86.06)"/><path class="cls-1" d="M99.59,449.75a33.35,33.35,0,1,0,65.25-13.82h0c-3.76-18-36-62.79-54-59S95.82,431.76,99.59,449.75Z" transform="translate(0.75 -86.06)"/><path class="cls-1" d="M121.91,535.69c18,15.38,46.47,11.55,46.47,11.55s-.69-28.77-18.62-44.16-46.46-11.56-46.46-11.56S103.93,520.37,121.91,535.69Z" transform="translate(0.75 -86.06)"/><path class="cls-2" d="M1084.4,611.49H.6a1.31,1.31,0,0,1-1.35-1.36A1.3,1.3,0,0,1,.6,608.78H1084.4a1.3,1.3,0,0,1,1.35,1.35A1.38,1.38,0,0,1,1084.4,611.49Z" transform="translate(0.75 -86.06)"/><path class="cls-1" d="M252.48,376.14V256.37a6.45,6.45,0,1,1,12.9,0V376.14a6.45,6.45,0,1,1-12.9,0Z" transform="translate(0.75 -86.06)"/><path class="cls-1" d="M237,376.14V256.37a6.45,6.45,0,0,1,12.9,0V376.14a6.45,6.45,0,0,1-12.9,0Z" transform="translate(0.75 -86.06)"/><path class="cls-1" d="M221.61,376.14V256.37a6.45,6.45,0,1,1,12.9,0V376.14a6.45,6.45,0,1,1-12.9,0Z" transform="translate(0.75 -86.06)"/><path class="cls-1" d="M531.64,379.18v-63c0-1.84,2.85-3.4,6.45-3.4s6.45,1.56,6.45,3.4v63c0,1.84-2.86,3.41-6.45,3.41S531.64,381.12,531.64,379.18Z" transform="translate(0.75 -86.06)"/><path class="cls-1" d="M516.16,379.18v-63c0-1.84,2.86-3.4,6.45-3.4s6.45,1.56,6.45,3.4v63c0,1.84-2.86,3.41-6.45,3.41S516.16,381.12,516.16,379.18Z" transform="translate(0.75 -86.06)"/><path class="cls-1" d="M500.77,379.18v-63c0-1.84,2.86-3.4,6.45-3.4s6.45,1.56,6.45,3.4v63c0,1.84-2.85,3.41-6.45,3.41S500.77,381.12,500.77,379.18Z" transform="translate(0.75 -86.06)"/><path class="cls-1" d="M631.88,607.21H518.37a8.65,8.65,0,0,1-8.66-8.66V412.26a7.78,7.78,0,0,0-7.74-7.74H236.45a7.78,7.78,0,0,0-7.74,7.74V598.55a8.65,8.65,0,0,1-8.66,8.66h-3.87a8.65,8.65,0,0,1-8.66-8.66V402.21a20.75,20.75,0,0,1,20.73-20.72H619.81a20.76,20.76,0,0,1,20.73,20.72V598.55A8.65,8.65,0,0,1,631.88,607.21Z" transform="translate(0.75 -86.06)"/><rect class="cls-3" x="510.92" y="343.79" width="129.91" height="5.53"/><rect class="cls-3" x="510.92" y="418.42" width="129.91" height="5.53"/><path class="cls-4" d="M402.65,380.56,398.88,379l-2.58-18.71H362.21l-2.77,18.62-3.31,1.65a.85.85,0,0,0-.37,1.11.73.73,0,0,0,.74.46h45.88a.83.83,0,0,0,.83-.83A1,1,0,0,0,402.65,380.56Z" transform="translate(0.75 -86.06)"/><path class="cls-1" d="M463.28,362.78H295.78a3.3,3.3,0,0,1-3.32-3.31V335.88H466.59v23.59A3.29,3.29,0,0,1,463.28,362.78Z" transform="translate(0.75 -86.06)"/><path class="cls-5" d="M466.78,346.94H292.28V245.87a3.93,3.93,0,0,1,4-4H462.72a3.93,3.93,0,0,1,4,4V346.94Z" transform="translate(0.75 -86.06)"/><path class="cls-3" d="M456.37,339.66H302.69a3.06,3.06,0,0,1-3-3v-84.3a3.06,3.06,0,0,1,3-3H456.37a3.07,3.07,0,0,1,3,3v84.2A3.09,3.09,0,0,1,456.37,339.66Z" transform="translate(0.75 -86.06)"/><path class="cls-6" d="M401.82,351.36l-15.11,25.06a5.84,5.84,0,0,1-7.92,2c-.28-.18-.46-.27-.74-.46l-22.48-18.51a16.1,16.1,0,0,1,16.68-27.55l26.9,11.15a5.78,5.78,0,0,1,3.13,7.55,4.51,4.51,0,0,1-.46.74Z" transform="translate(0.75 -86.06)"/><rect class="cls-5" x="338.08" y="434.63" width="29.57" height="48.92"/><rect class="cls-5" x="395.58" y="530.54" width="6.73" height="85.68" transform="translate(-298.77 495.49) rotate(-55.84)"/><rect class="cls-5" x="262.43" y="569.98" width="85.68" height="6.73" transform="translate(-268.51 184.25) rotate(-34.16)"/><circle class="cls-7" cx="435.1" cy="511.38" r="9.31"/><circle class="cls-5" cx="352.36" cy="511.38" r="9.31"/><circle class="cls-5" cx="270.55" cy="511.38" r="9.31"/><rect class="cls-5" x="349.05" y="463.29" width="6.73" height="48.09"/><rect class="cls-5" x="346.47" y="391.61" width="12.62" height="64.95"/><path class="cls-5" d="M315.77,487.8V472.6a10.5,10.5,0,0,1,10.51-10.5h56.57a10.5,10.5,0,0,1,10.5,10.5v15.2a10.5,10.5,0,0,1-10.5,10.51H326.28A10.5,10.5,0,0,1,315.77,487.8Z" transform="translate(0.75 -86.06)"/><polygon class="cls-8" points="418.61 505.48 434.27 505.48 441.73 464.94 418.61 464.94 418.61 505.48"/><path class="cls-9" d="M413.89,606.75h50.4v-.65a19.58,19.58,0,0,0-19.62-19.62H413.89Z" transform="translate(0.75 -86.06)"/><path class="cls-10" d="M441.26,566.39l31.14-69.92a25.64,25.64,0,0,0-11.24-32.9l-67.63-36.2-30.86-2.58-28.47-2.58-.18.37c-.28.46-6.36,11.05-2.22,22.57,3.14,8.75,11.34,15.66,24.23,20.36,30.22,11.05,65.14,20.54,78.78,24.14a4.49,4.49,0,0,1,2.85,2.21,4.8,4.8,0,0,1,.28,3.59L409,560.5a5.77,5.77,0,0,0,3.41,7.37,7.7,7.7,0,0,0,1.47.37l21.65,1.56h.56A5.61,5.61,0,0,0,441.26,566.39Z" transform="translate(0.75 -86.06)"/><polygon class="cls-8" points="408.47 505.48 424.04 505.48 431.5 464.94 408.47 464.94 408.47 505.48"/><path class="cls-9" d="M403.67,606.75h50.39v-.65a19.58,19.58,0,0,0-19.62-19.62H403.67Z" transform="translate(0.75 -86.06)"/><path class="cls-10" d="M429.83,570.26,461,500.33a25.62,25.62,0,0,0-11.24-32.89l-67.62-36.2-30.87-2.58L329,426.72v-.27c-.28.46-6.36,11.05-2.21,22.57,3.13,8.75,4.88,15.66,17.87,20.36,30.22,11.05,65.14,20.54,78.77,24.14a4.54,4.54,0,0,1,2.86,2.21,4.89,4.89,0,0,1,.28,3.59l-28.93,65.05a5.77,5.77,0,0,0,3.41,7.37,7.7,7.7,0,0,0,1.47.37l21.65,1.56h.55A5.85,5.85,0,0,0,429.83,570.26Z" transform="translate(0.75 -86.06)"/><path class="cls-11" d="M403.94,366.19l-26,13.36a5.81,5.81,0,0,1-7.83-2.49c-.09-.27-.28-.55-.37-.83l-9.39-27.64a16.11,16.11,0,0,1,7-21.55c-11.52,5.89,12.53-10.88,21.65,7l17,23.68a5.78,5.78,0,0,1-1.38,8.1c-.09.09-.37.19-.65.37Z" transform="translate(0.75 -86.06)"/><path class="cls-1" d="M943,610l6,.1L913,418.23l-6,1.1,9.4,49.76H886.21l9.39-49.76-6-1.1L854,610.05l5.62-.1,18.7-99.41h45.88Zm-63.2-106.78,5.06-26.71h33l5.06,26.71Z" transform="translate(0.75 -86.06)"/><path class="cls-12" d="M779.79,262.07a10.17,10.17,0,0,1,11.52,8.56,11.47,11.47,0,0,1,.09,1.75l33.72,13-15.29,10.87-29.67-14A10.15,10.15,0,0,1,771,271.1a10.26,10.26,0,0,1,8.75-9Z" transform="translate(0.75 -86.06)"/><path class="cls-13" d="M907.76,255.71,913.48,266a29.82,29.82,0,0,1-10.14,16.77c-8.75,7.37-54.36,34.73-54.36,34.73L791.4,288.6l10-13.36,45.24,15.11h0a148,148,0,0,1,59.15-34.18Z" transform="translate(0.75 -86.06)"/><ellipse class="cls-1" cx="897.92" cy="326.45" rx="44.96" ry="14.65"/><polygon class="cls-14" points="797.04 511.45 785.15 508.14 792.15 460.5 809.75 465.39 797.04 511.45"/><path class="cls-9" d="M800.31,607.93l-39.88.53,0-.47a15.65,15.65,0,0,1,15.34-15.82h0l24.39-.32Z" transform="translate(0.75 -86.06)"/><polygon class="cls-14" points="762.49 511.64 751.16 506.57 764.98 460.5 781.74 467.88 762.49 511.64"/><path class="cls-9" d="M759.71,610l-36.48-16.12.18-.46a15.49,15.49,0,0,1,20.45-7.92h0l22.3,9.86Z" transform="translate(0.75 -86.06)"/><path class="cls-15" d="M932.09,376.77s6,18.61-30.87,42.1l-47.44,47.27L804.49,584.07l-20.83-11.61h0l36.49-121.62,26.35-46.06.73-25,6.45-17.6,47-16.67Z" transform="translate(0.75 -86.06)"/><path class="cls-15" d="M908.13,377.69s6,18.61-30.86,42.11l-47.45,47.26L772,580.22l-15.51-7.76h0l4.3-26.17,1.94-5.25,2.12-5.62,31.32-83.66L805,436.38a283.46,283.46,0,0,1,42-56l8.66-8.93.92-13.82,20.09-11.15Z" transform="translate(0.75 -86.06)"/><path class="cls-13" d="M879.76,286.57l14.74-31.32,25.7-3.5s20.09,25.61,14.84,61.54c-1.94,13.45-3.6,26.9-3.69,38.7,0,3.13,2.67,4.51,2.76,7.37s-5.15,7.28-3.68,9.21a16.56,16.56,0,0,1,3.68,9.21c-1.84,4.33-57.12-19.16-80.33-15.66Z" transform="translate(0.75 -86.06)"/><path class="cls-5" d="M757.23,335.77l69.44-37.39a8.47,8.47,0,0,0,4.29-6,8.27,8.27,0,0,0-2-7.16,203.08,203.08,0,0,1-44.44-83.1,8.54,8.54,0,0,0-12.29-5.44l-69.44,37.39a8.56,8.56,0,0,0-4,10.31,330.16,330.16,0,0,0,47.58,89.12A8.59,8.59,0,0,0,757.23,335.77Z" transform="translate(0.75 -86.06)"/><path class="cls-3" d="M704.5,242.5a2.63,2.63,0,0,1,1.29-3l69.44-37.39a2.24,2.24,0,0,1,2.14-.14,2.19,2.19,0,0,1,1.43,1.72,208.88,208.88,0,0,0,45.73,85.53,3.27,3.27,0,0,1,.57,2.29,2.27,2.27,0,0,1-1.29,1.72l-69.44,37.39a2.45,2.45,0,0,1-3.14-.71A325.75,325.75,0,0,1,704.5,242.5Z" transform="translate(0.75 -86.06)"/><path class="cls-5" d="M773.94,228.89c5-3.15.43-11.46-4.57-8.31L718.93,252c-5.14,3.15-.42,11.46,4.58,8.31l50.43-31.38Z" transform="translate(0.75 -86.06)"/><path class="cls-5" d="M783,246.37c5-3.15.43-11.46-4.58-8.31l-50.43,31.38c-5.15,3.15-.43,11.46,4.57,8.31L783,246.37Z" transform="translate(0.75 -86.06)"/><path class="cls-5" d="M785.09,258l-45.87,28.79c-4.57,2.87.43,8.74,5,5.88l45.87-28.8C794.52,261,789.81,255.11,785.09,258Z" transform="translate(0.75 -86.06)"/><path class="cls-5" d="M804.09,281.47c5-3.15.43-11.46-4.57-8.31l-50.44,31.38c-5.14,3.15-.43,11.46,4.58,8.31l50.43-31.38Z" transform="translate(0.75 -86.06)"/><path class="cls-14" d="M796.38,315.5a10.09,10.09,0,0,1,13.08,5.9,9.72,9.72,0,0,1,.46,1.75l35.75,5.25-12.53,14-32-7.18a10.22,10.22,0,0,1-4.79-19.72Z" transform="translate(0.75 -86.06)"/><path class="cls-13" d="M812.78,339.36l7.28-16.12,47.54,4.88,19.53-28.92,32.8-18.43,8.2,9.3v.19a30.27,30.27,0,0,1-6.27,18.89c-5,6.54-26,27.08-38.05,38.69a19,19,0,0,1-18,4.79Z" transform="translate(0.75 -86.06)"/><path class="cls-16" d="M880.29,238.39V215.18a31.17,31.17,0,0,1,62.33,0v23.21a4.19,4.19,0,0,1-4.23,4.22H884.51A4.19,4.19,0,0,1,880.29,238.39Z" transform="translate(0.75 -86.06)"/><circle class="cls-14" cx="904.51" cy="133.33" r="22.84"/><path class="cls-16" d="M872.85,217a24.55,24.55,0,0,1,24.58-24.58H902A24.55,24.55,0,0,1,926.6,217v.5h-9.81l-3.35-9.44-.62,9.44h-5.09L906,212.82l-.37,4.72H872.85V217Z" transform="translate(0.75 -86.06)"/><polygon class="cls-5" points="924.01 229.8 908.5 268.58 881.35 264.7 883.88 262.4 924.01 229.8 896.86 249.19 924.01 229.8"/><path class="cls-15" d="M403.68,432.86,341,422.81a11.78,11.78,0,0,1-7.7-15,10.81,10.81,0,0,1,.74-1.74l2.86-5.71-1.12-59.72a44.53,44.53,0,0,1,21.48-38.73l6.08-3.6,3.11-7.82,28.42.74.13,10.31,10.18,16.26v.13l-.62,88.51-2.86,9.19,4.22,10.67Z" transform="translate(0.75 -86.06)"/><circle class="cls-8" cx="383.2" cy="254.84" r="25.82" transform="translate(102.58 532.94) rotate(-85.93)"/><path class="cls-16" d="M356.26,260.43c-.75-3.23-.38-7.83,0-11.05a31.19,31.19,0,0,1,13.15-21.6,9.27,9.27,0,0,1,4.72-1.87,4.21,4.21,0,0,1,4.1,2.49,8.25,8.25,0,0,1,4.84-4.72,14,14,0,0,1,6.83-.87,25,25,0,0,1,20.86,14.9c.74,1.61,2.6-4.47,3.47-2.86a6.91,6.91,0,0,0,4,3.48c1.74.49,2.36,7.57,3.11,6a7.83,7.83,0,0,1-4.1,10.3,8,8,0,0,1-3.35.62,34.46,34.46,0,0,1-5.09-1,12.8,12.8,0,0,0-14,9.56,18.11,18.11,0,0,0-2.23-5,5.62,5.62,0,0,0-4.6-2.48,6.71,6.71,0,0,0-4.47,2.61c-1.11,1.36-2,2.85-3.1,4.22-3.35,3.85-7.95,13-12.66,12.29C363.46,274.7,357.25,264.89,356.26,260.43Z" transform="translate(0.75 -86.06)"/><path class="cls-5" d="M304.81,473.43V346.84a15.61,15.61,0,0,1,15.57-15.57h4.33a15.61,15.61,0,0,1,15.57,15.57V473.52a15.61,15.61,0,0,1-15.57,15.57h-4.33A15.68,15.68,0,0,1,304.81,473.43Z" transform="translate(0.75 -86.06)"/><path class="cls-8" d="M505.23,375.08a8.29,8.29,0,0,1-11.6-1.2,8,8,0,0,1-.84-1.23L464,377.57l6.09-13.84,26.46-2.56a8.27,8.27,0,0,1,8.72,13.91Z" transform="translate(0.75 -86.06)"/><path class="cls-8" d="M455.66,440.54a8.15,8.15,0,0,1-9.25-7,5.59,5.59,0,0,1-.11-1.45l-27.16-10.74,12.4-8.77,23.85,11.49a8.29,8.29,0,0,1,7.35,9.17,8.11,8.11,0,0,1-7.08,7.29Z" transform="translate(0.75 -86.06)"/><path class="cls-15" d="M488.94,376.51l-67,12-.12,0L359,347.08a23.36,23.36,0,0,1-2.88-31.91h0A23.85,23.85,0,0,1,391,313l43.63,43.47,51.24,5.84Z" transform="translate(0.75 -86.06)"/><path class="cls-15" d="M443.43,432.4l-63.56-24.35-.09-.15-32.3-68a23.42,23.42,0,0,1,14-28.8h0a23.28,23.28,0,0,1,30.09,13.63l.82,2.55L407.21,387,448,418.47Z" transform="translate(0.75 -86.06)"/><path class="cls-1" d="M980,610.81c-.06-.63-1.35-86.27,44.13-128.63l-3.15-2.8c-47,43.76-45.43,131.24-45.38,131.86" transform="translate(0.75 -86.06)"/><path class="cls-1" d="M1048.21,433.21c-14.42-5.92-49.51,23.43-56,36.78h0c-6.46,13.39,0,29.06,14.47,35s31.42,0,37.83-13.35S1062.63,439.19,1048.21,433.21Z" transform="translate(0.75 -86.06)"/><path class="cls-1" d="M1045.16,524.69s-23.56-6.8-41,2.79-22.12,32-22.12,32,23.57,6.8,41-2.79S1045.16,524.69,1045.16,524.69Z" transform="translate(0.75 -86.06)"/><ellipse class="cls-15" cx="602.48" cy="179" rx="17.6" ry="17.15"/><path class="cls-15" d="M599.85,86.1c-27.5.19-50,22-50.42,48.77v4.25a12.74,12.74,0,0,0,12.9,12.56h0a12.77,12.77,0,0,0,12.92-12.6h0V136.4c0-13.17,11-23.87,24.49-23.87s24.48,10.67,24.48,23.87a23.73,23.73,0,0,1-11.29,20.09h0S594.57,168,589,183.82h0a33.82,33.82,0,0,0-1.49,10c0,1.38.07,13.54.23,23.42A13.14,13.14,0,0,0,601,230h0a13.16,13.16,0,0,0,13.31-13v-.07c0-9-.08-19.54-.08-20.32,0-9.7,9.61-19.39,17.52-25.69A51.29,51.29,0,0,0,650,142.58a31.55,31.55,0,0,0,1-7c0-27.33-22.73-49.52-50.76-49.52A1,1,0,0,1,599.85,86.1Z" transform="translate(0.75 -86.06)"/><path class="cls-10" d="M566,145.75h0a12.73,12.73,0,0,1-12.89-12.56v-4.25A47.64,47.64,0,0,1,559,106.61a48.51,48.51,0,0,0-9.72,28.29v4.25a12.74,12.74,0,0,0,12.89,12.57h0a12.87,12.87,0,0,0,12.44-9.17A13,13,0,0,1,566,145.75Z" transform="translate(0.75 -86.06)"/><path class="cls-10" d="M600.73,112.61c13.5.63,23.95,11.82,23.3,25a23.74,23.74,0,0,1-2,8.35,23.45,23.45,0,0,0-2.76-33.63,24.92,24.92,0,0,0-34.5,2.68,23.65,23.65,0,0,0-3.83,6A24.58,24.58,0,0,1,600.73,112.61Z" transform="translate(0.75 -86.06)"/><path class="cls-10" d="M604.67,224.05h0a13.14,13.14,0,0,1-13.31-12.75c-.15-9.88-.23-22-.23-23.42a34.2,34.2,0,0,1,1.49-10h0a35.13,35.13,0,0,1,2.11-4.73,39.5,39.5,0,0,0-5.93,10.7h0a33.83,33.83,0,0,0-1.5,10c0,1.38.08,13.53.23,23.41A13.15,13.15,0,0,0,600.85,230h0a13.24,13.24,0,0,0,12.77-9.32A13.25,13.25,0,0,1,604.67,224.05Z" transform="translate(0.75 -86.06)"/><path class="cls-10" d="M597.86,278a17,17,0,0,1-9.1-22.55,18.27,18.27,0,0,1,2.56-4.1,16.87,16.87,0,0,0-3.82,24,17.85,17.85,0,0,0,27.77.82A18,18,0,0,1,597.86,278Z" transform="translate(0.75 -86.06)"/></svg>