<svg id="Warstwa_1" data-name="Warstwa 1" xmlns="http://www.w3.org/2000/svg" viewBox="0 0 1081.88 610.62"><defs><style>.cls-1{fill:#e3e2e2;}.cls-2{fill:#e5e3e2;}.cls-3{fill:#cccbcb;}.cls-4{fill:#f6bfc9;}.cls-5{fill:#fff;}.cls-6{fill:#565350;}.cls-7{fill:#545562;}.cls-10,.cls-8{opacity:0.1;}.cls-9{fill:#855b61;}.cls-10,.cls-12{isolation:isolate;}.cls-11{fill:#a5a19d;}.cls-12{opacity:0.05;}</style></defs><path class="cls-1" d="M979.48,545.26c-.05-.63-1.34-86.27,44.13-128.63l-3.15-2.8c-47,43.76-45.42,131.23-45.37,131.86" transform="translate(-1.56 -0.52)"/><path class="cls-1" d="M1047.7,367.66c-14.42-5.93-49.51,23.42-56,36.77h0c-6.46,13.4-.05,29.06,14.47,35s31.42,0,37.83-13.35S1062.11,373.64,1047.7,367.66Z" transform="translate(-1.56 -0.52)"/><path class="cls-1" d="M1044.65,459.13s-23.57-6.79-41,2.8S981.55,494,981.55,494s23.56,6.79,41-2.8S1044.65,459.13,1044.65,459.13Z" transform="translate(-1.56 -0.52)"/><path class="cls-1" d="M57,609c.14-.34,10.12-31.33-7.66-59l-1.85,1.16c17.24,26.81,7.53,57,7.46,57.18Z" transform="translate(-1.56 -0.52)"/><path class="cls-1" d="M36.72,554a14.08,14.08,0,1,0,27.56-5.82h0c-1.64-7.66-15.32-26.61-22.91-25S35.07,546.3,36.72,554Z" transform="translate(-1.56 -0.52)"/><path class="cls-1" d="M39.25,589.6c6.77,7.32,18.94,7.12,18.94,7.12s1.17-12.18-5.67-19.5-19-7.11-19-7.11S32.48,582.28,39.25,589.6Z" transform="translate(-1.56 -0.52)"/><path class="cls-2" d="M331.18,537.48h0A15.56,15.56,0,0,1,346.71,522H994.32a15.56,15.56,0,0,1,15.52,15.53h0A15.56,15.56,0,0,1,994.32,553H346.7A15.52,15.52,0,0,1,331.18,537.48Z" transform="translate(-1.56 -0.52)"/><path class="cls-1" d="M957.45,123.52,666,.88a10.61,10.61,0,0,0-5.48,0L372.9,123.52A10.91,10.91,0,0,0,375.64,145H954.71a10.91,10.91,0,0,0,2.74-21.48Zm-80.85,2.12H450a1.94,1.94,0,0,1-.48-3.83L662.78,27.9a2.22,2.22,0,0,1,1,0l213.34,93.91A2,2,0,0,1,876.6,125.64Z" transform="translate(-1.56 -0.52)"/><path class="cls-1" d="M931.18,165.18H394.31a12.79,12.79,0,0,0-12.72,12.72v312a12.7,12.7,0,0,0,12.72,12.73H931.18a12.71,12.71,0,0,0,12.73-12.73v-312A12.7,12.7,0,0,0,931.18,165.18Zm-9.32,306.93a11.18,11.18,0,0,1-11.29,11.06H414.92a11.17,11.17,0,0,1-11.28-11.06V195.67a11.17,11.17,0,0,1,11.28-11.06H910.57a11.18,11.18,0,0,1,11.29,11.06Z" transform="translate(-1.56 -0.52)"/><path class="cls-1" d="M222.63,580.16h0a15.55,15.55,0,0,1,15.52-15.52H1033.1a15.56,15.56,0,0,1,15.53,15.52h0a15.56,15.56,0,0,1-15.53,15.53h-795A15.55,15.55,0,0,1,222.63,580.16Z" transform="translate(-1.56 -0.52)"/><path class="cls-3" d="M1083.44,609.23h0a1.91,1.91,0,0,1-1.91,1.92H3.47a1.91,1.91,0,0,1-1.91-1.92h0a1.91,1.91,0,0,1,1.91-1.91H1081.53A1.87,1.87,0,0,1,1083.44,609.23Z" transform="translate(-1.56 -0.52)"/><path class="cls-4" d="M205.53,366l-3.38-5.18-15.75-35.3-1.48-37.27c1.6-8.35-2.87-14.49-9.75-13.88a18.05,18.05,0,0,0-2.39.42c-7.1,2.32-13.07,10.54-13.43,18.67l12.43,40.26,20.67,27.25,4.14,7a2.83,2.83,0,0,1-.4,1c-1.15,3.14.34,8.55,3.28,9.49,2.52.85,6,.15,7.46-2.26C208.8,373.47,208.2,367.63,205.53,366Z" transform="translate(-1.56 -0.52)"/><path class="cls-5" d="M115.65,516.69c-.75.2-1.16-1.1-.34-1.17,6.43-1.5,10.53-8.07,9.57-15.45-.2-.76,1-.76,1.1,0,1,7.79-3.35,14.77-10.33,16.62Z" transform="translate(-1.56 -0.52)"/><polygon class="cls-4" points="125.92 549.95 140.63 549.95 135.77 586.82 125.92 586.82 125.92 549.95"/><path class="cls-6" d="M124.06,582.63l15.73-1v6.56l15.05,10a4.06,4.06,0,0,1-2.46,7.46H133.64l-3.35-6.43-1.17,6.43h-7Z" transform="translate(-1.56 -0.52)"/><polygon class="cls-4" points="82.83 544.69 95.76 551.39 73.26 581.69 64.43 577.18 82.83 544.69"/><path class="cls-6" d="M65.38,572l14.29,6.43-3.35,5.68,8.14,15.66a3.46,3.46,0,0,1,0,3.63,4.31,4.31,0,0,1-5.68,1.71L62.3,596.58l.34-7.05-4.38,5.07L52,591.38Z" transform="translate(-1.56 -0.52)"/><path class="cls-6" d="M109.77,497.06l-1.92-57.6,1.58-35.22c-3.63-2.94-24.29-27.57.41-54.24,20.72-19.77,53.28,6.08,53.62,6.43l.14.13v.14a251.1,251.1,0,0,1-7,100.89l-12.79,46v70.59H123.17Z" transform="translate(-1.56 -0.52)"/><polygon class="cls-6" points="110.81 479.77 75.38 549.61 91.59 560.76 133.93 503.51 110.81 479.77"/><path class="cls-7" d="M166.54,226.88h-.68a1.83,1.83,0,0,1-1.71-1.92V209.85a1.79,1.79,0,0,1,1.71-1.92h.61a1.83,1.83,0,0,1,1.71,1.92V225A1.83,1.83,0,0,1,166.54,226.88Z" transform="translate(-1.56 -0.52)"/><g class="cls-8"><path d="M166.54,226.88h-.68a1.83,1.83,0,0,1-1.71-1.92V209.85a1.79,1.79,0,0,1,1.71-1.92h.61a1.83,1.83,0,0,1,1.71,1.92V225A1.83,1.83,0,0,1,166.54,226.88Z" transform="translate(-1.56 -0.52)"/></g><rect class="cls-9" x="126.13" y="217.32" width="42.07" height="49.66"/><rect class="cls-10" x="126.13" y="210.48" width="42.07" height="49.66"/><path class="cls-4" d="M168.25,259.16l-2.6,21L164.49,290l-.41,3.62-3.63,8.14-6.77,15.05-13.06,1.85-23-36.87s-12-26.2,6.23-23.8c10.33,1.37,12.65-9.1,12.86-18.54a69.74,69.74,0,0,0-1.17-14.16l18.27,10.06c-.41,2.26-.76,4.31-1,6.22-.89,7.73-.14,12.52,1.37,15.46C158.47,264.84,168.25,259.16,168.25,259.16Z" transform="translate(-1.56 -0.52)"/><path class="cls-10" d="M153.89,235.36c-.42,2.26-.76,4.31-1,6.22a18.73,18.73,0,0,1-5.82,1,19.71,19.71,0,0,1-10.39-3.08,69.74,69.74,0,0,0-1.17-14.16Z" transform="translate(-1.56 -0.52)"/><ellipse class="cls-4" cx="145.56" cy="217.26" rx="21.14" ry="24.15"/><path class="cls-11" d="M169.28,386.45l-74.7-5.06a2.43,2.43,0,0,1-2-3.55l14-25c.62-12.86,6.09-30.44,4-40.77a39.74,39.74,0,0,0-3-9.3l32.63.21h.34l2.67,7.31.13.35,2.06,5.33L152,301.5l2.32-4.51,1.3-2.6s19.5-5.34,19.84,8.34c0,1.64,0,3.22-.14,4.72-1,11.15-6.08,18.54-10.33,23.6C160,336.93,169.28,386.45,169.28,386.45Z" transform="translate(-1.56 -0.52)"/><path class="cls-10" d="M190.75,295.76c-.2.34-.54.41-1.09.41-5.27-.89-11.29,7.72-11.29,7.72l-.34.35a24.89,24.89,0,0,1-1.5-4.86l10.94-9.23Z" transform="translate(-1.56 -0.52)"/><path class="cls-10" d="M175.23,306.56c-2.47,1.51-5.82,2.67-8.49-.34-4.51-5.13-12.51-4.51-13-4.51.89-.14,1.5-2.06,2.12-4.59l1.16-2.25s18-4.72,18.26,7.52C175.29,303.69,175.29,305.13,175.23,306.56Z" transform="translate(-1.56 -0.52)"/><path class="cls-10" d="M165.65,280.16,164,293.7l-3.63,8.14a20.12,20.12,0,0,0-7-.75c2.6-.41,4.31-18.88,4.31-18.88h.13Z" transform="translate(-1.56 -0.52)"/><path class="cls-11" d="M189.66,295.48c-5.27-.89-11.29,7.73-11.29,7.73s-7,7.73-11.76,2.33c-4.52-5.13-12.52-4.52-13-4.52,2.6-.41,4.31-18.88,4.31-18.88h.14l25.1-6.36s1.51,2.6,3.22,5.88C189.38,287.75,193,296,189.66,295.48Z" transform="translate(-1.56 -0.52)"/><path class="cls-10" d="M183.37,283.58c.2.62-4.18,3.56-6.23,2.67s-7.32,3.83-7.8,4.51-12.24-.89-12.24-.89c.41-2.46.89-5.06,1.09-7.59l25.11-6.36s1.5,2.6,3.21,5.88C184.73,282.55,183.23,283.31,183.37,283.58Z" transform="translate(-1.56 -0.52)"/><path class="cls-10" d="M168.25,259.16l-2.6,21L164.49,290c-3.56-.34-7.73-.89-7.73-.89S161.14,268,153.89,257h.41C158.47,264.84,168.25,259.16,168.25,259.16Z" transform="translate(-1.56 -0.52)"/><path class="cls-11" d="M154.16,257s13.27-1.16,18.54,3,12.79,16.76,12.79,16.76l4.17,3s-6.57,2.67-6.23,3.35-4.17,3.56-6.22,2.67-7.32,3.83-7.8,4.51-12.24-.89-12.24-.89S161.48,268.05,154.16,257Z" transform="translate(-1.56 -0.52)"/><path class="cls-10" d="M145.47,309.16h0a16.86,16.86,0,0,1-7-.61c-4.72-1.17-6.57,1.16-9.1,2.32s-9.44,1.85-12,.62c-.61-.34-1.3-.62-1.91-1a35,35,0,0,0-2.81-8.28l30,.14,2.8,6.43Z" transform="translate(-1.56 -0.52)"/><path class="cls-12" d="M145.2,302.19s2.05,3.83,2.05,6.56c0,0,1.64-6.56,2.87-6.56" transform="translate(-1.56 -0.52)"/><path class="cls-4" d="M168.32,365.93l-9.51-3.76-31.53-23.39-12.79-48.09c-2.88-8.34-9.85-11.49-15.46-7.25a18.56,18.56,0,0,0-1.85,1.65C92.26,291,91.3,301.5,95.13,309l23.73,44.87,31.67,13.54,9.24,3.62c0,.35-.14.69-.14,1.17a6.55,6.55,0,0,0,12.86,2.32A7.08,7.08,0,0,0,168.32,365.93Z" transform="translate(-1.56 -0.52)"/><path class="cls-11" d="M145.47,308.61s-2.32.55-7-.54-6.57,1.16-9.1,2.32-9.44,1.85-12,.55-5.27-3.56-10.74-.89a17.94,17.94,0,0,1-9.64,2.05s.55-4.72-4.93-4.17a13.4,13.4,0,0,1-9.09-2.32l5.81-15.33,1.71-4.58,43.64-3.42h.2Z" transform="translate(-1.56 -0.52)"/><path class="cls-11" d="M126,259.16s-14.37-3.35-21.14.89-12,13.41-12,13.41l-10,10.39a15.08,15.08,0,0,1,5.81,5.68c1.85,3.56,10.19,0,10.19,0s11.29-3,12.79,1.51c1.65,4.51,8.9,2,8.9,2s15.11-4.72,18,.61Z" transform="translate(-1.56 -0.52)"/><path class="cls-10" d="M142.46,182.9a12.08,12.08,0,0,0-5.88-.21c-3.21.75-5.61,3.76-7.39,6.84s-3.08,6.57-5.33,9.23c-1.51,1.85-3.35,3.36-4.59,5.27-1.91,2.87-2.59,6.64-3.21,10.19-.89,5.27-1.85,10.6-1.37,16,.21,2.67.75,5.33.89,8.07.21,5.47-1.16,10.74-2.6,16-1,3.63-1.91,7.32-3.83,10.33a42.94,42.94,0,0,1-4.38,5.48,7,7,0,0,0-.89,1.36c-.34,1.51,1.3,2.6,2.6,3.35,3.77,2.13,6.37,6.43,9.24,9.85s7.18,6.43,11.28,5.07c1.17-.41,2.33-1.17,3.63-1.17a6,6,0,0,1,2.46.76,18,18,0,0,0,6.23,1.16,3.41,3.41,0,0,0,1.36-.34c.62-.41.76-1.37.89-2.33a141.09,141.09,0,0,0,.55-16.21c-.61-12.31-10.53-26.47-6.77-38,1.64-5.06,4.58-9.3,6.36-14.37,1.71-5.26,7.93-9.57,9.1-15a3,3,0,0,1,.75-1.65,1.84,1.84,0,0,1,2.12.41c3.56,2.81,4.72,8.08,6,12.8a101.25,101.25,0,0,0,3.83,11.08c.89,1.91,2.67,4.17,4.31,3-.75,8.14-5.34,15.25-6.43,23.25-1,7.8,1.37,16,.55,23.81a26,26,0,0,1-5.82,13.54,25.28,25.28,0,0,0,10.6.14c3.56-.76,7.39-2.67,8.69-6.57,1.37-4.31-.75-8.82-1.91-13.2-2.67-10.54-2.47-23.05-1.65-34,.89-11.28,2.13-21.13,0-32.08a42.87,42.87,0,0,0-2.12-7.93,17.75,17.75,0,0,0-11.56-10.4c-2.59-.61-5.13.41-7.52-.13-1.16-.21-2.26-1.51-3.42-2.06A17.28,17.28,0,0,0,142.46,182.9Z" transform="translate(-1.56 -0.52)"/><path class="cls-9" d="M175.29,283.31c-1.3,3.83-5.13,5.81-8.68,6.56a25.06,25.06,0,0,1-10.6-.13,26.76,26.76,0,0,0,5.81-13.55c1-7.79-1.51-16-.55-23.8,1.1-8.14,5.68-15.25,6.43-23.26-1.64,1.17-3.42-1.09-4.31-3A88.86,88.86,0,0,1,159.56,215c-1.3-4.72-2.46-10-6-12.79-.61-.41-1.5-.89-2.12-.41a2.86,2.86,0,0,0-.75,1.64c-1.16,5.48-7.39,9.78-9.1,15.05-1.71,5.06-4.72,9.3-6.36,14.37-3.76,11.49,6.23,25.71,6.77,38a141.17,141.17,0,0,1-.54,16.21c-.14.89-.21,1.85-.89,2.32a3.06,3.06,0,0,1-1.37.35,17.81,17.81,0,0,1-6.23-1.17,6.44,6.44,0,0,0-2.46-.75c-1.3,0-2.32.75-3.62,1.16-4.11,1.37-8.35-1.64-11.29-5.06s-5.47-7.73-9.23-9.85c-1.3-.75-2.88-1.71-2.6-3.35a2.92,2.92,0,0,1,.89-1.37,43.48,43.48,0,0,0,4.37-5.47c1.92-3,2.88-6.77,3.84-10.33,1.36-5.26,2.8-10.53,2.59-16-.13-2.67-.61-5.34-.88-8.07-.42-5.34.54-10.74,1.36-16,.62-3.62,1.3-7.32,3.22-10.19,1.3-2.05,3.08-3.42,4.58-5.27,2.26-2.67,3.56-6.22,5.34-9.23s4.17-6,7.38-6.84a15.59,15.59,0,0,1,5.89.2,24.06,24.06,0,0,1,4.58,1.3c1.16.55,2.26,1.85,3.42,2.05,2.32.55,4.92-.54,7.52.14A17.41,17.41,0,0,1,169.41,196c.41,1.09.75,2.12,1.1,3.21.41,1.51.75,3.08,1.09,4.72a4.72,4.72,0,0,1,.21,1h0c1.91,10.53.61,18.13-.21,28.93s-1.09,25.52,1.64,36C174.47,274.35,176.73,279,175.29,283.31Z" transform="translate(-1.56 -0.52)"/><ellipse class="cls-11" cx="258.01" cy="221.03" rx="17.6" ry="17.15"/><path class="cls-11" d="M257.69,42.6c-27.5.18-50,22-50.42,48.76v4.25a12.74,12.74,0,0,0,12.89,12.57h0a12.77,12.77,0,0,0,12.93-12.6h0V92.89C233.09,79.73,244,69,257.57,69s24.49,10.66,24.49,23.86A23.74,23.74,0,0,1,270.77,113h0s-18.36,11.52-24,27.33h0a33.82,33.82,0,0,0-1.49,10c0,1.38.07,13.53.23,23.41a13.13,13.13,0,0,0,13.31,12.75h0a13.15,13.15,0,0,0,13.31-13v-.08c0-9-.08-19.53-.08-20.32,0-9.69,9.6-19.38,17.52-25.68a51.29,51.29,0,0,0,18.25-28.34,31,31,0,0,0,1-7c0-27.33-22.72-49.51-50.76-49.51A1,1,0,0,1,257.69,42.6Z" transform="translate(-1.56 -0.52)"/><path class="cls-6" d="M223.8,102.25h0a12.73,12.73,0,0,1-12.89-12.56V85.44A47.68,47.68,0,0,1,216.8,63.1a48.45,48.45,0,0,0-9.72,28.3v4.25A12.74,12.74,0,0,0,220,108.22h0A12.84,12.84,0,0,0,232.4,99,12.9,12.9,0,0,1,223.8,102.25Z" transform="translate(-1.56 -0.52)"/><path class="cls-6" d="M258.57,69.1c13.5.64,23.95,11.82,23.29,25a23.51,23.51,0,0,1-2,8.36,23.44,23.44,0,0,0-2.76-33.63,24.92,24.92,0,0,0-34.5,2.68,23.47,23.47,0,0,0-3.83,6A24.59,24.59,0,0,1,258.57,69.1Z" transform="translate(-1.56 -0.52)"/><path class="cls-6" d="M262.51,180.54h0a13.13,13.13,0,0,1-13.31-12.75c-.16-9.88-.23-22-.23-23.41a34.15,34.15,0,0,1,1.49-10h0a35.2,35.2,0,0,1,2.1-4.74,40.2,40.2,0,0,0-5.93,10.7h0a34.22,34.22,0,0,0-1.49,10c0,1.37.08,13.53.23,23.41a13.15,13.15,0,0,0,13.31,12.75h0a13.24,13.24,0,0,0,12.78-9.32A13.29,13.29,0,0,1,262.51,180.54Z" transform="translate(-1.56 -0.52)"/><path class="cls-6" d="M255.7,234.53A17,17,0,0,1,246.6,212a18.72,18.72,0,0,1,2.56-4.1,16.9,16.9,0,0,0-3.83,24,17.91,17.91,0,0,0,24.6,3.72,17.22,17.22,0,0,0,3.17-2.9A18,18,0,0,1,255.7,234.53Z" transform="translate(-1.56 -0.52)"/><line class="cls-11" x1="449.76" y1="349.84" x2="449.76" y2="440.55"/><path class="cls-11" d="M451.32,449.07a8,8,0,0,1-8-8V350.36a8,8,0,0,1,16,0v90.71A8,8,0,0,1,451.32,449.07Z" transform="translate(-1.56 -0.52)"/><line class="cls-11" x1="492.28" y1="312.99" x2="492.28" y2="392.36"/><path class="cls-11" d="M493.84,400.88a8,8,0,0,1-8-8V313.51a8,8,0,0,1,16,0v79.37A8,8,0,0,1,493.84,400.88Z" transform="translate(-1.56 -0.52)"/><line class="cls-11" x1="534.8" y1="381.02" x2="534.8" y2="437.71"/><path class="cls-11" d="M536.35,446.23a8,8,0,0,1-8-8V381.54a8,8,0,0,1,16,0v56.69A8,8,0,0,1,536.35,446.23Z" transform="translate(-1.56 -0.52)"/><line class="cls-11" x1="577.32" y1="233.62" x2="577.32" y2="423.54"/><path class="cls-11" d="M578.87,432.06a8,8,0,0,1-8-8V234.14a8,8,0,0,1,16,0V424.06A8,8,0,0,1,578.87,432.06Z" transform="translate(-1.56 -0.52)"/><line class="cls-11" x1="619.84" y1="261.96" x2="619.84" y2="349.84"/><path class="cls-11" d="M621.39,358.36a8,8,0,0,1-8-8V262.49a8,8,0,0,1,16,0v87.87A8,8,0,0,1,621.39,358.36Z" transform="translate(-1.56 -0.52)"/><line class="cls-11" x1="662.36" y1="298.81" x2="662.36" y2="361.18"/><path class="cls-11" d="M663.91,369.7a8,8,0,0,1-8-8V299.34a8,8,0,0,1,16,0V361.7A8,8,0,0,1,663.91,369.7Z" transform="translate(-1.56 -0.52)"/><line class="cls-11" x1="704.87" y1="338.5" x2="704.87" y2="423.54"/><path class="cls-11" d="M706.43,432.06a8,8,0,0,1-8-8V339a8,8,0,1,1,16,0v85A8,8,0,0,1,706.43,432.06Z" transform="translate(-1.56 -0.52)"/><line class="cls-11" x1="747.39" y1="284.64" x2="747.39" y2="383.85"/><path class="cls-11" d="M749,392.38a8,8,0,0,1-8-8V285.16a8,8,0,0,1,16,0v99.22A8,8,0,0,1,749,392.38Z" transform="translate(-1.56 -0.52)"/><line class="cls-11" x1="789.91" y1="239.29" x2="789.91" y2="307.32"/><path class="cls-11" d="M791.47,315.84a8,8,0,0,1-8-8v-68a8,8,0,1,1,16,0v68A8,8,0,0,1,791.47,315.84Z" transform="translate(-1.56 -0.52)"/><line class="cls-11" x1="832.43" y1="276.14" x2="832.43" y2="364.01"/><path class="cls-11" d="M834,372.53a8,8,0,0,1-8-8V276.66a8,8,0,0,1,16,0v87.87A8,8,0,0,1,834,372.53Z" transform="translate(-1.56 -0.52)"/><line class="cls-11" x1="874.95" y1="236.45" x2="874.95" y2="321.49"/><path class="cls-11" d="M876.51,330a8,8,0,0,1-8-8V237a8,8,0,0,1,16,0v85A8,8,0,0,1,876.51,330Z" transform="translate(-1.56 -0.52)"/><path class="cls-1" d="M279.4,568.63c.24-.53,17.51-48.57-13.25-91.51l-3.19,1.8c29.81,41.57,13,88.33,12.89,88.65Z" transform="translate(-1.56 -0.52)"/><path class="cls-1" d="M244.27,483.27c2.84,11.88,15.61,19.4,28.86,16.86s21.65-14,18.81-25.87h0c-2.84-11.88-26.5-41.25-39.63-38.7S241.43,471.39,244.27,483.27Z" transform="translate(-1.56 -0.52)"/><path class="cls-1" d="M248.65,538.51c11.71,11.35,32.76,11,32.76,11s2-18.87-9.82-30.22-32.76-11-32.76-11S236.94,527.17,248.65,538.51Z" transform="translate(-1.56 -0.52)"/></svg>