<svg id="Warstwa_1" data-name="Warstwa 1" xmlns="http://www.w3.org/2000/svg" xmlns:xlink="http://www.w3.org/1999/xlink" viewBox="0 0 243.52 242.77"><defs><style>.cls-1{fill:url(#Gradient_bez_nazwy_19);}.cls-2{fill:#cbceea;}</style><linearGradient id="Gradient_bez_nazwy_19" x1="299.47" y1="297.39" x2="542.99" y2="297.39" gradientUnits="userSpaceOnUse"><stop offset="0" stop-color="#76716e"/><stop offset="0.9" stop-color="#f5f4f3"/></linearGradient></defs><path class="cls-1" d="M535,418.78H307.47a8,8,0,0,1-8-8V184a8,8,0,0,1,8-8H534.24a8,8,0,0,1,8,8v40.41a8,8,0,0,1-16,0V192H315.47V402.78H526.85l-.61-37.23a8,8,0,1,1,16-.26l.74,45.35a8,8,0,0,1-8,8.14Z" transform="translate(-299.47 -176)"/><line class="cls-2" x1="39.69" y1="96.38" x2="39.69" y2="141.73"/><path class="cls-2" d="M339.15,324.74a7,7,0,0,1-7-7V272.38a7,7,0,0,1,14,0v45.36A7,7,0,0,1,339.15,324.74Z" transform="translate(-299.47 -176)"/><line class="cls-2" x1="68.03" y1="121.89" x2="68.03" y2="170.08"/><path class="cls-2" d="M367.5,353.08a7,7,0,0,1-7-7V297.89a7,7,0,0,1,14,0v48.19A7,7,0,0,1,367.5,353.08Z" transform="translate(-299.47 -176)"/><line class="cls-2" x1="96.38" y1="136.06" x2="96.38" y2="195.59"/><path class="cls-2" d="M395.85,378.59a7,7,0,0,1-7-7V312.07a7,7,0,0,1,14,0v59.52A7,7,0,0,1,395.85,378.59Z" transform="translate(-299.47 -176)"/><line class="cls-2" x1="124.72" y1="96.38" x2="124.72" y2="150.24"/><path class="cls-2" d="M424.19,333.24a7,7,0,0,1-7-7V272.38a7,7,0,0,1,14,0v53.86A7,7,0,0,1,424.19,333.24Z" transform="translate(-299.47 -176)"/><line class="cls-2" x1="153.07" y1="51.02" x2="153.07" y2="124.72"/><path class="cls-2" d="M452.54,307.73a7,7,0,0,1-7-7V227a7,7,0,0,1,14,0v73.7A7,7,0,0,1,452.54,307.73Z" transform="translate(-299.47 -176)"/><line class="cls-2" x1="181.42" y1="116.22" x2="181.42" y2="172.91"/><path class="cls-2" d="M480.89,355.92a7,7,0,0,1-7-7v-56.7a7,7,0,0,1,14,0v56.7A7,7,0,0,1,480.89,355.92Z" transform="translate(-299.47 -176)"/><line class="cls-2" x1="209.76" y1="96.38" x2="209.76" y2="138.9"/><path class="cls-2" d="M509.23,321.9a7,7,0,0,1-7-7V272.38a7,7,0,0,1,14,0V314.9A7,7,0,0,1,509.23,321.9Z" transform="translate(-299.47 -176)"/></svg>