<svg id="Warstwa_1" data-name="Warstwa 1" xmlns="http://www.w3.org/2000/svg" xmlns:xlink="http://www.w3.org/1999/xlink" viewBox="0 0 243.52 242.77"><defs><style>.cls-1{fill:url(#Gradient_bez_nazwy_32);}.cls-2{fill:#8186c1;}</style><linearGradient id="Gradient_bez_nazwy_32" x1="413.89" y1="322" x2="657.41" y2="322" gradientUnits="userSpaceOnUse"><stop offset="0" stop-color="#a6a29e"/><stop offset="0.9" stop-color="#f5f4f3"/></linearGradient></defs><path class="cls-1" d="M649.41,443.39H421.89a8,8,0,0,1-8-8V208.61a8,8,0,0,1,8-8H648.66a8,8,0,0,1,8,8V249a8,8,0,0,1-16,0V216.61H429.89V427.39H641.27l-.61-37.23a8,8,0,0,1,16-.26l.75,45.35a8,8,0,0,1-8,8.14Z" transform="translate(-413.89 -200.61)"/><path class="cls-2" d="M580.66,326c-.23,7.41-4.23,17.53-12.4,25.67-5.59,5.56-8.61,11.6-9.11,19.74-.79,12.89-9.63,21.12-21.11,21.34-11,.21-20.71-8.61-21.06-21.22-.26-9.38-5.34-15.07-10.74-21.45-13.41-15.81-14.55-36.33-3.48-52.49s29.87-22.3,49.16-16.33C568.52,286.41,580.8,303.74,580.66,326Zm-42.33,24.1c14.77,0,27.69-12.91,28-28s-13.57-29-28.53-28.75c-14.76.22-27.77,13.27-28,28.11C509.54,337.11,522.5,350.12,538.33,350.11ZM537,364.4c-4.67-.85-6.56,1.26-6.16,6.44.35,4.69,2.4,7.45,7,7.5,5.59.06,6.89-3.74,7.25-8.57C545.65,363.27,541.23,364.48,537,364.4Z" transform="translate(-413.89 -200.61)"/><path class="cls-2" d="M545.13,261.25c.34,5.65-1.29,10.31-7.19,10.31-6.09,0-7.09-5-7.08-10.11,0-5.57,1-11,7.85-10.52C544.71,251.34,545.54,256.46,545.13,261.25Z" transform="translate(-413.89 -200.61)"/><path class="cls-2" d="M505,280.06c-.53,6-3.62,9-7.71,8.16A14.26,14.26,0,0,1,486,276.48c-.76-4.16,2.31-7,6.16-6.78C499.23,270,502.21,275.64,505,280.06Z" transform="translate(-413.89 -200.61)"/><path class="cls-2" d="M590.26,276.78c-.82,5.81-5.14,9.73-10.91,11.38a6,6,0,0,1-7.85-6.28c.48-6.83,5.14-11.23,12-12.19C587.55,269.11,589.88,271.81,590.26,276.78Z" transform="translate(-413.89 -200.61)"/><path class="cls-2" d="M477.5,328.81c-5.2.33-10.08-.86-10.25-6.87s4.45-7.52,9.78-7.41,11.12.42,10.86,7.46C487.67,327.93,482.64,329.05,477.5,328.81Z" transform="translate(-413.89 -200.61)"/><path class="cls-2" d="M598,314.53c5.64,0,10.9.68,10.9,6.9,0,6.84-5.53,7.41-11,7.43s-10-1.48-9.65-7.51S593.37,314.18,598,314.53Z" transform="translate(-413.89 -200.61)"/></svg>