<svg id="Warstwa_1" data-name="Warstwa 1" xmlns="http://www.w3.org/2000/svg" xmlns:xlink="http://www.w3.org/1999/xlink" viewBox="0 0 243.52 242.77"><defs><style>.cls-1{fill:url(#Gradient_bez_nazwy_20);}.cls-2{fill:#76716e;}</style><linearGradient id="Gradient_bez_nazwy_20" x1="539.56" y1="327.67" x2="783.07" y2="327.67" gradientUnits="userSpaceOnUse"><stop offset="0" stop-color="#baa481"/><stop offset="0.9" stop-color="#f5f4f3"/></linearGradient></defs><path class="cls-1" d="M775.07,449.05H547.56a8,8,0,0,1-8-8V214.28a8,8,0,0,1,8-8H774.33a8,8,0,0,1,8,8v40.41a8,8,0,0,1-16,0V222.28H555.56V433.05H766.94l-.61-37.22a8,8,0,0,1,16-.26l.74,45.35a8,8,0,0,1-8,8.13Z" transform="translate(-539.56 -206.28)"/><line class="cls-2" x1="39.69" y1="96.38" x2="39.69" y2="141.73"/><path class="cls-2" d="M579.24,355a7,7,0,0,1-7-7V302.66a7,7,0,0,1,14,0V348A7,7,0,0,1,579.24,355Z" transform="translate(-539.56 -206.28)"/><line class="cls-2" x1="68.03" y1="121.89" x2="68.03" y2="170.08"/><path class="cls-2" d="M607.59,383.36a7,7,0,0,1-7-7V328.17a7,7,0,1,1,14,0v48.19A7,7,0,0,1,607.59,383.36Z" transform="translate(-539.56 -206.28)"/><line class="cls-2" x1="96.38" y1="136.06" x2="96.38" y2="195.59"/><path class="cls-2" d="M635.94,408.87a7,7,0,0,1-7-7V342.34a7,7,0,1,1,14,0v59.53A7,7,0,0,1,635.94,408.87Z" transform="translate(-539.56 -206.28)"/><line class="cls-2" x1="124.72" y1="96.38" x2="124.72" y2="150.24"/><path class="cls-2" d="M664.28,363.52a7,7,0,0,1-7-7V302.66a7,7,0,0,1,14,0v53.86A7,7,0,0,1,664.28,363.52Z" transform="translate(-539.56 -206.28)"/><line class="cls-2" x1="153.07" y1="51.02" x2="153.07" y2="124.72"/><path class="cls-2" d="M692.63,338a7,7,0,0,1-7-7V257.3a7,7,0,0,1,14,0V331A7,7,0,0,1,692.63,338Z" transform="translate(-539.56 -206.28)"/><line class="cls-2" x1="181.42" y1="116.22" x2="181.42" y2="172.91"/><path class="cls-2" d="M721,386.19a7,7,0,0,1-7-7V322.5a7,7,0,0,1,14,0v56.69A7,7,0,0,1,721,386.19Z" transform="translate(-539.56 -206.28)"/><line class="cls-2" x1="209.76" y1="96.38" x2="209.76" y2="138.9"/><path class="cls-2" d="M749.32,352.18a7,7,0,0,1-7-7V302.66a7,7,0,1,1,14,0v42.52A7,7,0,0,1,749.32,352.18Z" transform="translate(-539.56 -206.28)"/></svg>