<svg id="Warstwa_1" data-name="Warstwa 1" xmlns="http://www.w3.org/2000/svg" xmlns:xlink="http://www.w3.org/1999/xlink" viewBox="0 0 505.8 341.4"><defs><style>.cls-1{fill:none;}.cls-2{clip-path:url(#clip-path);}.cls-3{fill:url(#Gradient_bez_nazwy_23);}.cls-4{fill:#595fa8;}</style><clipPath id="clip-path" transform="translate(-157.6 -128.8)"><rect class="cls-1" x="162.19" y="184.03" width="497" height="233"/></clipPath><radialGradient id="Gradient_bez_nazwy_23" cx="252.9" cy="170.7" r="215.75" gradientUnits="userSpaceOnUse"><stop offset="0.32" stop-color="#fff"/><stop offset="1" stop-color="#cbceea"/></radialGradient></defs><g class="cls-2"><rect class="cls-3" width="505.8" height="341.4"/><path class="cls-4" d="M451.29,303.61c-.23,7.41-4.23,17.54-12.41,25.67-5.59,5.56-8.6,11.6-9.1,19.74-.79,12.89-9.63,21.12-21.11,21.34-11,.21-20.71-8.61-21.06-21.22-.26-9.38-5.34-15.07-10.75-21.45-13.4-15.81-14.54-36.33-3.47-52.49s29.87-22.29,49.16-16.32C439.15,264,451.43,281.34,451.29,303.61ZM409,327.72c14.77,0,27.68-12.92,28-28s-13.57-29-28.54-28.75c-14.75.22-27.76,13.27-28,28.11C380.17,314.71,393.13,327.72,409,327.72ZM407.65,342c-4.66-.86-6.55,1.25-6.16,6.43.36,4.69,2.4,7.45,7.06,7.5,5.59.06,6.89-3.73,7.25-8.57C416.28,340.87,411.85,342.08,407.65,342Z" transform="translate(-157.6 -128.8)"/><path class="cls-4" d="M415.76,238.85c.34,5.65-1.29,10.31-7.19,10.32-6.09,0-7.09-5-7.08-10.12,0-5.57,1-11,7.85-10.51C415.34,228.94,416.17,234.06,415.76,238.85Z" transform="translate(-157.6 -128.8)"/><path class="cls-4" d="M375.62,257.67c-.54,6-3.62,9-7.71,8.15a14.26,14.26,0,0,1-11.33-11.74c-.76-4.16,2.31-7,6.16-6.78C369.86,247.61,372.84,253.24,375.62,257.67Z" transform="translate(-157.6 -128.8)"/><path class="cls-4" d="M460.89,254.38c-.82,5.81-5.14,9.74-10.92,11.39a6,6,0,0,1-7.84-6.29c.48-6.83,5.13-11.23,12-12.19C458.17,246.71,460.51,249.41,460.89,254.38Z" transform="translate(-157.6 -128.8)"/><path class="cls-4" d="M348.13,306.41c-5.2.33-10.08-.86-10.25-6.87s4.45-7.52,9.78-7.41,11.12.42,10.86,7.46C358.3,305.53,353.27,306.65,348.13,306.41Z" transform="translate(-157.6 -128.8)"/><path class="cls-4" d="M468.58,292.13c5.64,0,10.89.68,10.9,6.9,0,6.84-5.53,7.41-11,7.44s-10-1.49-9.64-7.52S464,291.79,468.58,292.13Z" transform="translate(-157.6 -128.8)"/></g></svg>