<svg id="Warstwa_1" data-name="Warstwa 1" xmlns="http://www.w3.org/2000/svg" xmlns:xlink="http://www.w3.org/1999/xlink" viewBox="0 0 505.8 341.4"><defs><style>.cls-1{fill:none;}.cls-2{clip-path:url(#clip-path);}.cls-3{fill:url(#Gradient_bez_nazwy_25);}.cls-4{fill:url(#Gradient_bez_nazwy_29);}</style><clipPath id="clip-path" transform="translate(-170.41 -116.8)"><rect class="cls-1" x="183.59" y="162.95" width="497" height="233"/></clipPath><radialGradient id="Gradient_bez_nazwy_25" cx="252.9" cy="170.7" r="215.75" gradientUnits="userSpaceOnUse"><stop offset="0.32" stop-color="#fff"/><stop offset="1" stop-color="#e8dccd"/></radialGradient><linearGradient id="Gradient_bez_nazwy_29" x1="357.64" y1="281.08" x2="507.67" y2="281.08" gradientUnits="userSpaceOnUse"><stop offset="0" stop-color="#bca482"/><stop offset="0.9" stop-color="#76716e"/></linearGradient></defs><g class="cls-2"><rect class="cls-3" width="505.8" height="341.4"/><path class="cls-4" d="M505.7,274.51a7.24,7.24,0,0,0-5.36-2H484.2a52.46,52.46,0,0,0-6.36-19.19,49.43,49.43,0,0,0-18.51-18.61,50.79,50.79,0,0,0-19.82-6.36v-15a7.23,7.23,0,0,0-2-5.36,7,7,0,0,0-5.16-2A6.82,6.82,0,0,0,425,213.4v15a51.17,51.17,0,0,0-19.38,6.31A49.2,49.2,0,0,0,387,253.35a51.14,51.14,0,0,0-6.28,19.32H365a7.23,7.23,0,0,0-5.36,2,7,7,0,0,0-2,5.16,6.82,6.82,0,0,0,7.33,7.34h15.69A51.27,51.27,0,0,0,387,307.31a49.2,49.2,0,0,0,18.61,18.61,51.13,51.13,0,0,0,19.52,6.34v16.51a6.82,6.82,0,0,0,7.33,7.33,7,7,0,0,0,5.17-2,7.2,7.2,0,0,0,2-5.35V332.28A50.35,50.35,0,0,0,484.41,287h15.93a6.8,6.8,0,0,0,7.33-7.33A7,7,0,0,0,505.7,274.51Zm-40.08,26a35.95,35.95,0,0,1-26,18.33v-4.12a7.21,7.21,0,0,0-2-5.36,7,7,0,0,0-5.17-2,6.82,6.82,0,0,0-7.33,7.34v4.07A36.15,36.15,0,0,1,413,314.45a36.78,36.78,0,0,1-13.63-13.91,38.34,38.34,0,0,1-4.45-13.39H399a6.83,6.83,0,0,0,7.34-7.34,7,7,0,0,0-2-5.16,7.22,7.22,0,0,0-5.36-2h-3.9a38.59,38.59,0,0,1,4.26-12.45A36.09,36.09,0,0,1,425,241.86v5.56a6.82,6.82,0,0,0,7.34,7.33,7,7,0,0,0,5.16-2,7.23,7.23,0,0,0,2-5.36v-5.66a36.62,36.62,0,0,1,12.58,4.45,35.89,35.89,0,0,1,13.53,14,39,39,0,0,1,4.16,12.32h-3.46a7.23,7.23,0,0,0-5.36,2,7,7,0,0,0-2,5.17,6.8,6.8,0,0,0,7.33,7.33H470A38.86,38.86,0,0,1,465.62,300.54Z" transform="translate(-170.41 -116.8)"/></g></svg>