<svg id="Warstwa_1" data-name="Warstwa 1" xmlns="http://www.w3.org/2000/svg" xmlns:xlink="http://www.w3.org/1999/xlink" viewBox="0 0 505.8 341.4"><defs><style>.cls-1{fill:none;}.cls-2{clip-path:url(#clip-path);}.cls-3{fill:url(#Gradient_bez_nazwy_21);}.cls-4{fill:#76716e;}</style><clipPath id="clip-path" transform="translate(-176.6 -109.8)"><rect class="cls-1" x="177.72" y="166.46" width="497" height="233"/></clipPath><radialGradient id="Gradient_bez_nazwy_21" cx="252.9" cy="170.7" r="215.75" gradientUnits="userSpaceOnUse"><stop offset="0.32" stop-color="#fff"/><stop offset="1" stop-color="#e6e4e3"/></radialGradient></defs><g class="cls-2"><rect class="cls-3" width="505.8" height="341.4"/><line class="cls-4" x1="163.42" y1="147.06" x2="163.42" y2="192.41"/><path class="cls-4" d="M340,309.22a7,7,0,0,1-7-7V256.86a7,7,0,0,1,14,0v45.36A7,7,0,0,1,340,309.22Z" transform="translate(-176.6 -109.8)"/><line class="cls-4" x1="191.76" y1="172.57" x2="191.76" y2="220.76"/><path class="cls-4" d="M368.36,337.56a7,7,0,0,1-7-7V282.37a7,7,0,0,1,14,0v48.19A7,7,0,0,1,368.36,337.56Z" transform="translate(-176.6 -109.8)"/><line class="cls-4" x1="220.11" y1="186.75" x2="220.11" y2="246.27"/><path class="cls-4" d="M396.71,363.07a7,7,0,0,1-7-7V296.55a7,7,0,0,1,14,0v59.52A7,7,0,0,1,396.71,363.07Z" transform="translate(-176.6 -109.8)"/><line class="cls-4" x1="248.46" y1="147.06" x2="248.46" y2="200.92"/><path class="cls-4" d="M425.06,317.72a7,7,0,0,1-7-7V256.86a7,7,0,0,1,14,0v53.86A7,7,0,0,1,425.06,317.72Z" transform="translate(-176.6 -109.8)"/><line class="cls-4" x1="276.8" y1="101.71" x2="276.8" y2="175.41"/><path class="cls-4" d="M453.4,292.21a7,7,0,0,1-7-7v-73.7a7,7,0,0,1,14,0v73.7A7,7,0,0,1,453.4,292.21Z" transform="translate(-176.6 -109.8)"/><line class="cls-4" x1="305.15" y1="166.9" x2="305.15" y2="223.6"/><path class="cls-4" d="M481.75,340.4a7,7,0,0,1-7-7V276.7a7,7,0,0,1,14,0v56.7A7,7,0,0,1,481.75,340.4Z" transform="translate(-176.6 -109.8)"/><line class="cls-4" x1="333.5" y1="147.06" x2="333.5" y2="189.58"/><path class="cls-4" d="M510.1,306.38a7,7,0,0,1-7-7V256.86a7,7,0,0,1,14,0v42.52A7,7,0,0,1,510.1,306.38Z" transform="translate(-176.6 -109.8)"/></g></svg>