<svg id="Warstwa_1" data-name="Warstwa 1" xmlns="http://www.w3.org/2000/svg" viewBox="0 0 1099.84 611.8"><defs><style>.cls-1{fill:#a0616a;}.cls-2{fill:#a5a19d;}.cls-3{fill:#282524;}.cls-4{fill:#565350;}.cls-5{fill:#efefef;}.cls-6{fill:#fff;}.cls-7{fill:#cccbcb;}.cls-8{fill:#e3e2e2;}.cls-9{fill:#f5b3b6;}.cls-10{fill:#f4f3f2;}.cls-11{fill:#2f2f41;}.cls-12{fill:#f5b4b6;}.cls-13{fill:#d4d2d1;}</style></defs><path class="cls-1" d="M240.68,285.83a7.58,7.58,0,0,1-11.35.14,6.7,6.7,0,0,1-1-1.13l-27.44,8.56,4.35-15.29,25.33-5.82a7.78,7.78,0,0,1,11.17,2.9,9,9,0,0,1-1.11,10.64Z" transform="translate(14.92 0.96)"/><path class="cls-2" d="M221.43,290.16l-65.55,12.66-.12,0L94.32,259.15c-9-8.59-10.3-23.34-2.82-33.61h0c7.83-10.72,22.11-12.46,32.09-4.16a22.69,22.69,0,0,1,2.07,1.9l42.68,45.8,50.13,6.15Z" transform="translate(14.92 0.96)"/><polygon class="cls-1" points="100.36 597.84 110.92 597.84 116.03 553.63 100.36 553.63 100.36 597.84"/><path class="cls-3" d="M82.64,593.09h3L97.34,588l6.31,5.1h0c7.41,0,13.36,6.41,13.36,14.39V608H82.77Z" transform="translate(14.92 0.96)"/><polygon class="cls-1" points="141.53 590.65 151.97 593.13 165.94 551.28 150.64 547.48 141.53 590.65"/><path class="cls-3" d="M124.79,585.37l2.91.66,12.39-2.23,5.1,6.54h0c7.16,1.7,11.66,9.42,10.08,17.14l-.12.39-33.4-8.11Z" transform="translate(14.92 0.96)"/><path class="cls-4" d="M72,326.78c-5,16.22-4.5,33.74,1.21,52.71L75.6,485.7s-3.64,69.72,8,94.18H100.5l8.38-100.59L110,411.8l36.19,56.9L123.09,578.18l20.76,2,37.41-118.77L135.11,346.14Z" transform="translate(14.92 0.96)"/><path class="cls-2" d="M138,349.54l-61.33-10.6c-6.19-2.09-9.59-9.15-7.53-15.83a13.15,13.15,0,0,1,.73-1.83l2.8-6-1.1-62.92c-.24-16.61,7.77-32.18,21-40.81l6-3.79,3-8.24,27.81.78.12,10.86,10,17.13v.13l-.61,93.27-2.79,9.68,4.13,11.24Z" transform="translate(14.92 0.96)"/><ellipse class="cls-1" cx="132.91" cy="162.93" rx="25.26" ry="27.21"/><path class="cls-3" d="M91.63,167.85c-.73-3.4-.36-8.24,0-11.64a33.38,33.38,0,0,1,12.87-22.76,8.76,8.76,0,0,1,4.62-2,4.09,4.09,0,0,1,4,2.62,8.36,8.36,0,0,1,4.73-5,12.85,12.85,0,0,1,6.68-.92c9,.79,16.76,6.8,20.41,15.7.73,1.7,2.55-4.71,3.4-3a6.9,6.9,0,0,0,3.88,3.66c1.7.52,2.31,8,3,6.28a8.51,8.51,0,0,1-4,10.86,7.37,7.37,0,0,1-3.28.65,29.93,29.93,0,0,1-5-1.05c-6.31-.91-12.14,3.53-13.72,10.07a19.5,19.5,0,0,0-2.19-5.23,5.37,5.37,0,0,0-4.49-2.61,6.45,6.45,0,0,0-4.37,2.74c-1.1,1.44-2,3-3,4.45-3.28,4.06-7.77,13.74-12.39,13C98.67,182.9,92.6,172.56,91.63,167.85Z" transform="translate(14.92 0.96)"/><path class="cls-1" d="M192.5,358.94a8.11,8.11,0,0,1-9.05-7.37,6.69,6.69,0,0,1-.11-1.53l-26.56-11.31,12.12-9.23,23.33,12.1a8.6,8.6,0,0,1,7.2,9.65,8.29,8.29,0,0,1-6.93,7.69Z" transform="translate(14.92 0.96)"/><path class="cls-2" d="M176.91,349.05,114.73,323.4l-.08-.17-31.6-71.68c-3.58-12.36,2.44-25.76,13.73-30.35h0c11.86-4.83,25,1.59,29.43,14.36l.81,2.69,14.46,62.95,39.9,33.17Z" transform="translate(14.92 0.96)"/><path class="cls-5" d="M803.67,456.08a18.31,18.31,0,0,1,2,1.3,216.22,216.22,0,0,1,26.16,19.29c.58.58,1.3,1.08,1.95,1.66a200.33,200.33,0,0,1,58.31,88.87c4.19,13.29,7.65,28.1,16,38.94a39.94,39.94,0,0,0,2.82,3.32l75.94.15a1.38,1.38,0,0,1,.58-.22l3,.15a12.9,12.9,0,0,0-.43-1.59c-.08-.29-.15-.58-.22-.87s-.14-.36-.14-.58-.08-.07,0-.22-.15-.36-.08-.5c-.72-3-1.51-5.85-2.31-8.74h0c-6.21-22.33-14.38-44.37-25.86-64.45-.37-.58-.73-1.3-1.09-1.88a197.93,197.93,0,0,0-17.92-25.86A152.09,152.09,0,0,0,893.91,466c-27.16-13.65-58.74-18.85-87.78-10.62C805.19,455.64,804.47,455.86,803.67,456.08Z" transform="translate(14.92 0.96)"/><path class="cls-6" d="M803.89,456.94c37.35,7.08,72.54,25.44,98.33,52.1,5.56,5.7,10.69,12,14.16,19.21A39.89,39.89,0,0,1,920,550.43c-.72,7.16-2.31,14.31-1.15,21.39,1.15,7.51,5.92,13.58,12.57,17.85,8,5.13,17.7,7.22,27.09,9,10.48,2,21.39,3.75,30.06,9.89a1,1,0,0,0,1.23-1.59c-15.1-10.76-35.55-8.59-52.1-16.18-7.73-3.54-14.37-9.32-16.25-17.56-1.66-7.22,0-14.52.79-21.74a42.82,42.82,0,0,0-2.67-21.9c-3-7.22-7.88-13.72-13.29-19.57a173.77,173.77,0,0,0-42.92-33.46A192,192,0,0,0,804.18,455,1,1,0,1,0,803.89,456.94Z" transform="translate(14.92 0.96)"/><path class="cls-6" d="M920.86,547a55,55,0,0,1-37.21-9.61,1,1,0,0,0-1.23,1.59,57.54,57.54,0,0,0,38.8,10,1,1,0,1,0-.36-1.95Z" transform="translate(14.92 0.96)"/><path class="cls-6" d="M925.05,575.65c14.38-10,27.1-24.64,35.62-41.18.94-1.66,2.6-1,1.81.58-8.89,17.19-22.18,32.51-37.14,42.77-1.37,1-1.66-1.23-.29-2.17Z" transform="translate(14.92 0.96)"/><path class="cls-5" d="M1079.38,515.25c-.44.22-.87.58-1.23.79a115.89,115.89,0,0,0-15.53,12.07c-.37.36-.73.65-1.16,1.08A110.1,110.1,0,0,0,1029.38,584c-2,8.17-3.32,17.2-8,23.92a22.43,22.43,0,0,1-1.59,2l-48.19.87a.7.7,0,0,0-.36-.15l-2,.15c0-.29.14-.65.14-.94s.08-.36.08-.58.07-.22.07-.36v-.15c0-.14.07-.21,0-.29.29-1.8.65-3.61,1-5.34h0c2.67-13.66,6.65-27.24,12.86-39.6.22-.36.36-.79.58-1.15a111.43,111.43,0,0,1,10-16,76.78,76.78,0,0,1,6.79-7.87,85.88,85.88,0,0,1,21.89-16.33c16.47-8.6,36.2-12.14,55.13-7.37A9.49,9.49,0,0,1,1079.38,515.25Z" transform="translate(14.92 0.96)"/><path class="cls-6" d="M1079.31,515.76c-23.34,4.69-44.66,16.25-59.54,32.8a40.7,40.7,0,0,0-7.95,11.85,22.92,22.92,0,0,0-1.08,13.58c.87,4.33,2.24,8.74,1.88,13.08-.36,4.62-3,8.38-7,11-4.84,3.18-10.84,4.55-16.69,5.71-6.57,1.3-13.37,2.53-18.57,6.36-.65.43-1.44-.51-.86-.94,9-6.72,22-5.64,32.15-10.41,4.69-2.24,8.59-5.85,9.39-10.83.65-4.41-.8-8.89-1.74-13.3a24.73,24.73,0,0,1,.51-13.37,37.22,37.22,0,0,1,7.37-12.06,100.21,100.21,0,0,1,25.36-20.88,116.78,116.78,0,0,1,36.34-13.73C1079.88,514.45,1080.1,515.61,1079.31,515.76Z" transform="translate(14.92 0.96)"/><path class="cls-6" d="M1024.25,543c-6-5.92-6.57-14.59-1.52-20.52.51-.57,1.59.15,1.09.73-4.77,5.49-4.19,13.65,1.37,19.14.65.51-.36,1.16-.94.65Z" transform="translate(14.92 0.96)"/><path class="cls-6" d="M1010,571.89a34.52,34.52,0,0,0,23.12-6.21c.65-.43,1.44.51.86.94a36,36,0,0,1-24.06,6.5c-.93-.14-.79-1.3.08-1.23Z" transform="translate(14.92 0.96)"/><path class="cls-5" d="M240.93,199c-22.54-49.92-21.67-113.29,13.22-155.34a252.77,252.77,0,0,0,90.39,148c18,14.16,39.59,28.25,44.43,50.65,3.11,13.94-1.3,28.75-8.81,40.89s-18,22.18-28.4,32.08l-1.15,3.33C305.67,287.34,263.47,249,240.93,199Z" transform="translate(14.92 0.96)"/><path class="cls-6" d="M255.16,44.29c-8.09,44.08-2,91.18,17.56,131.64,4.26,8.67,9.32,17.27,16.11,24.35A53.14,53.14,0,0,0,313,214.44c8.45,2.53,17.55,4.05,25.28,8.6,8.24,4.77,13.23,12.79,15.25,22,2.38,11.2.72,22.69-1.45,33.75-2.38,12.28-4.91,25-1.51,37.42.36,1.52-1.88,2-2.39.58-5.85-21.6,5.64-42.77,3.9-64.52-.72-10.12-4.55-20-13.22-25.87-7.66-5.13-16.83-6.79-25.5-9.17-9-2.6-17.27-6.43-24.21-13-7.15-6.64-12.5-15-16.9-23.62a212,212,0,0,1-20.16-62.21,217.52,217.52,0,0,1,.72-74.63c.22-1.74,2.6-1,2.31.57Z" transform="translate(14.92 0.96)"/><path class="cls-6" d="M265.64,163.15A32.35,32.35,0,0,1,226.91,147a1.25,1.25,0,0,1,2.17-1.22,29.83,29.83,0,0,0,36,14.88c1.52-.43,2.1,1.95.58,2.46Z" transform="translate(14.92 0.96)"/><path class="cls-6" d="M251.19,94.22a18,18,0,0,0,14.31-9.75c.72-1.45,2.74-.15,2,1.3A20.11,20.11,0,0,1,251.7,96.6a1.2,1.2,0,0,1-1.45-.94A1.5,1.5,0,0,1,251.19,94.22Z" transform="translate(14.92 0.96)"/><path class="cls-5" d="M427,2.82a12.49,12.49,0,0,0-1.15,2.6,240.77,240.77,0,0,0-13.8,36c-.22.94-.58,1.88-.87,3a246.25,246.25,0,0,0-7.73,91.83,256.44,256.44,0,0,0,6.65,36.34c4.41,16.4,10.47,34,9,50.43a41.36,41.36,0,0,1-.72,5.13L342.08,274a1.33,1.33,0,0,0-.72.14l-3,2c-.22-.57-.36-1.3-.58-1.87-.15-.37-.22-.73-.36-1.09a1.91,1.91,0,0,1-.22-.72c0-.14,0-.14-.14-.22a2.38,2.38,0,0,1-.22-.58c-1.16-3.54-2.24-7-3.32-10.54h0c-8.24-27.1-14.31-55.13-15.75-83,0-.79-.15-1.73-.15-2.6a236.77,236.77,0,0,1,1.3-37.86,188,188,0,0,1,3.61-20.37,172.31,172.31,0,0,1,20-49.49C361,37.07,389.4,12.58,423.94,3.69Z" transform="translate(14.92 0.96)"/><path class="cls-6" d="M427.34,3.91c-33,29.91-56.5,70.37-65.25,113.72-1.87,9.39-3,19-1.8,28.61a51.89,51.89,0,0,0,10.76,25.43c5.35,7,11.56,13.58,15,21.68,3.69,8.52,2.89,17.84-1.08,26.29-4.77,10.19-13.08,18.21-21.46,25.65-9.32,8.31-19.07,16.77-23.84,28.47-.58,1.37-2.75.43-2.24-.94,8.23-20.37,30.13-30.34,42-48.33,5.5-8.31,8.46-18.43,5-28.11-3-8.53-9.39-15.24-14.88-22.25-5.71-7.37-9.9-15.39-11.42-24.5-1.66-9.39-.94-19.14.72-28.46A201.94,201.94,0,0,1,380.3,60.33,216.86,216.86,0,0,1,425.82,2.17C427.05.94,428.49,2.82,427.34,3.91Z" transform="translate(14.92 0.96)"/><path class="cls-6" d="M364.12,103.47a31.7,31.7,0,0,1-21.24-35.55,1.2,1.2,0,0,1,2.38.36,29.48,29.48,0,0,0,19.8,33.09c1.59.29.5,2.53-.94,2.1Z" transform="translate(14.92 0.96)"/><path class="cls-6" d="M368,168.49A61.78,61.78,0,0,0,399.16,136c.58-1.37,2.74-.43,2.24.94a64.52,64.52,0,0,1-32.51,33.74,1.18,1.18,0,1,1-.94-2.17Z" transform="translate(14.92 0.96)"/><path class="cls-6" d="M394.17,40.83a18.59,18.59,0,0,0,17.42.79c1.44-.72,2.24,1.52.86,2.24a21,21,0,0,1-19.22-.79,1.12,1.12,0,0,1-.57-1.52,1,1,0,0,1,1.51-.72Z" transform="translate(14.92 0.96)"/><path class="cls-5" d="M758.23,155.33C735.68,105.4,736.55,42,771.59,0A252.56,252.56,0,0,0,862,148c18,14.16,39.59,28.25,44.43,50.65,3.11,13.94-1.3,28.75-8.81,40.89s-18,22.18-28.4,32.08l-1.15,3.32C823,243.69,780.77,205.33,758.23,155.33Z" transform="translate(14.92 0.96)"/><path class="cls-6" d="M772.46.57c-8.09,44.07-2,91.18,17.56,131.64,4.26,8.67,9.32,17.27,16.11,24.35a53.19,53.19,0,0,0,24.2,14.16c8.45,2.53,17.56,4,25.29,8.6,8.24,4.76,13.22,12.78,15.24,22,2.39,11.2.73,22.69-1.44,33.74-2.39,12.28-4.91,25-1.52,37.43.36,1.51-1.88,2-2.38.57-5.85-21.6,5.63-42.77,3.9-64.51-.72-10.12-4.55-20-13.22-25.87-7.66-5.13-16.84-6.79-25.51-9.18-9-2.6-17.27-6.43-24.2-13-7.15-6.65-12.5-15-16.91-23.63a212,212,0,0,1-20.16-62.2A217.83,217.83,0,0,1,770.15,0c.29-1.66,2.67-.94,2.31.58Z" transform="translate(14.92 0.96)"/><path class="cls-6" d="M782.94,119.49a32.32,32.32,0,0,1-38.73-16.11,1.25,1.25,0,0,1,2.17-1.23,29.83,29.83,0,0,0,36,14.89c1.51-.44,2.09,1.95.58,2.45Z" transform="translate(14.92 0.96)"/><path class="cls-6" d="M825.85,170a62.51,62.51,0,0,0,5-45.16c-.36-1.52,1.88-2,2.38-.58a65.1,65.1,0,0,1-5.34,47c-.73,1.38-2.75.08-2-1.22Z" transform="translate(14.92 0.96)"/><path class="cls-6" d="M768.49,50.57a18,18,0,0,0,14.3-9.76c.72-1.44,2.75-.14,2,1.3A20.08,20.08,0,0,1,769,53a1.2,1.2,0,0,1-1.44-.94C767.55,51.36,767.91,50.64,768.49,50.57Z" transform="translate(14.92 0.96)"/><path class="cls-5" d="M939.86,52.37a12.23,12.23,0,0,0-1,2.17,201.55,201.55,0,0,0-11.63,29.77c-.22.79-.51,1.51-.72,2.45A199.78,199.78,0,0,0,920,162.7a202.7,202.7,0,0,0,5.64,30.05c3.68,13.59,8.81,28.11,7.66,41.69a28.43,28.43,0,0,1-.58,4.27l-64.3,37.93a1.44,1.44,0,0,0-.58.07l-2.53,1.66c-.22-.5-.29-1.08-.51-1.52-.07-.29-.21-.57-.28-.86a2.3,2.3,0,0,0-.22-.58c0-.07,0-.07-.07-.22s-.08-.36-.22-.5c-1-2.89-1.88-5.86-2.82-8.75h0c-6.93-22.39-12.06-45.59-13.29-68.63,0-.65-.07-1.45-.07-2.17a195.52,195.52,0,0,1,1.08-31.29,160.43,160.43,0,0,1,3-16.83,140.74,140.74,0,0,1,16.91-40.89c15.61-25.29,39.45-45.59,68.64-53A19.6,19.6,0,0,1,939.86,52.37Z" transform="translate(14.92 0.96)"/><path class="cls-6" d="M940.15,53.24c-27.81,24.71-47.61,58.16-55,94-1.59,7.73-2.53,15.68-1.52,23.62a42.25,42.25,0,0,0,9,21c4.56,5.85,9.76,11.27,12.65,17.92,3.1,7.08,2.38,14.73-.94,21.74-4,8.46-11.06,15-18.06,21.24-7.81,6.87-16,13.88-20.09,23.56-.51,1.15-2.31.36-1.88-.8,6.94-16.83,25.43-25.14,35.33-40,4.63-6.86,7.15-15.25,4.19-23.27-2.53-7.08-8-12.57-12.57-18.42-4.84-6.14-8.31-12.72-9.61-20.23-1.37-7.73-.79-15.82.58-23.55a163.94,163.94,0,0,1,18.06-50.29,177.08,177.08,0,0,1,38.37-48C939.93,50.86,941.16,52.37,940.15,53.24Z" transform="translate(14.92 0.96)"/><path class="cls-6" d="M886.9,135.53c-12.64-4.26-20.15-16.69-17.84-29.4.21-1.23,2.24-.94,2,.29-2.24,11.84,4.91,23.48,16.69,27.31,1.23.36.36,2.24-.87,1.8Z" transform="translate(14.92 0.96)"/><path class="cls-6" d="M890.15,179.36a51.33,51.33,0,0,0,26.3-26.88,1,1,0,0,1,1.88.8,53.37,53.37,0,0,1-27.45,27.89,1,1,0,1,1-.73-1.81Z" transform="translate(14.92 0.96)"/><path class="cls-6" d="M912.26,83.8a15.94,15.94,0,0,0,14.67.65c1.23-.58,1.88,1.23.72,1.81a18,18,0,0,1-16.18-.65.93.93,0,0,1-.51-1.23C911,83.8,911.61,83.51,912.26,83.8Z" transform="translate(14.92 0.96)"/><path class="cls-7" d="M301.68,473.42H882.5V137.24A9.53,9.53,0,0,0,873,127.7H311.22a9.53,9.53,0,0,0-9.54,9.54Z" transform="translate(14.92 0.96)"/><path class="cls-8" d="M301.17,464.39v41.47a13,13,0,0,0,13.08,13.07H528.62v81.94h-2.89a1.64,1.64,0,0,0-1.67,1.66h0v5.71a1.65,1.65,0,0,0,1.67,1.66h133a1.64,1.64,0,0,0,1.66-1.66h0v-5.71a1.63,1.63,0,0,0-1.66-1.66h-2.89V518.93H870.21a13.09,13.09,0,0,0,13.15-13.07h0V464.39Z" transform="translate(14.92 0.96)"/><rect class="cls-6" x="334.59" y="141.74" width="544.91" height="309.37"/><path class="cls-8" d="M489.09,293.88H356.3c-1.88,0-3.47-3.07-3.47-7V178c0-3.79,1.52-7,3.47-7H489.09c1.88,0,3.47,3.07,3.47,7V286.87C492.56,290.81,491,293.88,489.09,293.88Z" transform="translate(14.92 0.96)"/><path class="cls-8" d="M476.45,319.74H368.94a4.24,4.24,0,0,1-4.19-4.19,4.2,4.2,0,0,1,4.19-4.19H476.45C481.8,311.29,481.94,319.74,476.45,319.74Z" transform="translate(14.92 0.96)"/><path class="cls-8" d="M476.45,339H368.94a4.19,4.19,0,0,1,0-8.38H476.45C481.8,330.51,481.94,339,476.45,339Z" transform="translate(14.92 0.96)"/><path class="cls-8" d="M476.45,358.11H368.94a4.2,4.2,0,0,1,0-8.39H476.45C481.8,349.65,481.94,358.11,476.45,358.11Z" transform="translate(14.92 0.96)"/><path class="cls-2" d="M658.45,293.88H525.65c-1.88,0-3.46-3.1-3.46-7.09V176.73c0-3.83,1.51-7.08,3.46-7.08h132.8c1.88,0,3.47,3.1,3.47,7.08V286.79C661.92,290.78,660.4,293.88,658.45,293.88Z" transform="translate(14.92 0.96)"/><path class="cls-2" d="M645.8,319.74H538.3a4.24,4.24,0,0,1-4.19-4.19,4.19,4.19,0,0,1,4.19-4.19H645.8C651.22,311.29,651.3,319.74,645.8,319.74Z" transform="translate(14.92 0.96)"/><path class="cls-2" d="M645.8,339H538.3a4.19,4.19,0,1,1,0-8.38H645.8C651.22,330.51,651.3,339,645.8,339Z" transform="translate(14.92 0.96)"/><path class="cls-2" d="M645.8,358.11H538.3a4.2,4.2,0,0,1,0-8.39H645.8C651.22,349.65,651.3,358.11,645.8,358.11Z" transform="translate(14.92 0.96)"/><path class="cls-8" d="M827.88,293.88H695.08c-1.88,0-3.47-3.12-3.47-7.13V176.09c0-3.85,1.52-7.12,3.47-7.12h132.8c1.87,0,3.46,3.12,3.46,7.12V286.75C831.34,290.76,829.75,293.88,827.88,293.88Z" transform="translate(14.92 0.96)"/><path class="cls-8" d="M815.23,319.74H707.72a4.24,4.24,0,0,1-4.19-4.19,4.2,4.2,0,0,1,4.19-4.19H815.23C820.58,311.29,820.72,319.74,815.23,319.74Z" transform="translate(14.92 0.96)"/><path class="cls-8" d="M815.23,339H707.72a4.19,4.19,0,0,1,0-8.38H815.23C820.58,330.51,820.72,339,815.23,339Z" transform="translate(14.92 0.96)"/><path class="cls-8" d="M815.23,358.11H707.72a4.2,4.2,0,0,1,0-8.39H815.23C820.58,349.65,820.72,358.11,815.23,358.11Z" transform="translate(14.92 0.96)"/><circle class="cls-6" cx="925.16" cy="220.35" r="1.88"/><path class="cls-7" d="M1083.4,610.84H-13.48a1.37,1.37,0,0,1-1.44-1.45A1.36,1.36,0,0,1-13.48,608h1097a1.36,1.36,0,0,1,1.44,1.44A1.56,1.56,0,0,1,1083.4,610.84Z" transform="translate(14.92 0.96)"/><path class="cls-2" d="M896,324.69h0l.1-.13c.36-.22,38.44-18.08,49,10.38,8.9,29.18-9.91,45.06-17.39,63.53l-19.23,35.06L894.15,497c-.31.88-4.87-.29-5.64-.27L863.43,495l8.11-59C878.26,396.32,879.32,360.47,896,324.69Z" transform="translate(14.92 0.96)"/><path class="cls-9" d="M892.73,542.79l-12.48,1.28a1.92,1.92,0,0,0-1.71,2.52l12.73,35.8a2.32,2.32,0,0,0,2.44,1.45l7.45-.77a2,2,0,0,0,1.8-2.34l-7.77-36.32A2.23,2.23,0,0,0,892.73,542.79Z" transform="translate(14.92 0.96)"/><path class="cls-3" d="M904.9,578.94l-14.19.71a1.91,1.91,0,0,0-1.87,2.32l.91,3.87a1.77,1.77,0,0,1-.6,1.78l-14,12a3.63,3.63,0,0,0-1.38,3.74,5.32,5.32,0,0,0,5.76,4l20.31-2.09a1.92,1.92,0,0,0,1.73-1.31l.27-.67a2.24,2.24,0,0,1,4.09-.1h0a2.56,2.56,0,0,0,2.39,1.37l4-.41a1.89,1.89,0,0,0,1.69-2.45l-6.68-21.11A2.38,2.38,0,0,0,904.9,578.94Z" transform="translate(14.92 0.96)"/><path class="cls-2" d="M893.48,482.28l5.75,78.53a2.25,2.25,0,0,1-1.35,2.24L883,568.21a1.5,1.5,0,0,1-2-1.18L863.43,495l27.89-14.15A1.49,1.49,0,0,1,893.48,482.28Z" transform="translate(14.92 0.96)"/><polygon class="cls-9" points="956.97 549.46 939.52 550.87 948.02 590.28 959.7 589.31 956.97 549.46"/><path class="cls-3" d="M948.54,584.21l-18.79-.73.15,7.08-17.65,11.11a4.87,4.87,0,0,0-2.12,3.64c0,2.31,2.36,4.38,5.25,4.35l22.39-.4,3.83-7,1.59,6.91,8.31-.16Z" transform="translate(14.92 0.96)"/><path class="cls-2" d="M928.74,484.24l7.26-65.7.1-2a208.39,208.39,0,0,1,9.58-52.33c3.39-10.88,4.13-27.53-7.7-48-17.25-26.4-36.29-6.59-36.59-6.32l-9,3.41,5.88-.66c-18.75,1.59-16.57,58.1-11.12,97.43l9.53,75.54,32.53,87.35,19-1.24Z" transform="translate(14.92 0.96)"/><path class="cls-9" d="M845.4,353.4a8.06,8.06,0,0,0,5.57-9.71c-.13-.52-.25-.92-.37-1.31l19.67-19.54-13.61-3.41-16.7,19a8.29,8.29,0,0,0-3.22,10.88,7.37,7.37,0,0,0,8.66,4.07Z" transform="translate(14.92 0.96)"/><path class="cls-10" d="M860.26,336.47l-9.16-13.78,34.52-37.77,8-59.54c1.49-11,11.14-18.75,21.66-17.18a17,17,0,0,1,3.46.92h0c10,3.54,15.34,15.08,12,25.7l-20.41,64.27Z" transform="translate(14.92 0.96)"/><path class="cls-10" d="M929.17,200.73h0l-27,.26L888,236.66c-13.23,21.77-.62,34.23.37,36.2l-2.47,26.75-1.61,17.31-2.6,27.81,61.49-21.25-6.8-29,7.92-42C947.61,233.78,942,214.23,929.17,200.73Z" transform="translate(14.92 0.96)"/><path class="cls-11" d="M891.44,188.92V164.4c0-18.23,13.85-32.92,31-32.92s31.06,14.69,31.06,32.92v24.52a4.31,4.31,0,0,1-4.21,4.46h-53.7A4.3,4.3,0,0,1,891.44,188.92Z" transform="translate(14.92 0.96)"/><ellipse class="cls-12" cx="929.74" cy="169.82" rx="22.77" ry="24.13"/><path class="cls-11" d="M884,166.37c0-14.43,11-26,24.5-26h4.58c13.61,0,24.5,11.67,24.5,26v.52h-9.78l-3.34-10-.62,10h-5.07l-1.73-5-.37,5H884v-.52Z" transform="translate(14.92 0.96)"/><polygon class="cls-13" points="943.89 250.16 926.74 286.58 900.23 307.82 901.93 290.84 896.13 290.11 917.7 274.9 943.89 250.16"/><path class="cls-9" d="M805.46,313.36a7.4,7.4,0,0,0,9.12-5.83l.18-1.43,25.86-7.57-10.69-9.73-23,8.68a7.67,7.67,0,0,0-7.52,8.07A8.28,8.28,0,0,0,805.46,313.36Z" transform="translate(14.92 0.96)"/><path class="cls-10" d="M821.22,304.47l-2.31-16.61,46.87-16.43,32.49-48.67a18.35,18.35,0,0,1,26.61-4.55,21.22,21.22,0,0,1,2.71,2.41h0a21.18,21.18,0,0,1-.19,28.64l-45.62,46.61Z" transform="translate(14.92 0.96)"/><path class="cls-6" d="M551,273.51a4.3,4.3,0,0,1-4-2.24,4.78,4.78,0,0,1-.21-4.68L576,197.21a4.59,4.59,0,0,1,4.48-3.26,4.54,4.54,0,0,1,4.58,3.26l29.24,69.58a4.67,4.67,0,0,1-.36,4.58,4.46,4.46,0,0,1-4,2.14,4.78,4.78,0,0,1-4.38-2.95l-26.38-64.79h3l-26.59,64.79a4.36,4.36,0,0,1-1.83,2.24A5.14,5.14,0,0,1,551,273.51Zm5.91-18,3.77-8h40.44l3.67,8Z" transform="translate(14.92 0.96)"/><path class="cls-6" d="M631.1,273.51a4.7,4.7,0,0,1-4.79-4.78v-70a4.6,4.6,0,0,1,1.38-3.47,4.77,4.77,0,0,1,8.2,3.47v70a4.76,4.76,0,0,1-1.33,3.41A4.59,4.59,0,0,1,631.1,273.51Z" transform="translate(14.92 0.96)"/></svg>