<svg id="Warstwa_1" data-name="Warstwa 1" xmlns="http://www.w3.org/2000/svg" viewBox="0 0 1099.84 611.07"><defs><style>.cls-1{fill:#a0616a;}.cls-2{fill:#a5a19d;}.cls-3{fill:#282524;}.cls-4{fill:#565350;}.cls-5{fill:#efefef;}.cls-6{fill:#fff;}.cls-7{fill:#cccbcb;}.cls-8{fill:#e3e2e2;}.cls-9{fill:#f5b3b6;}.cls-10{fill:#f4f3f2;}.cls-11{fill:#2f2f41;}.cls-12{fill:#f5b4b6;}.cls-13{fill:#d4d2d1;}.cls-14{fill:none;stroke:#fff;stroke-linecap:round;stroke-linejoin:round;stroke-width:6px;}</style></defs><path class="cls-1" d="M254.18,286.33a7.58,7.58,0,0,1-11.35.14,6.7,6.7,0,0,1-1-1.13l-27.44,8.56,4.35-15.29,25.33-5.82a7.78,7.78,0,0,1,11.17,2.9,9,9,0,0,1-1.11,10.64Z" transform="translate(1.42 -0.27)"/><path class="cls-2" d="M234.93,290.66l-65.55,12.66-.12,0-61.44-43.64c-9-8.59-10.3-23.34-2.82-33.61h0c7.83-10.72,22.11-12.46,32.09-4.16a22.69,22.69,0,0,1,2.07,1.9l42.68,45.8L232,275.73Z" transform="translate(1.42 -0.27)"/><polygon class="cls-1" points="100.36 597.11 110.92 597.11 116.03 552.9 100.36 552.9 100.36 597.11"/><path class="cls-3" d="M96.14,593.59h3l11.66-5.1,6.31,5.1h0c7.41,0,13.36,6.41,13.36,14.39v.52H96.27Z" transform="translate(1.42 -0.27)"/><polygon class="cls-1" points="141.53 589.92 151.97 592.4 165.94 550.55 150.64 546.75 141.53 589.92"/><path class="cls-3" d="M138.29,585.87l2.91.66,12.39-2.23,5.1,6.54h0c7.16,1.7,11.66,9.42,10.08,17.14l-.12.39-33.4-8.11Z" transform="translate(1.42 -0.27)"/><path class="cls-4" d="M85.46,327.28C80.48,343.5,81,361,86.67,380L89.1,486.2s-3.64,69.72,8,94.18H114l8.38-100.59,1.09-67.49,36.19,56.9L136.59,578.68l20.76,2,37.41-118.77L148.61,346.64Z" transform="translate(1.42 -0.27)"/><path class="cls-2" d="M151.52,350l-61.33-10.6c-6.19-2.09-9.59-9.15-7.53-15.83a13.15,13.15,0,0,1,.73-1.83l2.8-6-1.1-62.92c-.24-16.61,7.77-32.18,21-40.81l6-3.79,3-8.24,27.81.78.12,10.86,10,17.13v.13l-.61,93.27-2.79,9.68,4.13,11.24Z" transform="translate(1.42 -0.27)"/><ellipse class="cls-1" cx="132.91" cy="162.2" rx="25.26" ry="27.21"/><path class="cls-3" d="M105.13,168.35c-.73-3.4-.36-8.24,0-11.64A33.38,33.38,0,0,1,118,134a8.76,8.76,0,0,1,4.62-2,4.09,4.09,0,0,1,4,2.62,8.36,8.36,0,0,1,4.73-5,12.85,12.85,0,0,1,6.68-.92c9,.79,16.76,6.8,20.41,15.7.73,1.7,2.55-4.71,3.4-3a6.9,6.9,0,0,0,3.88,3.66c1.7.52,2.31,8,3,6.28a8.51,8.51,0,0,1-4,10.86,7.37,7.37,0,0,1-3.28.65,29.93,29.93,0,0,1-5-1.05c-6.31-.91-12.14,3.53-13.72,10.07a19.5,19.5,0,0,0-2.19-5.23A5.37,5.37,0,0,0,136.1,164a6.45,6.45,0,0,0-4.37,2.74c-1.1,1.44-1.95,3-3,4.45-3.28,4.06-7.77,13.74-12.39,13C112.17,183.4,106.1,173.06,105.13,168.35Z" transform="translate(1.42 -0.27)"/><path class="cls-1" d="M206,359.44a8.11,8.11,0,0,1-9.05-7.37,6.69,6.69,0,0,1-.11-1.53l-26.56-11.31L182.4,330l23.33,12.1a8.6,8.6,0,0,1,7.2,9.65,8.29,8.29,0,0,1-6.93,7.69Z" transform="translate(1.42 -0.27)"/><path class="cls-2" d="M190.41,349.55,128.23,323.9l-.08-.17-31.6-71.68C93,239.69,99,226.29,110.28,221.7h0c11.86-4.83,24.95,1.59,29.43,14.36l.81,2.69L155,301.7l39.9,33.17Z" transform="translate(1.42 -0.27)"/><path class="cls-5" d="M809.17,456.58a18.31,18.31,0,0,1,2,1.3,216.22,216.22,0,0,1,26.16,19.29c.58.58,1.3,1.08,1.95,1.66a200.33,200.33,0,0,1,58.31,88.87c4.19,13.29,7.65,28.1,16,38.94a39.94,39.94,0,0,0,2.82,3.32l75.94.15a1.38,1.38,0,0,1,.58-.22l3,.15a12.9,12.9,0,0,0-.43-1.59c-.08-.29-.15-.58-.22-.87s-.14-.36-.14-.58-.08-.07,0-.22-.15-.36-.08-.5c-.72-3-1.51-5.85-2.31-8.74h0c-6.21-22.33-14.38-44.37-25.86-64.45-.37-.58-.73-1.3-1.09-1.88A197.93,197.93,0,0,0,948,505.35a152.09,152.09,0,0,0-48.55-38.88c-27.16-13.65-58.74-18.85-87.78-10.62C810.69,456.14,810,456.36,809.17,456.58Z" transform="translate(1.42 -0.27)"/><path class="cls-6" d="M809.39,457.44c37.35,7.08,72.54,25.44,98.33,52.1,5.56,5.7,10.69,12,14.16,19.21a39.89,39.89,0,0,1,3.61,22.18c-.72,7.16-2.31,14.31-1.15,21.39,1.15,7.51,5.92,13.58,12.57,17.85,8,5.13,17.7,7.22,27.09,9,10.48,2,21.39,3.75,30.06,9.89a1,1,0,0,0,1.23-1.59c-15.1-10.76-35.55-8.59-52.1-16.18-7.73-3.54-14.37-9.32-16.25-17.56-1.66-7.22,0-14.52.79-21.74a42.82,42.82,0,0,0-2.67-21.9c-3-7.22-7.88-13.72-13.29-19.57A173.77,173.77,0,0,0,868.85,477a192,192,0,0,0-59.17-21.53A1,1,0,1,0,809.39,457.44Z" transform="translate(1.42 -0.27)"/><path class="cls-6" d="M934.36,547.47a55,55,0,0,1-37.21-9.61,1,1,0,0,0-1.23,1.59,57.54,57.54,0,0,0,38.8,10,1,1,0,1,0-.36-1.95Z" transform="translate(1.42 -0.27)"/><path class="cls-6" d="M930.55,576.15c14.38-10,27.1-24.64,35.62-41.18.94-1.66,2.6-1,1.81.58-8.89,17.19-22.18,32.51-37.14,42.77-1.37,1-1.66-1.23-.29-2.17Z" transform="translate(1.42 -0.27)"/><path class="cls-5" d="M1084.88,515.75c-.44.22-.87.58-1.23.79a115.89,115.89,0,0,0-15.53,12.07c-.37.36-.73.65-1.16,1.08a110.1,110.1,0,0,0-32.08,54.84c-2,8.17-3.32,17.2-8,23.92a22.43,22.43,0,0,1-1.59,2l-48.19.87a.7.7,0,0,0-.36-.15l-2,.15c0-.29.14-.65.14-.94s.08-.36.08-.58.07-.22.07-.36v-.15c0-.14.07-.21,0-.29.29-1.8.65-3.61,1-5.34h0c2.67-13.66,6.65-27.24,12.86-39.6.22-.36.36-.79.58-1.15a111.43,111.43,0,0,1,10-16,76.78,76.78,0,0,1,6.79-7.87,85.88,85.88,0,0,1,21.89-16.33c16.47-8.6,36.2-12.14,55.13-7.37A9.49,9.49,0,0,1,1084.88,515.75Z" transform="translate(1.42 -0.27)"/><path class="cls-6" d="M1084.81,516.26c-23.34,4.69-44.66,16.25-59.54,32.8a40.7,40.7,0,0,0-7.95,11.85,22.92,22.92,0,0,0-1.08,13.58c.87,4.33,2.24,8.74,1.88,13.08-.36,4.62-3,8.38-7,11-4.84,3.18-10.84,4.55-16.69,5.71-6.57,1.3-13.37,2.53-18.57,6.36-.65.43-1.44-.51-.86-.94,9-6.72,22-5.64,32.15-10.41,4.69-2.24,8.59-5.85,9.39-10.83.65-4.41-.8-8.89-1.74-13.3a24.73,24.73,0,0,1,.51-13.37,37.22,37.22,0,0,1,7.37-12.06A100.21,100.21,0,0,1,1048,528.9a116.78,116.78,0,0,1,36.34-13.73C1085.38,515,1085.6,516.11,1084.81,516.26Z" transform="translate(1.42 -0.27)"/><path class="cls-6" d="M1029.75,543.49c-6-5.92-6.57-14.59-1.52-20.52.51-.57,1.59.15,1.09.73-4.77,5.49-4.19,13.65,1.37,19.14.65.51-.36,1.16-.94.65Z" transform="translate(1.42 -0.27)"/><path class="cls-6" d="M1015.52,572.39a34.52,34.52,0,0,0,23.12-6.21c.65-.43,1.44.51.86.94a36,36,0,0,1-24.06,6.5c-.93-.14-.79-1.3.08-1.23Z" transform="translate(1.42 -0.27)"/><path class="cls-5" d="M248.43,197.48c-22.54-49.92-21.67-113.29,13.22-155.34a252.77,252.77,0,0,0,90.39,148c18,14.16,39.59,28.25,44.43,50.65,3.11,13.94-1.3,28.75-8.81,40.89s-18,22.18-28.4,32.08l-1.15,3.33C313.17,285.84,271,247.48,248.43,197.48Z" transform="translate(1.42 -0.27)"/><path class="cls-6" d="M262.66,42.79c-8.09,44.08-2,91.18,17.56,131.64,4.26,8.67,9.32,17.27,16.11,24.35a53.14,53.14,0,0,0,24.21,14.16c8.45,2.53,17.55,4.05,25.28,8.6,8.24,4.77,13.23,12.79,15.25,22,2.38,11.2.72,22.69-1.45,33.75-2.38,12.28-4.91,25-1.51,37.42.36,1.52-1.88,2-2.39.58-5.85-21.6,5.64-42.77,3.9-64.52-.72-10.12-4.55-20-13.22-25.87-7.66-5.13-16.83-6.79-25.5-9.17-9-2.6-17.27-6.43-24.21-13-7.15-6.64-12.5-15-16.9-23.62a212,212,0,0,1-20.16-62.21,217.52,217.52,0,0,1,.72-74.63c.22-1.74,2.6-1,2.31.57Z" transform="translate(1.42 -0.27)"/><path class="cls-6" d="M273.14,161.65a32.35,32.35,0,0,1-38.73-16.12,1.25,1.25,0,0,1,2.17-1.22,29.83,29.83,0,0,0,36,14.88c1.52-.43,2.1,1.95.58,2.46Z" transform="translate(1.42 -0.27)"/><path class="cls-6" d="M258.69,92.72A18,18,0,0,0,273,83c.72-1.45,2.74-.15,2,1.3A20.11,20.11,0,0,1,259.2,95.1a1.2,1.2,0,0,1-1.45-.94A1.5,1.5,0,0,1,258.69,92.72Z" transform="translate(1.42 -0.27)"/><path class="cls-5" d="M434.47,1.32a12.49,12.49,0,0,0-1.15,2.6,240.77,240.77,0,0,0-13.8,36c-.22.94-.58,1.88-.87,3a246.25,246.25,0,0,0-7.73,91.83A256.44,256.44,0,0,0,417.57,171c4.41,16.4,10.47,34,9,50.43a41.36,41.36,0,0,1-.72,5.13l-76.3,45.88a1.33,1.33,0,0,0-.72.14l-3,2c-.22-.57-.36-1.3-.58-1.87-.15-.37-.22-.73-.36-1.09a1.91,1.91,0,0,1-.22-.72c0-.14,0-.14-.14-.22a2.38,2.38,0,0,1-.22-.58c-1.16-3.54-2.24-7-3.32-10.54h0c-8.24-27.1-14.31-55.13-15.75-83,0-.79-.15-1.73-.15-2.6a236.77,236.77,0,0,1,1.3-37.86,188,188,0,0,1,3.61-20.37,172.31,172.31,0,0,1,20-49.49c18.42-30.71,46.81-55.2,81.35-64.09Z" transform="translate(1.42 -0.27)"/><path class="cls-6" d="M434.84,2.41c-33,29.91-56.5,70.37-65.25,113.72-1.87,9.39-3,19-1.8,28.61a51.89,51.89,0,0,0,10.76,25.43c5.35,7,11.56,13.58,15,21.68,3.69,8.52,2.89,17.84-1.08,26.29-4.77,10.19-13.08,18.21-21.46,25.65-9.32,8.31-19.07,16.77-23.84,28.47-.58,1.37-2.75.43-2.24-.94,8.23-20.37,30.13-30.34,42-48.33,5.5-8.31,8.46-18.43,5-28.11-3-8.53-9.39-15.24-14.88-22.25-5.71-7.37-9.9-15.39-11.42-24.5-1.66-9.39-.94-19.14.72-28.46A201.94,201.94,0,0,1,387.8,58.83,216.86,216.86,0,0,1,433.32.67C434.55-.56,436,1.32,434.84,2.41Z" transform="translate(1.42 -0.27)"/><path class="cls-6" d="M371.62,102a31.7,31.7,0,0,1-21.24-35.55,1.2,1.2,0,0,1,2.38.36,29.48,29.48,0,0,0,19.8,33.09c1.59.29.5,2.53-.94,2.1Z" transform="translate(1.42 -0.27)"/><path class="cls-6" d="M375.45,167a61.78,61.78,0,0,0,31.21-32.51c.58-1.37,2.74-.43,2.24.94a64.52,64.52,0,0,1-32.51,33.74,1.18,1.18,0,1,1-.94-2.17Z" transform="translate(1.42 -0.27)"/><path class="cls-6" d="M401.67,39.33a18.59,18.59,0,0,0,17.42.79c1.44-.72,2.24,1.52.86,2.24a21,21,0,0,1-19.22-.79,1.12,1.12,0,0,1-.57-1.52,1,1,0,0,1,1.51-.72Z" transform="translate(1.42 -0.27)"/><path class="cls-5" d="M777.73,156.83C755.18,106.9,756.05,43.54,791.09,1.49a252.56,252.56,0,0,0,90.39,148c18,14.16,39.59,28.25,44.43,50.65,3.11,13.94-1.3,28.75-8.81,40.89s-18,22.18-28.4,32.08l-1.15,3.32C842.46,245.19,800.27,206.83,777.73,156.83Z" transform="translate(1.42 -0.27)"/><path class="cls-6" d="M792,2.07c-8.09,44.07-2,91.18,17.56,131.64,4.26,8.67,9.32,17.27,16.11,24.35a53.19,53.19,0,0,0,24.2,14.16c8.45,2.53,17.56,4,25.29,8.6,8.24,4.76,13.22,12.78,15.24,22,2.39,11.2.73,22.69-1.44,33.74-2.39,12.28-4.91,25-1.52,37.43.36,1.51-1.88,2-2.38.57-5.85-21.6,5.63-42.77,3.9-64.51-.72-10.12-4.55-20-13.22-25.87C868,179,858.86,177.35,850.19,175c-9-2.6-17.27-6.43-24.2-13-7.15-6.65-12.5-15-16.91-23.63a212,212,0,0,1-20.16-62.2,217.83,217.83,0,0,1,.73-74.64c.29-1.66,2.67-.94,2.31.58Z" transform="translate(1.42 -0.27)"/><path class="cls-6" d="M802.44,121a32.32,32.32,0,0,1-38.73-16.11,1.25,1.25,0,0,1,2.17-1.23,29.83,29.83,0,0,0,36,14.89c1.51-.44,2.09,1.95.58,2.45Z" transform="translate(1.42 -0.27)"/><path class="cls-6" d="M845.35,171.5a62.51,62.51,0,0,0,5-45.16c-.36-1.52,1.88-2,2.38-.58a65.1,65.1,0,0,1-5.34,47c-.73,1.38-2.75.08-2-1.22Z" transform="translate(1.42 -0.27)"/><path class="cls-6" d="M788,52.07a18,18,0,0,0,14.3-9.76c.72-1.44,2.75-.14,2,1.3a20.08,20.08,0,0,1-15.82,10.84,1.2,1.2,0,0,1-1.44-.94C787.05,52.86,787.41,52.14,788,52.07Z" transform="translate(1.42 -0.27)"/><path class="cls-5" d="M959.36,53.87a12.23,12.23,0,0,0-1,2.17,201.55,201.55,0,0,0-11.63,29.77c-.22.79-.51,1.51-.72,2.45a199.78,199.78,0,0,0-6.51,75.94,202.7,202.7,0,0,0,5.64,30.05c3.68,13.59,8.81,28.11,7.66,41.69a28.43,28.43,0,0,1-.58,4.27l-64.3,37.93a1.44,1.44,0,0,0-.58.07l-2.53,1.66c-.22-.5-.29-1.08-.51-1.52-.07-.29-.21-.57-.28-.86a2.3,2.3,0,0,0-.22-.58c0-.07,0-.07-.07-.22s-.08-.36-.22-.5c-1-2.89-1.88-5.86-2.82-8.75h0c-6.93-22.39-12.06-45.59-13.29-68.63,0-.65-.07-1.45-.07-2.17a195.52,195.52,0,0,1,1.08-31.29,160.43,160.43,0,0,1,3-16.83,140.74,140.74,0,0,1,16.91-40.89C904,82.34,927.79,62,957,54.67A19.6,19.6,0,0,1,959.36,53.87Z" transform="translate(1.42 -0.27)"/><path class="cls-6" d="M959.65,54.74c-27.81,24.71-47.61,58.16-55,94-1.59,7.73-2.53,15.68-1.52,23.62a42.25,42.25,0,0,0,9,21c4.56,5.85,9.76,11.27,12.65,17.92,3.1,7.08,2.38,14.73-.94,21.74-4,8.46-11.06,15-18.06,21.24-7.81,6.87-16,13.88-20.09,23.56-.51,1.15-2.31.36-1.88-.8,6.94-16.83,25.43-25.14,35.33-40,4.63-6.86,7.15-15.25,4.19-23.27-2.53-7.08-8-12.57-12.57-18.42-4.84-6.14-8.31-12.72-9.61-20.23-1.37-7.73-.79-15.82.58-23.55a163.94,163.94,0,0,1,18.06-50.29,177.08,177.08,0,0,1,38.37-48C959.43,52.36,960.66,53.87,959.65,54.74Z" transform="translate(1.42 -0.27)"/><path class="cls-6" d="M906.4,137c-12.64-4.26-20.15-16.69-17.84-29.4.21-1.23,2.24-.94,2,.29-2.24,11.84,4.91,23.48,16.69,27.31,1.23.36.36,2.24-.87,1.8Z" transform="translate(1.42 -0.27)"/><path class="cls-6" d="M903.65,179.86A51.33,51.33,0,0,0,930,153a1,1,0,0,1,1.88.8,53.37,53.37,0,0,1-27.45,27.89,1,1,0,1,1-.73-1.81Z" transform="translate(1.42 -0.27)"/><path class="cls-6" d="M931.76,85.3a15.94,15.94,0,0,0,14.67.65c1.23-.58,1.88,1.23.72,1.81A18,18,0,0,1,931,87.11a.93.93,0,0,1-.51-1.23C930.53,85.3,931.11,85,931.76,85.3Z" transform="translate(1.42 -0.27)"/><path class="cls-7" d="M315.18,473.92H896V137.74a9.53,9.53,0,0,0-9.54-9.54H324.72a9.53,9.53,0,0,0-9.54,9.54Z" transform="translate(1.42 -0.27)"/><path class="cls-8" d="M314.67,464.89v41.47a13,13,0,0,0,13.08,13.07H542.12v81.94h-2.89a1.64,1.64,0,0,0-1.67,1.66h0v5.71a1.65,1.65,0,0,0,1.67,1.66h133a1.64,1.64,0,0,0,1.66-1.66h0V603a1.63,1.63,0,0,0-1.66-1.66h-2.89V519.43H883.71a13.09,13.09,0,0,0,13.15-13.07h0V464.89Z" transform="translate(1.42 -0.27)"/><rect class="cls-6" x="334.59" y="141.01" width="544.91" height="309.37"/><path class="cls-2" d="M502.59,294.38H369.8c-1.88,0-3.47-3.07-3.47-7V178.52c0-3.79,1.52-7,3.47-7H502.59c1.88,0,3.47,3.07,3.47,7V287.37C506.06,291.31,504.47,294.38,502.59,294.38Z" transform="translate(1.42 -0.27)"/><path class="cls-2" d="M490,320.24H382.44a4.24,4.24,0,0,1-4.19-4.19,4.2,4.2,0,0,1,4.19-4.19H490C495.3,311.79,495.44,320.24,490,320.24Z" transform="translate(1.42 -0.27)"/><path class="cls-2" d="M490,339.46H382.44a4.19,4.19,0,0,1,0-8.38H490C495.3,331,495.44,339.46,490,339.46Z" transform="translate(1.42 -0.27)"/><path class="cls-2" d="M490,358.61H382.44a4.2,4.2,0,0,1,0-8.39H490C495.3,350.15,495.44,358.61,490,358.61Z" transform="translate(1.42 -0.27)"/><path class="cls-2" d="M672,294.38H539.15c-1.88,0-3.46-3.1-3.46-7.09V177.23c0-3.83,1.51-7.08,3.46-7.08H672c1.88,0,3.47,3.1,3.47,7.08V287.29C675.42,291.28,673.9,294.38,672,294.38Z" transform="translate(1.42 -0.27)"/><path class="cls-2" d="M659.3,320.24H551.8a4.24,4.24,0,0,1-4.19-4.19,4.19,4.19,0,0,1,4.19-4.19H659.3C664.72,311.79,664.8,320.24,659.3,320.24Z" transform="translate(1.42 -0.27)"/><path class="cls-2" d="M659.3,339.46H551.8a4.19,4.19,0,1,1,0-8.38H659.3C664.72,331,664.8,339.46,659.3,339.46Z" transform="translate(1.42 -0.27)"/><path class="cls-2" d="M659.3,358.61H551.8a4.2,4.2,0,0,1,0-8.39H659.3C664.72,350.15,664.8,358.61,659.3,358.61Z" transform="translate(1.42 -0.27)"/><path class="cls-2" d="M841.38,294.38H708.58c-1.88,0-3.47-3.12-3.47-7.13V176.59c0-3.85,1.52-7.12,3.47-7.12h132.8c1.87,0,3.46,3.12,3.46,7.12V287.25C844.84,291.26,843.25,294.38,841.38,294.38Z" transform="translate(1.42 -0.27)"/><path class="cls-2" d="M828.73,320.24H721.22a4.24,4.24,0,0,1-4.19-4.19,4.2,4.2,0,0,1,4.19-4.19H828.73C834.08,311.79,834.22,320.24,828.73,320.24Z" transform="translate(1.42 -0.27)"/><path class="cls-2" d="M828.73,339.46H721.22a4.19,4.19,0,0,1,0-8.38H828.73C834.08,331,834.22,339.46,828.73,339.46Z" transform="translate(1.42 -0.27)"/><path class="cls-2" d="M828.73,358.61H721.22a4.2,4.2,0,0,1,0-8.39H828.73C834.08,350.15,834.22,358.61,828.73,358.61Z" transform="translate(1.42 -0.27)"/><circle class="cls-6" cx="925.16" cy="219.62" r="1.88"/><path class="cls-7" d="M1096.9,611.34H0a1.37,1.37,0,0,1-1.44-1.45A1.36,1.36,0,0,1,0,608.45H1097a1.36,1.36,0,0,1,1.44,1.44A1.56,1.56,0,0,1,1096.9,611.34Z" transform="translate(1.42 -0.27)"/><path class="cls-2" d="M909.5,325.19h0l.1-.13c.36-.22,38.44-18.08,49,10.38,8.9,29.18-9.91,45.06-17.39,63.53L922,434l-14.34,63.49c-.31.88-4.87-.29-5.64-.27l-25.08-1.78,8.11-59C891.76,396.82,892.82,361,909.5,325.19Z" transform="translate(1.42 -0.27)"/><path class="cls-9" d="M906.23,543.29l-12.48,1.28a1.92,1.92,0,0,0-1.71,2.52l12.73,35.8a2.32,2.32,0,0,0,2.44,1.45l7.45-.77a2,2,0,0,0,1.8-2.34l-7.77-36.32A2.23,2.23,0,0,0,906.23,543.29Z" transform="translate(1.42 -0.27)"/><path class="cls-3" d="M918.4,579.44l-14.19.71a1.91,1.91,0,0,0-1.87,2.32l.91,3.87a1.77,1.77,0,0,1-.6,1.78l-14,12a3.63,3.63,0,0,0-1.38,3.74,5.32,5.32,0,0,0,5.76,4l20.31-2.09a1.92,1.92,0,0,0,1.73-1.31l.27-.67a2.24,2.24,0,0,1,4.09-.1h0a2.56,2.56,0,0,0,2.39,1.37l4-.41a1.89,1.89,0,0,0,1.69-2.45l-6.68-21.11A2.38,2.38,0,0,0,918.4,579.44Z" transform="translate(1.42 -0.27)"/><path class="cls-2" d="M907,482.78l5.75,78.53a2.25,2.25,0,0,1-1.35,2.24l-14.91,5.16a1.5,1.5,0,0,1-2-1.18l-17.54-72.06,27.89-14.15A1.49,1.49,0,0,1,907,482.78Z" transform="translate(1.42 -0.27)"/><polygon class="cls-9" points="956.97 548.73 939.52 550.14 948.02 589.55 959.7 588.58 956.97 548.73"/><path class="cls-3" d="M962,584.71,943.25,584l.15,7.08-17.65,11.11a4.87,4.87,0,0,0-2.12,3.64c0,2.31,2.36,4.38,5.25,4.35l22.39-.4,3.83-7,1.59,6.91,8.31-.16Z" transform="translate(1.42 -0.27)"/><path class="cls-2" d="M942.24,484.74,949.5,419l.1-2a208.39,208.39,0,0,1,9.58-52.33c3.39-10.88,4.13-27.53-7.7-48-17.25-26.4-36.29-6.59-36.59-6.32l-9,3.41,5.88-.66c-18.75,1.59-16.57,58.1-11.12,97.43l9.53,75.54,32.53,87.35,19-1.24Z" transform="translate(1.42 -0.27)"/><path class="cls-9" d="M858.9,353.9a8.06,8.06,0,0,0,5.57-9.71c-.13-.52-.25-.92-.37-1.31l19.67-19.54-13.61-3.41-16.7,19a8.29,8.29,0,0,0-3.22,10.88,7.37,7.37,0,0,0,8.66,4.07Z" transform="translate(1.42 -0.27)"/><path class="cls-10" d="M873.76,337l-9.16-13.78,34.52-37.77,8-59.54c1.49-11,11.14-18.75,21.66-17.18a17,17,0,0,1,3.46.92h0c10,3.54,15.34,15.08,12,25.7l-20.41,64.27Z" transform="translate(1.42 -0.27)"/><path class="cls-10" d="M942.67,201.23h0l-27,.26-14.23,35.67c-13.23,21.77-.62,34.23.37,36.2l-2.47,26.75-1.61,17.31-2.6,27.81L956.65,324l-6.8-29,7.92-42C961.11,234.28,955.54,214.73,942.67,201.23Z" transform="translate(1.42 -0.27)"/><path class="cls-11" d="M904.94,189.42V164.9c0-18.23,13.85-32.92,31-32.92s31.06,14.69,31.06,32.92v24.52a4.31,4.31,0,0,1-4.21,4.46h-53.7A4.3,4.3,0,0,1,904.94,189.42Z" transform="translate(1.42 -0.27)"/><ellipse class="cls-12" cx="929.74" cy="169.09" rx="22.77" ry="24.13"/><path class="cls-11" d="M897.51,166.87c0-14.43,11-26,24.5-26h4.58c13.61,0,24.5,11.67,24.5,26v.52h-9.78l-3.34-10-.62,10h-5.07l-1.73-5-.37,5H897.51v-.52Z" transform="translate(1.42 -0.27)"/><polygon class="cls-13" points="943.89 249.44 926.74 285.85 900.23 307.09 901.93 290.11 896.13 289.38 917.7 274.17 943.89 249.44"/><path class="cls-9" d="M819,313.86a7.4,7.4,0,0,0,9.12-5.83l.18-1.43L854.12,299l-10.69-9.73-23,8.68a7.67,7.67,0,0,0-7.52,8.07A8.28,8.28,0,0,0,819,313.86Z" transform="translate(1.42 -0.27)"/><path class="cls-10" d="M834.72,305l-2.31-16.61,46.87-16.43,32.49-48.67a18.35,18.35,0,0,1,26.61-4.55,21.22,21.22,0,0,1,2.71,2.41h0a21.18,21.18,0,0,1-.19,28.64l-45.62,46.61Z" transform="translate(1.42 -0.27)"/><path class="cls-6" d="M490.58,197.36H383.07a4.24,4.24,0,0,1-4.19-4.2,4.2,4.2,0,0,1,4.19-4.19H490.58C495.92,188.9,496.07,197.36,490.58,197.36Z" transform="translate(1.42 -0.27)"/><path class="cls-6" d="M490.58,216.57H383.07a4.19,4.19,0,0,1,0-8.38H490.58C495.92,208.12,496.07,216.57,490.58,216.57Z" transform="translate(1.42 -0.27)"/><path class="cls-6" d="M490.58,235.72H383.07a4.19,4.19,0,0,1,0-8.38H490.58C495.92,227.27,496.07,235.72,490.58,235.72Z" transform="translate(1.42 -0.27)"/><path class="cls-6" d="M490.58,256.88H383.07a4.19,4.19,0,0,1,0-8.38H490.58C495.92,248.43,496.07,256.88,490.58,256.88Z" transform="translate(1.42 -0.27)"/><path class="cls-6" d="M490.58,276H383.07a4.19,4.19,0,0,1,0-8.38H490.58C495.92,267.58,496.07,276,490.58,276Z" transform="translate(1.42 -0.27)"/><line class="cls-14" x1="626.46" y1="197.21" x2="654.8" y2="197.21"/><polyline class="cls-14" points="552.76 273.74 575.43 251.07 617.95 239.73 654.8 197.21 654.8 225.55"/><line class="cls-14" x1="739.84" y1="191.54" x2="739.84" y2="276.58"/><line class="cls-14" x1="819.21" y1="276.58" x2="819.21" y2="191.54"/><line class="cls-14" x1="722.83" y1="259.57" x2="836.22" y2="259.57"/><line class="cls-14" x1="722.83" y1="208.55" x2="836.22" y2="208.55"/><line class="cls-14" x1="776.69" y1="276.58" x2="776.69" y2="191.54"/></svg>