<svg id="Warstwa_1" data-name="Warstwa 1" xmlns="http://www.w3.org/2000/svg" viewBox="0 0 1086.5 587.43"><defs><style>.cls-1{fill:#f4f3f2;}.cls-2{fill:#e5e3e2;}.cls-3{fill:#cccbcb;}.cls-4{fill:#fff;}.cls-5{fill:#e6e5e5;}.cls-6{fill:#d4d2d1;}.cls-7{fill:#5481c1;}.cls-8{fill:#cac9c9;}.cls-9{fill:#a0616a;}.cls-10{fill:#282524;}.cls-11{fill:#565350;}.cls-12{fill:#f49d12;}.cls-13{fill:#f6bfc9;}.cls-14{fill:#f5b4b6;}.cls-15{fill:#a5a19d;}.cls-16{fill:#1b1917;}</style></defs><path class="cls-1" d="M855.18,515.14c21.32-6.39,44.05-13.11,61-28.38,15.09-13.6,25.38-34.42,19.08-54.83s-25-34-44.3-40.74c-11-3.81-22.49-6-33.93-7.63-12.45-1.82-25-3.32-37.5-4.73q-76-8.7-152.65-10.62c-25.22-.66-50.44-.58-75.66-.25-22.48.34-46.21.34-67.11-9.29-16.26-7.46-31-21-35.51-38.74-5.23-20.57,4.4-41.48,18.25-56.33,7.3-7.88,15.76-14.43,24.56-20.49,9.54-6.55,19.41-12.69,29.45-18.42a412.63,412.63,0,0,1,62-28.62c10.54-3.81,21.32-7.13,32.11-10.2,9.12-2.57,18.33-5.15,27.13-8.71,17.09-6.81,33.35-18.34,37.66-37.25,4.15-17.92-2.82-37.33-15-50.69C690.67,73.79,669.52,67.07,649.11,66c-22.82-1.24-45.13,4.48-66.62,11.78-22.9,7.72-45.3,16.59-68.69,22.9a453.72,453.72,0,0,1-70.68,13.11c-11.7,1.24-23.73,2.65-35.51,1.65-9.87-.83-19.66-3.73-26.88-10.7-6.22-6-10-14.27-8.63-22.89.25-1.58,2.66-.92,2.41.66-1.58,10.62,5.64,20.32,14.52,25.3,10.2,5.81,22.73,5.81,34.09,5.15a447.9,447.9,0,0,0,73.42-10.62c23.73-5.4,46.63-13.19,69.44-21.41,21.74-7.88,43.89-15.51,67-17.25,20.08-1.5,41.32,1.49,58.82,11.94a65.1,65.1,0,0,1,30.37,42.31c3.56,17.26-1.33,34.68-14.44,46.71-13.52,12.44-32.11,17.84-49.44,22.73a451.27,451.27,0,0,0-64.22,23,399.73,399.73,0,0,0-60.39,33.93c-18.42,12.61-36.67,28.46-42.48,51a46.91,46.91,0,0,0,2.33,31.53,57.6,57.6,0,0,0,18.5,21.9c18.5,13.6,41.89,16.42,64.21,16.67,25.14.33,50.27-.49,75.41-.08q76.79,1.24,153.31,9.37,19.15,2,38.33,4.48c11.45,1.5,23,2.91,34.26,5.56,20.08,4.65,39.57,13.61,52,30.61a50.4,50.4,0,0,1,9.87,25.22c.91,9.55-1.5,19.17-5.81,27.63C924.12,487,906.2,499,887.12,506.84c-10.2,4.23-20.74,7.38-31.36,10.54-1.49.66-2.07-1.75-.58-2.24Z" transform="translate(-0.08 -24.51)"/><circle class="cls-1" cx="373.68" cy="57.66" r="19.91"/><circle class="cls-1" cx="511.81" cy="95.4" r="19.91"/><circle class="cls-1" cx="628.78" cy="19.91" r="19.91"/><circle class="cls-1" cx="701.79" cy="104.53" r="19.91"/><circle class="cls-1" cx="603.07" cy="202.42" r="19.91"/><circle class="cls-1" cx="477.8" cy="249.71" r="19.91"/><circle class="cls-1" cx="610.53" cy="323.54" r="19.91"/><circle class="cls-1" cx="753.22" cy="365.02" r="19.91"/><circle class="cls-1" cx="919.97" cy="355.9" r="19.91"/><path class="cls-2" d="M110.57,609.51c0-.37,1.1-32.91-23.62-54.64l-1.46,1.63c24,21,22.93,52.7,22.92,52.92Z" transform="translate(-0.08 -24.51)"/><path class="cls-2" d="M69.15,557.58c4.49,8.62,14.58,12,22.76,7.55s11.18-14.88,6.69-23.5h0C94.1,533,72,514.83,63.91,519.27S64.73,548.94,69.15,557.58Z" transform="translate(-0.08 -24.51)"/><path class="cls-2" d="M83.92,596.28c10.16,5.45,24.38,1.14,24.38,1.14S106,584.18,95.74,578.75s-24.38-1.14-24.38-1.14S73.76,590.83,83.92,596.28Z" transform="translate(-0.08 -24.51)"/><path class="cls-2" d="M164.92,611.69c.21-.75,23.94-74-18-139.4L142.62,475c40.63,63.34,17.65,134.34,17.45,135.09Z" transform="translate(-0.08 -24.51)"/><path class="cls-2" d="M100.42,450.2a33.35,33.35,0,1,0,65.25-13.82h0c-3.76-18-36-62.79-54-59S96.66,432.21,100.42,450.2Z" transform="translate(-0.08 -24.51)"/><path class="cls-2" d="M122.75,536.13c18,15.38,46.46,11.56,46.46,11.56s-.69-28.78-18.61-44.17S104.13,492,104.13,492,104.76,520.82,122.75,536.13Z" transform="translate(-0.08 -24.51)"/><path class="cls-3" d="M1085.23,611.94H1.44a1.36,1.36,0,1,1,0-2.71H1085.23a1.3,1.3,0,0,1,1.35,1.35A1.37,1.37,0,0,1,1085.23,611.94Z" transform="translate(-0.08 -24.51)"/><path class="cls-2" d="M253.31,376.59V256.82a6.45,6.45,0,0,1,12.9,0V376.59a6.45,6.45,0,0,1-12.9,0Z" transform="translate(-0.08 -24.51)"/><path class="cls-2" d="M237.83,376.59V256.82a6.45,6.45,0,0,1,12.9,0V376.59a6.45,6.45,0,1,1-12.9,0Z" transform="translate(-0.08 -24.51)"/><path class="cls-2" d="M222.45,376.59V256.82a6.45,6.45,0,1,1,12.9,0V376.59a6.45,6.45,0,1,1-12.9,0Z" transform="translate(-0.08 -24.51)"/><path class="cls-2" d="M532.47,379.63v-63c0-1.84,2.86-3.41,6.45-3.41s6.45,1.57,6.45,3.41v63c0,1.84-2.86,3.41-6.45,3.41S532.47,381.56,532.47,379.63Z" transform="translate(-0.08 -24.51)"/><path class="cls-2" d="M517,379.63v-63c0-1.84,2.86-3.41,6.45-3.41s6.45,1.57,6.45,3.41v63c0,1.84-2.85,3.41-6.45,3.41S517,381.56,517,379.63Z" transform="translate(-0.08 -24.51)"/><path class="cls-2" d="M501.61,379.63v-63c0-1.84,2.85-3.41,6.45-3.41s6.45,1.57,6.45,3.41v63c0,1.84-2.86,3.41-6.45,3.41S501.61,381.56,501.61,379.63Z" transform="translate(-0.08 -24.51)"/><path class="cls-2" d="M632.71,607.65H519.2a8.64,8.64,0,0,1-8.66-8.66V412.7A7.78,7.78,0,0,0,502.8,405H237.28a7.78,7.78,0,0,0-7.74,7.73V599a8.64,8.64,0,0,1-8.66,8.66H217a8.64,8.64,0,0,1-8.66-8.66V402.66a20.77,20.77,0,0,1,20.73-20.73H620.64a20.76,20.76,0,0,1,20.73,20.73V599A8.64,8.64,0,0,1,632.71,607.65Z" transform="translate(-0.08 -24.51)"/><rect class="cls-4" x="510.92" y="405.79" width="129.91" height="5.53"/><rect class="cls-4" x="510.92" y="480.42" width="129.91" height="5.53"/><path class="cls-5" d="M403.49,381l-3.78-1.57-2.58-18.7H363l-2.76,18.61L357,381a.86.86,0,0,0-.37,1.11.74.74,0,0,0,.74.46h45.88a.83.83,0,0,0,.83-.83A1,1,0,0,0,403.49,381Z" transform="translate(-0.08 -24.51)"/><path class="cls-2" d="M464.11,363.23H296.61a3.3,3.3,0,0,1-3.31-3.32V336.33H467.43v23.58A3.31,3.31,0,0,1,464.11,363.23Z" transform="translate(-0.08 -24.51)"/><path class="cls-6" d="M467.61,347.38H293.11V246.31a3.93,3.93,0,0,1,4-4H463.56a3.93,3.93,0,0,1,4,4V347.38Z" transform="translate(-0.08 -24.51)"/><path class="cls-4" d="M457.2,340.1H303.52a3.07,3.07,0,0,1-3-3v-84.3a3.08,3.08,0,0,1,3-3H457.2a3.07,3.07,0,0,1,3,3V337A3.08,3.08,0,0,1,457.2,340.1Z" transform="translate(-0.08 -24.51)"/><path class="cls-7" d="M402.66,351.81l-15.11,25.06a5.85,5.85,0,0,1-7.93,2c-.27-.18-.46-.27-.73-.46l-22.48-18.52a16.1,16.1,0,0,1,16.67-27.54L400,343.51a5.81,5.81,0,0,1,3.13,7.56,7.48,7.48,0,0,1-.46.74Z" transform="translate(-0.08 -24.51)"/><rect class="cls-6" x="338.08" y="496.63" width="29.57" height="48.92"/><rect class="cls-6" x="396.42" y="530.99" width="6.73" height="85.68" transform="translate(-299.61 557.93) rotate(-55.84)"/><rect class="cls-6" x="263.26" y="570.42" width="85.68" height="6.73" transform="translate(-269.45 246.35) rotate(-34.16)"/><circle class="cls-8" cx="435.1" cy="573.38" r="9.31"/><circle class="cls-6" cx="352.36" cy="573.38" r="9.31"/><circle class="cls-6" cx="270.55" cy="573.38" r="9.31"/><rect class="cls-6" x="349.05" y="525.29" width="6.73" height="48.09"/><rect class="cls-6" x="346.47" y="453.61" width="12.62" height="64.95"/><path class="cls-6" d="M316.61,488.25v-15.2a10.5,10.5,0,0,1,10.5-10.5h56.57a10.5,10.5,0,0,1,10.5,10.5v15.2a10.5,10.5,0,0,1-10.5,10.51H327.11A10.5,10.5,0,0,1,316.61,488.25Z" transform="translate(-0.08 -24.51)"/><polygon class="cls-9" points="418.61 567.48 434.27 567.48 441.73 526.94 418.61 526.94 418.61 567.48"/><path class="cls-10" d="M414.73,607.19h50.39v-.64a19.58,19.58,0,0,0-19.62-19.62H414.73Z" transform="translate(-0.08 -24.51)"/><path class="cls-11" d="M442.09,566.84l31.14-69.93A25.62,25.62,0,0,0,462,464l-67.62-36.21-30.87-2.58L335,422.65l-.18.37c-.28.46-6.36,11.06-2.21,22.58,3.13,8.75,11.33,15.66,24.23,20.36C387.09,477,422,486.5,435.64,490.09a4.59,4.59,0,0,1,2.86,2.22,4.84,4.84,0,0,1,.27,3.59l-28.93,65a5.77,5.77,0,0,0,3.41,7.37,6.41,6.41,0,0,0,1.48.37l21.65,1.57h.55A5.61,5.61,0,0,0,442.09,566.84Z" transform="translate(-0.08 -24.51)"/><polygon class="cls-9" points="408.47 567.48 424.04 567.48 431.5 526.94 408.47 526.94 408.47 567.48"/><path class="cls-10" d="M404.5,607.19h50.4v-.64a19.58,19.58,0,0,0-19.63-19.62H404.5Z" transform="translate(-0.08 -24.51)"/><path class="cls-11" d="M430.67,570.71l31.14-69.93a25.63,25.63,0,0,0-11.24-32.89l-67.63-36.21-30.86-2.58-22.3-1.93v-.28c-.27.46-6.36,11.06-2.21,22.57,3.13,8.76,4.88,15.67,17.87,20.37,30.22,11.05,65.14,20.54,78.78,24.13a4.57,4.57,0,0,1,2.85,2.22,4.8,4.8,0,0,1,.28,3.59l-28.93,65a5.76,5.76,0,0,0,3.41,7.37,6.46,6.46,0,0,0,1.47.37L425,574.12h.56A5.87,5.87,0,0,0,430.67,570.71Z" transform="translate(-0.08 -24.51)"/><path class="cls-12" d="M404.78,366.64,378.8,380a5.82,5.82,0,0,1-7.84-2.49c-.09-.28-.27-.55-.36-.83L361.2,349a16.13,16.13,0,0,1,7-21.56c-11.52,5.9,12.53-10.87,21.65,7l16.95,23.68a5.78,5.78,0,0,1-1.38,8.11c-.09.09-.37.18-.64.37Z" transform="translate(-0.08 -24.51)"/><path class="cls-2" d="M943.79,610.4l6,.09L913.85,418.68l-6,1.1,9.4,49.75H887l9.4-49.75-6-1.1L854.79,610.49l5.62-.09L879.12,511H925Zm-63.2-106.78,5.07-26.72h33l5.07,26.72Z" transform="translate(-0.08 -24.51)"/><path class="cls-13" d="M780.63,262.51a10.16,10.16,0,0,1,11.51,8.57,10.28,10.28,0,0,1,.1,1.75l33.72,13-15.3,10.87-29.66-14a10.17,10.17,0,0,1-9.13-11.15,10.29,10.29,0,0,1,8.76-9Z" transform="translate(-0.08 -24.51)"/><path class="cls-1" d="M908.6,256.16l5.71,10.32a29.69,29.69,0,0,1-10.13,16.76c-8.76,7.37-54.36,34.74-54.36,34.74l-57.58-28.93,10-13.36,45.23,15.11h0a148,148,0,0,1,59.15-34.18Z" transform="translate(-0.08 -24.51)"/><ellipse class="cls-2" cx="897.92" cy="388.45" rx="44.96" ry="14.65"/><polygon class="cls-14" points="797.04 573.45 785.15 570.14 792.15 522.5 809.75 527.39 797.04 573.45"/><path class="cls-10" d="M801.14,608.37l-39.88.53,0-.46a15.66,15.66,0,0,1,15.34-15.82h0L801,592.3Z" transform="translate(-0.08 -24.51)"/><polygon class="cls-14" points="762.49 573.64 751.16 568.57 764.98 522.5 781.74 529.88 762.49 573.64"/><path class="cls-10" d="M760.54,610.4l-36.48-16.12.18-.46a15.49,15.49,0,0,1,20.46-7.92h0L767,595.75Z" transform="translate(-0.08 -24.51)"/><path class="cls-15" d="M932.92,377.22s6,18.61-30.86,42.1l-47.45,47.26L805.32,584.51l-20.83-11.6h0L821,451.29l26.35-46.06.74-25,6.45-17.6,47-16.68Z" transform="translate(-0.08 -24.51)"/><path class="cls-15" d="M909,378.14s6,18.61-30.87,42.1l-47.45,47.27L772.86,580.67l-15.52-7.76h0l4.31-26.17,1.93-5.25,2.12-5.62L797,452.21l8.84-15.38a283.85,283.85,0,0,1,42-56l8.66-8.94.93-13.82,20.08-11.14Z" transform="translate(-0.08 -24.51)"/><path class="cls-1" d="M880.59,287l14.74-31.32L921,252.19s20.08,25.62,14.83,61.55c-1.94,13.45-3.59,26.9-3.69,38.69,0,3.14,2.68,4.52,2.77,7.37s-5.16,7.28-3.69,9.22a16.65,16.65,0,0,1,3.69,9.21c-1.84,4.33-57.12-19.16-80.34-15.66Z" transform="translate(-0.08 -24.51)"/><path class="cls-14" d="M797.21,316a10.07,10.07,0,0,1,13.08,5.9,9,9,0,0,1,.46,1.75l35.75,5.25-12.53,14-32-7.18A10.22,10.22,0,0,1,797.21,316Z" transform="translate(-0.08 -24.51)"/><path class="cls-1" d="M813.61,339.81l7.28-16.12,47.54,4.88L888,299.64l32.8-18.42,8.2,9.3v.19a30.24,30.24,0,0,1-6.27,18.88c-5,6.54-26,27.09-38.05,38.7a19,19,0,0,1-18,4.79Z" transform="translate(-0.08 -24.51)"/><path class="cls-16" d="M881.13,238.84V215.62a31.16,31.16,0,0,1,62.32,0v23.22a4.18,4.18,0,0,1-4.22,4.22H885.35A4.18,4.18,0,0,1,881.13,238.84Z" transform="translate(-0.08 -24.51)"/><circle class="cls-14" cx="904.51" cy="195.33" r="22.84"/><path class="cls-16" d="M873.68,217.49a24.56,24.56,0,0,1,24.58-24.59h4.59a24.56,24.56,0,0,1,24.58,24.59V218h-9.8l-3.36-9.43-.62,9.43h-5.09l-1.73-4.72-.38,4.72H873.68v-.49Z" transform="translate(-0.08 -24.51)"/><polygon class="cls-6" points="924.01 291.8 908.5 330.58 881.35 326.7 883.88 324.4 924.01 291.8 896.86 311.19 924.01 291.8"/><path class="cls-15" d="M404.51,433.31l-62.69-10.05a11.79,11.79,0,0,1-7.7-15,10,10,0,0,1,.75-1.73l2.85-5.71-1.12-59.72a44.54,44.54,0,0,1,21.48-38.73l6.09-3.6,3.1-7.82,28.43.74.12,10.31L406,318.23v.12l-.62,88.52-2.85,9.19,4.22,10.67Z" transform="translate(-0.08 -24.51)"/><circle class="cls-9" cx="384.03" cy="255.29" r="25.82" transform="translate(102.08 595.74) rotate(-85.93)"/><path class="cls-16" d="M357.09,260.87c-.75-3.23-.37-7.82,0-11.05a31.25,31.25,0,0,1,13.16-21.6,9.22,9.22,0,0,1,4.72-1.86,4.2,4.2,0,0,1,4.09,2.48,8.24,8.24,0,0,1,4.84-4.71,14,14,0,0,1,6.83-.87,25,25,0,0,1,20.86,14.89c.74,1.62,2.61-4.47,3.47-2.85a6.91,6.91,0,0,0,4,3.47c1.74.5,2.36,7.58,3.1,6A7.83,7.83,0,0,1,418,255a8.09,8.09,0,0,1-3.35.62,34.72,34.72,0,0,1-5.09-1,12.82,12.82,0,0,0-14,9.55,17.88,17.88,0,0,0-2.23-5,5.58,5.58,0,0,0-4.59-2.48,6.64,6.64,0,0,0-4.47,2.6c-1.12,1.37-2,2.86-3.11,4.22-3.35,3.85-7.94,13-12.66,12.29C364.29,275.15,358.08,265.34,357.09,260.87Z" transform="translate(-0.08 -24.51)"/><path class="cls-6" d="M305.64,473.88V347.29a15.61,15.61,0,0,1,15.57-15.57h4.33a15.61,15.61,0,0,1,15.57,15.57V474a15.61,15.61,0,0,1-15.57,15.57h-4.33A15.69,15.69,0,0,1,305.64,473.88Z" transform="translate(-0.08 -24.51)"/><path class="cls-9" d="M506.06,375.52a8.27,8.27,0,0,1-11.59-1.19,7.38,7.38,0,0,1-.85-1.23L464.79,378l6.09-13.84,26.46-2.56a8.26,8.26,0,0,1,8.72,13.9Z" transform="translate(-0.08 -24.51)"/><path class="cls-9" d="M456.49,441a8.14,8.14,0,0,1-9.25-7,6.54,6.54,0,0,1-.11-1.45L420,421.8,432.37,413l23.85,11.49a8.29,8.29,0,0,1,7.36,9.16,8.12,8.12,0,0,1-7.09,7.29Z" transform="translate(-0.08 -24.51)"/><path class="cls-15" d="M489.78,377l-67,12-.12,0-62.8-41.41A23.35,23.35,0,0,1,357,315.62h0a23.43,23.43,0,0,1,32.81-3.94,23.16,23.16,0,0,1,2.11,1.8L435.51,357l51.23,5.84Z" transform="translate(-0.08 -24.51)"/><path class="cls-15" d="M444.27,432.85,380.7,408.5l-.08-.15-32.31-68a23.42,23.42,0,0,1,14.05-28.8h0a23.26,23.26,0,0,1,30.08,13.62l.83,2.56L408,387.44l40.79,31.47Z" transform="translate(-0.08 -24.51)"/><path class="cls-2" d="M980.83,611.26c-.05-.63-1.34-86.27,44.13-128.63l-3.15-2.8c-47,43.76-45.42,131.23-45.37,131.86" transform="translate(-0.08 -24.51)"/><path class="cls-2" d="M1049,433.66c-14.42-5.93-49.5,23.42-56,36.77h0c-6.46,13.4-.05,29.06,14.47,35s31.42,0,37.82-13.35S1063.46,439.64,1049,433.66Z" transform="translate(-0.08 -24.51)"/><path class="cls-2" d="M1046,525.13s-23.56-6.79-41,2.8S982.9,560,982.9,560s23.56,6.79,41-2.8S1046,525.13,1046,525.13Z" transform="translate(-0.08 -24.51)"/><ellipse class="cls-15" cx="650.03" cy="264.04" rx="17.6" ry="17.15"/><path class="cls-15" d="M648.24,109.59c-27.5.18-50,22-50.42,48.76v4.25a12.74,12.74,0,0,0,12.89,12.57h0a12.77,12.77,0,0,0,12.93-12.6h0v-2.69c0-13.16,10.94-23.86,24.49-23.86s24.48,10.66,24.48,23.86A23.74,23.74,0,0,1,661.32,180h0s-18.36,11.52-24,27.33h0a33.82,33.82,0,0,0-1.49,10c0,1.38.07,13.53.23,23.41a13.13,13.13,0,0,0,13.31,12.75h0a13.15,13.15,0,0,0,13.31-13v-.08c0-9-.08-19.53-.08-20.32,0-9.69,9.6-19.38,17.52-25.68a51.29,51.29,0,0,0,18.25-28.34,31,31,0,0,0,1-7c0-27.33-22.72-49.51-50.76-49.51A1,1,0,0,1,648.24,109.59Z" transform="translate(-0.08 -24.51)"/><path class="cls-11" d="M614.35,169.24h0a12.73,12.73,0,0,1-12.89-12.56v-4.25a47.68,47.68,0,0,1,5.89-22.34,48.52,48.52,0,0,0-9.72,28.3v4.25a12.74,12.74,0,0,0,12.89,12.57h0A12.86,12.86,0,0,0,623,166,12.94,12.94,0,0,1,614.35,169.24Z" transform="translate(-0.08 -24.51)"/><path class="cls-11" d="M649.12,136.1c13.5.63,24,11.81,23.3,25a23.74,23.74,0,0,1-2,8.35,23.44,23.44,0,0,0-2.76-33.63,24.92,24.92,0,0,0-34.5,2.68,23.47,23.47,0,0,0-3.83,6A24.55,24.55,0,0,1,649.12,136.1Z" transform="translate(-0.08 -24.51)"/><path class="cls-11" d="M653.06,247.53h0a13.13,13.13,0,0,1-13.31-12.75c-.16-9.88-.23-22-.23-23.41a34.15,34.15,0,0,1,1.49-10h0a35.2,35.2,0,0,1,2.1-4.74,40.2,40.2,0,0,0-5.93,10.7h0a34.22,34.22,0,0,0-1.49,10c0,1.38.08,13.53.23,23.41a13.15,13.15,0,0,0,13.31,12.75h0A13.24,13.24,0,0,0,662,244.18,13.29,13.29,0,0,1,653.06,247.53Z" transform="translate(-0.08 -24.51)"/><path class="cls-11" d="M646.25,301.52a17,17,0,0,1-9.1-22.56,18.72,18.72,0,0,1,2.56-4.1,16.9,16.9,0,0,0-3.83,24,17.86,17.86,0,0,0,27.78.82A18.06,18.06,0,0,1,646.25,301.52Z" transform="translate(-0.08 -24.51)"/></svg>