<svg id="Warstwa_1" data-name="Warstwa 1" xmlns="http://www.w3.org/2000/svg" viewBox="0 0 1101.99 612.11"><defs><style>.cls-1{fill:#fff;}.cls-2{fill:#a5a19d;}.cls-3{fill:#efefef;}.cls-4{fill:#cccbcb;}.cls-5{fill:#e3e2e2;}.cls-6{fill:#a0616a;}.cls-7{fill:#282524;}.cls-8{fill:#565350;}.cls-9{fill:#f5b3b6;}.cls-10{fill:#f4f3f2;}.cls-11{fill:#2f2f41;}.cls-12{fill:#f5b4b6;}.cls-13{fill:#d4d2d1;}</style></defs><path class="cls-1" d="M31.91,473.87c-1.1.3-1.7-1.6-.5-1.7,9.4-2.2,15.4-11.8,14-22.6-.3-1.1,1.4-1.1,1.6,0,1.4,11.4-4.9,21.6-15.1,24.3Z" transform="translate(14.83 1.61)"/><path class="cls-1" d="M276.34,421.47c0-5.6-3.6-10.3-8.2-11.4l-141.4-27.3a6.39,6.39,0,0,0-4.1.3l-33.1,10-19,5.8-35.1,10.7c-4.4,1.3-7.4,6-7.4,11.3v174.8c0,5.5,3.1,10.2,7.8,11.4l143.9-1.9a6.93,6.93,0,0,0,2,.3,10.47,10.47,0,0,0,3-.5l85.5,2.5c4.2-1.4,6.9-6.1,6.9-11.1Z" transform="translate(14.83 1.61)"/><path class="cls-2" d="M274.34,421.77c0-5.6-3.6-10.3-8.2-11.4l-141.4-27.3a6.39,6.39,0,0,0-4.1.3l-33.1,10-19,5.8-35.1,10.7c-4.4,1.3-7.4,6-7.4,11.3V596c0,5.5,3.1,10.2,7.8,11.4l143.9-1.9a6.93,6.93,0,0,0,2,.3,10.47,10.47,0,0,0,3-.5l85.5,2.5c4.2-1.4,6.9-6.1,6.9-11.1Zm-6.8,183.1-85.5,2.5a7.07,7.07,0,0,1-3.8.3l-143.9-3c-3.4-.9-5.8-4.4-5.8-8.6v-175c0-3.6,1.9-7.1,4.9-8.2a1.55,1.55,0,0,1,.6-.3l37.2-11.3,22-6.7,28.1-8.6a4.22,4.22,0,0,1,1.9-.3,3,3,0,0,1,1.3.2l141.3,27.3a7.25,7.25,0,0,1,5.3,4.5,8.81,8.81,0,0,1,.8,3.9l.9,174.7C273,600.57,270.74,603.77,267.54,604.87Z" transform="translate(14.83 1.61)"/><path class="cls-2" d="M271,417.87c-.2.2-.3.2-.3.2l-41.6,13.3-12.9,4.2-36.8,11.9h-.6l-148.3-32-.6-.2a1.43,1.43,0,0,1-.9-1.7c.2-.8.6-1.3,1.6-1.1l3,.6,145.7,31.4,31.7-10,17.7-5.6,40.9-13,.6-.3c.6-.2,1.1.2,1.6.8,0,.2.2.2.2.3C271.84,416.77,271.64,417.57,271,417.87Z" transform="translate(14.83 1.61)"/><path class="cls-2" d="M229.64,607.87l-13.3.2-5.3-174-139.2-32.6c-.2,0-.3-.2-.5-.2a6.29,6.29,0,0,1-2.7-2.2l19-5.8,5.6,1.3,132,31a4.69,4.69,0,0,1,3.3,2.8C228.84,429.47,229.64,607,229.64,607.87Z" transform="translate(14.83 1.61)"/><path class="cls-2" d="M130.07,474.54h-.5l-44.1-.8a2.21,2.21,0,0,1,0-4.4l44.1.8a2.19,2.19,0,0,1,2,2.2,2.12,2.12,0,0,1-1.5,2.2Z" transform="translate(14.83 1.61)"/><path class="cls-2" d="M145.27,499.44h-.5l-44.1-.8a2.21,2.21,0,0,1,0-4.4l44.1.8a2.19,2.19,0,0,1,2,2.2c0,1.1-.4,2.1-1.5,2.2Z" transform="translate(14.83 1.61)"/><path class="cls-2" d="M167.47,524.14H167l-44.1-.8a2.21,2.21,0,0,1,0-4.4l44.1.8a2.19,2.19,0,0,1,2,2.2,1.93,1.93,0,0,1-1.5,2.2Z" transform="translate(14.83 1.61)"/><path class="cls-3" d="M823.07,455.74a19.9,19.9,0,0,1,2,1.3,217.29,217.29,0,0,1,26.16,19.29c.57.58,1.3,1.09,2,1.67A204.1,204.1,0,0,1,900,538.76a200.35,200.35,0,0,1,11.48,28.1c4.19,13.3,7.66,28.11,16,38.95a41.63,41.63,0,0,0,2.82,3.32l75.93.14a1.48,1.48,0,0,1,.58-.21l3,.14a12.2,12.2,0,0,0-.44-1.59l-.21-.86c0-.22-.15-.37-.15-.58s-.07-.07,0-.22-.14-.36-.07-.5c-.72-3-1.52-5.86-2.31-8.75h0c-6.22-22.32-14.38-44.36-25.87-64.44-.36-.58-.72-1.3-1.08-1.88a199,199,0,0,0-17.92-25.87,152.77,152.77,0,0,0-48.55-38.87C886.14,452,854.57,446.78,825.53,455,824.59,455.31,823.86,455.53,823.07,455.74Z" transform="translate(14.83 1.61)"/><path class="cls-1" d="M823.29,456.61c37.35,7.08,72.53,25.43,98.33,52.09,5.56,5.71,10.69,12,14.16,19.22a39.89,39.89,0,0,1,3.61,22.18c-.72,7.15-2.31,14.31-1.15,21.39,1.15,7.51,5.92,13.58,12.57,17.84,8,5.13,17.7,7.23,27.09,9,10.48,2,21.39,3.76,30.06,9.9a1,1,0,0,0,1.22-1.59c-15.1-10.76-35.54-8.6-52.09-16.18-7.73-3.54-14.38-9.32-16.25-17.56-1.67-7.22,0-14.52.79-21.75A42.78,42.78,0,0,0,939,529.22c-3-7.22-7.88-13.73-13.3-19.58a173.74,173.74,0,0,0-42.91-33.45,192,192,0,0,0-59.18-21.53A1,1,0,1,0,823.29,456.61Z" transform="translate(14.83 1.61)"/><path class="cls-1" d="M940.26,546.63A54.86,54.86,0,0,1,903.05,537a1,1,0,0,0-1.23,1.59,57.43,57.43,0,0,0,38.8,10,1,1,0,1,0-.36-2Z" transform="translate(14.83 1.61)"/><path class="cls-1" d="M944.45,575.32c14.38-10,27.09-24.64,35.62-41.19.94-1.66,2.6-1,1.8.58-8.88,17.2-22.18,32.51-37.13,42.77-1.37,1-1.66-1.22-.29-2.16Z" transform="translate(14.83 1.61)"/><path class="cls-3" d="M1086.75,514.7c-.43.22-.87.58-1.23.8A116.47,116.47,0,0,0,1070,527.56c-.36.37-.72.65-1.16,1.09a110.1,110.1,0,0,0-32.08,54.84c-2,8.16-3.32,17.19-8,23.91a20.77,20.77,0,0,1-1.59,2l-48.19.87c-.14-.07-.21-.14-.36-.14l-2,.14c0-.29.15-.65.15-.94s.07-.36.07-.58.07-.21.07-.36v-.14c0-.15.07-.22,0-.29.29-1.81.65-3.61,1-5.35h0c2.68-13.65,6.65-27.24,12.86-39.59.22-.36.36-.8.58-1.16a110.78,110.78,0,0,1,10-16,79.45,79.45,0,0,1,6.79-7.88A86.52,86.52,0,0,1,1030,521.71c16.48-8.6,36.2-12.14,55.13-7.37A11.63,11.63,0,0,1,1086.75,514.7Z" transform="translate(14.83 1.61)"/><path class="cls-1" d="M1086.68,515.21c-23.34,4.7-44.65,16.26-59.54,32.8a40.47,40.47,0,0,0-7.94,11.85,22.85,22.85,0,0,0-1.09,13.58c.87,4.34,2.24,8.75,1.88,13.08-.36,4.62-3,8.38-7,11.05-4.84,3.18-10.83,4.56-16.69,5.71-6.57,1.3-13.36,2.53-18.56,6.36-.65.43-1.45-.51-.87-.94,9-6.72,22-5.63,32.15-10.4,4.7-2.24,8.6-5.85,9.39-10.84.65-4.41-.79-8.89-1.73-13.29a24.72,24.72,0,0,1,.5-13.37,37.44,37.44,0,0,1,7.37-12.07,100.64,100.64,0,0,1,25.36-20.88,116.82,116.82,0,0,1,36.35-13.72C1087.26,513.91,1087.47,515.07,1086.68,515.21Z" transform="translate(14.83 1.61)"/><path class="cls-1" d="M1031.62,542.45c-6-5.93-6.57-14.6-1.51-20.52.5-.58,1.59.14,1.08.72-4.77,5.49-4.19,13.66,1.37,19.15.65.5-.36,1.15-.94.65Z" transform="translate(14.83 1.61)"/><path class="cls-1" d="M1017.39,571.35a34.53,34.53,0,0,0,23.12-6.22c.65-.43,1.45.51.87.94a36,36,0,0,1-24.06,6.51c-.94-.15-.8-1.3.07-1.23Z" transform="translate(14.83 1.61)"/><path class="cls-3" d="M323.36,195.6c-22.54-49.92-21.68-113.28,13.22-155.33a252.73,252.73,0,0,0,90.38,148c18,14.16,39.6,28.24,44.44,50.64,3.1,14-1.3,28.76-8.82,40.9s-18,22.18-28.39,32.07L433,315.18C388.09,284,345.9,245.6,323.36,195.6Z" transform="translate(14.83 1.61)"/><path class="cls-1" d="M337.59,40.92c-8.09,44.07-2,91.18,17.56,131.64,4.26,8.67,9.32,17.26,16.11,24.35a53.25,53.25,0,0,0,24.2,14.16c8.46,2.52,17.56,4,25.29,8.59,8.24,4.77,13.22,12.79,15.25,22,2.38,11.2.72,22.68-1.45,33.74-2.38,12.28-4.91,25-1.52,37.42a1.23,1.23,0,0,1-2.38.58c-5.85-21.6,5.63-42.77,3.9-64.52-.72-10.11-4.55-20-13.22-25.86-7.66-5.13-16.84-6.79-25.51-9.18-9-2.6-17.26-6.43-24.2-13-7.15-6.65-12.5-15-16.91-23.63A212,212,0,0,1,334.56,115a217.52,217.52,0,0,1,.72-74.63c.22-1.73,2.6-1,2.31.58Z" transform="translate(14.83 1.61)"/><path class="cls-1" d="M348.07,159.77a32.34,32.34,0,0,1-38.73-16.11,1.25,1.25,0,0,1,2.17-1.23,29.82,29.82,0,0,0,36,14.88c1.52-.43,2.09,1.95.58,2.46Z" transform="translate(14.83 1.61)"/><path class="cls-1" d="M333.62,90.84a17.94,17.94,0,0,0,14.3-9.75c.72-1.45,2.75-.15,2,1.3a20.14,20.14,0,0,1-15.83,10.84,1.2,1.2,0,0,1-1.44-.94A1.52,1.52,0,0,1,333.62,90.84Z" transform="translate(14.83 1.61)"/><path class="cls-3" d="M509.4-.55a11.58,11.58,0,0,0-1.15,2.6,239.94,239.94,0,0,0-13.8,36c-.22.94-.58,1.88-.87,3a246.25,246.25,0,0,0-7.73,91.83,257.84,257.84,0,0,0,6.64,36.34c4.41,16.4,10.48,34,9,50.43a42.8,42.8,0,0,1-.73,5.13L424.51,270.6a1.36,1.36,0,0,0-.73.14l-3,2c-.21-.58-.36-1.3-.58-1.88-.14-.36-.21-.72-.36-1.08a2.23,2.23,0,0,1-.21-.73c0-.14,0-.14-.15-.21a3.25,3.25,0,0,1-.21-.58c-1.16-3.54-2.24-7-3.33-10.55h0c-8.23-27.09-14.3-55.13-15.75-83,0-.79-.14-1.73-.14-2.6a235.61,235.61,0,0,1,1.3-37.86A186,186,0,0,1,405,113.89,172.8,172.8,0,0,1,425,64.4C443.44,33.69,471.83,9.2,506.37.31,507.59,0,508.39-.27,509.4-.55Z" transform="translate(14.83 1.61)"/><path class="cls-1" d="M509.76.53c-33,29.91-56.5,70.37-65.24,113.72-1.88,9.39-3,19-1.81,28.61a51.91,51.91,0,0,0,10.77,25.43c5.35,7,11.56,13.59,15,21.68,3.68,8.52,2.89,17.84-1.09,26.3-4.76,10.19-13.07,18.21-21.45,25.65-9.32,8.31-19.08,16.76-23.85,28.46-.57,1.38-2.74.44-2.24-.94,8.24-20.37,30.13-30.34,42-48.33,5.49-8.31,8.45-18.42,5-28.11-3-8.52-9.4-15.24-14.89-22.25-5.71-7.37-9.9-15.39-11.41-24.49-1.66-9.39-.94-19.15.72-28.47A201.52,201.52,0,0,1,462.73,57,216.47,216.47,0,0,1,508.25-1.2C509.47-2.43,510.92-.55,509.76.53Z" transform="translate(14.83 1.61)"/><path class="cls-1" d="M446.54,100.09A31.72,31.72,0,0,1,425.3,64.54a1.21,1.21,0,0,1,2.39.36A29.49,29.49,0,0,0,447.48,98c1.59.29.51,2.53-.94,2.1Z" transform="translate(14.83 1.61)"/><path class="cls-1" d="M450.37,165.12a61.8,61.8,0,0,0,31.21-32.52c.58-1.37,2.75-.43,2.24.94a64.42,64.42,0,0,1-32.51,33.74,1.18,1.18,0,1,1-.94-2.16Z" transform="translate(14.83 1.61)"/><path class="cls-1" d="M476.6,37.45a18.54,18.54,0,0,0,17.41.79c1.45-.72,2.24,1.52.87,2.24a21,21,0,0,1-19.22-.79,1.11,1.11,0,0,1-.58-1.52,1,1,0,0,1,1.52-.72Z" transform="translate(14.83 1.61)"/><path class="cls-3" d="M828.46,159C805.92,109.07,806.79,45.71,841.83,3.66a252.52,252.52,0,0,0,90.38,148c18,14.16,39.6,28.25,44.44,50.64,3.1,13.95-1.3,28.76-8.82,40.9s-18,22.18-28.39,32.08l-1.16,3.32C893.2,247.36,851,209,828.46,159Z" transform="translate(14.83 1.61)"/><path class="cls-1" d="M842.7,4.24c-8.1,44.07-2,91.18,17.55,131.64,4.27,8.67,9.32,17.26,16.11,24.34a53.16,53.16,0,0,0,24.21,14.17c8.45,2.52,17.55,4,25.29,8.59,8.23,4.77,13.22,12.79,15.24,22,2.38,11.2.72,22.68-1.44,33.74-2.39,12.28-4.92,25-1.52,37.42.36,1.52-1.88,2-2.39.58-5.85-21.6,5.64-42.77,3.91-64.52-.73-10.11-4.56-20-13.23-25.86-7.66-5.13-16.83-6.8-25.5-9.18-9-2.6-17.27-6.43-24.2-13-7.16-6.65-12.5-15-16.91-23.63a212,212,0,0,1-20.16-62.21,217.77,217.77,0,0,1,.72-74.63c.29-1.66,2.68-.94,2.32.58Z" transform="translate(14.83 1.61)"/><path class="cls-1" d="M853.17,123.16a32.33,32.33,0,0,1-38.72-16.11,1.25,1.25,0,0,1,2.16-1.23,29.82,29.82,0,0,0,36,14.88c1.52-.43,2.1,2,.58,2.46Z" transform="translate(14.83 1.61)"/><path class="cls-1" d="M896.09,173.66a62.42,62.42,0,0,0,5-45.15c-.36-1.52,1.88-2,2.39-.58a65.05,65.05,0,0,1-5.35,47c-.72,1.37-2.74.07-2-1.23Z" transform="translate(14.83 1.61)"/><path class="cls-1" d="M838.72,54.23A18,18,0,0,0,853,44.48c.72-1.45,2.74-.14,2,1.3a20.1,20.1,0,0,1-15.82,10.84,1.22,1.22,0,0,1-1.45-.94C837.78,55,838.14,54.31,838.72,54.23Z" transform="translate(14.83 1.61)"/><path class="cls-3" d="M1010.1,56a11.91,11.91,0,0,0-1,2.17A200.77,200.77,0,0,0,997.46,88c-.22.8-.51,1.52-.73,2.46a198,198,0,0,0-.86,106c3.68,13.58,8.81,28.11,7.65,41.69a28.28,28.28,0,0,1-.57,4.26L938.64,280.3a1.25,1.25,0,0,0-.57.08L935.54,282c-.22-.51-.29-1.09-.51-1.52-.07-.29-.22-.58-.29-.87a1.88,1.88,0,0,0-.21-.57c0-.08,0-.08-.08-.22a1.12,1.12,0,0,0-.21-.51c-1-2.89-1.88-5.85-2.82-8.74h0c-6.94-22.4-12.07-45.59-13.3-68.64,0-.65-.07-1.44-.07-2.16a196.65,196.65,0,0,1,1.09-31.29,160,160,0,0,1,3-16.83,140.91,140.91,0,0,1,16.91-40.9c15.6-25.28,39.45-45.59,68.63-53A19,19,0,0,1,1010.1,56Z" transform="translate(14.83 1.61)"/><path class="cls-1" d="M1010.39,56.91c-27.82,24.71-47.61,58.16-55,94-1.59,7.73-2.53,15.68-1.52,23.63a42.18,42.18,0,0,0,9,21c4.55,5.86,9.75,11.28,12.64,17.92,3.11,7.08,2.39,14.74-.94,21.75-4,8.45-11,15-18.06,21.24-7.8,6.86-16,13.87-20.08,23.55a1,1,0,0,1-1.88-.79c6.93-16.83,25.43-25.14,35.33-40,4.62-6.87,7.15-15.25,4.19-23.27-2.53-7.08-8-12.57-12.57-18.42-4.84-6.14-8.31-12.72-9.61-20.23-1.38-7.73-.8-15.83.58-23.56a163.71,163.71,0,0,1,18.06-50.28,177.24,177.24,0,0,1,38.36-48.05C1010.17,54.52,1011.4,56,1010.39,56.91Z" transform="translate(14.83 1.61)"/><path class="cls-1" d="M957.14,139.2c-12.64-4.26-20.16-16.69-17.85-29.41.22-1.22,2.24-.94,2,.29-2.24,11.85,4.91,23.48,16.69,27.31,1.22.36.36,2.24-.87,1.81Z" transform="translate(14.83 1.61)"/><path class="cls-1" d="M964.39,179a51.36,51.36,0,0,0,26.3-26.88c.51-1.16,2.31-.36,1.88.79a53.32,53.32,0,0,1-27.46,27.89,1,1,0,1,1-.72-1.8Z" transform="translate(14.83 1.61)"/><path class="cls-1" d="M982.5,87.47a15.94,15.94,0,0,0,14.67.65c1.22-.58,1.87,1.23.72,1.8a18,18,0,0,1-16.19-.65.91.91,0,0,1-.5-1.22C981.27,87.47,981.85,87.18,982.5,87.47Z" transform="translate(14.83 1.61)"/><path class="cls-4" d="M376.63,473.08H957.45V136.9a9.52,9.52,0,0,0-9.53-9.53H386.17a9.53,9.53,0,0,0-9.54,9.53Z" transform="translate(14.83 1.61)"/><path class="cls-5" d="M376.35,464.05v41.47a13,13,0,0,0,13.08,13.08H603.79v81.93H600.9a1.63,1.63,0,0,0-1.66,1.66h0v5.71a1.63,1.63,0,0,0,1.66,1.66h133a1.64,1.64,0,0,0,1.66-1.66h0v-5.71a1.64,1.64,0,0,0-1.66-1.66H731V518.6H945.39a13.09,13.09,0,0,0,13.15-13.08h0V464.05Z" transform="translate(14.83 1.61)"/><rect class="cls-1" x="408.74" y="142.05" width="544.91" height="309.37"/><path class="cls-5" d="M563.33,293.54H430.54c-1.88,0-3.47-3.06-3.47-7V177.69c0-3.79,1.51-7,3.47-7H563.33c1.88,0,3.47,3.06,3.47,7V286.54C566.8,290.48,565.21,293.54,563.33,293.54Z" transform="translate(14.83 1.61)"/><path class="cls-5" d="M550.69,319.41H443.18a4.24,4.24,0,0,1-4.19-4.19,4.19,4.19,0,0,1,4.19-4.19H550.69C556,311,556.18,319.41,550.69,319.41Z" transform="translate(14.83 1.61)"/><path class="cls-5" d="M550.69,338.63H443.18a4.2,4.2,0,0,1,0-8.39H550.69C556,330.17,556.18,338.63,550.69,338.63Z" transform="translate(14.83 1.61)"/><path class="cls-5" d="M550.69,357.77H443.18a4.19,4.19,0,0,1,0-8.38H550.69C556,349.32,556.18,357.77,550.69,357.77Z" transform="translate(14.83 1.61)"/><path class="cls-5" d="M732.69,293.54H599.89c-1.88,0-3.47-3.1-3.47-7.08V176.4c0-3.84,1.52-7.08,3.47-7.08h132.8c1.87,0,3.46,3.09,3.46,7.08V286.46C736.15,290.44,734.64,293.54,732.69,293.54Z" transform="translate(14.83 1.61)"/><path class="cls-5" d="M720,319.41H612.53a4.24,4.24,0,0,1-4.19-4.19,4.19,4.19,0,0,1,4.19-4.19H720C725.46,311,725.53,319.41,720,319.41Z" transform="translate(14.83 1.61)"/><path class="cls-5" d="M720,338.63H612.53a4.2,4.2,0,0,1,0-8.39H720C725.46,330.17,725.53,338.63,720,338.63Z" transform="translate(14.83 1.61)"/><path class="cls-5" d="M720,357.77H612.53a4.19,4.19,0,1,1,0-8.38H720C725.46,349.32,725.53,357.77,720,357.77Z" transform="translate(14.83 1.61)"/><path class="cls-5" d="M902.11,293.54H769.32c-1.88,0-3.47-3.11-3.47-7.12V175.76c0-3.86,1.52-7.12,3.47-7.12H902.11c1.88,0,3.47,3.11,3.47,7.12V286.42C905.58,290.43,904,293.54,902.11,293.54Z" transform="translate(14.83 1.61)"/><path class="cls-5" d="M889.47,319.41H782a4.24,4.24,0,0,1-4.19-4.19A4.19,4.19,0,0,1,782,311H889.47C894.81,311,895,319.41,889.47,319.41Z" transform="translate(14.83 1.61)"/><path class="cls-5" d="M889.47,338.63H782a4.2,4.2,0,0,1,0-8.39H889.47C894.81,330.17,895,338.63,889.47,338.63Z" transform="translate(14.83 1.61)"/><path class="cls-5" d="M889.47,357.77H782a4.19,4.19,0,0,1,0-8.38H889.47C894.81,349.32,895,357.77,889.47,357.77Z" transform="translate(14.83 1.61)"/><circle class="cls-1" cx="999.31" cy="220.66" r="1.88"/><path class="cls-6" d="M240.77,285.5a7.59,7.59,0,0,1-11.35.14,6.76,6.76,0,0,1-.95-1.14L201,293.07l4.34-15.3L230.71,272a7.78,7.78,0,0,1,11.17,2.89,9.06,9.06,0,0,1-1.11,10.65Z" transform="translate(14.83 1.61)"/><path class="cls-2" d="M221.52,289.83,156,302.49l-.12,0L94.41,258.82c-9-8.59-10.3-23.34-2.82-33.62h0c7.83-10.72,22.11-12.45,32.09-4.15a22.69,22.69,0,0,1,2.07,1.9l42.68,45.8,50.13,6.15Z" transform="translate(14.83 1.61)"/><polygon class="cls-6" points="100.36 598.16 110.92 598.16 116.03 553.95 100.36 553.95 100.36 598.16"/><path class="cls-7" d="M82.73,592.76h3l11.66-5.1,6.31,5.1h0c7.41,0,13.36,6.41,13.36,14.38v.53H82.86Z" transform="translate(14.83 1.61)"/><polygon class="cls-6" points="141.53 590.96 151.97 593.45 165.94 551.59 150.64 547.8 141.53 590.96"/><path class="cls-7" d="M124.88,585l2.91.65,12.39-2.22,5.1,6.54h0c7.17,1.7,11.66,9.42,10.08,17.13l-.12.4-33.4-8.11Z" transform="translate(14.83 1.61)"/><path class="cls-8" d="M72.05,326.44c-5,16.22-4.5,33.75,1.21,52.72l2.43,106.21s-3.64,69.72,8,94.18h16.88L109,479l1.09-67.49,36.19,56.89L123.18,577.85l20.76,2L181.35,461,135.2,345.8Z" transform="translate(14.83 1.61)"/><path class="cls-2" d="M138.11,349.2,76.78,338.61c-6.19-2.09-9.59-9.16-7.53-15.83A12.68,12.68,0,0,1,70,321l2.8-6L71.68,252c-.24-16.61,7.78-32.18,21-40.81l6-3.8,3-8.24,27.81.79.12,10.86,10,17.13v.13L139,321.34,136.17,331l4.13,11.25Z" transform="translate(14.83 1.61)"/><ellipse class="cls-6" cx="132.91" cy="163.24" rx="25.26" ry="27.21"/><path class="cls-7" d="M91.72,167.52c-.73-3.4-.36-8.24,0-11.64a33.36,33.36,0,0,1,12.87-22.76,8.69,8.69,0,0,1,4.62-2,4.08,4.08,0,0,1,4,2.61,8.41,8.41,0,0,1,4.73-5,13,13,0,0,1,6.68-.91c9,.78,16.76,6.8,20.41,15.69.73,1.7,2.55-4.71,3.4-3a6.92,6.92,0,0,0,3.88,3.67c1.7.52,2.31,8,3,6.28a8.5,8.5,0,0,1-4,10.85,7.25,7.25,0,0,1-3.28.66,32.1,32.1,0,0,1-5-1.05c-6.31-.92-12.14,3.53-13.72,10.07a19.5,19.5,0,0,0-2.19-5.23,5.38,5.38,0,0,0-4.49-2.62,6.5,6.5,0,0,0-4.37,2.75c-1.09,1.44-1.94,3-3,4.45-3.28,4-7.77,13.73-12.39,12.95C98.77,182.56,92.69,172.23,91.72,167.52Z" transform="translate(14.83 1.61)"/><path class="cls-6" d="M192.59,358.6a8.09,8.09,0,0,1-9.05-7.36,6.73,6.73,0,0,1-.11-1.53l-26.56-11.32L169,329.16l23.34,12.11c4.4.52,7.7,4.78,7.19,9.65a8.28,8.28,0,0,1-6.93,7.68Z" transform="translate(14.83 1.61)"/><path class="cls-2" d="M177,348.71l-62.18-25.65-.08-.16-31.6-71.68c-3.58-12.37,2.44-25.76,13.73-30.35h0c11.87-4.83,24.95,1.58,29.43,14.36l.81,2.69,14.46,63L181.47,334Z" transform="translate(14.83 1.61)"/><path class="cls-4" d="M1083.49,610.5H-13.39a1.36,1.36,0,0,1-1.44-1.44,1.37,1.37,0,0,1,1.44-1.45h1097a1.37,1.37,0,0,1,1.44,1.45A1.56,1.56,0,0,1,1083.49,610.5Z" transform="translate(14.83 1.61)"/><path class="cls-9" d="M414.48,348.72a8.11,8.11,0,0,0,5.61-9.78c-.13-.53-.25-.92-.38-1.32l19.83-19.7-13.71-3.43L409,333.65a8.37,8.37,0,0,0-3.24,11,7.42,7.42,0,0,0,8.73,4.1Z" transform="translate(14.83 1.61)"/><path class="cls-10" d="M429.45,331.66l-9.22-13.88L455,279.71l8.1-60c1.5-11.1,11.23-18.9,21.82-17.31a16.76,16.76,0,0,1,3.5.92h0c10.1,3.57,15.46,15.2,12.09,25.91L480,294Z" transform="translate(14.83 1.61)"/><polygon class="cls-9" points="509.5 588.9 499.28 588.9 494.29 547 509.5 547 509.5 588.9"/><path class="cls-7" d="M500.16,608.05h-7.23l-1.25-7.27-3.37,7.27H469a4.56,4.56,0,0,1-4.36-4.63,5.1,5.1,0,0,1,1.87-3.83L482,588.35V581L498.16,582Z" transform="translate(14.83 1.61)"/><polygon class="cls-9" points="572.85 577.93 563.74 583.08 540.55 548.72 553.89 541.05 572.85 577.93"/><path class="cls-7" d="M572.11,591.65l-6.36,3.71-4.49-5.69.37,8.07-17,9.78a4.2,4.2,0,0,1-5.86-1.85,4.64,4.64,0,0,1,0-4.23l8.48-17.72-3.36-6.47L558.64,570Z" transform="translate(14.83 1.61)"/><path class="cls-2" d="M499,572.36h-21.2v-80.1L464.74,440a313.75,313.75,0,0,1-7.35-114.6v-.13l.12-.13c.38-.26,33.92-29.74,55.24-7.27,14.34,15.2.87,69.79.13,72.83v94.11Z" transform="translate(14.83 1.61)"/><path class="cls-10" d="M498.91,194.85h0l-27.18.27-14.34,35.95c-13.35,21.94-.63,34.5.37,36.48l-2.49,27L453.65,312,451,340l62-21.41-6.86-29.21,8-42.3C517.49,228.16,511.88,208.47,498.91,194.85Z" transform="translate(14.83 1.61)"/><path class="cls-11" d="M460.88,183V158.24c0-18.38,14-33.18,31.3-33.18s31.3,14.8,31.3,33.18V183a4.33,4.33,0,0,1-4.24,4.49H465.12A4.33,4.33,0,0,1,460.88,183Z" transform="translate(14.83 1.61)"/><ellipse class="cls-12" cx="499.28" cy="164.34" rx="22.94" ry="24.32"/><path class="cls-11" d="M453.4,160.22c0-14.54,11.09-26.17,24.69-26.17h4.61c13.72,0,24.69,11.76,24.69,26.17v.53h-9.85l-3.37-10.05-.62,10.05h-5.11l-1.75-5-.37,5H453.4v-.53Z" transform="translate(14.83 1.61)"/><polygon class="cls-13" points="511.55 251.59 496.25 282.01 469.53 303.42 471.24 286.31 465.4 285.58 487.14 270.25 511.55 251.59"/><path class="cls-1" d="M430.81,201.28c-.87-3.84-4-6.21-7.43-6l-98.11,10.61a16.43,16.43,0,0,0-2.7.9l-20.28,13.44-11.69,8-21.53,14.33c-2.7,1.81-4,5.65-3.19,9.26l22.12,92c.87,3.73,3.76,6.21,7.14,6.21l101.49-5.3a4.22,4.22,0,0,0,1.35-.34,7.7,7.7,0,0,0,1.84-.91l51.66-38.94c2.6-1.92,3.47-5.53,2.7-9Z" transform="translate(14.83 1.61)"/><path class="cls-2" d="M325.75,213h-.29l-53.59,35.9c-.29.22-.58.9-.48,1l22.11,92c.19.57.48.91.87.68l101.49-5.3c.19,0,.29-.23.48-.23L448,298.13a.85.85,0,0,0,.29-1l-23.46-94c-.2-.57-.58-.9-.87-.68L325.75,213Z" transform="translate(14.83 1.61)"/><path class="cls-8" d="M454.08,295.42l-23.27-94.14c-.87-3.84-4-6.21-7.43-6l-98.11,10.61a16.43,16.43,0,0,0-2.7.9l-20.28,13.44-11.69,8-21.53,14.33a8.12,8.12,0,0,0-2.22,2.37,1.22,1.22,0,0,0-.58.91V246a10.46,10.46,0,0,0-.48,5.76l22.11,92c.87,3.72,3.77,6.21,7.15,6.21l101.48-5.31a3.85,3.85,0,0,0,1.35-.34,7.17,7.17,0,0,0,1.84-.9l51.66-38.94C454,302.53,454.86,299,454.08,295.42ZM323.63,209c.48-.34.77-.34,1.06-.57.29,0,.58-.22.87-.22l97.91-10.95a4.33,4.33,0,0,1,3,.79l-25.11,17.16-.1.11a3.49,3.49,0,0,0-2.6-1.13l-92,6.21Zm-30.8,20.54.28-.22,97.15-6.55-19.12,13.09-101.3,8.81c.1,0,.1-.12.2-.12Zm-3,113.78-22.11-92a6.74,6.74,0,0,1,.39-4.41L370.17,238,396.05,342.6l-100.81,5.08A5.63,5.63,0,0,1,289.83,343.28Zm109-1.58a3.29,3.29,0,0,1-.87.45L372,237.63l19-13,28.29,101.47Zm51.66-38.94-23.37,17.49c-2.6-10.61-21.72-90-25.2-103.17l.39-.22,25.49-17.5h0a3.42,3.42,0,0,1,1,2.37l23.47,94A6.36,6.36,0,0,1,450.51,302.76Z" transform="translate(14.83 1.61)"/><path class="cls-1" d="M295.72,271.77a3.07,3.07,0,0,0,2,.76h.25l42.29-3.19.66-.06.17-.06a3.79,3.79,0,0,0,2.18-4.08,4.2,4.2,0,0,0-1.46-2.84,3,3,0,0,0-2.22-.74l-42.28,3.18c-2,.19-3.18,2.33-3,4.2A4.24,4.24,0,0,0,295.72,271.77Z" transform="translate(14.83 1.61)"/><path class="cls-1" d="M295.91,292.4l42.29-3.18.66-.07.17-.06a3.77,3.77,0,0,0,2.18-4.07,4.25,4.25,0,0,0-1.45-2.85,3,3,0,0,0-2.23-.74l-42.28,3.18c-2,.19-3.18,2.33-3,4.2a4.28,4.28,0,0,0,1.46,2.85,3.11,3.11,0,0,0,2,.75Z" transform="translate(14.83 1.61)"/><path class="cls-1" d="M341.56,306.71l.17-.06a3.78,3.78,0,0,0,2.18-4.08,4.19,4.19,0,0,0-1.45-2.84,3.06,3.06,0,0,0-2.23-.75L298,302.17c-2,.19-3.18,2.32-3,4.2a4.24,4.24,0,0,0,1.46,2.84,3.07,3.07,0,0,0,2,.76h.26l42.28-3.19Z" transform="translate(14.83 1.61)"/><path class="cls-1" d="M352.27,322.68a4.24,4.24,0,0,0-1.46-2.84,3,3,0,0,0-2.22-.75l-42.29,3.19c-2,.19-3.17,2.32-3,4.2a4.23,4.23,0,0,0,1.45,2.84,3.09,3.09,0,0,0,2,.76H307l42.28-3.19.66-.06.18-.06A3.81,3.81,0,0,0,352.27,322.68Z" transform="translate(14.83 1.61)"/><path class="cls-9" d="M360.78,297.86a7.47,7.47,0,0,0,10-4.47l.39-1.39,26.9-3.71L388.82,277l-24.21,5.24a7.73,7.73,0,0,0-8.69,6.93A8.36,8.36,0,0,0,360.78,297.86Z" transform="translate(14.83 1.61)"/><path class="cls-10" d="M377.81,291.33l.16-16.9L427.14,265l39.6-43.7a18.47,18.47,0,0,1,27.2-.59,20.8,20.8,0,0,1,2.35,2.8h0A21.35,21.35,0,0,1,491.85,252l-52.39,39.7Z" transform="translate(14.83 1.61)"/><polygon class="cls-2" points="501.15 494.39 544.79 559.29 561.5 546.73 525.09 467.43 501.15 494.39"/></svg>