<svg id="Warstwa_1" data-name="Warstwa 1" xmlns="http://www.w3.org/2000/svg" viewBox="0 0 1081.88 610.62"><defs><style>.cls-1{fill:#e3e2e2;}.cls-2{fill:#e5e3e2;}.cls-3{fill:#cccbcb;}.cls-4{fill:#fff;}.cls-5{fill:#a5a19d;}.cls-6{fill:#f5b3b6;}.cls-7{fill:#d4d2d1;}.cls-8{fill:#282524;}.cls-9{fill:#855b61;}.cls-10{fill:#f6bfc9;}.cls-11{fill:#cac9c9;}.cls-12{fill:#565350;}.cls-13{fill:#b6a07f;}</style></defs><path class="cls-1" d="M981.32,547.37c-.06-.63-1.35-86.27,44.13-128.63l-3.15-2.8c-47,43.76-45.43,131.24-45.38,131.86" transform="translate(-3.39 -2.64)"/><path class="cls-1" d="M1049.53,369.77c-14.42-5.92-49.51,23.43-56,36.78h0c-6.46,13.39,0,29.06,14.47,35s31.42,0,37.83-13.35S1064,375.75,1049.53,369.77Z" transform="translate(-3.39 -2.64)"/><path class="cls-1" d="M1046.48,461.25s-23.56-6.8-41,2.79-22.12,32-22.12,32,23.57,6.8,41-2.79S1046.48,461.25,1046.48,461.25Z" transform="translate(-3.39 -2.64)"/><path class="cls-2" d="M333,539.6h0a15.56,15.56,0,0,1,15.53-15.53H996.15a15.56,15.56,0,0,1,15.53,15.53h0a15.56,15.56,0,0,1-15.53,15.52H348.54A15.51,15.51,0,0,1,333,539.6Z" transform="translate(-3.39 -2.64)"/><path class="cls-1" d="M959.28,125.64,667.83,3a10.57,10.57,0,0,0-5.47,0L374.74,125.64a10.91,10.91,0,0,0,2.73,21.48H956.55a10.91,10.91,0,0,0,2.73-21.48Zm-80.85,2.12H451.82a1.94,1.94,0,0,1-.48-3.83L664.61,30a2.22,2.22,0,0,1,1,0l213.34,93.91A2,2,0,0,1,878.43,127.76Z" transform="translate(-3.39 -2.64)"/><path class="cls-1" d="M933,167.29H396.14A12.79,12.79,0,0,0,383.42,180V492a12.7,12.7,0,0,0,12.72,12.72H933A12.7,12.7,0,0,0,945.74,492V180A12.7,12.7,0,0,0,933,167.29Zm-9.33,306.93a11.18,11.18,0,0,1-11.29,11.07H416.76a11.18,11.18,0,0,1-11.29-11.07V197.78a11.17,11.17,0,0,1,11.29-11.06H912.4a11.17,11.17,0,0,1,11.29,11.06Z" transform="translate(-3.39 -2.64)"/><path class="cls-1" d="M224.46,582.28h0A15.56,15.56,0,0,1,240,566.75h794.94a15.56,15.56,0,0,1,15.53,15.53h0a15.56,15.56,0,0,1-15.53,15.52h-795A15.53,15.53,0,0,1,224.46,582.28Z" transform="translate(-3.39 -2.64)"/><path class="cls-3" d="M1085.27,611.35h0a1.9,1.9,0,0,1-1.91,1.91H5.31a1.91,1.91,0,0,1-1.92-1.91h0a1.91,1.91,0,0,1,1.92-1.92H1083.36A1.87,1.87,0,0,1,1085.27,611.35Z" transform="translate(-3.39 -2.64)"/><path class="cls-4" d="M117.48,518.8c-.75.21-1.16-1.09-.34-1.16,6.43-1.51,10.53-8.07,9.58-15.46-.21-.75,1-.75,1.09,0,1,7.8-3.35,14.77-10.33,16.62Z" transform="translate(-3.39 -2.64)"/><line class="cls-5" x1="449.76" y1="349.84" x2="449.76" y2="440.55"/><path class="cls-5" d="M453.15,451.18a8,8,0,0,1-8-8V352.47a8,8,0,0,1,16,0v90.71A8,8,0,0,1,453.15,451.18Z" transform="translate(-3.39 -2.64)"/><line class="cls-5" x1="492.28" y1="312.99" x2="492.28" y2="392.36"/><path class="cls-5" d="M495.67,403a8,8,0,0,1-8-8V315.62a8,8,0,0,1,16,0V395A8,8,0,0,1,495.67,403Z" transform="translate(-3.39 -2.64)"/><line class="cls-5" x1="534.8" y1="381.02" x2="534.8" y2="437.71"/><path class="cls-5" d="M538.19,448.35a8,8,0,0,1-8-8V383.66a8,8,0,0,1,16,0v56.69A8,8,0,0,1,538.19,448.35Z" transform="translate(-3.39 -2.64)"/><line class="cls-5" x1="577.32" y1="233.62" x2="577.32" y2="423.54"/><path class="cls-5" d="M580.71,434.18a8,8,0,0,1-8-8V236.25a8,8,0,0,1,16,0V426.18A8,8,0,0,1,580.71,434.18Z" transform="translate(-3.39 -2.64)"/><line class="cls-5" x1="619.84" y1="261.96" x2="619.84" y2="349.84"/><path class="cls-5" d="M623.23,360.47a8,8,0,0,1-8-8V264.6a8,8,0,0,1,16,0v87.87A8,8,0,0,1,623.23,360.47Z" transform="translate(-3.39 -2.64)"/><line class="cls-5" x1="662.36" y1="298.81" x2="662.36" y2="361.18"/><path class="cls-5" d="M665.75,371.81a8,8,0,0,1-8-8V301.45a8,8,0,0,1,16,0v62.36A8,8,0,0,1,665.75,371.81Z" transform="translate(-3.39 -2.64)"/><line class="cls-5" x1="704.87" y1="338.5" x2="704.87" y2="423.54"/><path class="cls-5" d="M708.27,434.18a8,8,0,0,1-8-8v-85a8,8,0,1,1,16,0v85A8,8,0,0,1,708.27,434.18Z" transform="translate(-3.39 -2.64)"/><line class="cls-5" x1="747.39" y1="284.64" x2="747.39" y2="383.85"/><path class="cls-5" d="M750.79,394.49a8,8,0,0,1-8-8V287.28a8,8,0,0,1,16,0v99.21A8,8,0,0,1,750.79,394.49Z" transform="translate(-3.39 -2.64)"/><line class="cls-5" x1="789.91" y1="239.29" x2="789.91" y2="307.32"/><path class="cls-5" d="M793.31,318a8,8,0,0,1-8-8v-68a8,8,0,0,1,16,0v68A8,8,0,0,1,793.31,318Z" transform="translate(-3.39 -2.64)"/><line class="cls-5" x1="832.43" y1="276.14" x2="832.43" y2="364.01"/><path class="cls-5" d="M835.83,374.65a8,8,0,0,1-8-8V278.77a8,8,0,1,1,16,0v87.88A8,8,0,0,1,835.83,374.65Z" transform="translate(-3.39 -2.64)"/><line class="cls-5" x1="874.95" y1="236.45" x2="874.95" y2="321.49"/><path class="cls-5" d="M878.35,332.13a8,8,0,0,1-8-8v-85a8,8,0,0,1,16,0v85A8,8,0,0,1,878.35,332.13Z" transform="translate(-3.39 -2.64)"/><path class="cls-6" d="M574.56,357.54a7.85,7.85,0,0,1-5.54-9.47,8.65,8.65,0,0,1,.44-1.3l-19.65-19,13.59-3.38L580,343a8,8,0,0,1,3.2,10.62,7.54,7.54,0,0,1-8.61,4Z" transform="translate(-3.39 -2.64)"/><path class="cls-7" d="M564.42,342.24l9.16-13.35-34.41-36.78-8-58c-1.49-10.78-11.15-18.28-21.58-16.74a19.06,19.06,0,0,0-3.41.83h0c-10,3.49-15.34,14.67-12,25l20.38,62.51Z" transform="translate(-3.39 -2.64)"/><polygon class="cls-6" points="496.42 586.65 506.59 586.65 511.42 546.11 496.41 546.11 496.42 586.65"/><path class="cls-8" d="M494.34,609.25h7.21l1.29-7,3.3,7h19.14a4.37,4.37,0,0,0,4.3-4.45,4.48,4.48,0,0,0-1.86-3.66l-15.28-10.9v-7.12l-16.08,1Z" transform="translate(-3.39 -2.64)"/><polygon class="cls-6" points="433.68 575.96 442.61 580.98 465.61 547.76 452.42 540.35 433.68 575.96"/><path class="cls-8" d="M423,593.42l6.34,3.57,4.39-5.55-.36,7.82,16.81,9.45a4.24,4.24,0,0,0,5.84-1.78,4.62,4.62,0,0,0,.06-4.13l-8.38-17.13,3.29-6.26-14.58-7.07Z" transform="translate(-3.39 -2.64)"/><path class="cls-1" d="M495.52,574.86h21V497.51l13-50.43a298.09,298.09,0,0,0,7.31-110.7l0-.15-.11-.1c-.34-.29-31.32-27.87-52.38-6.1-19.38,23.72-3.05,55.08-1,57.52l-1.44,102.91Z" transform="translate(-3.39 -2.64)"/><path class="cls-7" d="M495.57,210.14l.12-.11,26.79.42,14.31,34.71c13.24,21.26.58,33.35-.31,35.26L539,306.51l1.63,16.83,2.62,27.1-65.19-18,10.61-31-7.89-40.8A57.06,57.06,0,0,1,495.57,210.14Z" transform="translate(-3.39 -2.64)"/><polygon class="cls-1" points="504.67 495.27 461.49 558.03 444.93 545.86 480.99 469.28 504.67 495.27"/><ellipse class="cls-6" cx="508.2" cy="175.19" rx="24.74" ry="25.57"/><polygon class="cls-5" points="484.34 274.11 511.32 306.29 537.25 320.7 535.62 303.87 520.35 295.01 484.34 274.11"/><path class="cls-9" d="M528.92,225.75l2.32-10.52a27.78,27.78,0,0,0-3.61-20.66,19.33,19.33,0,0,1-.56-19.16,14.25,14.25,0,0,1,12.43-8.09h.61v-.64c0-9.16-6.91-15.64-13.34-16-.23-1.9-1.54-3.62-3.82-5-5.44-3.25-16-3.95-23.91.37a7.78,7.78,0,0,0-4.65-6.37,7.24,7.24,0,0,0-4.07-.24,9.63,9.63,0,0,0-2.58-6.13c-2.2-2.2-5.72-3-9.66-2.3-5.42,1-10.76,4.59-15,10.05-3.8,4.84-6.43,10.55-9,16.07s-5.09,11-8.85,15.8c-4.11,5.2-9.21,8.58-14.35,9.5-6,1.07-12.15-1.48-15-6.21l-.56-.93-.51,1c-3.16,6-1.87,14.27,3.08,19.63,4.43,4.82,11.4,7.27,18.61,6.55,6.12-.6,12.28-3.28,18.33-8s9.72-9.82,11-15.32a42.56,42.56,0,0,0,.79-5.16c.41-3.64.8-7.07,3-9.6,1.95-2.28,5-3.26,7.63-4l.52-.14a7.15,7.15,0,0,0,2.92,5.14,4.82,4.82,0,0,0,1.6.63c-3.1,12.88-1.83,22.74,3.78,29.31,9.47,11.1,27.67,8.82,28.44,8.72L515,204l0-.53a28.8,28.8,0,0,1,.5-4.26c2.61,6.49,11.37,23.65,12.55,25.38Z" transform="translate(-3.39 -2.64)"/><path class="cls-6" d="M607.79,339.23a7.65,7.65,0,0,1-8.26-7,9.08,9.08,0,0,1,0-1.38l-24.61-11.2,11.74-7.83,21.58,11.83a7.83,7.83,0,0,1,6.41,8.93A7.73,7.73,0,0,1,607.79,339.23Z" transform="translate(-3.39 -2.64)"/><path class="cls-7" d="M593.32,328.26l4.37-15.73-44.25-22.94-26.1-52a18.78,18.78,0,0,0-25.73-8.42,19,19,0,0,0-2.94,1.95h0a20.19,20.19,0,0,0-3.31,27.68l39.25,52Z" transform="translate(-3.39 -2.64)"/><path class="cls-1" d="M77.05,610.3c.15-.38,11.25-34.81-8.51-65.59L66.49,546c19.15,29.79,8.36,63.31,8.28,63.54Z" transform="translate(-3.39 -2.64)"/><path class="cls-1" d="M54.48,549.12a15.65,15.65,0,0,0,30.63-6.46h0c-1.83-8.51-17-29.57-25.46-27.74S52.66,540.61,54.48,549.12Z" transform="translate(-3.39 -2.64)"/><path class="cls-1" d="M57.29,588.71c7.53,8.14,21.05,7.91,21.05,7.91S79.64,583.09,72,575,51,567.05,51,567.05,49.77,580.58,57.29,588.71Z" transform="translate(-3.39 -2.64)"/><path class="cls-10" d="M171.05,338.68c-4.49-4.22-12.36-3.17-15.87,2.13l-35.67-8.06,5.88,17.33L158.33,355c9.8,5.68,21.61-8.34,12.72-16.32Z" transform="translate(-3.39 -2.64)"/><path class="cls-11" d="M45.56,510.51H92.14l19,98.65,5.71.09L80.63,418.91,74.55,420l9.54,49.37H53.42L63,420l-6.08-1.09L20.4,609.25l6.08-.09Zm1.31-7.31L52,476.69H85.5l5.14,26.51Z" transform="translate(-3.39 -2.64)"/><path class="cls-7" d="M69.1,263.93l-11.22,5.22C46.3,286,77.25,337.75,78.61,345.68l65.74,7.94.14-16.23L97.65,325A128.41,128.41,0,0,0,69.1,263.93Z" transform="translate(-3.39 -2.64)"/><path class="cls-11" d="M73,398.7C13,399,13,427.52,73,427.78,132.91,427.52,132.91,399,73,398.7Z" transform="translate(-3.39 -2.64)"/><polygon class="cls-10" points="171.99 594.18 184.05 590.89 176.94 543.62 159.08 548.47 171.99 594.18"/><path class="cls-8" d="M169.9,607.44l40.63,1.81c1.14-8.6-5.53-16.07-14.4-16.54l-24.85-1.1Z" transform="translate(-3.39 -2.64)"/><polygon class="cls-10" points="207.06 594.36 218.56 589.34 204.54 543.62 187.51 550.94 207.06 594.36"/><path class="cls-8" d="M212.51,609.16l37-16a15.85,15.85,0,0,0-21-8.32L206,594.62Z" transform="translate(-3.39 -2.64)"/><path class="cls-12" d="M37.52,377.77s-6.08,18.46,31.33,41.78L117,466.45l50,117,29.74-13C178,522.94,154,448,124.4,405.56l-.74-24.78-6.55-17.46-47.7-16.55Z" transform="translate(-3.39 -2.64)"/><path class="cls-12" d="M61.83,378.68s-6.08,18.47,31.34,41.78l48.16,46.9,56.93,111.53,22.86-7.49c-9.3-24.41-35.91-93.74-45.65-119.21-16-29.25-36.08-56.77-60.42-79.73l-.93-13.71L93.73,347.69Z" transform="translate(-3.39 -2.64)"/><path class="cls-7" d="M90.64,288.26l-15-31.08-26.1-3.47c-21.11,27.38-15.28,53.43-11.31,99.46,0,3.11-2.72,4.48-2.81,7.32s5.24,7.22,3.74,9.14c-20.14,26.14,53.39-12.84,77.82-6.4Z" transform="translate(-3.39 -2.64)"/><path class="cls-10" d="M65.73,199.25c-33.31.56-33.3,48.49,0,49.05C99,247.74,99,199.81,65.73,199.25Z" transform="translate(-3.39 -2.64)"/><path class="cls-8" d="M91.47,233.86c1-11.07,6.33-12.46,4-23h0c-1.58-13.53-12.27-21.46-25.64-19.58-3-1.47-6.09-3.19-9.6-3.36-11.8-3.78-16.5,8.59-22.37,16-12,9.1-12,26.49-10.11,40.15a55.58,55.58,0,0,1-7.66,26.7c-1.68,2.65-4.78,4.22-6.24,6.92-.4,1.58,1.54,2.57,3.07,3.36,8.41,4.13,13.53,17.78,24.52,15.13,5.4-3.06,10.68,2,16.34.4,2.54-5.5,1.44-12.75,1.64-18.89-.72-12.46-12.57-26.9-8.08-38.57,2-5.14,5.52-9.49,7.56-14.53,2.86-5.88,9.77-10.53,11.85-16.82C80.53,205.1,82.47,243.85,91.47,233.86Z" transform="translate(-3.39 -2.64)"/><path class="cls-10" d="M159.07,369.59c-3.68-4.85-11.68-5-16-.29L109.29,356l2.7,18,31.62,9.81c8.6,7.06,22.81-4.94,15.46-14.19Z" transform="translate(-3.39 -2.64)"/><path class="cls-7" d="M124.45,377.65l3-17.15L83.81,341c.39-41.1,1.77-30.28-17.72-65.72l-12.4,3.75c-13,19.69.66,43.44,4.83,70.5A17.57,17.57,0,0,0,71.2,362.49Z" transform="translate(-3.39 -2.64)"/><path class="cls-1" d="M134.65,138.7" transform="translate(-3.39 -2.64)"/><rect class="cls-1" x="131.26" y="136.06" width="4.31" height="4.31" rx="2.15"/><path class="cls-13" d="M173,301a6.26,6.26,0,0,1-6.32-6.32V108a6.25,6.25,0,0,1,6.32-6.31H300.35a6.24,6.24,0,0,1,6.32,6.31V294.59a5.88,5.88,0,0,1-1.55,4.37,6.5,6.5,0,0,1-4.77,2.05Z" transform="translate(-3.39 -2.64)"/><ellipse class="cls-4" cx="230.63" cy="259.58" rx="13.15" ry="12.81"/><path class="cls-4" d="M232.63,128.52c-20.55.14-37.38,16.41-37.67,36.44v3.17a9.52,9.52,0,0,0,9.63,9.39h0a9.55,9.55,0,0,0,9.66-9.42h0v-2a18.3,18.3,0,0,1,36.58,0,17.72,17.72,0,0,1-8.43,15h0s-13.72,8.61-17.92,20.42h0a25.49,25.49,0,0,0-1.11,7.46c0,1,0,10.11.17,17.49a9.81,9.81,0,0,0,9.94,9.53h0a9.84,9.84,0,0,0,10-9.7v-.05c0-6.74-.06-14.6-.06-15.18,0-7.24,7.17-14.48,13.09-19.19a38.32,38.32,0,0,0,13.63-21.17,23.35,23.35,0,0,0,.71-5.24c0-20.41-17-37-37.92-37A1.06,1.06,0,0,1,232.63,128.52Z" transform="translate(-3.39 -2.64)"/></svg>