<svg id="Warstwa_1" data-name="Warstwa 1" xmlns="http://www.w3.org/2000/svg" viewBox="0 0 1081.88 610.62"><defs><style>.cls-1{fill:#e3e2e2;}.cls-2{fill:#e5e3e2;}.cls-3{fill:#cccbcb;}.cls-4{fill:#f6bfc9;}.cls-16,.cls-5{fill:#fff;}.cls-6{fill:#565350;}.cls-7{fill:#545562;}.cls-10,.cls-8{opacity:0.1;}.cls-9{fill:#855b61;}.cls-10,.cls-12{isolation:isolate;}.cls-11{fill:#a5a19d;}.cls-12{opacity:0.05;}.cls-13{fill:#b6a07f;}.cls-14{fill:#655c51;}.cls-15{fill:none;}.cls-16{stroke:#fff;stroke-miterlimit:10;stroke-width:2px;}</style></defs><path class="cls-1" d="M982.48,546.87c-.05-.63-1.34-86.27,44.13-128.63l-3.15-2.8c-47,43.76-45.42,131.24-45.37,131.86" transform="translate(-4.56 -2.14)"/><path class="cls-1" d="M1050.7,369.27c-14.42-5.92-49.51,23.43-56,36.78h0c-6.46,13.39-.05,29.06,14.47,35s31.42,0,37.83-13.35S1065.11,375.25,1050.7,369.27Z" transform="translate(-4.56 -2.14)"/><path class="cls-1" d="M1047.65,460.75s-23.57-6.8-41,2.79-22.12,32-22.12,32,23.56,6.8,41-2.79S1047.65,460.75,1047.65,460.75Z" transform="translate(-4.56 -2.14)"/><path class="cls-1" d="M60,610.64c.14-.34,10.12-31.33-7.66-59l-1.85,1.17c17.24,26.81,7.53,57,7.46,57.18Z" transform="translate(-4.56 -2.14)"/><path class="cls-1" d="M39.72,555.58a14.08,14.08,0,1,0,27.56-5.81h0c-1.64-7.67-15.32-26.61-22.91-25S38.07,547.92,39.72,555.58Z" transform="translate(-4.56 -2.14)"/><path class="cls-1" d="M42.25,591.22c6.77,7.31,18.94,7.11,18.94,7.11s1.17-12.18-5.67-19.49-19-7.12-19-7.12S35.48,583.9,42.25,591.22Z" transform="translate(-4.56 -2.14)"/><path class="cls-2" d="M334.18,539.1h0a15.56,15.56,0,0,1,15.53-15.53H997.32a15.56,15.56,0,0,1,15.52,15.53h0a15.55,15.55,0,0,1-15.52,15.52H349.7A15.51,15.51,0,0,1,334.18,539.1Z" transform="translate(-4.56 -2.14)"/><path class="cls-1" d="M960.45,125.14,669,2.5a10.61,10.61,0,0,0-5.48,0L375.9,125.14a10.91,10.91,0,0,0,2.74,21.48H957.71a10.91,10.91,0,0,0,2.74-21.48Zm-80.85,2.12H453a1.94,1.94,0,0,1-.48-3.83L665.78,29.52a2.22,2.22,0,0,1,1,0l213.34,93.91A2,2,0,0,1,879.6,127.26Z" transform="translate(-4.56 -2.14)"/><path class="cls-1" d="M934.18,166.79H397.31a12.79,12.79,0,0,0-12.72,12.73v312a12.7,12.7,0,0,0,12.72,12.72H934.18a12.7,12.7,0,0,0,12.73-12.72v-312A12.71,12.71,0,0,0,934.18,166.79Zm-9.32,306.93a11.19,11.19,0,0,1-11.29,11.07H417.92a11.18,11.18,0,0,1-11.28-11.07V197.28a11.17,11.17,0,0,1,11.28-11.06H913.57a11.18,11.18,0,0,1,11.29,11.06Z" transform="translate(-4.56 -2.14)"/><path class="cls-1" d="M225.63,581.78h0a15.56,15.56,0,0,1,15.52-15.53H1036.1a15.56,15.56,0,0,1,15.53,15.53h0a15.56,15.56,0,0,1-15.53,15.52h-795A15.53,15.53,0,0,1,225.63,581.78Z" transform="translate(-4.56 -2.14)"/><path class="cls-3" d="M1086.44,610.85h0a1.91,1.91,0,0,1-1.91,1.91H6.47a1.91,1.91,0,0,1-1.91-1.91h0a1.91,1.91,0,0,1,1.91-1.92H1084.53A1.87,1.87,0,0,1,1086.44,610.85Z" transform="translate(-4.56 -2.14)"/><path class="cls-4" d="M208.53,367.58l-3.38-5.17L189.4,327.1l-1.48-37.27c1.6-8.35-2.87-14.49-9.75-13.87a17.9,17.9,0,0,0-2.39.41c-7.1,2.32-13.07,10.55-13.43,18.68l12.43,40.25,20.67,27.25,4.14,7a2.78,2.78,0,0,1-.4,1c-1.15,3.14.34,8.55,3.28,9.49,2.52.86,6,.15,7.46-2.26C211.8,375.08,211.2,369.24,208.53,367.58Z" transform="translate(-4.56 -2.14)"/><path class="cls-5" d="M118.65,518.3c-.75.21-1.16-1.09-.34-1.16,6.43-1.51,10.53-8.07,9.57-15.46-.2-.75,1-.75,1.1,0,1,7.8-3.35,14.77-10.33,16.62Z" transform="translate(-4.56 -2.14)"/><polygon class="cls-4" points="125.92 549.95 140.63 549.95 135.77 586.82 125.92 586.82 125.92 549.95"/><path class="cls-6" d="M127.06,584.24l15.73-1v6.57l15.05,10a4.06,4.06,0,0,1-2.46,7.46H136.64l-3.35-6.43-1.17,6.43h-7Z" transform="translate(-4.56 -2.14)"/><polygon class="cls-4" points="82.83 544.69 95.76 551.39 73.26 581.69 64.43 577.18 82.83 544.69"/><path class="cls-6" d="M68.38,573.64l14.29,6.43-3.35,5.67,8.14,15.67a3.44,3.44,0,0,1,0,3.62,4.31,4.31,0,0,1-5.68,1.71L65.3,598.19l.34-7-4.38,5.06L55,593Z" transform="translate(-4.56 -2.14)"/><path class="cls-6" d="M112.77,498.67l-1.92-57.59,1.58-35.23c-3.63-2.94-24.29-27.56.41-54.24,20.72-19.77,53.28,6.09,53.62,6.43l.14.14v.13a251.1,251.1,0,0,1-7,100.89l-12.79,46v70.59H126.17Z" transform="translate(-4.56 -2.14)"/><polygon class="cls-6" points="110.81 479.77 75.38 549.61 91.59 560.76 133.93 503.51 110.81 479.77"/><path class="cls-7" d="M169.54,228.49h-.68a1.83,1.83,0,0,1-1.71-1.91V211.46a1.79,1.79,0,0,1,1.71-1.92h.61a1.83,1.83,0,0,1,1.71,1.92v15.12A1.82,1.82,0,0,1,169.54,228.49Z" transform="translate(-4.56 -2.14)"/><g class="cls-8"><path d="M169.54,228.49h-.68a1.83,1.83,0,0,1-1.71-1.91V211.46a1.79,1.79,0,0,1,1.71-1.92h.61a1.83,1.83,0,0,1,1.71,1.92v15.12A1.82,1.82,0,0,1,169.54,228.49Z" transform="translate(-4.56 -2.14)"/></g><rect class="cls-9" x="126.13" y="217.32" width="42.07" height="49.66"/><rect class="cls-10" x="126.13" y="210.48" width="42.07" height="49.66"/><path class="cls-4" d="M171.25,260.78l-2.6,21-1.16,9.85-.41,3.63-3.63,8.14-6.77,15.05-13.06,1.84-23-36.86s-12-26.2,6.23-23.81c10.33,1.37,12.65-9.09,12.86-18.53a69.68,69.68,0,0,0-1.17-14.16L156.82,237c-.41,2.26-.76,4.31-1,6.23-.89,7.73-.14,12.51,1.37,15.46C161.47,266.45,171.25,260.78,171.25,260.78Z" transform="translate(-4.56 -2.14)"/><path class="cls-10" d="M156.89,237c-.42,2.26-.76,4.31-1,6.23a19,19,0,0,1-5.82,1,19.79,19.79,0,0,1-10.39-3.07,69.68,69.68,0,0,0-1.17-14.16Z" transform="translate(-4.56 -2.14)"/><ellipse class="cls-4" cx="145.56" cy="217.26" rx="21.14" ry="24.15"/><path class="cls-11" d="M172.28,388.07,97.58,383a2.44,2.44,0,0,1-2-3.56l14-25c.62-12.86,6.09-30.43,4-40.76a40,40,0,0,0-3-9.31l32.63.21h.34l2.67,7.32.13.34,2.06,5.34L155,303.11l2.32-4.51,1.3-2.6s19.5-5.33,19.84,8.35c0,1.64,0,3.21-.14,4.72-1,11.14-6.08,18.53-10.33,23.59C163,338.55,172.28,388.07,172.28,388.07Z" transform="translate(-4.56 -2.14)"/><path class="cls-10" d="M193.75,297.37c-.2.34-.54.41-1.09.41-5.27-.89-11.29,7.73-11.29,7.73l-.34.34a24.68,24.68,0,0,1-1.5-4.86l10.94-9.23Z" transform="translate(-4.56 -2.14)"/><path class="cls-10" d="M178.23,308.18c-2.47,1.5-5.82,2.66-8.49-.35-4.51-5.13-12.51-4.51-13-4.51.89-.14,1.5-2.05,2.12-4.58l1.16-2.26s18-4.72,18.26,7.52C178.29,305.3,178.29,306.74,178.23,308.18Z" transform="translate(-4.56 -2.14)"/><path class="cls-10" d="M168.65,281.77,167,295.32l-3.63,8.14a19.89,19.89,0,0,0-7-.76c2.6-.41,4.31-18.87,4.31-18.87h.13Z" transform="translate(-4.56 -2.14)"/><path class="cls-11" d="M192.66,297.1c-5.27-.89-11.29,7.72-11.29,7.72s-7,7.73-11.76,2.33c-4.52-5.13-12.52-4.51-13-4.51,2.6-.41,4.31-18.88,4.31-18.88h.14l25.1-6.36s1.51,2.6,3.22,5.88C192.38,289.37,196,297.64,192.66,297.1Z" transform="translate(-4.56 -2.14)"/><path class="cls-10" d="M186.37,285.19c.2.62-4.18,3.56-6.23,2.67s-7.32,3.83-7.8,4.52-12.24-.89-12.24-.89c.41-2.47.89-5.06,1.09-7.6l25.11-6.36s1.5,2.6,3.21,5.89C187.73,284.17,186.23,284.92,186.37,285.19Z" transform="translate(-4.56 -2.14)"/><path class="cls-10" d="M171.25,260.78l-2.6,21-1.16,9.85c-3.56-.34-7.73-.89-7.73-.89s4.38-21.13-2.87-32.14h.41C161.47,266.45,171.25,260.78,171.25,260.78Z" transform="translate(-4.56 -2.14)"/><path class="cls-11" d="M157.16,258.59s13.27-1.17,18.54,3,12.79,16.75,12.79,16.75l4.17,3s-6.57,2.67-6.23,3.36-4.17,3.55-6.22,2.66-7.32,3.83-7.8,4.52-12.24-.89-12.24-.89S164.48,269.67,157.16,258.59Z" transform="translate(-4.56 -2.14)"/><path class="cls-12" d="M148.2,303.8s2.05,3.83,2.05,6.57c0,0,1.64-6.57,2.87-6.57" transform="translate(-4.56 -2.14)"/><ellipse class="cls-13" cx="275.47" cy="236.14" rx="17.6" ry="17.15"/><path class="cls-13" d="M278.15,59.31c-27.5.19-50,22-50.41,48.77v4.25a12.73,12.73,0,0,0,12.89,12.56h0a12.77,12.77,0,0,0,12.93-12.6h0v-2.68c0-13.16,10.94-23.86,24.48-23.86s24.48,10.66,24.48,23.86a23.72,23.72,0,0,1-11.29,20.09h0s-18.36,11.52-24,27.33h0a33.87,33.87,0,0,0-1.49,10c0,1.38.07,13.54.23,23.42a13.14,13.14,0,0,0,13.31,12.75h0a13.16,13.16,0,0,0,13.31-13v-.08c0-9-.08-19.54-.08-20.32,0-9.69,9.61-19.39,17.52-25.69A51.3,51.3,0,0,0,328.3,115.8a31.55,31.55,0,0,0,1-7c0-27.33-22.73-49.51-50.76-49.51A1.38,1.38,0,0,1,278.15,59.31Z" transform="translate(-4.56 -2.14)"/><path class="cls-14" d="M244.26,119h0a12.74,12.74,0,0,1-12.89-12.57v-4.25a47.67,47.67,0,0,1,5.89-22.33,48.52,48.52,0,0,0-9.72,28.3v4.25a12.74,12.74,0,0,0,12.89,12.56h0a12.87,12.87,0,0,0,12.44-9.17A12.94,12.94,0,0,1,244.26,119Z" transform="translate(-4.56 -2.14)"/><path class="cls-14" d="M279,85.82c13.5.64,24,11.82,23.3,25a23.69,23.69,0,0,1-2,8.35,23.45,23.45,0,0,0-2.76-33.63,24.93,24.93,0,0,0-34.5,2.69,23.59,23.59,0,0,0-3.83,6A24.58,24.58,0,0,1,279,85.82Z" transform="translate(-4.56 -2.14)"/><path class="cls-14" d="M283,197.26h0a13.14,13.14,0,0,1-13.31-12.75c-.15-9.88-.23-22-.23-23.41a34.22,34.22,0,0,1,1.49-10h0a35.13,35.13,0,0,1,2.11-4.73,39.5,39.5,0,0,0-5.93,10.7h0a33.83,33.83,0,0,0-1.5,10c0,1.38.08,13.54.23,23.42a13.15,13.15,0,0,0,13.32,12.75h0a13.24,13.24,0,0,0,12.77-9.32A13.29,13.29,0,0,1,283,197.26Z" transform="translate(-4.56 -2.14)"/><path class="cls-14" d="M276.16,251.25a17,17,0,0,1-9.1-22.56,18.72,18.72,0,0,1,2.56-4.1,16.87,16.87,0,0,0-3.82,24,17.85,17.85,0,0,0,27.77.82A18.07,18.07,0,0,1,276.16,251.25Z" transform="translate(-4.56 -2.14)"/><line class="cls-11" x1="449.76" y1="349.84" x2="449.76" y2="440.55"/><path class="cls-11" d="M454.32,450.68a8,8,0,0,1-8-8V352a8,8,0,0,1,16,0v90.71A8,8,0,0,1,454.32,450.68Z" transform="translate(-4.56 -2.14)"/><line class="cls-11" x1="492.28" y1="312.99" x2="492.28" y2="392.36"/><path class="cls-11" d="M496.84,402.49a8,8,0,0,1-8-8V315.12a8,8,0,0,1,16,0v79.37A8,8,0,0,1,496.84,402.49Z" transform="translate(-4.56 -2.14)"/><line class="cls-11" x1="534.8" y1="381.02" x2="534.8" y2="437.71"/><path class="cls-11" d="M539.35,447.85a8,8,0,0,1-8-8V383.16a8,8,0,1,1,16,0v56.69A8,8,0,0,1,539.35,447.85Z" transform="translate(-4.56 -2.14)"/><line class="cls-11" x1="577.32" y1="233.62" x2="577.32" y2="423.54"/><path class="cls-11" d="M581.87,433.68a8,8,0,0,1-8-8V235.75a8,8,0,0,1,16,0V425.68A8,8,0,0,1,581.87,433.68Z" transform="translate(-4.56 -2.14)"/><line class="cls-11" x1="619.84" y1="261.96" x2="619.84" y2="349.84"/><path class="cls-11" d="M624.39,360a8,8,0,0,1-8-8V264.1a8,8,0,0,1,16,0V352A8,8,0,0,1,624.39,360Z" transform="translate(-4.56 -2.14)"/><line class="cls-11" x1="662.36" y1="298.81" x2="662.36" y2="361.18"/><path class="cls-11" d="M666.91,371.31a8,8,0,0,1-8-8V301a8,8,0,1,1,16,0v62.36A8,8,0,0,1,666.91,371.31Z" transform="translate(-4.56 -2.14)"/><line class="cls-11" x1="704.87" y1="338.5" x2="704.87" y2="423.54"/><path class="cls-11" d="M709.43,433.68a8,8,0,0,1-8-8v-85a8,8,0,0,1,16,0v85A8,8,0,0,1,709.43,433.68Z" transform="translate(-4.56 -2.14)"/><line class="cls-11" x1="747.39" y1="284.64" x2="747.39" y2="383.85"/><path class="cls-11" d="M752,394a8,8,0,0,1-8-8V286.78a8,8,0,0,1,16,0V386A8,8,0,0,1,752,394Z" transform="translate(-4.56 -2.14)"/><line class="cls-11" x1="789.91" y1="239.29" x2="789.91" y2="307.32"/><path class="cls-11" d="M794.47,317.45a8,8,0,0,1-8-8v-68a8,8,0,0,1,16,0v68A8,8,0,0,1,794.47,317.45Z" transform="translate(-4.56 -2.14)"/><line class="cls-11" x1="832.43" y1="276.14" x2="832.43" y2="364.01"/><path class="cls-11" d="M837,374.15a8,8,0,0,1-8-8V278.27a8,8,0,0,1,16,0v87.88A8,8,0,0,1,837,374.15Z" transform="translate(-4.56 -2.14)"/><line class="cls-11" x1="874.95" y1="236.45" x2="874.95" y2="321.49"/><path class="cls-11" d="M879.51,331.63a8,8,0,0,1-8-8v-85a8,8,0,1,1,16,0v85A8,8,0,0,1,879.51,331.63Z" transform="translate(-4.56 -2.14)"/><path class="cls-1" d="M282.4,570.24c.24-.53,17.51-48.56-13.25-91.51L266,480.54c29.81,41.56,13,88.32,12.89,88.64Z" transform="translate(-4.56 -2.14)"/><path class="cls-1" d="M247.27,484.88c2.84,11.88,15.61,19.41,28.86,16.86s21.65-14,18.81-25.87h0c-2.84-11.87-26.5-41.25-39.63-38.7S244.43,473,247.27,484.88Z" transform="translate(-4.56 -2.14)"/><path class="cls-1" d="M251.65,540.13c11.71,11.34,32.76,11,32.76,11s2-18.88-9.82-30.22-32.76-11-32.76-11S239.94,528.78,251.65,540.13Z" transform="translate(-4.56 -2.14)"/><path class="cls-5" d="M256,299.4a5,5,0,0,0-5.1-4.11l-67.37,7.29a9.78,9.78,0,0,0-1.85.62l-13.93,9.22-8,5.5-14.79,9.85a6.15,6.15,0,0,0-2.18,6.35l15.18,63.17a5.17,5.17,0,0,0,4.91,4.26l69.68-3.64a2.8,2.8,0,0,0,.93-.24,4.78,4.78,0,0,0,1.26-.62l35.47-26.73a6,6,0,0,0,1.86-6.2Z" transform="translate(-4.56 -2.14)"/><path class="cls-13" d="M183.81,307.46h-.19l-36.8,24.65c-.2.15-.4.62-.33.69L161.67,396c.13.39.33.62.6.46L232,392.79c.13,0,.2-.15.33-.15l35.47-26.74a.57.57,0,0,0,.2-.7l-16.11-64.56c-.13-.39-.4-.62-.59-.47l-67.44,7.29Z" transform="translate(-4.56 -2.14)"/><path class="cls-15" d="M214.25,324.51l-70.09,6.12a5.24,5.24,0,0,0-.26,3l15.18,63.16a3.77,3.77,0,0,0,3.65,3L232,396.36Z" transform="translate(-4.56 -2.14)"/><path class="cls-15" d="M215,323.12l13.13-9-66.71,4.49-.2.16-15.71,10.3c-.07.08-.07.08-.13.08Z" transform="translate(-4.56 -2.14)"/><path class="cls-15" d="M233.87,308.16a2.4,2.4,0,0,1,1.79.77l.07-.08L253,297.07a3.35,3.35,0,0,0-2.06-.54l-67.23,7.52c-.2,0-.4.15-.6.15-.19.16-.39.16-.72.39l-11.61,7.75Z" transform="translate(-4.56 -2.14)"/><path class="cls-15" d="M228.64,315.44l-13.07,8.92,17.84,71.76c.2-.07.4-.23.6-.31l14.12-10.61Z" transform="translate(-4.56 -2.14)"/><path class="cls-15" d="M254.56,299.79a2.32,2.32,0,0,0-.66-1.63h0l-17.51,12-.26.16c2.38,9.07,15.58,63.47,17.3,70.84l16-12.09a4.29,4.29,0,0,0,1.26-4.73Z" transform="translate(-4.56 -2.14)"/><path class="cls-15" d="M253.9,298.08Z" transform="translate(-4.56 -2.14)"/><path class="cls-14" d="M271.93,364,256,299.4a5,5,0,0,0-5.1-4.11l-67.37,7.29a9.78,9.78,0,0,0-1.85.62l-13.93,9.22-8,5.5-14.79,9.85a5.49,5.49,0,0,0-1.52,1.62.84.84,0,0,0-.4.62v.08a7.21,7.21,0,0,0-.33,4l15.18,63.17a5.17,5.17,0,0,0,4.91,4.26l69.68-3.64a3,3,0,0,0,.93-.23,5.28,5.28,0,0,0,1.26-.62l35.48-26.74C271.87,368.92,272.46,366.52,271.93,364Zm-89.57-59.37c.33-.23.53-.23.72-.39.2,0,.4-.15.6-.15l67.23-7.52a3,3,0,0,1,2.06.54l-17.24,11.78-.07.08a2.41,2.41,0,0,0-1.79-.78l-63.18,4.27ZM161.2,318.78l.2-.16,66.71-4.49-13.13,9-69.56,6c.07,0,.07-.08.14-.08Zm-2,78.12L144,333.73a4.58,4.58,0,0,1,.26-3l70.08-6.12,17.77,71.84-69.22,3.49A3.86,3.86,0,0,1,159.15,396.9ZM234,395.81a1.91,1.91,0,0,1-.6.31l-17.84-71.76,13.07-8.92,19.42,69.68Zm35.47-26.73-16.05,12c-1.79-7.29-14.92-61.77-17.3-70.84l.26-.16,17.51-12h0a2.34,2.34,0,0,1,.66,1.63l16.11,64.56A4.36,4.36,0,0,1,269.48,369.08Z" transform="translate(-4.56 -2.14)"/><path class="cls-16" d="M194,345.1l-.33,0-29,2.18c-.72.07-1.38-.71-1.45-1.55a1.62,1.62,0,0,1,1.17-1.8l29-2.18c.72-.07,1.39.71,1.46,1.55a1.65,1.65,0,0,1-.84,1.77Z" transform="translate(-4.56 -2.14)"/><path class="cls-16" d="M192.59,358.75l-.33,0-29,2.19c-.72.07-1.38-.72-1.46-1.55a1.63,1.63,0,0,1,1.17-1.81l29-2.18c.72-.07,1.38.71,1.45,1.55a1.64,1.64,0,0,1-.84,1.77Z" transform="translate(-4.56 -2.14)"/><path class="cls-16" d="M194.45,370.81l-.33,0-29,2.18c-.73.07-1.39-.71-1.46-1.55a1.62,1.62,0,0,1,1.17-1.8l29-2.19c.72-.07,1.39.72,1.46,1.55a1.67,1.67,0,0,1-.84,1.78Z" transform="translate(-4.56 -2.14)"/><path class="cls-16" d="M200.18,384.62l-.33,0-29,2.18c-.72.07-1.38-.71-1.46-1.55a1.63,1.63,0,0,1,1.17-1.81l29-2.18c.72-.07,1.38.71,1.45,1.55a1.64,1.64,0,0,1-.84,1.78Z" transform="translate(-4.56 -2.14)"/><path class="cls-10" d="M148.47,310.78h0a17,17,0,0,1-7-.62c-4.72-1.16-6.57,1.16-9.1,2.33s-9.44,1.84-12,.61c-.61-.34-1.3-.61-1.91-1a34.94,34.94,0,0,0-2.81-8.27l30,.13,2.8,6.43Z" transform="translate(-4.56 -2.14)"/><path class="cls-4" d="M171.32,367.55l-9.51-3.76-31.53-23.4-12.79-48.08c-2.88-8.35-9.85-11.49-15.46-7.25a19.69,19.69,0,0,0-1.85,1.64c-4.92,5.88-5.88,16.42-2.05,23.94l23.73,44.87,31.67,13.54,9.24,3.63c0,.34-.14.68-.14,1.16a6.55,6.55,0,0,0,12.86,2.33A7.07,7.07,0,0,0,171.32,367.55Z" transform="translate(-4.56 -2.14)"/><path class="cls-11" d="M148.47,310.23s-2.32.55-7-.55-6.57,1.16-9.1,2.33-9.44,1.84-12,.54-5.27-3.55-10.74-.88a18.06,18.06,0,0,1-9.64,2.05s.55-4.72-4.93-4.18a13.4,13.4,0,0,1-9.09-2.32L91.7,291.9l1.71-4.59,43.64-3.42h.2Z" transform="translate(-4.56 -2.14)"/><path class="cls-11" d="M129,260.78s-14.37-3.36-21.14.88-12,13.41-12,13.41l-10,10.4a15,15,0,0,1,5.81,5.67c1.85,3.56,10.19,0,10.19,0s11.29-3,12.79,1.51c1.65,4.51,8.9,2.05,8.9,2.05s15.11-4.72,18,.62Z" transform="translate(-4.56 -2.14)"/><path class="cls-10" d="M145.46,184.51a12.33,12.33,0,0,0-5.88-.21c-3.21.76-5.61,3.77-7.39,6.84s-3.08,6.57-5.33,9.24c-1.51,1.85-3.35,3.35-4.59,5.27-1.91,2.87-2.59,6.63-3.21,10.19-.89,5.26-1.85,10.6-1.37,16,.21,2.67.75,5.34.89,8.07.21,5.48-1.16,10.74-2.6,16-1,3.62-1.91,7.32-3.83,10.33a43.54,43.54,0,0,1-4.38,5.47,7,7,0,0,0-.89,1.37c-.34,1.5,1.3,2.6,2.6,3.35,3.77,2.12,6.37,6.43,9.24,9.85s7.18,6.43,11.28,5.06c1.17-.41,2.33-1.16,3.63-1.16a6.09,6.09,0,0,1,2.46.75,18,18,0,0,0,6.23,1.16,3.25,3.25,0,0,0,1.36-.34c.62-.41.76-1.37.89-2.33a141,141,0,0,0,.55-16.21c-.61-12.31-10.53-26.47-6.77-38,1.64-5.06,4.58-9.3,6.36-14.36,1.71-5.27,7.93-9.58,9.1-15.05a3,3,0,0,1,.75-1.64,1.82,1.82,0,0,1,2.12.41c3.56,2.8,4.72,8.07,6,12.79a101.25,101.25,0,0,0,3.83,11.08c.89,1.92,2.67,4.17,4.31,3-.75,8.14-5.34,15.25-6.43,23.26-1,7.79,1.37,16,.55,23.8a26,26,0,0,1-5.82,13.54,25.28,25.28,0,0,0,10.6.14c3.56-.75,7.39-2.67,8.69-6.57,1.37-4.31-.75-8.82-1.91-13.2-2.67-10.53-2.47-23.05-1.65-34,.89-11.29,2.13-21.14,0-32.08a43,43,0,0,0-2.12-7.94,17.74,17.74,0,0,0-11.56-10.39c-2.59-.62-5.13.41-7.52-.14-1.16-.21-2.26-1.51-3.42-2.05A17.3,17.3,0,0,0,145.46,184.51Z" transform="translate(-4.56 -2.14)"/><path class="cls-9" d="M178.29,284.92c-1.3,3.83-5.13,5.81-8.68,6.57a25.22,25.22,0,0,1-10.6-.14,26.69,26.69,0,0,0,5.81-13.54c1-7.8-1.51-16-.55-23.81,1.1-8.14,5.68-15.25,6.43-23.25-1.64,1.16-3.42-1.1-4.31-3a90,90,0,0,1-3.83-11.08c-1.3-4.72-2.46-10-6-12.79-.61-.41-1.5-.89-2.12-.41a2.83,2.83,0,0,0-.75,1.64c-1.16,5.47-7.39,9.78-9.1,15.05-1.71,5.06-4.72,9.3-6.36,14.36-3.76,11.49,6.23,25.72,6.77,38a141.09,141.09,0,0,1-.54,16.21c-.14.89-.21,1.85-.89,2.33a3.19,3.19,0,0,1-1.37.34,18,18,0,0,1-6.23-1.16,6.46,6.46,0,0,0-2.46-.76c-1.3,0-2.32.76-3.62,1.17-4.11,1.37-8.35-1.64-11.29-5.06s-5.47-7.73-9.23-9.85c-1.3-.76-2.88-1.71-2.6-3.35a2.92,2.92,0,0,1,.89-1.37A43.48,43.48,0,0,0,112,265.5c1.92-3,2.88-6.78,3.84-10.33,1.36-5.27,2.8-10.54,2.59-16-.13-2.67-.61-5.33-.88-8.07-.42-5.34.54-10.74,1.36-16,.62-3.62,1.3-7.31,3.22-10.19,1.3-2,3.08-3.42,4.58-5.26,2.26-2.67,3.56-6.23,5.34-9.24s4.17-6,7.38-6.84a15.59,15.59,0,0,1,5.89.21,22.68,22.68,0,0,1,4.58,1.3c1.16.54,2.26,1.84,3.42,2.05,2.32.55,4.92-.55,7.52.14a17.42,17.42,0,0,1,11.56,10.39c.41,1.1.75,2.12,1.1,3.22.41,1.5.75,3.08,1.09,4.72a4.63,4.63,0,0,1,.21.95h0c1.91,10.54.61,18.13-.21,28.94s-1.09,25.51,1.64,36C177.47,276,179.73,280.61,178.29,284.92Z" transform="translate(-4.56 -2.14)"/></svg>