<?xml version="1.0" encoding="utf-8"?>
<!-- Generator: Adobe Illustrator 24.1.1, SVG Export Plug-In . SVG Version: 6.00 Build 0)  -->
<svg version="1.1" id="Warstwa_1" xmlns="http://www.w3.org/2000/svg" xmlns:xlink="http://www.w3.org/1999/xlink" x="0px" y="0px"
	 viewBox="0 0 1081.9 610.6" style="enable-background:new 0 0 1081.9 610.6;" xml:space="preserve">
<style type="text/css">
	.st0{fill:#E4E4E3;}
	.st1{fill:#E6E4E3;}
	.st2{fill:#CDCCCC;}
	.st3{fill:#FFFFFF;}
	.st4{fill:none;}
	.st5{fill:#A6A29E;}
	.st6{fill:#F6B5B7;}
	.st7{fill:#D5D3D2;}
	.st8{fill:#282524;}
	.st9{fill:#565350;}
	.st10{fill:#875B62;}
	.st11{fill:#B7A17F;}
</style>
<path class="st0" d="M977.5,544.9c-0.1-0.6-1.3-86.3,44.1-128.6l-3.2-2.8c-47,43.8-45.4,131.2-45.4,131.9"/>
<path class="st0" d="M1045.7,367.3c-14.4-5.9-49.5,23.4-56,36.8l0,0c-6.5,13.4-0.1,29.1,14.5,35c14.5,6,31.4,0,37.8-13.3
	C1048.4,412.4,1060.1,373.3,1045.7,367.3z"/>
<path class="st0" d="M1042.6,458.7c0,0-23.6-6.8-41,2.8c-17.4,9.6-22.1,32-22.1,32s23.6,6.8,41-2.8
	C1037.9,481.2,1042.6,458.7,1042.6,458.7z"/>
<path class="st1" d="M329.2,537.1L329.2,537.1c0-8.6,7-15.5,15.5-15.5h647.6c8.5,0,15.5,7,15.5,15.5l0,0c0,8.5-7,15.5-15.5,15.5
	H344.7C336.1,552.6,329.2,545.6,329.2,537.1z"/>
<g>
	<path class="st0" d="M955.4,123.1L664,0.5c-1.8-0.5-3.7-0.5-5.5,0L370.9,123.1c-4.9,1.2-8.2,5.6-8.2,10.6c0.1,6,4.9,10.9,10.9,10.9
		h579.1c6,0,10.9-4.9,10.9-10.9C963.7,128.7,960.2,124.4,955.4,123.1z M874.6,125.3H448c-2.3,0-2.7-3.3-0.5-3.8l213.3-93.9
		c0.3-0.1,0.6-0.1,1,0l213.3,93.9C877.3,122,876.9,125.3,874.6,125.3z"/>
	<path class="st0" d="M929.2,164.8H392.3c-7,0.1-12.7,5.7-12.7,12.7v312c0,7,5.7,12.7,12.7,12.7h536.9c7,0,12.7-5.7,12.7-12.7v-312
		C941.9,170.5,936.2,164.8,929.2,164.8z M919.9,471.7c0,6.1-5.1,11.1-11.3,11.1H412.9c-6.2,0-11.3-5-11.3-11.1V195.3
		c0-6.1,5.1-11.1,11.3-11.1h495.6c6.2,0,11.3,5,11.3,11.1v276.4H919.9z"/>
</g>
<path class="st0" d="M220.6,579.8L220.6,579.8c0-8.6,7-15.5,15.5-15.5H1031c8.6,0,15.5,7,15.5,15.5l0,0c0,8.5-7,15.5-15.5,15.5H236
	C227.5,595.2,220.6,588.3,220.6,579.8z"/>
<path class="st2" d="M1081.4,608.8L1081.4,608.8c0,1.1-0.9,1.9-1.9,1.9H1.5c-1.1,0-1.9-0.9-1.9-1.9l0,0c0-1.1,0.9-1.9,1.9-1.9
	h1078.1C1080.6,606.9,1081.4,607.8,1081.4,608.8z"/>
<path class="st3" d="M113.6,516.3c-0.8,0.2-1.2-1.1-0.3-1.2c6.4-1.5,10.5-8.1,9.6-15.5c-0.2-0.8,1-0.8,1.1,0
	C124.9,507.5,120.6,514.5,113.6,516.3L113.6,516.3z"/>
<g>
	<g>
		<line class="st4" x1="449.3" y1="350" x2="449.3" y2="421.5"/>
		<path class="st5" d="M449.3,429.5c-4.4,0-8-3.6-8-8V350c0-4.4,3.6-8,8-8s8,3.6,8,8v71.5C457.3,425.9,453.7,429.5,449.3,429.5z"/>
	</g>
</g>
<g>
	<g>
		<line class="st4" x1="491.8" y1="320" x2="491.8" y2="399.3"/>
		<path class="st5" d="M491.8,407.3c-4.4,0-8-3.6-8-8V320c0-4.4,3.6-8,8-8s8,3.6,8,8v79.4C499.8,403.8,496.3,407.3,491.8,407.3z"/>
	</g>
</g>
<g>
	<g>
		<path class="st5" d="M623.1,380.8c-4.4,0-8-3.6-8-8v-87.9c0-4.4,3.6-8,8-8s8,3.6,8,8v87.9C631.1,377.2,627.5,380.8,623.1,380.8z"
			/>
	</g>
</g>
<g>
	<g>
		<line class="st4" x1="661.9" y1="299" x2="661.9" y2="361.3"/>
		<path class="st5" d="M661.9,369.3c-4.4,0-8-3.6-8-8V299c0-4.4,3.6-8,8-8s8,3.6,8,8v62.4C669.9,365.7,666.3,369.3,661.9,369.3z"/>
	</g>
</g>
<g>
	<g>
		<line class="st4" x1="704.4" y1="338.6" x2="704.4" y2="388"/>
		<path class="st5" d="M706.3,396c-4.4,0-8-3.6-8-8v-49.4c0-4.4,3.6-8,8-8s8,3.6,8,8V388C714.3,392.4,710.7,396,706.3,396z"/>
	</g>
</g>
<g>
	<g>
		<line class="st4" x1="747" y1="284.8" x2="747" y2="410.2"/>
		<path class="st5" d="M747,418.2c-4.4,0-8-3.6-8-8V284.8c0-4.4,3.6-8,8-8s8,3.6,8,8v125.4C755,414.6,751.4,418.2,747,418.2z"/>
	</g>
</g>
<g>
	<g>
		<line class="st4" x1="791.4" y1="268.4" x2="791.4" y2="310.5"/>
		<path class="st5" d="M791.4,318.5c-4.4,0-8-3.6-8-8v-42c0-4.4,3.6-8,8-8s8,3.6,8,8v42C799.4,314.9,795.8,318.5,791.4,318.5z"/>
	</g>
</g>
<g>
	<g>
		<line class="st4" x1="833.8" y1="293.3" x2="833.8" y2="381.2"/>
		<path class="st5" d="M833.8,392.2c-4.4,0-8-3.6-8-8v-87.9c0-4.4,3.6-8,8-8s8,3.6,8,8v87.9C841.8,388.6,838.2,392.2,833.8,392.2z"
			/>
	</g>
</g>
<g>
	<g>
		<line class="st4" x1="879.3" y1="270.3" x2="879.3" y2="370.5"/>
		<path class="st5" d="M879.3,378.5c-4.4,0-8-3.6-8-8V270.3c0-4.4,3.6-8,8-8s8,3.6,8,8v100.2C887.3,374.9,883.7,378.5,879.3,378.5z"
			/>
	</g>
</g>
<g>
	<path class="st6" d="M227.3,353.5c-4.1-1-6.5-5.3-5.5-9.5c0.1-0.4,0.3-0.9,0.4-1.3l-19.6-19l13.6-3.4l16.6,18.5
		c3.7,2,5.1,6.8,3.2,10.6C234.3,352.7,230.7,354.4,227.3,353.5L227.3,353.5z"/>
	<path class="st7" d="M217.2,338.2l9.2-13.3L191.9,288l-8-58c-1.5-10.8-11.1-18.3-21.6-16.7c-1.2,0.2-2.3,0.5-3.4,0.8l0,0
		c-10,3.5-15.3,14.7-12,25l20.4,62.5L217.2,338.2z"/>
	<polygon class="st6" points="152.6,585.2 162.7,585.2 167.6,544.7 152.6,544.7 	"/>
	<path class="st8" d="M147.1,605.2h7.2l1.3-7l3.3,7H178c2.4,0,4.3-2,4.3-4.4c0-1.5-0.7-2.8-1.9-3.7l-15.3-10.9v-7.1l-16.1,1
		L147.1,605.2z"/>
	<polygon class="st6" points="89.8,574.5 98.7,579.6 121.7,546.3 108.6,538.9 	"/>
	<path class="st8" d="M75.8,589.4l6.3,3.6l4.4-5.5l-0.4,7.8l16.8,9.5c2.1,1.2,4.7,0.4,5.8-1.8c0.7-1.3,0.7-2.8,0.1-4.1l-8.4-17.1
		l3.3-6.3l-14.6-7.1L75.8,589.4z"/>
	<path class="st9" d="M148.3,570.8h21v-77.3l13-50.4c9.3-36.1,11.8-73.7,7.3-110.7v-0.2l-0.1-0.1c-0.3-0.3-31.3-27.9-52.4-6.1
		c-19.4,23.7-3,55.1-1,57.5l-1.4,102.9L148.3,570.8z"/>
	<path class="st7" d="M148.3,206.1l0.1-0.1l26.8,0.4l14.3,34.7c13.2,21.3,0.6,33.4-0.3,35.3l2.5,26.1l1.6,16.8l2.6,27.1l-65.2-18
		l10.6-31l-7.9-40.8C130,238.2,135.5,219.3,148.3,206.1z"/>
	<polygon class="st9" points="160.8,493.8 117.6,556.6 101.1,544.4 137.1,467.9 	"/>
	<ellipse class="st6" cx="164.3" cy="173.8" rx="24.7" ry="25.6"/>
	<polygon class="st5" points="140.5,272.7 167.5,304.9 193.4,319.3 191.8,302.4 176.5,293.6 	"/>
	<path class="st10" d="M181.7,221.7l2.3-10.5c1.5-7.1,0.2-14.6-3.6-20.7c-3.6-5.8-3.8-13.2-0.6-19.2c2.4-4.9,7.2-8,12.4-8.1h0.6
		v-0.6c0-9.2-6.9-15.6-13.3-16c-0.2-1.9-1.5-3.6-3.8-5c-5.4-3.2-16-3.9-23.9,0.4c-0.3-2.8-2.1-5.3-4.7-6.4c-1.3-0.5-2.7-0.6-4.1-0.2
		c-0.1-2.3-1-4.5-2.6-6.1c-2.2-2.2-5.7-3-9.7-2.3c-5.4,1-10.8,4.6-15,10c-3.8,4.8-6.4,10.6-9,16.1c-2.5,5.4-5.1,11-8.8,15.8
		c-4.1,5.2-9.2,8.6-14.4,9.5c-6,1.1-12.1-1.5-15-6.2l-0.6-0.9l-0.5,1c-3.2,6-1.9,14.3,3.1,19.6c4.4,4.8,11.4,7.3,18.6,6.6
		c6.1-0.6,12.3-3.3,18.3-8s9.7-9.8,11-15.3c0.4-1.7,0.6-3.4,0.8-5.2c0.4-3.6,0.8-7.1,3-9.6c1.9-2.3,5-3.3,7.6-4l0.5-0.1
		c0.2,2.1,1.3,4,2.9,5.1c0.5,0.3,1,0.5,1.6,0.6c-3.1,12.9-1.8,22.7,3.8,29.3c9.5,11.1,27.7,8.8,28.4,8.7l0.5-0.1v-0.5
		c0.1-1.4,0.2-2.9,0.5-4.3c2.6,6.5,11.4,23.7,12.5,25.4L181.7,221.7z"/>
	<path class="st6" d="M260.5,335.2c-4.2,0.4-7.9-2.7-8.3-7c0-0.5,0-0.9,0-1.4l-24.6-11.2l11.7-7.8l21.6,11.8c4.2,0.6,7,4.6,6.4,8.9
		C266.9,332.1,264,334.8,260.5,335.2z"/>
	<path class="st7" d="M246.1,324.2l4.4-15.7l-44.2-22.9l-26.1-52c-4.9-9.7-16.4-13.4-25.7-8.4c-1,0.6-2,1.2-2.9,2l0,0
		c-8.3,6.7-9.8,19.1-3.3,27.7l39.2,52L246.1,324.2z"/>
</g>
<g>
	<path class="st0" d="M73.2,607.8c0.2-0.4,11.2-34.8-8.5-65.6l-2.1,1.3c19.2,29.8,8.4,63.3,8.3,63.5L73.2,607.8z"/>
	<path class="st0" d="M50.6,546.6c1.8,8.5,10,13.9,18.5,12.1s13.9-10,12.1-18.5l0,0c-1.8-8.5-17-29.6-25.5-27.7
		C47.4,514.2,48.8,538.1,50.6,546.6z"/>
	<path class="st0" d="M53.5,586.2c7.5,8.1,21.1,7.9,21.1,7.9s1.3-13.5-6.3-21.7c-7.7-8.1-21.1-7.9-21.1-7.9S45.9,578.1,53.5,586.2z"
		/>
</g>
<g>
	<g>
		<line class="st4" x1="535.2" y1="288.8" x2="535.2" y2="342.6"/>
		<path class="st5" d="M533.4,350.6c-4.4,0-8-3.6-8-8v-53.9c0-4.4,3.6-8,8-8s8,3.6,8,8v53.9C541.4,347.1,537.8,350.6,533.4,350.6z"
			/>
	</g>
</g>
<g>
	<g>
		<line class="st4" x1="662.8" y1="220.8" x2="662.8" y2="274.6"/>
	</g>
</g>
<g>
	<g>
		<line class="st4" x1="790.3" y1="339.8" x2="790.3" y2="393.7"/>
		<path class="st5" d="M790.3,401.7c-4.4,0-8-3.6-8-8v-53.9c0-4.4,3.6-8,8-8s8,3.6,8,8v53.9C798.3,398.1,794.8,401.7,790.3,401.7z"
			/>
	</g>
</g>
<g>
	<g>
		<line class="st4" x1="706.3" y1="275.8" x2="706.3" y2="308.6"/>
		<path class="st5" d="M706.3,316.6c-4.4,0-8-3.6-8-8v-32.9c0-4.4,3.6-8,8-8s8,3.6,8,8v32.9C714.3,313,710.7,316.6,706.3,316.6z"/>
	</g>
</g>
<g>
	<g>
		<path class="st5" d="M836.7,456"/>
		<path class="st5" d="M836.7,435.2"/>
	</g>
</g>
<path class="st5" d="M533.4,398.8c-4.4,0-8-3.6-8-8V370c0-4.4,3.6-8,8-8s8,3.6,8,8v20.9C541.4,395.2,537.8,398.8,533.4,398.8z"/>
<g>
	<g>
		<line class="st4" x1="578.7" y1="416.3" x2="578.7" y2="317.1"/>
		<path class="st5" d="M578.7,305.3c-4.4,0-8,3.6-8,8v99.2c0,4.4,3.6,8,8,8s8-3.6,8-8v-99.2C586.7,308.9,583.1,305.3,578.7,305.3z"
			/>
	</g>
</g>
<g>
	<g>
		<line class="st4" x1="577.7" y1="285.7" x2="577.7" y2="253.6"/>
	</g>
</g>
<path class="st11" d="M864.5,435.5c-0.1-3.6-3.1-6.4-6.6-6.4h-17.5v-17c0-3.6-2.9-6.6-6.6-6.6h-0.1c-3.6,0-6.6,2.9-6.6,6.6v17h-17.4
	c-3.6,0-6.6,2.9-6.6,6.6s2.9,6.6,6.6,6.6h17.4v18.1c0,3.6,2.9,6.6,6.6,6.6h0.1c3.6,0,6.6-2.9,6.6-6.6v-18.1H858
	c3.6,0,6.6-2.9,6.6-6.6L864.5,435.5z"/>
<path class="st11" d="M691.6,411.8c-0.1-3.6-3.1-6.4-6.6-6.4h-17.5v-17c0-3.6-2.9-6.6-6.6-6.6h-0.1c-3.6,0-6.6,2.9-6.6,6.6v17h-17.4
	c-3.6,0-6.6,2.9-6.6,6.6c0,3.6,2.9,6.6,6.6,6.6h17.4v18.1c0,3.6,2.9,6.6,6.6,6.6h0.1c3.6,0,6.6-2.9,6.6-6.6v-18.1H685
	c3.6,0,6.6-2.9,6.6-6.6V411.8z"/>
<path class="st11" d="M359.9,234.2c-0.2-7-6-12.5-12.7-12.5h-42.8v-42.2c0-7.1-5.8-12.7-12.7-12.7h-0.2c-7.1,0-12.7,5.8-12.7,12.7
	v42.2h-42.8c-7.1,0-12.7,5.8-12.7,12.7s5.8,12.7,12.7,12.7h42.7v42.2c0,7.1,5.8,12.7,12.7,12.7h0.2c7.1,0,12.7-5.8,12.7-12.7v-42.2
	h42.8c7.1,0,12.7-5.8,12.7-12.7L359.9,234.2z"/>
<path class="st11" d="M484.4,290.1c-0.1-3.6-3.1-6.4-6.6-6.4h-22.1v-21.8c0-3.6-2.9-6.6-6.6-6.6H449c-3.6,0-6.6,2.9-6.6,6.6v21.8
	h-22.1c-3.6,0-6.6,2.9-6.6,6.6c0,3.6,2.9,6.6,6.6,6.6h22.1v21.8c0,3.6,2.9,6.6,6.6,6.6h0.1c3.6,0,6.6-2.9,6.6-6.6v-21.8h22.1
	c3.6,0,6.6-2.9,6.6-6.6L484.4,290.1L484.4,290.1z"/>
<path class="st11" d="M909.9,222.9c-0.1-3.6-3.1-6.4-6.6-6.4h-17.5v-17c0-3.6-2.9-6.6-6.6-6.6h-0.1c-3.6,0-6.6,2.9-6.6,6.6v17h-17.4
	c-3.6,0-6.6,2.9-6.6,6.6c0,3.6,2.9,6.6,6.6,6.6h17.4v16.1c0,3.6,2.9,6.6,6.6,6.6h0.1c3.6,0,6.6-2.9,6.6-6.6v-16.1h17.5
	c3.6,0,6.6-2.9,6.6-6.6V222.9z"/>
<path class="st11" d="M609.4,259.8c-0.1-3.6-3.1-6.4-6.6-6.4h-17.5v-17c0-3.6-2.9-6.6-6.6-6.6h-0.1c-3.6,0-6.6,2.9-6.6,6.6v17h-17.4
	c-3.6,0-6.6,2.9-6.6,6.6c0,3.6,2.9,6.6,6.6,6.6H572v18.1c0,3.6,2.9,6.6,6.6,6.6h0.1c3.6,0,6.6-2.9,6.6-6.6v-18.1h17.5
	c3.6,0,6.6-2.9,6.6-6.6L609.4,259.8L609.4,259.8z"/>
<path class="st11" d="M778.5,236.1c-0.1-3.6-3.1-6.4-6.6-6.4h-17.5v-17c0-3.6-2.9-6.6-6.6-6.6h-0.1c-3.6,0-6.6,2.9-6.6,6.6v17h-17.4
	c-3.6,0-6.6,2.9-6.6,6.6c0,3.6,2.9,6.6,6.6,6.6h17.4V261c0,3.6,2.9,6.6,6.6,6.6h0.1c3.6,0,6.6-2.9,6.6-6.6v-18.1h17.5
	c3.6,0,6.6-2.9,6.6-6.6V236.1z"/>
</svg>
