<?xml version="1.0" encoding="utf-8"?>
<!-- Generator: Adobe Illustrator 24.1.1, SVG Export Plug-In . SVG Version: 6.00 Build 0)  -->
<svg version="1.1" id="Warstwa_1" xmlns="http://www.w3.org/2000/svg" xmlns:xlink="http://www.w3.org/1999/xlink" x="0px" y="0px"
	 viewBox="0 0 1081.9 610.6" style="enable-background:new 0 0 1081.9 610.6;" xml:space="preserve">
<style type="text/css">
	.st0{fill:#E4E4E3;}
	.st1{fill:#E6E4E3;}
	.st2{fill:#CDCCCC;}
	.st3{fill:none;}
	.st4{fill:#A6A29E;}
	.st5{fill:#B7A17F;}
	.st6{fill:#F6B5B7;}
	.st7{fill:#D5D3D2;}
	.st8{fill:#282524;}
	.st9{fill:#565350;}
	.st10{fill:#875B62;}
</style>
<g>
	<path class="st0" d="M70.8,610.8c0.2-0.6,18.5-55.8-14-105.1l-3.4,2.1C84.8,555.6,67.1,609.3,67,609.6L70.8,610.8z"/>
	<path class="st0" d="M33.8,512.7c3,13.6,16.5,22.3,30.4,19.4S87,516,84,502.3l0,0c-3-13.6-27.9-47.4-41.8-44.5S30.8,499,33.8,512.7
		z"/>
	<path class="st0" d="M38.4,576.2c12.3,13,34.5,12.7,34.5,12.7s2.1-21.7-10.4-34.7C50,541.1,28,541.4,28,541.4S26,563.1,38.4,576.2z
		"/>
</g>
<path class="st0" d="M977.5,547.7c-0.1-0.6-1.3-86.3,44.1-128.6l-3.2-2.8c-47,43.8-45.4,131.2-45.4,131.9"/>
<path class="st0" d="M1045.7,370.1c-14.4-5.9-49.5,23.4-56,36.8l0,0c-6.5,13.4-0.1,29.1,14.5,35c14.5,6,31.4,0,37.8-13.3
	C1048.4,415.2,1060.1,376.1,1045.7,370.1z"/>
<path class="st0" d="M1042.6,461.6c0,0-23.6-6.8-41,2.8c-17.4,9.6-22.1,32-22.1,32s23.6,6.8,41-2.8
	C1037.9,484,1042.6,461.6,1042.6,461.6z"/>
<path class="st1" d="M329.2,539.9L329.2,539.9c0-8.5,7-15.5,15.5-15.5h647.6c8.5,0,15.5,7,15.5,15.5l0,0c0,8.6-7,15.5-15.5,15.5
	H344.7C336.1,555.5,329.2,548.5,329.2,539.9z"/>
<g>
	<path class="st0" d="M955.4,126L664,3.3c-1.8-0.5-3.7-0.5-5.5,0L370.9,126c-4.9,1.2-8.2,5.6-8.2,10.6c0.1,6,4.9,10.9,10.9,10.9
		h579.1c6,0,10.9-4.9,10.9-10.9C963.7,131.6,960.2,127.2,955.4,126z M874.6,128.1H448c-2.3,0-2.7-3.3-0.5-3.8l213.3-93.9
		c0.3-0.1,0.6-0.1,1,0l213.3,93.9C877.3,124.8,876.9,128.1,874.6,128.1z"/>
	<path class="st0" d="M929.2,167.6H392.3c-7,0.1-12.7,5.7-12.7,12.7v312c0,7,5.7,12.7,12.7,12.7h536.9c7,0,12.7-5.7,12.7-12.7v-312
		C941.9,173.3,936.2,167.6,929.2,167.6z M919.9,474.6c0,6.1-5.1,11.1-11.3,11.1H412.9c-6.2,0-11.3-5-11.3-11.1V198.1
		c0-6.1,5.1-11.1,11.3-11.1h495.6c6.2,0,11.3,5,11.3,11.1v276.5H919.9z"/>
</g>
<path class="st0" d="M220.6,582.6L220.6,582.6c0-8.5,7-15.5,15.5-15.5H1031c8.6,0,15.5,7,15.5,15.5l0,0c0,8.6-7,15.5-15.5,15.5H236
	C227.5,598.1,220.6,591.2,220.6,582.6z"/>
<path class="st2" d="M1081.4,611.7L1081.4,611.7c0,1.1-0.9,1.9-1.9,1.9H1.5c-1.1,0-1.9-0.9-1.9-1.9l0,0c0-1.1,0.9-1.9,1.9-1.9
	h1078.1C1080.6,609.8,1081.4,610.6,1081.4,611.7z"/>
<g>
	<g>
		<line class="st3" x1="449.3" y1="352.8" x2="449.3" y2="443.5"/>
		<path class="st4" d="M449.3,451.5c-4.4,0-8-3.6-8-8v-90.7c0-4.4,3.6-8,8-8s8,3.6,8,8v90.7C457.3,447.9,453.7,451.5,449.3,451.5z"
			/>
	</g>
</g>
<g>
	<g>
		<line class="st3" x1="491.8" y1="316" x2="491.8" y2="395.3"/>
		<path class="st4" d="M491.8,403.3c-4.4,0-8-3.6-8-8V316c0-4.4,3.6-8,8-8s8,3.6,8,8v79.4C499.8,399.7,496.3,403.3,491.8,403.3z"/>
	</g>
</g>
<g>
	<g>
		<line class="st3" x1="534.4" y1="384" x2="534.4" y2="440.7"/>
		<path class="st4" d="M534.4,448.7c-4.4,0-8-3.6-8-8V384c0-4.4,3.6-8,8-8s8,3.6,8,8v56.7C542.4,445.1,538.8,448.7,534.4,448.7z"/>
	</g>
</g>
<g>
	<g>
		<line class="st3" x1="576.9" y1="236.6" x2="576.9" y2="426.5"/>
		<path class="st4" d="M576.9,434.5c-4.4,0-8-3.6-8-8V236.6c0-4.4,3.6-8,8-8s8,3.6,8,8v189.9C584.9,430.9,581.3,434.5,576.9,434.5z"
			/>
	</g>
</g>
<g>
	<g>
		<line class="st3" x1="619.4" y1="264.9" x2="619.4" y2="352.8"/>
		<path class="st4" d="M619.4,360.8c-4.4,0-8-3.6-8-8v-87.9c0-4.4,3.6-8,8-8s8,3.6,8,8v87.9C627.4,357.2,623.8,360.8,619.4,360.8z"
			/>
	</g>
</g>
<g>
	<g>
		<line class="st3" x1="661.9" y1="301.8" x2="661.9" y2="364.1"/>
		<path class="st4" d="M661.9,372.1c-4.4,0-8-3.6-8-8v-62.4c0-4.4,3.6-8,8-8s8,3.6,8,8v62.4C669.9,368.6,666.3,372.1,661.9,372.1z"
			/>
	</g>
</g>
<g>
	<line class="st3" x1="704.4" y1="341.5" x2="704.4" y2="426.5"/>
	<path class="st5" d="M704.4,434.5c-4.4,0-8-3.6-8-8v-85c0-4.4,3.6-8,8-8s8,3.6,8,8v85C712.4,430.9,708.9,434.5,704.4,434.5z"/>
</g>
<g>
	<line class="st3" x1="747" y1="287.6" x2="747" y2="386.8"/>
	<path class="st5" d="M747,394.8c-4.4,0-8-3.6-8-8v-99.2c0-4.4,3.6-8,8-8s8,3.6,8,8v99.2C755,391.2,751.4,394.8,747,394.8z"/>
</g>
<g>
	<line class="st3" x1="789.5" y1="242.3" x2="789.5" y2="310.3"/>
	<path class="st5" d="M789.5,318.3c-4.4,0-8-3.6-8-8v-68c0-4.4,3.6-8,8-8s8,3.6,8,8v68C797.5,314.7,793.9,318.3,789.5,318.3z"/>
</g>
<g>
	<line class="st3" x1="832" y1="279.1" x2="832" y2="367"/>
	<path class="st5" d="M832,375c-4.4,0-8-3.6-8-8v-87.9c0-4.4,3.6-8,8-8s8,3.6,8,8V367C840,371.4,836.4,375,832,375z"/>
</g>
<g>
	<line class="st3" x1="874.5" y1="239.4" x2="874.5" y2="324.5"/>
	<path class="st5" d="M874.5,332.5c-4.4,0-8-3.6-8-8v-85c0-4.4,3.6-8,8-8s8,3.6,8,8v85C882.5,328.9,878.9,332.5,874.5,332.5z"/>
</g>
<g>
	<path class="st6" d="M619.9,358.5c-4.1-1-6.5-5.3-5.5-9.5c0.1-0.4,0.3-0.9,0.4-1.3l-19.6-19l13.6-3.4l16.6,18.5
		c3.7,2,5.1,6.8,3.2,10.6C626.8,357.7,623.3,359.4,619.9,358.5L619.9,358.5z"/>
	<path class="st7" d="M609.7,343.2l9.2-13.3L584.5,293l-8-58c-1.5-10.8-11.1-18.3-21.6-16.7c-1.2,0.2-2.3,0.5-3.4,0.8l0,0
		c-10,3.5-15.3,14.7-12,25l20.4,62.5L609.7,343.2z"/>
	<polygon class="st6" points="545.1,590.2 555.3,590.2 560.1,549.7 545.1,549.7 	"/>
	<path class="st8" d="M539.6,610.2h7.2l1.3-7l3.3,7h19.1c2.4,0,4.3-2,4.3-4.4c0-1.5-0.7-2.8-1.9-3.7l-15.3-10.9v-7.1l-16.1,1
		L539.6,610.2z"/>
	<polygon class="st6" points="465,543 472.2,550.2 503.4,524.5 492.7,513.8 	"/>
	<path class="st8" d="M447.4,553.4l5.1,5.2l5.7-4.1l-2.5,7.4l13.6,13.7c1.7,1.7,4.4,1.6,6.1-0.1c1-1.1,1.4-2.5,1.2-4l-3.4-18.8
		l4.9-5.1L466,536.8L447.4,553.4z"/>
	<path class="st9" d="M540.8,575.8h21v-77.3l13-50.4c9.3-36.1,11.8-73.7,7.3-110.7v-0.2l-0.1-0.1c-0.3-0.3-31.3-27.9-52.4-6.1
		c-19.4,23.7-3,55.1-1,57.5l-1.4,102.9L540.8,575.8z"/>
	<path class="st7" d="M540.9,211.1l0.1-0.1l26.8,0.4l14.3,34.7c13.2,21.3,0.6,33.4-0.3,35.3l2.5,26.1l1.6,16.8l2.6,27.1l-65.2-18
		l10.6-31l-7.9-40.8C522.5,243.2,528.1,224.3,540.9,211.1z"/>
	<polygon class="st9" points="555.2,484.6 496.6,533.3 484,517.1 539.5,453.2 	"/>
	<ellipse class="st6" cx="556.9" cy="178.8" rx="24.7" ry="25.6"/>
	<polygon class="st4" points="533,277.7 560,309.9 586,324.3 584.3,307.4 569.1,298.6 	"/>
	<path class="st10" d="M574.2,226.7l2.3-10.5c1.5-7.1,0.2-14.6-3.6-20.7c-3.6-5.8-3.8-13.2-0.6-19.2c2.4-4.9,7.2-8,12.4-8.1h0.6
		v-0.6c0-9.2-6.9-15.6-13.3-16c-0.2-1.9-1.5-3.6-3.8-5c-5.4-3.2-16-3.9-23.9,0.4c-0.3-2.8-2.1-5.3-4.7-6.4c-1.3-0.5-2.7-0.6-4.1-0.2
		c-0.1-2.3-1-4.5-2.6-6.1c-2.2-2.2-5.7-3-9.7-2.3c-5.4,1-10.8,4.6-15,10c-3.8,4.8-6.4,10.6-9,16.1c-2.5,5.4-5.1,11-8.8,15.8
		c-4.1,5.2-9.2,8.6-14.4,9.5c-6,1.1-12.1-1.5-15-6.2l-0.6-0.9l-0.5,1c-3.2,6-1.9,14.3,3.1,19.6c4.4,4.8,11.4,7.3,18.6,6.6
		c6.1-0.6,12.3-3.3,18.3-8s9.7-9.8,11-15.3c0.4-1.7,0.6-3.4,0.8-5.2c0.4-3.6,0.8-7.1,3-9.6c1.9-2.3,5-3.3,7.6-4l0.5-0.1
		c0.2,2.1,1.3,4,2.9,5.1c0.5,0.3,1,0.5,1.6,0.6c-3.1,12.9-1.8,22.7,3.8,29.3c9.5,11.1,27.7,8.8,28.4,8.7l0.5-0.1v-0.5
		c0.1-1.4,0.2-2.9,0.5-4.3c2.6,6.5,11.4,23.7,12.5,25.4L574.2,226.7z"/>
	<path class="st6" d="M653.1,340.2c-4.2,0.4-7.9-2.7-8.3-7c0-0.5,0-0.9,0-1.4l-24.6-11.2l11.7-7.8l21.6,11.8c4.2,0.6,7,4.6,6.4,8.9
		C659.4,337.1,656.6,339.8,653.1,340.2z"/>
	<path class="st7" d="M638.6,329.2l4.4-15.7l-44.2-22.9l-26.1-52c-4.9-9.7-16.4-13.4-25.7-8.4c-1,0.6-2,1.2-2.9,2l0,0
		c-8.3,6.7-9.8,19.1-3.3,27.7l39.2,52L638.6,329.2z"/>
</g>
<g>
	<g>
		<path class="st5" d="M153.2,391.3c-19.7-68-11-59.5-78.8-79.7c-1.6-0.5-1.6-2.8,0-3.2c68.1-20.1,58.7-12.1,78.8-79.5
			c0.5-1.6,2.8-1.6,3.2,0c19.8,67.6,11.2,59.6,78.8,79.5c1.6,0.5,1.6,2.8,0,3.2c-67.6,19.9-59.2,12.2-78.9,79.7
			C156,392.9,153.7,392.9,153.2,391.3z"/>
		<path class="st5" d="M253.4,490.9c-15.1-52.5-10.7-47.2-60.2-61.4c-1.8-0.5-1.8-3.1,0-3.6c49.5-14.1,45-9.4,59.5-58.8
			c0.5-1.8,3.1-1.8,3.6,0c14.3,49.9,10,44.5,59.4,58.7c1.8,0.5,1.8,3.1,0,3.6c-49.7,14.3-45.2,9-60.2,61.5
			C255.2,492,253.7,492,253.4,490.9z"/>
		<path class="st5" d="M214.7,181.6c33.3-9.1,31.9-8.3,41.5-41.1c0.6-2,3.4-2,4,0c9.3,33.9,8.6,31,41.2,41.1c2,0.6,1.9,3.4-0.1,4
			c-32.9,9-31.9,8.5-41.1,40.9c-0.6,2-3.4,2-4,0c-9.4-33.2-8.9-31.7-41.5-41C212.7,185,212.7,182.2,214.7,181.6z"/>
	</g>
</g>
<path class="st5" d="M346.9,262.1c33.3-9.1,31.9-8.3,41.5-41.1c0.6-2,3.4-2,4,0c9.3,33.9,8.6,31,41.2,41.1c2,0.6,1.9,3.4-0.1,4
	c-32.9,9-31.9,8.5-41.1,40.9c-0.6,2-3.4,2-4,0c-9.4-33.2-8.9-31.7-41.5-41C344.9,265.6,344.9,262.7,346.9,262.1z"/>
<path class="st5" d="M616.2,90.9c33.3-9.1,31.9-8.3,41.5-41.1c0.6-2,3.4-2,4,0c9.3,33.9,8.6,31,41.2,41.1c2,0.6,1.9,3.4-0.1,4
	c-32.9,9-31.9,8.5-41.1,40.9c-0.6,2-3.4,2-4,0c-9.4-33.2-8.9-31.7-41.5-41C614.2,94.3,614.2,91.5,616.2,90.9z"/>
</svg>
