<svg id="Warstwa_1" data-name="Warstwa 1" xmlns="http://www.w3.org/2000/svg" viewBox="0 0 1086.5 611.74"><defs><style>.cls-1{fill:#e3e2e2;}.cls-2{fill:#e5e3e2;}.cls-3{fill:#a5a19d;}.cls-4{fill:#282524;}.cls-5{fill:#a0616a;}.cls-6{fill:#d4d2d1;}.cls-7{fill:#fff;}.cls-8{fill:#b6a07f;}.cls-9{fill:#565350;}.cls-10{fill:#1b1917;}.cls-11{fill:#f5b4b6;}.cls-12{fill:#f5b3b6;}.cls-13{fill:#f4f3f2;}</style></defs><path class="cls-1" d="M881.09,546.48c-.06-.63-1.35-86.27,44.13-128.63l-3.15-2.79c-47,43.76-45.43,131.23-45.38,131.85" transform="translate(-0.08 -1.75)"/><path class="cls-2" d="M232.78,538.71h0a15.56,15.56,0,0,1,15.53-15.53H895.92a15.56,15.56,0,0,1,15.53,15.53h0a15.56,15.56,0,0,1-15.53,15.52H248.31A15.51,15.51,0,0,1,232.78,538.71Z" transform="translate(-0.08 -1.75)"/><path class="cls-1" d="M859.05,124.75,567.6,2.11a10.57,10.57,0,0,0-5.47,0L274.51,124.75a10.91,10.91,0,0,0,2.73,21.48H856.32a10.91,10.91,0,0,0,2.73-21.48Zm-80.85,2.12H351.59a1.94,1.94,0,0,1-.48-3.83L564.38,29.13a2.22,2.22,0,0,1,1,0L778.68,123A2,2,0,0,1,778.2,126.87Z" transform="translate(-0.08 -1.75)"/><path class="cls-1" d="M832.79,166.4H295.91a12.79,12.79,0,0,0-12.72,12.73v312a12.7,12.7,0,0,0,12.72,12.72H832.79a12.7,12.7,0,0,0,12.72-12.72v-312A12.7,12.7,0,0,0,832.79,166.4Zm-9.33,306.93a11.18,11.18,0,0,1-11.29,11.07H316.53a11.18,11.18,0,0,1-11.29-11.07V196.89a11.17,11.17,0,0,1,11.29-11.06H812.17a11.17,11.17,0,0,1,11.29,11.06Z" transform="translate(-0.08 -1.75)"/><path class="cls-1" d="M124.23,581.39h0a15.56,15.56,0,0,1,15.53-15.53H891a15.56,15.56,0,0,1,15.53,15.53h0A15.56,15.56,0,0,1,891,596.91H139.69A15.53,15.53,0,0,1,124.23,581.39Z" transform="translate(-0.08 -1.75)"/><line class="cls-3" x1="352.84" y1="349.84" x2="352.84" y2="440.55"/><path class="cls-3" d="M352.92,450.29a8,8,0,0,1-8-8v-90.7a8,8,0,0,1,16,0v90.7A8,8,0,0,1,352.92,450.29Z" transform="translate(-0.08 -1.75)"/><line class="cls-3" x1="395.36" y1="312.99" x2="395.36" y2="392.36"/><path class="cls-3" d="M395.44,402.1a8,8,0,0,1-8-8V314.73a8,8,0,0,1,16,0V394.1A8,8,0,0,1,395.44,402.1Z" transform="translate(-0.08 -1.75)"/><line class="cls-3" x1="437.88" y1="381.02" x2="437.88" y2="437.71"/><path class="cls-3" d="M438,447.46a8,8,0,0,1-8-8V382.77a8,8,0,0,1,16,0v56.69A8,8,0,0,1,438,447.46Z" transform="translate(-0.08 -1.75)"/><line class="cls-3" x1="480.4" y1="233.62" x2="480.4" y2="423.54"/><path class="cls-3" d="M480.48,433.29a8,8,0,0,1-8-8V235.36a8,8,0,0,1,16,0V425.29A8,8,0,0,1,480.48,433.29Z" transform="translate(-0.08 -1.75)"/><line class="cls-3" x1="522.92" y1="261.96" x2="522.92" y2="349.84"/><path class="cls-3" d="M523,359.59a8,8,0,0,1-8-8V263.71a8,8,0,0,1,16,0v87.88A8,8,0,0,1,523,359.59Z" transform="translate(-0.08 -1.75)"/><line class="cls-3" x1="565.44" y1="298.81" x2="565.44" y2="361.18"/><path class="cls-3" d="M565.52,370.92a8,8,0,0,1-8-8V300.56a8,8,0,1,1,16,0v62.36A8,8,0,0,1,565.52,370.92Z" transform="translate(-0.08 -1.75)"/><line class="cls-3" x1="607.96" y1="338.5" x2="607.96" y2="423.54"/><path class="cls-3" d="M608,433.29a8,8,0,0,1-8-8v-85a8,8,0,0,1,16,0v85A8,8,0,0,1,608,433.29Z" transform="translate(-0.08 -1.75)"/><line class="cls-3" x1="650.47" y1="284.64" x2="650.47" y2="383.85"/><path class="cls-3" d="M650.56,393.6a8,8,0,0,1-8-8V286.39a8,8,0,0,1,16,0V385.6A8,8,0,0,1,650.56,393.6Z" transform="translate(-0.08 -1.75)"/><line class="cls-3" x1="692.99" y1="239.29" x2="692.99" y2="307.32"/><line class="cls-3" x1="735.51" y1="276.14" x2="735.51" y2="364.01"/><path class="cls-3" d="M735.6,373.76a8,8,0,0,1-8-8V277.89a8,8,0,0,1,16,0v87.87A8,8,0,0,1,735.6,373.76Z" transform="translate(-0.08 -1.75)"/><line class="cls-3" x1="778.03" y1="236.45" x2="778.03" y2="321.49"/><path class="cls-1" d="M181,569.85c.24-.53,17.51-48.56-13.24-91.5l-3.2,1.8c29.81,41.56,13,88.32,12.9,88.64Z" transform="translate(-0.08 -1.75)"/><path class="cls-1" d="M145.87,484.5c2.84,11.87,15.62,19.4,28.86,16.86s21.65-14,18.81-25.88h0c-2.84-11.87-26.49-41.24-39.62-38.7S143,472.62,145.87,484.5Z" transform="translate(-0.08 -1.75)"/><path class="cls-1" d="M150.25,539.74c11.71,11.35,32.76,11,32.76,11s2-18.88-9.81-30.22-32.77-11-32.77-11S138.54,528.39,150.25,539.74Z" transform="translate(-0.08 -1.75)"/><path class="cls-4" d="M1002.6,610.75h-7.2l-1.24-6.83-3.35,6.83H971.57a4.41,4.41,0,0,1-4.35-4.35,4.75,4.75,0,0,1,1.86-3.6l15.4-10.55v-7l16.14,1Z" transform="translate(-0.08 -1.75)"/><path class="cls-5" d="M180.9,308.41a8.3,8.3,0,0,1-11.6-1.19,8,8,0,0,1-.84-1.23l-28.83,4.92,6.09-13.85,26.46-2.56a8.27,8.27,0,0,1,8.72,13.91Z" transform="translate(-0.08 -1.75)"/><path class="cls-3" d="M162.44,308.6l-67,12-.12,0L32.5,279.16a23.35,23.35,0,0,1-2.88-31.9h0a23.85,23.85,0,0,1,34.92-2.14l43.63,43.47,51.24,5.84Z" transform="translate(-0.08 -1.75)"/><path class="cls-6" d="M261.13,596.22l-.45-184.3h1.69l-.11-33.86h-1.7l-.11-56.54a16,16,0,0,0-16.14-16h0l-119.74.34a16,16,0,0,0-16,16.14h0l.11,39.38-2.71.12.57,23.7h2.14v5.19l-2.25.11.56,23.7h1.69l.45,182.61a16,16,0,0,0,16,16h.11L245,612.47A16.38,16.38,0,0,0,261.13,596.22Z" transform="translate(-0.08 -1.75)"/><path class="cls-7" d="M121.74,605.25a7.68,7.68,0,0,1-5.07-7.23L116,320.39a7.61,7.61,0,0,1,7.67-7.68l25.4-.11-.34.79A9,9,0,0,0,153.57,325a8.52,8.52,0,0,0,3.39.68l56.54-.11a8.83,8.83,0,0,0,6.88-4.29,8.73,8.73,0,0,0,.57-8l-.34-.79,26.3-.12a7.61,7.61,0,0,1,7.67,7.68l.68,264.88a20.59,20.59,0,0,1-20.43,20.54l-110.72.23A6.46,6.46,0,0,1,121.74,605.25Z" transform="translate(-0.08 -1.75)"/><circle class="cls-7" cx="165.23" cy="315.7" r="1.81"/><path class="cls-6" d="M222.76,354.3H149.17a3,3,0,0,1-2.93-2.82,2.88,2.88,0,0,1,2.82-2.93h73.58C226.37,348.44,226.48,354.3,222.76,354.3Z" transform="translate(-0.08 -1.75)"/><path class="cls-8" d="M233,515.07h-91a2.32,2.32,0,0,1-2.37-2.37V379.35a2.32,2.32,0,0,1,2.37-2.37h91a2.31,2.31,0,0,1,2.37,2.37V512.7A2.25,2.25,0,0,1,233,515.07Z" transform="translate(-0.08 -1.75)"/><path class="cls-6" d="M224.45,532.79H150.86a2.82,2.82,0,0,1,0-5.64h73.59C228.06,527,228.17,532.9,224.45,532.79Z" transform="translate(-0.08 -1.75)"/><path class="cls-6" d="M224.45,546H150.86a3,3,0,0,1-2.93-2.82,2.88,2.88,0,0,1,2.82-2.93h73.58C228.06,540.13,228.17,546,224.45,546Z" transform="translate(-0.08 -1.75)"/><path class="cls-6" d="M224.45,559.09H150.86a2.83,2.83,0,0,1,0-5.65h73.59C228.06,553.33,228.17,559.2,224.45,559.09Z" transform="translate(-0.08 -1.75)"/><polygon class="cls-5" points="23.34 597.96 34.14 597.96 39.36 556 23.34 556 23.34 597.96"/><path class="cls-4" d="M20.57,596.11h3.1l11.92-4.84,6.46,4.84h0A13.61,13.61,0,0,1,55.7,609.76v.5h-35Z" transform="translate(-0.08 -1.75)"/><polygon class="cls-5" points="65.43 591.13 76.1 593.49 90.38 553.76 74.74 550.16 65.43 591.13"/><path class="cls-4" d="M63.65,588.78l3,.62,12.66-2.11,5.21,6.21h0a13.64,13.64,0,0,1,10.31,16.26l-.13.38-34.14-7.7Z" transform="translate(-0.08 -1.75)"/><path class="cls-9" d="M9.64,343.35c-5.09,15.39-4.59,32,1.24,50l2.49,100.8s-3.73,66.17,8.19,89.39H38.82l8.56-95.47L48.5,424l37,54L61.91,582l21.23,1.86,38.23-112.73L74.2,361.72Z" transform="translate(-0.08 -1.75)"/><path class="cls-3" d="M77.18,365,14.49,354.89a11.77,11.77,0,0,1-7.7-15,10.81,10.81,0,0,1,.74-1.74l2.86-5.71L9.27,272.71A44.55,44.55,0,0,1,30.75,234l6.08-3.6,3.11-7.82,28.42.75.13,10.3,10.18,16.26V250l-.62,88.51-2.86,9.19,4.22,10.68Z" transform="translate(-0.08 -1.75)"/><circle class="cls-5" cx="56.69" cy="186.92" r="25.82" transform="translate(-133.86 228.48) rotate(-85.93)"/><path class="cls-10" d="M29.76,192.51c-.75-3.23-.38-7.82,0-11a31.19,31.19,0,0,1,13.15-21.6A9.26,9.26,0,0,1,47.63,158a4.2,4.2,0,0,1,4.1,2.48,8.25,8.25,0,0,1,4.84-4.72,14,14,0,0,1,6.83-.87,25,25,0,0,1,20.86,14.9c.74,1.61,2.6-4.47,3.47-2.85a6.93,6.93,0,0,0,4,3.47c1.74.5,2.36,7.57,3.11,6a7.83,7.83,0,0,1-4.1,10.3,8,8,0,0,1-3.35.63,33.22,33.22,0,0,1-5.09-1,12.8,12.8,0,0,0-14,9.56,18,18,0,0,0-2.23-5,5.63,5.63,0,0,0-4.6-2.49A6.71,6.71,0,0,0,56.94,191c-1.11,1.37-2,2.85-3.1,4.22-3.35,3.85-8,13-12.66,12.29C37,206.79,30.75,197,29.76,192.51Z" transform="translate(-0.08 -1.75)"/><path class="cls-5" d="M132.86,373.87a8.15,8.15,0,0,1-9.25-7,6.62,6.62,0,0,1-.11-1.45L96.35,354.69l12.39-8.76,23.85,11.48a8.3,8.3,0,0,1,7.36,9.17,8.12,8.12,0,0,1-7.09,7.29Z" transform="translate(-0.08 -1.75)"/><path class="cls-3" d="M116.93,364.48,53.37,340.14l-.09-.16L21,272a23.43,23.43,0,0,1,14-28.81h0a23.29,23.29,0,0,1,30.09,13.63l.82,2.56,14.78,59.74,40.79,31.48Z" transform="translate(-0.08 -1.75)"/><path class="cls-6" d="M1085.23,613.48H1.44a1.35,1.35,0,1,1,0-2.7H1085.23a1.3,1.3,0,0,1,1.35,1.35A1.36,1.36,0,0,1,1085.23,613.48Z" transform="translate(-0.08 -1.75)"/><path class="cls-10" d="M963.5,211.49V188.28a31.16,31.16,0,0,1,62.32,0v23.21a4.18,4.18,0,0,1-4.22,4.22H967.72A4.18,4.18,0,0,1,963.5,211.49Z" transform="translate(-0.08 -1.75)"/><circle class="cls-11" cx="986.88" cy="190.75" r="22.84"/><path class="cls-10" d="M956.05,190.14a24.55,24.55,0,0,1,24.58-24.58h4.59a24.55,24.55,0,0,1,24.58,24.58v.5H1000l-3.36-9.44-.62,9.44h-5.09l-1.73-4.72-.38,4.72H956.05v-.5Z" transform="translate(-0.08 -1.75)"/><path class="cls-12" d="M917.3,367.19a7.59,7.59,0,0,0,5.59-9.19c-.13-.5-.25-.87-.37-1.24l19.74-18.5L928.6,335l-16.76,18a7.65,7.65,0,0,0-3.23,10.31,7.56,7.56,0,0,0,8.69,3.85Z" transform="translate(-0.08 -1.75)"/><path class="cls-13" d="M932.21,351.16l-9.18-13,34.63-35.75L965.73,246a19.21,19.21,0,0,1,21.73-16.27,18.18,18.18,0,0,1,3.47.87h0A19.21,19.21,0,0,1,1003,255l-20.49,60.83Z" transform="translate(-0.08 -1.75)"/><polygon class="cls-12" points="997.06 589.51 986.88 589.51 981.91 550.15 997.06 550.15 997.06 589.51"/><polygon class="cls-12" points="1060.13 579.2 1051.06 584.04 1027.97 551.77 1041.26 544.57 1060.13 579.2"/><path class="cls-4" d="M1074.24,595.35l-6.34,3.48-4.46-5.34.37,7.57-16.89,9.19a4.29,4.29,0,0,1-5.83-1.74,4.09,4.09,0,0,1,0-4l8.44-16.64-3.35-6.08,14.65-6.83Z" transform="translate(-0.08 -1.75)"/><path class="cls-3" d="M1001.49,577.23H980.38V502l-13-49A278.49,278.49,0,0,1,960,345.32v-.12l.13-.12c.37-.25,33.76-27.94,55-6.83,14.28,14.27.87,65.55.13,68.4V495Z" transform="translate(-0.08 -1.75)"/><path class="cls-13" d="M1001.36,222.67h0l-27.06.25L960,256.68c-13.28,20.61-.62,32.41.37,34.27l-2.48,25.32-1.61,16.39L953.69,359l61.7-20.11-6.83-27.44,8-39.73A54.82,54.82,0,0,0,1001.36,222.67Z" transform="translate(-0.08 -1.75)"/><polygon class="cls-3" points="988.74 500.74 1032.19 561.7 1048.83 549.9 1012.58 475.42 988.74 500.74"/><polygon class="cls-6" points="999.1 272.7 983.86 301.27 957.26 321.38 958.97 305.31 953.16 304.62 974.8 290.23 999.1 272.7"/><path class="cls-6" d="M925,381.84l.63,208.73a20.74,20.74,0,0,1-20.54,20.77l-230.46,1.24A20.74,20.74,0,0,1,653.88,592l-1.81-334.18a20.73,20.73,0,0,1,20.54-20.76l230.46-1.25a20.74,20.74,0,0,1,20.77,20.55l.34,63.87,1.35-.11-.33,24.74Z" transform="translate(-0.08 -1.75)"/><path class="cls-7" d="M905.56,598.25l-231.25,1.24a6.49,6.49,0,0,1-6.44-6.32l-1.8-336.44a6.48,6.48,0,0,1,6.32-6.43l231.25-1.24a6.47,6.47,0,0,1,6.43,6.32l1.81,336.44A6.48,6.48,0,0,1,905.56,598.25Z" transform="translate(-0.08 -1.75)"/><circle class="cls-7" cx="786.97" cy="241.1" r="1.81"/><path class="cls-8" d="M855.91,501.41H722.32a3.51,3.51,0,0,1-3.49-3.49v-54.4a3.51,3.51,0,0,1,3.49-3.5H855.91a3.51,3.51,0,0,1,3.49,3.5V497.8A3.54,3.54,0,0,1,855.91,501.41Z" transform="translate(-0.08 -1.75)"/><path class="cls-6" d="M843.15,527.37H734.8a4.18,4.18,0,1,1,0-8.35H843.15C848.56,518.91,848.68,527.48,843.15,527.37Z" transform="translate(-0.08 -1.75)"/><path class="cls-6" d="M843.15,546.78H734.8a4.18,4.18,0,1,1,0-8.35H843.15C848.56,538.21,848.68,546.9,843.15,546.78Z" transform="translate(-0.08 -1.75)"/><path class="cls-6" d="M843.15,566.08H734.8a4.18,4.18,0,1,1,0-8.35H843.15C848.56,557.62,848.68,566.2,843.15,566.08Z" transform="translate(-0.08 -1.75)"/><path class="cls-12" d="M867.46,317.39a7.56,7.56,0,0,0,9.91-4.2l.39-1.31,26.78-3.48-9.16-10.6-24.11,4.92a7.6,7.6,0,0,0-8.65,6.51A7.78,7.78,0,0,0,867.46,317.39Z" transform="translate(-0.08 -1.75)"/><path class="cls-13" d="M884.41,311.26l.16-15.88,48.95-8.85,39.43-41a19.15,19.15,0,0,1,27.08-.55,19.4,19.4,0,0,1,2.33,2.63h0A19.29,19.29,0,0,1,998,274.36l-52.17,37.28Z" transform="translate(-0.08 -1.75)"/><ellipse class="cls-7" cx="185.57" cy="487.75" rx="9.39" ry="9.15"/><path class="cls-7" d="M184.65,394c-14.68.1-26.7,11.72-26.91,26v2.27a6.8,6.8,0,0,0,6.88,6.7h0a6.81,6.81,0,0,0,6.9-6.72h0v-1.43a13.07,13.07,0,0,1,26.13,0,12.68,12.68,0,0,1-6,10.72h0s-9.8,6.15-12.8,14.58h0a18.18,18.18,0,0,0-.8,5.34c0,.73,0,7.22.13,12.49a7,7,0,0,0,7.1,6.8h0a7,7,0,0,0,7.1-6.92v0c0-4.81,0-10.43,0-10.84,0-5.18,5.13-10.35,9.35-13.71a27.39,27.39,0,0,0,9.74-15.12,17,17,0,0,0,.51-3.74c0-14.58-12.13-26.42-27.09-26.42A.55.55,0,0,1,184.65,394Z" transform="translate(-0.08 -1.75)"/><path class="cls-8" d="M855.91,484.7H722.32a3.26,3.26,0,0,1-3.49-2.91V288.93a3.26,3.26,0,0,1,3.49-2.91H855.91a3.26,3.26,0,0,1,3.49,2.91V481.79A3.26,3.26,0,0,1,855.91,484.7Z" transform="translate(-0.08 -1.75)"/><ellipse class="cls-7" cx="790.1" cy="460.02" rx="15.02" ry="14.64"/><path class="cls-7" d="M788.58,309c-23.48.16-42.71,18.75-43,41.64v3.63a10.87,10.87,0,0,0,11,10.72h0a10.9,10.9,0,0,0,11-10.76h0v-2.29c0-11.23,9.34-20.37,20.91-20.37a20.62,20.62,0,0,1,20.9,20.37,20.27,20.27,0,0,1-9.64,17.16h0s-15.67,9.84-20.47,23.33h0a29.05,29.05,0,0,0-1.28,8.53c0,1.18.07,11.56.2,20a11.22,11.22,0,0,0,11.36,10.89h0a11.24,11.24,0,0,0,11.37-11.08v-.06c0-7.7-.07-16.68-.07-17.35,0-8.28,8.2-16.55,15-21.93a43.84,43.84,0,0,0,15.58-24.19,27.17,27.17,0,0,0,.82-6c0-23.33-19.4-42.27-43.34-42.27A1,1,0,0,1,788.58,309Z" transform="translate(-0.08 -1.75)"/></svg>