<?xml version="1.0" encoding="utf-8"?>
<!-- Generator: Adobe Illustrator 24.1.1, SVG Export Plug-In . SVG Version: 6.00 Build 0)  -->
<svg version="1.1" id="Warstwa_1" xmlns="http://www.w3.org/2000/svg" xmlns:xlink="http://www.w3.org/1999/xlink" x="0px" y="0px"
	 viewBox="0 0 1081.9 610.6" style="enable-background:new 0 0 1081.9 610.6;" xml:space="preserve">
<style type="text/css">
	.st0{fill:#E4E4E3;}
	.st1{fill:#E6E4E3;}
	.st2{fill:#CDCCCC;}
	.st3{fill:#FFFFFF;}
	.st4{fill:none;}
	.st5{fill:#A6A29E;}
	.st6{fill:#F7C0CB;}
	.st7{fill:#CBCACA;}
	.st8{fill:#D5D3D2;}
	.st9{fill:#282524;}
	.st10{fill:#565350;}
	.st11{fill:#875B62;}
	.st12{fill:#B7A17F;}
</style>
<path class="st0" d="M977.5,544.9c-0.1-0.6-1.3-86.3,44.1-128.6l-3.2-2.8c-47,43.8-45.4,131.2-45.4,131.9"/>
<path class="st0" d="M1045.7,367.3c-14.4-5.9-49.5,23.4-56,36.8l0,0c-6.5,13.4-0.1,29.1,14.5,35c14.5,6,31.4,0,37.8-13.3
	C1048.4,412.4,1060.1,373.3,1045.7,367.3z"/>
<path class="st0" d="M1042.6,458.7c0,0-23.6-6.8-41,2.8c-17.4,9.6-22.1,32-22.1,32s23.6,6.8,41-2.8
	C1037.9,481.2,1042.6,458.7,1042.6,458.7z"/>
<path class="st1" d="M329.2,537.1L329.2,537.1c0-8.6,7-15.5,15.5-15.5h647.6c8.5,0,15.5,7,15.5,15.5l0,0c0,8.5-7,15.5-15.5,15.5
	H344.7C336.1,552.6,329.2,545.6,329.2,537.1z"/>
<g>
	<path class="st0" d="M955.4,123.1L664,0.5c-1.8-0.5-3.7-0.5-5.5,0L370.9,123.1c-4.9,1.2-8.2,5.6-8.2,10.6c0.1,6,4.9,10.9,10.9,10.9
		h579.1c6,0,10.9-4.9,10.9-10.9C963.7,128.7,960.2,124.4,955.4,123.1z M874.6,125.3H448c-2.3,0-2.7-3.3-0.5-3.8l213.3-93.9
		c0.3-0.1,0.6-0.1,1,0l213.3,93.9C877.3,122,876.9,125.3,874.6,125.3z"/>
	<path class="st0" d="M929.2,164.8H392.3c-7,0.1-12.7,5.7-12.7,12.7v312c0,7,5.7,12.7,12.7,12.7h536.9c7,0,12.7-5.7,12.7-12.7v-312
		C941.9,170.5,936.2,164.8,929.2,164.8z M919.9,471.7c0,6.1-5.1,11.1-11.3,11.1H412.9c-6.2,0-11.3-5-11.3-11.1V195.3
		c0-6.1,5.1-11.1,11.3-11.1h495.6c6.2,0,11.3,5,11.3,11.1v276.4H919.9z"/>
</g>
<path class="st0" d="M220.6,579.8L220.6,579.8c0-8.6,7-15.5,15.5-15.5H1031c8.6,0,15.5,7,15.5,15.5l0,0c0,8.5-7,15.5-15.5,15.5H236
	C227.5,595.2,220.6,588.3,220.6,579.8z"/>
<path class="st2" d="M1081.4,608.8L1081.4,608.8c0,1.1-0.9,1.9-1.9,1.9H1.5c-1.1,0-1.9-0.9-1.9-1.9l0,0c0-1.1,0.9-1.9,1.9-1.9
	h1078.1C1080.6,606.9,1081.4,607.8,1081.4,608.8z"/>
<path class="st3" d="M113.6,516.3c-0.8,0.2-1.2-1.1-0.3-1.2c6.4-1.5,10.5-8.1,9.6-15.5c-0.2-0.8,1-0.8,1.1,0
	C124.9,507.5,120.6,514.5,113.6,516.3L113.6,516.3z"/>
<g>
	<g>
		<line class="st4" x1="449.3" y1="350" x2="449.3" y2="440.7"/>
		<path class="st5" d="M449.3,448.7c-4.4,0-8-3.6-8-8V350c0-4.4,3.6-8,8-8s8,3.6,8,8v90.7C457.3,445.1,453.7,448.7,449.3,448.7z"/>
	</g>
</g>
<g>
	<g>
		<line class="st4" x1="491.8" y1="313.1" x2="491.8" y2="392.5"/>
		<path class="st5" d="M491.8,400.5c-4.4,0-8-3.6-8-8v-79.4c0-4.4,3.6-8,8-8s8,3.6,8,8v79.4C499.8,396.9,496.3,400.5,491.8,400.5z"
			/>
	</g>
</g>
<g>
	<g>
		<line class="st4" x1="534.4" y1="381.2" x2="534.4" y2="437.8"/>
		<path class="st5" d="M534.4,445.8c-4.4,0-8-3.6-8-8v-56.7c0-4.4,3.6-8,8-8s8,3.6,8,8v56.7C542.4,442.3,538.8,445.8,534.4,445.8z"
			/>
	</g>
</g>
<g>
	<g>
		<line class="st4" x1="576.9" y1="233.8" x2="576.9" y2="423.7"/>
		<path class="st5" d="M576.9,431.7c-4.4,0-8-3.6-8-8V233.8c0-4.4,3.6-8,8-8s8,3.6,8,8v189.9C584.9,428.1,581.3,431.7,576.9,431.7z"
			/>
	</g>
</g>
<g>
	<g>
		<line class="st4" x1="619.4" y1="262.1" x2="619.4" y2="350"/>
		<path class="st5" d="M619.4,358c-4.4,0-8-3.6-8-8v-87.9c0-4.4,3.6-8,8-8s8,3.6,8,8V350C627.4,354.4,623.8,358,619.4,358z"/>
	</g>
</g>
<g>
	<g>
		<line class="st4" x1="661.9" y1="299" x2="661.9" y2="361.3"/>
		<path class="st5" d="M661.9,369.3c-4.4,0-8-3.6-8-8V299c0-4.4,3.6-8,8-8s8,3.6,8,8v62.4C669.9,365.7,666.3,369.3,661.9,369.3z"/>
	</g>
</g>
<g>
	<g>
		<line class="st4" x1="704.4" y1="338.6" x2="704.4" y2="423.7"/>
		<path class="st5" d="M704.4,431.7c-4.4,0-8-3.6-8-8v-85c0-4.4,3.6-8,8-8s8,3.6,8,8v85C712.4,428.1,708.9,431.7,704.4,431.7z"/>
	</g>
</g>
<g>
	<g>
		<line class="st4" x1="747" y1="284.8" x2="747" y2="384"/>
		<path class="st5" d="M747,392c-4.4,0-8-3.6-8-8v-99.2c0-4.4,3.6-8,8-8s8,3.6,8,8V384C755,388.4,751.4,392,747,392z"/>
	</g>
</g>
<g>
	<g>
		<line class="st4" x1="789.5" y1="239.4" x2="789.5" y2="307.5"/>
		<path class="st5" d="M789.5,315.5c-4.4,0-8-3.6-8-8v-68c0-4.4,3.6-8,8-8s8,3.6,8,8v68C797.5,311.9,793.9,315.5,789.5,315.5z"/>
	</g>
</g>
<g>
	<g>
		<line class="st4" x1="832" y1="276.3" x2="832" y2="364.1"/>
		<path class="st5" d="M832,372.1c-4.4,0-8-3.6-8-8v-87.9c0-4.4,3.6-8,8-8s8,3.6,8,8v87.9C840,368.6,836.4,372.1,832,372.1z"/>
	</g>
</g>
<g>
	<g>
		<line class="st4" x1="874.5" y1="236.6" x2="874.5" y2="321.6"/>
		<path class="st5" d="M874.5,329.6c-4.4,0-8-3.6-8-8v-85c0-4.4,3.6-8,8-8s8,3.6,8,8v85C882.5,326,878.9,329.6,874.5,329.6z"/>
	</g>
</g>
<g>
	<path class="st0" d="M73.2,607.8c0.2-0.4,11.2-34.8-8.5-65.6l-2.1,1.3c19.2,29.8,8.4,63.3,8.3,63.5L73.2,607.8z"/>
	<path class="st0" d="M50.6,546.6c1.8,8.5,10,13.9,18.5,12.1s13.9-10,12.1-18.5l0,0c-1.8-8.5-17-29.6-25.5-27.7
		C47.4,514.2,48.8,538.1,50.6,546.6z"/>
	<path class="st0" d="M53.5,586.2c7.5,8.1,21.1,7.9,21.1,7.9s1.3-13.5-6.3-21.7c-7.7-8.1-21.1-7.9-21.1-7.9S45.9,578.1,53.5,586.2z"
		/>
</g>
<g>
	<path class="st6" d="M260.8,336.2c-4.5-4.2-12.4-3.2-15.9,2.1l-35.7-8.1l5.9,17.3l32.9,4.9C257.8,358.2,269.6,344.2,260.8,336.2
		L260.8,336.2z"/>
	<path class="st7" d="M135.3,508h46.6l19,98.6l5.7,0.1l-36.2-190.3l-6.1,1.1l9.5,49.4h-30.7l9.5-49.4l-6.1-1.1L110,606.7l6.1-0.1
		L135.3,508z M136.6,500.7l5.1-26.5h33.5l5.1,26.5H136.6z"/>
	<path class="st8" d="M158.8,261.4l-11.2,5.2c-11.6,16.8,19.4,68.6,20.7,76.5L234,351l0.1-16.2l-46.8-12.4
		C183.3,300.1,173.7,278.8,158.8,261.4z"/>
	<path class="st7" d="M162.7,396.2c-59.9,0.3-59.9,28.8,0,29.1C222.6,425,222.6,396.5,162.7,396.2z"/>
	<polygon class="st6" points="265.9,596 277.7,591.7 266.6,545.2 249.2,551.5 	"/>
	<path class="st9" d="M259.6,604.9l40.6,1.8c1.1-8.6-5.5-16.1-14.4-16.5l-24.8-1.1L259.6,604.9z"/>
	<polygon class="st6" points="300.2,594.5 311.7,589.5 297.6,543.8 280.6,551.1 	"/>
	<path class="st9" d="M302.2,606.7l37-16c-3.3-8.1-12.9-11.9-21-8.3l-22.6,9.8L302.2,606.7z"/>
	<path class="st10" d="M127.2,375.3c0,0-6.1,18.5,31.3,41.8l48.2,46.9l49.8,112.8l19.8-5.7c-18.8-47.6-32.7-125.6-62.3-168
		l-0.7-24.8l-6.5-17.5l-47.7-16.5L127.2,375.3z"/>
	<path class="st10" d="M151.5,376.2c0,0-6.1,18.5,31.3,41.8l59.5,59.6l45.4,99.2L308,569c-9.3-24.4-33.1-93.7-42.8-119.2
		c-16-29.2-36.1-56.8-60.4-79.7l-0.9-13.7l-20.4-11.1L151.5,376.2z"/>
	<path class="st8" d="M180.4,285.8l-15-31.1l-26.1-3.5c-21.1,27.4-15.3,53.4-11.3,99.5c0,3.1-2.7,4.5-2.8,7.3c0,2.7,5.2,7.2,3.7,9.1
		c-20.1,26.1,53.4-12.8,77.8-6.4L180.4,285.8z"/>
	<path class="st6" d="M155.4,196.7c-33.3,0.6-33.3,48.5,0,49.1C188.7,245.2,188.7,197.3,155.4,196.7z"/>
	<path class="st6" d="M248.8,367.1c-3.7-4.9-11.7-5-16-0.3L199,353.5l2.7,18l31.6,9.8C241.9,388.3,256.1,376.3,248.8,367.1
		L248.8,367.1z"/>
</g>
<path class="st0" d="M130.8,136.2"/>
<path class="st0" d="M133,140.5L133,140.5c1.2,0,2.2-1,2.2-2.2l0,0c0-1.2-1-2.2-2.2-2.2l0,0c-1.2,0-2.2,1-2.2,2.2l0,0
	C130.8,139.5,131.8,140.5,133,140.5z"/>
<path class="st11" d="M163.2,264.9l2.3-10.5c1.5-7.1,0.2-14.6-3.6-20.7c-3.6-5.8-3.8-13.2-0.6-19.2c2.4-4.9,7.2-8,12.4-8.1h0.6v-0.6
	c0-9.2-6.9-15.6-13.3-16c-0.2-1.9-1.5-3.6-3.8-5c-5.4-3.2-16-3.9-23.9,0.4c-0.3-2.8-2.1-5.3-4.7-6.4c-1.3-0.5-2.7-0.6-4.1-0.2
	c-0.1-2.3-1-4.5-2.6-6.1c-2.2-2.2-5.7-3-9.7-2.3c-5.4,1-10.8,4.6-15,10c-3.8,4.8-6.4,10.6-9,16.1c-2.5,5.4-5.1,11-8.8,15.8
	c-4.1,5.2-9.2,8.6-14.4,9.5c-6,1.1-12.1-1.5-15-6.2l-0.6-0.9l-0.5,1c-3.2,6-1.9,14.3,3.1,19.6c4.4,4.8,11.4,7.3,18.6,6.6
	c6.1-0.6,12.3-3.3,18.3-8s9.7-9.8,11-15.3c0.4-1.7,0.6-3.4,0.8-5.2c0.4-3.6,0.8-7.1,3-9.6c1.9-2.3,5-3.3,7.6-4l0.5-0.1
	c0.2,2.1,1.3,4,2.9,5.1c0.5,0.3,1,0.5,1.6,0.6c-3.1,12.9-1.8,22.7,3.8,29.3c9.5,11.1,27.7,8.8,28.4,8.7l0.5-0.1v-0.5
	c0.1-1.4,0.2-2.9,0.5-4.3c2.6,6.5,11.4,23.7,12.5,25.4L163.2,264.9z"/>
<polygon class="st5" points="165.9,299 185.7,350 163,341.5 "/>
<path class="st8" d="M211,378.3l3-17.2l-43.7-19.5c0.4-41.1,1.8-30.3-17.7-65.7l-12.4,3.8c-13,19.7,0.7,43.4,4.8,70.5
	c1.5,6.2,6.2,11.1,12.7,12.9L211,378.3z"/>
<g>
	<g>
		<g>
			<g>
				<path class="st12" d="M434.5,173.8c0.3,39.8-42.1,53.5-43.3,91.4c-1.3,56.2-83.9,56.7-85.1,0.3c-0.6-18.9-10.8-30.4-21.6-43.2
					C188.4,90.6,427.4,4,434.5,173.8z M349.3,222.3c74.5-2.9,73.4-112-1.2-114.3C274.3,111.6,273.6,220.6,349.3,222.3z M346.5,251.1
					c-9.4-1.7-13.2,2.6-12.4,13c0.9,22,30.2,19.4,28.8-2.2C364,248.9,355,251.3,346.5,251.1z"/>
				<path class="st12" d="M362.9,43.2c3.4,27.9-31.7,27.8-28.8,0.3C331,14.5,367,15,362.9,43.2z"/>
				<path class="st12" d="M282,81.2c-2.5,30.7-36.4,12.9-38.4-7.2c-1.6-8.4,4.6-14,12.4-13.7C270.4,60.9,276.4,72.3,282,81.2z"/>
				<path class="st12" d="M454,74.6c-1.7,11.7-10.4,19.6-22,22.9c-8.9,2.6-16.4-4-15.8-12.7C414.7,65.1,451.8,46,454,74.6z"/>
				<path class="st12" d="M226.6,179.4c-26.9,4-28.5-31.2-1-28.8c10.8,0.1,22.5,0.9,21.9,15C247,177.7,236.9,179.8,226.6,179.4z"/>
				<path class="st12" d="M469.4,150.6c11.4,0,22,1.4,22,14c0,13.8-11.1,15-22.2,15C442.1,181.9,444.1,147.1,469.4,150.6z"/>
			</g>
		</g>
	</g>
	<path class="st12" d="M362.9,356.7c4,33.5-38,33.4-34.6,0.4C324.7,322.5,367.8,322.7,362.9,356.7z"/>
</g>
</svg>
