<svg id="Warstwa_1" data-name="Warstwa 1" xmlns="http://www.w3.org/2000/svg" viewBox="0 0 100.65 100.89"><defs><style>.cls-1{fill:#010201;}.cls-2{fill:#d8a735;}.cls-3{fill:#f3d886;}.cls-4{fill:#d9a735;}.cls-5{fill:#e5e5e4;}.cls-6{fill:#e6e6e6;}.cls-7{fill:#e4e0d9;}.cls-8{fill:#e4e4e4;}.cls-9{fill:#e4e3e1;}.cls-10{fill:#e4e3e0;}.cls-11{fill:#a9a9a9;}.cls-12{fill:#a9a8a8;}.cls-13{fill:#ceccc9;}.cls-14{fill:#cfcece;}.cls-15{fill:#aaa;}.cls-16{fill:#c9392b;}.cls-17{fill:#ceccc8;}.cls-18{fill:#fff;}.cls-19{fill:#a7a6a6;}.cls-20{fill:#797777;}.cls-21{fill:#cc4036;}.cls-22{fill:#cbcaca;}.cls-23{fill:#9b2822;}.cls-24{fill:#d1d0d0;}.cls-25{fill:#cecaca;}.cls-26{fill:#d0cecd;}.cls-27{fill:#dfdfdf;}.cls-28{fill:#cdcccc;}.cls-29{fill:#f9f8f9;}</style></defs><path class="cls-1" d="M347.09,420.14c.92,27.84-22.34,51.14-51.23,50.48-27.9-.64-49.51-22-49.4-50.82.11-27.62,21.82-51,53.24-50C324.56,370.54,348,393.2,347.09,420.14Z" transform="translate(-246.46 -369.74)"/><path class="cls-2" d="M253.19,420.2c-.6-25.35,20.15-44.3,44.15-44.12A43.85,43.85,0,0,1,341,421c-.63,25.86-20.49,43.42-44.55,43.19C272,464,252.61,445.28,253.19,420.2Z" transform="translate(-246.46 -369.74)"/><path class="cls-3" d="M296.69,460.52c-21.8,1.56-41.22-19.48-40.64-41,.62-23.18,18.42-40.54,40.52-40.55,23.85,0,40.87,17.19,41.4,41.18C338.48,442.64,318.68,461.65,296.69,460.52Z" transform="translate(-246.46 -369.74)"/><path class="cls-4" d="M297.44,382.6c19.68-1.15,37.78,16.5,37.39,37.5-.39,20.62-16.16,37.9-39.25,37.54-19.63-.3-36.55-17.48-36.47-38.08C259.19,399.77,276.15,381.26,297.44,382.6Z" transform="translate(-246.46 -369.74)"/><path class="cls-5" d="M330.92,423.67c.55,7.62-3.37,13.43-7.7,19.09-1.64-.59-3.23-1.21-3.34-3.33a27.62,27.62,0,0,0,6.79-16.6C328.26,422.26,329.74,422.22,330.92,423.67Z" transform="translate(-246.46 -369.74)"/><path class="cls-6" d="M294.1,454.44A27.32,27.32,0,0,1,275,446.68c-.32-2.38,1-3.32,3.13-3.5a26.31,26.31,0,0,0,12.55,6.41,6,6,0,0,1,3.88,2A2.47,2.47,0,0,1,294.1,454.44Z" transform="translate(-246.46 -369.74)"/><path class="cls-7" d="M275.2,393.62a27.69,27.69,0,0,1,18.87-7.82,2.11,2.11,0,0,1,.37,2.8c-5.84,2.63-12.32,3.88-17.37,8.2C275.24,396.45,274.05,395.72,275.2,393.62Z" transform="translate(-246.46 -369.74)"/><path class="cls-8" d="M269.91,441.67c-4.31-5.25-6.49-11.39-7.55-18,1.23-1.47,2.74-1.4,4.35-.78a47.92,47.92,0,0,0,6.77,16.76C273,441.52,271.68,442,269.91,441.67Z" transform="translate(-246.46 -369.74)"/><path class="cls-7" d="M300.21,385.8a27.7,27.7,0,0,1,18.78,8c0,2.21-1,3.2-3.24,2.79a23.5,23.5,0,0,0-11.54-6.05,7.84,7.84,0,0,1-4.41-1.95A2.13,2.13,0,0,1,300.21,385.8Z" transform="translate(-246.46 -369.74)"/><path class="cls-9" d="M324,398.52c4.2,5.29,7,11.1,7,18a2.47,2.47,0,0,1-2.9.27c-2.45-5.46-4-11.34-7.33-16.4C321.15,398.63,321.88,397.4,324,398.52Z" transform="translate(-246.46 -369.74)"/><path class="cls-6" d="M318.25,446.7c-4.87,5.28-11.27,7-18.07,7.74a2.53,2.53,0,0,1-.5-2.91c5.16-3.29,11.29-4.44,16.55-7.49C317.64,444.37,318.77,444.91,318.25,446.7Z" transform="translate(-246.46 -369.74)"/><path class="cls-10" d="M262.3,416.56c1.35-6.58,2.68-13.16,8-18,1.76-.28,2.21.75,2.24,2.22-3.28,5-3.85,11.24-7.31,16.18A2.72,2.72,0,0,1,262.3,416.56Z" transform="translate(-246.46 -369.74)"/><path class="cls-11" d="M262.3,416.56l2.88-.08c1.73-1,3.19-.71,3.81,1.22.72,2.24.69,4.46-1.81,5.79l-4.82.17Z" transform="translate(-246.46 -369.74)"/><path class="cls-12" d="M328.12,416.52l2.86,0a17,17,0,0,1-.06,7.1l-4.82-.17c-2.34-1.21-2.45-3.26-1.67-5.34C325,416.59,326.14,415.36,328.12,416.52Z" transform="translate(-246.46 -369.74)"/><path class="cls-13" d="M324,398.52a3,3,0,0,0-2.89,2c-1.73,2.73-3.56,1.51-5.06-.1-1-1.11-2.79-2.66,0-3.92a6.18,6.18,0,0,0,2.9-2.7A14.31,14.31,0,0,1,324,398.52Z" transform="translate(-246.46 -369.74)"/><path class="cls-14" d="M269.91,441.67l3.23-2.25c.66-2.58,2.38-1.82,3.73-.93,1.76,1.16,2.82,2.78,1.22,4.91a7.71,7.71,0,0,0-3.07,3.28Z" transform="translate(-246.46 -369.74)"/><path class="cls-14" d="M318.25,446.7l-2.09-2.27c-2.28-1.94-1.38-3.77.39-5.32,1.13-1,2.62-2.26,3.6.32.77,1.33,2.72,1.59,3.07,3.33C321.82,444.39,320.72,446.41,318.25,446.7Z" transform="translate(-246.46 -369.74)"/><path class="cls-15" d="M300.27,451.39l-.09,3.05H294.1l-.09-3.05c-1.3-3.35.87-4.08,3.36-4S301.53,448.45,300.27,451.39Z" transform="translate(-246.46 -369.74)"/><path class="cls-16" d="M300.21,385.8l.1,2.76c.65,3.23-1.46,4-3.9,3.92s-3.62-1.38-2.44-3.92c0-.92.07-1.85.1-2.76Z" transform="translate(-246.46 -369.74)"/><path class="cls-17" d="M272.08,400.63a2.85,2.85,0,0,0-1.79-2.05,18,18,0,0,1,4.91-5,2.84,2.84,0,0,0,2,2.86c2.87,1.39,1,3-.09,4C275.66,401.86,273.79,404,272.08,400.63Z" transform="translate(-246.46 -369.74)"/><path class="cls-18" d="M272.08,400.63c4,1.44,5.3-.42,5.11-4.15,4.05-5.9,10.42-6.9,16.78-7.92.29,1.47-.29,3.36,2.43,3.3,2.41-.06,3.76-.83,3.91-3.3,4.87.77,9.63,1.76,13.71,4.85,1.11.85,2.08,1.57,2.07,3.07-.24,3.74,1,5.57,5,4,4.7,4.3,6.4,9.92,7,16-4.44,1.23-3.27,4.09-2,7,1.34,1.25,2.51,2.41,1.33,4.55-2.19,4-2.33,9.2-7.28,11.39-3.72,0-4.42.9-4,5-4.42,4.33-10.13,5.71-15.89,7,.08-2.39-1.29-2.82-3.37-2.82s-2.9.89-2.89,2.82c-4.94-.67-9.7-1.77-13.83-4.85-1.14-.86-2-1.68-2.09-3.14-.3-3-.82-5.74-4.95-4-4.92-4.11-7.56-11.15-6-15.93.82-2.76,3.27-6-2-7C266.86,410.93,267.77,405,272.08,400.63Z" transform="translate(-246.46 -369.74)"/><path class="cls-19" d="M306,422.53c2.22,4.65,5.83,8.56,7.82,14.43-5.66-1.66-9.2-5.49-13.64-7.6-2-.6-4.67.17-5.25-2.91,3.48-1.86,7-3.69,8-8C306.06,418.2,305.45,420.79,306,422.53Z" transform="translate(-246.46 -369.74)"/><path class="cls-20" d="M303.06,418.53c-.17,5.74-1.54,7.11-7.9,7.9-1.7-.49-3.4-1-4-3l-.83-1.14a2.19,2.19,0,0,1-.94-1.9,9.67,9.67,0,0,1,2.26-5.46c1.78-1.51,3.67-2.73,6.17-2.22a2.19,2.19,0,0,1,1.11,1c.23.53.53,1,1.22.86,1.78-.51,2.24.42,2.14,2a.9.9,0,0,0,.15.82A6,6,0,0,1,303.06,418.53Z" transform="translate(-246.46 -369.74)"/><path class="cls-21" d="M298,413.45c-2.21-.06-3.84,1.3-5.63,2.27-4.61-1.86-6.65-6.71-10.73-9.19,0-2.84,0-3,2-1.84,3.88,2.18,7.66,4.54,11.48,6.82C296.82,411.08,298.18,411.13,298,413.45Z" transform="translate(-246.46 -369.74)"/><path class="cls-22" d="M291.17,423.46l4,3,5,2.93c-3.27,2.61-1,7.07-3.63,10.27-.49-2.75-1-5.28-1.36-7.84-.7-5.56-1.22-5.91-6.23-3.67C288.57,426,290.55,425,291.17,423.46Z" transform="translate(-246.46 -369.74)"/><path class="cls-23" d="M281.62,406.53c5.17,1.2,7.42,5.82,10.73,9.19-.72,1.64-1.45,3.29-2.17,4.94-1.69.21-1.93-.93-2.05-2.19Z" transform="translate(-246.46 -369.74)"/><path class="cls-24" d="M303.06,418.53c-.2-.39-.41-.78-.61-1.18,4,.37,7.94.61,11.7,2.11.59,2-1.53,1.14-2,2-2,.49-4.33-.66-6.13,1.09Z" transform="translate(-246.46 -369.74)"/><path class="cls-25" d="M298,413.45l-2.84-1.94c.42-3.67.84-7.34,1.36-11.9,2,5.1,2,9.65,2.44,14.1A9.65,9.65,0,0,1,298,413.45Z" transform="translate(-246.46 -369.74)"/><path class="cls-26" d="M288.13,418.47c1.05.39.69,2.09,2,2.19.06.55.12,1.11.17,1.66-2.64-1.06-5.44-.65-8.17-.89-.6-.52-1.65-.81-1-2C283.26,417.65,285.82,419,288.13,418.47Z" transform="translate(-246.46 -369.74)"/><path class="cls-27" d="M281.14,419.46l1,2c-2.14-.2-4.42.52-7.05-.84C277.35,418.93,279.35,419.73,281.14,419.46Z" transform="translate(-246.46 -369.74)"/><path class="cls-28" d="M302.3,416.53l-2.14-2a4.41,4.41,0,0,1,4.62-1.7Z" transform="translate(-246.46 -369.74)"/><path class="cls-27" d="M312.12,421.44l2-2c1.19.13,2.54-.28,3.78,1.14C315.92,422,313.94,421.24,312.12,421.44Z" transform="translate(-246.46 -369.74)"/><path class="cls-29" d="M300.15,419.88a3.36,3.36,0,0,1-3.49,3.4c-1.83.07-2.77-1.32-2.56-3.37.18-1.65.6-3.12,2.46-3.11C298.7,416.82,299.48,418.59,300.15,419.88Z" transform="translate(-246.46 -369.74)"/></svg>