<svg id="Warstwa_1" data-name="Warstwa 1" xmlns="http://www.w3.org/2000/svg" xmlns:xlink="http://www.w3.org/1999/xlink" viewBox="0 0 28.4 28.3"><defs><style>.cls-1{fill:url(#Gradient_bez_nazwy);}</style><linearGradient id="Gradient_bez_nazwy" x1="13.74" y1="28.14" x2="42.09" y2="28.14" gradientTransform="matrix(1, 0, 0, -1, 0, 55.89)" gradientUnits="userSpaceOnUse"><stop offset="0" stop-color="#bba381"/><stop offset="0.9" stop-color="#1b1917"/></linearGradient></defs><path class="cls-1" d="M17.2,41.9H38.7a3.37,3.37,0,0,0,3.4-3.4v-4a1.79,1.79,0,0,0-1.8-1.8h0a1.79,1.79,0,0,0-1.8,1.8v2.1a1.79,1.79,0,0,1-1.8,1.8H19.1a1.79,1.79,0,0,1-1.8-1.8V18.9a1.79,1.79,0,0,1,1.8-1.8H36.8a1.79,1.79,0,0,1,1.8,1.8V21a1.79,1.79,0,0,0,1.8,1.8h0A1.79,1.79,0,0,0,42.2,21V17a3.37,3.37,0,0,0-3.4-3.4H17.2A3.37,3.37,0,0,0,13.8,17V38.5A3.31,3.31,0,0,0,17.2,41.9Z" transform="translate(-13.8 -13.6)"/></svg>