<svg id="Warstwa_1" data-name="Warstwa 1" xmlns="http://www.w3.org/2000/svg" xmlns:xlink="http://www.w3.org/1999/xlink" viewBox="0 0 369.58 97.54"><defs><style>.cls-1{fill:#43403c;}.cls-2{fill:url(#Gradient_bez_nazwy_15);}</style><linearGradient id="Gradient_bez_nazwy_15" x1="304.88" y1="422.67" x2="404.42" y2="422.67" gradientUnits="userSpaceOnUse"><stop offset="0" stop-color="#bca482"/><stop offset="0.9" stop-color="#43403c"/></linearGradient></defs><path class="cls-1" d="M328,402.09a1.83,1.83,0,0,0-3.12,1.29v33a1.73,1.73,0,0,0,.54,1.32,1.78,1.78,0,0,0,1.29.52H347a1.85,1.85,0,0,0,1.29-.5,1.61,1.61,0,0,0,.54-1.24,1.63,1.63,0,0,0-.54-1.25,1.84,1.84,0,0,0-1.29-.49H328.58v-31.4A1.76,1.76,0,0,0,328,402.09Z" transform="translate(-304.88 -373.89)"/><path class="cls-1" d="M375.82,402.49a20.63,20.63,0,0,0-15,0,17.7,17.7,0,0,0-9.85,9.92,20.9,20.9,0,0,0,0,15,17.7,17.7,0,0,0,9.85,9.92,20.63,20.63,0,0,0,15,0,18.14,18.14,0,0,0,6-3.95,17.66,17.66,0,0,0,3.92-6,20.9,20.9,0,0,0,0-15,17.66,17.66,0,0,0-3.92-6A18.14,18.14,0,0,0,375.82,402.49Zm7.66,17.39a16.21,16.21,0,0,1-1.13,6.09,14.85,14.85,0,0,1-3.17,4.88,14.3,14.3,0,0,1-4.82,3.25,15.47,15.47,0,0,1-6,1.15,15.63,15.63,0,0,1-6.07-1.15,14.39,14.39,0,0,1-4.82-3.25,14.85,14.85,0,0,1-3.17-4.88,16.84,16.84,0,0,1,0-12.13,15,15,0,0,1,3.17-4.89,14.52,14.52,0,0,1,4.82-3.24,15.63,15.63,0,0,1,6.07-1.15,15.47,15.47,0,0,1,6,1.15,14.42,14.42,0,0,1,4.82,3.24,15,15,0,0,1,3.17,4.89A16.06,16.06,0,0,1,383.48,419.88Z" transform="translate(-304.88 -373.89)"/><path class="cls-1" d="M400.68,401.55H389.54a1.61,1.61,0,0,0-1.69,1.69,1.63,1.63,0,0,0,.47,1.18,1.66,1.66,0,0,0,1.22.47h11.14v31.53a1.84,1.84,0,0,0,1.83,1.84,1.75,1.75,0,0,0,1.32-.54,1.83,1.83,0,0,0,.52-1.3V404.89h11.18a1.7,1.7,0,0,0,1.23-.47,1.63,1.63,0,0,0,.47-1.18,1.66,1.66,0,0,0-.47-1.22,1.7,1.7,0,0,0-1.23-.47H400.68Z" transform="translate(-304.88 -373.89)"/><path class="cls-1" d="M432.55,402.82a1.79,1.79,0,0,0-1.74-1.27,1.82,1.82,0,0,0-1.79,1.27L415.2,435.63a1.87,1.87,0,0,0,.1,1.73,1.61,1.61,0,0,0,1.55.9,1.92,1.92,0,0,0,1-.28,1.77,1.77,0,0,0,.68-.85l3.16-7.61h18.19l3.14,7.61a2.05,2.05,0,0,0,.73.85,1.89,1.89,0,0,0,1,.28,1.83,1.83,0,0,0,1.64-2.59ZM423,426.37l7.82-18.83,7.76,18.83Z" transform="translate(-304.88 -373.89)"/><path class="cls-1" d="M479.45,401.55a1.78,1.78,0,0,0-1.83,1.83v28.34l-22.47-29.51a1.82,1.82,0,0,0-3.24,1.17v33a1.78,1.78,0,0,0,1.83,1.84,1.79,1.79,0,0,0,1.3-.52,1.73,1.73,0,0,0,.54-1.32V408.13l22.51,29.52a1.35,1.35,0,0,0,.61.47,2.21,2.21,0,0,0,.75.14,1.8,1.8,0,0,0,1.3-.52,1.73,1.73,0,0,0,.54-1.32v-33a1.73,1.73,0,0,0-.54-1.31A1.8,1.8,0,0,0,479.45,401.55Z" transform="translate(-304.88 -373.89)"/><path class="cls-1" d="M531.15,419.93h-9.07a2,2,0,0,0-1.31.44,1.46,1.46,0,0,0-.52,1.16,1.49,1.49,0,0,0,.52,1.17,1.88,1.88,0,0,0,1.31.47h7.33v9.36a15.43,15.43,0,0,1-3.57,1.87,13.89,13.89,0,0,1-4.89.85,13.72,13.72,0,0,1-5.71-1.2,14.77,14.77,0,0,1-4.67-3.31,15.76,15.76,0,0,1-3.18-4.89,15.56,15.56,0,0,1-1.15-6,15.24,15.24,0,0,1,1.15-5.87,15.76,15.76,0,0,1,3.18-4.89,15.19,15.19,0,0,1,4.67-3.34,13.58,13.58,0,0,1,5.71-1.22,15.06,15.06,0,0,1,5,.77,12.45,12.45,0,0,1,4,2.38,1.78,1.78,0,0,0,1,.42,1.64,1.64,0,0,0,.87-.14.84.84,0,0,0,.47-.56,1.3,1.3,0,0,0,.57-.59A1.45,1.45,0,0,0,533,406a1.17,1.17,0,0,0-.49-.77,17.57,17.57,0,0,0-5.36-3.15,18.22,18.22,0,0,0-6.16-1,17.29,17.29,0,0,0-7.16,1.48,18.57,18.57,0,0,0-5.83,4.07,18.35,18.35,0,0,0-3.9,6A19.19,19.19,0,0,0,508,433.2a18.05,18.05,0,0,0,5.82,4.07,17.54,17.54,0,0,0,7.12,1.46,20.74,20.74,0,0,0,6.16-.92,13.89,13.89,0,0,0,5.36-3.12,1.6,1.6,0,0,0,.42-.64,2.37,2.37,0,0,0,.1-.68V421.71a1.72,1.72,0,0,0-.52-1.29A1.83,1.83,0,0,0,531.15,419.93Z" transform="translate(-304.88 -373.89)"/><path class="cls-1" d="M555.78,423.12a12.57,12.57,0,0,0,1.5-.65,10.53,10.53,0,0,0,5.74-9.59,11.28,11.28,0,0,0-1.53-5.9,10.67,10.67,0,0,0-4.21-4,12.79,12.79,0,0,0-6.11-1.43h-8.78a1.78,1.78,0,0,0-1.84,1.83v33a1.84,1.84,0,1,0,3.67,0V423.88h6.95c.28,0,.54,0,.8-.05l8.46,13.49a2.09,2.09,0,0,0,.64.7,1.66,1.66,0,0,0,1,.24,1.76,1.76,0,0,0,1.72-.85,1.92,1.92,0,0,0-.26-2Zm-11.56-2.77V405.08h6.95a8.92,8.92,0,0,1,4.26,1,7.51,7.51,0,0,1,4,6.82,6.93,6.93,0,0,1-1.09,3.85,7.53,7.53,0,0,1-2.93,2.66,9.16,9.16,0,0,1-4.26,1Z" transform="translate(-304.88 -373.89)"/><path class="cls-1" d="M600,406.44a18.24,18.24,0,0,0-6-3.95,20.63,20.63,0,0,0-15,0,17.7,17.7,0,0,0-9.85,9.92,20.9,20.9,0,0,0,0,15,17.7,17.7,0,0,0,9.85,9.92,20.63,20.63,0,0,0,15,0,18.24,18.24,0,0,0,6-3.95,17.66,17.66,0,0,0,3.92-6,20.9,20.9,0,0,0,0-15A17.66,17.66,0,0,0,600,406.44Zm.56,19.53a14.85,14.85,0,0,1-3.17,4.88,14.3,14.3,0,0,1-4.82,3.25,16.44,16.44,0,0,1-12.08,0,14.39,14.39,0,0,1-4.82-3.25,14.85,14.85,0,0,1-3.17-4.88,16.84,16.84,0,0,1,0-12.13,15,15,0,0,1,3.17-4.89,14.52,14.52,0,0,1,4.82-3.24,16.44,16.44,0,0,1,12.08,0A14.42,14.42,0,0,1,597.4,409a15,15,0,0,1,3.17,4.89,16.84,16.84,0,0,1,0,12.13Z" transform="translate(-304.88 -373.89)"/><path class="cls-1" d="M640.14,401.55a1.78,1.78,0,0,0-1.83,1.83v22.75a8.75,8.75,0,0,1-1.38,4.89,9.53,9.53,0,0,1-3.83,3.31,12.56,12.56,0,0,1-5.6,1.2,13,13,0,0,1-5.69-1.2,9.32,9.32,0,0,1-3.87-3.31,8.67,8.67,0,0,1-1.39-4.89V403.38a1.78,1.78,0,0,0-1.83-1.83,1.76,1.76,0,0,0-1.83,1.83v22.75a12.16,12.16,0,0,0,1.85,6.68,12.6,12.6,0,0,0,5.17,4.55A16.81,16.81,0,0,0,627.5,439a16.43,16.43,0,0,0,7.5-1.65,12.65,12.65,0,0,0,5.12-4.55,12.16,12.16,0,0,0,1.86-6.68V403.38a1.81,1.81,0,0,0-.5-1.31A1.73,1.73,0,0,0,640.14,401.55Z" transform="translate(-304.88 -373.89)"/><path class="cls-1" d="M673,407.28a11,11,0,0,0-4.18-4.2,12.21,12.21,0,0,0-6.16-1.53h-9.4a1.76,1.76,0,0,0-1.83,1.83v33a1.83,1.83,0,1,0,3.66,0V425.29h7.57a12.21,12.21,0,0,0,6.16-1.53,10.93,10.93,0,0,0,4.18-4.19,12.1,12.1,0,0,0,1.5-6.08A12.52,12.52,0,0,0,673,407.28Zm-3.13,10.49a7.5,7.5,0,0,1-2.93,2.93,8.55,8.55,0,0,1-4.28,1.06H655V405.08h7.57a8.45,8.45,0,0,1,4.28,1.08,7.65,7.65,0,0,1,2.93,3,8.7,8.7,0,0,1,1.06,4.37A8.55,8.55,0,0,1,669.82,417.77Z" transform="translate(-304.88 -373.89)"/><path class="cls-2" d="M402.09,450.46a2.07,2.07,0,0,0-1.67,2.08v13a1.86,1.86,0,0,1-1.86,1.86H310.74a1.86,1.86,0,0,1-1.86-1.86V379.75a1.86,1.86,0,0,1,1.86-1.86h87.82a1.86,1.86,0,0,1,1.86,1.86v8.32a2,2,0,0,0,2.34,2,2.07,2.07,0,0,0,1.66-2.08v-8.8a5.27,5.27,0,0,0-5.26-5.27h-89a5.27,5.27,0,0,0-5.26,5.27v87a5.27,5.27,0,0,0,5.26,5.27h89a5.27,5.27,0,0,0,5.26-5.27V452.43A2,2,0,0,0,402.09,450.46Z" transform="translate(-304.88 -373.89)"/></svg>