<svg id="Warstwa_1" data-name="Warstwa 1" xmlns="http://www.w3.org/2000/svg" xmlns:xlink="http://www.w3.org/1999/xlink" viewBox="0 0 369.58 97.54"><defs><style>.cls-1{fill:none;}.cls-2{fill:#1b1917;}.cls-3{fill:url(#Gradient_bez_nazwy_10);}</style><linearGradient id="Gradient_bez_nazwy_10" x1="236.46" y1="297.39" x2="336" y2="297.39" gradientUnits="userSpaceOnUse"><stop offset="0" stop-color="#bca482"/><stop offset="0.9" stop-color="#1b1917"/></linearGradient></defs><polygon class="cls-1" points="118.13 52.47 133.71 52.47 125.95 33.65 118.13 52.47"/><path class="cls-1" d="M489.94,291.45A7,7,0,0,0,491,287.6a7.6,7.6,0,0,0-1.08-4.06,7.42,7.42,0,0,0-2.94-2.75,8.86,8.86,0,0,0-4.25-1H475.8v15.27h6.95a9.09,9.09,0,0,0,4.25-1A7.49,7.49,0,0,0,489.94,291.45Z" transform="translate(-236.46 -248.62)"/><path class="cls-1" d="M529,283.68a14.39,14.39,0,0,0-4.82-3.25,16.44,16.44,0,0,0-12.08,0,14.3,14.3,0,0,0-4.82,3.25,14.85,14.85,0,0,0-3.17,4.88,16.84,16.84,0,0,0,0,12.13,14.89,14.89,0,0,0,3.17,4.89,14.42,14.42,0,0,0,4.82,3.24,16.44,16.44,0,0,0,12.08,0,14.52,14.52,0,0,0,4.82-3.24,14.89,14.89,0,0,0,3.17-4.89,16.84,16.84,0,0,0,0-12.13A14.85,14.85,0,0,0,529,283.68Z" transform="translate(-236.46 -248.62)"/><path class="cls-1" d="M598.46,280.88a8.39,8.39,0,0,0-4.27-1.08h-7.57v16.68h7.57a8.58,8.58,0,0,0,4.27-1.05,7.55,7.55,0,0,0,2.94-2.94,8.52,8.52,0,0,0,1.06-4.28,8.7,8.7,0,0,0-1.06-4.37A7.67,7.67,0,0,0,598.46,280.88Z" transform="translate(-236.46 -248.62)"/><path class="cls-1" d="M305.94,280.43a16.44,16.44,0,0,0-12.08,0,14.3,14.3,0,0,0-4.82,3.25,14.85,14.85,0,0,0-3.17,4.88,16.84,16.84,0,0,0,0,12.13,14.89,14.89,0,0,0,3.17,4.89,14.42,14.42,0,0,0,4.82,3.24,16.44,16.44,0,0,0,12.08,0,14.52,14.52,0,0,0,4.82-3.24,14.89,14.89,0,0,0,3.17-4.89,16.84,16.84,0,0,0,0-12.13,14.85,14.85,0,0,0-3.17-4.88A14.39,14.39,0,0,0,305.94,280.43Z" transform="translate(-236.46 -248.62)"/><path class="cls-2" d="M259.62,276.81a1.76,1.76,0,0,0-1.29-.54,1.84,1.84,0,0,0-1.84,1.84v33a1.73,1.73,0,0,0,.54,1.31,1.82,1.82,0,0,0,1.3.52h20.21a1.84,1.84,0,0,0,1.29-.49,1.63,1.63,0,0,0,.54-1.25,1.61,1.61,0,0,0-.54-1.24,1.85,1.85,0,0,0-1.29-.5H260.16V278.11A1.78,1.78,0,0,0,259.62,276.81Z" transform="translate(-236.46 -248.62)"/><path class="cls-2" d="M307.4,277.21a20.65,20.65,0,0,0-15,0,17.72,17.72,0,0,0-9.84,9.92,20.9,20.9,0,0,0,0,15,17.76,17.76,0,0,0,3.9,6,17.56,17.56,0,0,0,5.94,4,20.65,20.65,0,0,0,15,0,17.94,17.94,0,0,0,6-4,17.68,17.68,0,0,0,3.93-6,20.9,20.9,0,0,0,0-15,17.68,17.68,0,0,0-3.93-6A18.09,18.09,0,0,0,307.4,277.21Zm7.66,17.39a16.14,16.14,0,0,1-1.13,6.09,14.89,14.89,0,0,1-3.17,4.89,14.52,14.52,0,0,1-4.82,3.24,16.44,16.44,0,0,1-12.08,0,14.42,14.42,0,0,1-4.82-3.24,14.89,14.89,0,0,1-3.17-4.89,16.84,16.84,0,0,1,0-12.13,14.85,14.85,0,0,1,3.17-4.88,14.3,14.3,0,0,1,4.82-3.25,16.44,16.44,0,0,1,12.08,0,14.39,14.39,0,0,1,4.82,3.25,14.85,14.85,0,0,1,3.17,4.88A16.06,16.06,0,0,1,315.06,294.6Z" transform="translate(-236.46 -248.62)"/><path class="cls-2" d="M332.26,276.27H321.12a1.61,1.61,0,0,0-1.69,1.7,1.55,1.55,0,0,0,.47,1.17,1.66,1.66,0,0,0,1.22.47h11.14v31.54a1.85,1.85,0,0,0,3.15,1.29,1.81,1.81,0,0,0,.51-1.29V279.61h11.19a1.66,1.66,0,0,0,1.22-.47,1.55,1.55,0,0,0,.47-1.17,1.61,1.61,0,0,0-1.69-1.7H332.26Z" transform="translate(-236.46 -248.62)"/><path class="cls-2" d="M364.12,277.54a1.78,1.78,0,0,0-1.73-1.27,1.82,1.82,0,0,0-1.79,1.27l-13.82,32.81a1.89,1.89,0,0,0,.1,1.74,1.62,1.62,0,0,0,1.55.89,1.85,1.85,0,0,0,1-.28,1.83,1.83,0,0,0,.68-.85l3.16-7.61h18.19l3.14,7.61a2,2,0,0,0,.72.85,1.85,1.85,0,0,0,1,.28,1.71,1.71,0,0,0,1.53-.85,1.69,1.69,0,0,0,.12-1.73Zm-9.53,23.55,7.82-18.83,7.76,18.83Z" transform="translate(-236.46 -248.62)"/><path class="cls-2" d="M411,276.27a1.83,1.83,0,0,0-1.32.52,1.8,1.8,0,0,0-.51,1.32v28.34l-22.47-29.52a1.76,1.76,0,0,0-1.41-.66,1.78,1.78,0,0,0-1.83,1.84v33a1.78,1.78,0,0,0,1.83,1.83,1.78,1.78,0,0,0,1.29-.52,1.73,1.73,0,0,0,.54-1.31v-28.3l22.52,29.52a1.24,1.24,0,0,0,.61.47,2.21,2.21,0,0,0,.75.14,1.78,1.78,0,0,0,1.29-.52,1.73,1.73,0,0,0,.54-1.31v-33a1.75,1.75,0,0,0-.54-1.32A1.82,1.82,0,0,0,411,276.27Z" transform="translate(-236.46 -248.62)"/><path class="cls-2" d="M462.73,294.65h-9.07a2,2,0,0,0-1.32.45,1.46,1.46,0,0,0-.51,1.15,1.52,1.52,0,0,0,.51,1.17,1.87,1.87,0,0,0,1.32.47H461v9.37a16.47,16.47,0,0,1-3.57,1.87,14.2,14.2,0,0,1-4.89.84,13.69,13.69,0,0,1-5.71-1.2,14.77,14.77,0,0,1-4.68-3.31,15.91,15.91,0,0,1-3.17-4.89,15.34,15.34,0,0,1-1.15-6,15.13,15.13,0,0,1,1.15-5.87,15.91,15.91,0,0,1,3.17-4.89,15.35,15.35,0,0,1,4.68-3.34,13.55,13.55,0,0,1,5.71-1.22,14.8,14.8,0,0,1,5,.78,12.52,12.52,0,0,1,4,2.37,1.78,1.78,0,0,0,1,.42,1.46,1.46,0,0,0,.87-.14.82.82,0,0,0,.47-.56,1.19,1.19,0,0,0,.56-.59,1.35,1.35,0,0,0,.12-.84,1.23,1.23,0,0,0-.49-.78,17.69,17.69,0,0,0-5.36-3.15,18.22,18.22,0,0,0-6.16-1,17.49,17.49,0,0,0-7.17,1.48,18.69,18.69,0,0,0-5.82,4.07,18.35,18.35,0,0,0-3.9,6,19.65,19.65,0,0,0,0,14.57,19.26,19.26,0,0,0,3.92,6,18.17,18.17,0,0,0,5.83,4.06,17.35,17.35,0,0,0,7.12,1.46,20.47,20.47,0,0,0,6.16-.92,14,14,0,0,0,5.36-3.12,1.53,1.53,0,0,0,.42-.64,2.38,2.38,0,0,0,.09-.68V296.44a1.72,1.72,0,0,0-.51-1.3A1.89,1.89,0,0,0,462.73,294.65Z" transform="translate(-236.46 -248.62)"/><path class="cls-2" d="M487.35,297.84a11.26,11.26,0,0,0,1.51-.65,10.5,10.5,0,0,0,5.74-9.59,11.3,11.3,0,0,0-1.53-5.9,10.57,10.57,0,0,0-4.21-4,12.68,12.68,0,0,0-6.11-1.44H474a1.78,1.78,0,0,0-1.83,1.84v33A1.78,1.78,0,0,0,474,313a1.78,1.78,0,0,0,1.84-1.83V298.6h6.95c.27,0,.53,0,.8,0L492,312a2.23,2.23,0,0,0,.64.71,2.14,2.14,0,0,0,2.67-.62,1.88,1.88,0,0,0-.26-2Zm-11.55-2.77V279.8h6.95a8.86,8.86,0,0,1,4.25,1,7.42,7.42,0,0,1,2.94,2.75A7.6,7.6,0,0,1,491,287.6a7,7,0,0,1-1.08,3.85,7.49,7.49,0,0,1-2.94,2.66,9.09,9.09,0,0,1-4.25,1Z" transform="translate(-236.46 -248.62)"/><path class="cls-2" d="M531.58,281.16a18,18,0,0,0-6-4,19.41,19.41,0,0,0-7.47-1.41,19.63,19.63,0,0,0-7.52,1.41,17.72,17.72,0,0,0-9.84,9.92,20.9,20.9,0,0,0,0,15,17.76,17.76,0,0,0,3.9,6,17.56,17.56,0,0,0,5.94,4,19.63,19.63,0,0,0,7.52,1.41,19.41,19.41,0,0,0,7.47-1.41,17.88,17.88,0,0,0,6-4,17.68,17.68,0,0,0,3.93-6,20.9,20.9,0,0,0,0-15A17.68,17.68,0,0,0,531.58,281.16Zm.57,19.53a14.89,14.89,0,0,1-3.17,4.89,14.52,14.52,0,0,1-4.82,3.24,16.44,16.44,0,0,1-12.08,0,14.42,14.42,0,0,1-4.82-3.24,14.89,14.89,0,0,1-3.17-4.89,16.84,16.84,0,0,1,0-12.13,14.85,14.85,0,0,1,3.17-4.88,14.3,14.3,0,0,1,4.82-3.25,16.44,16.44,0,0,1,12.08,0,14.39,14.39,0,0,1,4.82,3.25,14.85,14.85,0,0,1,3.17,4.88,16.84,16.84,0,0,1,0,12.13Z" transform="translate(-236.46 -248.62)"/><path class="cls-2" d="M571.72,276.27a1.78,1.78,0,0,0-1.83,1.84v22.74a8.67,8.67,0,0,1-1.39,4.89,9.42,9.42,0,0,1-3.83,3.32,12.52,12.52,0,0,1-5.59,1.19,13,13,0,0,1-5.69-1.19,9.34,9.34,0,0,1-3.87-3.32,8.67,8.67,0,0,1-1.39-4.89V278.11a1.78,1.78,0,0,0-1.83-1.84,1.79,1.79,0,0,0-1.32.52,1.77,1.77,0,0,0-.52,1.32v22.74a12.14,12.14,0,0,0,1.86,6.68,12.69,12.69,0,0,0,5.17,4.56,16.94,16.94,0,0,0,7.59,1.64,16.55,16.55,0,0,0,7.5-1.64,12.81,12.81,0,0,0,5.12-4.56,12.14,12.14,0,0,0,1.86-6.68V278.11a1.84,1.84,0,0,0-.5-1.32A1.78,1.78,0,0,0,571.72,276.27Z" transform="translate(-236.46 -248.62)"/><path class="cls-2" d="M604.53,282a10.94,10.94,0,0,0-4.19-4.21,12.15,12.15,0,0,0-6.15-1.53h-9.4a1.78,1.78,0,0,0-1.84,1.84v33a1.78,1.78,0,0,0,1.84,1.83,1.78,1.78,0,0,0,1.83-1.83V300h7.57a12.15,12.15,0,0,0,6.15-1.53,11,11,0,0,0,4.19-4.18,12.17,12.17,0,0,0,1.5-6.09A12.45,12.45,0,0,0,604.53,282Zm-3.13,10.48a7.55,7.55,0,0,1-2.94,2.94,8.58,8.58,0,0,1-4.27,1.05h-7.57V279.8h7.57a8.39,8.39,0,0,1,4.27,1.08,7.67,7.67,0,0,1,2.94,3,8.7,8.7,0,0,1,1.06,4.37A8.52,8.52,0,0,1,601.4,292.49Z" transform="translate(-236.46 -248.62)"/><path class="cls-3" d="M333.66,325.18a2.07,2.07,0,0,0-1.66,2.08v13a1.86,1.86,0,0,1-1.86,1.86H242.32a1.86,1.86,0,0,1-1.86-1.86V254.48a1.86,1.86,0,0,1,1.86-1.86h87.82a1.86,1.86,0,0,1,1.86,1.86v8.31a2,2,0,0,0,2.34,2,2.07,2.07,0,0,0,1.66-2.08v-8.8a5.27,5.27,0,0,0-5.27-5.26h-89a5.26,5.26,0,0,0-5.26,5.26v87a5.26,5.26,0,0,0,5.26,5.26h89A5.27,5.27,0,0,0,336,340.9V327.15A2,2,0,0,0,333.66,325.18Z" transform="translate(-236.46 -248.62)"/></svg>