<svg id="Warstwa_1" data-name="Warstwa 1" xmlns="http://www.w3.org/2000/svg" viewBox="0 0 28.35 28.35"><defs><style>.cls-1{fill:#21293a;}</style></defs><path class="cls-1" d="M439.47,298.41h0a14.17,14.17,0,0,0-14.17,14.17h0a14.17,14.17,0,0,0,14.17,14.18h0a14.18,14.18,0,0,0,14.18-14.18h0A14.18,14.18,0,0,0,439.47,298.41Zm6.25,11.92a.85.85,0,0,1-1.16,0l-4.27-4.28v15a.82.82,0,0,1-.82.81.81.81,0,0,1-.81-.81v-15l-4.28,4.28a.82.82,0,0,1-1.15-1.16l6.24-6.24,6.25,6.24A.82.82,0,0,1,445.72,310.33Z" transform="translate(-425.3 -298.41)"/></svg>