<svg id="Warstwa_1" data-name="Warstwa 1" xmlns="http://www.w3.org/2000/svg" viewBox="0 0 28.35 28.35"><defs><style>.cls-1{fill:#d87710;}</style></defs><path class="cls-1" d="M429.67,292.05h0a14.17,14.17,0,0,0-14.18,14.17h0a14.18,14.18,0,0,0,14.18,14.18h0a14.18,14.18,0,0,0,14.17-14.18h0A14.17,14.17,0,0,0,429.67,292.05ZM435.91,304a.81.81,0,0,1-1.15,0l-4.28-4.27v15a.81.81,0,0,1-.81.81.82.82,0,0,1-.82-.81v-15L424.57,304a.81.81,0,0,1-1.15-1.15l6.25-6.25,6.24,6.25A.81.81,0,0,1,435.91,304Z" transform="translate(-415.49 -292.05)"/></svg>